<svg width="24" height="24" viewBox="0 0 24 24" fill="none" xmlns="http://www.w3.org/2000/svg">
<path d="M8.325 17.575L3.4 12.675C3.3 12.575 3.22917 12.4667 3.1875 12.35C3.14583 12.2333 3.125 12.1083 3.125 11.975C3.125 11.8417 3.14583 11.7167 3.1875 11.6C3.22917 11.4833 3.3 11.375 3.4 11.275L8.325 6.35001C8.50833 6.16668 8.74167 6.07085 9.025 6.06251C9.30833 6.05418 9.55 6.15001 9.75 6.35001C9.95 6.55001 10.05 6.78751 10.05 7.06251C10.05 7.33751 9.95 7.57501 9.75 7.77501L6.525 10.975H20.3C20.5833 10.975 20.8208 11.0708 21.0125 11.2625C21.2042 11.4542 21.3 11.6917 21.3 11.975C21.3 12.2583 21.2042 12.4958 21.0125 12.6875C20.8208 12.8792 20.5833 12.975 20.3 12.975H6.525L9.75 16.175C9.93333 16.3583 10.025 16.5875 10.025 16.8625C10.025 17.1375 9.93333 17.375 9.75 17.575C9.55 17.775 9.3125 17.875 9.0375 17.875C8.7625 17.875 8.525 17.775 8.325 17.575Z" fill="#21A7CC"/>
</svg>
