<svg width="24" height="24" viewBox="0 0 24 24" fill="none" xmlns="http://www.w3.org/2000/svg">
<path d="M8.70022 12C8.70022 12.1333 8.72522 12.2583 8.77522 12.375C8.82522 12.4916 8.90022 12.6 9.00022 12.7L13.9502 17.65C14.1336 17.8333 14.3669 17.9208 14.6502 17.9125C14.9336 17.9041 15.1669 17.8083 15.3502 17.625C15.5669 17.4083 15.6627 17.1708 15.6377 16.9125C15.6127 16.6541 15.5086 16.425 15.3252 16.225L11.1002 12L15.3252 7.77498C15.5086 7.59165 15.6086 7.35415 15.6252 7.06248C15.6419 6.77081 15.5419 6.53332 15.3252 6.34998C15.1419 6.13332 14.9127 6.03748 14.6377 6.06248C14.3627 6.08748 14.1252 6.19165 13.9252 6.37498L9.00022 11.3C8.90022 11.4 8.82522 11.5083 8.77522 11.625C8.72522 11.7416 8.70022 11.8666 8.70022 12Z" fill="#222222"/>
</svg>
