<svg width="24" height="24" viewBox="0 0 24 24" fill="none" xmlns="http://www.w3.org/2000/svg">
<path d="M15.2998 12C15.2998 12.1333 15.2748 12.2583 15.2248 12.375C15.1748 12.4916 15.0998 12.6 14.9998 12.7L10.0498 17.65C9.86644 17.8333 9.63311 17.9208 9.34978 17.9125C9.06644 17.9041 8.83311 17.8083 8.64978 17.625C8.43311 17.4083 8.33728 17.1708 8.36228 16.9125C8.38728 16.6541 8.49144 16.425 8.67478 16.225L12.8998 12L8.67478 7.77498C8.49144 7.59165 8.39144 7.35415 8.37478 7.06248C8.35811 6.77081 8.45811 6.53332 8.67478 6.34998C8.85811 6.13332 9.08728 6.03748 9.36228 6.06248C9.63728 6.08748 9.87478 6.19165 10.0748 6.37498L14.9998 11.3C15.0998 11.4 15.1748 11.5083 15.2248 11.625C15.2748 11.7416 15.2998 11.8666 15.2998 12Z" fill="#777777"/>
</svg>
