<svg xmlns="http://www.w3.org/2000/svg" width="100" height="100" viewBox="0 0 100 100" fill="none">
  <g clip-path="url(#clip0_600_16360)">
    <path d="M35.1699 1.284V0H37.2546V1.284H46.0436V0H48.1283V1.284H51.8808V0H53.9655V1.284H62.7498V0H64.8345V23.1877H35.1699V1.284ZM51.8761 9.20118H48.1236V21.103H51.8761V9.20118ZM62.7498 9.20118H53.9655V21.103H62.7498V9.20118ZM37.2499 7.11646H62.745V3.36397H37.2499V7.11646ZM37.2499 21.103H46.0389V9.20118H37.2499V21.103Z" fill="#0EA6CE"/>
    <path d="M64.8301 91.4953V100H62.7454V89.4106H53.9611V100H51.8764V89.4106H48.1239V100H46.0392V89.4106H37.2502V100H35.1655V87.3259H42.86L38.4347 80.6548L46.9347 76.8123L48.3893 82.2088L49.3937 85.9376L50.6777 81.1759L51.8527 76.817L60.3527 80.6595L59.1871 82.4173L55.9274 87.3353H64.8348V91.5048L64.8301 91.4953ZM47.6122 87.3259L45.5607 79.7214L41.5239 81.5408L45.3664 87.3259H47.6075H47.6122ZM53.4257 87.3259L57.2635 81.5408L53.2267 79.7214L51.1752 87.3259H53.421H53.4257Z" fill="#0EA6CE"/>
    <path d="M62.0726 66.8577H37.8994V42.6845H43.9688L40.1831 36.9847L48.6831 33.1422L50.1376 38.5388L51.1421 42.2676L52.4261 37.5059L53.6011 33.147L62.1058 36.9895L60.9403 38.7473L58.3201 42.694H62.0774V66.8672L62.0726 66.8577ZM54.9751 36.0513L53.1889 42.6845H55.8138L59.0119 37.8707L54.9751 36.0513ZM46.4657 42.6845H49.0953L47.3043 36.0513L43.2723 37.8707L46.4657 42.6845ZM39.9841 51.194L46.4088 44.7692H39.9841V51.194ZM39.9841 59.2675L54.4824 44.7692H49.3559L39.9841 54.141V59.2675ZM59.9879 58.3578L53.5679 64.7778H59.9879V58.3578ZM59.9879 50.2843L45.4944 64.7778H50.6209L59.9879 55.4108V50.2843ZM59.9879 44.7692H57.4247L39.9794 62.2145V64.7778H42.5474L59.9879 47.3372V44.7692Z" fill="#0EA6CE"/>
    <path d="M19.5916 73.2493H0V71.1645H17.5069V37.6575H0V35.5728H0.0663318L1.26978 31.1143L2.4448 26.7554L10.9448 30.5979L9.77921 32.3557L7.64238 35.5775H19.5916V73.254V73.2493ZM7.85085 31.4839L3.81408 29.6598L2.22212 35.5728H5.13598L7.85085 31.4839Z" fill="#0EA6CE"/>
    <path d="M15.4223 43.1536C15.4223 44.9256 13.9819 46.366 12.2099 46.366C10.4379 46.366 8.99756 44.9256 8.99756 43.1536C8.99756 41.3816 10.4379 39.9413 12.2099 39.9413C13.9819 39.9413 15.4223 41.3816 15.4223 43.1536ZM13.3376 43.1536C13.3376 42.5282 12.8353 42.026 12.2099 42.026C11.5845 42.026 11.0823 42.5282 11.0823 43.1536C11.0823 43.7791 11.5892 44.2813 12.2099 44.2813C12.8306 44.2813 13.3376 43.7743 13.3376 43.1536Z" fill="#0EA6CE"/>
    <path d="M15.4223 54.4111C15.4223 56.1831 13.9819 57.6187 12.2099 57.6187C10.4379 57.6187 8.99756 56.1784 8.99756 54.4111C8.99756 52.6438 10.4379 51.1987 12.2099 51.1987C13.9819 51.1987 15.4223 52.6391 15.4223 54.4111ZM13.3376 54.4111C13.3376 53.7857 12.8353 53.2834 12.2099 53.2834C11.5845 53.2834 11.0823 53.7857 11.0823 54.4111C11.0823 55.0365 11.5892 55.5387 12.2099 55.5387C12.8306 55.5387 13.3376 55.0365 13.3376 54.4111Z" fill="#0EA6CE"/>
    <path d="M15.4223 65.6638C15.4223 67.4405 13.9819 68.8761 12.2099 68.8761C10.4379 68.8761 8.99756 67.4405 8.99756 65.6638C8.99756 63.887 10.4379 62.4514 12.2099 62.4514C13.9819 62.4514 15.4223 63.8918 15.4223 65.6638ZM13.3376 65.6638C13.3376 65.0431 12.8353 64.5361 12.2099 64.5361C11.5845 64.5361 11.0823 65.0431 11.0823 65.6638C11.0823 66.2844 11.5892 66.7914 12.2099 66.7914C12.8306 66.7914 13.3376 66.2892 13.3376 65.6638Z" fill="#0EA6CE"/>
    <path d="M7.59952 43.1536C7.59952 44.9256 6.15917 46.366 4.38716 46.366C2.61515 46.366 1.1748 44.9256 1.1748 43.1536C1.1748 41.3816 2.61515 39.9413 4.38716 39.9413C6.15917 39.9413 7.59952 41.3816 7.59952 43.1536ZM5.5148 43.1536C5.5148 42.5282 5.01258 42.026 4.38716 42.026C3.76175 42.026 3.25952 42.5282 3.25952 43.1536C3.25952 43.7791 3.76648 44.2813 4.38716 44.2813C5.00784 44.2813 5.5148 43.7743 5.5148 43.1536Z" fill="#0EA6CE"/>
    <path d="M7.59952 54.4111C7.59952 56.1831 6.15917 57.6187 4.38716 57.6187C2.61515 57.6187 1.1748 56.1784 1.1748 54.4111C1.1748 52.6438 2.61515 51.1987 4.38716 51.1987C6.15917 51.1987 7.59952 52.6391 7.59952 54.4111ZM5.5148 54.4111C5.5148 53.7857 5.01258 53.2834 4.38716 53.2834C3.76175 53.2834 3.25952 53.7857 3.25952 54.4111C3.25952 55.0365 3.76648 55.5387 4.38716 55.5387C5.00784 55.5387 5.5148 55.0365 5.5148 54.4111Z" fill="#0EA6CE"/>
    <path d="M7.59952 65.6638C7.59952 67.4405 6.15917 68.8761 4.38716 68.8761C2.61515 68.8761 1.1748 67.4405 1.1748 65.6638C1.1748 63.887 2.61515 62.4514 4.38716 62.4514C6.15917 62.4514 7.59952 63.8918 7.59952 65.6638ZM5.5148 65.6638C5.5148 65.0431 5.01258 64.5361 4.38716 64.5361C3.76175 64.5361 3.25952 65.0431 3.25952 65.6638C3.25952 66.2844 3.76648 66.7914 4.38716 66.7914C5.00784 66.7914 5.5148 66.2892 5.5148 65.6638Z" fill="#0EA6CE"/>
    <path d="M99.9335 35.5728H99.9998V37.6575H82.4929V71.1645H99.9998V73.2493H80.4082V35.5728H92.3574L89.055 30.5979L97.555 26.7554L99.0095 32.1519L99.9335 35.5775V35.5728ZM97.7777 35.5728L96.181 29.6598L92.1442 31.4839L94.8591 35.5728H97.7777Z" fill="#0EA6CE"/>
    <path d="M96.2998 39.9413C98.0765 39.9413 99.5121 41.3816 99.5121 43.1536C99.5121 44.9256 98.0718 46.366 96.2998 46.366C94.5278 46.366 93.0874 44.9256 93.0874 43.1536C93.0874 41.3816 94.5278 39.9413 96.2998 39.9413ZM96.2998 42.026C95.6791 42.026 95.1721 42.5282 95.1721 43.1536C95.1721 43.7791 95.6791 44.2813 96.2998 44.2813C96.9204 44.2813 97.4274 43.7743 97.4274 43.1536C97.4274 42.533 96.9252 42.026 96.2998 42.026Z" fill="#0EA6CE"/>
    <path d="M99.5121 54.4111C99.5121 56.1831 98.0718 57.6187 96.2998 57.6187C94.5278 57.6187 93.0874 56.1784 93.0874 54.4111C93.0874 52.6438 94.5278 51.1987 96.2998 51.1987C98.0718 51.1987 99.5121 52.6391 99.5121 54.4111ZM97.4274 54.4111C97.4274 53.7857 96.9252 53.2834 96.2998 53.2834C95.6743 53.2834 95.1721 53.7857 95.1721 54.4111C95.1721 55.0365 95.6791 55.5387 96.2998 55.5387C96.9204 55.5387 97.4274 55.0365 97.4274 54.4111Z" fill="#0EA6CE"/>
    <path d="M99.5121 65.6638C99.5121 67.4405 98.0718 68.8761 96.2998 68.8761C94.5278 68.8761 93.0874 67.4405 93.0874 65.6638C93.0874 63.887 94.5278 62.4514 96.2998 62.4514C98.0718 62.4514 99.5121 63.8918 99.5121 65.6638ZM97.4274 65.6638C97.4274 65.0431 96.9252 64.5361 96.2998 64.5361C95.6743 64.5361 95.1721 65.0431 95.1721 65.6638C95.1721 66.2844 95.6791 66.7914 96.2998 66.7914C96.9204 66.7914 97.4274 66.2892 97.4274 65.6638Z" fill="#0EA6CE"/>
    <path d="M91.4525 43.1536C91.4525 44.9256 90.0122 46.366 88.2402 46.366C86.4682 46.366 85.0278 44.9256 85.0278 43.1536C85.0278 41.3816 86.4682 39.9413 88.2402 39.9413C90.0122 39.9413 91.4525 41.3816 91.4525 43.1536ZM89.3678 43.1536C89.3678 42.5282 88.8609 42.026 88.2402 42.026C87.6195 42.026 87.1125 42.5282 87.1125 43.1536C87.1125 43.7791 87.6148 44.2813 88.2402 44.2813C88.8656 44.2813 89.3678 43.7743 89.3678 43.1536Z" fill="#0EA6CE"/>
    <path d="M91.4525 54.4111C91.4525 56.1831 90.0122 57.6187 88.2402 57.6187C86.4682 57.6187 85.0278 56.1784 85.0278 54.4111C85.0278 52.6438 86.4682 51.1987 88.2402 51.1987C90.0122 51.1987 91.4525 52.6391 91.4525 54.4111ZM89.3678 54.4111C89.3678 53.7857 88.8609 53.2834 88.2402 53.2834C87.6195 53.2834 87.1125 53.7857 87.1125 54.4111C87.1125 55.0365 87.6148 55.5387 88.2402 55.5387C88.8656 55.5387 89.3678 55.0365 89.3678 54.4111Z" fill="#0EA6CE"/>
    <path d="M91.4525 65.6638C91.4525 67.4405 90.0122 68.8761 88.2402 68.8761C86.4682 68.8761 85.0278 67.4405 85.0278 65.6638C85.0278 63.887 86.4682 62.4514 88.2402 62.4514C90.0122 62.4514 91.4525 63.8918 91.4525 65.6638ZM89.3678 65.6638C89.3678 65.0431 88.8609 64.5361 88.2402 64.5361C87.6195 64.5361 87.1125 65.0431 87.1125 65.6638C87.1125 66.2844 87.6148 66.7914 88.2402 66.7914C88.8656 66.7914 89.3678 66.2892 89.3678 65.6638Z" fill="#0EA6CE"/>
    <path d="M3.97044 16.0428H0V13.9581H1.88572V0H12.0677V16.0428H3.97044ZM3.97044 5.85615H9.98294V2.05155H3.97044V5.85615ZM3.97044 13.9581H9.98294V7.94087H3.97044V13.9581Z" fill="#0EA6CE"/>
    <path d="M12.0724 96.0722V100.005H9.98768V93.9923H3.97517V100.005H1.88572V93.9923H0V91.3816L0.82441 88.3256L1.99943 83.9667L10.5041 87.8092L9.33858 89.567L7.78452 91.9123H12.0771V96.0817L12.0724 96.0722ZM7.40548 88.6905L3.36871 86.8711L2.01365 91.9075H5.27338L7.40548 88.6952V88.6905Z" fill="#0EA6CE"/>
    <path d="M87.9277 7.94087V0H98.1144V13.9581H100V16.0428H87.9277V7.94087ZM90.0124 5.85615H96.0297V2.05155H90.0124V5.85615ZM90.0124 13.9581H96.0297V7.94087H90.0124V13.9581Z" fill="#0EA6CE"/>
    <path d="M99.8912 91.9028L100 91.5V93.9875H98.1144V100H96.0297V93.9875H90.0124V100H87.9277V91.9028H91.3343L88.6147 87.7997L97.1147 83.9572L98.5693 89.3537L99.2563 91.9028H99.8959H99.8912ZM97.0957 91.9028L95.7359 86.8663L91.7039 88.6857L93.836 91.898H97.0957V91.9028Z" fill="#0EA6CE"/>
  </g>
  <defs>
    <clipPath id="clip0_600_16360">
      <rect width="100" height="100" fill="white"/>
    </clipPath>
  </defs>
</svg>
