<svg width="202" height="41" viewBox="0 0 202 41" fill="none" xmlns="http://www.w3.org/2000/svg">
<path d="M23.475 24.6532L25.9715 25.6633C27.1218 26.1288 28.3915 26.1288 29.5419 25.6657L29.549 25.6633C31.1576 25.0131 32.9309 25.0131 34.5419 25.6633C35.697 26.1288 36.9667 26.1288 38.1194 25.6633L40.6182 24.6532V15.4877H23.4727V24.6532H23.475ZM28.7042 20.5407H31.2054V17.208L32.0478 16.3634L32.8879 17.208V20.5407H35.3891L36.2507 23.8734H34.5705H32.8903H32.7972V22.3018C32.7972 21.8867 32.4631 21.5508 32.0502 21.5508C31.6373 21.5508 31.3032 21.8867 31.3032 22.3018V23.8734H31.2435H31.2077H29.5276H27.845L28.7042 20.5407Z" fill="white"/>
<path d="M40.6179 26.6111L38.1191 27.6212C36.9664 28.0867 35.6967 28.0867 34.5415 27.6212C32.933 26.971 31.1573 26.971 29.5487 27.6212L29.5415 27.6236C28.3888 28.0867 27.1215 28.0867 25.9711 27.6212L23.4723 26.6111V31.6569C23.4723 31.6569 23.3244 37.0098 32.0451 40.9999C40.7659 37.0122 40.6179 31.6569 40.6179 31.6569V26.6111ZM36.2504 36.7339H34.5702H34.4771V35.0352C34.4771 34.8648 34.3983 34.7017 34.2599 34.6009C33.6489 34.1474 32.9831 34.5769 32.9831 35.1623V36.7339H32.8876H31.2074H31.1143V35.0352C31.1143 34.8648 31.0356 34.7017 30.8971 34.6009C30.2838 34.1474 29.6179 34.5769 29.6179 35.1623V36.7339H29.5248H27.8446V31.1938L28.6847 30.3469L29.5272 31.1938V33.4012H31.2074V30.0685L32.0499 29.224L32.89 30.0685V33.4012H34.5726V31.1938L35.4103 30.3469L36.2528 31.1938V36.7339H36.2504Z" fill="white"/>
<path d="M32.7114 4.17486L32.1553 2.38255L33.2938 2.02505L32.9835 1.02932L31.8451 1.38682L31.4131 0L30.4226 0.311919L30.8546 1.69874L29.7162 2.05624L30.0265 3.05196L31.1649 2.69446L31.6231 4.16766C27.7568 4.28043 24.511 5.86639 23.4775 7.99221V11.1785H24.9119V12.6181H23.4775V13.8658H40.6231V12.6181H39.1911V11.1785H40.6231V7.99221V7.98262C39.604 5.89279 36.4847 4.33562 32.7114 4.17486ZM29.0193 12.6181H27.5849V11.1785H29.0193V12.6181ZM30.3391 9.93088H30.32L28.3033 7.90343L26.3296 9.8877C26.3272 9.02633 25.7997 8.28733 25.0503 7.98022C25.9429 6.89091 27.8188 5.89519 30.3391 5.57368V9.93088ZM32.0479 12.8653C31.5157 12.8653 31.0861 12.431 31.0861 11.8983C31.0861 11.3657 31.5181 10.9314 32.0479 10.9314C32.5778 10.9314 33.0098 11.3657 33.0098 11.8983C33.0098 12.431 32.5778 12.8653 32.0479 12.8653ZM36.5086 12.6181H35.0742V11.1785H36.5086V12.6181ZM37.7639 9.8877L35.7902 7.90584L33.7735 9.93328H33.7544V5.57368C36.2818 5.89039 38.1697 6.88372 39.067 7.97302C38.3057 8.27054 37.7663 9.01433 37.7639 9.8877Z" fill="white"/>
<path d="M61.3031 31.381C61.9403 31.381 62.5608 31.153 63.0548 30.7308C63.6563 30.2149 64 29.4639 64 28.6697V28.5306C64 27.6764 63.5775 26.8822 62.8687 26.4071C62.1622 25.9345 61.2696 25.8457 60.4844 26.1768L56.1742 27.9859C55.7828 27.3285 55.2601 25.5122 55.0692 24.8188C55.3723 24.7012 55.661 24.5549 55.9284 24.3797L56.7327 25.313C57.3747 26.0568 58.5369 26.0113 59.1217 25.2219L56.8735 23.5447C57.0739 23.312 57.2506 23.0601 57.4009 22.7889L60.272 23.5327C61.3818 23.9214 62.5656 23.18 62.704 22.0068L57.883 21.4717C57.9379 21.1862 57.9689 20.8911 57.9689 20.5887C57.9689 20.5647 57.9665 20.5384 57.9665 20.5144L61.5202 19.7802C62.9331 19.4227 63.6515 17.8415 63 16.5339L57.6825 19.0052C57.5727 18.7077 57.4319 18.4245 57.2649 18.1606L60.4844 14.8327C61.7756 13.6067 61.6062 11.4952 60.136 10.4923L54.3174 19.2283C54.3699 19.2619 54.42 19.2979 54.4677 19.3387C54.4844 19.3531 54.5012 19.3675 54.5179 19.3819C54.5465 19.4083 54.5751 19.4347 54.6038 19.4611C54.6229 19.4802 54.642 19.5018 54.6611 19.5234C54.6825 19.5474 54.704 19.5738 54.7255 19.6002C54.7446 19.6242 54.7637 19.6506 54.7804 19.677C54.7971 19.701 54.8114 19.725 54.8257 19.749C54.8448 19.7778 54.8639 19.809 54.8782 19.8425C54.8878 19.8617 54.8973 19.8833 54.9069 19.9025C54.9236 19.9385 54.9427 19.9769 54.957 20.0153C54.9594 20.0225 54.9618 20.0321 54.9665 20.0393C55.0047 20.1425 55.031 20.248 55.0477 20.3608C55.0501 20.3704 55.0501 20.3824 55.0525 20.392C55.062 20.4592 55.0668 20.524 55.0668 20.5935C55.0668 20.6871 55.0548 20.7759 55.0405 20.8623C55.0358 20.8887 55.0334 20.9127 55.0286 20.939C55.0119 21.0206 54.9856 21.0974 54.957 21.1742C54.9451 21.2054 54.9331 21.2342 54.9188 21.2654C54.8878 21.3301 54.8544 21.3925 54.8162 21.4549C54.7947 21.4885 54.7732 21.5173 54.7517 21.5485C54.7183 21.5941 54.6825 21.6373 54.6467 21.678C54.6229 21.7044 54.6014 21.7308 54.5751 21.7548C54.5107 21.8172 54.4415 21.8772 54.3675 21.9276C54.3556 21.9348 54.3436 21.942 54.3293 21.9492C54.2625 21.9924 54.1933 22.0307 54.1193 22.0619C54.093 22.0739 54.0644 22.0835 54.0358 22.0955C53.9713 22.1195 53.9069 22.1411 53.84 22.1579C53.8114 22.1651 53.7828 22.1723 53.7541 22.1771C53.6587 22.1939 53.5608 22.2059 53.463 22.2059C53.4057 22.2059 53.3508 22.2035 53.2959 22.1963C53.2887 22.1963 53.2816 22.1939 53.2744 22.1939C53.2267 22.1891 53.1789 22.1819 53.1312 22.1699C53.1288 22.1699 53.1264 22.1675 53.1241 22.1675C52.9976 22.1387 52.8758 22.0955 52.7613 22.0403C52.7446 22.0331 52.7279 22.0235 52.7112 22.0163C52.6587 21.9876 52.6062 21.9564 52.556 21.9228C52.5179 21.8964 52.4821 21.87 52.4463 21.8388C52.4439 21.8364 52.4415 21.834 52.4367 21.8316C52.377 21.7812 52.3222 21.7284 52.272 21.6708C52.2553 21.6516 52.2362 21.6325 52.2195 21.6109C52.2171 21.6085 52.2147 21.6061 52.2147 21.6037C51.9928 21.3277 51.8591 20.975 51.8591 20.5911C51.8591 20.5216 51.8663 20.452 51.8735 20.3848C51.8735 20.3824 51.8735 20.38 51.8735 20.3776C51.8735 20.3704 51.8782 20.3608 51.8782 20.3536C51.8949 20.2456 51.9212 20.1401 51.957 20.0393C52.1455 19.4539 52.5847 18.7316 52.9904 18.115C53.1909 17.8511 53.4391 17.5056 53.6945 17.1121L53.6969 17.1097C54.6443 15.6533 55.6778 13.5419 54.6467 12.4238L56.3198 10.4947L50.2219 11.073C49.1169 11.2217 48.2338 12.3278 47.8926 13.4099H50.6396C51.2673 13.4099 51.8687 13.657 52.315 14.0961L52.6491 14.4224H48.6157L49.0453 14.7391C49.7327 15.243 50.5584 15.5141 51.4081 15.5141H52.8138C51.4248 16.3323 48.5775 17.3208 47.4105 19.2595L43.346 18.914L43.9522 16.793L42.0405 15.6101V19.8449L46.8186 22.1963L50.4105 21.726L43.451 25.9825L43.9522 24.0966L42.0405 22.9137V26.8462V27.5036L43.0381 27.2301C46.8019 26.28 49.3198 26.6639 51.0023 27.6428L46.1121 32.3047L48.8854 38.5262L46.1288 37.9744L45.4797 40.0786H51.4415C51.4415 40.0786 48.1026 36.4916 52.3245 34.8192C52.3245 34.8192 49.5083 34.5601 48.5871 32.5015L52.3245 32.3719C52.3245 32.3719 52.7088 29.8046 51.9785 28.353C54.6324 30.7284 54.3651 34.7976 54.3651 34.7976C60.4128 34.1618 61.2124 37.4369 61.3794 38.5694L58.4057 37.9744L57.7565 40.0786H63.5871L61.2887 32.967C58.7136 33.0485 57.7852 31.9064 57.5226 30.8243L60.883 31.357C61.0238 31.369 61.1646 31.381 61.3031 31.381ZM57.1646 29.2168L61.0692 27.578C61.3914 27.4437 61.7422 27.4773 62.031 27.6716C62.3198 27.8659 62.4868 28.1779 62.4868 28.5282V28.6673C62.4868 29.0152 62.3365 29.3439 62.0716 29.5719C61.809 29.7974 61.463 29.8982 61.1193 29.843L57.1646 29.2168Z" fill="white"/>
<path d="M17.4415 22.1915L22.0239 19.9769V15.6053L20.1122 16.7882L20.6993 18.8372L16.3127 19.3915C15.0716 16.7954 13.105 15.6149 13.105 15.6149L16.1241 15.5813L16.4678 14.4176H13.969L14.3532 13.4027H16.5776L16.9809 11.6968C16.8878 11.704 16.58 11.7112 16.4869 11.7112C15.284 11.7112 14.1957 11.2217 13.4081 10.4299H8.97375L9.9642 11.6032L7.99284 14.7487H9.4654L8.21719 17.7215H9.6611L9.19571 21.1694L10.6563 21.3493L8.19809 26.8126C8.17184 26.8846 8.14081 26.9542 8.10501 27.0214L8.10263 27.0262C7.77804 27.6332 7.1432 28.0459 6.41289 28.0483C6.40812 28.0483 6.40334 28.0507 6.39857 28.0507C6.34606 28.0507 6.29356 28.0435 6.24105 28.0387C6.22673 28.0363 6.21241 28.0363 6.19809 28.0363C6.15513 28.0315 6.11456 28.0243 6.0716 28.0171C6.03819 28.0123 6.00239 28.0051 5.96897 27.9979C5.93556 27.9907 5.90215 27.9811 5.87112 27.9715C5.82578 27.9595 5.78282 27.9427 5.73986 27.9283C5.71599 27.9187 5.69451 27.9115 5.67065 27.9043C5.60382 27.8756 5.53938 27.8468 5.47494 27.8108C5.46778 27.806 5.45824 27.8012 5.45108 27.7964C5.3938 27.7628 5.3389 27.7268 5.28401 27.6884C5.27208 27.6788 5.26014 27.6692 5.24821 27.662C5.1957 27.6212 5.1432 27.578 5.09308 27.5324C5.08831 27.5276 5.08353 27.5229 5.07876 27.5205C4.78998 27.2445 4.58473 26.8822 4.50835 26.4743C4.50597 26.4575 4.50358 26.4407 4.50119 26.4239C4.49403 26.3712 4.48687 26.3208 4.4821 26.268C4.47971 26.2344 4.47733 26.1984 4.47733 26.1648C4.47733 26.148 4.47494 26.1336 4.47494 26.1168C4.47494 26.0976 4.47733 26.0784 4.47733 26.0593C4.47733 26.0185 4.47971 25.9753 4.48449 25.9345C4.48687 25.9081 4.49165 25.8841 4.49403 25.8577C4.51551 25.6946 4.55847 25.5338 4.62053 25.3778C4.62291 25.3706 4.62769 25.361 4.63007 25.3538C4.64201 25.3251 4.65155 25.2963 4.66587 25.2675L6.44391 21.5293C6.79236 20.7951 6.74463 19.9433 6.31265 19.2547C5.88067 18.5661 5.13843 18.1534 4.32697 18.1534H2.8759H0C0 19.3123 0.933174 20.2504 2.08592 20.2504C2.642 20.2504 3.14559 20.0297 3.52029 19.6746H3.54893C3.71838 19.533 3.93318 19.4443 4.17184 19.4443C4.71599 19.4443 5.15752 19.8881 5.15752 20.4352C5.15752 20.44 5.15752 20.4424 5.15513 20.4472C5.16707 20.5911 5.14081 20.7351 5.07637 20.8719L3.29833 24.61C2.78282 25.6922 2.8568 26.9422 3.49165 27.9571C4.12411 28.9673 5.21002 29.5719 6.39618 29.5767C6.54654 30.6996 5.99761 32.8182 2.97375 32.9574L0.670644 40.069H6.56086L5.9117 37.9648L2.88544 38.5694C3.10263 37.4465 4.26014 34.1522 10.3246 34.7881C10.3246 34.7881 9.82816 30.7188 12.3031 28.3434C11.6372 29.7854 12.1623 32.3167 12.1623 32.3167L15.6706 32.4919C14.7494 34.5529 11.9332 34.8097 11.9332 34.8097C16.1575 36.482 12.8162 40.069 12.8162 40.069H18.8353L18.1862 37.9648L15.3914 38.5238L18.2601 32.2879L13.2482 27.6212C14.8425 26.6543 17.2864 26.28 21.0096 27.2181L22.0239 27.4965V22.9089L20.1122 24.0918L20.6086 25.9609L11.9236 21.5101L17.4415 22.1915Z" fill="white"/>
<path d="M77.54 32V18.96H82C82.9067 18.96 83.72 19.06 84.44 19.26C85.16 19.4467 85.7333 19.7733 86.16 20.24C86.5867 20.7067 86.8 21.36 86.8 22.2C86.8 22.7733 86.6467 23.34 86.34 23.9C86.0467 24.4467 85.6333 24.82 85.1 25.02V25.1C85.7667 25.2733 86.32 25.6133 86.76 26.12C87.2133 26.6133 87.44 27.2933 87.44 28.16C87.44 29.0533 87.2133 29.78 86.76 30.34C86.3067 30.9 85.7 31.32 84.94 31.6C84.18 31.8667 83.3267 32 82.38 32H77.54ZM80.48 24.18H81.86C82.58 24.18 83.1 24.04 83.42 23.76C83.7533 23.48 83.92 23.1067 83.92 22.64C83.92 22.1333 83.7533 21.7733 83.42 21.56C83.0867 21.3467 82.5733 21.24 81.88 21.24H80.48V24.18ZM80.48 29.72H82.14C83.7533 29.72 84.56 29.1333 84.56 27.96C84.56 27.3867 84.36 26.98 83.96 26.74C83.56 26.4867 82.9533 26.36 82.14 26.36H80.48V29.72ZM94.9894 32.24C93.296 32.24 92.0027 31.74 91.1094 30.74C90.216 29.74 89.7694 28.1467 89.7694 25.96V18.96H92.7294V26.26C92.7294 27.54 92.9227 28.4333 93.3094 28.94C93.696 29.4467 94.256 29.7 94.9894 29.7C95.7227 29.7 96.2894 29.4467 96.6894 28.94C97.0894 28.4333 97.2894 27.54 97.2894 26.26V18.96H100.129V25.96C100.129 28.1467 99.6894 29.74 98.8094 30.74C97.9427 31.74 96.6694 32.24 94.9894 32.24ZM103.35 32V18.96H107.03C108.363 18.96 109.517 19.1867 110.49 19.64C111.463 20.0933 112.217 20.8 112.75 21.76C113.297 22.7067 113.57 23.9267 113.57 25.42C113.57 26.9133 113.303 28.1467 112.77 29.12C112.237 30.0933 111.49 30.82 110.53 31.3C109.583 31.7667 108.47 32 107.19 32H103.35ZM106.29 29.62H106.85C107.597 29.62 108.243 29.4867 108.79 29.22C109.35 28.9533 109.783 28.5133 110.09 27.9C110.397 27.2867 110.55 26.46 110.55 25.42C110.55 24.38 110.397 23.5667 110.09 22.98C109.783 22.38 109.35 21.96 108.79 21.72C108.243 21.4667 107.597 21.34 106.85 21.34H106.29V29.62ZM119.11 25.4L118.79 26.6H121.57L121.27 25.4C121.097 24.7467 120.917 24.0533 120.73 23.32C120.557 22.5867 120.383 21.88 120.21 21.2H120.13C119.97 21.8933 119.803 22.6067 119.63 23.34C119.47 24.06 119.297 24.7467 119.11 25.4ZM114.39 32L118.47 18.96H122.01L126.09 32H122.97L122.17 28.9H118.19L117.39 32H114.39ZM127.715 32V18.96H132.195C133.155 18.96 134.022 19.0933 134.795 19.36C135.582 19.6133 136.208 20.0467 136.675 20.66C137.142 21.2733 137.375 22.1067 137.375 23.16C137.375 24.1733 137.142 25.0067 136.675 25.66C136.208 26.3133 135.588 26.8 134.815 27.12C134.042 27.4267 133.195 27.58 132.275 27.58H130.655V32H127.715ZM130.655 25.24H132.095C133.695 25.24 134.495 24.5467 134.495 23.16C134.495 22.48 134.282 22 133.855 21.72C133.428 21.44 132.815 21.3 132.015 21.3H130.655V25.24ZM139.829 32V18.96H147.989V21.44H142.769V24.06H147.209V26.52H142.769V29.52H148.189V32H139.829ZM154.966 32.24C154.113 32.24 153.259 32.08 152.406 31.76C151.566 31.44 150.813 30.9733 150.146 30.36L151.826 28.34C152.293 28.74 152.813 29.0667 153.386 29.32C153.959 29.5733 154.513 29.7 155.046 29.7C155.659 29.7 156.113 29.5867 156.406 29.36C156.713 29.1333 156.866 28.8267 156.866 28.44C156.866 28.0267 156.693 27.7267 156.346 27.54C156.013 27.34 155.559 27.12 154.986 26.88L153.286 26.16C152.846 25.9733 152.426 25.7267 152.026 25.42C151.626 25.1 151.299 24.7067 151.046 24.24C150.793 23.7733 150.666 23.2267 150.666 22.6C150.666 21.88 150.859 21.2267 151.246 20.64C151.646 20.0533 152.193 19.5867 152.886 19.24C153.593 18.8933 154.399 18.72 155.306 18.72C156.053 18.72 156.799 18.8667 157.546 19.16C158.293 19.4533 158.946 19.88 159.506 20.44L158.006 22.3C157.579 21.9667 157.153 21.7133 156.726 21.54C156.299 21.3533 155.826 21.26 155.306 21.26C154.799 21.26 154.393 21.3667 154.086 21.58C153.793 21.78 153.646 22.0667 153.646 22.44C153.646 22.84 153.833 23.14 154.206 23.34C154.593 23.54 155.066 23.7533 155.626 23.98L157.306 24.66C158.093 24.98 158.719 25.42 159.186 25.98C159.653 26.54 159.886 27.28 159.886 28.2C159.886 28.92 159.693 29.5867 159.306 30.2C158.919 30.8133 158.359 31.3067 157.626 31.68C156.893 32.0533 156.006 32.24 154.966 32.24ZM164.449 32V21.44H160.869V18.96H170.989V21.44H167.409V32H164.449ZM172.358 32.24C171.851 32.24 171.424 32.0667 171.078 31.72C170.744 31.36 170.578 30.92 170.578 30.4C170.578 29.8667 170.744 29.4267 171.078 29.08C171.424 28.72 171.851 28.54 172.358 28.54C172.864 28.54 173.284 28.72 173.618 29.08C173.964 29.4267 174.138 29.8667 174.138 30.4C174.138 30.92 173.964 31.36 173.618 31.72C173.284 32.0667 172.864 32.24 172.358 32.24ZM177.094 32V18.96H180.034V23.98H184.534V18.96H187.494V32H184.534V26.56H180.034V32H177.094ZM195.91 32.24C194.217 32.24 192.924 31.74 192.03 30.74C191.137 29.74 190.69 28.1467 190.69 25.96V18.96H193.65V26.26C193.65 27.54 193.844 28.4333 194.23 28.94C194.617 29.4467 195.177 29.7 195.91 29.7C196.644 29.7 197.21 29.4467 197.61 28.94C198.01 28.4333 198.21 27.54 198.21 26.26V18.96H201.05V25.96C201.05 28.1467 200.61 29.74 199.73 30.74C198.864 31.74 197.59 32.24 195.91 32.24Z" fill="white"/>
</svg>
