<svg width="24" height="24" viewBox="0 0 24 24" fill="none" xmlns="http://www.w3.org/2000/svg">
<path d="M15.3 12C15.3 12.1334 15.275 12.2584 15.225 12.375C15.175 12.4917 15.1 12.6 15 12.7L10.05 17.65C9.86669 17.8334 9.63336 17.9209 9.35002 17.9125C9.06669 17.9042 8.83335 17.8084 8.65002 17.625C8.43335 17.4084 8.33752 17.1709 8.36252 16.9125C8.38752 16.6542 8.49169 16.425 8.67502 16.225L12.9 12L8.67502 7.77504C8.49169 7.59171 8.39169 7.35421 8.37502 7.06254C8.35836 6.77088 8.45836 6.53338 8.67502 6.35004C8.85836 6.13338 9.08752 6.03754 9.36252 6.06254C9.63752 6.08754 9.87502 6.19171 10.075 6.37504L15 11.3C15.1 11.4 15.175 11.5084 15.225 11.625C15.275 11.7417 15.3 11.8667 15.3 12Z" fill="#12326E"/>
</svg>
