<svg width="24" height="24" viewBox="0 0 24 24" fill="none" xmlns="http://www.w3.org/2000/svg">
<path d="M13.4031 17.5218L8.45312 12.5718C8.36182 12.4805 8.29651 12.3862 8.25719 12.2889C8.21789 12.1916 8.19824 12.087 8.19824 11.9751C8.19824 11.8631 8.21789 11.7585 8.25719 11.6612C8.29651 11.5639 8.36182 11.4696 8.45312 11.3783L13.4281 6.40331C13.5981 6.2334 13.8011 6.14844 14.0374 6.14844C14.2736 6.14844 14.4767 6.2334 14.6466 6.40331C14.8165 6.57325 14.8973 6.7805 14.889 7.02506C14.8807 7.26963 14.7915 7.47688 14.6216 7.64681L10.2933 11.9751L14.6466 16.3283C14.8165 16.4982 14.9015 16.6972 14.9015 16.9251C14.9015 17.153 14.8165 17.3519 14.6466 17.5218C14.4767 17.6917 14.2694 17.7767 14.0249 17.7767C13.7803 17.7767 13.5731 17.6917 13.4031 17.5218Z" fill="#12326E"/>
</svg>
