<svg width="24" height="24" viewBox="0 0 24 24" fill="none" xmlns="http://www.w3.org/2000/svg">
<path d="M4.5998 19.525H5.5248L16.4998 8.525L15.5498 7.6L4.5998 18.575V19.525ZM19.8998 7.475L16.6248 4.2L17.6248 3.2C17.9415 2.88334 18.329 2.72917 18.7873 2.7375C19.2456 2.74584 19.6415 2.90834 19.9748 3.225L20.9248 4.15C21.2581 4.48334 21.4123 4.875 21.3873 5.325C21.3623 5.775 21.1915 6.15834 20.8748 6.475L19.8998 7.475ZM3.9248 21.175C3.64147 21.175 3.40397 21.0792 3.2123 20.8875C3.02064 20.6958 2.9248 20.4583 2.9248 20.175V18.325C2.9248 18.1917 2.9498 18.0667 2.9998 17.95C3.0498 17.8333 3.1248 17.725 3.2248 17.625L15.5748 5.25L18.8498 8.5L6.4998 20.875C6.3998 20.975 6.2873 21.05 6.1623 21.1C6.0373 21.15 5.90814 21.175 5.7748 21.175H3.9248ZM16.0498 8.05L15.5498 7.6L16.4998 8.525L16.0498 8.05Z" fill="#12326E"/>
</svg>
