<svg width="24" height="24" viewBox="0 0 24 24" fill="none" xmlns="http://www.w3.org/2000/svg">
<path d="M20.4581 5.83627C21.3451 4.95234 21.0178 3.31663 19.4767 2.98616C19.3202 2.9527 19.158 2.95696 19.0035 2.9986C18.3939 3.16406 17.9882 3.52594 17.7819 3.95985L17.7824 3.961C17.7598 4.00807 17.74 4.05598 17.7221 4.10412L16.7711 6.39042C16.7256 6.49963 16.7137 6.61982 16.7368 6.73579C16.7599 6.85176 16.817 6.95829 16.9009 7.04193C16.9847 7.12557 17.0916 7.18255 17.2079 7.20567C17.3243 7.2288 17.4449 7.21702 17.5545 7.17184L19.995 6.16598L19.992 6.16306C20.1652 6.08188 20.3229 5.97127 20.4581 5.83619" fill="#21A7CC"/>
<path d="M3.43249 18.0924C2.54553 18.9763 2.87274 20.612 4.41391 20.9425C4.57037 20.9759 4.73259 20.9717 4.88707 20.93C5.49666 20.7646 5.90239 20.4028 6.10864 19.9688L6.10818 19.9676C6.13083 19.9206 6.15063 19.8727 6.16851 19.8245L7.1195 17.5382C7.16494 17.429 7.17686 17.3088 7.15376 17.1929C7.13066 17.0769 7.07358 16.9704 6.98973 16.8867C6.90587 16.8031 6.79902 16.7461 6.68268 16.723C6.56633 16.6998 6.44572 16.7116 6.33609 16.7568L3.89555 17.7627L3.89855 17.7656C3.72533 17.8468 3.56763 17.9574 3.43249 18.0924" fill="#21A7CC"/>
<path d="M18.1384 20.4811C19.0253 21.365 20.6667 21.0388 20.9983 19.503C21.0319 19.3471 21.0276 19.1854 20.9858 19.0314C20.8198 18.424 20.4566 18.0196 20.0213 17.8141L20.0201 17.8145C19.9729 17.7919 19.9248 17.7722 19.8765 17.7544L17.5823 16.8066C17.4727 16.7614 17.3521 16.7495 17.2358 16.7725C17.1194 16.7955 17.0125 16.8524 16.9286 16.936C16.8447 17.0195 16.7875 17.126 16.7643 17.242C16.7411 17.3579 16.7529 17.4781 16.7982 17.5874L17.8075 20.0195L17.8105 20.0166C17.892 20.1892 18.003 20.3464 18.1385 20.4811" fill="#21A7CC"/>
<path d="M5.77998 3.51809C4.89301 2.63416 3.25168 2.96033 2.92007 4.49615C2.88648 4.6521 2.89078 4.8138 2.93263 4.96776C3.09858 5.57519 3.46171 5.9796 3.8971 6.18507L3.89834 6.18469C3.94549 6.20726 3.99357 6.227 4.04188 6.24473L6.3361 7.19254C6.44569 7.2378 6.56628 7.24966 6.68264 7.22663C6.79899 7.2036 6.90588 7.14672 6.98979 7.06316C7.0737 6.9796 7.13087 6.87311 7.15407 6.75718C7.17727 6.64124 7.16546 6.52106 7.12013 6.41181L6.11081 3.97963L6.10781 3.98255C6.02632 3.80996 5.91534 3.6528 5.77983 3.51809" fill="#21A7CC"/>
<path d="M1.6595 10.3204C0.405173 10.3204 -0.524091 11.7076 0.331284 13.0273C0.418134 13.1612 0.535874 13.2726 0.67468 13.3519C1.2231 13.6645 1.76675 13.6945 2.22048 13.5331L2.22101 13.5319C2.2704 13.5146 2.31832 13.4947 2.36517 13.4732L4.65986 12.5267C4.76948 12.4815 4.86318 12.4049 4.92913 12.3067C4.99508 12.2084 5.0303 12.0928 5.03035 11.9746C5.0304 11.8564 4.99527 11.7408 4.9294 11.6424C4.86354 11.5441 4.7699 11.4674 4.66032 11.4221L2.22101 10.4134V10.4177C2.04091 10.353 1.85091 10.3201 1.6595 10.3204Z" fill="#21A7CC"/>
<path d="M22.3406 13.6297C23.5948 13.6297 24.524 12.2427 23.6691 10.9232C23.5821 10.789 23.4641 10.6775 23.3251 10.598C22.7768 10.2856 22.2333 10.2556 21.7797 10.417L21.7791 10.4182C21.7297 10.4355 21.6818 10.4554 21.635 10.4768L19.339 11.424C19.2295 11.4691 19.1359 11.5456 19.0701 11.6438C19.0042 11.742 18.969 11.8574 18.969 11.9755C18.9689 12.0936 19.004 12.209 19.0698 12.3072C19.1356 12.4055 19.2291 12.4821 19.3385 12.5273L21.7793 13.5366V13.5324C21.9594 13.597 22.1493 13.63 22.3407 13.6297" fill="#21A7CC"/>
<path d="M15.2892 6.14173C15.3511 5.97826 15.372 5.80219 15.35 5.62885C15.328 5.4555 15.2639 5.29014 15.1632 5.14714C15.0624 5.00415 14.9281 4.88785 14.772 4.80838C14.6159 4.7289 14.4426 4.68866 14.2673 4.69115C14.1049 4.69045 13.9446 4.72841 13.7999 4.80186C13.6552 4.87531 13.5301 4.98214 13.4352 5.11346C13.2994 5.2958 13.2234 5.51543 13.2175 5.74239L13.2181 5.743C13.2172 5.77663 13.2181 5.81003 13.2205 5.84282L13.2591 7.16348C13.2617 7.26232 13.2938 7.35815 13.3512 7.4388C13.4086 7.51945 13.4887 7.5813 13.5814 7.61649C13.6742 7.65168 13.7753 7.65862 13.872 7.63645C13.9687 7.61428 14.0566 7.564 14.1245 7.49197L15.1046 6.45747L15.1021 6.45655C15.1824 6.36323 15.2459 6.2567 15.2896 6.14173" fill="#21A7CC"/>
<path d="M8.54583 17.8091C8.48393 17.9725 8.46307 18.1486 8.48505 18.322C8.50703 18.4953 8.57118 18.6607 8.67193 18.8037C8.77268 18.9467 8.90698 19.063 9.06313 19.1424C9.21927 19.2219 9.39254 19.2621 9.56786 19.2596C9.73027 19.2604 9.89051 19.2224 10.0352 19.1489C10.18 19.0755 10.305 18.9687 10.4 18.8373C10.5357 18.655 10.6118 18.4354 10.6177 18.2084L10.6172 18.2078C10.618 18.1742 10.6172 18.1408 10.6147 18.108L10.5762 16.7873C10.5733 16.6886 10.5411 16.5929 10.4837 16.5123C10.4263 16.4318 10.3462 16.37 10.2536 16.3349C10.1609 16.2997 10.0599 16.2927 9.96327 16.3148C9.86664 16.3369 9.77874 16.387 9.7107 16.4588L8.73058 17.4933L8.73313 17.4943C8.65275 17.5876 8.58926 17.6941 8.54552 17.8091" fill="#21A7CC"/>
<path d="M18.4411 10.2259C18.6037 10.1525 18.7455 10.0399 18.8537 9.89834C18.9619 9.75676 19.0331 9.59058 19.0608 9.41478C19.0885 9.23899 19.072 9.05908 19.0126 8.89124C18.9533 8.7234 18.853 8.5729 18.7207 8.45328C18.618 8.35495 18.4952 8.27979 18.3607 8.2329C18.2262 8.186 18.0832 8.16846 17.9413 8.18148C17.6861 8.2015 17.4454 8.30795 17.2593 8.48315V8.48392C17.2348 8.50696 17.2119 8.53145 17.19 8.55648L16.28 9.51758C16.2119 9.58943 16.1668 9.67977 16.1503 9.77717C16.1338 9.87458 16.1466 9.97467 16.1872 10.0648C16.2278 10.1549 16.2942 10.2311 16.3782 10.2836C16.4622 10.3361 16.5599 10.3626 16.659 10.3597L18.0859 10.3189L18.0849 10.3164C18.2079 10.307 18.3284 10.2764 18.441 10.2259" fill="#21A7CC"/>
<path d="M5.39465 13.7242C5.232 13.7976 5.09022 13.9102 4.98207 14.0518C4.87391 14.1934 4.80276 14.3595 4.77503 14.5353C4.7473 14.7111 4.76386 14.891 4.82321 15.0588C4.88256 15.2267 4.98285 15.3772 5.11504 15.4968C5.21781 15.5951 5.34058 15.6703 5.47505 15.7172C5.60951 15.7641 5.75251 15.7816 5.89437 15.7686C6.14961 15.7486 6.3903 15.6422 6.5764 15.4669V15.4662C6.6009 15.4431 6.62386 15.4186 6.64574 15.3936L7.55574 14.4325C7.62376 14.3607 7.66888 14.2703 7.6854 14.1729C7.70191 14.0755 7.68907 13.9754 7.64851 13.8853C7.60794 13.7951 7.54147 13.719 7.4575 13.6665C7.37353 13.614 7.27583 13.5875 7.17675 13.5904L5.74976 13.6312L5.75084 13.6337C5.62775 13.6431 5.50723 13.6737 5.39465 13.7242Z" fill="#21A7CC"/>
<path d="M13.6727 18.4762C13.7463 18.6383 13.8593 18.7796 14.0014 18.8874C14.1434 18.9952 14.3102 19.0661 14.4866 19.0938C14.663 19.1214 14.8435 19.1049 15.0119 19.0458C15.1803 18.9866 15.3313 18.8867 15.4514 18.7549C15.55 18.6525 15.6254 18.5301 15.6725 18.3961C15.7195 18.2621 15.7371 18.1196 15.724 17.9782C15.704 17.7239 15.5971 17.484 15.4214 17.2985H15.4205C15.3974 17.2741 15.3729 17.2512 15.3478 17.2294L14.3833 16.3225C14.3112 16.2547 14.2206 16.2098 14.1229 16.1933C14.0251 16.1769 13.9247 16.1897 13.8343 16.2301C13.7438 16.2705 13.6674 16.3367 13.6147 16.4204C13.5621 16.5041 13.5355 16.6014 13.5383 16.7001L13.5793 18.1223L13.5817 18.1212C13.5912 18.2438 13.6219 18.364 13.6727 18.4761" fill="#21A7CC"/>
<path d="M10.1625 5.47457C10.0888 5.31247 9.97587 5.17116 9.8338 5.06337C9.69172 4.95557 9.52499 4.88466 9.34859 4.85702C9.1722 4.82938 8.99167 4.84588 8.82326 4.90502C8.65485 4.96416 8.50382 5.0641 8.38379 5.19585C8.28513 5.29828 8.20974 5.42064 8.16269 5.55466C8.11565 5.68867 8.09806 5.8312 8.11112 5.97258C8.13117 6.22693 8.23796 6.46679 8.41376 6.65227H8.41461C8.43772 6.67668 8.46231 6.69957 8.48735 6.72137L9.45182 7.62825C9.5239 7.6962 9.61459 7.74131 9.71241 7.75785C9.81023 7.7744 9.91077 7.76164 10.0013 7.72119C10.0919 7.68075 10.1683 7.61443 10.221 7.53065C10.2737 7.44687 10.3003 7.3494 10.2973 7.25056L10.2563 5.82839L10.2539 5.82953C10.2445 5.70685 10.2137 5.58674 10.163 5.47457" fill="#21A7CC"/>
<path d="M6.06433 8.61499C5.90029 8.55331 5.72361 8.53251 5.54967 8.55441C5.37573 8.57631 5.2098 8.64025 5.06631 8.74065C4.92282 8.84104 4.80613 8.97486 4.72638 9.13047C4.64664 9.28607 4.60625 9.45873 4.60875 9.63344C4.608 9.79536 4.64606 9.95513 4.71977 10.0994C4.79348 10.2437 4.90069 10.3684 5.03251 10.4631C5.21552 10.5983 5.43591 10.6741 5.66368 10.6801L5.66422 10.6795C5.69762 10.6803 5.73106 10.6795 5.76438 10.677L7.08958 10.6386C7.18867 10.6357 7.28468 10.6036 7.36547 10.5464C7.44625 10.4892 7.5082 10.4093 7.54347 10.317C7.57874 10.2247 7.58575 10.124 7.56361 10.0277C7.54148 9.93143 7.4912 9.84384 7.41912 9.77603L6.38114 8.79935L6.38014 8.80188C6.28653 8.72177 6.17963 8.6585 6.06424 8.61491" fill="#21A7CC"/>
<path d="M17.7716 15.3351C17.9357 15.3968 18.1123 15.4176 18.2863 15.3957C18.4602 15.3738 18.6261 15.3098 18.7696 15.2094C18.9131 15.109 19.0298 14.9752 19.1096 14.8196C19.1893 14.664 19.2297 14.4914 19.2272 14.3166C19.228 14.1547 19.1899 13.995 19.1162 13.8506C19.0425 13.7063 18.9353 13.5817 18.8034 13.487C18.6204 13.3517 18.4 13.276 18.1723 13.27L18.1716 13.2706C18.1382 13.2698 18.1048 13.2706 18.0715 13.2731L16.7463 13.3115C16.6472 13.3143 16.5512 13.3464 16.4704 13.4036C16.3896 13.4609 16.3276 13.5407 16.2923 13.633C16.2571 13.7254 16.25 13.826 16.2722 13.9223C16.2943 14.0186 16.3446 14.1062 16.4167 14.1741L17.4547 15.1507L17.4557 15.1482C17.5494 15.2283 17.6562 15.2916 17.7716 15.3352" fill="#21A7CC"/>
<path d="M10.2571 22.3461C10.2571 23.5963 11.6491 24.5223 12.9733 23.6699C13.1077 23.5833 13.2194 23.466 13.2991 23.3277C13.6127 22.7811 13.6429 22.2393 13.4808 21.7872L13.4797 21.7866C13.4623 21.7373 13.4424 21.6896 13.4208 21.643L12.471 19.3561C12.4257 19.2469 12.3488 19.1535 12.2502 19.0878C12.1516 19.0221 12.0356 18.9869 11.917 18.9869C11.7984 18.9868 11.6824 19.0218 11.5837 19.0874C11.485 19.1531 11.4081 19.2464 11.3626 19.3556L10.3505 21.7866H10.3547C10.2899 21.9661 10.2568 22.1554 10.2571 22.3461Z" fill="#21A7CC"/>
<path d="M13.5778 1.65386C13.5778 0.403906 12.186 -0.522101 10.8619 0.329883C10.7272 0.416606 10.6154 0.534159 10.5356 0.672727C10.2222 1.21919 10.192 1.76082 10.3541 2.21284L10.3551 2.21337C10.3726 2.26267 10.3925 2.31043 10.4141 2.35703L11.3644 4.64517C11.4097 4.7543 11.4865 4.84758 11.585 4.91323C11.6835 4.97888 11.7993 5.01395 11.9179 5.014C12.0364 5.01405 12.1522 4.97908 12.2508 4.91351C12.3494 4.84794 12.4262 4.75472 12.4716 4.64563L13.4843 2.21322H13.4801C13.545 2.03377 13.578 1.84445 13.5778 1.65371" fill="#21A7CC"/>
</svg>
