<svg xmlns="http://www.w3.org/2000/svg" xmlns:xlink="http://www.w3.org/1999/xlink" width="316" height="316" viewBox="0 0 316 316">
  <defs>
    <clipPath id="clip-Custom_Size_1">
      <rect width="316" height="316"/>
    </clipPath>
  </defs>
  <g id="Custom_Size_1" data-name="Custom Size – 1" clip-path="url(#clip-Custom_Size_1)">
    <g id="Group_2" data-name="Group 2" transform="translate(-175 -339)">
      <g id="zold_budapest_white_category" transform="translate(105.06 -1468.528)">
        <ellipse id="Ellipse_1" data-name="Ellipse 1" cx="47.186" cy="15.832" rx="47.186" ry="15.832" transform="translate(201.522 1874.259) rotate(-45)" fill="#fff"/>
        <ellipse id="Ellipse_2" data-name="Ellipse 2" cx="47.186" cy="15.832" rx="47.186" ry="15.832" transform="translate(273.161 1882.456)" fill="#fff"/>
        <ellipse id="Ellipse_3" data-name="Ellipse 3" cx="15.832" cy="47.186" rx="15.832" ry="47.186" transform="translate(296.296 1961.283) rotate(-45)" fill="#fff"/>
        <ellipse id="Ellipse_4" data-name="Ellipse 4" cx="15.832" cy="47.186" rx="15.832" ry="47.186" transform="translate(277.961 2011.396)" fill="#fff"/>
        <ellipse id="Ellipse_5" data-name="Ellipse 5" cx="47.186" cy="15.832" rx="47.186" ry="15.832" transform="translate(163.958 2100.506) rotate(-45)" fill="#fff"/>
        <ellipse id="Ellipse_6" data-name="Ellipse 6" cx="47.186" cy="15.832" rx="47.186" ry="15.832" transform="translate(86.456 2015.315)" fill="#fff"/>
        <ellipse id="Ellipse_7" data-name="Ellipse 7" cx="15.832" cy="47.186" rx="15.832" ry="47.186" transform="translate(69.94 1923.629) rotate(-45)" fill="#fff"/>
        <ellipse id="Ellipse_8" data-name="Ellipse 8" cx="15.832" cy="47.186" rx="15.832" ry="47.186" transform="translate(144.508 1824.781)" fill="#fff"/>
        <ellipse id="Ellipse_9" data-name="Ellipse 9" cx="7.82" cy="23.306" rx="7.82" ry="23.306" transform="translate(189.167 1902.364) rotate(-51.54)" fill="#fff"/>
        <ellipse id="Ellipse_10" data-name="Ellipse 10" cx="23.306" cy="7.82" rx="23.306" ry="7.82" transform="translate(154.393 1932.471) rotate(-6.54)" fill="#fff"/>
        <ellipse id="Ellipse_11" data-name="Ellipse 11" cx="23.306" cy="7.82" rx="23.306" ry="7.82" transform="translate(152.546 1993.917) rotate(-51.54)" fill="#fff"/>
        <ellipse id="Ellipse_12" data-name="Ellipse 12" cx="7.82" cy="23.306" rx="7.82" ry="23.306" transform="translate(190.062 1992.485) rotate(-6.54)" fill="#fff"/>
        <ellipse id="Ellipse_13" data-name="Ellipse 13" cx="7.82" cy="23.306" rx="7.82" ry="23.306" transform="translate(220.328 2011.272) rotate(-51.54)" fill="#fff"/>
        <ellipse id="Ellipse_14" data-name="Ellipse 14" cx="23.306" cy="7.82" rx="23.306" ry="7.82" transform="translate(253.484 1987.162) rotate(-6.54)" fill="#fff"/>
        <ellipse id="Ellipse_15" data-name="Ellipse 15" cx="23.306" cy="7.82" rx="23.306" ry="7.82" transform="translate(261.502 1962.705) rotate(-51.54)" fill="#fff"/>
        <ellipse id="Ellipse_16" data-name="Ellipse 16" cx="7.82" cy="23.306" rx="7.82" ry="23.306" transform="translate(245.05 1893.404) rotate(-6.54)" fill="#fff"/>
      </g>
    </g>
  </g>
</svg>
