<svg xmlns="http://www.w3.org/2000/svg" width="24" height="24" viewBox="0 0 24 24" fill="none">
<rect width="24" height="24" rx="4" transform="matrix(1 0 0 -1 0 24)" fill="#12326E"/>
<path d="M12 8.69998C11.8666 8.69998 11.7416 8.72498 11.625 8.77498C11.5083 8.82498 11.4 8.89998 11.3 8.99998L6.34996 13.95C6.16662 14.1333 6.07912 14.3666 6.08746 14.65C6.09579 14.9333 6.19162 15.1666 6.37496 15.35C6.59162 15.5666 6.82912 15.6625 7.08746 15.6375C7.34579 15.6125 7.57496 15.5083 7.77496 15.325L12 11.1L16.225 15.325C16.4083 15.5083 16.6458 15.6083 16.9375 15.625C17.2291 15.6416 17.4666 15.5416 17.65 15.325C17.8666 15.1416 17.9625 14.9125 17.9375 14.6375C17.9125 14.3625 17.8083 14.125 17.625 13.925L12.7 8.99998C12.6 8.89998 12.4916 8.82498 12.375 8.77498C12.2583 8.72498 12.1333 8.69998 12 8.69998Z" fill="white"/>
</svg>
