<svg width="18" height="18" viewBox="0 0 18 18" fill="none" xmlns="http://www.w3.org/2000/svg">
<path d="M7.08748 13.3498C6.98748 13.3498 6.89373 13.3311 6.80623 13.2936C6.71873 13.2561 6.63748 13.1998 6.56248 13.1248L3.16873 9.73105C3.01873 9.58105 2.94373 9.3998 2.94373 9.1873C2.94373 8.9748 3.01873 8.79355 3.16873 8.64355C3.31873 8.49355 3.49685 8.41855 3.7031 8.41855C3.90935 8.41855 4.08748 8.49355 4.23748 8.64355L7.08748 11.4936L13.7625 4.8373C13.9 4.6873 14.0719 4.6123 14.2781 4.6123C14.4844 4.6123 14.6625 4.6873 14.8125 4.8373C14.9625 4.9873 15.0375 5.16855 15.0375 5.38105C15.0375 5.59355 14.9625 5.76855 14.8125 5.90605L7.61248 13.1248C7.53748 13.1998 7.45623 13.2561 7.36873 13.2936C7.28123 13.3311 7.18748 13.3498 7.08748 13.3498Z" fill="white"/>
</svg>
