<svg width="36" height="36" viewBox="0 0 36 36" fill="none" xmlns="http://www.w3.org/2000/svg">
<rect width="36" height="36" rx="18" fill="#12326E"/>
<path d="M18 28C17.5667 28 17.175 27.8958 16.825 27.6875C16.475 27.4792 16.2 27.2 16 26.85C15.45 26.85 14.9792 26.6542 14.5875 26.2625C14.1958 25.8708 14 25.4 14 24.85V21.3C13.0167 20.65 12.2292 19.7917 11.6375 18.725C11.0458 17.6583 10.75 16.5 10.75 15.25C10.75 13.2333 11.4542 11.5208 12.8625 10.1125C14.2708 8.70417 15.9833 8 18 8C20.0167 8 21.7292 8.70417 23.1375 10.1125C24.5458 11.5208 25.25 13.2333 25.25 15.25C25.25 16.5333 24.9542 17.7 24.3625 18.75C23.7708 19.8 22.9833 20.65 22 21.3V24.85C22 25.4 21.8042 25.8708 21.4125 26.2625C21.0208 26.6542 20.55 26.85 20 26.85C19.8 27.2 19.525 27.4792 19.175 27.6875C18.825 27.8958 18.4333 28 18 28ZM16 24.85H20V23.95H16V24.85ZM16 22.95H20V22H16V22.95ZM15.8 20H17.25V17.3L15.575 15.625C15.425 15.475 15.35 15.3 15.35 15.1C15.35 14.9 15.425 14.725 15.575 14.575C15.725 14.425 15.9 14.35 16.1 14.35C16.3 14.35 16.475 14.425 16.625 14.575L18 15.95L19.375 14.575C19.525 14.425 19.7 14.35 19.9 14.35C20.1 14.35 20.275 14.425 20.425 14.575C20.575 14.725 20.65 14.9 20.65 15.1C20.65 15.3 20.575 15.475 20.425 15.625L18.75 17.3V20H20.2C21.1 19.5667 21.8333 18.9292 22.4 18.0875C22.9667 17.2458 23.25 16.3 23.25 15.25C23.25 13.7833 22.7417 12.5417 21.725 11.525C20.7083 10.5083 19.4667 10 18 10C16.5333 10 15.2917 10.5083 14.275 11.525C13.2583 12.5417 12.75 13.7833 12.75 15.25C12.75 16.3 13.0333 17.2458 13.6 18.0875C14.1667 18.9292 14.9 19.5667 15.8 20Z" fill="white"/>
</svg>
