<svg width="18" height="18" viewBox="0 0 18 18" fill="none" xmlns="http://www.w3.org/2000/svg">
<path d="M9.05606 12.8625C9.24356 12.8625 9.40293 12.8 9.53418 12.675C9.66543 12.55 9.73106 12.3875 9.73106 12.1875V8.90625C9.73106 8.73125 9.66543 8.57812 9.53418 8.44687C9.40293 8.31562 9.24356 8.25 9.05606 8.25C8.86856 8.25 8.70918 8.31562 8.57793 8.44687C8.44668 8.57812 8.38105 8.7375 8.38105 8.925V12.2062C8.38105 12.3937 8.44668 12.55 8.57793 12.675C8.70918 12.8 8.86856 12.8625 9.05606 12.8625ZM8.9998 7.0125C9.2248 7.0125 9.40918 6.94375 9.55293 6.80625C9.69668 6.66875 9.76855 6.4875 9.76855 6.2625C9.76855 6.0375 9.69668 5.85 9.55293 5.7C9.40918 5.55 9.2248 5.475 8.9998 5.475C8.77481 5.475 8.59043 5.55 8.44668 5.7C8.30293 5.85 8.23106 6.0375 8.23106 6.2625C8.23106 6.4875 8.30293 6.66875 8.44668 6.80625C8.59043 6.94375 8.77481 7.0125 8.9998 7.0125ZM8.9998 16.7625C7.89981 16.7625 6.87793 16.5656 5.93418 16.1719C4.99043 15.7781 4.16855 15.2312 3.46855 14.5312C2.76855 13.8313 2.22168 13.0094 1.82793 12.0656C1.43418 11.1219 1.2373 10.1 1.2373 9C1.2373 7.9125 1.43418 6.89375 1.82793 5.94375C2.22168 4.99375 2.76855 4.17187 3.46855 3.47812C4.16855 2.78437 4.99043 2.23438 5.93418 1.82812C6.87793 1.42187 7.89981 1.21875 8.9998 1.21875C10.0873 1.21875 11.1061 1.42187 12.0561 1.82812C13.0061 2.23438 13.8279 2.78437 14.5217 3.47812C15.2154 4.17187 15.7654 4.99062 16.1717 5.93437C16.5779 6.87812 16.7811 7.9 16.7811 9C16.7811 10.1 16.5779 11.1219 16.1717 12.0656C15.7654 13.0094 15.2154 13.8313 14.5217 14.5312C13.8279 15.2312 13.0061 15.7781 12.0561 16.1719C11.1061 16.5656 10.0873 16.7625 8.9998 16.7625ZM8.9998 15.2812C10.7248 15.2812 12.2029 14.6687 13.4342 13.4437C14.6654 12.2187 15.2811 10.7375 15.2811 9C15.2811 7.275 14.6654 5.79688 13.4342 4.56563C12.2029 3.33438 10.7248 2.71875 8.9998 2.71875C7.27481 2.71875 5.79668 3.33438 4.56543 4.56563C3.33418 5.79688 2.71855 7.275 2.71855 9C2.71855 10.7375 3.33418 12.2187 4.56543 13.4437C5.79668 14.6687 7.27481 15.2812 8.9998 15.2812Z" fill="#29CE95"/>
</svg>
