<svg width="24" height="24" viewBox="0 0 24 24" fill="none" xmlns="http://www.w3.org/2000/svg">
<rect width="24" height="24" rx="12" fill="#fff"/>
<g clip-path="url(#clip0_1386_809)">
<path d="M10.0871 16.3498C9.98711 16.3498 9.89336 16.3311 9.80586 16.2936C9.71836 16.2561 9.63711 16.1998 9.56211 16.1248L6.16836 12.7311C6.01836 12.5811 5.94336 12.3998 5.94336 12.1873C5.94336 11.9748 6.01836 11.7936 6.16836 11.6436C6.31836 11.4936 6.49648 11.4186 6.70273 11.4186C6.90898 11.4186 7.08711 11.4936 7.23711 11.6436L10.0871 14.4936L16.7621 7.8373C16.8996 7.6873 17.0715 7.6123 17.2777 7.6123C17.484 7.6123 17.6621 7.6873 17.8121 7.8373C17.9621 7.9873 18.0371 8.16855 18.0371 8.38105C18.0371 8.59355 17.9621 8.76855 17.8121 8.90605L10.6121 16.1248C10.5371 16.1998 10.4559 16.2561 10.3684 16.2936C10.2809 16.3311 10.1871 16.3498 10.0871 16.3498Z" fill="#29CE95"/>
</g>
<defs>
<clipPath id="clip0_1386_809">
<rect width="18" height="18" fill="white" transform="translate(3 3)"/>
</clipPath>
</defs>
</svg>
