<svg width="36" height="36" viewBox="0 0 36 36" fill="none" xmlns="http://www.w3.org/2000/svg">
<rect width="36" height="36" rx="18" fill="#29CE95"/>
<g clip-path="url(#clip0_1386_767)">
<path d="M15.4498 23.7999C15.3165 23.7999 15.1915 23.7749 15.0748 23.7249C14.9581 23.6749 14.8498 23.5999 14.7498 23.4999L10.2248 18.9749C10.0248 18.7749 9.9248 18.5332 9.9248 18.2499C9.9248 17.9666 10.0248 17.7249 10.2248 17.5249C10.4248 17.3249 10.6623 17.2249 10.9373 17.2249C11.2123 17.2249 11.4498 17.3249 11.6498 17.5249L15.4498 21.3249L24.3498 12.4499C24.5331 12.2499 24.7623 12.1499 25.0373 12.1499C25.3123 12.1499 25.5498 12.2499 25.7498 12.4499C25.9498 12.6499 26.0498 12.8916 26.0498 13.1749C26.0498 13.4582 25.9498 13.6916 25.7498 13.8749L16.1498 23.4999C16.0498 23.5999 15.9415 23.6749 15.8248 23.7249C15.7081 23.7749 15.5831 23.7999 15.4498 23.7999Z" fill="white"/>
</g>
<defs>
<clipPath id="clip0_1386_767">
<rect width="24" height="24" fill="white" transform="translate(6 6)"/>
</clipPath>
</defs>
</svg>
