<svg width="24" height="24" viewBox="0 0 24 24" fill="none" xmlns="http://www.w3.org/2000/svg">
<path d="M19.2721 20.5207L13.283 14.5375C12.7869 14.9586 12.2069 15.287 11.543 15.5229C10.879 15.7587 10.1693 15.8766 9.41393 15.8766C7.58335 15.8766 6.03376 15.2417 4.76518 13.9718C3.4966 12.7018 2.8623 11.1696 2.8623 9.37501C2.8623 7.58044 3.49727 6.04819 4.7672 4.77826C6.03712 3.50834 7.57353 2.87338 9.37643 2.87338C11.1793 2.87338 12.7116 3.50834 13.9732 4.77826C15.2348 6.04819 15.8656 7.58169 15.8656 9.37876C15.8656 10.1009 15.7519 10.7923 15.5245 11.453C15.2972 12.1137 14.9561 12.7337 14.5014 13.3131L20.5406 19.3022C20.7105 19.4668 20.7955 19.6654 20.7955 19.8979C20.7955 20.1305 20.7029 20.3373 20.5177 20.5185C20.3452 20.6938 20.1351 20.7815 19.8874 20.7815C19.6397 20.7815 19.4346 20.6946 19.2721 20.5207ZM9.39105 14.1734C10.7199 14.1734 11.8473 13.7047 12.7733 12.7673C13.6993 11.8299 14.1623 10.6991 14.1623 9.37501C14.1623 8.05091 13.699 6.92016 12.7724 5.98276C11.8458 5.04534 10.7187 4.57663 9.39105 4.57663C8.04949 4.57663 6.90985 5.04534 5.97213 5.98276C5.03441 6.92016 4.56555 8.05091 4.56555 9.37501C4.56555 10.6991 5.03412 11.8299 5.97125 12.7673C6.90837 13.7047 8.0483 14.1734 9.39105 14.1734Z" fill="#12326E"/>
</svg>
