<svg width="18" height="18" viewBox="0 0 18 18" fill="none" xmlns="http://www.w3.org/2000/svg">
<path d="M7.8748 12.5625L13.2936 7.14375L12.2248 6.075L7.8748 10.425L5.71855 8.26875L4.66855 9.3375L7.8748 12.5625ZM8.9998 16.7625C7.9373 16.7625 6.93418 16.5594 5.99043 16.1531C5.04668 15.7469 4.22168 15.1906 3.51543 14.4844C2.80918 13.7781 2.25293 12.9562 1.84668 12.0187C1.44043 11.0812 1.2373 10.075 1.2373 9C1.2373 7.925 1.44043 6.91563 1.84668 5.97188C2.25293 5.02813 2.80605 4.20625 3.50605 3.50625C4.20605 2.80625 5.02793 2.25 5.97168 1.8375C6.91543 1.425 7.92481 1.21875 8.9998 1.21875C10.0748 1.21875 11.0873 1.425 12.0373 1.8375C12.9873 2.25 13.8092 2.80312 14.5029 3.49687C15.1967 4.19062 15.7498 5.00938 16.1623 5.95312C16.5748 6.89687 16.7811 7.9125 16.7811 9C16.7811 10.075 16.5748 11.0844 16.1623 12.0281C15.7498 12.9719 15.1936 13.7938 14.4936 14.4938C13.7936 15.1938 12.9748 15.7469 12.0373 16.1531C11.0998 16.5594 10.0873 16.7625 8.9998 16.7625ZM8.9998 15.2812C10.7498 15.2812 12.2342 14.6687 13.4529 13.4437C14.6717 12.2187 15.2811 10.7375 15.2811 9C15.2811 7.25 14.6717 5.76562 13.4529 4.54688C12.2342 3.32812 10.7498 2.71875 8.9998 2.71875C7.26231 2.71875 5.78105 3.32812 4.55605 4.54688C3.33105 5.76562 2.71855 7.25 2.71855 9C2.71855 10.7375 3.33105 12.2187 4.55605 13.4437C5.78105 14.6687 7.26231 15.2812 8.9998 15.2812Z" fill="#078437"/>
</svg>
