<svg width="24" height="24" viewBox="0 0 24 24" fill="none" xmlns="http://www.w3.org/2000/svg">
<rect width="24" height="24" rx="12" fill="#29CE95"/>
<g clip-path="url(#clip0_317_43563)">
<path d="M10.0871 16.35C9.98711 16.35 9.89336 16.3312 9.80586 16.2937C9.71836 16.2562 9.63711 16.2 9.56211 16.125L6.16836 12.7312C6.01836 12.5812 5.94336 12.4 5.94336 12.1875C5.94336 11.975 6.01836 11.7937 6.16836 11.6437C6.31836 11.4937 6.49648 11.4187 6.70273 11.4187C6.90898 11.4187 7.08711 11.4937 7.23711 11.6437L10.0871 14.4937L16.7621 7.83749C16.8996 7.68749 17.0715 7.61249 17.2777 7.61249C17.484 7.61249 17.6621 7.68749 17.8121 7.83749C17.9621 7.98749 18.0371 8.16874 18.0371 8.38124C18.0371 8.59374 17.9621 8.76874 17.8121 8.90624L10.6121 16.125C10.5371 16.2 10.4559 16.2562 10.3684 16.2937C10.2809 16.3312 10.1871 16.35 10.0871 16.35Z" fill="white"/>
</g>
<defs>
<clipPath id="clip0_317_43563">
<rect width="18" height="18" fill="white" transform="translate(3 3)"/>
</clipPath>
</defs>
</svg>
