<svg width="24" height="24" viewBox="0 0 24 24" fill="none" xmlns="http://www.w3.org/2000/svg">
    <path d="M12.0782 17.0659C12.3102 17.0659 12.5036 16.9878 12.6585 16.8314C12.8134 16.6751 12.8908 16.4813 12.8908 16.2502V11.8159C12.8908 11.5848 12.8123 11.3911 12.6554 11.2347C12.4984 11.0784 12.3039 11.0002 12.0719 11.0002C11.8399 11.0002 11.6465 11.0784 11.4916 11.2347C11.3367 11.3911 11.2593 11.5848 11.2593 11.8159V16.2502C11.2593 16.4813 11.3378 16.6751 11.4947 16.8314C11.6517 16.9878 11.8461 17.0659 12.0782 17.0659ZM12.0001 9.23985C12.2593 9.23985 12.4765 9.15459 12.6518 8.98408C12.8271 8.81354 12.9147 8.60224 12.9147 8.35018C12.9147 8.07944 12.8271 7.85515 12.6519 7.6773C12.4766 7.49944 12.2595 7.4105 12.0005 7.4105C11.737 7.4105 11.5186 7.49944 11.3453 7.6773C11.172 7.85515 11.0854 8.07844 11.0854 8.34718C11.0854 8.60174 11.173 8.81417 11.3484 8.98445C11.5237 9.15472 11.7409 9.23985 12.0001 9.23985ZM12.0075 22.1496C10.6041 22.1496 9.28714 21.884 8.05649 21.3527C6.82584 20.8214 5.74951 20.0947 4.82751 19.1727C3.90551 18.2507 3.17885 17.174 2.64754 15.9427C2.11624 14.7113 1.85059 13.3933 1.85059 11.9885C1.85059 10.5837 2.11624 9.26539 2.64754 8.0335C3.17885 6.8016 3.90519 5.72871 4.82656 4.81483C5.74794 3.90096 6.82445 3.17748 8.05609 2.64438C9.28774 2.11128 10.6061 1.84473 12.0112 1.84473C13.4163 1.84473 14.7351 2.11113 15.9674 2.64393C17.1998 3.17671 18.2728 3.89978 19.1863 4.81313C20.0999 5.72648 20.8232 6.8005 21.3561 8.0352C21.889 9.26992 22.1555 10.5894 22.1555 11.9935C22.1555 13.3974 21.8889 14.7147 21.3558 15.9453C20.8227 17.1759 20.0993 18.2504 19.1854 19.1688C18.2715 20.0873 17.1976 20.8137 15.9636 21.3481C14.7296 21.8824 13.4109 22.1496 12.0075 22.1496ZM12.0125 20.4464C14.3549 20.4464 16.3461 19.6234 17.9862 17.9776C19.6262 16.3317 20.4462 14.3351 20.4462 11.9877C20.4462 9.64529 19.6278 7.65408 17.9909 6.01403C16.3539 4.37399 14.356 3.55398 11.997 3.55398C9.66099 3.55398 7.66978 4.37244 6.02341 6.00935C4.37703 7.64627 3.55384 9.64421 3.55384 12.0032C3.55384 14.3392 4.37677 16.3304 6.02264 17.9768C7.6685 19.6232 9.66514 20.4464 12.0125 20.4464Z" fill="#0EA6CE"/>
    </svg>
