<svg width="60" height="60" viewBox="0 0 60 60" fill="none" xmlns="http://www.w3.org/2000/svg">
    <circle cx="30" cy="30" r="30" fill="#21A7CC"/>
    <circle cx="22" cy="22" r="7" fill="#F5CF68"/>
    <circle cx="22" cy="39" r="7" fill="#F5CF68"/>
    <circle cx="39" cy="39" r="7" fill="#F5CF68"/>
    <circle cx="39" cy="22" r="7" fill="#F5CF68"/>
    <mask id="path-6-inside-1_1206_357" fill="white">
    <path d="M21.9589 29.4477C17.8294 29.4477 14.47 26.0883 14.47 21.9589C14.47 17.8294 17.8294 14.47 21.9589 14.47C26.0883 14.47 29.4477 17.8294 29.4477 21.9589C29.4477 26.0883 26.0883 29.4477 21.9589 29.4477ZM21.9589 15.8209C18.5724 15.8209 15.8209 18.5724 15.8209 21.9589C15.8209 25.3453 18.5769 28.0968 21.9589 28.0968C25.3408 28.0968 28.0968 25.3453 28.0968 21.9589C28.0968 18.5724 25.3408 15.8209 21.9589 15.8209ZM21.9589 46.47C17.8294 46.47 14.47 43.1106 14.47 38.9811C14.47 34.8516 17.8294 31.4922 21.9589 31.4922C26.0883 31.4922 29.4477 34.8516 29.4477 38.9811C29.4477 43.1106 26.0883 46.47 21.9589 46.47ZM21.9589 32.8432C18.5724 32.8432 15.8209 35.5947 15.8209 38.9811C15.8209 42.3675 18.5769 45.119 21.9589 45.119C25.3408 45.119 28.0968 42.3675 28.0968 38.9811C28.0968 35.5947 25.3408 32.8432 21.9589 32.8432ZM38.9811 46.47C34.8516 46.47 31.4922 43.1106 31.4922 38.9811C31.4922 34.8516 34.8516 31.4922 38.9811 31.4922C43.1106 31.4922 46.47 34.8516 46.47 38.9811C46.47 43.1106 43.1106 46.47 38.9811 46.47ZM38.9811 32.8432C35.5947 32.8432 32.8432 35.5947 32.8432 38.9811C32.8432 42.3675 35.5992 45.119 38.9811 45.119C42.363 45.119 45.119 42.3675 45.119 38.9811C45.119 35.5947 42.363 32.8432 38.9811 32.8432ZM38.9811 14.47C34.8516 14.47 31.4922 17.8294 31.4922 21.9589C31.4922 26.0883 34.8516 29.4477 38.9811 29.4477C43.1106 29.4477 46.47 26.0883 46.47 21.9589C46.47 17.8294 43.1106 14.47 38.9811 14.47ZM42.9755 20.2476L38.4947 24.7283C38.3686 24.8544 38.1975 24.9265 38.0174 24.9265C37.8373 24.9265 37.6661 24.8544 37.5401 24.7283L35.1173 22.3056C34.8516 22.0399 34.8516 21.6121 35.1173 21.3509C35.383 21.0852 35.8108 21.0852 36.072 21.3509L38.0174 23.2963L42.0208 19.2929C42.2865 19.0272 42.7143 19.0272 42.9755 19.2929C43.2411 19.5586 43.2411 19.9864 42.9755 20.2476Z"/>
    </mask>
    <path d="M21.9589 29.4477C17.8294 29.4477 14.47 26.0883 14.47 21.9589C14.47 17.8294 17.8294 14.47 21.9589 14.47C26.0883 14.47 29.4477 17.8294 29.4477 21.9589C29.4477 26.0883 26.0883 29.4477 21.9589 29.4477ZM21.9589 15.8209C18.5724 15.8209 15.8209 18.5724 15.8209 21.9589C15.8209 25.3453 18.5769 28.0968 21.9589 28.0968C25.3408 28.0968 28.0968 25.3453 28.0968 21.9589C28.0968 18.5724 25.3408 15.8209 21.9589 15.8209ZM21.9589 46.47C17.8294 46.47 14.47 43.1106 14.47 38.9811C14.47 34.8516 17.8294 31.4922 21.9589 31.4922C26.0883 31.4922 29.4477 34.8516 29.4477 38.9811C29.4477 43.1106 26.0883 46.47 21.9589 46.47ZM21.9589 32.8432C18.5724 32.8432 15.8209 35.5947 15.8209 38.9811C15.8209 42.3675 18.5769 45.119 21.9589 45.119C25.3408 45.119 28.0968 42.3675 28.0968 38.9811C28.0968 35.5947 25.3408 32.8432 21.9589 32.8432ZM38.9811 46.47C34.8516 46.47 31.4922 43.1106 31.4922 38.9811C31.4922 34.8516 34.8516 31.4922 38.9811 31.4922C43.1106 31.4922 46.47 34.8516 46.47 38.9811C46.47 43.1106 43.1106 46.47 38.9811 46.47ZM38.9811 32.8432C35.5947 32.8432 32.8432 35.5947 32.8432 38.9811C32.8432 42.3675 35.5992 45.119 38.9811 45.119C42.363 45.119 45.119 42.3675 45.119 38.9811C45.119 35.5947 42.363 32.8432 38.9811 32.8432ZM38.9811 14.47C34.8516 14.47 31.4922 17.8294 31.4922 21.9589C31.4922 26.0883 34.8516 29.4477 38.9811 29.4477C43.1106 29.4477 46.47 26.0883 46.47 21.9589C46.47 17.8294 43.1106 14.47 38.9811 14.47ZM42.9755 20.2476L38.4947 24.7283C38.3686 24.8544 38.1975 24.9265 38.0174 24.9265C37.8373 24.9265 37.6661 24.8544 37.5401 24.7283L35.1173 22.3056C34.8516 22.0399 34.8516 21.6121 35.1173 21.3509C35.383 21.0852 35.8108 21.0852 36.072 21.3509L38.0174 23.2963L42.0208 19.2929C42.2865 19.0272 42.7143 19.0272 42.9755 19.2929C43.2411 19.5586 43.2411 19.9864 42.9755 20.2476Z" fill="black"/>
    <path d="M42.9755 20.2476L38.7692 15.9689L38.7509 15.9869L38.7328 16.005L42.9755 20.2476ZM38.4947 24.7283L42.7374 28.971V28.971L38.4947 24.7283ZM35.1173 22.3056L39.36 18.063L35.1173 22.3056ZM35.1173 21.3509L39.3235 25.6297L39.3418 25.6117L39.36 25.5936L35.1173 21.3509ZM36.072 21.3509L31.7932 25.5571L31.8112 25.5754L31.8294 25.5936L36.072 21.3509ZM38.0174 23.2963L33.7748 27.539L38.0174 31.7816L42.26 27.539L38.0174 23.2963ZM42.0208 19.2929L46.2634 23.5356L42.0208 19.2929ZM42.9755 19.2929L38.6967 23.4992L38.7147 23.5174L38.7328 23.5356L42.9755 19.2929ZM21.9589 23.4477C21.1431 23.4477 20.47 22.7746 20.47 21.9589H8.46997C8.46997 29.402 14.5157 35.4477 21.9589 35.4477V23.4477ZM20.47 21.9589C20.47 21.1431 21.1431 20.47 21.9589 20.47V8.46997C14.5157 8.46997 8.46997 14.5157 8.46997 21.9589H20.47ZM21.9589 20.47C22.7746 20.47 23.4477 21.1431 23.4477 21.9589H35.4477C35.4477 14.5157 29.402 8.46997 21.9589 8.46997V20.47ZM23.4477 21.9589C23.4477 22.7746 22.7746 23.4477 21.9589 23.4477V35.4477C29.402 35.4477 35.4477 29.402 35.4477 21.9589H23.4477ZM21.9589 9.82094C15.2587 9.82094 9.82094 15.2587 9.82094 21.9589H21.8209C21.8209 21.9315 21.8253 21.919 21.8289 21.9106C21.8342 21.8982 21.8447 21.8805 21.8626 21.8626C21.8805 21.8447 21.8982 21.8342 21.9106 21.8289C21.919 21.8253 21.9315 21.8209 21.9589 21.8209V9.82094ZM9.82094 21.9589C9.82094 28.6619 15.2661 34.0968 21.9589 34.0968V22.0968C21.9336 22.0968 21.9219 22.0928 21.9131 22.0891C21.9003 22.0836 21.8819 22.0726 21.8632 22.054C21.8446 22.0354 21.8338 22.0173 21.8286 22.0048C21.8251 21.9965 21.8209 21.9849 21.8209 21.9589H9.82094ZM21.9589 34.0968C28.6516 34.0968 34.0968 28.6619 34.0968 21.9589H22.0968C22.0968 21.9849 22.0927 21.9965 22.0891 22.0048C22.0839 22.0173 22.0731 22.0354 22.0545 22.054C22.0358 22.0726 22.0174 22.0836 22.0046 22.0891C21.9958 22.0928 21.9841 22.0968 21.9589 22.0968V34.0968ZM34.0968 21.9589C34.0968 15.2558 28.6516 9.82094 21.9589 9.82094V21.8209C21.9841 21.8209 21.9958 21.8249 22.0046 21.8286C22.0174 21.8341 22.0358 21.8451 22.0545 21.8637C22.0731 21.8823 22.0839 21.9005 22.0891 21.9129C22.0927 21.9212 22.0968 21.9329 22.0968 21.9589H34.0968ZM21.9589 40.47C21.1431 40.47 20.47 39.7968 20.47 38.9811H8.46997C8.46997 46.4243 14.5157 52.47 21.9589 52.47V40.47ZM20.47 38.9811C20.47 38.1653 21.1431 37.4922 21.9589 37.4922V25.4922C14.5157 25.4922 8.46997 31.5379 8.46997 38.9811H20.47ZM21.9589 37.4922C22.7746 37.4922 23.4477 38.1653 23.4477 38.9811H35.4477C35.4477 31.5379 29.402 25.4922 21.9589 25.4922V37.4922ZM23.4477 38.9811C23.4477 39.7968 22.7746 40.47 21.9589 40.47V52.47C29.402 52.47 35.4477 46.4243 35.4477 38.9811H23.4477ZM21.9589 26.8432C15.2587 26.8432 9.82094 32.2809 9.82094 38.9811H21.8209C21.8209 38.9537 21.8253 38.9412 21.8289 38.9329C21.8342 38.9204 21.8447 38.9028 21.8626 38.8849C21.8805 38.8669 21.8982 38.8564 21.9106 38.8511C21.919 38.8476 21.9315 38.8432 21.9589 38.8432V26.8432ZM9.82094 38.9811C9.82094 45.6841 15.2661 51.119 21.9589 51.119V39.119C21.9336 39.119 21.9219 39.115 21.9131 39.1113C21.9003 39.1059 21.8819 39.0949 21.8632 39.0762C21.8446 39.0576 21.8338 39.0395 21.8286 39.0271C21.8251 39.0188 21.8209 39.0071 21.8209 38.9811H9.82094ZM21.9589 51.119C28.6516 51.119 34.0968 45.6841 34.0968 38.9811H22.0968C22.0968 39.0071 22.0927 39.0188 22.0891 39.0271C22.0839 39.0395 22.0731 39.0576 22.0545 39.0762C22.0358 39.0949 22.0174 39.1059 22.0046 39.1113C21.9958 39.115 21.9841 39.119 21.9589 39.119V51.119ZM34.0968 38.9811C34.0968 32.2781 28.6516 26.8432 21.9589 26.8432V38.8432C21.9841 38.8432 21.9958 38.8472 22.0046 38.8509C22.0174 38.8563 22.0358 38.8673 22.0545 38.8859C22.0731 38.9046 22.0839 38.9227 22.0891 38.9351C22.0927 38.9434 22.0968 38.9551 22.0968 38.9811H34.0968ZM38.9811 40.47C38.1653 40.47 37.4922 39.7968 37.4922 38.9811H25.4922C25.4922 46.4243 31.5379 52.47 38.9811 52.47V40.47ZM37.4922 38.9811C37.4922 38.1653 38.1653 37.4922 38.9811 37.4922V25.4922C31.5379 25.4922 25.4922 31.5379 25.4922 38.9811H37.4922ZM38.9811 37.4922C39.7968 37.4922 40.47 38.1653 40.47 38.9811H52.47C52.47 31.5379 46.4243 25.4922 38.9811 25.4922V37.4922ZM40.47 38.9811C40.47 39.7968 39.7968 40.47 38.9811 40.47V52.47C46.4243 52.47 52.47 46.4243 52.47 38.9811H40.47ZM38.9811 26.8432C32.2809 26.8432 26.8432 32.2809 26.8432 38.9811H38.8432C38.8432 38.9537 38.8476 38.9412 38.8511 38.9329C38.8564 38.9204 38.8669 38.9028 38.8849 38.8849C38.9028 38.8669 38.9204 38.8564 38.9329 38.8511C38.9412 38.8476 38.9537 38.8432 38.9811 38.8432V26.8432ZM26.8432 38.9811C26.8432 45.6841 32.2883 51.119 38.9811 51.119V39.119C38.9558 39.119 38.9441 39.115 38.9353 39.1113C38.9225 39.1059 38.9041 39.0949 38.8855 39.0762C38.8668 39.0576 38.8561 39.0395 38.8508 39.0271C38.8473 39.0188 38.8432 39.0071 38.8432 38.9811H26.8432ZM38.9811 51.119C45.6739 51.119 51.119 45.6841 51.119 38.9811H39.119C39.119 39.0071 39.1149 39.0188 39.1114 39.0271C39.1061 39.0395 39.0953 39.0576 39.0767 39.0762C39.0581 39.0949 39.0397 39.1059 39.0269 39.1113C39.0181 39.115 39.0063 39.119 38.9811 39.119V51.119ZM51.119 38.9811C51.119 32.2781 45.6739 26.8432 38.9811 26.8432V38.8432C39.0063 38.8432 39.0181 38.8472 39.0269 38.8509C39.0397 38.8563 39.0581 38.8673 39.0767 38.8859C39.0953 38.9046 39.1061 38.9227 39.1114 38.9351C39.1149 38.9434 39.119 38.9551 39.119 38.9811H51.119ZM38.9811 8.46997C31.5379 8.46997 25.4922 14.5157 25.4922 21.9589H37.4922C37.4922 21.1431 38.1653 20.47 38.9811 20.47V8.46997ZM25.4922 21.9589C25.4922 29.402 31.5379 35.4477 38.9811 35.4477V23.4477C38.1653 23.4477 37.4922 22.7746 37.4922 21.9589H25.4922ZM38.9811 35.4477C46.4243 35.4477 52.47 29.402 52.47 21.9589H40.47C40.47 22.7746 39.7968 23.4477 38.9811 23.4477V35.4477ZM52.47 21.9589C52.47 14.5157 46.4243 8.46997 38.9811 8.46997V20.47C39.7968 20.47 40.47 21.1431 40.47 21.9589H52.47ZM38.7328 16.005L34.2521 20.4857L42.7374 28.971L47.2181 24.4903L38.7328 16.005ZM34.2521 20.4857C35.2384 19.4994 36.5882 18.9265 38.0174 18.9265V30.9265C39.8069 30.9265 41.4989 30.2095 42.7374 28.971L34.2521 20.4857ZM38.0174 18.9265C39.4466 18.9265 40.7964 19.4994 41.7827 20.4857L33.2974 28.971C34.5359 30.2095 36.2279 30.9265 38.0174 30.9265V18.9265ZM41.7827 20.4857L39.36 18.063L30.8747 26.5482L33.2974 28.971L41.7827 20.4857ZM39.36 18.063C41.4172 20.1202 41.4698 23.5198 39.3235 25.6297L30.9111 17.0722C28.2335 19.7044 28.2861 23.9596 30.8747 26.5482L39.36 18.063ZM39.36 25.5936C37.3027 27.6508 33.9031 27.7034 31.7932 25.5571L40.3507 17.1447C37.7185 14.4671 33.4633 14.5197 30.8747 17.1083L39.36 25.5936ZM31.8294 25.5936L33.7748 27.539L42.26 19.0537L40.3146 17.1083L31.8294 25.5936ZM42.26 27.539L46.2634 23.5356L37.7781 15.0503L33.7748 19.0537L42.26 27.539ZM46.2634 23.5356C44.2062 25.5928 40.8066 25.6454 38.6967 23.4992L47.2542 15.0867C44.622 12.4091 40.3667 12.4617 37.7781 15.0503L46.2634 23.5356ZM38.7328 23.5356C36.6756 21.4784 36.623 18.0787 38.7692 15.9689L47.1817 24.5264C49.8593 21.8941 49.8067 17.6389 47.2181 15.0503L38.7328 23.5356Z" fill="black" mask="url(#path-6-inside-1_1206_357)"/>
    </svg>
