<svg width="60" height="60" viewBox="0 0 60 60" fill="none" xmlns="http://www.w3.org/2000/svg">
<circle cx="30" cy="30" r="30" fill="#21A7CC"/>
<g clip-path="url(#clip0_40_698)">
<path d="M32.7281 19.6106H27.2733C23.041 19.6106 19.6104 23.0412 19.6104 27.2717V32.7265C19.6104 36.9588 23.041 40.3876 27.2715 40.3876H32.7263C36.9586 40.3876 40.3874 36.957 40.3874 32.7265V27.2717C40.3874 23.0394 36.9567 19.6106 32.7263 19.6106H32.7281ZM27.7816 35.6907L22.7841 30.6932L23.9009 29.5764L27.7816 33.4571L36.1023 25.1364L37.2191 26.2532L27.7834 35.6889L27.7816 35.6907Z" fill="#262626"/>
<path d="M32.7265 42H27.2717C22.1594 42 18 37.8406 18 32.7283V27.2735C18 22.1594 22.1594 18 27.2717 18H32.7265C37.8388 18 41.9982 22.1594 41.9982 27.2717V32.7265C41.9982 37.8388 37.8388 41.9982 32.7265 41.9982V42ZM21.2211 31.0831V32.7265C21.2211 36.0624 23.9358 38.777 27.2717 38.777H32.7265C36.0642 38.777 38.7789 36.0624 38.7789 32.7265V27.2717C38.7789 27.0895 38.7716 26.9091 38.7552 26.7306C38.6787 26.9784 38.542 27.2061 38.3562 27.3938L28.9205 36.8294C28.292 37.458 27.2717 37.458 26.6431 36.8294L21.6456 31.8319C21.4379 31.6242 21.2922 31.3637 21.2211 31.0831ZM23.8993 27.9677C24.3257 27.9677 24.7356 28.1371 25.038 28.4395L27.78 31.1815L34.962 23.9995C35.2644 23.6971 35.6743 23.5277 36.1007 23.5277C36.527 23.5277 36.9369 23.6971 37.2394 23.9995L38.3562 25.1164C38.3708 25.1309 38.3853 25.1473 38.3999 25.1619C37.5418 22.8627 35.3227 21.2211 32.7283 21.2211H27.2735C23.9376 21.2211 21.223 23.9358 21.223 27.2735V30.3052C21.2922 30.0246 21.4379 29.7641 21.6475 29.5564L22.7643 28.4395C23.0667 28.1371 23.4767 27.9677 23.903 27.9677H23.8993Z" fill="#262626"/>
<path d="M27.7797 33.4589L23.8991 29.5782L22.7822 30.6932L27.7797 35.6907L37.2172 26.2551L36.1004 25.1382L27.7797 33.4589Z" fill="#262626"/>
<path d="M27.7799 37.3013C27.3682 37.3013 26.9564 37.1446 26.6412 36.8294L21.6437 31.8319C21.3413 31.5295 21.1719 31.1196 21.1719 30.6932C21.1719 30.2669 21.3413 29.857 21.6437 29.5545L22.7606 28.4377C23.063 28.1353 23.4729 27.9658 23.8993 27.9658C24.3256 27.9658 24.7355 28.1353 25.038 28.4377L27.7799 31.1797L34.9619 23.9977C35.2643 23.6953 35.6743 23.5258 36.1006 23.5258C36.5269 23.5258 36.9368 23.6953 37.2393 23.9977L38.3561 25.1146C38.6586 25.417 38.828 25.8269 38.828 26.2532C38.828 26.6796 38.6586 27.0895 38.3561 27.3919L28.9205 36.8276C28.6053 37.1428 28.1935 37.2995 27.7818 37.2995L27.7799 37.3013Z" fill="#262626"/>
<path d="M32.7281 19.6106H27.2715C23.0404 19.6106 19.6104 23.0406 19.6104 27.2717V32.7283C19.6104 36.9594 23.0404 40.3894 27.2715 40.3894H32.7281C36.9592 40.3894 40.3892 36.9594 40.3892 32.7283V27.2717C40.3892 23.0406 36.9592 19.6106 32.7281 19.6106Z" fill="#FCCE60"/>
<path d="M27.78 35.494C27.5359 35.494 27.3027 35.3974 27.1296 35.2243L22.6896 30.7843C22.3307 30.4254 22.3307 29.8424 22.6896 29.4835C23.0485 29.1246 23.6315 29.1246 23.9904 29.4835L27.7782 33.2712L36.0059 25.0435C36.3648 24.6846 36.9479 24.6846 37.3068 25.0435C37.6657 25.4024 37.6657 25.9854 37.3068 26.3444L28.4286 35.2225C28.2555 35.3956 28.0223 35.4922 27.7782 35.4922L27.78 35.494Z" fill="#262626"/>
</g>
<defs>
<clipPath id="clip0_40_698">
<rect width="24" height="24" fill="white" transform="translate(18 18)"/>
</clipPath>
</defs>
</svg>
