<svg width="36" height="36" viewBox="0 0 36 36" fill="none" xmlns="http://www.w3.org/2000/svg">
<circle cx="18" cy="18" r="18" fill="#12326E"/>
<g clip-path="url(#clip0_1751_1223)">
<path d="M18.0001 19.4L12.9251 24.475C12.7251 24.675 12.4918 24.775 12.2251 24.775C11.9584 24.775 11.7251 24.675 11.5251 24.475C11.3251 24.275 11.2251 24.0416 11.2251 23.775C11.2251 23.5083 11.3251 23.275 11.5251 23.075L16.6001 18L11.5251 12.925C11.3251 12.725 11.2251 12.4916 11.2251 12.225C11.2251 11.9583 11.3251 11.725 11.5251 11.525C11.7251 11.325 11.9584 11.225 12.2251 11.225C12.4918 11.225 12.7251 11.325 12.9251 11.525L18.0001 16.6L23.0751 11.525C23.2751 11.325 23.5084 11.225 23.7751 11.225C24.0418 11.225 24.2751 11.325 24.4751 11.525C24.6751 11.725 24.7751 11.9583 24.7751 12.225C24.7751 12.4916 24.6751 12.725 24.4751 12.925L19.4001 18L24.4751 23.075C24.6751 23.275 24.7751 23.5083 24.7751 23.775C24.7751 24.0416 24.6751 24.275 24.4751 24.475C24.2751 24.675 24.0418 24.775 23.7751 24.775C23.5084 24.775 23.2751 24.675 23.0751 24.475L18.0001 19.4Z" fill="white"/>
</g>
<defs>
<clipPath id="clip0_1751_1223">
<rect x="6" y="6" width="24" height="24" rx="12" fill="white"/>
</clipPath>
</defs>
</svg>
