<svg width="18" height="18" viewBox="0 0 18 18" fill="none" xmlns="http://www.w3.org/2000/svg">
<path d="M8.99995 10.05L5.1937 13.8563C5.0437 14.0063 4.8687 14.0813 4.6687 14.0813C4.4687 14.0813 4.2937 14.0063 4.1437 13.8563C3.9937 13.7063 3.9187 13.5313 3.9187 13.3313C3.9187 13.1313 3.9937 12.9563 4.1437 12.8063L7.94995 9.00001L4.1437 5.19376C3.9937 5.04376 3.9187 4.86876 3.9187 4.66876C3.9187 4.46876 3.9937 4.29376 4.1437 4.14376C4.2937 3.99376 4.4687 3.91876 4.6687 3.91876C4.8687 3.91876 5.0437 3.99376 5.1937 4.14376L8.99995 7.95001L12.8062 4.14376C12.9562 3.99376 13.1312 3.91876 13.3312 3.91876C13.5312 3.91876 13.7062 3.99376 13.8562 4.14376C14.0062 4.29376 14.0812 4.46876 14.0812 4.66876C14.0812 4.86876 14.0062 5.04376 13.8562 5.19376L10.05 9.00001L13.8562 12.8063C14.0062 12.9563 14.0812 13.1313 14.0812 13.3313C14.0812 13.5313 14.0062 13.7063 13.8562 13.8563C13.7062 14.0063 13.5312 14.0813 13.3312 14.0813C13.1312 14.0813 12.9562 14.0063 12.8062 13.8563L8.99995 10.05Z" fill="#0EA6CE"/>
</svg>
