<svg width="570" height="345" viewBox="0 0 570 345" fill="none" xmlns="http://www.w3.org/2000/svg">
<g clip-path="url(#clip0_640_400)">
<path d="M30.5061 345C30.5061 345 -10.7208 294.23 9.65737 196.169C22.4731 134.491 76.3118 103.933 148.484 106.85C173.293 107.853 213.658 77.9678 271.655 41.2562C395.714 -37.2684 575.164 -3.91803 532.215 172.711C511.431 258.188 597.591 259.557 554.769 345H30.5061Z" fill="white" fill-opacity="0.1"/>
</g>
<g clip-path="url(#clip1_640_400)">
<path d="M397.62 132.423L401.234 123.941L401.32 123.739C401.754 122.704 401.348 121.512 400.376 120.966L393.675 117.193C393.564 117.13 393.461 117.061 393.368 116.983C392.714 116.439 392.409 115.548 392.657 114.714C394.048 109.789 394.451 104.648 393.83 99.5696C393.807 99.3598 393.815 99.15 393.846 98.9506C393.973 98.1944 394.5 97.5366 395.234 97.2518L401.239 94.9884C402.028 94.6854 402.563 93.9499 402.646 93.1445C402.664 92.8985 402.653 92.6343 402.589 92.3727L400.239 83.2543C399.952 82.133 398.84 81.4079 397.69 81.6073L389.275 83.0368C388.445 83.1741 387.613 82.827 387.135 82.1304C386.429 81.1411 385.69 80.1777 384.888 79.2429C383.384 77.487 381.755 75.9099 380.031 74.5011L380.023 74.4933C379.302 73.9054 379.017 72.955 379.31 72.0719L382.019 63.8237L382.151 63.4067C382.507 62.3501 381.988 61.1718 380.946 60.7315L372.294 57.0282C371.236 56.5854 370.008 56.9946 369.447 57.9968L365.252 65.4655C364.786 66.2968 363.843 66.7371 362.922 66.5506C359.014 65.8281 355.012 65.7038 351.064 66.2114C350.059 66.3279 349.105 65.753 348.745 64.7974L346.052 57.6731C345.638 56.588 344.493 56.0079 343.389 56.2953L334.248 58.6546C333.167 58.9369 332.485 59.9986 332.674 61.0889L334.338 70.9998C334.483 71.8388 334.134 72.6883 333.447 73.1933C332.596 73.8096 331.766 74.4674 330.957 75.164C329.429 76.4796 328.033 77.8833 326.769 79.3594C326.2 80.0353 325.283 80.3072 324.448 80.0198L314.557 76.749C313.463 76.3942 312.295 76.9251 311.845 77.9765L308.13 86.6754C307.745 87.5973 308.035 88.672 308.808 89.2728C308.888 89.3324 308.976 89.4023 309.071 89.4489L317.344 94.1156C318.114 94.5455 318.561 95.3846 318.466 96.2599C318.46 96.3376 318.455 96.4127 318.432 96.4904C318.383 96.7183 318.336 96.9332 318.311 97.1689C317.799 99.8544 317.584 102.602 317.656 105.347C317.695 106.264 317.121 107.103 316.248 107.424L308.738 110.278C307.673 110.677 307.083 111.832 307.37 112.938L307.89 114.965L309.72 122.041C309.999 123.154 311.09 123.856 312.225 123.67L320.513 122.261C321.397 122.103 322.271 122.533 322.721 123.31C323.897 125.35 325.293 127.329 326.891 129.191C328.077 130.574 329.354 131.861 330.688 133.031L330.117 134.761L327.79 141.862C327.493 142.738 327.798 143.698 328.506 144.24C328.651 144.359 328.814 144.449 328.995 144.525L337.699 148.272C338.733 148.707 339.922 148.285 340.476 147.321L343.332 142.212C343.816 141.35 344.844 140.909 345.798 141.168C349.751 142.24 353.836 142.683 357.894 142.471C358.856 142.419 359.727 142.981 360.037 143.864L363.439 152.869C363.827 153.873 364.897 154.435 365.944 154.166L375.181 151.768C376.277 151.486 376.967 150.416 376.771 149.318L375.036 139.008C374.879 138.123 375.285 137.24 376.055 136.763C377.699 135.751 379.279 134.577 380.801 133.267C381.618 132.563 382.401 131.832 383.146 131.076C383.73 130.486 384.596 130.273 385.39 130.527L394.875 133.661C395.976 134.023 397.16 133.492 397.625 132.428L397.62 132.423ZM372.963 92.6369C377.236 98.9144 377.759 106.013 375.409 111.462C367.139 130.545 341.492 128.836 335.68 109.17C334.256 104.115 334.861 98.4819 338.498 92.9969C347.021 80.2891 364.789 80.6491 372.963 92.6395V92.6369Z" fill="#BDE5F0"/>
<path d="M294.972 294.928L305.719 276.468L305.972 276.028C307.267 273.772 306.678 270.916 304.602 269.38L290.28 258.773C290.042 258.597 289.825 258.408 289.631 258.203C288.284 256.76 287.84 254.627 288.651 252.785C293.266 241.859 295.667 230.156 295.696 218.301C295.704 217.808 295.781 217.332 295.91 216.884C296.42 215.18 297.823 213.823 299.589 213.377L314.045 209.905C315.945 209.433 317.383 207.9 317.809 206.069C317.923 205.507 317.972 204.899 317.897 204.28L315.113 182.637C314.777 179.978 312.43 177.986 309.725 178.113L289.967 178.976C288.021 179.056 286.208 178.012 285.304 176.277C283.965 173.796 282.543 171.372 280.966 168.992C278.008 164.522 274.72 160.425 271.158 156.691L271.145 156.67C269.656 155.109 269.278 152.843 270.199 150.895L278.794 132.713L279.216 131.793C280.343 129.468 279.479 126.611 277.215 125.293L258.382 114.282C256.081 112.958 253.139 113.546 251.557 115.688L239.766 131.654C238.458 133.433 236.16 134.171 234.097 133.477C225.315 130.69 216.151 129.25 206.93 129.279C204.585 129.258 202.556 127.663 202.002 125.358L197.856 108.204C197.217 105.593 194.751 103.923 192.13 104.267L170.435 107.054C167.871 107.391 165.997 109.638 166.116 112.2L167.095 135.466C167.188 137.436 166.141 139.286 164.414 140.252C162.282 141.425 160.185 142.696 158.122 144.066C154.229 146.653 150.615 149.479 147.29 152.506C145.789 153.899 143.601 154.257 141.763 153.355L119.96 142.984C117.548 141.855 114.71 142.74 113.373 145.022L102.332 163.95C101.179 165.96 101.536 168.516 103.144 170.119C103.312 170.279 103.493 170.463 103.702 170.598L121.38 183.71C123.029 184.919 123.815 186.978 123.342 188.962C123.306 189.138 123.272 189.311 123.2 189.479C123.024 189.992 122.853 190.469 122.726 191.007C120.78 197.036 119.495 203.29 118.872 209.622C118.699 211.741 117.14 213.504 115.038 213.991L96.9525 218.386C94.3881 218.997 92.7026 221.483 93.0438 224.107L93.6539 228.921L95.8332 245.713C96.1563 248.352 98.4623 250.278 101.122 250.18L120.586 249.331C122.667 249.224 124.546 250.462 125.361 252.381C127.478 257.41 130.12 262.362 133.258 267.104C135.588 270.623 138.157 273.956 140.887 277.028L139.077 280.84L131.687 296.495C130.751 298.421 131.18 300.716 132.653 302.166C132.953 302.482 133.302 302.736 133.695 302.961L152.631 314.084C154.883 315.381 157.742 314.757 159.288 312.698L167.325 301.775C168.683 299.934 171.177 299.216 173.297 300.084C182.076 303.691 191.344 305.882 200.733 306.563C202.959 306.724 204.797 308.265 205.262 310.383L210.497 332.067C211.1 334.488 213.4 336.086 215.887 335.77L237.814 332.919C240.413 332.59 242.31 330.327 242.176 327.745L241.149 303.539C241.043 301.454 242.23 299.543 244.138 298.67C248.212 296.813 252.18 294.573 256.053 291.999C258.136 290.616 260.142 289.16 262.071 287.635C263.586 286.446 265.638 286.206 267.389 287.016L288.295 296.953C290.722 298.103 293.594 297.225 294.972 294.915V294.928ZM249.709 196.345C252.4 201.599 254.29 207.566 255.184 214.227C255.391 215.638 255.45 217.236 255.437 218.914C255.287 226.147 253.116 234.903 249.923 240.331C225.432 281.821 166.951 270.502 159.236 223.607C159.12 222.835 159.001 222.063 158.906 221.276C157.965 213.95 160.281 202.669 163.959 196.28C165.893 192.932 168.052 189.92 170.36 187.232C193.606 160.469 234.353 166.421 249.709 196.342V196.345Z" fill="#BDE5F0"/>
<path d="M443.615 126.71C439.479 124.56 436.167 125.912 436.167 125.912C423.515 124.423 419.824 139.205 419.994 144.291C420.165 149.378 420.744 154.839 415.095 161.448C398.773 180.535 432.956 181.376 432.956 181.376C433.246 166.128 451.494 171.691 450.693 173.237C474.086 178.862 453.02 131.599 443.615 126.712V126.71Z" fill="#222222"/>
<path d="M394.808 190.285C394.808 190.285 392.582 186.892 390.79 186.825C388.996 186.758 385.677 185.828 385.943 186.494C386.209 187.159 388.267 187.226 388.466 187.625C388.665 188.024 385.411 188.622 384.48 188.69C383.549 188.757 381.357 188.69 381.424 189.156C381.492 189.622 385.374 191.551 388.115 191.285C390.855 191.018 394.242 192.082 394.242 192.082L394.805 190.285H394.808Z" fill="#FFC48E"/>
<path d="M426.988 191.38C426.988 191.38 425.778 193.778 423.586 196.537C420.941 199.854 416.864 203.687 411.746 204.443C409.3 204.803 406.909 204.277 404.712 203.298C404.707 203.298 404.704 203.298 404.704 203.298C398.487 200.535 393.813 194.177 393.813 194.177C392.717 191.184 394.511 189.153 394.511 189.153C394.511 189.153 407.064 191.981 408.259 191.383C409.453 190.785 416.428 170.657 418.087 168.13C419.749 165.6 425.408 164.287 425.408 164.287L426.988 191.383V191.38Z" fill="white"/>
<path d="M423.583 196.537C420.939 199.854 416.862 203.687 411.743 204.443C409.298 204.803 406.906 204.277 404.709 203.298C404.952 203.329 411.162 204.099 413.635 199.662C416.159 195.138 418.889 187.952 422.64 190.347C424.258 191.38 424.185 193.949 423.583 196.534V196.537Z" fill="#EEEEEE"/>
<path d="M473.82 327.123C473.82 327.123 477.652 330.625 476.905 333.113C476.157 335.602 472.701 337.259 472.233 340.302C471.765 343.343 469.899 345.003 468.216 345.003H460.199C460.199 345.003 458.961 342.864 461.952 342.219C464.941 341.574 466.068 338 465.882 334.683C465.695 331.365 466.161 326.942 466.161 326.942L472.512 325.468L473.82 327.128V327.123Z" fill="#222222"/>
<path d="M441.4 328.61C441.4 328.61 442.778 343.444 441.098 344.275L419.576 344.231C419.576 344.231 419.576 341.742 423.033 341.19C426.489 340.639 432.561 338.611 433.59 334.095C434.619 329.578 441.4 328.612 441.4 328.612V328.61Z" fill="#222222"/>
<path d="M456.735 222.183C452.307 212.233 449.597 209.376 450.114 206.289C450.5 203.99 448.941 163.437 448.941 163.437C448.416 163.274 447.361 163.129 446.787 163C444.97 162.596 443.468 161.316 442.842 159.563C442.088 157.447 441.49 154.327 441.503 150.414L440.937 150.525L431.398 152.418C431.398 152.418 431.615 155.425 431.62 158.258C431.62 158.281 431.62 158.304 431.62 158.328C431.631 160.788 430.02 162.961 427.66 163.642C426.455 163.991 425.406 164.289 425.406 164.289C425.406 164.289 421.903 174.306 421.233 184.598C420.564 194.889 427.603 199.359 421.179 219.924C414.623 240.927 459.178 227.683 456.732 222.185L456.735 222.183Z" fill="#FFC48E"/>
<path d="M431.398 152.415C431.398 152.415 431.615 155.422 431.62 158.255C436.959 158.105 439.779 153.226 440.935 150.522L431.396 152.415H431.398Z" fill="#E8945B"/>
<path d="M429.615 155.098C429.615 155.098 442.243 155.308 442.253 147.428C442.261 139.547 443.897 134.267 435.834 133.801C427.771 133.334 426.202 136.338 425.561 138.97C424.92 141.598 426.331 154.842 429.617 155.101L429.615 155.098Z" fill="#FFC48E"/>
<path d="M430.082 133.606C430.082 133.606 433.541 142.852 438.846 144.219C444.153 145.586 446.454 144.162 446.454 144.162C446.454 144.162 442.382 140.922 441.539 135.269C441.539 135.269 432.69 129.206 430.082 133.606Z" fill="#222222"/>
<path d="M430.937 134.355C430.937 134.355 428.373 135.316 427.318 137.188C426.287 139.019 425.408 141.445 425.612 144.424C425.612 144.424 423.006 138.138 425.935 134.585C429.04 130.815 430.94 134.355 430.94 134.355H430.937Z" fill="#222222"/>
<path d="M432.362 150.209C432.362 150.209 431.491 151.359 429.748 151.276C428.345 151.209 427.802 149.989 427.802 149.989C427.802 149.989 430.382 149.367 432.362 150.209Z" fill="#EBF3FA"/>
<path d="M457.955 181.376C457.955 181.376 458.276 185.906 457.955 191.341C457.741 194.944 454.103 199.771 453.589 200.965C452.294 203.959 450.833 204.445 450.833 204.445L439.533 207.219L435.56 208.193L423.032 204.445C423.032 204.445 417.324 188.49 419.617 179.506C421.908 170.525 425.411 164.287 425.411 164.287C425.411 164.287 435.635 174.314 448.946 163.437L457.958 181.379L457.955 181.376Z" fill="white"/>
<path d="M454.649 192.81C454.437 196.412 454.106 199.768 453.589 200.962C452.294 203.956 450.833 204.443 450.833 204.443L439.534 207.217L434.627 205.771C434.627 205.771 451.009 203.285 449.194 189.164L454.649 192.807V192.81Z" fill="#F2CCAA"/>
<path d="M423.826 206.867C423.826 206.867 417.621 226.215 417.223 232.8C416.825 239.386 429.084 326.372 429.578 329.407C430.043 332.269 433.59 334.092 433.59 334.092C433.59 334.092 435.221 335.056 437.548 334.398C440.777 333.484 441.798 332.391 441.798 332.391C441.798 332.391 446.627 270.354 443.638 248.191C440.65 226.031 440.614 206.867 440.614 206.867H423.826Z" fill="#D8AE45"/>
<path d="M450.115 206.289C450.115 206.289 459.579 219.01 460.46 227.611C461.342 236.211 461.843 266.418 463.723 274.8C465.602 283.183 472.51 299.317 472.51 325.466C472.51 325.466 471.791 326.965 469.576 327.763C468.867 328.019 467.916 328.265 466.996 328.478C465.168 328.897 463.291 328.004 462.459 326.32C457.79 316.902 442.915 286.527 442.152 280.223C441.612 275.761 436.917 246.231 426.673 228.9C424.214 224.741 428.182 208.195 428.182 208.195L450.115 206.292V206.289Z" fill="#F5CF68"/>
<path d="M432.083 150.419C432.083 150.419 431.865 151.348 429.557 151.203C429.557 151.203 427.621 151.084 427.68 150.064C427.68 150.064 429.557 149.339 432.083 150.419Z" fill="white"/>
<path d="M422.835 203.878C422.835 203.878 425.328 205.852 430.276 205.953C436.185 206.072 450.833 204.443 450.833 204.443C450.833 204.443 451.484 206.264 451.456 208.188C451.456 208.188 433.569 212.707 423.205 208.848C423.205 208.848 421.869 206.328 422.838 203.878H422.835Z" fill="#233862"/>
<path d="M428.856 211.054C427.37 211.054 426.16 209.682 426.16 207.996C426.16 206.31 427.37 204.938 428.856 204.938C430.343 204.938 431.553 206.31 431.553 207.996C431.553 209.682 430.343 211.054 428.856 211.054ZM428.856 205.834C427.861 205.834 427.055 206.805 427.055 207.996C427.055 209.187 427.864 210.158 428.856 210.158C429.849 210.158 430.658 209.187 430.658 207.996C430.658 206.805 429.849 205.834 428.856 205.834Z" fill="white"/>
<path d="M448.241 182.23L429.915 198.217L451.759 223.346L470.085 207.359L448.241 182.23Z" fill="#21A7CC"/>
<path d="M446.697 207.437C446.697 207.437 439.983 208.224 440.004 209.819C440.025 211.417 441.677 214.696 442.506 214.841C443.336 214.986 447.971 210.405 447.971 210.405L446.697 207.434V207.437Z" fill="#FFC48E"/>
<path d="M448.943 163.435C448.943 163.435 457.909 164.064 461.344 172.434C464.78 180.801 471.3 194.853 471.3 197.218C471.3 199.582 467.657 206.867 448.098 211.057C448.098 211.057 446.074 208.926 446.198 207.24C446.198 207.24 458.408 196.733 458.374 195.506C458.312 193.183 456.373 190.117 445.653 179.374C442.739 176.453 448.941 163.437 448.941 163.437L448.943 163.435Z" fill="white"/>
<path d="M263.175 344.485H263.082C262.536 344.485 262.099 344.034 262.11 343.49L263.583 279.566L267.921 279.058L264.224 343.493C264.193 344.05 263.733 344.485 263.177 344.485H263.175Z" fill="#CCCCCC"/>
<path d="M237.902 344.485H237.809C237.264 344.485 236.827 344.034 236.837 343.49L238.311 279.566L242.648 279.058L238.949 343.493C238.918 344.05 238.458 344.485 237.902 344.485Z" fill="#AAAAAA"/>
<path d="M307.639 344.485H307.732C308.277 344.485 308.714 344.034 308.704 343.49L307.23 279.566L302.893 279.058L306.589 343.493C306.62 344.05 307.081 344.485 307.636 344.485H307.639Z" fill="#CCCCCC"/>
<path d="M235.03 275.601V231.798C235.03 224.091 241.268 217.842 248.962 217.842H280.464C288.158 217.842 294.396 224.091 294.396 231.798V277.276L235.03 275.603V275.601Z" fill="#CCCCCC"/>
<path d="M235.03 275.601H300.039V282.515H239.213C236.905 282.515 235.03 280.638 235.03 278.325V275.601Z" fill="#AAAAAA"/>
<path d="M261.311 275.601H307.329C309.035 275.601 310.421 276.989 310.421 278.698V279.415C310.421 281.125 309.035 282.513 307.329 282.513H261.311C259.604 282.513 258.219 281.125 258.219 279.415V278.698C258.219 276.989 259.604 275.601 261.311 275.601Z" fill="#CCCCCC"/>
<path d="M305.542 264.688C301.029 272.555 295.352 275.593 295.352 275.593H271.736C271.736 275.593 308.983 258.685 305.54 264.688H305.542Z" fill="#09234C"/>
<path d="M287.406 325.569C286.791 326.276 286.713 327.066 287.015 327.908C287.015 327.91 287.015 327.916 287.021 327.918C287.584 329.477 289.445 331.218 291.607 332.958C291.883 333.181 292.129 333.385 292.343 333.572C292.4 333.621 292.457 333.67 292.509 333.719C292.553 333.758 292.594 333.797 292.636 333.833C294.652 335.695 293.892 336.12 297.514 339.898C301.642 344.202 304.486 344.28 305.295 343.886C305.98 343.552 304.589 341.271 303.048 338.704C302.974 338.58 302.901 338.456 302.824 338.331C302.619 337.99 302.415 337.645 302.211 337.301C300.406 334.214 300.869 332.764 301.298 328.169C301.645 324.435 307.097 307.309 307.097 307.309L299.184 305.944C299.184 305.944 296.8 319.582 294.176 321.682C292.773 322.801 291.201 322.816 289.851 323.645C289.756 323.702 289.663 323.762 289.57 323.824C288.802 324.334 288.021 324.86 287.403 325.567L287.406 325.569Z" fill="#FFC48E"/>
<path d="M287.406 325.569C286.791 326.276 286.713 327.066 287.015 327.908C287.015 327.91 287.015 327.916 287.021 327.918C287.711 329.475 289.523 331.207 291.614 332.942C291.888 333.17 292.129 333.377 292.343 333.572C292.4 333.621 292.457 333.67 292.509 333.719C292.553 333.758 292.594 333.797 292.636 333.833C294.652 335.695 293.892 336.12 297.514 339.898C301.642 344.202 304.486 344.28 305.295 343.886C305.98 343.552 304.589 341.271 303.048 338.704C302.245 338.409 298.512 336.889 295.689 333.271C293.202 330.094 291.545 326.01 289.851 323.645C289.756 323.702 289.663 323.762 289.57 323.824C288.802 324.334 288.021 324.86 287.403 325.567L287.406 325.569Z" fill="#222222"/>
<path d="M351.207 320.618C351.695 323.065 355.177 322.656 359.065 321.705C362.956 320.752 362.031 321.884 367.565 321.27C373.1 320.657 374.778 318.59 374.946 317.764C375.099 317.031 372.361 316.775 369.427 316.435C369.057 316.394 368.687 316.347 368.318 316.303C365.006 315.886 362.579 313.745 359.57 311.986C356.721 310.321 352.466 303.533 352.466 303.533L344.873 304.137C344.873 304.137 348.857 310.199 350.398 312.833C351.305 314.384 351.256 316.433 351.142 318.015C351.083 318.875 351.028 319.755 351.201 320.618H351.207Z" fill="#FFC48E"/>
<path d="M359.068 321.705C362.959 320.752 362.033 321.884 367.568 321.27C373.103 320.657 374.78 318.59 374.948 317.764C375.101 317.031 372.363 316.775 369.429 316.435L369.401 316.492C369.401 316.492 366.081 318.852 361.472 318.96C357.716 319.051 353.737 317.974 351.144 318.015C351.085 318.875 351.031 319.755 351.204 320.618C351.692 323.065 355.175 322.656 359.063 321.705H359.068Z" fill="#222222"/>
<path d="M322.114 271.988L315.017 291.118L305.752 316.099C305.752 316.099 303.237 316.342 300.83 315.648C298.612 315.006 296.068 313.328 296.068 313.328C296.068 313.328 298.641 286.506 303.441 271.11C304.672 267.158 306.05 263.962 307.57 262.163C315.01 253.355 322.114 271.988 322.114 271.988Z" fill="#09234C"/>
<path d="M314.898 241.605C310.248 240.103 296.989 242.033 283.667 244.643L280.878 240.033L252.105 237.783C252.105 237.783 242.61 258.876 247.809 272.317C248.574 274.293 250.091 275.559 252.679 275.601C252.679 275.601 253.098 275.601 253.101 275.601C253.101 275.601 270.227 275.59 275.788 275.59C290.097 275.59 306.07 265.736 308.138 265.322C311.52 264.644 312.874 271.421 316.256 278.537C319.637 285.654 348.05 310.049 348.05 310.049C348.05 310.049 352.417 310.093 354.221 309.415C356.16 308.687 356.871 307.739 356.871 307.739C356.871 307.739 325.389 244.993 314.904 241.603L314.898 241.605Z" fill="#12326E"/>
<path d="M279.746 156.106C276.059 154.166 270.452 153.905 269.54 153.783C258.636 152.314 252.074 168.187 251.689 172.996C250.978 181.861 246.297 183.212 239.707 188.762C226.497 199.893 230.37 212.828 237.595 217.635C241.93 220.517 249.569 217.635 249.569 217.635C249.678 217.71 270.463 205.994 280.71 200.343C296.071 198.155 289.14 161.05 279.748 156.108L279.746 156.106Z" fill="#222222"/>
<path d="M272.12 195.529C272.163 195.558 267.078 197.298 263.676 195.788C260.476 194.371 258.054 189.099 258.1 189.096C259.556 189.029 261.153 187.755 262.384 179.39L263.004 179.613L273.425 183.368C273.425 183.368 272.67 186.716 272.182 189.907C271.771 192.585 271.548 195.148 272.12 195.529Z" fill="#FFC48E"/>
<path d="M273.425 183.37C273.425 183.37 272.67 186.719 272.181 189.909C266.197 188.829 263.847 182.855 263.004 179.615L273.425 183.37Z" fill="#ED975D"/>
<path d="M274.979 186.696C274.979 186.696 260.722 184.779 262.05 175.902C263.379 167.027 262.433 160.801 271.592 161.648C280.751 162.497 282.01 166.149 282.284 169.22C282.561 172.292 278.722 186.965 274.979 186.696Z" fill="#FFC48E"/>
<path d="M281.765 164.354C281.765 164.354 272.639 172.232 266.43 172.869C260.223 173.503 257.87 171.507 257.87 171.507C257.87 171.507 261.531 168.464 263.731 163.551C264.38 162.104 265.75 161.109 267.329 160.974C271.763 160.591 280.164 160.415 281.762 164.354H281.765Z" fill="#222222"/>
<path d="M276.06 163.65C276.06 163.65 279.113 166.607 280.074 168.801C281.002 170.916 281.282 175.979 280.542 177.991C280.542 177.991 285.299 168.725 282.605 164.222C279.749 159.449 276.06 163.65 276.06 163.65Z" fill="#222222"/>
<path d="M284.125 216.571C283.693 245.482 284.006 239.44 280.85 242.186C280.089 242.846 277.949 243.24 275.136 243.426C266.287 244.014 250.73 242.553 250.138 240.917C248.096 235.248 249.538 233.487 247.835 224.808C247.656 223.887 247.437 222.887 247.181 221.799C245.761 215.838 244.378 213.81 249.417 204.233C253.985 195.558 258.731 188.519 259.158 188.773C271.21 195.941 272.182 189.915 272.182 189.915C272.182 189.915 284.337 202.472 284.125 216.573V216.571Z" fill="white"/>
<path d="M315.017 291.118L305.752 316.099C305.752 316.099 303.237 316.342 300.83 315.648C298.612 315.006 296.068 313.328 296.068 313.328C296.068 313.328 298.641 286.506 303.441 271.11L315.017 291.121V291.118Z" fill="#12326E"/>
<path d="M272.182 189.909C272.182 189.909 284.585 192.015 286.041 197.365C287.496 202.716 296.068 234.163 296.068 234.163C296.068 234.163 289.763 235.297 286.85 232.378C283.936 229.46 276.716 205.308 276.716 205.308L272.184 189.909H272.182Z" fill="white"/>
<path d="M275.137 243.423C266.288 244.011 250.73 242.551 250.138 240.914C248.096 235.245 249.539 233.484 247.835 224.806L252.103 212.766C252.103 212.766 251.397 226.173 255.345 229.7C259.287 233.228 271.505 236.509 273.425 239.456C274.351 240.87 274.958 242.289 275.137 243.426V243.423Z" fill="#EBF3FF"/>
<path d="M264.997 237.785C264.997 237.785 273.727 235.838 275.136 236.615C276.545 237.392 279.988 240.217 280.42 241.201C280.852 242.185 277.284 240.455 276.124 240.142C275.371 239.94 273.394 240.629 272.414 240.955C268.293 242.33 265.767 241.623 265.767 241.623L264.997 237.785Z" fill="#FFC48E"/>
<path d="M259.15 188.762C259.15 188.762 247.426 189.485 243.367 195.156C237.654 203.138 226.321 237.156 232.817 241.691C240.131 246.8 266.106 243.027 266.106 243.027C266.106 243.027 266.97 238.979 265.768 237.022C264.566 235.064 245.022 231.902 244.12 230.998C243.217 230.094 255.396 213.377 255.396 210.666C255.396 207.955 259.15 188.76 259.15 188.76V188.762Z" fill="white"/>
<path d="M275.558 239.047C275.558 239.047 277.388 241.411 277.988 241.693C278.587 241.976 278.975 241.906 278.975 241.906L277.742 239.684L275.558 239.049V239.047Z" fill="#FFC48E"/>
<path d="M275.136 236.612L280.453 239.2C280.453 239.2 280.226 239.57 279.572 239.541C278.918 239.51 277.266 238.907 277.266 238.907L275.136 236.612Z" fill="#FFC48E"/>
<path d="M277.987 245.316H320.061L332.715 213.787H290.709L277.987 245.316Z" fill="#F5CF68"/>
<path d="M320.554 244.086H264.997V245.316H320.061L320.554 244.086Z" fill="#D8AE45"/>
<path d="M309.438 229.55C309.756 228.442 309.115 227.543 308.008 227.543C306.902 227.543 305.749 228.442 305.431 229.55C305.113 230.659 305.754 231.557 306.861 231.557C307.967 231.557 309.12 230.659 309.438 229.55Z" fill="white"/>
<path d="M450.57 344.485H450.699C451.452 344.485 452.056 343.863 452.041 343.11L450.006 254.803L444.017 254.103L449.125 343.117C449.169 343.886 449.805 344.487 450.573 344.487L450.57 344.485Z" fill="#21A7CC"/>
<path d="M156.016 344.485H155.889C155.137 344.485 154.532 343.863 154.547 343.11L156.582 254.803L162.571 254.103L157.463 343.117C157.419 343.886 156.783 344.487 156.016 344.487V344.485Z" fill="#21A7CC"/>
<path d="M150.034 245.77H455.789C458.012 245.77 459.819 247.577 459.819 249.807V252.392C459.819 254.619 458.015 256.426 455.789 256.426H150.034C147.81 256.426 146.006 254.619 146.006 252.392V249.807C146.006 247.58 147.81 245.772 150.034 245.772V245.77Z" fill="#21A7CC"/>
<path d="M405.417 30.6493C405.417 38.0456 408.033 44.8281 412.387 50.124C416.153 54.7027 418.244 60.4337 418.244 66.3642V74.918C418.244 80.3564 422.686 84.8056 428.115 84.8056H443.91C449.339 84.8056 453.78 80.3564 453.78 74.918V66.3486C453.78 60.4052 455.902 54.6794 459.666 50.0852C464.038 44.7504 466.649 37.9135 466.605 30.4629C466.507 13.5598 452.885 0 436.012 0C434.138 0 432.302 0.170922 430.519 0.494637C430.123 0.567149 429.733 0.64484 429.343 0.732891C415.652 3.78099 405.417 16.0174 405.417 30.6493Z" fill="#F5CF68"/>
<path d="M443.853 84.803L443.82 85.0671L443.385 88.4001L443.272 89.278V89.2858L443.155 90.1689L442.724 93.4993L442.61 94.3772V94.3849L442.494 95.2706L442.429 95.7575C442.209 97.4486 440.281 98.7383 437.972 98.7383H432.773C432.223 98.7383 431.698 98.6658 431.209 98.5311C430.77 98.4094 430.364 98.2384 430 98.0261L429.971 98.0106C429.676 97.837 429.41 97.6351 429.185 97.4097C428.72 96.9488 428.412 96.3972 428.324 95.7886L428.141 94.4963L428.025 93.6831V93.665L427.911 92.8674L427.469 89.7778L427.352 88.9673V88.9491L427.236 88.1489L426.758 84.803H443.859H443.853Z" fill="#12326E"/>
<path d="M441.79 84.803H438.854C434.112 86.1755 429.41 87.5325 427.233 88.1489L427.347 88.9491V88.9673L427.466 89.7778C429.232 89.2884 433.466 88.0738 443.82 85.0671L443.853 84.803H441.79Z" fill="#21A7CC"/>
<path d="M428.02 93.6624V93.6806L428.136 94.4963C430.176 93.9214 434.387 92.712 443.153 90.1663L443.269 89.2832V89.2754L443.383 88.3975C437.843 90.0031 431.137 91.9454 427.903 92.8648L428.017 93.6598L428.02 93.6624Z" fill="#21A7CC"/>
<path d="M429.971 98.0105L430 98.0261C430.364 98.2384 430.77 98.4093 431.209 98.5311C433.614 97.8396 437.184 96.8089 442.491 95.268L442.605 94.3823V94.3746L442.721 93.4966C437.98 94.8718 432.541 96.4463 429.183 97.4071C429.41 97.6324 429.674 97.8344 429.969 98.0079L429.971 98.0105Z" fill="#21A7CC"/>
<path d="M424.578 45.5077L423.215 45.739L429.842 84.9487L431.206 84.7174L424.578 45.5077Z" fill="white"/>
<path d="M447.26 46.0924L440.211 84.6833L441.571 84.9327L448.621 46.3418L447.26 46.0924Z" fill="white"/>
<path d="M439.663 52.706C439.485 52.706 439.288 52.6827 439.066 52.6335C438.696 52.548 438.461 52.2916 438.388 51.8902C438.231 51.0253 438.908 49.4352 439.862 48.0885C439.366 47.2184 438.701 46.4984 438.006 46.2887C436.979 45.9753 435.403 46.9257 434.304 48.1403C434.506 48.4252 434.686 48.723 434.844 49.0208C435.405 50.0852 435.811 51.4448 435.258 52.0741C435.054 52.3072 434.635 52.5195 433.805 52.2062C432.768 51.8151 432.396 50.9346 432.781 49.7926C432.97 49.2332 433.319 48.6505 433.764 48.1092C432.913 46.9983 431.778 46.154 430.659 46.2964C430.062 46.3715 429.547 46.5813 429.121 46.8765C429.837 48.2102 430.002 49.9039 429.506 50.8129C429.167 51.4319 428.575 51.6287 427.841 51.3671C427.314 51.1781 427.037 50.4504 427.138 49.5129C427.241 48.5521 427.72 47.5007 428.573 46.7704C428.35 46.4233 428.084 46.1152 427.776 45.8769C425.848 44.3775 424.253 45.9857 424.186 46.0556L423.886 45.763C423.904 45.7422 425.814 43.8181 428.035 45.5454C428.371 45.807 428.663 46.1411 428.906 46.5166C429.379 46.1929 429.945 45.965 430.607 45.8821C431.861 45.7241 433.115 46.6098 434.043 47.7907C435.237 46.4907 436.938 45.5299 438.125 45.8899C438.874 46.1178 439.583 46.8429 440.123 47.7363C440.627 47.0811 441.188 46.5114 441.734 46.1514C442.607 45.5713 443.176 45.7034 443.499 45.9183C443.833 46.1359 444.115 46.4311 444.347 46.7678C444.611 46.558 444.887 46.3793 445.159 46.2447C446.172 45.7397 447.1 45.7759 447.778 46.3482L447.506 46.6694C446.777 46.0504 445.839 46.3741 445.345 46.6202C445.074 46.7548 444.81 46.9283 444.567 47.1252C445.242 48.3423 445.371 49.9298 444.986 50.699C444.743 51.1832 444.308 51.3516 443.802 51.1651C442.887 50.8285 442.664 50.1992 442.638 49.7278C442.589 48.8292 443.21 47.8037 444.024 47.0501C443.815 46.7367 443.561 46.4648 443.269 46.2731C442.874 46.0116 442.341 46.255 441.964 46.5062C441.418 46.8662 440.849 47.4618 440.345 48.1351C440.974 49.3316 441.299 50.7275 441.061 51.6261C440.945 52.0638 440.614 52.7138 439.663 52.7138V52.706ZM440.079 48.5003C439.249 49.7123 438.668 51.0822 438.799 51.8151C438.841 52.0482 438.957 52.1777 439.159 52.2243C439.978 52.4108 440.482 52.1699 440.658 51.5121C440.86 50.7508 440.596 49.5595 440.079 48.5003ZM434.025 48.4692C433.642 48.9483 433.34 49.4533 433.179 49.9272C432.861 50.8647 433.122 51.4992 433.952 51.8126C434.286 51.9394 434.73 52.0379 434.942 51.797C435.271 51.4241 435.079 50.3623 434.472 49.2176C434.338 48.9639 434.188 48.7127 434.022 48.4692H434.025ZM428.79 47.1407C428.058 47.7933 427.647 48.7152 427.557 49.5595C427.479 50.2743 427.655 50.8569 427.983 50.9735C428.516 51.1625 428.906 51.0434 429.139 50.6135C429.565 49.834 429.41 48.3371 428.79 47.1407ZM444.244 47.4074C443.517 48.1067 443.021 49.0053 443.06 49.6967C443.088 50.1992 443.386 50.5565 443.949 50.7637C444.259 50.8777 444.469 50.7948 444.616 50.5047C444.939 49.8599 444.802 48.4822 444.244 47.41V47.4074Z" fill="white"/>
<path d="M410.376 245.77H368.305L355.648 214.242H397.657L410.376 245.77Z" fill="#12326E"/>
<path d="M367.812 244.542H423.369V245.77H368.305L367.812 244.542Z" fill="#12326E"/>
<path d="M378.925 230.006C378.607 228.898 379.248 227.999 380.355 227.999C381.461 227.999 382.614 228.898 382.932 230.006C383.25 231.114 382.609 232.013 381.503 232.013C380.396 232.013 379.243 231.114 378.925 230.006Z" fill="white"/>
</g>
<g clip-path="url(#clip2_640_400)">
<path d="M569.189 340.258H0.811007C0.3631 340.258 0 340.981 0 341.873V343.385C0 344.277 0.3631 345 0.811007 345H569.189C569.637 345 570 344.277 570 343.385V341.873C570 340.981 569.637 340.258 569.189 340.258Z" fill="#2E3552"/>
</g>
<defs>
<clipPath id="clip0_640_400">
<rect width="562.875" height="343.814" fill="white" transform="translate(4 1.18555)"/>
</clipPath>
<clipPath id="clip1_640_400">
<rect width="384" height="345" fill="white" transform="translate(93)"/>
</clipPath>
<clipPath id="clip2_640_400">
<rect width="570" height="4.74227" fill="white" transform="translate(0 340.258)"/>
</clipPath>
</defs>
</svg>
