<svg width="36" height="36" viewBox="0 0 36 36" fill="none" xmlns="http://www.w3.org/2000/svg">
<path d="M17.9999 22.95C17.7999 22.95 17.6124 22.9125 17.4374 22.8375C17.2624 22.7625 17.0999 22.65 16.9499 22.5L9.52494 15.075C9.24994 14.8 9.11869 14.45 9.13119 14.025C9.14369 13.6 9.28744 13.25 9.56244 12.975C9.88744 12.65 10.2437 12.5062 10.6312 12.5437C11.0187 12.5812 11.3624 12.7375 11.6624 13.0125L17.9999 19.35L24.3374 13.0125C24.6124 12.7375 24.9687 12.5875 25.4062 12.5625C25.8437 12.5375 26.1999 12.6875 26.4749 13.0125C26.7999 13.2875 26.9437 13.6312 26.9062 14.0437C26.8687 14.4562 26.7124 14.8125 26.4374 15.1125L19.0499 22.5C18.8999 22.65 18.7374 22.7625 18.5624 22.8375C18.3874 22.9125 18.1999 22.95 17.9999 22.95Z" fill="#21A7CC"/>
</svg>
