<svg width="370" height="168" viewBox="0 0 370 168" fill="none" xmlns="http://www.w3.org/2000/svg">
<g clip-path="url(#clip0_1626_877)">
<path d="M316.872 69.3973H239.21C232.233 69.3973 226.58 75.0463 226.58 82.0189V124.365C226.58 127.938 228.069 131.165 230.458 133.457C230.441 133.587 230.432 133.725 230.432 133.855V141.027C230.432 142.497 231.324 142.895 232.432 141.926L238.085 136.926C238.457 136.961 238.838 136.978 239.219 136.978H316.881C323.858 136.978 329.511 131.329 329.511 124.356V82.0103C329.511 75.0377 323.858 69.3887 316.881 69.3887L316.872 69.3973Z" fill="#00A5CF"/>
<path d="M203.76 0H138.564C130.962 0 124.799 6.15828 124.799 13.7549V154.245C124.799 161.842 130.962 168 138.564 168H203.76C211.362 168 217.524 161.842 217.524 154.245V13.7549C217.524 6.15828 211.362 0 203.76 0Z" fill="#262626"/>
<path d="M151.913 5.95185V7.74259C151.913 10.3638 154.043 12.4919 156.666 12.4919H185.658C188.281 12.4919 190.411 10.3638 190.411 7.74259V5.95185C190.411 5.25113 190.982 4.68018 191.683 4.68018H203.275C208.538 4.68018 212.815 8.94506 212.815 14.2134V153.025C212.815 158.285 208.547 162.559 203.275 162.559H139.057C133.794 162.559 129.517 158.294 129.517 153.025V14.2134C129.517 8.95371 133.785 4.68018 139.057 4.68018H150.649C151.35 4.68018 151.922 5.25113 151.922 5.95185H151.913Z" fill="#E7F5FE"/>
<path d="M348.366 6.2373H249.14C237.193 6.2373 227.506 15.9176 227.506 27.8558V30.2435C227.506 36.4289 230.103 42.0087 234.276 45.9448C234.137 46.3774 234.068 46.8359 234.068 47.3203V59.5267C234.068 62.0441 235.6 62.7362 237.487 61.0665L247.928 51.8361C248.335 51.862 248.733 51.8707 249.148 51.8707H348.375C360.322 51.8707 370.009 42.1903 370.009 30.2521V27.8645C370.009 15.9263 360.322 6.24596 348.375 6.24596L348.366 6.2373Z" fill="#F5F5F7"/>
<path d="M46.0379 104.831H90.9157C104.438 104.831 115.398 115.783 115.398 129.296V132.004C115.398 139.002 112.454 145.317 107.736 149.781C107.892 150.274 107.97 150.793 107.97 151.33V165.137C107.97 167.991 106.239 168.77 104.1 166.875L92.2836 156.425C91.8247 156.451 91.3659 156.468 90.9071 156.468H46.0292C32.507 156.468 21.5472 145.516 21.5472 132.004V129.296C21.5472 115.783 32.507 104.831 46.0292 104.831H46.0379Z" fill="#F5F5F7"/>
<path d="M204.712 71.3179V99.5024C204.712 100.956 204.193 102.279 203.327 103.3L177.607 90.8861L175.287 89.7702L180.49 84.571L181.814 83.2388C182.247 82.8149 182.602 82.3391 182.888 81.8373H182.896L204.703 71.3092L204.712 71.3179Z" fill="#B4B4B5"/>
<path d="M204.712 66.5253V71.3092L182.905 81.8287H182.897C184.412 79.2334 184.048 75.8509 181.823 73.6276C179.165 70.9718 174.863 70.9718 172.205 73.6276L170.881 74.9512L169.556 73.6276C166.899 70.9718 162.596 70.9718 159.938 73.6276C158.631 74.9253 157.973 76.6295 157.947 78.3424C157.93 79.5535 158.233 80.756 158.865 81.8373H158.856L137.049 71.3092V66.5253C137.049 63.2725 139.69 60.6254 142.953 60.6254H198.826C202.081 60.6254 204.73 63.2639 204.73 66.5253H204.712Z" fill="#E5E4DF"/>
<path d="M177.607 90.8861L203.327 103.3C202.236 104.58 200.626 105.394 198.808 105.394H142.936C141.126 105.394 139.508 104.58 138.417 103.3L164.137 90.8861L166.448 89.7701L167.556 90.8775L170.872 94.1821L175.287 89.7701L177.607 90.8861Z" fill="#E5E4DF"/>
<path d="M181.823 73.6363C184.048 75.8595 184.411 79.242 182.896 81.846L170.872 87.642L158.847 81.846C158.215 80.7732 157.912 79.5621 157.93 78.351C157.956 76.6381 158.614 74.9339 159.921 73.6363C162.578 70.9805 166.881 70.9805 169.539 73.6363L170.863 74.9599L172.188 73.6363C174.845 70.9805 179.157 70.9805 181.806 73.6363H181.823Z" fill="#E20613"/>
<path d="M170.88 87.642L182.905 81.8459C182.619 82.3477 182.256 82.8235 181.832 83.2474L180.507 84.5796L175.304 89.7788L170.889 87.6507L170.88 87.642Z" fill="#E20613"/>
<path d="M170.881 87.6421L175.296 89.7702L170.881 94.1822L167.565 90.8775L166.457 89.7702L170.881 87.6421Z" fill="#E20613"/>
<path d="M170.881 87.642L166.457 89.7701L159.929 83.2474C159.497 82.8235 159.142 82.3477 158.856 81.8459L170.881 87.642Z" fill="#E20613"/>
<path d="M159.929 83.2474L166.457 89.7702L164.145 90.8861L138.425 103.3C137.56 102.271 137.04 100.947 137.04 99.5024V71.3179L158.847 81.8373H158.856C159.142 82.3477 159.505 82.8149 159.929 83.2474Z" fill="#B4B4B5"/>
<path d="M14.1628 15.1304H101.235C109.052 15.1304 115.398 21.4628 115.398 29.2832V76.7592C115.398 80.7645 113.736 84.3806 111.052 86.9586C111.078 87.1056 111.087 87.2527 111.087 87.4084V95.4537C111.087 97.1061 110.082 97.5559 108.844 96.4572L102.507 90.8515C102.092 90.8861 101.668 90.912 101.235 90.912H14.1628C6.33692 90.9034 0 84.5709 0 76.7505V29.2745C0 21.4628 6.33692 15.1217 14.1628 15.1217V15.1304Z" fill="#15A6CF"/>
<path d="M70.6756 80.2109H90.9417V75.998H70.6756V80.2109Z" fill="#E5E4DF"/>
<path d="M86.6565 25.0443H28.8191V75.6346C28.8191 78.1607 30.8708 80.2109 33.3986 80.2109H86.6565V25.0443Z" fill="#E5E4DF"/>
<path d="M90.933 80.2109C88.5697 80.2109 86.6478 78.2904 86.6478 75.9288V47.4587H95.2096V75.9288C95.2096 78.2904 93.2877 80.2109 90.9244 80.2109H90.933Z" fill="#757575"/>
<path d="M50.3836 35.5637H31.1045V40.14H50.3836V35.5637Z" fill="#B4B4B5"/>
<path d="M84.371 35.5637H65.0919V40.14H84.371V35.5637Z" fill="#B4B4B5"/>
<path d="M50.3836 32.0947H31.1045V33.4789H50.3836V32.0947Z" fill="#757575"/>
<path d="M84.371 32.0947H65.0919V33.4789H84.371V32.0947Z" fill="#757575"/>
<path d="M50.3836 42.2163H31.1045V43.6005H50.3836V42.2163Z" fill="#757575"/>
<path d="M65.0919 47.9604H50.3058V49.3446H65.0919V47.9604Z" fill="#B4B4B5"/>
<path d="M65.0919 52.3032H50.3058V53.6874H65.0919V52.3032Z" fill="#B4B4B5"/>
<path d="M84.3623 47.9604H69.5762V49.3446H84.3623V47.9604Z" fill="#B4B4B5"/>
<path d="M84.3623 52.3032H69.5762V53.6874H84.3623V52.3032Z" fill="#B4B4B5"/>
<path d="M45.8906 52.3032H31.1045V53.6874H45.8906V52.3032Z" fill="#B4B4B5"/>
<path d="M65.0919 56.646H50.3058V58.0301H65.0919V56.646Z" fill="#B4B4B5"/>
<path d="M84.3623 60.9801H69.5762V62.3642H84.3623V60.9801Z" fill="#B4B4B5"/>
<path d="M84.3623 65.3228H69.5762V66.7069H84.3623V65.3228Z" fill="#B4B4B5"/>
<path d="M84.3623 69.6655H69.5762V71.0497H84.3623V69.6655Z" fill="#B4B4B5"/>
<path d="M84.3623 73.9996H69.5762V75.3838H84.3623V73.9996Z" fill="#B4B4B5"/>
<path d="M45.8906 56.646H31.1045V58.0301H45.8906V56.646Z" fill="#B4B4B5"/>
<path d="M45.7348 47.9604H31.1045V50.4519H45.7348V47.9604Z" fill="#757575"/>
<path d="M84.2845 56.0923H69.6542V58.5837H84.2845V56.0923Z" fill="#757575"/>
<path d="M84.371 42.2163H65.0919V43.6005H84.371V42.2163Z" fill="#757575"/>
<path d="M57.7421 43.6004C60.9216 43.6004 63.499 41.0248 63.499 37.8476C63.499 34.6704 60.9216 32.0947 57.7421 32.0947C54.5627 32.0947 51.9852 34.6704 51.9852 37.8476C51.9852 41.0248 54.5627 43.6004 57.7421 43.6004Z" fill="#757575"/>
<path d="M69.4637 80.2195C67.0743 80.2195 65.1179 78.2644 65.1179 75.8768V60.9886H31.1392V75.8682C31.1392 78.2644 33.087 80.2109 35.485 80.2109H65.1179H69.4637V80.2195Z" fill="#757575"/>
<path d="M334.498 33.5828C334.645 33.825 334.706 34.1191 334.662 34.4219C334.706 34.1191 334.636 33.825 334.498 33.5828Z" fill="white"/>
<path d="M342.376 29.612C341.198 30.9183 340.488 32.6485 340.488 34.543C340.488 38.6176 343.804 41.9309 347.881 41.9309C351.959 41.9309 355.274 38.6176 355.274 34.543C355.274 30.4685 351.959 27.1552 347.881 27.1552C346.661 27.1552 345.518 27.4493 344.505 27.977C344.22 27.3022 344.012 26.6188 343.873 25.9354C343.839 25.771 343.813 25.598 343.787 25.425C345.042 24.8627 346.427 24.5426 347.89 24.5426C353.413 24.5426 357.898 29.0324 357.898 34.543C357.898 40.0623 353.405 44.5434 347.89 44.5434C342.376 44.5434 337.883 40.0536 337.883 34.543C337.883 31.4893 339.259 28.7556 341.423 26.9216C341.64 27.8386 341.969 28.7383 342.384 29.6207L342.376 29.612Z" fill="#010000"/>
<path d="M318.638 24.5339C320.344 24.5339 321.945 24.9665 323.356 25.7191L321.867 27.8905C320.889 27.4147 319.798 27.1465 318.638 27.1465C314.561 27.1465 311.245 30.4598 311.245 34.5343C311.245 38.6089 314.561 41.9222 318.638 41.9222C322.378 41.9222 325.468 39.1366 325.962 35.5379H328.594C328.083 40.5813 323.815 44.5348 318.638 44.5348C313.124 44.5348 308.631 40.045 308.631 34.5343C308.631 29.0151 313.124 24.5339 318.638 24.5339Z" fill="#010000"/>
<path d="M323.979 29.4304L324.863 28.1414L325.477 27.2504C327.053 28.7297 328.152 30.7107 328.516 32.934H325.858C325.564 31.5931 324.897 30.3906 323.979 29.4304Z" fill="#010000"/>
<path d="M331.875 35.5467L332.004 34.6124L332.082 34.0674C332.091 33.9809 332.117 33.8943 332.143 33.8078C332.342 33.2369 332.931 32.8649 333.554 32.9514C333.667 32.9687 333.771 33.0033 333.866 33.0379C334.134 33.1504 334.359 33.3407 334.506 33.5829C334.654 33.8251 334.714 34.1193 334.671 34.4221L334.645 34.5951L334.628 34.7421L341.172 25.5895C341.216 25.875 341.259 26.1605 341.311 26.4459C341.345 26.6017 341.38 26.766 341.415 26.9217C341.631 27.8387 341.96 28.7384 342.376 29.6208C343.371 31.697 344.921 33.6781 347.016 35.5294C347.267 35.7456 347.57 35.8581 347.881 35.8581C348.245 35.8581 348.6 35.711 348.86 35.4169C349.336 34.8805 349.284 34.0501 348.747 33.5743C346.739 31.8008 345.319 29.9236 344.505 27.9858C344.22 27.311 344.012 26.6276 343.873 25.9442C343.839 25.7798 343.813 25.6068 343.787 25.4338C343.631 24.4389 343.596 23.4181 343.57 22.4233C343.492 19.9751 343.406 17.449 341.415 15.7362C341.094 15.4593 340.22 14.7846 338.921 14.3347C338.965 14.352 338.999 14.3953 339.043 14.4126C339.372 14.5683 339.649 14.8451 339.752 15.2258C339.796 15.3988 339.804 15.5718 339.787 15.7448C339.761 15.9092 339.709 16.0735 339.623 16.2206C339.536 16.3677 339.432 16.4974 339.294 16.6012C339.155 16.7051 338.999 16.7829 338.826 16.8348L338.419 16.9473C339.121 17.2414 339.579 17.6047 339.718 17.7259C340.454 18.3574 340.731 19.2744 340.852 20.5547H327.607C327.139 20.5547 326.732 20.7969 326.499 21.1689L323.356 25.7452L321.867 27.9166L318.015 33.5224C317.738 33.9203 317.712 34.4394 317.937 34.8719C318.162 35.3044 318.612 35.5726 319.097 35.5726H331.875V35.5467ZM329.65 23.15H339.692L333.606 31.6624L329.65 23.15ZM321.573 32.9341L323.979 29.4305L324.862 28.1415L325.477 27.2505L327.382 24.4822L331.321 32.9428H321.573V32.9341Z" fill="#00A5CF"/>
<path d="M330.931 19.3174C330.931 19.3174 330.879 19.3174 330.853 19.3174L324.715 18.9627C323.997 18.9195 323.443 18.3053 323.486 17.5872C323.529 16.8692 324.144 16.3156 324.871 16.3588L331 16.7135C331.719 16.7568 332.273 17.371 332.23 18.089C332.186 18.7811 331.615 19.3174 330.922 19.3174H330.931Z" fill="#010000"/>
<path d="M339.034 14.3952C339.363 14.5509 339.64 14.8277 339.744 15.2083C339.787 15.3814 339.796 15.5544 339.778 15.7274C339.752 15.8918 339.701 16.0561 339.614 16.2032C339.527 16.3503 339.424 16.48 339.285 16.5838C339.155 16.6876 338.991 16.7655 338.818 16.8174L338.411 16.9299L335.095 17.8209C334.982 17.8555 334.87 17.8642 334.757 17.8642C334.177 17.8642 333.649 17.4835 333.493 16.8953C333.303 16.1945 333.719 15.4852 334.42 15.2949L338.134 14.3C338.16 14.3 338.194 14.2827 338.22 14.2827C338.229 14.2827 338.246 14.2827 338.255 14.2827C338.272 14.2827 338.289 14.2827 338.298 14.2827C338.324 14.2827 338.35 14.2827 338.376 14.274C338.402 14.274 338.419 14.274 338.445 14.274C338.445 14.274 338.48 14.274 338.506 14.274C338.532 14.274 338.566 14.274 338.592 14.274C338.601 14.274 338.618 14.274 338.627 14.274C338.662 14.274 338.705 14.2827 338.74 14.2913H338.748C338.8 14.3 338.843 14.3173 338.887 14.3346C338.93 14.3519 338.965 14.3952 339.008 14.4125L339.034 14.3952Z" fill="#010000"/>
<path d="M332.005 34.6122L332.082 34.0672C332.091 33.9806 332.117 33.8941 332.143 33.8076C332.342 33.2367 332.931 32.8647 333.554 32.9512C333.667 32.9685 333.771 33.0031 333.866 33.0377C334.134 33.1502 334.359 33.3405 334.506 33.5827C334.654 33.8249 334.714 34.1191 334.671 34.4218L334.645 34.5949L334.628 34.7419L334.307 37.0517L335.138 37.1123C335.857 37.1642 336.394 37.7957 336.342 38.5137C336.29 39.1971 335.718 39.7162 335.043 39.7162C335.008 39.7162 334.974 39.7162 334.939 39.7162L330.507 39.3788C329.788 39.3269 329.252 38.6954 329.304 37.9773C329.355 37.2593 329.987 36.723 330.706 36.7749L331.693 36.8527L331.875 35.5551L332.005 34.6208V34.6122Z" fill="#010000"/>
<path d="M253.65 34.197L253.641 34.3008L253.65 34.197L253.719 33.652L254.04 31.0826L253.719 33.652L253.65 34.197Z" fill="white"/>
<path d="M254.04 31.0825L254.204 29.7157L254.04 31.0825Z" fill="white"/>
<path d="M255.312 34.145C255.849 34.2576 256.412 34.3096 256.984 34.3096C256.412 34.3096 255.849 34.249 255.312 34.145Z" fill="white"/>
<path d="M293.195 27.6222L288.434 19.3779C288.356 19.2482 288.261 19.1357 288.157 19.0492C287.62 18.5907 286.772 18.6686 286.339 19.2828C286.313 19.3174 286.296 19.352 286.27 19.3866L275.171 38.6002C275.024 38.8597 274.972 39.1365 275.015 39.4047C275.102 39.9843 275.596 40.4774 276.253 40.4774H298.45C298.935 40.4774 299.324 40.2179 299.532 39.8546C299.74 39.4912 299.766 39.0241 299.532 38.6088L293.195 27.6395V27.6222ZM285.161 22.8296C285.213 22.5874 285.335 22.3798 285.516 22.1895C285.776 21.9299 286.088 21.8002 286.46 21.8002C286.633 21.8002 286.789 21.8348 286.936 21.8867C287.075 21.9386 287.196 22.0165 287.317 22.1203C287.343 22.1462 287.378 22.1635 287.404 22.1981C287.421 22.2154 287.438 22.2327 287.447 22.2587C287.559 22.3884 287.646 22.5182 287.707 22.6653C287.759 22.8123 287.793 22.9681 287.793 23.1411C287.793 23.5044 287.663 23.8245 287.404 24.084C287.36 24.1273 287.317 24.1619 287.265 24.1965C287.031 24.3781 286.763 24.4733 286.46 24.4733C286.096 24.4733 285.776 24.3435 285.516 24.084C285.378 23.9456 285.274 23.7899 285.213 23.6169C285.161 23.4698 285.127 23.3141 285.127 23.1411C285.127 23.0373 285.144 22.9334 285.161 22.8383V22.8296ZM279.318 38.4791H276.851L278.807 34.5343H280.816L279.318 38.4791ZM284.149 37.242L283.95 38.4791H281.482L281.984 36.6624L282.573 34.5343H284.581L284.149 37.242ZM286.114 38.4791L286.174 37.4237C286.174 37.4237 286.174 37.4237 286.183 37.4237C286.183 37.4237 286.183 37.4237 286.192 37.4237C286.347 37.4237 286.495 37.3804 286.625 37.3112C286.65 37.2939 286.676 37.2766 286.702 37.2593C286.737 37.2333 286.772 37.2074 286.806 37.1728C286.919 37.0603 286.997 36.9219 287.031 36.7662C287.049 36.697 287.057 36.6278 287.057 36.5499V34.5256H288.339L288.373 35.1052L288.572 38.4791H286.105H286.114ZM290.191 37.0603C290.191 37.0603 290.131 37.0257 290.096 36.9998C290.035 36.9565 289.992 36.9133 289.957 36.8614C289.914 36.8008 289.88 36.7316 289.862 36.6537L289.014 33.0031L288.598 31.2296L286.772 32.882V36.5586C286.772 36.697 286.728 36.8181 286.65 36.9219C286.633 36.9392 286.625 36.9565 286.607 36.9738C286.495 37.0776 286.365 37.1382 286.2 37.1382C286.096 37.1382 286.001 37.1122 285.915 37.069C285.871 37.043 285.828 37.0171 285.785 36.9738C285.759 36.9479 285.733 36.9219 285.716 36.8873C285.655 36.7921 285.62 36.6883 285.62 36.5672V32.4581C285.62 32.285 285.655 32.1293 285.716 31.9736C285.742 31.9044 285.785 31.8352 285.828 31.7746C285.845 31.7487 285.863 31.7314 285.88 31.7054C285.923 31.6535 285.958 31.6103 286.01 31.567L287.231 30.4684L287.127 30.0704L286.538 27.8385C286.469 27.925 286.399 28.0115 286.33 28.098C285.941 28.5825 285.534 28.9718 285.084 29.2659C284.677 29.5341 284.235 29.7157 283.759 29.8282C283.621 29.8628 283.482 29.8888 283.335 29.9061C283.318 29.9061 283.309 29.9061 283.292 29.9061C283.274 29.9061 283.257 29.9061 283.248 29.9061C283.179 29.9061 283.11 29.8974 283.049 29.8628C282.989 29.8368 282.928 29.7936 282.876 29.7417C282.859 29.7244 282.85 29.7071 282.833 29.6984C282.807 29.6725 282.789 29.6379 282.772 29.6119C282.712 29.5168 282.677 29.4043 282.677 29.2832C282.677 29.1448 282.72 29.0237 282.807 28.9285C282.833 28.8939 282.876 28.8679 282.911 28.8506C282.954 28.816 283.006 28.7901 283.067 28.7728C283.092 28.7641 283.118 28.7468 283.153 28.7382C283.214 28.7382 283.266 28.7122 283.326 28.7036C283.742 28.6257 284.114 28.496 284.452 28.297C284.547 28.2451 284.633 28.1932 284.72 28.1326C284.945 27.9683 285.144 27.7952 285.326 27.6049C285.508 27.4146 285.664 27.2156 285.793 26.9994L286.538 25.8401C286.581 25.7709 286.633 25.7104 286.694 25.6585C286.884 25.4595 287.135 25.3384 287.438 25.2778C287.568 25.2519 287.707 25.2432 287.828 25.2432C288.053 25.2432 288.269 25.2865 288.477 25.3643C288.494 25.3643 288.512 25.373 288.529 25.3816L289.161 25.6498L291.221 26.5236C291.291 26.5495 291.36 26.5928 291.421 26.6274C291.55 26.7139 291.672 26.8177 291.758 26.9561C291.775 26.9734 291.784 26.9994 291.793 27.0167C291.853 27.1205 291.897 27.2243 291.923 27.3367C291.949 27.4319 291.957 27.5184 291.957 27.6222V29.3524C291.957 29.5168 291.897 29.6552 291.784 29.7676C291.672 29.8801 291.533 29.9407 291.369 29.9407C291.334 29.9407 291.291 29.9407 291.256 29.932C291.178 29.9147 291.1 29.8801 291.031 29.8282C291.005 29.8109 290.988 29.7936 290.962 29.7676C290.84 29.6552 290.789 29.5168 290.789 29.361V27.5876L289.654 27.0772L289.066 26.809L290.988 36.498C291.022 36.6797 290.988 36.8268 290.884 36.9565C290.78 37.0863 290.633 37.1555 290.442 37.1555C290.338 37.1555 290.234 37.1295 290.139 37.0776L290.191 37.0603ZM290.754 38.4791L290.589 37.4237C290.832 37.4064 291.031 37.3025 291.178 37.1209C291.343 36.9219 291.395 36.671 291.334 36.4115L291.04 34.9236L290.962 34.5343H292.13L293.221 38.4791H290.754ZM295.385 38.4791L294.797 36.9219L293.896 34.5343H295.905L296.545 35.8319L297.853 38.4791H295.385Z" fill="white"/>
<path d="M256.152 28.8247C258.81 27.2069 260.584 24.2743 260.584 20.9351C260.584 24.2743 258.81 27.1983 256.152 28.8247Z" fill="white"/>
<path d="M251.693 32.0775L251.771 31.4373L251.936 30.1483L251.771 31.4373L251.693 32.0775Z" fill="white"/>
<path d="M260.428 19.2223C260.472 19.4645 260.506 19.7067 260.532 19.949C260.55 20.122 260.567 20.295 260.576 20.4767C260.576 20.6324 260.584 20.7881 260.584 20.9438C260.584 24.2831 258.81 27.2157 256.152 28.8334C255.771 29.067 255.373 29.266 254.957 29.4476C254.715 29.5514 254.464 29.6466 254.204 29.7331L254.04 31.0999L253.719 33.6693L253.65 34.2229V34.4305C254.005 34.5776 254.377 34.7074 254.758 34.8025L254.957 34.5689L255.304 34.1624C255.84 34.2748 256.403 34.3267 256.974 34.3267C257.052 34.3267 257.13 34.3267 257.208 34.3267C257.407 34.3267 257.606 34.3094 257.797 34.2921C257.909 34.2835 258.013 34.2748 258.117 34.2575L257.424 35.062C261.45 34.7852 264.696 31.6363 265.121 27.6569C265.155 27.3628 265.164 27.0686 265.164 26.7659C265.164 23.4439 263.216 20.5805 260.402 19.2482L260.428 19.2223Z" fill="#5D9832"/>
<path d="M257.814 34.2661C257.615 34.2834 257.424 34.3007 257.225 34.3007C257.147 34.3007 257.069 34.3007 256.992 34.3007C256.42 34.3007 255.857 34.2402 255.321 34.1364L254.974 34.5429L254.775 34.7765L253.667 36.0655L253.78 37.2507L253.953 39.1106L257.468 35.0187L258.16 34.2142C258.056 34.2315 257.944 34.2402 257.84 34.2488L257.814 34.2661Z" fill="#6D4B41"/>
<path d="M253.65 36.0742L253.624 34.3959L253.641 34.2921V34.1883L253.719 33.6346L254.04 31.0653L254.204 29.6985C253.477 29.9321 252.715 30.0878 251.927 30.131L251.771 31.4114L251.693 32.0602L251.659 32.3716L251.564 33.1242L251.46 33.9461L251.278 35.4081L250.17 33.9461L250.023 33.7471L247.625 30.5636L247.348 30.1916L247.304 30.131C247.235 30.1829 247.166 30.2348 247.088 30.2867C246.551 30.6674 245.963 30.9615 245.322 31.1691L248.231 35.0188L248.603 35.5119C248.889 35.8839 249.018 36.3597 248.975 36.8268L248.335 43.7389C248.291 44.1541 248.629 44.5174 249.044 44.5174H253.659C254.074 44.5174 254.403 44.1541 254.368 43.7389L253.936 39.0933L253.762 37.2334L253.65 36.0482V36.0742Z" fill="#865B50"/>
<path d="M253.624 34.3961C253.624 34.3961 253.641 34.3961 253.65 34.4048V34.1969V34.2922L253.624 34.3961Z" fill="#8CBE2F"/>
<path d="M251.875 29.2572C251.875 27.3714 251.062 25.6758 249.763 24.4993C249.78 24.6896 249.789 24.8799 249.789 25.0789C249.789 26.2294 249.486 27.3022 248.958 28.2364C248.889 28.3576 248.819 28.47 248.741 28.5911C248.733 28.6084 248.724 28.6171 248.716 28.6257C248.499 28.9545 248.257 29.2573 247.98 29.5427C247.833 29.6984 247.677 29.8369 247.512 29.9753C247.443 30.0358 247.365 30.105 247.287 30.1569L247.33 30.2175L247.607 30.5895L250.005 33.773C250.36 33.4183 250.672 33.0204 250.932 32.5878C251.122 32.7868 251.33 32.9771 251.546 33.1501L251.642 32.3975L251.676 32.0861L251.754 31.4373L251.91 30.1569C251.91 30.1569 251.832 30.1569 251.789 30.1569C251.832 29.8628 251.849 29.56 251.849 29.2572H251.875Z" fill="#5D9832"/>
<path d="M243.374 31.4979C241.712 31.4979 240.206 30.8664 239.063 29.8369C239.357 33.1069 242.102 35.6763 245.461 35.6763C246.456 35.6763 247.391 35.4513 248.231 35.0447L245.322 31.1951C244.707 31.3941 244.049 31.4979 243.374 31.4979Z" fill="#5D9832"/>
<path d="M245.322 31.195C245.963 30.9961 246.551 30.6933 247.088 30.3126C247.157 30.2607 247.235 30.2088 247.304 30.1569C247.382 30.0964 247.452 30.0358 247.53 29.9753C247.694 29.8368 247.85 29.6984 247.997 29.5427C248.274 29.2572 248.516 28.9545 248.733 28.6257C248.742 28.6084 248.75 28.5998 248.759 28.5911C248.837 28.4787 248.906 28.3575 248.975 28.2364C249.503 27.3021 249.806 26.2294 249.806 25.0789C249.806 24.8799 249.798 24.6896 249.78 24.4993C251.079 25.6758 251.893 27.3713 251.893 29.2572C251.893 29.56 251.875 29.8628 251.832 30.1569C251.875 30.1569 251.91 30.1569 251.953 30.1569C252.741 30.105 253.503 29.958 254.23 29.7244C254.49 29.6379 254.741 29.5427 254.983 29.4389C255.399 29.2659 255.797 29.0583 256.178 28.8247C258.836 27.207 260.61 24.2743 260.61 20.9351C260.61 20.7794 260.61 20.6237 260.602 20.4679C260.593 20.2949 260.576 20.1219 260.558 19.9402C260.532 19.698 260.498 19.4558 260.454 19.2136C260.385 19.179 260.316 19.1444 260.238 19.1098C260.125 18.7897 259.996 18.4696 259.84 18.1668C258.342 15.0871 255.182 12.959 251.52 12.959C247.668 12.959 244.361 15.3207 242.976 18.6686C242.777 18.6772 242.586 18.7032 242.387 18.7291C239.314 19.2136 236.968 21.8607 236.968 25.0616C236.968 26.9475 237.782 28.643 239.08 29.8195C240.223 30.849 241.729 31.4805 243.391 31.4805C244.067 31.4805 244.725 31.3767 245.339 31.1777L245.322 31.195Z" fill="#8CBE2F"/>
<path d="M301.272 13.2013H273.44C272.747 13.2013 272.193 13.7636 272.193 14.447V43.5226C272.193 44.2147 272.756 44.7683 273.44 44.7683H301.272C301.965 44.7683 302.519 44.206 302.519 43.5226V14.447C302.519 13.755 301.956 13.2013 301.272 13.2013ZM299.541 39.846C299.333 40.2093 298.935 40.4689 298.459 40.4689H276.262C275.604 40.4689 275.111 39.9758 275.024 39.3961C274.981 39.1366 275.024 38.8511 275.18 38.5916L286.278 19.378C286.278 19.378 286.322 19.3088 286.348 19.2742C286.78 18.6686 287.629 18.5908 288.166 19.0406C288.269 19.1271 288.365 19.2396 288.443 19.3694L293.204 27.6137L299.541 38.583C299.783 38.9982 299.749 39.4654 299.541 39.8287V39.846Z" fill="#00A5CF"/>
<path d="M276.851 38.4704H279.318L280.816 34.5256H278.807L276.851 38.4704Z" fill="#010000"/>
<path d="M281.993 36.6537L281.482 38.4704H283.958L284.157 37.2334L284.59 34.5256H282.582L281.993 36.6537Z" fill="#010000"/>
<path d="M288.356 34.5256H287.075V36.5499C287.075 36.6278 287.066 36.697 287.049 36.7662C287.014 36.9219 286.936 37.0603 286.824 37.1728C286.789 37.2074 286.754 37.2334 286.72 37.2593C286.694 37.2766 286.668 37.2939 286.642 37.3112C286.512 37.3804 286.365 37.4237 286.209 37.4237C286.209 37.4237 286.209 37.4237 286.2 37.4237C286.2 37.4237 286.2 37.4237 286.192 37.4237L286.131 38.4791H288.598L288.399 35.1052L288.365 34.5256H288.356Z" fill="#010000"/>
<path d="M290.953 34.5256L291.031 34.9149L291.325 36.4029C291.377 36.6711 291.325 36.9133 291.169 37.1122C291.022 37.2939 290.823 37.3977 290.581 37.415L290.745 38.4704H293.212L292.122 34.5256H290.953Z" fill="#010000"/>
<path d="M295.896 34.5256H293.888L294.797 36.9133L295.385 38.4704H297.853L296.545 35.8233L295.896 34.5256Z" fill="#010000"/>
<path d="M285.516 24.0753C285.776 24.3349 286.096 24.4646 286.46 24.4646C286.763 24.4646 287.031 24.3695 287.265 24.1878C287.308 24.1532 287.36 24.1186 287.404 24.0753C287.663 23.8158 287.793 23.4957 287.793 23.1324C287.793 22.9594 287.759 22.8037 287.707 22.6566C287.655 22.5095 287.568 22.3711 287.447 22.25C287.43 22.2327 287.421 22.2154 287.404 22.1894C287.378 22.1635 287.343 22.1375 287.317 22.1116C287.205 22.0078 287.075 21.9299 286.936 21.878C286.789 21.8261 286.633 21.7915 286.46 21.7915C286.096 21.7915 285.776 21.9213 285.516 22.1808C285.326 22.3625 285.213 22.5787 285.161 22.821C285.135 22.9161 285.127 23.0199 285.127 23.1237C285.127 23.2968 285.161 23.4525 285.213 23.5995C285.283 23.7726 285.378 23.9283 285.516 24.0667V24.0753Z" fill="#010000"/>
<path d="M291.039 36.4721L289.118 26.7831L289.706 27.0513L290.84 27.5617V29.3351C290.84 29.4908 290.901 29.6206 291.014 29.7417C291.039 29.7676 291.057 29.7849 291.083 29.8023C291.152 29.8542 291.23 29.8888 291.308 29.9061C291.342 29.9061 291.377 29.9147 291.42 29.9147C291.585 29.9147 291.723 29.8542 291.836 29.7417C291.948 29.6292 292.009 29.4908 292.009 29.3265V27.5963C292.009 27.5011 291.992 27.406 291.974 27.3108C291.948 27.1983 291.905 27.0945 291.845 26.9907C291.836 26.9734 291.819 26.9475 291.81 26.9302C291.715 26.7917 291.602 26.6879 291.472 26.6014C291.412 26.5582 291.342 26.5236 291.273 26.4976L289.213 25.6239L288.581 25.3557C288.581 25.3557 288.546 25.347 288.529 25.3384C288.321 25.2605 288.105 25.2173 287.88 25.2173C287.75 25.2173 287.62 25.2259 287.49 25.2519C287.187 25.3124 286.945 25.4336 286.746 25.6325C286.694 25.6844 286.633 25.745 286.59 25.8142L285.845 26.9734C285.715 27.1897 285.56 27.3973 285.378 27.579C285.196 27.7693 284.997 27.9423 284.772 28.1067C284.685 28.1672 284.599 28.2191 284.503 28.271C284.166 28.47 283.785 28.5998 283.378 28.6776C283.317 28.6863 283.266 28.7036 283.205 28.7122C283.17 28.7122 283.144 28.7295 283.118 28.7468C283.066 28.7641 283.014 28.7901 282.962 28.8247C282.928 28.8507 282.885 28.8766 282.859 28.9026C282.772 28.9977 282.729 29.1188 282.729 29.2572C282.729 29.3784 282.763 29.4908 282.824 29.586C282.841 29.6119 282.867 29.6465 282.885 29.6725C282.902 29.6898 282.911 29.7071 282.928 29.7157C282.98 29.7676 283.04 29.8109 283.101 29.8369C283.162 29.8628 283.231 29.8801 283.3 29.8801C283.317 29.8801 283.335 29.8801 283.343 29.8801C283.361 29.8801 283.369 29.8801 283.387 29.8801C283.534 29.8628 283.672 29.8369 283.811 29.8023C284.287 29.6984 284.729 29.5081 285.135 29.2399C285.577 28.9458 285.992 28.5565 286.382 28.0721C286.451 27.9856 286.521 27.9077 286.59 27.8125L287.178 30.0445L287.282 30.4424L286.062 31.5411C286.01 31.5843 285.975 31.6362 285.932 31.6795C285.915 31.7054 285.897 31.7227 285.88 31.7487C285.837 31.8093 285.793 31.8785 285.767 31.9477C285.698 32.1034 285.672 32.2678 285.672 32.4321V36.5413C285.672 36.6624 285.707 36.7749 285.767 36.8614C285.785 36.896 285.811 36.9219 285.837 36.9479C285.871 36.9825 285.915 37.0171 285.966 37.043C286.053 37.0863 286.148 37.1122 286.252 37.1122C286.417 37.1122 286.555 37.0603 286.659 36.9479C286.676 36.9306 286.685 36.9133 286.702 36.896C286.78 36.7922 286.824 36.6797 286.824 36.5326V32.856L288.65 31.2037L289.066 32.9771L289.914 36.6278C289.931 36.7056 289.957 36.7749 290.009 36.8354C290.044 36.8873 290.087 36.9306 290.148 36.9738C290.182 36.9998 290.208 37.0171 290.243 37.0344C290.338 37.0863 290.442 37.1122 290.546 37.1122C290.736 37.1122 290.884 37.043 290.988 36.9133C291.091 36.7835 291.126 36.6278 291.091 36.4548L291.039 36.4721Z" fill="#010000"/>
<path d="M39.1644 127.497C39.1644 127.497 39.1384 127.497 39.1297 127.497C39.1037 127.497 39.0777 127.497 39.0518 127.505C39.0777 127.505 39.1037 127.505 39.1297 127.497C39.1384 127.497 39.1557 127.497 39.1644 127.497Z" fill="white"/>
<path d="M40.6707 127.133C40.6707 127.133 40.6101 127.15 40.5754 127.168C40.5754 127.168 40.5668 127.168 40.5581 127.168C40.5581 127.168 40.5668 127.168 40.5754 127.168C40.6014 127.159 40.6361 127.151 40.6707 127.133Z" fill="white"/>
<path d="M47.7521 129.157C47.9773 129.253 48.1851 129.383 48.367 129.565C48.3757 129.573 48.393 129.582 48.4017 129.591C48.393 129.582 48.3757 129.582 48.367 129.565C48.1851 129.383 47.9773 129.244 47.7521 129.157Z" fill="white"/>
<path d="M45.5186 129.651C45.5878 129.634 45.6658 129.625 45.7264 129.565C45.9083 129.383 46.1162 129.244 46.35 129.157C46.1248 129.253 45.917 129.383 45.7264 129.565C45.6658 129.625 45.5965 129.634 45.5186 129.651Z" fill="white"/>
<path d="M45.1376 129.564C45.2155 129.642 45.3195 129.685 45.4321 129.685C45.3281 129.685 45.2242 129.642 45.1376 129.564Z" fill="white"/>
<path d="M48.9554 129.565C48.9554 129.565 48.9208 129.582 48.9034 129.599C48.9208 129.591 48.9381 129.582 48.9554 129.565C49.094 129.426 49.1026 129.227 49.016 129.071C49.1026 129.227 49.094 129.435 48.9554 129.565Z" fill="white"/>
<path d="M47.2585 128.206C47.8129 128.249 48.3585 128.466 48.8002 128.847C48.3499 128.466 47.8129 128.249 47.2585 128.206Z" fill="white"/>
<path d="M41.5796 126.77C41.5796 126.77 41.5363 126.787 41.5104 126.805C41.5104 126.805 41.493 126.805 41.4844 126.813C41.4844 126.813 41.5017 126.813 41.5104 126.805C41.5363 126.796 41.5537 126.787 41.5796 126.77Z" fill="white"/>
<path d="M36.8357 128.024C36.7058 128.172 36.6019 128.345 36.5413 128.544C36.5413 128.544 36.5413 128.553 36.5413 128.561V128.544C36.6019 128.345 36.6972 128.172 36.8357 128.024Z" fill="white"/>
<path d="M36.3161 129.504V129.53C36.3161 129.53 36.2988 129.607 36.2902 129.651C36.2902 129.607 36.2988 129.573 36.3075 129.53V129.504H36.3161Z" fill="white"/>
<path d="M50.1587 129.132C50.1587 129.132 50.1587 129.106 50.1587 129.097C50.1587 129.071 50.15 129.054 50.1414 129.028C50.1414 129.054 50.15 129.071 50.1587 129.097C50.1587 129.106 50.1587 129.123 50.1587 129.132Z" fill="white"/>
<path d="M50.2886 129.893V129.867C50.2886 129.867 50.2712 129.798 50.2712 129.772C50.2712 129.806 50.2799 129.841 50.2886 129.867C50.2886 129.876 50.2886 129.884 50.2886 129.893Z" fill="white"/>
<path d="M50.176 129.227C50.176 129.227 50.176 129.201 50.176 129.192C50.176 129.166 50.1674 129.149 50.1587 129.123C50.1587 129.149 50.1674 129.166 50.176 129.192C50.176 129.201 50.176 129.218 50.176 129.227Z" fill="white"/>
<path d="M50.202 129.331C50.202 129.331 50.2107 129.4 50.2193 129.426C50.2193 129.435 50.2193 129.443 50.2193 129.461C50.2193 129.452 50.2193 129.443 50.2193 129.426C50.2193 129.391 50.2107 129.357 50.202 129.331C50.202 129.331 50.202 129.322 50.202 129.313C50.202 129.287 50.1934 129.261 50.1847 129.227C50.1847 129.253 50.1934 129.279 50.202 129.313C50.202 129.313 50.202 129.322 50.202 129.331Z" fill="white"/>
<path d="M42.6357 139.547C42.8436 139.573 43.0515 139.582 43.268 139.582C43.6404 139.582 44.0129 139.547 44.3766 139.478C44.0129 139.547 43.6491 139.582 43.268 139.582C43.0515 139.582 42.8436 139.565 42.6357 139.547Z" fill="white"/>
<path d="M44.3759 139.479C44.7394 139.41 45.0857 139.314 45.432 139.184C45.7869 139.046 46.1332 138.881 46.4708 138.682C46.1419 138.881 45.7956 139.046 45.432 139.184C45.0944 139.314 44.7394 139.418 44.3759 139.479Z" fill="white"/>
<path d="M49.9596 128.396C49.9596 128.396 49.9769 128.457 49.9856 128.483C49.9856 128.457 49.9683 128.422 49.9596 128.396Z" fill="white"/>
<path d="M50.0201 128.569C50.0201 128.569 50.0201 128.595 50.0288 128.604C50.0288 128.621 50.0375 128.647 50.0461 128.665C50.0461 128.647 50.0375 128.621 50.0288 128.604C50.0288 128.595 50.0288 128.578 50.0201 128.569C50.0201 128.543 50.0028 128.517 50.0028 128.491C50.0028 128.491 50.0028 128.483 50.0028 128.474V128.491C50.0028 128.517 50.0201 128.543 50.0201 128.561V128.569Z" fill="white"/>
<path d="M50.0548 128.716C50.0548 128.716 50.0548 128.708 50.0548 128.699C50.0548 128.69 50.0548 128.673 50.0461 128.664C50.0461 128.673 50.0461 128.69 50.0461 128.699V128.716H50.0548Z" fill="white"/>
<path d="M48.8428 127.427C48.8428 127.427 48.8688 127.436 48.8775 127.445C48.8688 127.445 48.8515 127.436 48.8428 127.427C48.8168 127.41 48.7822 127.401 48.7562 127.384C48.7562 127.384 48.7389 127.384 48.7302 127.375C48.7302 127.375 48.7475 127.375 48.7562 127.384C48.7822 127.401 48.8168 127.41 48.8428 127.427Z" fill="white"/>
<path d="M47.726 122.055C47.3451 121.674 47.0508 121.233 46.843 120.766C47.0508 121.233 47.3365 121.674 47.726 122.055Z" fill="white"/>
<path d="M41.9865 141.433C42.3414 141.702 42.7916 141.857 43.2677 141.857C43.7438 141.857 44.194 141.702 44.5576 141.433C44.2026 141.702 43.7525 141.857 43.2677 141.857C42.7829 141.857 42.3414 141.702 41.9865 141.433Z" fill="white"/>
<path d="M46.8784 139.997C46.4107 139.893 45.9344 139.79 45.432 139.729C45.9257 139.798 46.4021 139.893 46.8784 139.997Z" fill="white"/>
<path d="M46.6873 125.991C46.6873 125.991 46.7306 126.035 46.7566 126.052C46.7566 126.052 46.7653 126.061 46.7739 126.069C46.7739 126.069 46.7653 126.061 46.7566 126.052C46.7393 126.035 46.7133 126.009 46.6873 125.991C46.6787 125.983 46.67 125.974 46.6613 125.965C46.644 125.948 46.6267 125.931 46.6007 125.913C46.618 125.931 46.6354 125.948 46.6613 125.965C46.67 125.974 46.6787 125.983 46.6873 125.991Z" fill="white"/>
<path d="M46.3323 125.628C46.3323 125.628 46.315 125.611 46.3064 125.602C46.315 125.611 46.3237 125.619 46.3323 125.628Z" fill="white"/>
<path d="M46.9556 126.225C46.9556 126.225 46.9729 126.242 46.9816 126.251H46.9989C46.9989 126.251 46.9903 126.251 46.9816 126.251C46.9729 126.251 46.9643 126.234 46.9556 126.225C46.9296 126.208 46.9037 126.182 46.8777 126.156C46.8777 126.156 46.869 126.156 46.8604 126.138C46.8604 126.138 46.869 126.147 46.8777 126.156C46.9037 126.182 46.9296 126.199 46.9556 126.225Z" fill="white"/>
<path d="M46.5141 125.818C46.5141 125.818 46.5574 125.862 46.5747 125.879C46.5574 125.862 46.5314 125.836 46.5141 125.818C46.5141 125.818 46.4968 125.801 46.4968 125.792C46.4968 125.792 46.5141 125.81 46.5141 125.818Z" fill="white"/>
<path d="M46.2285 125.507L46.2545 125.533C46.2545 125.533 46.2371 125.516 46.2285 125.507C46.2111 125.49 46.1938 125.464 46.1765 125.446C46.1765 125.446 46.2111 125.49 46.2285 125.507Z" fill="white"/>
<path d="M46.0819 125.326C46.0819 125.326 46.0729 125.308 46.064 125.299C46.064 125.299 46.0729 125.317 46.0819 125.326Z" fill="white"/>
<path d="M44.9645 124.607C45.3282 124.625 45.6834 124.806 45.9345 125.136C45.692 124.806 45.3369 124.633 44.9645 124.607Z" fill="white"/>
<path d="M45.9341 125.144C45.9341 125.144 45.9341 125.135 45.9254 125.126C45.9254 125.126 45.9254 125.135 45.9341 125.144Z" fill="white"/>
<path d="M44.4193 124.694C44.2461 124.763 44.0815 124.876 43.9516 125.023C43.9343 125.04 43.917 125.066 43.8997 125.083C43.917 125.066 43.9343 125.049 43.9516 125.023C44.0902 124.876 44.2461 124.763 44.4193 124.694Z" fill="white"/>
<path d="M43.2851 125.671C43.2851 125.671 43.2418 125.706 43.2158 125.732C43.2158 125.732 43.2071 125.741 43.1985 125.749C43.1985 125.749 43.2071 125.741 43.2158 125.732C43.2418 125.715 43.2591 125.697 43.2851 125.671Z" fill="white"/>
<path d="M42.428 126.294C42.428 126.294 42.3847 126.32 42.3588 126.337C42.3588 126.337 42.3588 126.337 42.3501 126.337C42.3501 126.337 42.3501 126.337 42.3588 126.337C42.3847 126.32 42.4021 126.311 42.428 126.294Z" fill="white"/>
<path d="M47.8213 126.874C47.8213 126.874 47.8647 126.908 47.8906 126.917C47.8993 126.917 47.9166 126.934 47.9253 126.943C47.9166 126.943 47.8993 126.926 47.8906 126.917C47.8647 126.9 47.8387 126.891 47.8213 126.874C47.8127 126.874 47.804 126.856 47.7867 126.856C47.7954 126.856 47.804 126.874 47.8213 126.874Z" fill="white"/>
<path d="M48.2715 127.142C48.2715 127.142 48.2542 127.133 48.2455 127.125C48.2542 127.125 48.2629 127.133 48.2715 127.142Z" fill="white"/>
<path d="M48.0291 127.003C48.0291 127.003 48.0897 127.038 48.1244 127.055C48.0984 127.038 48.0637 127.021 48.0291 127.003C48.0204 127.003 48.0031 126.986 47.9945 126.986C47.9685 126.969 47.9425 126.96 47.9252 126.943C47.9512 126.96 47.9685 126.969 47.9945 126.986C48.0031 126.986 48.0204 127.003 48.0291 127.003Z" fill="white"/>
<path d="M41.9519 126.58C41.9519 126.58 41.9085 126.606 41.8826 126.614C41.8826 126.614 41.8826 126.614 41.8739 126.614C41.8739 126.614 41.8739 126.614 41.8826 126.614C41.9085 126.606 41.9259 126.588 41.9519 126.58Z" fill="white"/>
<path d="M76.45 122.116C76.45 122.298 76.5279 122.462 76.6405 122.583C76.5192 122.462 76.45 122.298 76.45 122.116Z" fill="white"/>
<path d="M45.0597 135.317C45.1377 135.239 45.2329 135.204 45.3368 135.196C45.2329 135.196 45.1377 135.239 45.0597 135.317C44.4105 135.957 43.5015 136.182 42.6704 135.983C43.5015 136.182 44.4105 135.966 45.0597 135.317Z" fill="white"/>
<path d="M37.5888 128.984C37.4242 129.149 37.4242 129.409 37.5888 129.573C37.6147 129.599 37.6494 129.617 37.684 129.634C37.6494 129.617 37.6234 129.599 37.5974 129.573C37.4329 129.409 37.4329 129.149 37.5974 128.984H37.5888Z" fill="white"/>
<path d="M41.1122 139.72C39.7357 139.902 38.4458 140.257 37.2944 140.75C38.4545 140.257 39.7357 139.902 41.1122 139.72Z" fill="white"/>
<path d="M41.4065 129.565C41.3286 129.643 41.2247 129.686 41.1121 129.686C41.216 129.686 41.3199 129.643 41.4065 129.565C41.5451 129.426 41.5538 129.227 41.4672 129.071C41.5538 129.227 41.5451 129.435 41.4065 129.565Z" fill="white"/>
<path d="M40.6447 129.408C40.7053 129.452 40.7659 129.504 40.8179 129.564C40.8785 129.625 40.9478 129.634 41.0257 129.651C40.9565 129.634 40.8785 129.625 40.8179 129.564C40.7659 129.512 40.7053 129.46 40.6447 129.408Z" fill="white"/>
<path d="M99.6161 133.362C99.0101 133.993 98.2656 134.478 97.4345 134.789C96.8372 135.006 96.1966 135.135 95.53 135.153L95.0538 137.782C95.0711 137.93 95.0798 138.033 95.0798 138.094C95.5992 138.284 98.6898 139.435 100.179 139.988V143.752C100.274 146.096 103.616 146.087 103.702 143.752V138.414L103.01 137.445L101.079 134.746C101.027 134.651 100.49 133.691 100.032 132.877C99.9104 133.042 99.7719 133.189 99.6334 133.336C99.6334 133.336 99.6161 133.353 99.6074 133.362H99.6161Z" fill="#B48761"/>
<path d="M71.784 125.714C71.7234 125.81 71.6628 125.922 71.6195 126.035C71.3683 126.692 71.5675 127.375 72.0699 127.566C72.5635 127.756 73.1698 127.375 73.421 126.709C73.4643 126.588 73.4903 126.476 73.5076 126.355C72.858 126.311 72.2691 126.078 71.784 125.706V125.714Z" fill="#F092A6"/>
<path d="M80.2417 121.017C80.285 121.242 80.3802 121.441 80.5187 121.605C80.7525 121.873 81.0901 122.046 81.471 122.046H82.8561C83.3582 122.046 83.7911 121.752 83.9902 121.328V121.311C84.0508 121.173 84.0854 121.026 84.0941 120.861L84.146 119.546L84.2412 116.899C84.2585 116.51 83.9382 116.181 83.5487 116.181H80.2071C79.8868 116.181 79.6184 116.397 79.5405 116.692C79.5145 116.787 79.5059 116.891 79.5232 116.994L80.2417 121.034V121.017Z" fill="#B48761"/>
<path d="M104.983 120.801C104.983 119.823 104.196 119.036 103.217 119.036C102.239 119.036 101.451 119.823 101.451 120.801C101.451 122.176 100.612 123.361 99.417 123.863C98.3781 122.998 97.0017 122.531 95.53 122.704L86.3363 123.768L84.1547 119.538L84.1028 120.853C84.1028 121.008 84.0595 121.164 83.9989 121.303V121.32C83.7998 121.744 83.3669 122.038 82.8648 122.038H81.4797C81.0988 122.038 80.7612 121.865 80.5274 121.597C80.3889 121.432 80.2937 121.233 80.2504 121.008L79.5319 116.968C79.5146 116.865 79.5232 116.761 79.5492 116.666H78.8306C76.1989 116.666 74.0693 118.794 74.0693 121.424L72.3379 121.692C72.6149 121.865 72.7967 122.133 72.7967 122.427C72.7967 122.574 72.7448 122.721 72.6669 122.842C72.5024 123.093 72.208 123.275 71.8444 123.353C71.7406 123.37 71.6367 123.387 71.5241 123.387C71.351 123.387 71.1865 123.361 71.0393 123.31C70.8922 123.266 70.7623 123.197 70.6584 123.119C70.6238 123.093 70.5805 123.067 70.5459 123.033V123.171C70.5459 124.201 71.0394 125.118 71.8012 125.706C72.286 126.078 72.8746 126.311 73.5239 126.355C73.5932 126.355 73.6711 126.363 73.7403 126.363H76.424L76.6404 131.052C76.6404 132.678 77.5927 134.08 78.9692 134.737C79.1336 135.568 79.1423 136.052 79.125 136.32C78.9778 136.312 78.8047 136.286 78.6662 136.269C77.7052 136.156 76.2509 135.983 75.0735 137.082C74.2165 137.878 73.8356 139.045 73.9308 140.551C73.9914 141.485 74.7619 142.203 75.6882 142.203C75.7228 142.203 75.7661 142.203 75.8007 142.203C76.7703 142.142 77.5148 141.303 77.4542 140.334C77.4369 140.006 77.4542 139.815 77.4888 139.712C77.6793 139.712 78.0169 139.746 78.2593 139.772C79.125 139.876 80.311 140.014 81.3412 139.244C82.5358 138.353 82.7869 136.822 82.6051 135.127H83.6093L85.2195 144.037C85.3753 144.885 86.1198 145.49 86.9509 145.49C87.0548 145.49 87.1587 145.482 87.2626 145.464C88.2235 145.291 88.8554 144.374 88.6823 143.414L87.1846 135.135H91.946L90.4483 143.414C90.2752 144.374 90.9072 145.291 91.8681 145.464C91.972 145.482 92.0759 145.49 92.1797 145.49C93.0195 145.49 93.7553 144.893 93.9111 144.037L95.0452 137.756L95.5213 135.127C96.1879 135.109 96.8285 134.988 97.4259 134.763C98.2569 134.452 99.0014 133.967 99.6074 133.336C99.6074 133.336 99.6247 133.319 99.6334 133.31C99.7719 133.163 99.9018 133.007 100.032 132.851C100.785 131.883 101.235 130.663 101.252 129.348L101.27 127.843C101.27 127.522 101.244 127.202 101.192 126.9C103.442 125.775 104.983 123.457 104.983 120.775V120.801ZM77.7658 122.124C77.7658 122.124 77.7658 122.159 77.7658 122.185C77.7658 122.254 77.7485 122.323 77.7225 122.384C77.7052 122.427 77.6879 122.462 77.6619 122.496C77.5408 122.669 77.3416 122.79 77.1166 122.79C76.9348 122.79 76.7703 122.713 76.6491 122.6C76.5279 122.479 76.4586 122.315 76.4586 122.133V121.008C76.4586 121.008 76.4586 120.991 76.4586 120.982C76.4586 120.844 76.5106 120.714 76.5885 120.61C76.7097 120.455 76.9001 120.351 77.1166 120.351C77.3157 120.351 77.4888 120.437 77.61 120.576C77.7139 120.688 77.7831 120.844 77.7831 121.017V122.142L77.7658 122.124Z" fill="#F0BA87"/>
<path d="M77.1082 120.334C76.8917 120.334 76.7011 120.437 76.5799 120.593C76.5019 120.697 76.45 120.827 76.45 120.965C76.45 120.974 76.45 120.982 76.45 120.991V122.116C76.45 122.297 76.5279 122.462 76.6405 122.583C76.7618 122.704 76.9263 122.773 77.1082 122.773C77.3334 122.773 77.5413 122.661 77.6539 122.479C77.6798 122.444 77.6972 122.41 77.7145 122.367C77.7405 122.306 77.7578 122.237 77.7578 122.168C77.7578 122.15 77.7578 122.133 77.7578 122.107V120.982C77.7578 120.809 77.6885 120.662 77.5846 120.541C77.4633 120.403 77.2901 120.316 77.0909 120.316L77.1082 120.334Z" fill="white"/>
<path d="M77.1082 120.334C76.8917 120.334 76.7011 120.437 76.5799 120.593C76.5019 120.697 76.45 120.827 76.45 120.965C76.45 120.974 76.45 120.982 76.45 120.991V122.116C76.45 122.297 76.5279 122.462 76.6405 122.583C76.7618 122.704 76.9263 122.773 77.1082 122.773C77.3334 122.773 77.5413 122.661 77.6539 122.479C77.6798 122.444 77.6972 122.41 77.7145 122.367C77.7405 122.306 77.7578 122.237 77.7578 122.168C77.7578 122.15 77.7578 122.133 77.7578 122.107V120.982C77.7578 120.809 77.6885 120.662 77.5846 120.541C77.4633 120.403 77.2901 120.316 77.0909 120.316L77.1082 120.334Z" fill="black"/>
<path d="M77.7745 120.992C77.7745 120.818 77.7053 120.671 77.6013 120.55C77.7053 120.663 77.7745 120.818 77.7745 120.992Z" fill="#F0BA87"/>
<path d="M77.7745 120.992C77.7745 120.818 77.7053 120.671 77.6013 120.55C77.7053 120.663 77.7745 120.818 77.7745 120.992Z" fill="black"/>
<path d="M71.022 123.318C71.1692 123.361 71.3337 123.396 71.5068 123.396C71.6194 123.396 71.7232 123.379 71.8271 123.361C72.1907 123.292 72.4937 123.102 72.6495 122.851C72.7275 122.721 72.7794 122.583 72.7794 122.436C72.7794 122.142 72.5976 121.874 72.3206 121.701C72.0955 121.562 71.8098 121.476 71.4982 121.476C70.7969 121.476 70.2256 121.908 70.2256 122.436C70.2256 122.669 70.3381 122.886 70.5199 123.05C70.5545 123.085 70.5892 123.102 70.6325 123.137C70.745 123.214 70.8749 123.284 71.0134 123.327L71.022 123.318Z" fill="white"/>
<path d="M71.022 123.318C71.1692 123.361 71.3337 123.396 71.5068 123.396C71.6194 123.396 71.7232 123.379 71.8271 123.361C72.1907 123.292 72.4937 123.102 72.6495 122.851C72.7275 122.721 72.7794 122.583 72.7794 122.436C72.7794 122.142 72.5976 121.874 72.3206 121.701C72.0955 121.562 71.8098 121.476 71.4982 121.476C70.7969 121.476 70.2256 121.908 70.2256 122.436C70.2256 122.669 70.3381 122.886 70.5199 123.05C70.5545 123.085 70.5892 123.102 70.6325 123.137C70.745 123.214 70.8749 123.284 71.0134 123.327L71.022 123.318Z" fill="black"/>
<path d="M71.5071 123.396C71.3339 123.396 71.1693 123.37 71.0221 123.318C71.1693 123.362 71.3339 123.396 71.5071 123.396Z" fill="#F0BA87"/>
<path d="M71.5071 123.396C71.3339 123.396 71.1693 123.37 71.0221 123.318C71.1693 123.362 71.3339 123.396 71.5071 123.396Z" fill="black"/>
<path d="M58.4781 132.912C58.9369 132.825 59.2659 132.427 59.2659 131.96C59.2659 131.692 59.162 131.45 58.9802 131.277C58.807 131.095 58.5646 130.991 58.2963 130.991H53.18C52.877 130.991 52.5913 131.043 52.323 131.121C51.1975 131.485 50.3838 132.54 50.3838 133.786H53.8812L58.4781 132.903V132.912Z" fill="#FCC510"/>
<path d="M49.2065 140.724L48.9121 142.489L48.2888 146.286H54.1409L54.115 144.971L53.8812 133.786H50.3492L49.2065 140.724Z" fill="#B1191E"/>
<path d="M48.7736 140.551C48.7736 140.551 48.7562 140.551 48.7476 140.551C48.1589 140.326 47.527 140.153 46.8777 140.006C46.4102 139.902 45.9341 139.798 45.432 139.738C45.432 139.962 45.3887 140.17 45.3281 140.369C45.1896 140.802 44.9125 141.174 44.5576 141.442C44.2027 141.71 43.7525 141.866 43.2677 141.866C42.7829 141.866 42.3414 141.71 41.9865 141.442C41.6315 141.174 41.3545 140.802 41.216 140.369C41.1554 140.17 41.1121 139.954 41.1121 139.738C39.7357 139.919 38.4458 140.274 37.2944 140.767C36.3594 141.165 35.5024 141.649 34.7665 142.22C33.3122 143.328 32.3079 144.738 31.9617 146.295H48.2888L48.9121 142.497L49.2064 140.732C49.0679 140.672 48.9294 140.62 48.7909 140.568C48.7909 140.568 48.7822 140.568 48.7736 140.568V140.551Z" fill="#E20613"/>
<path d="M47.0421 130.014C46.3582 130.014 45.8042 130.568 45.8042 131.251C45.8042 131.623 45.9687 131.952 46.2284 132.185C46.4448 132.376 46.7305 132.497 47.0421 132.497C47.7261 132.497 48.2801 131.943 48.2801 131.26C48.2801 130.862 48.0896 130.516 47.7953 130.282C47.5875 130.118 47.3278 130.014 47.0421 130.014Z" fill="#3D3C3B"/>
<path d="M41.2161 140.36C41.3546 140.793 41.6316 141.165 41.9865 141.433C42.3415 141.701 42.7916 141.857 43.2678 141.857C43.7439 141.857 44.1941 141.701 44.5577 141.433C44.9126 141.165 45.1896 140.793 45.3281 140.36C45.3887 140.161 45.432 139.945 45.432 139.729V139.184C45.0944 139.314 44.7395 139.409 44.3759 139.478C44.0123 139.547 43.6487 139.582 43.2678 139.582C43.0513 139.582 42.8436 139.564 42.6358 139.547C42.1856 139.504 41.7441 139.4 41.3199 139.253C41.2507 139.227 41.1728 139.21 41.1035 139.184V139.729C41.1035 139.954 41.1468 140.161 41.2074 140.36H41.2161Z" fill="#A07A15"/>
<path d="M42.6357 139.547C42.8435 139.573 43.0513 139.582 43.2677 139.582C43.6399 139.582 44.0122 139.547 44.3758 139.478C44.7394 139.409 45.0857 139.314 45.4319 139.184C45.7869 139.045 46.1331 138.881 46.4708 138.682C48.7908 137.307 50.3837 134.486 50.3837 131.225C50.3837 131.19 50.3837 131.156 50.3837 131.121C50.3837 131.113 50.3837 131.095 50.3837 131.087C50.3837 131.061 50.3837 131.043 50.3837 131.017C50.3837 131.009 50.3837 130.991 50.3837 130.983C50.3837 130.957 50.3837 130.931 50.3837 130.914C50.3837 130.905 50.3837 130.888 50.3837 130.879C50.3837 130.844 50.3837 130.81 50.3837 130.784C50.3837 130.749 50.3837 130.715 50.3837 130.68C50.3837 130.68 50.3837 130.663 50.3837 130.654V130.637C50.3837 130.619 50.3837 130.594 50.3837 130.576C50.3837 130.568 50.3837 130.559 50.3837 130.542C50.3837 130.524 50.3837 130.507 50.3837 130.49C50.3837 130.49 50.3837 130.481 50.3837 130.472C50.3837 130.464 50.3837 130.446 50.3837 130.438C50.3837 130.412 50.3837 130.386 50.3837 130.36C50.3837 130.351 50.3837 130.343 50.3837 130.334C50.3837 130.299 50.3837 130.265 50.3751 130.23V130.213C50.3751 130.187 50.3751 130.161 50.3751 130.135C50.3751 130.126 50.3751 130.109 50.3751 130.1C50.3751 130.1 50.3751 130.092 50.3751 130.083C50.3751 130.066 50.3751 130.049 50.3751 130.031V130.005C50.3751 130.005 50.3751 130.005 50.3751 129.997C50.3751 129.971 50.3751 129.945 50.3664 129.927C50.3664 129.919 50.3664 129.91 50.3664 129.901C50.3664 129.867 50.3578 129.832 50.3491 129.806C50.3491 129.806 50.3491 129.789 50.3491 129.78C50.3491 129.754 50.3491 129.728 50.3405 129.702C50.3405 129.694 50.3405 129.677 50.3405 129.668C50.3405 129.642 50.3404 129.625 50.3318 129.599C50.3318 129.59 50.3318 129.573 50.3318 129.564C50.3318 129.538 50.3318 129.521 50.3231 129.495C50.3231 129.486 50.3231 129.478 50.3231 129.46C50.3231 129.426 50.3145 129.391 50.3058 129.365C50.3058 129.365 50.3058 129.356 50.3058 129.348C50.3058 129.322 50.2972 129.296 50.2885 129.261C50.2885 129.253 50.2885 129.235 50.2885 129.227C50.2885 129.201 50.2798 129.183 50.2712 129.157C50.2712 129.149 50.2712 129.132 50.2712 129.123C50.2712 129.097 50.2625 129.08 50.2539 129.054V129.019C50.2539 129.019 50.2366 128.967 50.2279 128.941C50.2279 128.941 50.2279 128.933 50.2279 128.924C50.2279 128.889 50.2106 128.863 50.2019 128.829C50.2019 128.829 50.2019 128.811 50.2019 128.803C50.2019 128.785 50.1933 128.768 50.1846 128.751V128.734C50.1846 128.734 50.176 128.708 50.176 128.699C50.176 128.682 50.1673 128.656 50.1587 128.638C50.1587 128.63 50.1587 128.612 50.15 128.604C50.15 128.578 50.1327 128.552 50.1327 128.535V128.517C50.1327 128.491 50.1154 128.457 50.1067 128.431C49.9942 128.067 49.7258 127.773 49.3709 127.635C49.3276 127.618 49.293 127.6 49.2497 127.583C49.241 127.583 49.2324 127.583 49.2237 127.574C49.1977 127.566 49.1631 127.548 49.1371 127.54C49.1285 127.54 49.1112 127.531 49.1025 127.522C49.0765 127.514 49.0506 127.497 49.0246 127.488C49.0159 127.488 48.9986 127.479 48.99 127.471C48.964 127.453 48.9294 127.445 48.9034 127.427C48.9034 127.427 48.8861 127.427 48.8774 127.419C48.8774 127.419 48.8601 127.41 48.8514 127.401C48.8255 127.384 48.7995 127.375 48.7649 127.358H48.7476V127.349C48.7216 127.332 48.687 127.323 48.661 127.306C48.6523 127.306 48.635 127.298 48.6264 127.289C48.6264 127.289 48.6177 127.289 48.6091 127.28C48.5917 127.272 48.5744 127.263 48.5485 127.254L48.5225 127.237C48.4965 127.22 48.4705 127.211 48.4446 127.194C48.4359 127.194 48.4273 127.185 48.4186 127.176C48.384 127.159 48.3493 127.133 48.3147 127.116C48.3147 127.116 48.3061 127.116 48.2974 127.116C48.2714 127.099 48.2368 127.081 48.2022 127.064C48.1935 127.064 48.1762 127.047 48.1675 127.047C48.1416 127.029 48.1243 127.021 48.0983 127.003C48.0896 127.003 48.0723 126.986 48.0637 126.977C48.0377 126.96 48.0117 126.951 47.9944 126.934C47.9857 126.934 47.9771 126.917 47.9598 126.917C47.9425 126.9 47.9165 126.891 47.8992 126.874C47.8559 126.839 47.8039 126.813 47.7607 126.778C47.7607 126.778 47.752 126.778 47.7434 126.77C47.7174 126.753 47.7001 126.735 47.6741 126.718C47.6654 126.718 47.6481 126.701 47.6395 126.692C47.6395 126.692 47.6308 126.692 47.6222 126.683C47.6048 126.666 47.5875 126.657 47.5702 126.64L47.5442 126.623C47.5183 126.597 47.4836 126.58 47.4577 126.554C47.423 126.528 47.3971 126.502 47.3624 126.476C47.3624 126.476 47.3451 126.458 47.3365 126.458L47.3192 126.441C47.3192 126.441 47.2845 126.415 47.2759 126.406C47.2672 126.406 47.2586 126.389 47.2412 126.381C47.2239 126.363 47.2066 126.355 47.198 126.337H47.1806C47.1806 126.337 47.1633 126.311 47.1547 126.303C47.1287 126.285 47.1027 126.259 47.0768 126.233C47.0768 126.233 47.0681 126.233 47.0594 126.216C47.0335 126.19 46.9988 126.164 46.9729 126.138C46.9729 126.138 46.9642 126.13 46.9556 126.121C46.9296 126.104 46.9123 126.078 46.8863 126.06C46.8777 126.052 46.869 126.043 46.8603 126.035C46.843 126.017 46.8257 126 46.7997 125.983C46.7911 125.974 46.7824 125.965 46.7738 125.957C46.7565 125.939 46.7305 125.913 46.7132 125.896C46.7132 125.896 46.6959 125.879 46.6959 125.87C46.6699 125.844 46.6439 125.81 46.6179 125.784C46.6179 125.784 46.6179 125.784 46.6093 125.775C46.5833 125.749 46.566 125.723 46.54 125.706C46.5314 125.697 46.5227 125.688 46.5141 125.68C46.4967 125.663 46.4794 125.637 46.4621 125.619L46.4361 125.593C46.4361 125.593 46.4015 125.55 46.3842 125.533L46.3669 125.507C46.3669 125.507 46.3149 125.446 46.2976 125.42C46.2976 125.42 46.289 125.403 46.2803 125.394C46.263 125.368 46.2457 125.351 46.2284 125.325C46.2284 125.325 46.2197 125.316 46.2111 125.308C46.1937 125.282 46.1764 125.265 46.1591 125.239C46.1591 125.239 46.1591 125.23 46.1505 125.221C45.9081 124.893 45.5531 124.72 45.1809 124.694C44.9991 124.685 44.8173 124.711 44.6441 124.78C44.471 124.849 44.3065 124.962 44.1767 125.109C44.1594 125.126 44.142 125.152 44.1247 125.169C44.1247 125.169 44.1247 125.178 44.1161 125.187C44.0901 125.213 44.0641 125.239 44.0382 125.273C44.0382 125.273 44.0208 125.291 44.0122 125.299C43.9949 125.316 43.9689 125.342 43.9516 125.36C43.9516 125.36 43.9343 125.377 43.9256 125.386C43.8996 125.412 43.8737 125.438 43.8477 125.464C43.8217 125.49 43.7871 125.515 43.7611 125.55L43.7438 125.567C43.7438 125.567 43.7005 125.611 43.6746 125.628C43.6746 125.628 43.6572 125.645 43.6486 125.654C43.6226 125.68 43.5967 125.697 43.5707 125.723C43.5707 125.723 43.562 125.723 43.5534 125.732C43.5534 125.732 43.536 125.74 43.5274 125.749C43.5014 125.766 43.4841 125.784 43.4581 125.81C43.4581 125.81 43.4495 125.818 43.4408 125.827C43.4149 125.844 43.3975 125.861 43.3716 125.887C43.3629 125.887 43.3543 125.905 43.3456 125.913C43.3196 125.931 43.3023 125.948 43.2763 125.965C43.2763 125.965 43.259 125.983 43.2504 125.983C43.2157 126.009 43.1898 126.035 43.1551 126.052C43.1551 126.052 43.1378 126.06 43.1378 126.069C43.1119 126.086 43.0859 126.104 43.0599 126.13C43.0513 126.13 43.0426 126.147 43.0339 126.156C43.008 126.173 42.982 126.19 42.956 126.208C42.956 126.208 42.9387 126.216 42.9301 126.225C42.8954 126.251 42.8608 126.268 42.8262 126.294C42.7915 126.311 42.7656 126.337 42.7309 126.355C42.7223 126.355 42.7136 126.372 42.6963 126.372C42.6963 126.372 42.653 126.406 42.6271 126.415C42.6271 126.415 42.6271 126.415 42.6184 126.415C42.6184 126.415 42.6011 126.424 42.5924 126.432C42.5232 126.476 42.4539 126.519 42.3847 126.554C42.376 126.554 42.3674 126.562 42.35 126.571C42.3241 126.588 42.2981 126.597 42.2721 126.614C42.2635 126.614 42.2548 126.623 42.2375 126.631C42.2375 126.631 42.2202 126.631 42.2115 126.64C42.1856 126.649 42.1682 126.666 42.1423 126.675C42.1423 126.675 42.1423 126.675 42.1336 126.675C42.099 126.692 42.0644 126.709 42.0211 126.735C42.0124 126.735 42.0038 126.744 41.9951 126.753C41.9691 126.77 41.9432 126.778 41.9172 126.796C41.8999 126.796 41.8912 126.813 41.8739 126.813C41.8739 126.813 41.8652 126.813 41.8566 126.813C41.8393 126.822 41.8133 126.83 41.7873 126.848C41.7873 126.848 41.77 126.848 41.7614 126.856C41.7267 126.874 41.6835 126.891 41.6488 126.908C41.6488 126.908 41.6315 126.908 41.6315 126.917C41.6315 126.917 41.6142 126.917 41.6055 126.926C41.5882 126.934 41.5623 126.943 41.5449 126.952L41.5103 126.969C41.5103 126.969 41.4497 126.995 41.4237 127.003C41.4151 127.003 41.4064 127.003 41.3978 127.012C41.3545 127.029 41.3199 127.047 41.2766 127.055C41.2766 127.055 41.2593 127.055 41.2506 127.055C41.216 127.064 41.1813 127.081 41.1554 127.09C41.1467 127.09 41.1294 127.099 41.1207 127.107C41.0948 127.116 41.0602 127.125 41.0342 127.142C41.0255 127.142 41.0082 127.142 40.9996 127.15C40.9909 127.15 40.9822 127.15 40.9736 127.159C40.9476 127.168 40.913 127.176 40.8784 127.194C40.8784 127.194 40.8697 127.194 40.861 127.194C40.8264 127.202 40.7918 127.22 40.7572 127.228C40.7485 127.228 40.7312 127.228 40.7139 127.237C40.6879 127.246 40.6533 127.254 40.6273 127.263C40.6186 127.263 40.6013 127.263 40.5927 127.272C40.5494 127.28 40.5061 127.298 40.4542 127.306C40.4195 127.315 40.3762 127.323 40.3416 127.341C40.3416 127.341 40.333 127.341 40.3243 127.341H40.307C40.307 127.341 40.2464 127.358 40.2118 127.367C40.2031 127.367 40.1858 127.367 40.1771 127.375H40.1339C40.1339 127.375 40.0906 127.393 40.0646 127.401C40.0646 127.401 40.0646 127.401 40.0559 127.401C40.0127 127.41 39.9694 127.419 39.9261 127.427C39.9174 127.427 39.9001 127.427 39.8915 127.427C39.8568 127.427 39.8309 127.436 39.7962 127.445C39.7789 127.445 39.7703 127.445 39.7529 127.445C39.7183 127.445 39.6837 127.453 39.6491 127.462C39.6491 127.462 39.6317 127.462 39.6231 127.462C39.5798 127.462 39.5365 127.479 39.4932 127.479C39.4846 127.479 39.4673 127.479 39.4586 127.479C39.4326 127.479 39.4067 127.479 39.3807 127.488C39.3807 127.488 39.3634 127.488 39.3547 127.488C39.3374 127.488 39.3287 127.488 39.3114 127.488C39.2768 127.488 39.2422 127.497 39.2076 127.497C39.1989 127.497 39.1902 127.497 39.1816 127.497C39.1729 127.497 39.1643 127.497 39.1556 127.497C39.121 127.497 39.0864 127.497 39.0517 127.505C39.0517 127.505 39.0344 127.505 39.0258 127.505C39.0258 127.505 38.9565 127.505 38.9219 127.514H38.8786C38.8786 127.514 38.8699 127.514 38.8613 127.514C38.8353 127.514 38.8007 127.514 38.7747 127.514C38.766 127.514 38.7574 127.514 38.7401 127.514C38.6968 127.514 38.6535 127.514 38.6016 127.514C38.6016 127.514 38.5842 127.514 38.5756 127.514C38.541 127.514 38.4977 127.514 38.4631 127.514C38.4457 127.514 38.4284 127.514 38.4198 127.514C38.3851 127.514 38.3505 127.514 38.3245 127.514C38.3072 127.514 38.2986 127.514 38.2813 127.514C38.238 127.514 38.186 127.514 38.1427 127.514H38.1341C37.9609 127.514 37.8051 127.548 37.6579 127.609C37.4762 127.678 37.3117 127.799 37.1732 127.938C37.0433 128.085 36.9394 128.258 36.8788 128.457V128.474C36.8702 128.509 36.8615 128.552 36.8442 128.587C36.8442 128.595 36.8442 128.612 36.8355 128.621C36.8269 128.664 36.8096 128.716 36.8009 128.76C36.8009 128.76 36.8009 128.777 36.8009 128.785C36.7922 128.829 36.7836 128.863 36.7749 128.907C36.7749 128.915 36.7749 128.933 36.7663 128.941C36.7576 128.984 36.749 129.036 36.7317 129.08C36.723 129.132 36.7143 129.175 36.7057 129.227C36.7057 129.244 36.7057 129.253 36.7057 129.27C36.7057 129.313 36.6884 129.348 36.6884 129.391V129.417C36.6884 129.417 36.6711 129.495 36.6624 129.538C36.6624 129.547 36.6624 129.555 36.6624 129.564C36.6624 129.573 36.6624 129.59 36.6624 129.599C36.6624 129.642 36.6537 129.677 36.6451 129.72C36.6451 129.728 36.6451 129.746 36.6451 129.754C36.6451 129.806 36.6278 129.858 36.6278 129.901C36.6278 129.901 36.6278 129.91 36.6278 129.919C36.6278 129.962 36.6191 130.014 36.6105 130.057C36.6105 130.074 36.6105 130.083 36.6105 130.1C36.6105 130.144 36.6105 130.187 36.6018 130.23C36.6018 130.239 36.6018 130.247 36.6018 130.256C36.6018 130.308 36.6018 130.36 36.5931 130.403C36.5931 130.412 36.5931 130.429 36.5931 130.438C36.5931 130.481 36.5931 130.516 36.5931 130.559C36.5931 130.568 36.5931 130.585 36.5931 130.594C36.5931 130.645 36.5931 130.697 36.5931 130.749C36.5931 130.758 36.5931 130.767 36.5931 130.775C36.5931 130.818 36.5931 130.862 36.5931 130.905C36.5931 130.914 36.5931 130.931 36.5931 130.948C36.5931 131 36.5931 131.052 36.5931 131.104C36.5931 134.832 38.6708 137.99 41.5363 139.063C41.6055 139.089 41.6748 139.106 41.7527 139.132C42.1769 139.27 42.6184 139.374 43.0686 139.426L42.6357 139.547ZM47.0421 132.497C46.7305 132.497 46.4448 132.376 46.2284 132.185C45.9687 131.96 45.8042 131.632 45.8042 131.251C45.8042 130.568 46.3582 130.014 47.0421 130.014C47.3278 130.014 47.5875 130.118 47.7953 130.282C48.0896 130.507 48.2801 130.862 48.2801 131.26C48.2801 131.943 47.726 132.497 47.0421 132.497ZM45.1376 128.984C45.2934 128.829 45.4666 128.699 45.6484 128.587C46.1418 128.292 46.7045 128.163 47.2586 128.206C47.8126 128.249 48.358 128.465 48.7995 128.846C48.8514 128.889 48.9034 128.933 48.9467 128.984C48.9726 129.01 48.99 129.045 49.0073 129.071C49.0938 129.227 49.0852 129.434 48.9467 129.564C48.9294 129.581 48.912 129.581 48.8947 129.599C48.8255 129.651 48.7389 129.685 48.6523 129.685C48.5571 129.685 48.4705 129.651 48.3926 129.59C48.384 129.581 48.3667 129.581 48.358 129.564C48.1762 129.382 47.9684 129.244 47.7434 129.157C47.2932 128.976 46.7824 128.976 46.3323 129.157C46.1072 129.253 45.8994 129.382 45.709 129.564C45.6484 129.625 45.5791 129.633 45.5012 129.651C45.4752 129.651 45.4492 129.685 45.4146 129.685C45.3107 129.685 45.2068 129.642 45.1203 129.564C45.1203 129.564 45.103 129.529 45.0857 129.521C45.0597 129.495 45.0424 129.46 45.0251 129.434C44.9645 129.287 44.9991 129.106 45.1116 128.984H45.1376ZM42.6963 133.665C42.8435 133.595 43.0426 133.552 43.2763 133.552C43.5187 133.552 43.7352 133.604 43.8823 133.682C43.9776 133.734 44.0468 133.794 44.0728 133.864C44.0814 133.89 44.0901 133.915 44.0901 133.941C44.0901 134.158 43.7265 134.331 43.2677 134.331C42.8695 134.331 42.5492 134.201 42.4712 134.019C42.4626 133.993 42.4539 133.967 42.4539 133.941C42.4539 133.838 42.5405 133.734 42.6877 133.665H42.6963ZM37.883 129.685C37.8138 129.685 37.7445 129.659 37.6839 129.625C37.6493 129.607 37.6233 129.59 37.5887 129.564C37.4242 129.4 37.4242 129.14 37.5887 128.976C37.7791 128.785 37.9956 128.63 38.2293 128.5C38.6189 128.292 39.0517 128.18 39.5019 128.18C40.2204 128.18 40.9043 128.457 41.4064 128.967C41.4324 128.993 41.4497 129.028 41.467 129.054C41.5536 129.209 41.5449 129.417 41.4064 129.547C41.3285 129.625 41.2246 129.668 41.1121 129.668C41.0775 129.668 41.0601 129.642 41.0255 129.633C40.9563 129.616 40.8784 129.607 40.8178 129.547C40.7658 129.495 40.7052 129.443 40.6446 129.391C40.3156 129.14 39.9174 128.993 39.4932 128.993C38.9911 128.993 38.5236 129.183 38.1687 129.538C38.0908 129.616 37.9869 129.659 37.8744 129.659L37.883 129.685ZM40.1944 132.28C39.9953 132.41 39.7616 132.488 39.5019 132.488C39.3288 132.488 39.1643 132.453 39.0171 132.393C38.7228 132.272 38.4804 132.03 38.3592 131.735C38.2986 131.588 38.2639 131.424 38.2639 131.251C38.2639 130.818 38.4804 130.446 38.8093 130.222C39.0084 130.092 39.2422 130.014 39.5019 130.014C40.1858 130.014 40.7398 130.568 40.7398 131.251C40.7398 131.684 40.5234 132.056 40.1944 132.28ZM40.9043 135.897C40.8264 135.819 40.7831 135.706 40.7831 135.602C40.7831 135.499 40.8264 135.395 40.9043 135.308C40.9649 135.248 41.0342 135.213 41.1121 135.196C41.1467 135.196 41.1813 135.187 41.216 135.187C41.3199 135.187 41.4151 135.23 41.493 135.308C41.6142 135.429 41.7441 135.542 41.8912 135.628C42.1336 135.793 42.402 135.905 42.679 135.974C43.5101 136.173 44.4191 135.957 45.0683 135.308C45.1463 135.23 45.2415 135.196 45.3454 135.187C45.38 135.187 45.4146 135.187 45.4406 135.187C45.5185 135.204 45.5878 135.239 45.6484 135.3C45.8128 135.464 45.8128 135.723 45.6484 135.888C45.5791 135.957 45.5098 136.018 45.4406 136.078C44.8173 136.606 44.0468 136.865 43.2763 136.865C42.5059 136.865 41.7354 136.606 41.1121 136.078C41.0428 136.018 40.9736 135.957 40.9043 135.888V135.897Z" fill="#FCC510"/>
<path d="M43.2768 134.332C43.7272 134.332 44.0996 134.158 44.0996 133.942C44.0996 133.916 44.0996 133.89 44.0823 133.864C44.0563 133.795 43.987 133.734 43.8917 133.682C43.7445 133.604 43.528 133.552 43.2855 133.552C43.0603 133.552 42.8524 133.595 42.7052 133.665C42.5579 133.734 42.4713 133.838 42.4713 133.942C42.4713 133.968 42.4713 133.994 42.4886 134.02C42.5666 134.202 42.8957 134.332 43.2855 134.332H43.2768Z" fill="#A07A15"/>
<path d="M47.7261 122.055C47.3452 121.675 47.0509 121.233 46.8431 120.766C46.592 120.195 46.4622 119.59 46.4708 118.975C46.1419 118.898 45.8043 118.846 45.4666 118.811C45.3714 118.802 45.2762 118.794 45.1723 118.785C45.0338 118.776 44.8 118.768 44.6615 118.768H41.8826C37.5368 118.768 34.0134 122.289 34.0134 126.631V126.761L34.7666 142.203C35.5024 141.641 36.3508 141.148 37.2944 140.75C38.4545 140.257 39.7357 139.902 41.1122 139.72V139.175C38.2467 138.103 36.169 134.945 36.169 131.216C36.169 131.165 36.169 131.113 36.169 131.061C36.169 131.043 36.169 131.035 36.169 131.017C36.169 130.974 36.169 130.931 36.169 130.888C36.169 130.879 36.169 130.87 36.169 130.862C36.169 130.81 36.169 130.758 36.169 130.706C36.169 130.697 36.169 130.68 36.169 130.671C36.169 130.628 36.169 130.594 36.169 130.55C36.169 130.542 36.169 130.524 36.169 130.516C36.169 130.464 36.169 130.412 36.1777 130.369C36.1777 130.36 36.1777 130.351 36.1777 130.343C36.1777 130.299 36.1777 130.256 36.1863 130.213C36.1863 130.196 36.1863 130.187 36.1863 130.17C36.1863 130.126 36.195 130.075 36.2036 130.031C36.2036 130.031 36.2036 130.023 36.2036 130.014C36.2036 129.962 36.2123 129.91 36.221 129.867C36.221 129.858 36.221 129.841 36.221 129.832C36.221 129.789 36.2296 129.754 36.2383 129.711C36.2383 129.703 36.2383 129.685 36.2383 129.677C36.2383 129.668 36.2383 129.659 36.2383 129.651C36.2383 129.607 36.2469 129.573 36.2556 129.53V129.504C36.2556 129.46 36.2729 129.426 36.2729 129.382C36.2729 129.365 36.2729 129.356 36.2729 129.339C36.2816 129.287 36.2902 129.244 36.2989 129.192C36.3075 129.149 36.3162 129.097 36.3335 129.054C36.3335 129.045 36.3335 129.028 36.3422 129.019C36.3422 128.976 36.3595 128.941 36.3681 128.898C36.3681 128.898 36.3681 128.881 36.3681 128.872C36.3768 128.829 36.3941 128.777 36.4028 128.734C36.4028 128.725 36.4028 128.708 36.4114 128.699C36.4201 128.664 36.4287 128.621 36.446 128.587C36.446 128.587 36.446 128.578 36.446 128.569C36.5066 128.37 36.6019 128.197 36.7404 128.05C36.8702 127.903 37.0347 127.791 37.2252 127.721C37.3723 127.661 37.5368 127.626 37.7013 127.626H37.71C37.7533 127.626 37.8052 127.626 37.8485 127.626C37.8658 127.626 37.8744 127.626 37.8918 127.626C37.9264 127.626 37.961 127.626 37.987 127.626C38.0043 127.626 38.013 127.626 38.0303 127.626C38.0649 127.626 38.0995 127.626 38.1428 127.626C38.1428 127.626 38.1601 127.626 38.1688 127.626C38.2121 127.626 38.2554 127.626 38.3073 127.626C38.316 127.626 38.3246 127.626 38.3419 127.626C38.3679 127.626 38.4025 127.626 38.4285 127.626C38.4285 127.626 38.4372 127.626 38.4458 127.626H38.4891C38.4891 127.626 38.5584 127.618 38.593 127.609C38.593 127.609 38.6103 127.609 38.6189 127.609C38.6536 127.609 38.6882 127.609 38.7228 127.6C38.7315 127.6 38.7401 127.6 38.7488 127.6C38.7575 127.6 38.7661 127.6 38.7748 127.6C38.8094 127.6 38.844 127.6 38.8787 127.592C38.896 127.592 38.9046 127.592 38.9219 127.592C38.9219 127.592 38.9393 127.592 38.9479 127.592C38.9739 127.592 38.9999 127.592 39.0258 127.583C39.0345 127.583 39.0518 127.583 39.0605 127.583C39.1037 127.583 39.147 127.566 39.1903 127.566C39.1903 127.566 39.2076 127.566 39.2163 127.566C39.2509 127.566 39.2855 127.557 39.3202 127.548C39.3375 127.548 39.3461 127.548 39.3635 127.548C39.3981 127.548 39.4241 127.54 39.4587 127.531C39.4673 127.531 39.4846 127.531 39.4933 127.531C39.5366 127.531 39.5799 127.514 39.6232 127.505C39.6232 127.505 39.6232 127.505 39.6318 127.505C39.6578 127.505 39.6751 127.497 39.7011 127.488H39.7444C39.7444 127.488 39.7703 127.471 39.779 127.471C39.8136 127.471 39.8396 127.453 39.8742 127.445H39.8915C39.8915 127.445 39.9002 127.445 39.9088 127.436C39.9435 127.427 39.9868 127.419 40.0214 127.401C40.0647 127.393 40.108 127.375 40.1599 127.367C40.1686 127.367 40.1859 127.367 40.1945 127.358C40.2205 127.358 40.2551 127.341 40.2811 127.332C40.2897 127.332 40.3071 127.332 40.3244 127.324C40.359 127.315 40.3936 127.298 40.4283 127.289C40.4283 127.289 40.4369 127.289 40.4456 127.289C40.4715 127.28 40.5062 127.272 40.5408 127.254C40.5495 127.254 40.5581 127.254 40.5668 127.246C40.5754 127.246 40.5927 127.246 40.6014 127.237C40.6274 127.228 40.662 127.22 40.688 127.202C40.6966 127.202 40.7139 127.194 40.7226 127.185C40.7572 127.176 40.7919 127.159 40.8178 127.151C40.8178 127.151 40.8351 127.151 40.8438 127.151C40.8871 127.133 40.9217 127.116 40.965 127.107C40.9737 127.107 40.9823 127.107 40.991 127.099C41.0169 127.09 41.0516 127.073 41.0775 127.064L41.1122 127.047C41.1122 127.047 41.1554 127.029 41.1728 127.021C41.1728 127.021 41.1901 127.021 41.1987 127.012C41.1987 127.012 41.216 127.012 41.216 127.003C41.2507 126.986 41.294 126.969 41.3286 126.952C41.3286 126.952 41.3459 126.952 41.3546 126.943C41.3805 126.934 41.3978 126.926 41.4238 126.908C41.4238 126.908 41.4325 126.908 41.4411 126.908C41.4584 126.908 41.4671 126.891 41.4844 126.891C41.5104 126.874 41.5364 126.865 41.5623 126.848C41.571 126.848 41.5796 126.839 41.5883 126.83C41.6229 126.813 41.6662 126.796 41.7008 126.77C41.7008 126.77 41.7008 126.77 41.7095 126.77C41.7355 126.761 41.7528 126.744 41.7788 126.735C41.7788 126.735 41.7961 126.735 41.8047 126.727C41.8134 126.727 41.822 126.718 41.8394 126.709C41.8653 126.692 41.8913 126.683 41.9173 126.666C41.9259 126.666 41.9346 126.657 41.9519 126.649C42.0211 126.606 42.0904 126.562 42.1597 126.528C42.1597 126.528 42.177 126.519 42.1856 126.51C42.1856 126.51 42.1856 126.51 42.1943 126.51C42.2203 126.493 42.2376 126.484 42.2635 126.467C42.2635 126.467 42.2809 126.45 42.2982 126.441C42.3328 126.424 42.3588 126.398 42.3934 126.381C42.428 126.355 42.4627 126.337 42.4973 126.311C42.5059 126.311 42.5146 126.303 42.5233 126.294C42.5492 126.277 42.5752 126.259 42.6012 126.242C42.6098 126.242 42.6185 126.225 42.6271 126.216C42.6531 126.199 42.6791 126.182 42.7051 126.156C42.7051 126.156 42.7224 126.147 42.7224 126.138C42.757 126.112 42.783 126.095 42.8176 126.069C42.8176 126.069 42.8349 126.052 42.8436 126.052C42.8695 126.035 42.8868 126.017 42.9128 126C42.9215 126 42.9301 125.983 42.9388 125.974C42.9648 125.957 42.9821 125.939 43.008 125.913C43.008 125.913 43.0167 125.905 43.0254 125.896C43.0513 125.879 43.0686 125.862 43.0946 125.836C43.0946 125.836 43.1119 125.827 43.1206 125.818C43.1206 125.818 43.1292 125.81 43.1379 125.81C43.1639 125.784 43.1898 125.766 43.2158 125.74C43.2158 125.74 43.2331 125.723 43.2418 125.714C43.2678 125.697 43.2851 125.671 43.311 125.654L43.3284 125.637C43.3284 125.637 43.389 125.585 43.4149 125.55C43.4409 125.524 43.4669 125.498 43.4928 125.472C43.4928 125.472 43.5102 125.455 43.5188 125.446C43.5361 125.429 43.5621 125.403 43.5794 125.386C43.5794 125.386 43.5967 125.368 43.6054 125.36C43.6313 125.334 43.6573 125.308 43.6833 125.273C43.6833 125.273 43.6833 125.265 43.6919 125.256C43.7093 125.239 43.7266 125.221 43.7439 125.195C43.8824 125.048 44.0382 124.936 44.2114 124.867C44.3845 124.797 44.5663 124.763 44.7481 124.78C45.1117 124.797 45.4666 124.979 45.7177 125.308C45.7177 125.308 45.7177 125.317 45.7263 125.325C45.7437 125.351 45.761 125.368 45.7783 125.394C45.7783 125.394 45.7869 125.403 45.7956 125.412C45.8129 125.438 45.8302 125.455 45.8475 125.481C45.8475 125.481 45.8562 125.498 45.8649 125.507C45.8908 125.533 45.9168 125.567 45.9341 125.593L45.9514 125.619C45.9514 125.619 45.9861 125.663 46.0034 125.68C46.0034 125.689 46.0207 125.697 46.0293 125.706C46.0466 125.723 46.064 125.749 46.0813 125.766C46.0813 125.775 46.0986 125.784 46.1072 125.792C46.1246 125.818 46.1505 125.844 46.1765 125.862C46.1765 125.862 46.1765 125.862 46.1852 125.87C46.2111 125.896 46.2371 125.931 46.2631 125.957C46.2631 125.957 46.2804 125.974 46.2804 125.983C46.2977 126 46.3237 126.026 46.341 126.043C46.3496 126.052 46.3583 126.061 46.367 126.069C46.3843 126.086 46.4016 126.104 46.4276 126.121C46.4362 126.13 46.4449 126.138 46.4535 126.147C46.4795 126.164 46.4968 126.19 46.5228 126.208C46.5228 126.208 46.5314 126.216 46.5401 126.225C46.5661 126.251 46.6007 126.277 46.6267 126.303C46.6267 126.303 46.6353 126.311 46.644 126.32C46.67 126.346 46.6959 126.363 46.7219 126.389C46.7306 126.389 46.7392 126.407 46.7479 126.415C46.7479 126.415 46.7565 126.415 46.7652 126.424C46.7825 126.441 46.7998 126.45 46.8085 126.467C46.8171 126.467 46.8258 126.484 46.8431 126.493C46.8604 126.51 46.8777 126.519 46.8864 126.528L46.9037 126.545C46.9037 126.545 46.921 126.562 46.9297 126.562C46.9643 126.588 46.9903 126.614 47.0249 126.64C47.0509 126.666 47.0855 126.683 47.1115 126.709L47.1374 126.727C47.1374 126.727 47.1721 126.753 47.1894 126.77C47.1894 126.77 47.1894 126.77 47.2067 126.779C47.2153 126.779 47.224 126.796 47.2413 126.804C47.2673 126.822 47.2846 126.839 47.3106 126.856C47.3106 126.856 47.3192 126.856 47.3279 126.865C47.3712 126.9 47.4231 126.926 47.4664 126.96C47.4837 126.978 47.5097 126.986 47.527 127.003C47.5357 127.003 47.5443 127.021 47.5616 127.021C47.5876 127.038 47.6049 127.055 47.6309 127.064C47.6395 127.064 47.6569 127.081 47.6655 127.09C47.6915 127.107 47.7088 127.116 47.7348 127.133C47.7434 127.133 47.7607 127.151 47.7694 127.151C47.7954 127.168 47.83 127.185 47.8646 127.202C47.8646 127.202 47.8733 127.202 47.8819 127.202C47.9166 127.22 47.9512 127.246 47.9858 127.263C47.9945 127.263 48.0031 127.272 48.0118 127.28C48.0378 127.298 48.0637 127.306 48.0897 127.324L48.1157 127.341C48.1157 127.341 48.1503 127.358 48.1763 127.367C48.1763 127.367 48.1849 127.367 48.1936 127.375C48.2022 127.375 48.2196 127.384 48.2282 127.393C48.2542 127.41 48.2888 127.419 48.3148 127.436H48.3321C48.3321 127.436 48.384 127.471 48.4187 127.488C48.4273 127.488 48.436 127.497 48.4446 127.505C48.4446 127.505 48.462 127.505 48.4706 127.514C48.4966 127.531 48.5312 127.54 48.5572 127.557C48.5658 127.557 48.5832 127.566 48.5918 127.574C48.6178 127.583 48.6438 127.6 48.6697 127.609C48.6784 127.609 48.6957 127.618 48.7043 127.626C48.7303 127.635 48.7649 127.652 48.7909 127.661C48.7996 127.661 48.8082 127.661 48.8169 127.67C48.8602 127.687 48.8948 127.704 48.9381 127.721C49.293 127.86 49.5614 128.154 49.6739 128.517C49.6739 128.517 49.6912 128.578 49.6999 128.604V128.621C49.6999 128.647 49.7172 128.673 49.7172 128.699C49.7172 128.708 49.7172 128.725 49.7259 128.734C49.7259 128.751 49.7345 128.777 49.7432 128.794C49.7432 128.803 49.7432 128.82 49.7518 128.829C49.7518 128.829 49.7518 128.837 49.7518 128.846C49.7518 128.863 49.7605 128.881 49.7692 128.898C49.7692 128.898 49.7692 128.915 49.7692 128.924C49.7692 128.959 49.7865 128.985 49.7951 129.019C49.7951 129.019 49.7951 129.028 49.7951 129.036C49.7951 129.062 49.8038 129.088 49.8124 129.114V129.149C49.8124 129.149 49.8298 129.192 49.8384 129.218C49.8384 129.227 49.8384 129.244 49.8384 129.253C49.8384 129.279 49.8471 129.296 49.8557 129.322C49.8557 129.331 49.8557 129.348 49.8557 129.356C49.8557 129.382 49.8644 129.408 49.873 129.443C49.873 129.443 49.873 129.452 49.873 129.46C49.873 129.495 49.8817 129.53 49.8904 129.555C49.8904 129.564 49.8904 129.573 49.8904 129.59C49.8904 129.616 49.8904 129.633 49.899 129.659C49.899 129.668 49.899 129.685 49.899 129.694C49.899 129.72 49.899 129.737 49.9077 129.763C49.9077 129.772 49.9077 129.789 49.9077 129.798C49.9077 129.824 49.9077 129.85 49.9163 129.876C49.9163 129.876 49.9163 129.893 49.9163 129.902C49.9163 129.936 49.925 129.971 49.9336 129.997V130.023C49.9336 130.023 49.9423 130.075 49.9423 130.092C49.9423 130.092 49.9423 130.092 49.9423 130.1V130.126C49.9423 130.126 49.9423 130.161 49.951 130.178C49.951 130.178 49.951 130.187 49.951 130.196C49.951 130.204 49.951 130.222 49.951 130.23C49.951 130.256 49.951 130.282 49.951 130.308V130.325V130.429C49.951 130.429 49.9596 130.447 49.9596 130.455C49.9596 130.481 49.9596 130.507 49.9596 130.533C49.9596 130.542 49.9596 130.559 49.9596 130.568C49.9596 130.568 49.9596 130.576 49.9596 130.585C49.9596 130.602 49.9596 130.62 49.9596 130.637C49.9596 130.645 49.9596 130.654 49.9596 130.671C49.9596 130.689 49.9596 130.715 49.9596 130.732V130.749C49.9596 130.749 49.9596 130.767 49.9596 130.775C49.9596 130.81 49.9596 130.844 49.9596 130.879C49.9596 130.879 49.9596 130.948 49.9596 130.983C49.9596 130.992 49.9596 131.009 49.9596 131.017C49.9596 131.043 49.9596 131.069 49.9596 131.087C49.9596 131.095 49.9596 131.113 49.9596 131.121C49.9596 131.147 49.9596 131.165 49.9596 131.19C49.9596 131.199 49.9596 131.216 49.9596 131.225C49.9596 131.26 49.9596 131.294 49.9596 131.329C49.9596 134.59 48.3667 137.41 46.0466 138.786C45.7177 138.985 45.3714 139.149 45.0078 139.288V139.833C45.5013 139.902 45.9774 139.997 46.4535 140.101C47.1028 140.248 47.7348 140.421 48.3234 140.646C48.3234 140.646 48.3408 140.646 48.3494 140.646C48.3494 140.646 48.3581 140.646 48.3667 140.646C48.5052 140.698 48.6437 140.758 48.7823 140.81L49.925 133.872H49.9596C49.9596 132.627 50.7734 131.571 51.8901 131.208L52.0373 128.284L52.0979 126.934L47.2933 122.142L47.7261 122.055Z" fill="#5C3A2D"/>
<path d="M39.5019 130.014C39.2422 130.014 39.0084 130.092 38.8093 130.222C38.4803 130.446 38.2639 130.818 38.2639 131.251C38.2639 131.424 38.2985 131.588 38.3591 131.735C38.4803 132.03 38.7227 132.272 39.0171 132.393C39.1642 132.453 39.3287 132.488 39.5019 132.488C39.7616 132.488 39.9953 132.41 40.1944 132.28C40.5234 132.056 40.7398 131.684 40.7398 131.251C40.7398 130.568 40.1858 130.014 39.5019 130.014Z" fill="#3D3C3B"/>
<path d="M40.6446 129.408C40.7052 129.452 40.7658 129.504 40.8178 129.564C40.8784 129.625 40.9476 129.633 41.0255 129.651C41.0515 129.651 41.0775 129.685 41.1121 129.685C41.216 129.685 41.3199 129.642 41.4064 129.564C41.5449 129.426 41.5536 129.227 41.467 129.071C41.4497 129.036 41.4324 129.01 41.4064 128.984C40.8957 128.474 40.2204 128.197 39.5019 128.197C39.0517 128.197 38.6189 128.31 38.2293 128.517C37.9956 128.638 37.7791 128.803 37.5887 128.993C37.4242 129.158 37.4242 129.417 37.5887 129.581C37.6147 129.607 37.6493 129.625 37.6753 129.642C37.7359 129.677 37.8051 129.703 37.8744 129.703C37.9783 129.703 38.0821 129.659 38.1687 129.581C38.5237 129.227 38.9911 129.036 39.4932 129.036C39.9174 129.036 40.3157 129.175 40.6446 129.434V129.408Z" fill="#5C3A2D"/>
<path d="M45.1376 129.564C45.2155 129.642 45.3194 129.685 45.4319 129.685C45.4665 129.685 45.4839 129.659 45.5185 129.651C45.5877 129.633 45.6656 129.625 45.7262 129.564C45.908 129.382 46.1158 129.244 46.3496 129.157C46.7997 128.976 47.3105 128.976 47.7606 129.157C47.9857 129.253 48.1935 129.382 48.3753 129.564C48.3839 129.573 48.4013 129.581 48.4099 129.59C48.4878 129.651 48.5744 129.685 48.6696 129.685C48.7562 129.685 48.8428 129.651 48.912 129.599C48.9293 129.59 48.9467 129.581 48.964 129.564C49.1025 129.426 49.1111 129.227 49.0246 129.071C49.0073 129.036 48.9899 129.01 48.964 128.984C48.912 128.933 48.8687 128.889 48.8168 128.846C48.3666 128.465 47.8299 128.249 47.2759 128.206C46.7218 128.163 46.1591 128.292 45.6656 128.587C45.4839 128.699 45.3107 128.829 45.1549 128.984C45.0337 129.106 45.0077 129.279 45.0683 129.434C45.077 129.469 45.1029 129.495 45.1289 129.521C45.1376 129.538 45.1462 129.555 45.1635 129.564H45.1376Z" fill="#5C3A2D"/>
<path d="M45.432 136.096C45.5013 136.035 45.5705 135.974 45.6398 135.905C45.8043 135.741 45.8043 135.481 45.6398 135.317C45.5792 135.256 45.5099 135.222 45.432 135.205C45.3974 135.205 45.3627 135.196 45.3368 135.205C45.2329 135.205 45.1377 135.248 45.0597 135.326C44.4105 135.966 43.5015 136.191 42.6704 135.992C42.3934 135.923 42.125 135.81 41.8826 135.646C41.7441 135.551 41.6143 135.447 41.4844 135.326C41.4065 135.248 41.3113 135.205 41.2074 135.205C41.1728 135.205 41.1381 135.205 41.1035 135.213C41.0256 135.23 40.9563 135.265 40.8957 135.326C40.8178 135.403 40.7745 135.516 40.7745 135.62C40.7745 135.724 40.8178 135.827 40.8957 135.914C40.965 135.983 41.0342 136.044 41.1035 136.104C41.7268 136.632 42.4973 136.891 43.2678 136.891C44.0382 136.891 44.8087 136.632 45.432 136.104V136.096Z" fill="#A07A15"/>
<path d="M55.4481 116.008L54.6171 116.839L53.786 116.008C52.1152 114.339 49.4056 114.339 47.7348 116.008C46.9123 116.83 46.4968 117.903 46.4795 118.975C46.4795 119.59 46.6007 120.195 46.8517 120.766C47.0595 121.233 47.3452 121.675 47.7348 122.055L49.3969 123.716L52.5394 126.856L54.6257 128.941L60.677 122.894L61.508 122.064C63.1788 120.394 63.1788 117.686 61.508 116.017C59.8372 114.347 57.1276 114.347 55.4568 116.017L55.4481 116.008Z" fill="#E20613"/>
<path d="M303.835 82.7803V121.986C303.835 123.716 302.432 125.126 300.692 125.126H256.974C255.243 125.126 253.832 123.725 253.832 121.986V82.7803C253.832 81.0501 254.775 79.64 256.515 79.64H260.342C261.026 79.64 261.58 80.1937 261.58 80.8771V82.4256C261.58 82.8149 261.398 83.1955 261.078 83.4204C260.376 83.9049 259.918 84.7181 259.918 85.6351C259.918 87.1317 261.13 88.3428 262.627 88.3428C264.125 88.3428 265.337 87.1317 265.337 85.6351C265.337 84.7181 264.878 83.9049 264.177 83.4204C263.857 83.1955 263.675 82.8235 263.675 82.4256V80.8684C263.675 80.185 264.229 79.6313 264.913 79.6313H292.745C293.429 79.6313 293.983 80.185 293.983 80.8684V82.4256C293.983 82.8149 293.801 83.1955 293.481 83.4204C292.78 83.9135 292.321 84.7181 292.321 85.6351C292.321 87.1317 293.533 88.3428 295.03 88.3428C296.528 88.3428 297.74 87.1317 297.74 85.6351C297.74 84.7181 297.281 83.9049 296.58 83.4204C296.26 83.1955 296.078 82.8235 296.078 82.4256V80.8771C296.078 80.1937 296.632 79.64 297.316 79.64H300.683C302.415 79.64 303.826 81.0414 303.826 82.7803H303.835Z" fill="#E5E4DF"/>
<path d="M303.835 82.7803V93.5939H253.832V82.7803C253.832 81.0501 254.775 79.64 256.515 79.64H260.342C261.026 79.64 261.58 80.1937 261.58 80.8771V82.4256C261.58 82.8149 261.398 83.1955 261.078 83.4204C260.376 83.9049 259.918 84.7181 259.918 85.6351C259.918 87.1317 261.13 88.3428 262.627 88.3428C264.125 88.3428 265.337 87.1317 265.337 85.6351C265.337 84.7181 264.878 83.9049 264.177 83.4204C263.857 83.1955 263.675 82.8235 263.675 82.4256V80.8684C263.675 80.185 264.229 79.6313 264.913 79.6313H292.745C293.429 79.6313 293.983 80.185 293.983 80.8684V82.4256C293.983 82.8149 293.801 83.1955 293.481 83.4204C292.78 83.9135 292.321 84.7181 292.321 85.6351C292.321 87.1317 293.533 88.3428 295.03 88.3428C296.528 88.3428 297.74 87.1317 297.74 85.6351C297.74 84.7181 297.281 83.9049 296.58 83.4204C296.26 83.1955 296.078 82.8235 296.078 82.4256V80.8771C296.078 80.1937 296.632 79.64 297.316 79.64H300.683C302.415 79.64 303.826 81.0414 303.826 82.7803H303.835Z" fill="#B4B4B5"/>
<path d="M272.886 119.572L265.649 112.34C264.315 111.008 264.315 108.837 265.649 107.504C266.982 106.172 269.155 106.172 270.488 107.504L274.435 111.449L287.17 98.7238C288.503 97.3916 290.676 97.3916 292.009 98.7238C293.342 100.056 293.342 102.227 292.009 103.56L275.985 119.572C275.128 120.429 273.734 120.429 272.877 119.572H272.886Z" fill="#5D9832"/>
<path d="M265.328 77.9876C265.328 76.4922 264.117 75.2799 262.623 75.2799C261.129 75.2799 259.918 76.4922 259.918 77.9876V87.2873C259.918 88.7828 261.129 89.995 262.623 89.995C264.117 89.995 265.328 88.7828 265.328 87.2873V77.9876Z" fill="#010000"/>
<path d="M297.74 77.9876C297.74 76.4922 296.529 75.2799 295.035 75.2799C293.541 75.2799 292.329 76.4922 292.329 77.9876V87.2873C292.329 88.7828 293.541 89.995 295.035 89.995C296.529 89.995 297.74 88.7828 297.74 87.2873V77.9876Z" fill="#010000"/>
</g>
<defs>
<clipPath id="clip0_1626_877">
<rect width="370" height="168" fill="white"/>
</clipPath>
</defs>
</svg>
