<svg width="570" height="323" viewBox="0 0 570 323" fill="none" xmlns="http://www.w3.org/2000/svg">
<g clip-path="url(#clip0_2405_311)">
<path d="M517.599 320.763C517.599 320.763 624.259 157.034 511.021 112.255C482.497 100.975 472.547 -56.9389 345.851 22.0179C295.465 53.4182 222.914 15.4197 153.436 36.1885C89.6282 55.2628 88.1626 110.283 96.2294 130.089C105.044 151.733 69.8916 177.609 33.8898 195.379C-22.5826 223.256 18.9448 321.225 72.2943 321.694C125.646 322.162 517.599 320.761 517.599 320.761V320.763Z" fill="#C5E9F5"/>
<path d="M397.058 157.81C400.911 138.054 404.444 119.142 404.444 119.142C404.444 119.142 393.476 120.804 388.754 124.74C384.031 128.676 383.554 153.742 381.98 160.829C381.67 162.219 381.391 164.468 381.153 167.204C380.258 177.394 381.372 192.657 382.215 196.935C382.16 197.346 381.811 199.366 379.951 203.24C379.951 203.24 378.988 206.213 385.285 210.676C389.299 213.52 392.874 179.287 397.061 157.812L397.058 157.81Z" fill="#FFC48E"/>
<path d="M404.444 119.139C404.444 119.139 402.409 130.039 399.743 143.932C398.898 148.342 397.989 153.049 397.058 157.807C393.285 165.209 390.044 170.24 389.045 169.293C387.004 167.365 383.42 167.127 381.151 167.199C381.391 164.463 381.668 162.217 381.977 160.825C382.102 160.264 382.22 159.592 382.333 158.828C383.653 149.912 384.401 128.36 388.751 124.736C393.474 120.799 404.442 119.137 404.442 119.137L404.444 119.139Z" fill="#FAFAFA"/>
<path d="M399.743 143.932C398.898 148.342 397.989 153.049 397.058 157.807C393.285 165.209 390.044 170.24 389.045 169.293C387.004 167.365 383.42 167.128 381.151 167.199C381.391 164.463 381.668 162.217 381.977 160.825C382.102 160.264 382.22 159.592 382.333 158.828L393.649 131.502L399.74 143.932H399.743Z" fill="#E5E5E5"/>
<path d="M420.107 118.862C420.19 115.048 420.128 110.493 419.613 106.645L404.391 109.134C404.391 109.134 404.391 113.779 404.458 118.934C404.449 118.934 404.444 118.934 404.444 118.934C404.444 118.934 404.029 123.715 409.919 124.417C415.807 125.117 420.269 122.552 420.109 118.86L420.107 118.862Z" fill="#FFC48E"/>
<path d="M404.35 110.073C404.35 110.073 407.937 117.422 412.045 117.422C416.153 117.422 420.003 110.512 420.003 110.512L404.347 110.075L404.35 110.073Z" fill="#ED975D"/>
<path d="M414.494 320.807C414.494 320.807 415.048 316.374 416.331 313.809C417.614 311.244 425.776 312.877 425.776 312.877C425.776 312.877 427.408 314.276 427.758 320.807H414.494Z" fill="#222222"/>
<path d="M386.683 320.772C388.601 319.602 387.51 310.866 387.51 310.866C387.51 310.866 378.573 303.714 377.342 309.19C376.115 314.666 368.851 317.125 364.719 317.794C361.867 318.256 360.983 319.837 360.708 320.772H386.681H386.683Z" fill="#222222"/>
<path d="M421.557 102.254C421.557 102.254 431.717 86.2291 412.206 85.1694C412.206 85.1694 404.887 86.0306 403.233 84.3729C403.233 84.3729 397.557 93.0028 402.856 102.254C408.158 111.505 421.557 102.254 421.557 102.254Z" fill="#222222"/>
<path d="M404.844 110.616C406.323 111.779 410.66 112.936 411.913 113.07C411.913 113.07 418.344 111.636 419.512 110.93C421.321 109.833 421.206 107.61 421.298 104.521C421.409 100.864 421.778 97.9941 421.37 95.8863C420.885 93.3652 419.285 91.9315 414.812 91.5414C406.598 90.828 403.175 92.885 403.032 95.6393C402.995 96.378 402.96 97.0845 402.937 97.7517C402.609 106.342 403.288 109.387 404.844 110.613V110.616Z" fill="#FFC48E"/>
<path d="M405.197 255.718C404.832 257.722 404.601 259.368 404.541 260.548C403.71 276.757 390.9 313.821 388.608 314.684C385.063 316.023 379.48 313.179 376.558 312.246C375.348 311.859 374.531 310.637 374.799 309.4C381.144 280.227 383.475 238.221 384.322 213.35C384.752 200.823 386.9 192.17 386.9 192.17C386.9 192.17 418.145 183.831 418.33 194.379C418.494 203.713 407.98 240.32 405.194 255.716L405.197 255.718Z" fill="#12326E"/>
<path d="M405.197 255.718L384.324 213.352C384.754 200.825 386.903 192.172 386.903 192.172C386.903 192.172 418.147 183.833 418.332 194.381C418.496 203.715 407.983 240.322 405.197 255.718Z" fill="#08204D"/>
<path d="M398.245 194.418L414.762 314.16C414.762 314.16 422.016 315.91 427.657 314.511C427.657 314.511 432.492 250.826 432.088 235.43C431.685 220.033 435.56 194.231 431.204 191.387C426.849 188.543 398.242 194.418 398.242 194.418H398.245Z" fill="#12326E"/>
<path d="M433.579 191.385C433.635 192.772 432.536 193.929 431.149 193.95L405.12 194.347L386.002 194.64C385.107 194.656 387.937 187.492 387.994 140.779C388.008 130.355 404.142 119.139 404.44 119.139H404.444C404.444 120.645 406.81 123.415 410.452 123.653C414.775 123.937 420.082 121.785 420.082 119.292C420.082 119.264 420.585 119.809 421.393 120.984C423.551 124.131 427.899 131.8 430.676 145.153C432.868 155.697 432.024 169.796 433.602 187.986C433.718 189.3 433.549 190.468 433.582 191.387L433.579 191.385Z" fill="#DDDDDD"/>
<path d="M432.619 194.095C432.619 194.095 429.159 195.644 422.687 196.988C417.875 197.988 411.401 198.872 403.445 198.92C390.794 199.001 386.002 194.64 386.002 194.64C385.107 194.656 387.937 187.492 387.994 140.779C388.008 130.355 404.142 119.139 404.44 119.139H404.444C404.444 119.139 404.029 133.024 408.227 137.105C408.227 137.105 414.115 132.557 421.753 119.61C423.911 122.757 427.897 131.8 430.673 145.153C431.237 147.871 431.601 150.821 431.855 154.019C432.591 163.233 432.428 174.481 433.598 187.986C433.713 189.3 433.545 190.468 433.577 191.387C433.632 192.775 434.004 194.077 432.617 194.097L432.619 194.095Z" fill="#FAFAFA"/>
<path d="M432.619 194.095C432.619 194.095 429.159 195.644 422.687 196.988C420.652 193.883 418.085 188.277 417.73 179.444C417.127 164.507 431.315 145.269 431.315 145.269L431.858 154.017C432.594 163.23 432.43 174.478 433.6 187.984C433.716 189.298 433.547 190.466 433.579 191.385C433.635 192.772 434.006 194.074 432.619 194.095Z" fill="#E5E5E5"/>
<path d="M420.334 143.514L396.151 157.479L415.303 190.659L439.485 176.694L420.334 143.514Z" fill="#12326E"/>
<path d="M435.396 124.156C432.435 121.917 425.478 120.328 422.055 119.652C420.848 119.414 420.079 119.289 420.079 119.289C420.437 120.936 421.238 123.519 422.288 126.617C426.685 139.61 435.401 161.707 433.646 162.178C432.218 162.561 430.39 162.898 428.377 163.194C420.733 164.313 410.445 164.81 409.37 164.858C409.284 164.78 405.621 161.363 404.195 161.363C402.769 161.363 398.591 162.88 398.166 164.045C397.742 165.211 397.571 167.312 398.759 167.779C399.948 168.245 404.874 169.411 406.145 169.529C406.319 169.545 406.529 169.545 406.757 169.524C415.904 172.214 423.779 173.534 429.847 174.157C438.313 175.028 443.264 174.543 443.264 174.543C449.397 161.34 439.398 127.185 435.394 124.156H435.396Z" fill="#FFC48E"/>
<path d="M443.267 174.543C443.267 174.543 438.316 175.026 429.85 174.157C430.316 171.856 430.75 167.363 428.379 163.194C430.392 162.9 432.218 162.561 433.649 162.178C435.405 161.707 426.69 139.613 422.29 126.617C421.94 122.415 421.753 119.606 421.753 119.606L422.055 119.652C425.478 120.328 432.435 121.917 435.396 124.156C439.4 127.185 449.399 161.342 443.267 174.543Z" fill="#FAFAFA"/>
<path d="M408.227 137.103C408.227 137.103 420.005 131.913 420.179 131.505C420.354 131.096 419.595 127.947 418.78 127.014C418.78 127.014 424.435 127.538 424.785 126.839C425.136 126.139 425.397 120.381 425.397 120.381C425.397 120.381 423.043 117.943 420.128 117.71C420.128 117.71 417.568 124.073 416.622 125.964C414.115 130.978 408.225 137.103 408.225 137.103H408.227Z" fill="#29CE95"/>
<path d="M405.427 126.839C405.427 126.839 406.185 132.904 408.227 137.103C408.227 137.103 402.076 132.816 401.552 131.417C401.028 130.018 403.039 127.305 403.039 127.305C403.039 127.305 399.366 127.217 399.279 125.994C399.191 124.77 400.417 119.959 400.417 119.959C400.417 119.959 403.576 117.652 404.451 117.738L405.432 126.839H405.427Z" fill="#29CE95"/>
<path d="M425.365 93.3283L399.209 93.6077C399.209 93.6077 398.826 85.7189 403.359 80.6883C403.567 80.4551 403.786 80.2312 404.017 80.0119C404.996 79.0815 406.173 78.2804 407.59 77.6893C412.818 75.5076 417.155 77.5208 419.865 79.5824C420.132 79.7833 420.384 79.9865 420.617 80.1896C422.09 81.4409 422.914 82.5583 422.914 82.5583C422.914 82.5583 425.453 86.0237 425.369 93.326L425.365 93.3283Z" fill="#F5CF68"/>
<path d="M418.018 93.4069C417.947 92.3449 417.485 83.2972 420.661 80.2312C420.428 80.0304 420.495 80.0696 420.227 79.8688C416.839 83.3964 416.569 92.2987 416.585 93.423L408.223 93.5131C407.976 87.1065 404.44 80.7253 404.015 80.0142C403.784 80.2335 403.74 80.2774 403.533 80.5083C404.147 81.5887 406.455 87.7644 406.676 93.5292L399.209 93.61C399.209 93.61 406.175 95.4108 411.422 95.3461C416.668 95.2815 425.365 93.3307 425.365 93.3307L418.018 93.4092V93.4069Z" fill="#DEB74B"/>
<path d="M453.328 167.402H457.614C459.606 166.497 470.336 161.85 480.649 161.792C488.09 161.751 496.57 167.312 497.08 167.372C498.373 167.525 492.769 167.575 492.769 167.575C492.769 167.575 484.369 163.858 480.598 163.771C477.002 163.688 469.016 166.301 465.826 167.402H489.842C491.85 167.402 493.493 169.046 493.493 171.055V198.447C493.493 200.456 491.85 202.099 489.842 202.099H453.328C451.32 202.099 449.676 200.456 449.676 198.447V171.055C449.676 169.046 451.32 167.402 453.328 167.402Z" fill="#F5CF68"/>
<path d="M465.196 167.402H501.71C503.725 167.402 505.362 169.039 505.362 171.055V198.447C505.362 200.462 503.725 202.099 501.71 202.099H465.196C463.181 202.099 461.545 200.462 461.545 198.447V171.055C461.545 169.039 463.181 167.402 465.196 167.402Z" fill="#29CE95"/>
<path d="M270.81 31.0032H76.5344V168.051H270.81V31.0032Z" fill="#21A7CC"/>
<path d="M264.086 38.1255H83.2625V160.926H264.086V38.1255Z" fill="white"/>
<path d="M226.51 315.1H222.245L195.596 305.886C184.251 301.963 176.639 291.277 176.639 279.271V165.938C176.639 164.341 175.411 162.965 173.814 162.889C172.111 162.808 170.703 164.168 170.703 165.853V279.267C170.703 291.274 163.091 301.959 151.746 305.881L125.092 315.095H120.238C118.641 315.095 117.266 316.323 117.189 317.921C117.109 319.625 118.468 321.033 120.153 321.033H125.568C125.568 321.033 125.582 321.033 125.589 321.033C125.596 321.033 125.6 321.033 125.607 321.033H137.487C139.056 321.033 140.411 319.844 140.522 318.279C140.577 317.512 140.337 316.808 139.91 316.254L159.495 309.485C168.676 306.311 178.657 306.311 187.838 309.485L206.963 316.097C206.476 316.647 206.185 317.374 206.213 318.173C206.271 319.784 207.651 321.033 209.262 321.033H221.723C221.723 321.033 221.735 321.033 221.742 321.033C221.749 321.033 221.756 321.033 221.763 321.033H226.589C228.276 321.033 229.633 319.625 229.553 317.921C229.476 316.323 228.103 315.095 226.504 315.095L226.51 315.1Z" fill="#21A7CC"/>
<path d="M273.383 31.0032H270.812V168.051H273.383V31.0032Z" fill="#148BAC"/>
<path d="M176.639 168.051H170.705V173.559H176.639V168.051Z" fill="#148BAC"/>
<path d="M246.808 146.915H238.734V130.516H246.808V146.915ZM238.965 146.684H246.577V130.747H238.965V146.684Z" fill="#12326E"/>
<path d="M241.206 146.915H131.135C131.07 146.915 131.02 146.864 131.02 146.799C131.02 146.735 131.07 146.684 131.135 146.684H240.975V115.152H231.844V78.6496H222.944V98.4235H215.551V105.7H202.446V101.476H196.84V84.7007H181.837V56.2693L170.206 52.4138V71.278H167.271V57.1328L155.64 61.5354V78.2248H144.66V66.0766H133.395V78.2248H131.25V85.2917H122.089V109.397C122.089 109.461 122.039 109.512 121.974 109.512C121.909 109.512 121.859 109.461 121.859 109.397V85.0608H131.02V77.994H133.164V65.8457H144.891V77.994H155.409V61.3761L167.501 56.798V71.0471H169.976V52.0952L182.068 56.1031V84.4698H197.071V101.245H202.677V105.47H215.321V98.1926H222.714V78.4188H232.075V114.921H241.206V146.915Z" fill="#12326E"/>
<path d="M180.295 60.6696H172.062V57.5067H180.295V60.6696ZM172.293 60.4387H180.064V57.7376H172.293V60.4387Z" fill="#12326E"/>
<path d="M180.295 66.1758H172.062V63.0129H180.295V66.1758ZM172.293 65.945H180.064V63.2438H172.293V65.945Z" fill="#12326E"/>
<path d="M180.295 71.1303H172.062V67.9674H180.295V71.1303ZM172.293 70.8994H180.064V68.1983H172.293V70.8994Z" fill="#12326E"/>
<path d="M232.073 96.4957H224.44V91.7399H232.073V96.4957ZM224.671 96.2649H231.842V91.9707H224.671V96.2649Z" fill="#12326E"/>
<path d="M232.073 110.385H222.63V105.629H232.073V110.385ZM222.861 110.154H231.842V105.86H222.861V110.154Z" fill="#12326E"/>
<path d="M232.073 117.218H222.63V112.463H232.073V117.218ZM222.861 116.988H231.842V112.693H222.861V116.988Z" fill="#12326E"/>
<path d="M232.223 124.368H222.78V119.613H232.223V124.368ZM223.011 124.138H231.992V119.843H223.011V124.138Z" fill="#12326E"/>
<path d="M232.223 131.371H222.78V126.615H232.223V131.371ZM223.011 131.14H231.992V126.846H223.011V131.14Z" fill="#12326E"/>
<path d="M232.223 138.521H222.78V133.765H232.223V138.521ZM223.011 138.29H231.992V133.996H223.011V138.29Z" fill="#12326E"/>
<path d="M165.939 71.1302H157.292V67.9673H165.939V71.1302ZM157.523 70.8993H165.708V68.1982H157.523V70.8993Z" fill="#12326E"/>
<path d="M165.939 66.2196H157.292V63.0568H165.939V66.2196ZM157.523 65.9888H165.708V63.2876H157.523V65.9888Z" fill="#12326E"/>
<path d="M180.498 75.9323H157.292V72.7694H180.498V75.9323ZM157.523 75.7014H180.267V73.0003H157.523V75.7014Z" fill="#12326E"/>
<path d="M180.498 80.3395H157.292V77.1766H180.498V80.3395ZM157.523 80.1087H180.267V77.4075H157.523V80.1087Z" fill="#12326E"/>
<path d="M180.498 84.6059H157.292V81.5562H180.498V84.6059ZM157.523 84.375H180.267V81.787H157.523V84.375Z" fill="#12326E"/>
<path d="M232.073 103.549H222.63V98.7928H232.073V103.549ZM222.861 103.318H231.842V99.0237H222.861V103.318Z" fill="#12326E"/>
<path d="M194.771 90.2854H192.53V87.2195H194.771V90.2854ZM192.761 90.0545H194.541V87.4504H192.761V90.0545Z" fill="#12326E"/>
<path d="M191.012 90.2854H188.771V87.2195H191.012V90.2854ZM189.001 90.0545H190.781V87.4504H189.001V90.0545Z" fill="#12326E"/>
<path d="M187.337 90.2854H185.096V87.2195H187.337V90.2854ZM185.327 90.0545H187.106V87.4504H185.327V90.0545Z" fill="#12326E"/>
<path d="M183.85 90.2854H181.608V87.2195H183.85V90.2854ZM181.839 90.0545H183.619V87.4504H181.839V90.0545Z" fill="#12326E"/>
<path d="M180.297 90.2854H178.056V87.2195H180.297V90.2854ZM178.287 90.0545H180.067V87.4504H178.287V90.0545Z" fill="#12326E"/>
<path d="M176.706 90.2854H174.465V87.2195H176.706V90.2854ZM174.696 90.0545H176.475V87.4504H174.696V90.0545Z" fill="#12326E"/>
<path d="M172.944 90.2854H170.703V87.2195H172.944V90.2854ZM170.933 90.0545H172.713V87.4504H170.933V90.0545Z" fill="#12326E"/>
<path d="M169.269 90.2854H167.028V87.2195H169.269V90.2854ZM167.259 90.0545H169.038V87.4504H167.259V90.0545Z" fill="#12326E"/>
<path d="M165.784 90.2854H163.543V87.2195H165.784V90.2854ZM163.774 90.0545H165.553V87.4504H163.774V90.0545Z" fill="#12326E"/>
<path d="M162.23 90.2854H159.989V87.2195H162.23V90.2854ZM160.219 90.0545H161.999V87.4504H160.219V90.0545Z" fill="#12326E"/>
<path d="M158.53 90.2854H156.289V87.2195H158.53V90.2854ZM156.519 90.0545H158.299V87.4504H156.519V90.0545Z" fill="#12326E"/>
<path d="M154.768 90.2854H152.526V87.2195H154.768V90.2854ZM152.757 90.0545H154.537V87.4504H152.757V90.0545Z" fill="#12326E"/>
<path d="M151.093 90.2854H148.852V87.2195H151.093V90.2854ZM149.083 90.0545H150.862V87.4504H149.083V90.0545Z" fill="#12326E"/>
<path d="M147.608 90.2854H145.367V87.2195H147.608V90.2854ZM145.598 90.0545H147.377V87.4504H145.598V90.0545Z" fill="#12326E"/>
<path d="M144.053 90.2854H141.812V87.2195H144.053V90.2854ZM142.043 90.0545H143.822V87.4504H142.043V90.0545Z" fill="#12326E"/>
<path d="M140.462 90.2854H138.221V87.2195H140.462V90.2854ZM138.452 90.0545H140.231V87.4504H138.452V90.0545Z" fill="#12326E"/>
<path d="M136.702 90.2854H134.461V87.2195H136.702V90.2854ZM134.692 90.0545H136.471V87.4504H134.692V90.0545Z" fill="#12326E"/>
<path d="M133.025 90.2854H130.784V87.2195H133.025V90.2854ZM131.015 90.0545H132.794V87.4504H131.015V90.0545Z" fill="#12326E"/>
<path d="M129.54 90.2854H127.299V87.2195H129.54V90.2854ZM127.53 90.0545H129.309V87.4504H127.53V90.0545Z" fill="#12326E"/>
<path d="M125.988 90.2854H123.747V87.2195H125.988V90.2854ZM123.977 90.0545H125.757V87.4504H123.977V90.0545Z" fill="#12326E"/>
<path d="M194.771 95.2883H192.53V92.2224H194.771V95.2883ZM192.761 95.0575H194.541V92.4533H192.761V95.0575Z" fill="#12326E"/>
<path d="M191.012 95.2883H188.771V92.2224H191.012V95.2883ZM189.001 95.0575H190.781V92.4533H189.001V95.0575Z" fill="#12326E"/>
<path d="M187.337 95.2883H185.096V92.2224H187.337V95.2883ZM185.327 95.0575H187.106V92.4533H185.327V95.0575Z" fill="#12326E"/>
<path d="M183.85 95.2883H181.608V92.2224H183.85V95.2883ZM181.839 95.0575H183.619V92.4533H181.839V95.0575Z" fill="#12326E"/>
<path d="M180.297 95.2883H178.056V92.2224H180.297V95.2883ZM178.287 95.0575H180.067V92.4533H178.287V95.0575Z" fill="#12326E"/>
<path d="M176.706 95.2883H174.465V92.2224H176.706V95.2883ZM174.696 95.0575H176.475V92.4533H174.696V95.0575Z" fill="#12326E"/>
<path d="M172.944 95.2883H170.703V92.2224H172.944V95.2883ZM170.933 95.0575H172.713V92.4533H170.933V95.0575Z" fill="#12326E"/>
<path d="M169.269 95.2883H167.028V92.2224H169.269V95.2883ZM167.259 95.0575H169.038V92.4533H167.259V95.0575Z" fill="#12326E"/>
<path d="M165.784 95.2883H163.543V92.2224H165.784V95.2883ZM163.774 95.0575H165.553V92.4533H163.774V95.0575Z" fill="#12326E"/>
<path d="M162.23 95.2883H159.989V92.2224H162.23V95.2883ZM160.219 95.0575H161.999V92.4533H160.219V95.0575Z" fill="#12326E"/>
<path d="M158.53 95.2883H156.289V92.2224H158.53V95.2883ZM156.519 95.0575H158.299V92.4533H156.519V95.0575Z" fill="#12326E"/>
<path d="M154.768 95.2883H152.526V92.2224H154.768V95.2883ZM152.757 95.0575H154.537V92.4533H152.757V95.0575Z" fill="#12326E"/>
<path d="M151.093 95.2883H148.852V92.2224H151.093V95.2883ZM149.083 95.0575H150.862V92.4533H149.083V95.0575Z" fill="#12326E"/>
<path d="M147.608 95.2883H145.367V92.2224H147.608V95.2883ZM145.598 95.0575H147.377V92.4533H145.598V95.0575Z" fill="#12326E"/>
<path d="M144.053 95.2883H141.812V92.2224H144.053V95.2883ZM142.043 95.0575H143.822V92.4533H142.043V95.0575Z" fill="#12326E"/>
<path d="M140.462 95.2883H138.221V92.2224H140.462V95.2883ZM138.452 95.0575H140.231V92.4533H138.452V95.0575Z" fill="#12326E"/>
<path d="M136.702 95.2883H134.461V92.2224H136.702V95.2883ZM134.692 95.0575H136.471V92.4533H134.692V95.0575Z" fill="#12326E"/>
<path d="M133.025 95.2883H130.784V92.2224H133.025V95.2883ZM131.015 95.0575H132.794V92.4533H131.015V95.0575Z" fill="#12326E"/>
<path d="M129.54 95.2883H127.299V92.2224H129.54V95.2883ZM127.53 95.0575H129.309V92.4533H127.53V95.0575Z" fill="#12326E"/>
<path d="M125.988 95.2883H123.747V92.2224H125.988V95.2883ZM123.977 95.0575H125.757V92.4533H123.977V95.0575Z" fill="#12326E"/>
<path d="M194.771 100.213H192.53V97.1469H194.771V100.213ZM192.761 99.9819H194.541V97.3777H192.761V99.9819Z" fill="#12326E"/>
<path d="M191.012 100.213H188.771V97.1469H191.012V100.213ZM189.001 99.9819H190.781V97.3777H189.001V99.9819Z" fill="#12326E"/>
<path d="M187.337 100.213H185.096V97.1469H187.337V100.213ZM185.327 99.9819H187.106V97.3777H185.327V99.9819Z" fill="#12326E"/>
<path d="M183.85 100.213H181.608V97.1469H183.85V100.213ZM181.839 99.9819H183.619V97.3777H181.839V99.9819Z" fill="#12326E"/>
<path d="M180.297 100.213H178.056V97.1469H180.297V100.213ZM178.287 99.9819H180.067V97.3777H178.287V99.9819Z" fill="#12326E"/>
<path d="M176.706 100.213H174.465V97.1469H176.706V100.213ZM174.696 99.9819H176.475V97.3777H174.696V99.9819Z" fill="#12326E"/>
<path d="M172.944 100.213H170.703V97.1469H172.944V100.213ZM170.933 99.9819H172.713V97.3777H170.933V99.9819Z" fill="#12326E"/>
<path d="M169.269 100.213H167.028V97.1469H169.269V100.213ZM167.259 99.9819H169.038V97.3777H167.259V99.9819Z" fill="#12326E"/>
<path d="M165.784 100.213H163.543V97.1469H165.784V100.213ZM163.774 99.9819H165.553V97.3777H163.774V99.9819Z" fill="#12326E"/>
<path d="M162.23 100.213H159.989V97.1469H162.23V100.213ZM160.219 99.9819H161.999V97.3777H160.219V99.9819Z" fill="#12326E"/>
<path d="M158.53 100.213H156.289V97.1469H158.53V100.213ZM156.519 99.9819H158.299V97.3777H156.519V99.9819Z" fill="#12326E"/>
<path d="M154.768 100.213H152.526V97.1469H154.768V100.213ZM152.757 99.9819H154.537V97.3777H152.757V99.9819Z" fill="#12326E"/>
<path d="M151.093 100.213H148.852V97.1469H151.093V100.213ZM149.083 99.9819H150.862V97.3777H149.083V99.9819Z" fill="#12326E"/>
<path d="M147.608 100.213H145.367V97.1469H147.608V100.213ZM145.598 99.9819H147.377V97.3777H145.598V99.9819Z" fill="#12326E"/>
<path d="M144.053 100.213H141.812V97.1469H144.053V100.213ZM142.043 99.9819H143.822V97.3777H142.043V99.9819Z" fill="#12326E"/>
<path d="M140.462 100.213H138.221V97.1469H140.462V100.213ZM138.452 99.9819H140.231V97.3777H138.452V99.9819Z" fill="#12326E"/>
<path d="M136.702 100.213H134.461V97.1469H136.702V100.213ZM134.692 99.9819H136.471V97.3777H134.692V99.9819Z" fill="#12326E"/>
<path d="M133.025 100.213H130.784V97.1469H133.025V100.213ZM131.015 99.9819H132.794V97.3777H131.015V99.9819Z" fill="#12326E"/>
<path d="M129.54 100.213H127.299V97.1469H129.54V100.213ZM127.53 99.9819H129.309V97.3777H127.53V99.9819Z" fill="#12326E"/>
<path d="M125.988 100.213H123.747V97.1469H125.988V100.213ZM123.977 99.9819H125.757V97.3777H123.977V99.9819Z" fill="#12326E"/>
<path d="M194.771 105.447H192.53V102.381H194.771V105.447ZM192.761 105.216H194.541V102.611H192.761V105.216Z" fill="#12326E"/>
<path d="M191.012 105.447H188.771V102.381H191.012V105.447ZM189.001 105.216H190.781V102.611H189.001V105.216Z" fill="#12326E"/>
<path d="M187.337 105.447H185.096V102.381H187.337V105.447ZM185.327 105.216H187.106V102.611H185.327V105.216Z" fill="#12326E"/>
<path d="M183.85 105.447H181.608V102.381H183.85V105.447ZM181.839 105.216H183.619V102.611H181.839V105.216Z" fill="#12326E"/>
<path d="M180.297 105.447H178.056V102.381H180.297V105.447ZM178.287 105.216H180.067V102.611H178.287V105.216Z" fill="#12326E"/>
<path d="M176.706 105.447H174.465V102.381H176.706V105.447ZM174.696 105.216H176.475V102.611H174.696V105.216Z" fill="#12326E"/>
<path d="M172.944 105.447H170.703V102.381H172.944V105.447ZM170.933 105.216H172.713V102.611H170.933V105.216Z" fill="#12326E"/>
<path d="M169.269 105.447H167.028V102.381H169.269V105.447ZM167.259 105.216H169.038V102.611H167.259V105.216Z" fill="#12326E"/>
<path d="M165.784 105.447H163.543V102.381H165.784V105.447ZM163.774 105.216H165.553V102.611H163.774V105.216Z" fill="#12326E"/>
<path d="M162.23 105.447H159.989V102.381H162.23V105.447ZM160.219 105.216H161.999V102.611H160.219V105.216Z" fill="#12326E"/>
<path d="M158.53 105.447H156.289V102.381H158.53V105.447ZM156.519 105.216H158.299V102.611H156.519V105.216Z" fill="#12326E"/>
<path d="M154.768 105.447H152.526V102.381H154.768V105.447ZM152.757 105.216H154.537V102.611H152.757V105.216Z" fill="#12326E"/>
<path d="M151.093 105.447H148.852V102.381H151.093V105.447ZM149.083 105.216H150.862V102.611H149.083V105.216Z" fill="#12326E"/>
<path d="M147.608 105.447H145.367V102.381H147.608V105.447ZM145.598 105.216H147.377V102.611H145.598V105.216Z" fill="#12326E"/>
<path d="M144.053 105.447H141.812V102.381H144.053V105.447ZM142.043 105.216H143.822V102.611H142.043V105.216Z" fill="#12326E"/>
<path d="M140.462 105.447H138.221V102.381H140.462V105.447ZM138.452 105.216H140.231V102.611H138.452V105.216Z" fill="#12326E"/>
<path d="M136.702 105.447H134.461V102.381H136.702V105.447ZM134.692 105.216H136.471V102.611H134.692V105.216Z" fill="#12326E"/>
<path d="M133.025 105.447H130.784V102.381H133.025V105.447ZM131.015 105.216H132.794V102.611H131.015V105.216Z" fill="#12326E"/>
<path d="M129.54 105.447H127.299V102.381H129.54V105.447ZM127.53 105.216H129.309V102.611H127.53V105.216Z" fill="#12326E"/>
<path d="M125.988 105.447H123.747V102.381H125.988V105.447ZM123.977 105.216H125.757V102.611H123.977V105.216Z" fill="#12326E"/>
<path d="M194.771 110.449H192.53V107.383H194.771V110.449ZM192.761 110.218H194.541V107.614H192.761V110.218Z" fill="#12326E"/>
<path d="M191.012 110.449H188.771V107.383H191.012V110.449ZM189.001 110.218H190.781V107.614H189.001V110.218Z" fill="#12326E"/>
<path d="M187.337 110.449H185.096V107.383H187.337V110.449ZM185.327 110.218H187.106V107.614H185.327V110.218Z" fill="#12326E"/>
<path d="M183.85 110.449H181.608V107.383H183.85V110.449ZM181.839 110.218H183.619V107.614H181.839V110.218Z" fill="#12326E"/>
<path d="M180.297 110.449H178.056V107.383H180.297V110.449ZM178.287 110.218H180.067V107.614H178.287V110.218Z" fill="#12326E"/>
<path d="M176.706 110.449H174.465V107.383H176.706V110.449ZM174.696 110.218H176.475V107.614H174.696V110.218Z" fill="#12326E"/>
<path d="M172.944 110.449H170.703V107.383H172.944V110.449ZM170.933 110.218H172.713V107.614H170.933V110.218Z" fill="#12326E"/>
<path d="M169.269 110.449H167.028V107.383H169.269V110.449ZM167.259 110.218H169.038V107.614H167.259V110.218Z" fill="#12326E"/>
<path d="M165.784 110.449H163.543V107.383H165.784V110.449ZM163.774 110.218H165.553V107.614H163.774V110.218Z" fill="#12326E"/>
<path d="M162.23 110.449H159.989V107.383H162.23V110.449ZM160.219 110.218H161.999V107.614H160.219V110.218Z" fill="#12326E"/>
<path d="M158.53 110.449H156.289V107.383H158.53V110.449ZM156.519 110.218H158.299V107.614H156.519V110.218Z" fill="#12326E"/>
<path d="M154.768 110.449H152.526V107.383H154.768V110.449ZM152.757 110.218H154.537V107.614H152.757V110.218Z" fill="#12326E"/>
<path d="M151.093 110.449H148.852V107.383H151.093V110.449ZM149.083 110.218H150.862V107.614H149.083V110.218Z" fill="#12326E"/>
<path d="M147.608 110.449H145.367V107.383H147.608V110.449ZM145.598 110.218H147.377V107.614H145.598V110.218Z" fill="#12326E"/>
<path d="M144.053 110.449H141.812V107.383H144.053V110.449ZM142.043 110.218H143.822V107.614H142.043V110.218Z" fill="#12326E"/>
<path d="M140.462 110.449H138.221V107.383H140.462V110.449ZM138.452 110.218H140.231V107.614H138.452V110.218Z" fill="#12326E"/>
<path d="M136.702 110.449H134.461V107.383H136.702V110.449ZM134.692 110.218H136.471V107.614H134.692V110.218Z" fill="#12326E"/>
<path d="M129.54 110.449H127.458C127.37 110.449 127.296 110.378 127.296 110.288V107.383H129.538V110.449H129.54ZM127.53 110.218H129.309V107.614H127.53V110.218Z" fill="#12326E"/>
<path d="M133.025 110.449H130.784V107.383H133.025V110.449ZM131.015 110.218H132.794V107.614H131.015V110.218Z" fill="#12326E"/>
<path d="M125.988 110.2L123.747 109.814V107.383H125.988V110.198V110.2ZM123.977 109.621L125.757 109.928V107.617H123.977V109.621Z" fill="#12326E"/>
<path d="M194.771 115.376H192.53V112.31H194.771V115.376ZM192.761 115.145H194.541V112.541H192.761V115.145Z" fill="#12326E"/>
<path d="M191.012 115.376H188.771V112.31H191.012V115.376ZM189.001 115.145H190.781V112.541H189.001V115.145Z" fill="#12326E"/>
<path d="M187.337 115.376H185.096V112.31H187.337V115.376ZM185.327 115.145H187.106V112.541H185.327V115.145Z" fill="#12326E"/>
<path d="M183.85 115.376H181.608V112.31H183.85V115.376ZM181.839 115.145H183.619V112.541H181.839V115.145Z" fill="#12326E"/>
<path d="M180.297 115.376H178.056V112.31H180.297V115.376ZM178.287 115.145H180.067V112.541H178.287V115.145Z" fill="#12326E"/>
<path d="M176.706 115.376H174.465V112.31H176.706V115.376ZM174.696 115.145H176.475V112.541H174.696V115.145Z" fill="#12326E"/>
<path d="M172.944 115.376H170.703V112.31H172.944V115.376ZM170.933 115.145H172.713V112.541H170.933V115.145Z" fill="#12326E"/>
<path d="M169.269 115.376H167.028V112.31H169.269V115.376ZM167.259 115.145H169.038V112.541H167.259V115.145Z" fill="#12326E"/>
<path d="M165.784 115.376H163.543V112.31H165.784V115.376ZM163.774 115.145H165.553V112.541H163.774V115.145Z" fill="#12326E"/>
<path d="M162.23 115.376H159.989V112.31H162.23V115.376ZM160.219 115.145H161.999V112.541H160.219V115.145Z" fill="#12326E"/>
<path d="M158.53 115.376H156.289V112.31H158.53V115.376ZM156.519 115.145H158.299V112.541H156.519V115.145Z" fill="#12326E"/>
<path d="M154.768 115.376H152.526V112.31H154.768V115.376ZM152.757 115.145H154.537V112.541H152.757V115.145Z" fill="#12326E"/>
<path d="M151.093 115.376H148.852V112.31H151.093V115.376ZM149.083 115.145H150.862V112.541H149.083V115.145Z" fill="#12326E"/>
<path d="M147.608 115.376H145.367V112.31H147.608V115.376ZM145.598 115.145H147.377V112.541H145.598V115.145Z" fill="#12326E"/>
<path d="M144.053 115.376H141.812V112.31H144.053V115.376ZM142.043 115.145H143.822V112.541H142.043V115.145Z" fill="#12326E"/>
<path d="M140.462 115.376H138.221V112.31H140.462V115.376ZM138.452 115.145H140.231V112.541H138.452V115.145Z" fill="#12326E"/>
<path d="M136.702 115.376H134.461V112.31H136.702V115.376ZM134.692 115.145H136.471V112.541H134.692V115.145Z" fill="#12326E"/>
<path d="M107.119 125.389H102.415V106.707H107.119V125.389ZM102.646 125.158H106.888V106.938H102.646V125.158Z" fill="#12326E"/>
<path d="M215.551 105.689H208.489V98.181H211.805V92.2847H212.278V98.181H215.551V105.689ZM208.719 105.458H215.321V98.4119H212.048L212.036 92.5155V98.4119H208.719V105.458Z" fill="#12326E"/>
<path d="M219.274 98.4304V78.428H220.975V76.4587H221.449V78.428H229.679V76.4587H230.153V78.428H232.075V83.1839L224.673 83.1978V85.1717L232.075 85.1578V89.9137H222.944V98.4258L219.277 98.4327L219.274 98.4304ZM219.505 78.6589V98.1996L222.711 98.1926V89.6805H231.842V85.3864L224.44 85.4003V82.9646L231.842 82.9507V78.6566H229.919L229.908 76.6873V78.6566H221.216L221.204 76.6873V78.6566H219.503L219.505 78.6589Z" fill="#12326E"/>
<path d="M132.656 136.863C132.591 136.863 132.54 136.812 132.54 136.748V111.327L106.985 106.938C106.923 106.926 106.879 106.866 106.891 106.804C106.902 106.742 106.962 106.7 107.024 106.709L132.771 111.133V136.75C132.771 136.814 132.721 136.865 132.656 136.865V136.863Z" fill="#12326E"/>
<path d="M132.771 146.915H100.539V125.158H132.771V146.915ZM100.769 146.684H132.54V125.389H100.769V146.684Z" fill="#12326E"/>
<path d="M132.771 119.52H100.539V112.292H132.771V119.52ZM100.769 119.289H132.54V112.522H100.769V119.289Z" fill="#12326E"/>
<path d="M130.592 133.416H128.718V130.867H130.592V133.416ZM128.949 133.185H130.362V131.098H128.949V133.185Z" fill="#12326E"/>
<path d="M127.518 133.416H125.644V130.867H127.518V133.416ZM125.875 133.185H127.287V131.098H125.875V133.185Z" fill="#12326E"/>
<path d="M124.513 133.416H122.639V130.867H124.513V133.416ZM122.869 133.185H124.282V131.098H122.869V133.185Z" fill="#12326E"/>
<path d="M121.665 133.416H119.791V130.867H121.665V133.416ZM120.021 133.185H121.434V131.098H120.021V133.185Z" fill="#12326E"/>
<path d="M118.761 133.416H116.887V130.867H118.761V133.416ZM117.118 133.185H118.53V131.098H117.118V133.185Z" fill="#12326E"/>
<path d="M115.825 133.416H113.951V130.867H115.825V133.416ZM114.182 133.185H115.594V131.098H114.182V133.185Z" fill="#12326E"/>
<path d="M112.751 133.416H110.876V130.867H112.751V133.416ZM111.107 133.185H112.52V131.098H111.107V133.185Z" fill="#12326E"/>
<path d="M109.748 133.416H107.874V130.867H109.748V133.416ZM108.105 133.185H109.517V131.098H108.105V133.185Z" fill="#12326E"/>
<path d="M106.897 133.416H105.023V130.867H106.897V133.416ZM105.254 133.185H106.667V131.098H105.254V133.185Z" fill="#12326E"/>
<path d="M103.994 133.416H102.12V130.867H103.994V133.416ZM102.35 133.185H103.763V131.098H102.35V133.185Z" fill="#12326E"/>
<path d="M130.592 137.507H128.718V134.958H130.592V137.507ZM128.949 137.276H130.362V135.189H128.949V137.276Z" fill="#12326E"/>
<path d="M127.518 137.507H125.644V134.958H127.518V137.507ZM125.875 137.276H127.287V135.189H125.875V137.276Z" fill="#12326E"/>
<path d="M124.513 137.507H122.639V134.958H124.513V137.507ZM122.869 137.276H124.282V135.189H122.869V137.276Z" fill="#12326E"/>
<path d="M121.665 137.507H119.791V134.958H121.665V137.507ZM120.021 137.276H121.434V135.189H120.021V137.276Z" fill="#12326E"/>
<path d="M118.761 137.507H116.887V134.958H118.761V137.507ZM117.118 137.276H118.53V135.189H117.118V137.276Z" fill="#12326E"/>
<path d="M115.825 137.507H113.951V134.958H115.825V137.507ZM114.182 137.276H115.594V135.189H114.182V137.276Z" fill="#12326E"/>
<path d="M112.751 137.507H110.876V134.958H112.751V137.507ZM111.107 137.276H112.52V135.189H111.107V137.276Z" fill="#12326E"/>
<path d="M109.748 137.507H107.874V134.958H109.748V137.507ZM108.105 137.276H109.517V135.189H108.105V137.276Z" fill="#12326E"/>
<path d="M106.897 137.507H105.023V134.958H106.897V137.507ZM105.254 137.276H106.667V135.189H105.254V137.276Z" fill="#12326E"/>
<path d="M103.994 137.507H102.12V134.958H103.994V137.507ZM102.35 137.276H103.763V135.189H102.35V137.276Z" fill="#12326E"/>
<path d="M130.592 123.57H128.718V121.021H130.592V123.57ZM128.949 123.339H130.362V121.252H128.949V123.339Z" fill="#12326E"/>
<path d="M127.518 123.57H125.644V121.021H127.518V123.57ZM125.875 123.339H127.287V121.252H125.875V123.339Z" fill="#12326E"/>
<path d="M124.513 123.57H122.639V121.021H124.513V123.57ZM122.869 123.339H124.282V121.252H122.869V123.339Z" fill="#12326E"/>
<path d="M121.665 123.57H119.791V121.021H121.665V123.57ZM120.021 123.339H121.434V121.252H120.021V123.339Z" fill="#12326E"/>
<path d="M118.761 123.57H116.887V121.021H118.761V123.57ZM117.118 123.339H118.53V121.252H117.118V123.339Z" fill="#12326E"/>
<path d="M115.825 123.57H113.951V121.021H115.825V123.57ZM114.182 123.339H115.594V121.252H114.182V123.339Z" fill="#12326E"/>
<path d="M112.751 123.57H110.876V121.021H112.751V123.57ZM111.107 123.339H112.52V121.252H111.107V123.339Z" fill="#12326E"/>
<path d="M109.748 123.57H107.874V121.021H109.748V123.57ZM108.105 123.339H109.517V121.252H108.105V123.339Z" fill="#12326E"/>
<path d="M130.592 129.267H128.718V126.719H130.592V129.267ZM128.949 129.037H130.362V126.949H128.949V129.037Z" fill="#12326E"/>
<path d="M127.518 129.267H125.644V126.719H127.518V129.267ZM125.875 129.037H127.287V126.949H125.875V129.037Z" fill="#12326E"/>
<path d="M124.513 129.267H122.639V126.719H124.513V129.267ZM122.869 129.037H124.282V126.949H122.869V129.037Z" fill="#12326E"/>
<path d="M121.665 129.267H119.791V126.719H121.665V129.267ZM120.021 129.037H121.434V126.949H120.021V129.037Z" fill="#12326E"/>
<path d="M118.761 129.267H116.887V126.719H118.761V129.267ZM117.118 129.037H118.53V126.949H117.118V129.037Z" fill="#12326E"/>
<path d="M115.825 129.267H113.951V126.719H115.825V129.267ZM114.182 129.037H115.594V126.949H114.182V129.037Z" fill="#12326E"/>
<path d="M112.751 129.267H110.876V126.719H112.751V129.267ZM111.107 129.037H112.52V126.949H111.107V129.037Z" fill="#12326E"/>
<path d="M109.748 129.267H107.874V126.719H109.748V129.267ZM108.105 129.037H109.517V126.949H108.105V129.037Z" fill="#12326E"/>
<path d="M106.897 129.267H105.023V126.719H106.897V129.267ZM105.254 129.037H106.667V126.949H105.254V129.037Z" fill="#12326E"/>
<path d="M103.994 129.267H102.12V126.719H103.994V129.267ZM102.35 129.037H103.763V126.949H102.35V129.037Z" fill="#12326E"/>
<path d="M130.592 141.533H128.718V138.985H130.592V141.533ZM128.949 141.303H130.362V139.215H128.949V141.303Z" fill="#12326E"/>
<path d="M127.518 141.533H125.644V138.985H127.518V141.533ZM125.875 141.303H127.287V139.215H125.875V141.303Z" fill="#12326E"/>
<path d="M124.513 141.533H122.639V138.985H124.513V141.533ZM122.869 141.303H124.282V139.215H122.869V141.303Z" fill="#12326E"/>
<path d="M121.665 141.533H119.791V138.985H121.665V141.533ZM120.021 141.303H121.434V139.215H120.021V141.303Z" fill="#12326E"/>
<path d="M118.761 141.533H116.887V138.985H118.761V141.533ZM117.118 141.303H118.53V139.215H117.118V141.303Z" fill="#12326E"/>
<path d="M115.825 141.533H113.951V138.985H115.825V141.533ZM114.182 141.303H115.594V139.215H114.182V141.303Z" fill="#12326E"/>
<path d="M112.751 141.533H110.876V138.985H112.751V141.533ZM111.107 141.303H112.52V139.215H111.107V141.303Z" fill="#12326E"/>
<path d="M109.748 141.533H107.874V138.985H109.748V141.533ZM108.105 141.303H109.517V139.215H108.105V141.303Z" fill="#12326E"/>
<path d="M106.897 141.533H105.023V138.985H106.897V141.533ZM105.254 141.303H106.667V139.215H105.254V141.303Z" fill="#12326E"/>
<path d="M103.994 141.533H102.12V138.985H103.994V141.533ZM102.35 141.303H103.763V139.215H102.35V141.303Z" fill="#12326E"/>
<path d="M109.314 107.335L108.61 107.215V101.9H109.314V107.335ZM108.841 107.019L109.083 107.06V102.131H108.841V107.019Z" fill="#12326E"/>
<path d="M130.329 116.879H128.718V114.259H130.329V116.879ZM128.949 116.648H130.099V114.49H128.949V116.648Z" fill="#12326E"/>
<path d="M116.619 116.879H115.008V114.259H116.619V116.879ZM115.239 116.648H116.389V114.49H115.239V116.648Z" fill="#12326E"/>
<path d="M105.711 116.879H104.1V114.259H105.711V116.879ZM104.331 116.648H105.48V114.49H104.331V116.648Z" fill="#12326E"/>
<path d="M217.993 146.79H171.709V119.615H217.993V146.79ZM171.94 146.559H217.763V119.846H171.94V146.559Z" fill="#12326E"/>
<path d="M176.201 126.356H173.514V122.376H176.201V126.356ZM173.745 126.125H175.97V122.607H173.745V126.125Z" fill="#12326E"/>
<path d="M180.531 126.356H177.844V122.376H180.531V126.356ZM178.075 126.125H180.3V122.607H178.075V126.125Z" fill="#12326E"/>
<path d="M184.89 126.356H182.204V122.376H184.89V126.356ZM182.435 126.125H184.66V122.607H182.435V126.125Z" fill="#12326E"/>
<path d="M189.221 126.356H186.534V122.376H189.221V126.356ZM186.765 126.125H188.99V122.607H186.765V126.125Z" fill="#12326E"/>
<path d="M193.68 126.356H190.993V122.376H193.68V126.356ZM191.224 126.125H193.449V122.607H191.224V126.125Z" fill="#12326E"/>
<path d="M198.01 126.356H195.323V122.376H198.01V126.356ZM195.554 126.125H197.779V122.607H195.554V126.125Z" fill="#12326E"/>
<path d="M202.368 126.356H199.681V122.376H202.368V126.356ZM199.912 126.125H202.137V122.607H199.912V126.125Z" fill="#12326E"/>
<path d="M206.697 126.356H204.011V122.376H206.697V126.356ZM204.242 126.125H206.467V122.607H204.242V126.125Z" fill="#12326E"/>
<path d="M211.237 126.356H208.551V122.376H211.237V126.356ZM208.782 126.125H211.007V122.607H208.782V126.125Z" fill="#12326E"/>
<path d="M215.567 126.356H212.881V122.376H215.567V126.356ZM213.112 126.125H215.337V122.607H213.112V126.125Z" fill="#12326E"/>
<path d="M176.201 131.902H173.514V127.921H176.201V131.902ZM173.745 131.671H175.97V128.152H173.745V131.671Z" fill="#12326E"/>
<path d="M180.531 131.902H177.844V127.921H180.531V131.902ZM178.075 131.671H180.3V128.152H178.075V131.671Z" fill="#12326E"/>
<path d="M184.89 131.902H182.204V127.921H184.89V131.902ZM182.435 131.671H184.66V128.152H182.435V131.671Z" fill="#12326E"/>
<path d="M189.221 131.902H186.534V127.921H189.221V131.902ZM186.765 131.671H188.99V128.152H186.765V131.671Z" fill="#12326E"/>
<path d="M193.68 131.902H190.993V127.921H193.68V131.902ZM191.224 131.671H193.449V128.152H191.224V131.671Z" fill="#12326E"/>
<path d="M198.01 131.902H195.323V127.921H198.01V131.902ZM195.554 131.671H197.779V128.152H195.554V131.671Z" fill="#12326E"/>
<path d="M202.368 131.902H199.681V127.921H202.368V131.902ZM199.912 131.671H202.137V128.152H199.912V131.671Z" fill="#12326E"/>
<path d="M206.697 131.902H204.011V127.921H206.697V131.902ZM204.242 131.671H206.467V128.152H204.242V131.671Z" fill="#12326E"/>
<path d="M211.237 131.902H208.551V127.921H211.237V131.902ZM208.782 131.671H211.007V128.152H208.782V131.671Z" fill="#12326E"/>
<path d="M215.567 131.902H212.881V127.921H215.567V131.902ZM213.112 131.671H215.337V128.152H213.112V131.671Z" fill="#12326E"/>
<path d="M176.201 137.858H173.514V133.878H176.201V137.858ZM173.745 137.627H175.97V134.109H173.745V137.627Z" fill="#12326E"/>
<path d="M180.531 137.858H177.844V133.878H180.531V137.858ZM178.075 137.627H180.3V134.109H178.075V137.627Z" fill="#12326E"/>
<path d="M184.89 137.858H182.204V133.878H184.89V137.858ZM182.435 137.627H184.66V134.109H182.435V137.627Z" fill="#12326E"/>
<path d="M189.221 137.858H186.534V133.878H189.221V137.858ZM186.765 137.627H188.99V134.109H186.765V137.627Z" fill="#12326E"/>
<path d="M193.68 137.858H190.993V133.878H193.68V137.858ZM191.224 137.627H193.449V134.109H191.224V137.627Z" fill="#12326E"/>
<path d="M198.01 137.858H195.323V133.878H198.01V137.858ZM195.554 137.627H197.779V134.109H195.554V137.627Z" fill="#12326E"/>
<path d="M202.368 137.858H199.681V133.878H202.368V137.858ZM199.912 137.627H202.137V134.109H199.912V137.627Z" fill="#12326E"/>
<path d="M206.697 137.858H204.011V133.878H206.697V137.858ZM204.242 137.627H206.467V134.109H204.242V137.627Z" fill="#12326E"/>
<path d="M211.237 137.858H208.551V133.878H211.237V137.858ZM208.782 137.627H211.007V134.109H208.782V137.627Z" fill="#12326E"/>
<path d="M215.567 137.858H212.881V133.878H215.567V137.858ZM213.112 137.627H215.337V134.109H213.112V137.627Z" fill="#12326E"/>
<path d="M176.201 143.406H173.514V139.426H176.201V143.406ZM173.745 143.175H175.97V139.656H173.745V143.175Z" fill="#12326E"/>
<path d="M180.531 143.406H177.844V139.426H180.531V143.406ZM178.075 143.175H180.3V139.656H178.075V143.175Z" fill="#12326E"/>
<path d="M184.89 143.406H182.204V139.426H184.89V143.406ZM182.435 143.175H184.66V139.656H182.435V143.175Z" fill="#12326E"/>
<path d="M189.221 143.406H186.534V139.426H189.221V143.406ZM186.765 143.175H188.99V139.656H186.765V143.175Z" fill="#12326E"/>
<path d="M193.68 143.406H190.993V139.426H193.68V143.406ZM191.224 143.175H193.449V139.656H191.224V143.175Z" fill="#12326E"/>
<path d="M198.01 143.406H195.323V139.426H198.01V143.406ZM195.554 143.175H197.779V139.656H195.554V143.175Z" fill="#12326E"/>
<path d="M202.368 143.406H199.681V139.426H202.368V143.406ZM199.912 143.175H202.137V139.656H199.912V143.175Z" fill="#12326E"/>
<path d="M206.697 143.406H204.011V139.426H206.697V143.406ZM204.242 143.175H206.467V139.656H204.242V143.175Z" fill="#12326E"/>
<path d="M211.237 143.406H208.551V139.426H211.237V143.406ZM208.782 143.175H211.007V139.656H208.782V143.175Z" fill="#12326E"/>
<path d="M215.567 143.406H212.881V139.426H215.567V143.406ZM213.112 143.175H215.337V139.656H213.112V143.175Z" fill="#12326E"/>
<path d="M211.738 119.843H201.897V116.18L211.738 112.412V119.846V119.843ZM202.128 119.613H211.508V112.746L202.128 116.339V119.615V119.613Z" fill="#12326E"/>
<path d="M154.763 146.915H132.541V122.708L154.763 130.403V146.915ZM132.771 146.684H154.532V130.567L132.771 123.032V146.684Z" fill="#12326E"/>
<path d="M154.181 132.008H133.12V131.038H154.181V132.008ZM133.351 131.777H153.951V131.269H133.351V131.777Z" fill="#12326E"/>
<path d="M154.181 134.383H133.12V133.414H154.181V134.383ZM133.351 134.153H153.951V133.645H133.351V134.153Z" fill="#12326E"/>
<path d="M154.181 136.761H133.12V135.792H154.181V136.761ZM133.351 136.531H153.951V136.023H133.351V136.531Z" fill="#12326E"/>
<path d="M154.181 139.137H133.12V138.167H154.181V139.137ZM133.351 138.906H153.951V138.398H133.351V138.906Z" fill="#12326E"/>
<path d="M154.181 141.515H133.12V140.545H154.181V141.515ZM133.351 141.284H153.951V140.776H133.351V141.284Z" fill="#12326E"/>
<path d="M154.181 143.891H133.12V142.921H154.181V143.891ZM133.351 143.66H153.951V143.152H133.351V143.66Z" fill="#12326E"/>
<path d="M213.585 119.843H211.505V112.463H213.585V119.843ZM211.736 119.612H213.354V112.693H211.736V119.612Z" fill="#12326E"/>
<path d="M209.707 118.737H205.728V116.05H209.707V118.737ZM205.959 118.507H209.476V116.281H205.959V118.507Z" fill="#12326E"/>
<path d="M136.012 77.8854H134.507V66.8407H136.012V77.8854ZM134.738 77.6545H135.781V67.0716H134.738V77.6545Z" fill="#12326E"/>
<path d="M138.546 77.8854H137.041V66.8407H138.546V77.8854ZM137.272 77.6545H138.315V67.0716H137.272V77.6545Z" fill="#12326E"/>
<path d="M141.046 77.8854H139.541V66.8407H141.046V77.8854ZM139.772 77.6545H140.815V67.0716H139.772V77.6545Z" fill="#12326E"/>
<path d="M143.636 77.8854H142.131V66.8407H143.636V77.8854ZM142.361 77.6545H143.405V67.0716H142.361V77.6545Z" fill="#12326E"/>
<path d="M516.787 159.599L508.921 161C508.143 161.139 507.587 161.727 507.688 162.307L535.87 320.678C535.974 321.255 536.699 321.615 537.477 321.476L545.343 320.075C546.125 319.937 546.677 319.35 546.575 318.771L518.393 160.4C518.289 159.823 517.569 159.46 516.787 159.599Z" fill="#F5CF68"/>
<path d="M516.787 159.599L508.921 161C508.143 161.139 507.587 161.727 507.688 162.307L508.561 167.215L519.266 165.308L518.393 160.4C518.289 159.823 517.569 159.46 516.787 159.599Z" fill="#12326E"/>
<path d="M535.87 320.675C535.974 321.252 536.699 321.613 537.477 321.474L545.343 320.073C546.125 319.934 546.677 319.348 546.575 318.768L545.823 314.534L535.118 316.441L535.87 320.675Z" fill="#12326E"/>
<path d="M514.767 170.664C514.322 170.743 514.005 171.078 514.063 171.408L538.871 310.808C538.928 311.138 539.342 311.344 539.787 311.263C540.232 311.184 540.549 310.85 540.491 310.519L515.683 171.119C515.626 170.789 515.213 170.586 514.767 170.664Z" fill="#DEB74B"/>
<path d="M123.97 316.289L129.138 316.22C129.138 316.22 121.367 307.592 118.983 303.203L112.423 291.083L103.834 293.207L114.736 308.659L123.973 316.289H123.97Z" fill="#FFC48E"/>
<path d="M75.4934 80.4297C73.513 79.3031 71.138 79.1807 69.4785 79.2777C69.9055 78.8367 70.7479 78.6751 70.7479 78.6751C69.7185 78.5227 67.4196 79.5432 67.4196 79.5432C53.0955 74.0231 56.5762 94.8728 56.8762 99.7741C57.174 104.675 46.3328 106.52 38.8799 110.382C24.662 117.749 23.4133 127.617 23.4133 127.617C23.5241 127.681 23.6395 127.758 23.7619 127.841C24.4681 126.645 25.9199 124.401 27.1432 124.061C27.0971 124.17 25.696 127.153 25.1744 128.861C29.3682 132.052 37.2158 139.126 42.6837 144.138C42.6583 143.159 42.6975 141.767 43.0553 141.033L43.7316 145.103C46.6582 147.795 48.6755 149.688 48.6755 149.688C48.3131 145.728 66.5818 124.828 76.1143 118.569C78.4339 115.152 79.2602 109.117 79.3202 108.642C78.9186 113.428 78.1015 116.113 77.3699 117.623C85.4413 110.193 80.742 83.4148 75.4911 80.432L75.4934 80.4297Z" fill="#222222"/>
<path d="M75.551 118.878C75.5995 118.899 70.9487 121.314 67.4519 120.358C64.1628 119.46 62.0117 115.194 62.0579 115.185C63.452 114.908 63.8536 112.994 63.8236 104.763L64.4537 104.888L75.0432 106.986C75.0432 106.986 74.8032 110.32 74.7963 113.46C74.7894 116.096 74.9486 118.597 75.5533 118.878H75.551Z" fill="#FFC48E"/>
<path d="M63.5767 83.8858C63.5767 83.8858 68.7999 78.3219 75.3595 83.6019C75.3595 83.6019 71.5419 82.9416 63.5767 83.8858Z" fill="#E37970"/>
<path d="M75.0432 106.986C75.0432 106.986 74.8031 110.32 74.7962 113.46C68.869 113.294 65.7369 107.884 64.4536 104.888L75.0432 106.986Z" fill="#ED975D"/>
<path d="M63.3598 103.736C63.3598 103.736 60.2531 98.8276 59.5099 94.6304C58.9767 91.6337 60.5024 80.5267 71.662 82.1266C71.662 82.1266 74.9026 82.4452 77.9493 84.5045C80.3728 86.1414 83.8673 89.6736 79.9597 99.3655L78.9441 102.639L63.3621 103.733L63.3598 103.736Z" fill="#222222"/>
<path d="M117.254 298.967L111.641 299.138L105.563 299.325C105.563 299.325 91.5278 283.695 83.6549 258.639C83.4702 258.057 83.2787 257.468 83.0733 256.87C78.764 244.304 69.8317 228.531 65.1254 214.254C64.3753 211.98 63.7037 209.84 63.0989 207.813C62.905 207.165 62.7181 206.527 62.5381 205.899C59.069 193.843 58.065 185.929 57.1394 177.47L87.1955 177.71C87.1955 177.71 96.6149 235.49 117.252 298.967H117.254Z" fill="#12326E"/>
<path d="M86.3715 158.207C86.7708 174.379 88.7442 181.326 88.7442 181.326C88.7442 181.326 74.1916 188.721 56.8947 183.277C56.6916 183.212 58.0164 116.443 62.9211 114.603C64.0498 116.009 67.4127 117.375 70.404 117.306C73.85 117.23 74.9671 115.755 74.7871 114.143C78.4593 116.186 85.8014 135.046 86.3715 158.202V158.207Z" fill="#0EA6CE"/>
<path d="M77.0237 109.96C77.0237 109.96 63.002 110.191 62.9928 101.455C62.9835 92.7188 61.1671 86.8663 70.1179 86.3468C79.0687 85.8297 80.8136 89.1611 81.5245 92.077C82.2377 94.9928 80.6705 109.674 77.0214 109.958L77.0237 109.96Z" fill="#FFC48E"/>
<path d="M81.1091 87.2196C78.9464 84.5969 77.31 85.1671 76.3913 85.9544C73.3608 81.4248 63.7845 87.9745 63.7845 87.9745C59.0713 92.4649 58.3281 97.8326 58.3281 97.8326C58.3281 97.8326 60.8832 99.4117 66.7758 97.8972C71.4128 96.7036 74.778 90.1031 76.0013 87.3465C76.8345 88.0876 78.5956 89.8007 79.1218 91.4791C79.8212 93.7046 80.1351 98.2827 81.4692 98.1281C81.4692 98.1281 84.3612 91.1628 81.1114 87.2219L81.1091 87.2196Z" fill="#222222"/>
<path d="M133.443 124.458C133.443 124.458 135.419 117.334 143.25 118.34C144.148 118.622 146.774 119.67 145.096 122.482C143.859 124.555 143.324 123.487 141.376 126.271C139.43 129.057 137.316 129.685 134.904 129.353L133.443 124.458Z" fill="#FFC48E"/>
<path d="M66.5172 315.79C66.0395 313.165 65.1324 308.626 65.1324 308.626L65.3424 292.519H55.563L59.2213 307.936C59.2975 308.652 59.496 311.429 58.4689 314.375C58.4689 314.375 57.5295 318.655 61.7441 318.736C65.9587 318.815 66.9927 318.418 66.5149 315.793L66.5172 315.79Z" fill="#FFC48E"/>
<path d="M58.4711 314.373C58.4711 314.373 57.6356 318.891 58.1134 321.038H66.9672C66.9672 321.038 67.0042 316.132 66.2286 314.262C66.2286 314.262 63.242 318.745 58.4711 314.37V314.373Z" fill="#222222"/>
<path d="M129.226 316.264C129.198 316.252 129.168 316.238 129.141 316.217C127.073 316.282 124.991 315.522 123.103 313.398C117.362 306.93 114.136 306.207 113.009 306.209C112.04 308.206 110.971 310.45 112.347 312.981L114.401 321.036H116.617L116.64 313.431C118.101 313.814 119.525 314.514 120.16 315.783C121.711 318.886 122.786 321.036 124.227 321.036H134.188C134.188 321.036 133.997 318.408 129.224 316.261L129.226 316.264Z" fill="#222222"/>
<path d="M133.443 124.458C133.443 124.458 124.241 129.605 120.951 131.089C119.077 131.934 114.763 133.954 111.726 135.383C109.792 136.29 107.495 135.794 106.106 134.171C101.116 128.342 88.188 115.697 74.8471 114.146L74.8633 114.178L74.7871 114.146C74.7871 114.146 82.9001 134.192 83.1378 138.248C83.3756 142.305 84.0911 204.588 84.0911 204.588C84.0911 204.588 83.6133 207.451 89.102 206.26C94.5883 205.066 96.0217 203.872 96.0217 203.872C96.0217 203.872 90.773 165.454 92.2041 152.089C92.4857 149.455 92.2294 146.493 91.6363 143.436C99.7631 148.381 109.381 150.579 109.381 150.579C109.381 150.579 116.571 147.441 126.399 140.238C129.485 137.978 134.904 129.353 134.904 129.353L133.443 124.458Z" fill="#F9F5EF"/>
<path d="M111.641 299.138L105.563 299.325C105.563 299.325 91.5279 283.695 83.6549 258.639C83.4703 258.057 83.2787 257.468 83.0733 256.87C78.7641 244.304 69.8317 228.531 65.1255 214.255C64.3753 211.98 63.7037 209.84 63.099 207.813C62.9051 207.165 62.7181 206.527 62.5381 205.899L67.5444 202.099C67.5444 202.099 82.5724 226.44 87.2232 249.346C91.2647 269.243 107.449 293.186 111.638 299.14L111.641 299.138Z" fill="#08204D"/>
<path d="M68.0681 251.477C68.1535 262.617 67.5903 288.227 66.1408 298.828H60.7583C57.7832 298.828 56.2991 298.784 56.2991 298.784C52.6615 280.35 50.0718 265.096 48.1884 251.953C46.642 241.167 45.2687 231.921 44.2116 223.958C43.1475 215.947 42.4089 209.24 42.1435 203.572C42.1019 202.681 42.0719 201.811 42.0558 200.968C42.0396 200.121 42.035 199.297 42.0419 198.498L71.4102 195.635C71.041 215.153 68.022 245.001 68.0704 251.475L68.0681 251.477Z" fill="#12326E"/>
<path d="M60.7584 298.831C57.7833 298.831 56.2992 298.787 56.2992 298.787C52.6616 280.352 50.0719 265.099 48.1885 251.955C46.642 241.169 45.2687 231.923 44.2116 223.96C43.1476 215.949 42.409 209.242 42.1436 203.575L52.9201 209.914C52.9201 209.914 46.0419 212.341 48.6663 230.715C51.2906 249.09 57.107 296.226 60.7584 298.828V298.831Z" fill="#233862"/>
<path d="M62.1433 203.395C62.1433 203.395 60.0753 210.87 52.9178 209.917C45.7604 208.963 35.584 204.667 35.584 204.667C35.584 204.667 38.6422 195 42.446 182.3C47.0506 166.924 52.7493 147.104 55.436 134.603C56.1907 131.101 56.7054 128.173 56.897 126.079L62.9235 114.605C62.9235 114.605 71.6897 134.432 72.1651 139.442C72.6429 144.454 62.1456 203.395 62.1456 203.395H62.1433Z" fill="#F9F5EF"/>
<path d="M61.8272 149.942C61.5087 158.054 59.5999 173.804 42.5822 182.235C42.5361 182.256 42.4922 182.282 42.446 182.3C47.0507 166.924 52.7494 147.104 55.436 134.603C58.5612 139.276 62.0026 145.474 61.8272 149.942Z" fill="#EFE9DE"/>
<path d="M92.6195 145.504C92.6102 146.476 89.8059 153.257 84.8642 157.306C83.9064 158.091 83.1401 158.472 82.5308 158.576C74.4847 161.33 67.5027 162.762 61.834 163.457V154.478C68.8368 154.03 77.4622 153.559 81.0143 153.37C81.5983 152.44 82.2838 151.121 82.5146 149.789C82.9393 147.319 84.2618 145.488 87.7055 145.036C91.1492 144.583 92.6287 144.535 92.6218 145.504H92.6195Z" fill="#FFC48E"/>
<path d="M62.9211 114.603C62.9211 114.603 48.3062 115.577 44.8071 123.373C41.308 131.17 40.1955 157.101 44.6478 164.736C44.6478 164.736 50.7781 166.483 61.6239 164.454C61.7578 164.429 61.8894 164.403 62.0255 164.378C62.0255 164.378 65.4854 155.907 62.3833 154.236C62.3833 154.236 53.2386 154.714 54.1918 151.689C55.1451 148.667 62.9211 114.603 62.9211 114.603Z" fill="#F9F5EF"/>
<path d="M370.938 190.847L362.365 190.731C362.268 190.701 362.176 190.683 362.074 190.683C361.98 190.683 361.888 190.694 361.798 190.724C360.673 191.066 359.785 193.506 359.762 196.473C359.759 196.63 359.762 196.78 359.762 196.932C359.789 198.239 359.988 199.424 360.3 200.349C360.637 201.34 361.105 202.025 361.638 202.229C361.65 202.235 361.661 202.238 361.668 202.242C361.77 202.277 361.869 202.298 361.973 202.298C362.07 202.298 362.169 202.282 362.266 202.249L437.224 203.261L437.3 197.526L437.376 191.747L370.933 190.849L370.938 190.847Z" fill="white"/>
<path d="M403.646 201.725C387.84 203.044 378.312 195.995 370.938 190.847L362.365 190.731C362.268 190.701 362.176 190.683 362.074 190.683C361.98 190.683 361.888 190.694 361.798 190.724C360.673 191.066 359.785 193.506 359.762 196.473C359.759 196.63 359.762 196.78 359.762 196.932C359.789 198.239 359.988 199.424 360.3 200.349C360.858 201.404 361.373 202.099 361.638 202.229C361.65 202.235 361.661 202.238 361.668 202.242C361.77 202.277 361.869 202.298 361.973 202.298C362.07 202.298 362.169 202.282 362.266 202.249L437.224 203.261L437.3 197.526C436.202 197.824 428.763 199.634 403.641 201.728L403.646 201.725Z" fill="#E5E5E5"/>
<path d="M437.506 191.676C436.255 191.664 435.218 194.257 435.191 197.463C435.163 200.67 436.155 203.279 437.409 203.291C438.66 203.302 439.698 200.709 439.724 197.503C439.751 194.296 438.759 191.687 437.506 191.676Z" fill="#D0D0D0"/>
<path d="M66.2124 76.1633C63.3319 76.8882 61.1715 78.0448 59.5581 79.437C59.3989 79.5755 59.2419 79.7163 59.0919 79.8595C53.1208 85.5573 55.5028 94.6212 55.5028 94.6212C55.5028 94.6212 56.2968 96.9114 56.8438 97.8002C57.3908 98.689 65.3191 97.664 65.7277 95.9556C66.1385 94.2471 67.7103 92.4695 67.7103 92.4695C67.7103 92.4695 76.068 91.8946 76.6289 91.8554C78.5169 91.7191 83.904 89.8445 83.904 89.8445C83.8417 89.3158 80.8111 72.5017 66.2124 76.1679V76.1633Z" fill="#F5CF68"/>
<path d="M88.8549 88.0645C87.8532 87.8197 86.1429 87.5473 83.327 87.4434C83.327 87.4434 77.8776 89.5697 73.176 91.0634C70.9671 88.2792 67.7543 81.3993 59.5582 79.4369C59.5328 79.43 59.512 79.4254 59.4866 79.4185C59.3112 79.6378 59.2143 79.7117 59.0919 79.8594C59.055 79.9056 59.0158 79.9564 58.9719 80.0187C65.6447 81.1823 69.183 88.9279 71.3595 91.7329C69.4923 92.1924 70.1478 92.3055 67.7104 92.4671C67.7104 92.4671 82.3161 92.7395 88.9911 89.2234C89.4989 88.9556 89.4135 88.2007 88.8549 88.0645Z" fill="#DEB74B"/>
<path d="M310.613 87.0786C316.325 76.7473 331.707 77.9848 331.707 77.9848C316.032 74.2493 308.231 86.5546 308.231 86.5546L307.555 86.326L303.991 87.2864L335.744 93.6791L310.613 87.0763V87.0786Z" fill="#E27F2B"/>
<path d="M279.174 206.548H273.337V321.502H279.174V206.548Z" fill="#21A7CC"/>
<path d="M498.317 206.548H492.48V321.502H498.317V206.548Z" fill="#21A7CC"/>
<path d="M514.668 207.938V202.099L255.276 202.099V207.938L514.668 207.938Z" fill="#21A7CC"/>
<path d="M279.174 207.938H273.337V212.324H279.174V207.938Z" fill="#148BAC"/>
<path d="M498.317 207.938H492.48V212.324H498.317V207.938Z" fill="#148BAC"/>
<path d="M508.177 191.461C508.177 191.461 507.374 190.36 505.934 189.12C505.706 188.921 505.461 188.718 505.198 188.52C502.546 186.479 498.294 184.477 493.145 186.594C491.748 187.167 490.587 187.949 489.62 188.857C489.392 189.071 489.175 189.291 488.969 189.519C484.487 194.439 484.824 202.194 484.824 202.194L510.532 202.058C510.654 194.88 508.175 191.461 508.175 191.461H508.177Z" fill="#F5CF68"/>
<path d="M503.312 202.097C503.245 201.014 502.802 192.14 505.934 189.125C505.706 188.924 505.761 188.958 505.498 188.757C502.156 192.227 501.895 200.963 501.902 202.106L493.683 202.15C493.473 195.852 490.031 189.561 489.618 188.859C489.39 189.074 489.346 189.115 489.14 189.344C489.738 190.408 491.975 196.492 492.159 202.159L484.82 202.199C484.82 202.199 491.656 204.006 496.815 203.969C501.971 203.932 510.53 202.062 510.53 202.062L503.308 202.102L503.312 202.097Z" fill="#DEB74B"/>
<path d="M421.887 190.678V196.459L421.891 202.196L346.926 202.224C346.829 202.259 346.732 202.277 346.633 202.277C346.529 202.277 346.428 202.259 346.329 202.226C345.278 201.873 344.443 199.675 344.346 196.942C344.339 196.792 344.337 196.639 344.337 196.482C344.32 193.518 345.177 191.064 346.294 190.708C346.386 190.678 346.476 190.664 346.573 190.662C346.672 190.662 346.767 190.678 346.864 190.708L421.889 190.678H421.887Z" fill="white"/>
<path d="M421.891 196.459V202.196L346.929 202.224C346.832 202.259 346.735 202.277 346.635 202.277C346.532 202.277 346.43 202.259 346.331 202.226C345.281 201.873 344.445 199.675 344.348 196.942C347.792 198.205 367.161 202.628 387.646 196.972C411.943 190.263 420.797 196.773 421.891 196.459Z" fill="#E5E5E5"/>
<path d="M422.011 190.609C420.76 190.616 419.759 193.222 419.777 196.429C419.793 199.636 420.823 202.231 422.076 202.224C423.327 202.217 424.329 199.611 424.31 196.404C424.292 193.197 423.265 190.602 422.011 190.609Z" fill="#D0D0D0"/>
<path d="M332.452 114.801C332.452 114.801 350.795 133.739 351.674 140.883C352.553 148.023 342.947 159.195 342.947 159.195L332.452 114.801Z" fill="#1B93B4"/>
<path d="M324.609 311.272C324.609 311.272 323.986 321.34 322.038 321.486C321.78 321.504 312.162 321.504 312.162 321.504L299.883 321.433C299.883 321.433 299.963 318.473 303.552 317.847C307.142 317.221 313.147 314.698 315.321 309.954C317.609 304.962 324.609 311.272 324.609 311.272Z" fill="#222222"/>
<path d="M351.958 311.272C351.958 311.272 351.335 321.34 349.387 321.486C349.128 321.504 339.51 321.504 339.51 321.504L327.194 321.46C327.194 321.46 327.312 318.473 330.901 317.847C334.49 317.221 340.498 314.698 342.672 309.954C344.96 304.962 351.96 311.272 351.96 311.272H351.958Z" fill="#222222"/>
<path d="M311.012 203.305C311.012 203.305 314.223 223.847 326.202 260.315C338.181 296.783 339.813 312.574 339.813 312.574C339.813 312.574 343.053 313.045 346.476 313.045C348.641 313.045 352.664 312.214 352.664 312.214C352.664 312.214 352.775 272.359 347.254 254.022C341.733 235.684 346.063 187.913 346.063 187.913L311.012 203.307V203.305Z" fill="#08204D"/>
<path d="M304.76 189.035C304.76 189.035 304.305 219.992 309.66 258.002C315.014 296.012 313.2 312.145 313.2 312.145C313.2 312.145 317.609 312.934 319.158 312.985C320.815 313.041 326.026 312.57 326.026 312.57C326.026 312.57 333.692 274.546 331.494 255.522C329.297 236.499 341.989 190.24 341.989 190.24L304.762 189.032L304.76 189.035Z" fill="#12326E"/>
<path d="M329.585 116.591L323.536 121.072L314.793 119.232C314.913 118.435 315.49 115.129 316.016 112.135C316.048 111.959 316.078 111.782 316.108 111.608C316.558 109.062 316.946 106.873 316.946 106.873L325.112 102.803L328.157 101.286C328.15 101.339 327.921 104.112 327.889 104.519C327.319 111.708 329.583 116.591 329.583 116.591H329.585Z" fill="#FFC48E"/>
<path d="M315.407 114.33C315.598 114.25 327.298 110.796 328.57 111.216C329.842 111.636 330.594 114.095 330.594 114.095L311.455 118.424C311.455 118.424 312.963 115.36 315.407 114.33Z" fill="#1B93B4"/>
<path d="M346.915 192.858C344.932 201.908 311.924 202.981 303.416 194.767C302.449 193.83 302.401 189.476 302.765 183.6C303.479 172.124 305.773 154.862 305.86 146.042C305.904 141.783 306.488 137.426 307.268 133.472C308.926 125.04 311.455 118.426 311.455 118.426C311.455 118.426 327.577 113.213 330.594 114.1C345.128 118.371 348.897 183.81 346.915 192.86V192.858Z" fill="#21A7CC"/>
<path d="M302.765 183.598C303.479 172.121 305.773 154.859 305.861 146.04C305.904 141.781 306.488 137.424 307.268 133.469L316.967 131.756C316.967 131.756 326.449 170.496 302.765 183.598Z" fill="#1B93B4"/>
<path d="M308.016 167.603C308.016 167.603 308.676 169.185 307.289 170.244C305.902 171.306 304.999 173.024 305.318 174.282C305.636 175.538 308.681 177.588 309.736 177.258C310.79 176.928 312.939 175.273 312.708 174.61C312.478 173.947 314.153 168.794 311.58 166.811C309.006 164.828 308.014 167.605 308.014 167.605L308.016 167.603Z" fill="#FFC48E"/>
<path d="M318.86 116.101C318.86 116.101 309.401 117.872 301.865 128.981C294.329 140.091 289.371 148.349 290.759 152.354C292.146 156.357 304.801 170.244 306.982 170.244C309.163 170.244 312.683 168.658 312.882 165.087C312.882 165.087 303.972 151.731 305.727 149.729C306.477 148.875 317.292 140.091 318.837 144.059C321.392 150.623 318.855 116.103 318.855 116.103L318.86 116.101Z" fill="#21A7CC"/>
<path d="M327.28 104.646C325.486 108.079 318.804 111.045 316.018 112.137C316.051 111.962 316.081 111.784 316.111 111.611C316.561 109.064 316.948 106.876 316.948 106.876L325.115 102.805C326.919 102.778 328.018 103.235 327.277 104.646H327.28Z" fill="#ED975D"/>
<path d="M314.347 107.723C314.347 107.723 328.766 109.381 329.662 100.384C330.555 91.3867 333.02 85.5389 323.85 84.1006C314.68 82.6623 312.547 85.9175 311.52 88.8472C310.491 91.7769 310.62 107.06 314.347 107.723Z" fill="#FFC48E"/>
<path d="M311.898 87.9237C311.898 87.9237 314.652 97.6733 316.618 96.8537C318.587 96.0341 320.385 95.36 320.653 98.4074C320.921 101.453 318.735 105.444 325.152 104.772C331.57 104.101 337.553 86.0768 335.231 83.3202C328.531 75.3691 302.594 78.442 311.896 87.926L311.898 87.9237Z" fill="#222222"/>
<path d="M335.744 93.6815L303.991 87.2888L307.555 86.3284C307.555 86.3284 310.811 72.885 326.897 76.0986C340.272 78.7721 335.744 93.6815 335.744 93.6815Z" fill="#F5CF68"/>
<g clip-path="url(#clip1_2405_311)">
<path d="M569.189 317.258H0.811007C0.3631 317.258 0 317.981 0 318.873V320.385C0 321.277 0.3631 322 0.811007 322H569.189C569.637 322 570 321.277 570 320.385V318.873C570 317.981 569.637 317.258 569.189 317.258Z" fill="#2E3552"/>
</g>
</g>
<defs>
<clipPath id="clip0_2405_311">
<rect width="570" height="322.816" fill="white"/>
</clipPath>
<clipPath id="clip1_2405_311">
<rect width="570" height="4.74227" fill="white" transform="translate(0 317.258)"/>
</clipPath>
</defs>
</svg>
