<svg width="570" height="345" viewBox="0 0 570 345" fill="none" xmlns="http://www.w3.org/2000/svg">
<g clip-path="url(#clip0_2001_3280)">
<path d="M30.0684 345C30.0684 345 -11.1586 294.23 9.21962 196.169C22.0354 134.491 75.874 103.933 148.046 106.85C172.855 107.853 213.22 77.9678 271.217 41.2561C395.277 -37.2684 574.726 -3.9181 531.778 172.711C510.993 258.188 597.153 259.557 554.332 345H30.0684Z" fill="#F5CF68"/>
</g>
<g clip-path="url(#clip1_2001_3280)">
<path d="M495.988 117.181C495.748 101.452 469.67 99.7299 469.67 99.7299C469.67 99.7299 446.181 121.185 441.104 120.549C436.028 119.913 457.591 98.2945 457.591 98.2945C448.296 94.9557 421.028 100.437 421.028 100.437C421.028 100.437 414.891 130.868 410.128 129.006C405.366 127.145 416.94 102.338 416.94 102.338C407.011 102.756 395.661 111.297 395.661 111.297C380.437 126.038 400.21 144.767 400.21 144.767C400.21 144.767 397.855 155.267 388.346 165.583C388.346 165.583 386.326 167.421 383.886 170.797L386.402 171.436C386.779 170.815 387.172 170.224 387.581 169.664C387.581 169.658 387.583 169.656 387.589 169.653C387.594 169.645 387.602 169.637 387.607 169.629C387.879 169.285 388.266 168.796 388.746 168.204C388.746 168.204 388.746 168.204 388.746 168.202C389.899 166.898 390.701 165.923 391.233 165.205C391.233 165.205 391.236 165.2 391.239 165.197C394.743 161.075 399.625 155.785 402.167 155.06C402.167 155.06 401.988 154.599 401.922 153.774C402.001 154.184 402.08 154.613 402.167 155.06C404.124 165.349 425.255 172.345 437.874 172.937C450.492 173.528 446.125 168.83 441.067 161.719C436.009 154.607 422.111 152.615 418.662 149.455C415.213 146.295 421.602 145.632 429.44 148.274C437.278 150.916 439.24 159.902 451.84 164.406C464.44 168.909 480.466 147.191 480.466 147.191C470.843 147.685 456.107 138.723 456.276 135.503C456.444 132.282 480.041 138.597 483.965 138.615C487.889 138.631 496.225 132.916 495.988 117.186V117.181Z" fill="url(#paint0_linear_2001_3280)"/>
<path d="M518.551 271.098C530.827 250.405 498.209 227.414 498.209 227.414C498.209 227.414 450.418 236.703 444.311 231.836C438.203 226.97 483.615 215.942 483.615 215.942C474.169 204.195 434.237 189.654 434.237 189.654C434.237 189.654 401.887 224.444 397.167 218.229C392.446 212.014 427.388 188.881 427.388 188.881C414.11 181.528 392.478 183.639 392.478 183.639C360.835 190.745 371.624 230.885 371.624 230.885C371.624 230.885 360.152 242.699 339.498 248.583C339.498 248.583 335.392 249.372 329.511 251.83L332.278 254.661C333.267 254.154 334.25 253.694 335.234 253.289C335.239 253.284 335.244 253.281 335.252 253.281C335.265 253.276 335.281 253.271 335.294 253.263C335.922 253.031 336.821 252.703 337.921 252.311C337.921 252.311 337.924 252.311 337.926 252.311C337.926 252.311 337.929 252.311 337.932 252.311C340.476 251.525 342.304 250.891 343.57 250.381C343.575 250.381 343.578 250.379 343.58 250.376C351.447 247.789 362.046 244.776 365.938 245.852C365.938 245.852 366.075 245.108 366.65 243.98C366.423 244.577 366.186 245.2 365.938 245.852C360.255 260.818 382.204 286.745 398.177 297.553C414.153 308.361 412.22 298.763 411.318 285.468C410.413 272.173 393.892 258.523 391.924 251.662C389.957 244.797 398.818 249.017 406.922 258.694C415.026 268.371 410.392 281.645 423.214 297.537C436.036 313.432 474.306 297.863 474.306 297.863C461.368 290.857 449.329 267.451 452.127 263.387C454.925 259.32 480.632 286.322 485.732 289.466C490.835 292.611 506.278 291.788 518.551 271.092V271.098Z" fill="url(#paint1_linear_2001_3280)"/>
<path d="M77.2273 194.129C84.5058 179.228 110.165 189.202 110.165 189.202C110.165 189.202 122.958 220.137 128.087 221.794C133.216 223.447 122.33 193.214 122.33 193.214C132.697 194.168 156.257 211.548 156.257 211.548C156.257 211.548 148.469 243.317 153.849 243.664C159.229 244.009 159.305 215.184 159.305 215.184C168.593 220.006 175.592 233.214 175.592 233.214C183.512 254.062 156.249 263.121 156.249 263.121C156.249 263.121 153.789 274.189 158.24 288.268C158.24 288.268 159.345 290.92 160.16 295.229L157.475 294.719C157.394 293.959 157.285 293.218 157.146 292.503C157.146 292.498 157.146 292.495 157.143 292.49C157.143 292.479 157.138 292.469 157.138 292.458C157.032 292.009 156.882 291.37 156.689 290.592C156.689 290.592 156.689 290.592 156.689 290.589C156.689 290.589 156.689 290.589 156.689 290.586C156.175 288.827 155.848 287.539 155.661 286.619C155.661 286.617 155.661 286.614 155.661 286.611C154.166 281.117 151.877 273.892 149.777 272.07C149.777 272.07 150.155 271.71 150.587 270.953C150.329 271.311 150.06 271.681 149.777 272.07C143.298 281.017 119.999 278.277 107.694 273.222C95.3893 268.166 101.66 265.627 109.677 261.094C117.692 256.562 131.845 260.852 136.555 259.375C141.262 257.897 135.463 254.417 126.8 253.447C118.137 252.477 112.238 260.174 98.1952 258.86C84.1524 257.543 78.5986 229.683 78.5986 229.683C87.557 234.442 105.637 232.454 106.919 229.307C108.203 226.158 82.855 221.673 79.1023 219.94C75.3497 218.208 69.9594 209.038 77.2379 194.137L77.2273 194.129Z" fill="url(#paint2_linear_2001_3280)"/>
</g>
<g clip-path="url(#clip2_2001_3280)">
<path d="M408.5 0H150.812V344.82H408.5V0Z" fill="#21A7CC"/>
<path d="M396.218 11.1763H165.923V329.351H396.218V11.1763Z" fill="white"/>
<path d="M234.104 0V11.6804C234.104 18.1312 239.349 23.3608 245.819 23.3608H308.754C315.226 23.3608 320.469 18.1312 320.469 11.6804V0H234.104Z" fill="#F5CF68"/>
<path d="M235.086 125.579H193.435V84.0942H235.086V125.579ZM195.397 123.625H233.124V86.0487H195.397V123.625Z" fill="#21A7CC"/>
<path d="M215.294 117.241C214.421 117.241 213.587 116.855 213.025 116.177L200.171 100.692C199.136 99.4453 199.312 97.5973 200.564 96.5657C201.815 95.5341 203.671 95.7099 204.707 96.9566L214.899 109.238L233.34 78.4113C234.171 77.0212 235.978 76.5656 237.373 77.3936C238.769 78.2217 239.226 80.0211 238.395 81.4112L217.818 115.809C217.328 116.628 216.469 117.158 215.517 117.232C215.442 117.239 215.366 117.241 215.291 117.241H215.294Z" fill="#F5CF68"/>
<path d="M235.086 190.444H193.435V148.959H235.086V190.444ZM195.397 188.489H233.124V150.913H195.397V188.489Z" fill="#21A7CC"/>
<path d="M215.294 181.749C214.421 181.749 213.587 181.363 213.025 180.685L200.171 165.2C199.136 163.953 199.312 162.105 200.564 161.074C201.815 160.042 203.671 160.218 204.707 161.465L214.899 173.747L233.34 142.922C234.171 141.532 235.978 141.076 237.373 141.904C238.769 142.732 239.226 144.532 238.395 145.922L217.818 180.32C217.328 181.139 216.469 181.668 215.517 181.742C215.442 181.749 215.366 181.752 215.291 181.752L215.294 181.749Z" fill="#F5CF68"/>
<path d="M235.086 253.967H193.435V212.482H235.086V253.967ZM195.397 252.012H233.124V214.436H195.397V252.012Z" fill="#21A7CC"/>
<path d="M215.294 244.659C214.421 244.659 213.587 244.273 213.025 243.595L200.171 228.11C199.136 226.864 199.312 225.015 200.564 223.984C201.815 222.952 203.671 223.128 204.707 224.375L214.899 236.657L233.34 205.83C234.171 204.439 235.978 203.984 237.373 204.812C238.769 205.64 239.226 207.439 238.395 208.829L217.818 243.228C217.328 244.046 216.469 244.576 215.517 244.65C215.442 244.657 215.366 244.659 215.291 244.659H215.294Z" fill="#F5CF68"/>
<g opacity="0.5">
<path d="M317.469 93.7739H263.157V97.8216H317.469V93.7739Z" fill="#21A7CC"/>
<path d="M363.616 93.7739H351.271V97.8216H363.616V93.7739Z" fill="#21A7CC"/>
<path d="M317.469 111.852H263.157V115.9H317.469V111.852Z" fill="#21A7CC"/>
<path d="M363.616 111.852H345.213V115.9H363.616V111.852Z" fill="#21A7CC"/>
<path d="M363.616 102.813H348.489V106.861H363.616V102.813Z" fill="#21A7CC"/>
<path d="M318.407 102.813H303.28V106.861H318.407V102.813Z" fill="#21A7CC"/>
<path d="M296.769 102.813H263.157V106.861H296.769V102.813Z" fill="#21A7CC"/>
</g>
<g opacity="0.5">
<path d="M315.395 156.073H263.157V160.121H315.395V156.073Z" fill="#21A7CC"/>
<path d="M317.469 174.151H263.157V178.199H317.469V174.151Z" fill="#21A7CC"/>
<path d="M314.717 165.112H300.661V169.16H314.717V165.112Z" fill="#21A7CC"/>
<path d="M296.769 165.112H263.157V169.16H296.769V165.112Z" fill="#21A7CC"/>
</g>
<g opacity="0.5">
<path d="M317.469 220.137H263.157V224.185H317.469V220.137Z" fill="#21A7CC"/>
<path d="M317.469 238.216H263.157V242.263H317.469V238.216Z" fill="#21A7CC"/>
<path d="M324.28 229.177H300.661V233.224H324.28V229.177Z" fill="#21A7CC"/>
<path d="M296.769 229.177H263.157V233.224H296.769V229.177Z" fill="#21A7CC"/>
</g>
<path d="M381.818 210.835C381.818 210.835 383.931 217.314 383.748 218.796C383.567 220.279 382.241 225.342 381.293 226.637C380.346 227.932 379.879 221.359 379.129 220.369C378.379 219.379 378.975 222.844 378.446 223.165C377.917 223.487 376.816 220.616 376.342 219.606C375.868 218.593 377.501 214.862 377.506 212.26C377.51 209.658 381.818 210.837 381.818 210.837V210.835Z" fill="#FFC48E"/>
<path d="M332.143 159.37C331.558 151.94 339.66 146.847 346.058 150.71C346.19 150.789 346.318 150.869 346.448 150.953C356.027 157.094 376.693 185.746 378.116 188.617C379.537 191.487 383.736 214.323 383.736 214.323C383.736 214.323 378.548 216.213 376.121 214.251C376.121 214.251 367.708 192.595 366.463 191.513C365.219 190.43 332.81 172.317 332.533 165.527C332.461 163.732 332.315 161.574 332.141 159.37H332.143Z" fill="#233862"/>
<path d="M248.71 161.492L251.528 169.552L292.234 155.434L289.415 147.373L248.71 161.492Z" fill="#F5CF68"/>
<path d="M240.666 168.813L251.539 169.56L248.722 161.5L240.666 168.813Z" fill="#F9DDBF"/>
<path d="M295.095 148.418L295.984 150.966C296.532 152.535 295.701 154.246 294.126 154.792L292.243 155.444L289.426 147.384L291.474 146.674C292.956 146.16 294.577 146.94 295.095 148.415V148.418Z" fill="#F9DDBF"/>
<path d="M389.978 327.08C389.978 327.08 393.84 330.591 393.085 333.084C392.333 335.577 388.847 337.24 388.376 340.289C387.904 343.337 386.021 345 384.326 345H376.242C376.242 345 374.995 342.856 378.009 342.209C381.023 341.561 382.159 337.98 381.971 334.654C381.783 331.328 382.254 326.894 382.254 326.894L388.659 325.417L389.978 327.08Z" fill="#222222"/>
<path d="M342.6 336.158C342.6 336.158 343.292 344.147 341.597 344.977L319.9 344.933C319.9 344.933 319.9 342.44 323.386 341.885C326.872 341.33 332.993 339.299 334.029 334.772C335.064 330.246 342.6 336.158 342.6 336.158Z" fill="#222222"/>
<path d="M324.28 223.311C324.28 223.311 325.425 237.314 326.769 254.147C328.597 277.013 330.796 305.099 331.014 310.421C331.391 319.662 332.9 334.439 332.9 334.439C332.9 334.439 336.479 337.95 343.638 336.47C343.638 336.47 350.02 315.374 351.84 293.051C351.868 292.686 351.896 292.316 351.926 291.948C353.621 269.223 356.257 221.373 356.257 221.373L324.28 223.313V223.311Z" fill="#F5CF68"/>
<path d="M324.28 223.311C324.28 223.311 325.425 237.314 326.769 254.147L351.84 293.051C351.868 292.686 351.896 292.316 351.926 291.948C353.621 269.223 356.257 221.373 356.257 221.373L324.28 223.313V223.311Z" fill="#D8AE45"/>
<path d="M329.507 224.974C329.507 224.974 350.136 275.688 363.697 299.521C377.262 323.353 381.5 330.005 381.5 330.005C381.5 330.005 389.27 326.957 389.976 324.877C389.976 324.877 384.79 278.868 375.706 267.65C370.574 261.313 364.545 242.294 364.262 235.641C363.978 228.989 362.425 215.826 362.425 215.826L329.505 224.972L329.507 224.974Z" fill="#F5CF68"/>
<path d="M347.293 148.901C347.293 148.901 333.474 155.884 325.378 153.555C325.378 153.555 327.308 151.027 330.738 149.107C330.427 147.504 330.183 146.112 330.037 144.932C329.642 142.207 329.612 140.66 329.612 140.66L334.911 136.337L339.936 132.199C339.76 143.556 347.296 148.901 347.296 148.901H347.293Z" fill="#FFC48E"/>
<path d="M361.022 219.842C355.442 223.205 350.159 225.735 343.977 227.155C336.686 228.878 327.722 228.37 324.724 228.825C324.415 228.867 324.125 228.786 323.848 228.605C323.614 228.485 322.29 219.627 320.964 208.443C320.906 207.995 320.843 207.539 320.818 207.083L320.799 206.933C320.284 202.562 319.833 197.97 319.441 193.368C319.12 189.787 318.858 186.244 318.677 182.918C318.447 178.757 318.352 174.931 318.447 171.785C318.489 170.347 318.572 169.056 318.702 167.934C319.492 161.403 322.62 156.735 325.567 153.261L328.01 150.492C330.843 150.671 333.736 150.139 336.465 148.344C339.449 146.387 342.67 144.282 343.278 144.634C347.853 147.127 351.576 153.585 354.237 162.115C355.763 167.025 356.933 172.597 357.681 178.498C357.922 180.33 358.127 182.208 358.282 184.076C358.312 184.423 358.338 184.768 358.366 185.11C358.723 190.224 359.311 195.017 359.961 199.296C360.837 205.069 361.83 209.903 362.534 213.308C362.887 215.04 363.156 216.382 363.317 217.341C363.461 218.179 361.775 219.379 361.025 219.846L361.022 219.842Z" fill="#12326E"/>
<path d="M340.113 136.536C340.113 136.536 336.713 143.008 330.035 144.932C329.64 142.207 329.61 140.66 329.61 140.66L334.909 136.337L340.113 136.538V136.536Z" fill="#ED985F"/>
<path d="M327.153 140.524C327.153 140.524 340.508 142.429 341.595 134.253C342.681 126.077 345.138 120.817 336.658 119.256C328.177 117.692 326.101 120.602 325.063 123.243C324.022 125.887 323.707 139.816 327.153 140.524Z" fill="#FFC48E"/>
<path d="M346.111 118.093C346.23 117.951 346.506 117.836 347.126 117.79C347.126 117.79 346.624 117.491 345.96 117.487C345.814 116.631 345.324 115.118 343.833 114.778C343.833 114.778 344.639 115.185 344.762 116.096C343.009 114.371 339.298 113.164 329.113 114.167C315.688 115.49 320.29 123.977 322.051 124.964C323.811 125.952 328.137 123.063 331.386 123.255C334.635 123.447 335.343 128.103 336.458 128.721C337.572 129.338 337.115 128.216 338.592 127.516C340.066 126.817 340.257 129.269 339.86 130.876C339.463 132.481 341.548 134.549 341.548 134.549L343.571 132.292C345.593 130.034 347.354 120.604 346.376 118.622C346.29 118.446 346.204 118.271 346.116 118.09L346.111 118.093Z" fill="#222222"/>
<path d="M341.871 172.512C341.871 172.512 330.61 181.044 318.674 182.915C318.444 178.754 318.349 174.929 318.444 171.783L341.871 172.512Z" fill="#233862"/>
<path d="M272.72 161.5C272.543 161.31 270.247 153.663 266.276 154.223C263.684 154.586 259.451 156.08 260.575 159.48C261.016 160.817 268.911 165.422 268.911 165.422L272.72 161.502V161.5Z" fill="#FFC48E"/>
<path d="M343.264 156.023C349.685 159.848 349.165 169.378 342.298 172.336C342.156 172.396 342.015 172.456 341.873 172.512C331.302 176.735 295.879 176.932 292.707 176.425C289.535 175.919 268.41 166.109 268.41 166.109C268.41 166.109 269.866 160.801 272.875 159.966C272.875 159.966 295.475 165.67 297.082 165.286C298.689 164.902 332.278 149.068 337.997 152.775C339.509 153.756 341.36 154.887 343.264 156.023Z" fill="#12326E"/>
</g>
<g clip-path="url(#clip3_2001_3280)">
<path d="M569.189 340.258H0.811007C0.3631 340.258 0 340.981 0 341.873V343.385C0 344.277 0.3631 345 0.811007 345H569.189C569.637 345 570 344.277 570 343.385V341.873C570 340.981 569.637 340.258 569.189 340.258Z" fill="#2E3552"/>
</g>
<defs>
<linearGradient id="paint0_linear_2001_3280" x1="383.886" y1="129.419" x2="495.993" y2="129.419" gradientUnits="userSpaceOnUse">
<stop stop-color="#12326E"/>
<stop offset="1" stop-color="#03194D"/>
</linearGradient>
<linearGradient id="paint1_linear_2001_3280" x1="329.511" y1="234.923" x2="521.314" y2="234.923" gradientUnits="userSpaceOnUse">
<stop stop-color="#12326E"/>
<stop offset="1" stop-color="#03194D"/>
</linearGradient>
<linearGradient id="paint2_linear_2001_3280" x1="73.6353" y1="232.384" x2="177.035" y2="232.384" gradientUnits="userSpaceOnUse">
<stop stop-color="#12326E"/>
<stop offset="1" stop-color="#03194D"/>
</linearGradient>
<clipPath id="clip0_2001_3280">
<rect width="562.875" height="343.814" fill="white" transform="translate(3.5625 1.18555)"/>
</clipPath>
<clipPath id="clip1_2001_3280">
<rect width="447.688" height="207.474" fill="white" transform="translate(73.625 97.2166)"/>
</clipPath>
<clipPath id="clip2_2001_3280">
<rect width="257.688" height="345" fill="white" transform="translate(150.812)"/>
</clipPath>
<clipPath id="clip3_2001_3280">
<rect width="570" height="4.74227" fill="white" transform="translate(0 340.258)"/>
</clipPath>
</defs>
</svg>
