<svg width="570" height="345" viewBox="0 0 570 345" fill="none" xmlns="http://www.w3.org/2000/svg">
<g clip-path="url(#clip0_1951_17633)">
<path d="M30.5059 345C30.5059 345 -10.7211 294.23 9.65712 196.169C22.4729 134.491 76.3115 103.933 148.484 106.85C173.293 107.853 213.658 77.9678 271.654 41.2561C395.714 -37.2684 575.164 -3.9181 532.215 172.711C511.431 258.188 597.591 259.557 554.769 345H30.5059Z" fill="#C5E9F5"/>
</g>
<g clip-path="url(#clip1_1951_17633)">
<path d="M172.921 344.307H173.091C174.476 344.278 175.546 343.144 175.416 341.84L166.175 249.392L158.113 250.112L171.381 343.058C171.484 343.785 172.149 344.322 172.921 344.307Z" fill="#F5CF68"/>
<path d="M83.9544 344.307H83.7847C82.3995 344.278 81.3294 343.144 81.4597 341.84L90.7003 249.392L98.7625 250.112L85.4945 343.058C85.3912 343.785 84.7269 344.322 83.9544 344.307Z" fill="#F5CF68"/>
<path d="M238.105 344.307H238.274C239.66 344.278 240.73 343.144 240.599 341.84L231.359 249.392L223.297 250.112L236.565 343.058C236.668 343.785 237.332 344.322 238.105 344.307Z" fill="#F5CF68"/>
<path d="M86.705 235.947L70.3051 154.803C68.1992 143.817 77.2872 133.77 89.084 134.041L120.715 134.766C131.626 135.015 141.113 142.333 144.146 152.836L168.141 235.947H86.705Z" fill="#F5CF68"/>
<path d="M96.6271 235.947L80.2272 154.803C78.1213 143.817 87.2093 133.77 99.0061 134.041L130.637 134.766C141.548 135.015 151.035 142.333 154.068 152.836L178.063 235.947H96.6271Z" fill="#F5CF68"/>
<path d="M216.418 250.746L91.2759 250.746C88.7517 250.746 86.7048 248.692 86.7048 246.166V235.947L216.418 235.947C218.942 235.947 220.989 238 220.989 240.526V246.166C220.989 248.692 218.939 250.746 216.418 250.746Z" fill="#F5CF68"/>
<path d="M150.004 250.746H229.777C231.811 250.746 233.46 249.094 233.46 247.056V239.637C233.46 237.599 231.811 235.947 229.777 235.947H150.004C147.97 235.947 146.321 237.599 146.321 239.637V247.056C146.321 249.094 147.97 250.746 150.004 250.746Z" fill="#F5CF68"/>
<path d="M285.016 0H330.39C332.481 0 334.176 1.70072 334.176 3.79335V47.672C334.176 49.7671 332.479 51.4653 330.39 51.4653H285.016C282.925 51.4653 281.23 49.7646 281.23 47.672V3.79335C281.23 1.69826 282.928 0 285.016 0Z" fill="#89C1CE"/>
<path d="M286.982 2.23071H328.424C330.334 2.23071 331.884 3.78355 331.884 5.69624V45.7692C331.884 47.6819 330.334 49.2347 328.424 49.2347H286.982C285.073 49.2347 283.523 47.6819 283.523 45.7692V5.69624C283.523 3.78355 285.073 2.23071 286.982 2.23071Z" fill="#BDE5F0"/>
<path d="M307.704 8.02552C308.31 8.02552 308.802 7.53334 308.802 6.92621C308.802 6.31908 308.31 5.8269 307.704 5.8269C307.098 5.8269 306.607 6.31908 306.607 6.92621C306.607 7.53334 307.098 8.02552 307.704 8.02552Z" fill="white"/>
<path d="M315.457 8.47894C315.752 7.949 316.419 7.75675 316.947 8.05253C317.476 8.3483 317.668 9.01627 317.373 9.5462C317.078 10.0761 316.411 10.2684 315.882 9.97262C315.353 9.67684 315.161 9.00887 315.457 8.47894Z" fill="white"/>
<path d="M323.039 14.5154C323.548 14.1876 324.227 14.333 324.554 14.8433C324.882 15.3535 324.737 16.0338 324.227 16.3616C323.718 16.6894 323.039 16.544 322.712 16.0338C322.382 15.5236 322.53 14.8433 323.039 14.5154Z" fill="white"/>
<path d="M326.796 23.8569C327.401 23.8569 327.893 24.3499 327.893 24.9562C327.893 25.5626 327.401 26.0555 326.796 26.0555C326.191 26.0555 325.698 25.5626 325.698 24.9562C325.698 24.3499 326.191 23.8569 326.796 23.8569Z" fill="white"/>
<path d="M324.877 34.6974C325.305 35.1263 325.305 35.8213 324.877 36.2502C324.449 36.6791 323.755 36.6791 323.327 36.2502C322.899 35.8213 322.899 35.1263 323.327 34.6974C323.755 34.2685 324.449 34.2685 324.877 34.6974Z" fill="white"/>
<path d="M317.991 41.6161C318.419 42.045 318.419 42.74 317.991 43.1689C317.563 43.5978 316.869 43.5978 316.441 43.1689C316.013 42.74 316.013 42.045 316.441 41.6161C316.869 41.1872 317.563 41.1872 317.991 41.6161Z" fill="white"/>
<path d="M306.607 45.1826C306.607 44.5762 307.099 44.0833 307.704 44.0833C308.31 44.0833 308.802 44.5762 308.802 45.1826C308.802 45.7889 308.31 46.2819 307.704 46.2819C307.099 46.2819 306.607 45.7889 306.607 45.1826Z" fill="white"/>
<path d="M299.916 8.47894C299.62 7.949 298.954 7.75675 298.425 8.05253C297.896 8.3483 297.704 9.01627 297.999 9.5462C298.294 10.0761 298.961 10.2684 299.49 9.97262C300.019 9.67684 300.211 9.00887 299.916 8.47894Z" fill="white"/>
<path d="M292.333 14.5152C291.824 14.1874 291.145 14.3328 290.817 14.843C290.488 15.3532 290.635 16.0335 291.145 16.3613C291.654 16.6892 292.333 16.5437 292.66 16.0335C292.987 15.5233 292.842 14.843 292.333 14.5152Z" fill="white"/>
<path d="M288.576 23.8569C287.971 23.8569 287.479 24.3499 287.479 24.9562C287.479 25.5626 287.971 26.0555 288.576 26.0555C289.181 26.0555 289.674 25.5626 289.674 24.9562C289.674 24.3499 289.181 23.8569 288.576 23.8569Z" fill="white"/>
<path d="M290.495 34.6971C290.067 35.126 290.067 35.8211 290.495 36.25C290.923 36.6789 291.617 36.6789 292.045 36.25C292.473 35.8211 292.473 35.126 292.045 34.6971C291.617 34.2683 290.923 34.2683 290.495 34.6971Z" fill="white"/>
<path d="M297.381 41.6158C296.953 42.0447 296.953 42.7398 297.381 43.1687C297.809 43.5976 298.503 43.5976 298.931 43.1687C299.359 42.7398 299.359 42.0447 298.931 41.6158C298.503 41.187 297.809 41.187 297.381 41.6158Z" fill="white"/>
<path d="M307.407 24.9562C307.407 24.3499 307.899 23.8569 308.504 23.8569C309.109 23.8569 309.601 24.3499 309.601 24.9562C309.601 25.5626 309.109 26.0555 308.504 26.0555C307.899 26.0555 307.407 25.5626 307.407 24.9562Z" fill="white"/>
<path d="M308.654 11.2273H308.354V24.9563H308.654V11.2273Z" fill="white"/>
<path d="M315.358 18.8754L308.093 24.5886L308.647 25.2963L315.912 19.5831L315.358 18.8754Z" fill="white"/>
<path d="M195.722 218.964C188.952 230.768 180.437 235.326 180.437 235.326H145.012C145.012 235.326 200.886 209.958 195.722 218.964Z" fill="#233862"/>
<path d="M239.416 336.245C239.032 339.969 244.203 340.931 250.199 341.295C256.195 341.66 254.369 342.87 262.574 344.45C270.779 346.03 274.098 343.812 274.705 342.705C275.247 341.724 271.441 340.139 267.386 338.35C266.874 338.126 266.365 337.896 265.853 337.667C261.29 335.599 258.763 331.451 255.23 327.593C251.884 323.941 248.792 312.324 248.792 312.324L237.647 309.815C237.647 309.815 240.673 320.273 241.714 324.734C242.326 327.359 241.35 330.275 240.486 332.493C240.021 333.701 239.551 334.936 239.418 336.247L239.416 336.245Z" fill="#FFC48E"/>
<path d="M250.197 341.296C256.192 341.66 254.367 342.871 262.571 344.45C270.776 346.03 274.095 343.812 274.703 342.705C275.244 341.724 271.438 340.14 267.384 338.35L267.32 338.419C267.32 338.419 261.518 340.324 254.866 338.434C249.444 336.896 244.221 333.583 240.484 332.491C240.019 333.699 239.549 334.934 239.416 336.245C239.032 339.969 244.203 340.931 250.199 341.296H250.197Z" fill="black"/>
<path d="M222.529 206.872C216.531 202.652 176.857 195.132 156.612 192.956L134.234 173.493C134.234 173.493 115.187 201.757 115.034 223.381C114.963 233.465 119.598 234.466 119.6 234.468C119.6 234.468 191.338 235 194.482 235.326C199.629 235.858 206.419 248.705 208.114 260.405C209.812 272.106 239.726 319.694 239.726 319.694C239.726 319.694 245.965 321.695 248.848 321.528C251.951 321.345 253.387 320.305 253.387 320.305C253.387 320.305 236.053 216.389 222.526 206.874L222.529 206.872Z" fill="#09234C"/>
<path d="M220.861 336.245C220.477 339.969 225.649 340.931 231.644 341.295C237.64 341.66 235.814 342.87 244.019 344.45C252.224 346.03 255.543 343.812 256.15 342.705C256.692 341.724 252.886 340.139 248.831 338.35C248.322 338.126 247.81 337.896 247.299 337.667C242.735 335.599 240.208 331.451 236.675 327.593C233.329 323.941 230.237 312.324 230.237 312.324L219.09 309.815C219.09 309.815 222.116 320.273 223.156 324.734C223.769 327.359 222.792 330.275 221.929 332.493C221.464 333.701 220.994 334.936 220.861 336.247V336.245Z" fill="#FFC48E"/>
<path d="M231.642 341.296C237.637 341.66 235.812 342.871 244.017 344.45C252.221 346.03 255.54 343.812 256.148 342.705C256.689 341.724 252.883 340.14 248.829 338.35L248.765 338.419C248.765 338.419 242.964 340.324 236.311 338.434C230.889 336.896 225.666 333.583 221.929 332.491C221.464 333.699 220.994 334.934 220.861 336.245C220.477 339.969 225.649 340.931 231.644 341.296H231.642Z" fill="#222222"/>
<path d="M203.809 206.872C198.598 203.207 182.927 200.365 165.629 198.255C160.846 197.671 156.92 194.188 155.751 189.505L115.514 173.493C115.514 173.493 96.4671 201.757 96.3145 223.381C96.2432 233.465 100.878 234.466 100.881 234.468C100.881 234.468 172.618 235 175.763 235.326C180.909 235.858 187.7 248.705 189.395 260.405C191.092 272.106 221.006 319.694 221.006 319.694C221.006 319.694 227.245 321.695 230.129 321.528C233.231 321.345 234.668 320.305 234.668 320.305C234.668 320.305 217.333 216.389 203.807 206.874L203.809 206.872Z" fill="#12326E"/>
<path d="M149.967 56.0597C144.439 53.1513 136.025 52.7569 134.657 52.5745C118.302 50.3734 108.458 74.1835 107.878 81.398C106.81 94.6957 99.7883 96.7242 89.9056 105.053C70.0885 121.749 75.8996 141.155 86.7368 148.367C93.2392 152.693 104.699 148.367 104.699 148.367C104.861 148.48 136.042 130.904 151.411 122.425C174.454 119.144 164.057 63.4739 149.967 56.0597Z" fill="#222222"/>
<path d="M146.557 114.232C146.629 114.269 139.29 117.614 133.99 115.859C129.006 114.215 124.617 106.697 124.686 106.685C126.848 106.372 129.048 104.232 129.663 91.563L130.62 91.8045L146.727 95.8838C146.727 95.8838 146.09 100.996 145.827 105.829C145.605 109.886 145.649 113.749 146.555 114.232H146.557Z" fill="#FFC48E"/>
<path d="M146.727 95.8838C146.727 95.8838 146.727 96.9363 146.124 101.691C137.014 99.3888 132.999 96.362 130.165 92.8989L146.725 95.8838H146.727Z" fill="#ED975D"/>
<path d="M150.164 96.527C150.164 96.527 128.866 100.002 126.91 86.6801C124.954 73.3578 120.89 64.8344 134.404 62.0541C147.92 59.2738 151.315 63.9668 153.047 68.2531C154.779 72.5419 155.655 95.2823 150.164 96.5295V96.527Z" fill="#FFC48E"/>
<path d="M150.184 61.4947C150.184 61.4947 140.51 76.7913 131.877 80.4146C123.242 84.0379 119 82.1991 119 82.1991C119 82.1991 122.929 76.2318 123.953 68.2187C124.255 65.8574 125.79 63.8313 127.997 62.9465C134.195 60.4595 146.178 56.5404 150.186 61.4947H150.184Z" fill="#222222"/>
<path d="M141.688 62.9736C141.688 62.9736 147.357 65.8845 149.692 68.6155C151.945 71.248 154.548 78.3959 154.361 81.6051C154.361 81.6051 157.158 66.2247 151.333 60.9376C145.155 55.3326 141.688 62.9736 141.688 62.9736Z" fill="#222222"/>
<path d="M163.597 146.777C162.95 190.153 163.42 181.087 158.684 185.204C157.542 186.195 154.334 186.786 150.112 187.065C136.837 187.947 113.502 185.756 112.613 183.298C109.55 174.795 111.713 172.152 109.159 159.131C108.894 157.746 108.564 156.247 108.178 154.615C106.047 145.673 103.976 142.629 111.531 128.262C118.385 115.247 126.442 104.676 127.084 105.055C145.165 115.809 145.785 106.795 145.785 106.795C145.785 106.795 163.916 125.619 163.599 146.777H163.597Z" fill="white"/>
<path d="M145.78 106.798C145.78 106.798 164.286 109.94 166.47 117.966C168.655 125.991 181.512 173.17 181.512 173.17C181.512 173.17 172.055 174.874 167.686 170.496C163.316 166.119 152.481 129.883 152.481 129.883L145.782 106.8L145.78 106.798Z" fill="white"/>
<path d="M150.11 187.065C136.834 187.947 113.499 185.756 112.611 183.298C109.548 174.795 111.711 172.152 109.157 159.131L115.561 141.066C115.561 141.066 114.503 161.182 120.422 166.473C126.337 171.763 144.665 176.688 147.544 181.107C148.931 183.229 149.844 185.356 150.112 187.065H150.11Z" fill="#EBF3FF"/>
<path d="M134.901 178.605C134.901 178.605 147.999 175.685 150.11 176.848C152.223 178.011 157.387 182.253 158.034 183.73C158.681 185.206 153.33 182.611 151.588 182.142C150.462 181.839 147.495 182.872 146.026 183.363C139.846 185.428 136.057 184.366 136.057 184.366L134.901 178.608V178.605Z" fill="#FFC48E"/>
<path d="M127.079 105.058C127.079 105.058 108.544 106.142 102.455 114.651C93.8861 126.625 76.886 177.659 86.6285 184.464C97.6011 192.13 136.564 186.471 136.564 186.471C136.564 186.471 137.86 180.4 136.057 177.462C134.254 174.524 104.935 169.779 103.582 168.423C102.229 167.068 120.496 141.988 120.496 137.921C120.496 133.854 127.079 105.058 127.079 105.058Z" fill="white"/>
<path d="M150.744 180.501C150.744 180.501 153.488 184.048 154.388 184.472C155.288 184.895 155.869 184.79 155.869 184.79L154.019 181.455L150.744 180.501Z" fill="#FFC48E"/>
<path d="M150.11 176.848L158.088 180.73C158.088 180.73 157.749 181.287 156.767 181.243C155.786 181.198 153.306 180.289 153.306 180.289L150.11 176.848Z" fill="#FFC48E"/>
<path d="M179.502 186.049H142.446C142.446 184.415 143.77 183.089 145.401 183.089H179.502V186.049Z" fill="#0E839E"/>
<path d="M179.396 145.619H236.685L222.945 186.049H165.282L179.396 145.619Z" fill="#0E839E"/>
<path d="M237.529 145.616L223.789 186.049H166.126L180.24 145.616H237.529Z" fill="#21A7CC"/>
<path d="M206.641 165.46C206.284 167.006 204.747 168.258 203.204 168.258C201.661 168.258 200.7 167.006 201.056 165.46C201.413 163.915 202.951 162.663 204.493 162.663C206.036 162.663 206.995 163.915 206.641 165.46Z" fill="white"/>
<path d="M129.638 186.049H380.702C381.757 186.049 382.613 186.907 382.613 187.964V193.229C382.613 194.286 381.757 195.144 380.702 195.144H129.638C128.583 195.144 127.727 194.286 127.727 193.229V187.964C127.727 186.907 128.583 186.049 129.638 186.049Z" fill="#182D4F"/>
<path d="M386.847 344.985L386.956 344.973C388.242 344.813 389.152 343.664 388.99 342.405L366.617 190.68L358.427 190.915L384.751 343.459C384.921 344.436 385.846 345.111 386.85 344.985H386.847Z" fill="#182D4F"/>
<path d="M121.232 344.985L121.123 344.973C119.837 344.813 118.926 343.664 119.089 342.405L141.462 190.68L149.652 190.915L123.328 343.459C123.16 344.436 122.233 345.111 121.229 344.985H121.232Z" fill="#182D4F"/>
<path d="M173.024 344.985L172.916 344.973C171.629 344.813 170.719 343.664 170.882 342.405L193.255 190.68L201.445 190.915L175.121 343.459C174.951 344.436 174.026 345.111 173.022 344.985H173.024Z" fill="#182D4F"/>
<path d="M305.015 344.862H349.41C351.546 342.252 350.758 332.619 350.436 329.472C350.37 328.838 350.323 328.469 350.323 328.469C350.323 328.469 335.163 316.319 333.079 325.622C333.015 325.913 332.939 326.198 332.855 326.479C330.233 335.18 318.463 339.134 311.668 340.236C307.249 340.953 305.618 343.255 305.013 344.86L305.015 344.862Z" fill="black"/>
<path d="M426.157 200.335C424.555 200.335 350.109 214.338 337.795 229.61C331.645 237.238 330.729 325.346 330.729 325.346C330.729 325.346 338.339 334.798 354.776 329.309C354.776 329.309 366.826 269.027 365.938 250.746C365.692 245.69 416.803 250.014 426.157 247.588C435.51 245.163 458.368 224.774 453.332 214.843C448.296 204.91 426.157 200.335 426.157 200.335Z" fill="#09234C"/>
<path d="M338.115 178.761C338.115 178.761 323.098 178.963 319.548 180.489C315.998 182.014 308.792 185.514 310.721 186.052C312.649 186.589 321.848 185.83 323.836 186.135C325.824 186.441 328.274 186.052 329.492 186.052C330.71 186.052 336.388 186.052 336.388 186.052L338.115 178.761Z" fill="#FFC48E"/>
<path d="M320.557 142.656C320.557 142.656 315.437 138.991 310.465 138.279C307.628 137.872 304.873 137.367 303.207 136.778C298.619 135.158 289.44 126.889 290.136 125.92C292.362 122.812 303.079 129.391 304.949 128.683C306.819 127.976 301.354 124.084 303.254 122.713C304.248 121.999 306.57 125.582 308.467 125.942C311.035 126.43 313.043 130.063 313.818 130.253C315.324 130.623 321.917 135.535 321.917 135.535L320.559 142.654L320.557 142.656Z" fill="#FFC48E"/>
<path d="M418.742 99.8521C418.742 99.8521 407.312 103.401 396.049 134.473C384.786 165.544 380.51 167.223 376.416 168.44C372.322 169.661 336.388 176.828 336.388 176.828V186.049H391.756C391.756 186.049 412.517 166.262 418.742 152.942C424.966 139.622 418.742 99.8496 418.742 99.8496V99.8521Z" fill="#0E839E"/>
<path d="M285.395 344.862H329.79C331.925 342.252 331.138 332.619 330.816 329.472C330.749 328.838 330.703 328.469 330.703 328.469C330.703 328.469 315.543 316.319 313.459 325.622C313.395 325.913 313.319 326.198 313.235 326.479C310.612 335.18 298.843 339.134 292.047 340.236C287.629 340.953 285.998 343.255 285.393 344.86L285.395 344.862Z" fill="#222222"/>
<path d="M404.219 200.335C402.615 200.335 328.171 214.338 315.858 229.61C309.707 237.238 308.792 325.346 308.792 325.346C308.792 325.346 316.404 334.798 332.838 329.309C332.838 329.309 344.888 269.027 344 250.746C343.754 245.69 394.865 250.014 404.219 247.588C413.573 245.163 436.431 224.774 431.395 214.843C426.358 204.91 404.219 200.335 404.219 200.335Z" fill="#12326E"/>
<path d="M408.879 109.699C414.234 109.255 419.849 107.826 424.703 106.248C430.77 104.277 435.658 101.393 432.509 95.8395C429.606 90.7201 424.904 79.2833 425.222 69.8086L413.934 78.9235L406.266 85.1126C406.266 85.1126 406.298 88.763 407.137 95.1592C407.289 96.3251 407.469 97.5846 407.68 98.9279C407.85 100.015 407.353 101.099 406.421 101.679C406.362 101.716 406.305 101.75 406.249 101.787C402.438 104.185 404.398 110.071 408.883 109.699H408.879Z" fill="#FFC48E"/>
<path d="M406.263 83.6065C406.263 83.6065 405.872 84.9325 406.546 89.8252C413.383 88.7086 419.772 83.2442 419.772 83.2442C416.291 82.2878 415.027 78.5191 412.434 78.8716L406.263 83.6065Z" fill="#ED975D"/>
<path d="M399.941 84.7207C399.941 84.7207 426.236 89.0982 428.706 72.6481C431.173 56.2004 436.231 45.6879 419.546 42.1978C402.861 38.7076 398.649 44.4925 396.494 49.782C394.336 55.0715 393.165 83.158 399.943 84.7207H399.941Z" fill="#FFC48E"/>
<path d="M392.624 42.5034C391.495 46.4643 394.516 51.288 399.589 52.8778C407.12 55.2341 405.454 64.4895 408.844 64.3638C412.232 64.2381 413.6 59.0447 416.626 63.193C419.207 66.7325 414.478 70.9276 414.803 72.8699C415.361 76.2023 420.572 83.02 425.266 82.6774C429.96 82.3348 438.746 59.9814 436.989 53.0651C435.233 46.1488 428.204 38.8554 421.551 37.8498C414.899 36.8442 405.661 39.7206 403.528 39.7206C401.395 39.7206 393.232 40.3614 392.621 42.5009L392.624 42.5034Z" fill="#222222"/>
<path d="M453.682 122.681C449.881 107.355 439.376 91.2745 432.273 91.2869C420.169 91.3091 402.77 94.5109 395.746 111.873C390.572 124.66 383.671 198.218 391.47 203.448C409.299 215.408 450.629 239.819 457.97 214.924C464.696 192.113 460.278 149.281 453.679 122.681H453.682Z" fill="#21A7CC"/>
<path d="M424.285 107.429C420.833 98.43 409.695 95.3194 402.101 101.24C397.992 104.442 392.964 109.002 386.887 115.484C364.299 139.583 359.709 139.432 355.467 138.934C351.226 138.436 315.385 130.815 315.385 130.815C315.385 130.815 313.55 132.171 312.47 134.365C311.028 137.293 311.754 139.289 311.754 139.289C310.349 138.38 324.459 148.123 331.48 152.008C340.755 157.137 354.729 161.948 360.294 163.775C361.871 164.292 363.574 164.268 365.136 163.703C373.397 160.721 401.139 149.848 423.724 130.988C429.675 126.019 427.488 115.775 424.287 107.431L424.285 107.429Z" fill="#21A7CC"/>
<path d="M433.493 91.4349L430.752 85.2507C430.752 85.2507 406.224 87.2546 402.101 101.24C402.101 101.24 421.113 91.7332 433.491 91.4349H433.493Z" fill="white"/>
<path d="M493.043 344.307H493.212C494.598 344.278 495.668 343.144 495.537 341.84L486.297 249.392L478.235 250.112L491.503 343.058C491.606 343.785 492.27 344.322 493.043 344.307Z" fill="#F5CF68"/>
<path d="M445.484 344.307H445.654C447.039 344.278 448.109 343.144 447.979 341.84L438.741 249.392L430.679 250.112L443.947 343.058C444.05 343.785 444.714 344.322 445.487 344.307H445.484Z" fill="#F5CF68"/>
<path d="M356.203 344.307H356.033C354.648 344.278 353.578 343.144 353.708 341.84L362.949 249.392L371.011 250.112L357.743 343.058C357.639 343.785 356.975 344.322 356.203 344.307Z" fill="#D8AE45"/>
<path d="M490.433 236.297L499.201 159.084C500.35 147.958 496.635 137.061 480.606 136.218L452.41 134.498C435.698 133.807 428.154 147.741 426.039 158.468L409.299 243.344L490.43 236.294L490.433 236.297Z" fill="#F5CF68"/>
<path d="M360.579 235.947H490.292V246.166C490.292 248.695 488.243 250.746 485.721 250.746H360.579C358.055 250.746 356.008 248.692 356.008 246.166V240.526C356.008 237.998 358.058 235.947 360.579 235.947Z" fill="#D8AE45"/>
<path d="M412.849 235.947H490.29V247.189C490.29 249.151 488.698 250.746 486.74 250.746H412.849C410.891 250.746 409.299 249.151 409.299 247.189V239.504C409.299 237.542 410.891 235.947 412.849 235.947Z" fill="#F5CF68"/>
</g>
<g clip-path="url(#clip2_1951_17633)">
<path d="M569.189 340.258H0.811007C0.3631 340.258 0 340.981 0 341.873V343.385C0 344.277 0.3631 345 0.811007 345H569.189C569.637 345 570 344.277 570 343.385V341.873C570 340.981 569.637 340.258 569.189 340.258Z" fill="#2E3552"/>
</g>
<defs>
<clipPath id="clip0_1951_17633">
<rect width="562.875" height="343.814" fill="white" transform="translate(4 1.18555)"/>
</clipPath>
<clipPath id="clip1_1951_17633">
<rect width="429.395" height="345" fill="white" transform="translate(70)"/>
</clipPath>
<clipPath id="clip2_1951_17633">
<rect width="570" height="4.74227" fill="white" transform="translate(0 340.258)"/>
</clipPath>
</defs>
</svg>
