<svg width="570" height="345" viewBox="0 0 570 345" fill="none" xmlns="http://www.w3.org/2000/svg">
<g clip-path="url(#clip0_1951_17054)">
<path d="M30.5059 345C30.5059 345 -10.7211 294.23 9.65712 196.169C22.4729 134.491 76.3115 103.933 148.484 106.85C173.293 107.853 213.658 77.9678 271.654 41.2562C395.714 -37.2684 575.164 -3.91803 532.215 172.711C511.431 258.188 597.591 259.557 554.769 345H30.5059Z" fill="#C5E9F5"/>
</g>
<g clip-path="url(#clip1_1951_17054)">
<path d="M251.114 213.164C251.354 215.4 254.516 215.319 258.09 214.784C261.664 214.248 260.741 215.187 265.768 215.09C270.796 214.994 272.472 213.274 272.69 212.55C272.887 211.907 270.448 211.449 267.838 210.906C267.51 210.838 267.181 210.766 266.85 210.696C263.906 210.05 261.901 207.929 259.339 206.104C256.914 204.377 255.278 196.456 255.278 196.456L248.133 196.413C248.133 196.413 250.377 203.577 251.548 206.067C252.237 207.531 251.502 209.412 251.273 210.825C251.149 211.592 251.028 212.378 251.112 213.164H251.114Z" fill="#FFC48E"/>
<path d="M258.093 214.784C261.667 214.248 260.744 215.187 265.771 215.09C270.798 214.994 272.475 213.274 272.693 212.55C272.889 211.907 270.451 211.449 267.841 210.906L267.811 210.954C267.811 210.954 264.633 212.798 260.483 212.52C257.1 212.294 253.612 211 251.276 210.828C251.152 211.595 251.031 212.38 251.114 213.166C251.354 215.403 254.516 215.322 258.09 214.786L258.093 214.784Z" fill="#222222"/>
<path d="M195.249 212.808C195.406 215.05 198.568 215.09 202.161 214.689C205.753 214.288 204.795 215.193 209.82 215.284C214.847 215.376 216.586 213.723 216.833 213.005C217.054 212.367 214.635 211.821 212.046 211.177C211.72 211.097 211.394 211.013 211.066 210.93C208.149 210.174 206.224 207.98 203.735 206.061C201.375 204.242 203.318 196.698 203.318 196.698L197.895 194.139C197.895 194.139 197.149 201.914 196.746 205.846C196.582 207.455 195.78 209.073 195.494 210.475C195.341 211.237 195.19 212.017 195.247 212.806L195.249 212.808Z" fill="#FFC48E"/>
<path d="M202.161 214.689C205.753 214.288 204.795 215.193 209.82 215.284C214.847 215.376 216.586 213.723 216.833 213.005C217.054 212.367 214.635 211.821 212.046 211.177L212.013 211.226C212.013 211.226 208.768 212.948 204.631 212.515C201.259 212.162 197.822 210.739 195.494 210.475C195.341 211.237 195.19 212.017 195.247 212.806C195.403 215.047 198.565 215.088 202.158 214.687L202.161 214.689Z" fill="#222222"/>
<path d="M207.43 100.855C207.43 100.855 205.928 108.127 204.424 145.007C204.424 145.007 201.633 151.835 199.612 160.186C197.588 168.534 196.159 203.375 196.159 203.375C196.159 203.375 196.966 204.538 199.415 204.686C201.415 204.807 202.973 203.93 202.973 203.93C202.973 203.93 217.04 158.297 223.89 140.583C230.736 122.867 234.749 97.5714 234.749 97.5714L207.43 100.857V100.855Z" fill="#12326E"/>
<path d="M224.35 103.966C224.35 103.966 225.459 111.308 236.816 146.428C236.816 146.428 236.563 153.8 237.556 162.334C238.549 170.868 250.043 204.468 250.043 204.468C250.043 204.468 251.569 204.998 253.859 204.393C255.988 203.83 257.657 202.549 257.657 202.549C257.657 202.549 253.249 154.526 253.539 135.534C253.83 116.545 248.835 91.4219 248.835 91.4219L224.344 103.963L224.35 103.966Z" fill="#12326E"/>
<path d="M244.464 2.2526C242.683 1.11958 240.495 0.896204 238.953 0.90966C239.37 0.52212 240.153 0.411778 240.153 0.411778C239.208 0.22339 237.034 1.06037 237.034 1.06037C224.043 -4.70699 220.986 14.6943 221.037 19.2398C221.088 23.7853 220.859 29.0037 214.042 32.7364C200.632 40.0836 210.912 54.5921 210.912 54.5921C208.498 61.5194 217.436 70.0049 217.436 70.0049C217.285 66.326 234.17 42.8905 243.275 37.543C245.579 34.4911 246.62 28.9472 246.701 28.5112C246.109 32.9168 245.229 35.3631 244.48 36.7249C252.288 30.2282 249.179 5.25335 244.462 2.24991L244.464 2.2526Z" fill="#222222"/>
<path d="M241.633 35.0348C241.679 35.0563 237.373 37.2901 234.135 36.4046C231.089 35.5757 229.097 31.6223 229.14 31.6142C230.429 31.3585 230.804 29.585 230.777 21.9688L231.361 22.0845L240.815 23.9576L241.168 24.0249C241.168 24.0249 240.944 27.1117 240.936 30.0183C240.936 30.6346 240.944 31.2401 240.966 31.808C241.03 33.4954 241.216 34.8383 241.636 35.0348H241.633Z" fill="#FFC48E"/>
<path d="M240.933 30.0182C240.933 30.6345 240.942 31.2401 240.963 31.8079C235.465 31.5872 232.295 25.2978 231.097 22.5392L240.812 23.9575L241.165 24.0248C241.165 24.0248 240.942 27.1117 240.933 30.0182Z" fill="#EA8E50"/>
<path d="M230.343 21.016C230.343 21.016 227.466 16.4732 226.777 12.587C226.285 9.81234 227.698 -0.468249 238.03 1.01194C238.03 1.01194 241.03 1.30798 243.851 3.21339C246.095 4.72856 249.333 7.99844 245.71 16.9711L244.771 20.0014L230.341 21.016H230.343Z" fill="#222222"/>
<path d="M241.744 28.5919C241.744 28.5919 228.871 26.891 230.053 18.8899C231.237 10.8888 230.37 5.28025 238.64 6.02842C246.911 6.77659 248.052 10.0653 248.307 12.8319C248.563 15.5985 245.124 28.8287 241.744 28.5919Z" fill="#FFC48E"/>
<path d="M244.518 6.70663C244.518 6.70663 239.604 15.5662 234.001 16.1502C228.398 16.7342 226.271 14.9392 226.271 14.9392C226.271 14.9392 230.9 12.2668 232.615 6.6555C232.615 6.6555 242.529 1.84353 244.515 6.70394L244.518 6.70663Z" fill="#222222"/>
<path d="M243.533 7.33635C243.533 7.33635 245.848 9.82307 246.184 11.9545C246.521 14.086 246.184 18.322 247.427 18.3624C247.427 18.3624 251.028 12.3771 248.587 8.32673C246.001 4.0288 243.533 7.33635 243.533 7.33635Z" fill="#222222"/>
<path d="M329.023 116.039C326.321 110.317 318.816 105.583 312.488 105.583C307.816 105.583 303.696 107.177 300.507 109.774C298.685 111.259 295.934 110.28 295.439 107.981L289.903 82.2555C289.096 78.5039 285.401 76.1168 281.649 76.9242L192.055 96.207C188.389 96.9955 186.059 100.607 186.847 104.273L206.108 193.77C206.66 196.33 208.536 198.262 210.864 199.002L209.688 199.336H213.165L213.195 199.33C213.62 199.317 214.05 199.269 214.481 199.177L216.432 198.757L239.426 193.808C242.653 193.114 243.964 189.209 241.795 186.722C239.701 184.319 238.194 181.339 237.55 177.967C235.742 168.462 241.617 159.048 250.956 156.515C261.344 153.7 271.834 160.186 274.071 170.572C274.91 174.479 274.461 178.363 273.005 181.781C272.44 183.108 272.908 184.488 273.88 185.274L272.539 185.928H275.648C275.879 185.931 276.121 185.912 276.366 185.858L303.823 179.948C307.574 179.141 309.964 175.443 309.154 171.691L303.65 146.124C303.142 143.759 305.297 141.684 307.644 142.287C310.354 142.984 313.263 143.078 316.186 142.448C327.675 139.975 334.39 127.401 329.026 116.039H329.023Z" fill="#D8AE45"/>
<path d="M309.326 105.581C304.654 105.581 300.534 107.174 297.345 109.771C295.523 111.257 292.772 110.277 292.277 107.979L286.741 82.2529C285.934 78.5012 282.239 76.1141 278.487 76.9215L188.893 96.2043C185.227 96.9929 182.897 100.605 183.685 104.27L202.946 193.768C203.765 197.573 207.513 199.993 211.319 199.174L236.264 193.805C239.491 193.111 240.802 189.206 238.632 186.719C236.539 184.316 235.032 181.337 234.388 177.965C232.58 168.459 238.455 159.045 247.793 156.513C258.182 153.698 268.672 160.184 270.909 170.569C271.751 174.477 271.299 178.36 269.843 181.778C268.896 183.998 270.841 186.364 273.199 185.855L300.655 179.945C304.407 179.138 306.794 175.44 305.986 171.689L300.483 146.122C299.974 143.756 302.133 141.681 304.477 142.284C307.187 142.981 310.096 143.075 313.019 142.445C324.508 139.972 331.222 127.399 325.859 116.036C323.157 110.315 315.651 105.581 309.324 105.581H309.326Z" fill="#F5CF68"/>
<path d="M276.544 71.5578C276.544 71.5578 282.131 72.4728 283.598 76.1087C285.065 79.7446 283.017 82.2044 282.231 82.1963C281.445 82.1883 279.935 81.6069 279.23 79.7204C278.525 77.8365 276.547 71.5578 276.547 71.5578H276.544Z" fill="#FFC48E"/>
<path d="M199.609 87.7753C199.609 87.7753 205.882 87.7672 208.14 91.4757C210.396 95.1843 208.606 98.2416 207.745 98.3761C206.884 98.508 205.132 98.1447 204.017 96.2124C202.906 94.28 199.609 87.7753 199.609 87.7753Z" fill="#FFC48E"/>
<path d="M276.7 75.775C276.143 75.6566 273.713 75.3713 270.618 74.8842C264.923 73.9907 256.981 72.4163 254.317 69.9592C253.596 69.2918 251.914 65.6209 250.167 61.4118C248.399 70.7289 248.302 77.8769 248.77 83.3159L210.275 91.6023C213.577 84.928 218.685 76.655 217.727 69.9592C217.371 67.4779 216.012 64.0707 215.504 60.2438C215.461 59.9154 215.426 59.5844 215.396 59.2507C209.997 63.694 203.759 68.5974 203.611 69.5797C203.363 71.2241 207.567 89.4223 207.567 89.4223C206.523 91.8256 201.991 91.3197 201.991 91.3197C197.741 88.2866 191.495 71.0949 191.996 67.2868C192.496 63.4787 207.984 41.7737 211.736 36.5876C215.439 31.4608 228.96 31.59 229.286 31.5927H229.294C240.045 38.049 241.014 32.6826 241.014 32.6826C241.014 32.6826 250.716 34.5288 252.382 37.3923C254.051 40.2585 261.36 61.9904 261.877 62.7574C262.959 64.3587 280.632 70.7612 280.95 72.6155C281.27 74.4697 278.285 76.1141 276.7 75.7777V75.775Z" fill="#D3E9EF"/>
<path d="M223.699 88.728L210.275 91.6049C213.617 84.9495 218.009 76.6631 217.049 70.0076C216.688 67.5236 215.883 64.582 215.496 60.7389C215.458 60.3675 215.393 59.2534 215.393 59.2534C215.393 59.2534 224.899 66.735 225.066 74.8303C225.152 79.0314 224.42 84.5242 223.696 88.728H223.699Z" fill="#5F9AA8"/>
<path d="M270.976 74.9353C265.211 74.0391 257.172 72.4675 254.476 70.0076C253.744 69.3402 252.043 65.664 250.275 61.4495C250.275 61.4495 249.656 54.6756 251.427 54.9285C253.197 55.1815 255.803 67.1953 257.662 67.9542C259.325 68.6351 268.527 72.166 270.979 74.9326L270.976 74.9353Z" fill="#5F9AA8"/>
<path d="M554.973 333.005C554.16 335.742 550.409 337.569 549.903 340.915C549.655 342.548 549.047 343.819 548.275 344.691H536.594C536.71 344.047 537.224 343.356 538.742 343.022C541.985 342.311 543.21 338.38 543.008 334.73C542.924 333.199 542.962 331.455 543.037 329.945C543.14 327.854 543.312 326.212 543.312 326.212L550.207 324.59L550.931 325.521L551.625 326.414C551.625 326.414 555.783 330.265 554.973 333.005Z" fill="#222222"/>
<path d="M500.58 344.691H476.948C477.484 344.063 478.391 343.458 479.927 343.208C483.563 342.618 489.864 340.506 491.266 335.858C491.311 335.71 491.352 335.556 491.387 335.4C492.501 330.432 500.615 336.921 500.615 336.921C500.615 336.921 500.639 337.12 500.677 337.459C500.82 338.856 501.135 342.651 500.577 344.691H500.58Z" fill="#222222"/>
<path d="M480.894 213.04C480.894 213.04 482.126 228.412 483.574 246.89C485.541 271.992 487.91 302.825 488.144 308.665C488.547 318.809 490.173 335.032 490.173 335.032C490.173 335.032 494.024 338.886 501.735 337.263C501.735 337.263 508.603 314.102 510.567 289.598C510.597 289.197 510.629 288.79 510.659 288.387C512.483 263.442 515.323 210.911 515.323 210.911L480.896 213.04H480.894Z" fill="#12326E"/>
<path d="M480.894 213.04C480.894 213.04 482.126 228.412 483.574 246.89L510.565 289.598C510.594 289.197 510.627 288.79 510.656 288.387C512.481 263.442 515.32 210.911 515.32 210.911L480.894 213.04Z" fill="#09234C"/>
<path d="M486.521 214.864C486.521 214.864 508.729 270.538 523.332 296.7C537.935 322.862 542.499 330.166 542.499 330.166C542.499 330.166 550.866 326.821 551.625 324.538C551.625 324.538 546.041 274.029 536.261 261.716C530.736 254.76 524.244 233.881 523.94 226.579C523.636 219.278 521.962 204.829 521.962 204.829L486.521 214.867V214.864Z" fill="#12326E"/>
<path d="M497.913 128.93C496.926 123.101 496.896 119.645 496.896 119.645L508.164 110.565C507.744 123.052 515.746 129.056 515.746 129.056C515.746 129.056 500.731 136.447 492.052 133.71C492.052 133.71 494.189 130.978 497.913 128.933V128.93Z" fill="#EA8E50"/>
<path d="M494.24 119.438C494.24 119.438 508.573 121.82 509.919 112.869C511.265 103.917 514.02 98.1985 504.927 96.2985C495.83 94.3984 493.535 97.5472 492.359 100.424C491.182 103.301 490.545 118.585 494.24 119.435V119.438Z" fill="#FFC48E"/>
<path d="M443.894 137.886L440.843 135.997C440.843 135.997 437.037 130.381 430.538 133.871C430.538 133.871 427.962 135.513 429.69 136.888C431.418 138.263 430.952 137.485 433.347 139.477C435.74 141.468 438.838 142.179 440.834 141.081L443.397 140.839L443.892 137.889L443.894 137.886Z" fill="#A16D3C"/>
<path d="M440.272 138.476C441.058 136.016 441.432 135.801 441.432 135.801C441.432 135.801 466.113 138.718 468.439 138.89C470.766 139.063 503.078 132.404 503.078 132.404L518.334 150.931C518.334 150.931 473.35 152.626 467.464 152.075C457.735 151.162 440.094 142.106 440.094 142.106C440.094 142.106 439.656 140.408 440.272 138.476Z" fill="#D8AE45"/>
<path d="M523.658 207.671C523.701 208.626 521.731 209.676 520.875 210.061C514.432 212.948 508.433 214.956 501.654 215.607C493.613 216.431 484.11 214.622 480.851 214.665C480.501 214.665 480.199 214.536 479.938 214.318C479.72 214.143 479.545 204.323 479.72 191.938C479.72 191.459 479.72 190.936 479.763 190.457V190.285C479.777 188.996 479.796 187.685 479.825 186.361C479.906 182.742 480.043 179.025 480.199 175.333C480.436 169.888 480.759 164.538 481.206 159.799C481.674 154.849 482.269 150.56 483.025 147.521C484.764 140.524 488.763 135.916 492.412 132.525L495.41 129.877C498.408 130.486 501.581 130.311 504.754 128.747C508.186 127.051 511.927 125.227 512.532 125.66C517.166 129.124 520.286 136.985 521.884 146.978C522.745 152.355 523.165 158.348 523.141 164.605C523.13 167.006 523.058 169.441 522.918 171.901C522.143 185.096 522.939 196.54 523.394 203.187C523.526 205.101 523.631 206.618 523.66 207.668L523.658 207.671Z" fill="#F5CF68"/>
<path d="M447.452 85.6788L356.797 71.2806C352.943 70.667 349.321 73.2963 348.71 77.1502L344.697 102.418C344.512 103.589 344.808 106.878 344.808 106.878L348.075 107.365C348.261 107.405 348.449 107.435 348.64 107.448C349.232 107.497 349.848 107.421 350.465 107.201C353.471 106.113 356.8 105.782 360.188 106.404C369.731 108.153 376.406 117.059 375.391 126.707C374.261 137.44 364.397 144.9 353.877 143.229C349.918 142.599 346.449 140.771 343.782 138.172C343.266 137.668 342.641 137.402 342.014 137.337L338.596 136.823L334.339 167.646C333.736 171.446 336.328 175.018 340.128 175.623L366.026 179.735C368.421 180.115 369.581 182.884 368.168 184.857C366.534 187.139 365.393 189.825 364.925 192.785C363.076 204.422 372.401 215.255 384.967 214.353C391.294 213.898 398.436 208.594 400.729 202.678C402.422 198.31 402.425 193.881 401.149 189.96C400.42 187.718 402.333 185.5 404.661 185.872L430.721 190.011C434.521 190.613 438.089 188.025 438.692 184.224L453.104 93.47C453.693 89.7587 451.161 86.2709 447.45 85.6815L447.452 85.6788Z" fill="#0E839E"/>
<path d="M512.861 146.714C512.861 146.714 505.912 179.141 479.823 186.367C479.903 182.747 480.041 179.03 480.197 175.338C480.434 169.894 480.757 164.543 481.203 159.804C481.669 159.564 482.108 159.376 482.506 159.244C491.36 156.324 512.861 146.714 512.861 146.714Z" fill="#B29242"/>
<path d="M397.379 202.172C399.072 197.805 399.074 193.375 397.799 189.454C397.069 187.212 398.983 184.994 401.311 185.366L427.367 189.505C431.167 190.108 434.736 187.516 435.339 183.718L449.751 92.964C450.34 89.2528 447.807 85.7649 444.096 85.1755L353.441 70.7773C349.587 70.1664 345.965 72.7931 345.354 76.6469L341.341 101.915C340.822 105.185 343.998 107.822 347.112 106.697C350.118 105.61 353.447 105.279 356.832 105.901C366.376 107.65 373.05 116.556 372.035 126.204C370.905 136.936 361.044 144.397 350.521 142.725C346.562 142.096 343.096 140.268 340.426 137.668C338.693 135.978 335.779 136.942 335.399 139.332L330.983 167.143C330.38 170.943 332.972 174.514 336.772 175.12L362.67 179.232C365.068 179.612 366.225 182.381 364.812 184.354C363.178 186.636 362.037 189.322 361.569 192.282C359.72 203.919 369.045 214.751 381.611 213.85C387.938 213.395 395.083 208.09 397.373 202.175L397.379 202.172Z" fill="#21A7CC"/>
<path d="M443.999 158.795L440.272 158.179C440.272 158.179 436.022 152.029 428.616 155.479C428.616 155.479 425.68 157.121 427.62 158.66C429.563 160.197 429.047 159.349 431.735 161.575C434.427 163.798 437.928 164.686 440.205 163.599L443.111 163.448L443.999 158.798V158.795Z" fill="#FFC48E"/>
<path d="M441.149 160.689C441.27 157.947 442.732 157.654 442.732 157.654C442.732 157.654 470.966 155.786 473.401 155.315C475.837 154.841 498.325 136.21 498.325 136.21C498.325 136.21 507.021 128.394 513.114 131.032C518.407 133.325 520.065 137.846 520.331 142.004C520.649 146.959 517.855 151.593 513.356 153.692C503.255 158.41 483.058 167.668 478.458 168.467C468.221 170.246 441.908 164.546 441.908 164.546C441.908 164.546 441.055 162.842 441.149 160.689Z" fill="#D8AE45"/>
<path d="M492.361 100.427C492.361 100.427 486.543 96.1128 490.337 89.4089C490.337 89.4089 494.915 90.9267 501.415 89.4089C507.917 87.891 513.735 90.0413 514.494 92.3181C514.494 92.3181 517.024 93.33 517.277 97.1247C517.53 100.919 509.922 112.871 509.922 112.871C509.922 112.871 508.296 110.847 508.74 109.456C509.182 108.065 510.573 104.967 508.867 104.967C507.16 104.967 506.59 107.497 505.896 106.485C505.201 105.473 506.466 101.237 504.442 100.54C502.418 99.8456 494.641 101.708 492.364 100.427H492.361Z" fill="#222222"/>
<path d="M294.613 341.458L268.987 225.107H276.041C277.712 225.107 279.079 223.74 279.079 222.069V218.14C279.079 216.468 277.712 215.101 276.041 215.101H186.559C184.888 215.101 183.518 216.468 183.518 218.14V222.069C183.518 223.74 184.885 225.107 186.559 225.107H195.64L170.014 341.458C169.669 343.022 170.662 344.586 172.223 344.93C173.781 345.277 175.34 344.279 175.684 342.715L201.587 225.107H263.037L288.94 342.715C289.285 344.279 290.843 345.277 292.401 344.93C293.962 344.586 294.955 343.022 294.611 341.458H294.613Z" fill="#CCCCCC"/>
<path d="M429.975 239.102H404.392C401.082 239.102 398.975 242.652 400.576 245.55C402.121 248.349 396.682 272.592 385.222 273.224C374.447 273.819 365.531 265.22 365.531 254.568C365.531 250.561 366.793 246.847 368.94 243.806C370.337 241.828 368.93 239.102 366.51 239.102H338.352C334.503 239.102 331.381 242.221 331.381 246.072C331.381 246.072 328.83 276.298 326.658 275.213C324.422 274.096 321.93 273.415 319.295 273.278H319.271C318.956 273.262 318.641 273.254 318.321 273.254C318 273.254 313.366 273.176 313.366 273.176L312.664 310.528L316.69 310.571C320.517 310.458 323.84 310.097 326.795 308.593C328.895 307.522 331.384 309.061 331.384 311.419V337.804C331.384 341.649 334.503 344.769 338.349 344.769H430.239C433.999 344.769 437.045 341.722 437.045 337.962V246.172C437.045 242.269 433.88 239.105 429.978 239.105L429.975 239.102Z" fill="#D8AE45"/>
<path d="M309.208 310.089C313.788 311.077 318.162 310.382 321.835 308.509C323.934 307.438 326.424 308.978 326.424 311.335V337.72C326.424 341.566 329.543 344.685 333.389 344.685H425.279C429.039 344.685 432.085 341.639 432.085 337.879V246.088C432.085 242.186 428.92 239.021 425.018 239.021H399.435C396.125 239.021 394.017 242.571 395.619 245.469C397.163 248.268 398.014 251.506 397.93 254.945C397.699 264.644 389.954 272.635 380.265 273.143C369.489 273.711 360.573 265.14 360.573 254.488C360.573 250.48 361.835 246.766 363.983 243.725C365.38 241.747 363.972 239.021 361.553 239.021H333.394C329.546 239.021 326.424 242.14 326.424 245.991V272.212C326.424 274.64 323.873 276.217 321.701 275.132C319.19 273.878 316.359 273.173 313.363 273.173C301.581 273.173 292.345 284.081 295.205 296.35C296.645 302.527 303.007 308.751 309.208 310.089Z" fill="#F5CF68"/>
<path d="M102.156 211.745L104.6 213.729C104.6 213.729 111.285 211.331 112.792 219.275C112.792 219.275 113.193 222.661 111.048 222.666C108.903 222.672 109.789 222.295 106.753 222.386C103.717 222.475 101.201 220.874 100.754 218.411L99.301 216.323L102.154 211.745H102.156Z" fill="#EA8E50"/>
<path d="M101.879 216.003C103.828 213.968 103.672 212.464 103.672 212.464C103.672 212.464 81.0973 193.98 78.807 192.476C77.2461 191.45 60.6222 176.71 52.8499 167.724C48.996 163.268 44.219 164.998 38.7558 166.564L34.256 167.856C28.8224 169.414 27.4094 177.012 31.8689 180.704C44.4236 191.103 65.305 202.797 69.2127 205.257C78.912 211.358 97.8988 218.611 97.8988 218.611C97.8988 218.611 100.202 217.755 101.876 216.005L101.879 216.003Z" fill="#1E3D70"/>
<path d="M128.299 329.369C128.299 329.369 133.779 333.473 142.173 331.304C142.173 331.304 148.941 329.762 150.427 333.137C150.427 333.137 140.047 338.409 137.42 339.852C135.439 340.939 133.375 342.653 131.914 343.98C130.759 345.03 128.956 344.887 127.971 343.676C127.513 343.113 126.991 342.446 126.418 341.671C124.817 339.502 121.089 332.496 121.089 332.496L128.299 329.369Z" fill="#222222"/>
<path d="M130.856 327.472C130.856 327.472 127.519 335.163 119.819 333.751C119.819 333.751 104.105 320.773 93.3264 307.293C89.825 302.914 86.8458 298.484 85.0938 294.429C77.9458 277.88 58.6549 253.199 46.3882 240.69L77.0766 229.588C77.0766 229.588 86.905 249.361 99.9845 273.649C109.409 291.148 120.519 310.993 130.856 327.475V327.472Z" fill="#21A7CC"/>
<path d="M99.9872 273.647L93.329 307.293C89.8277 302.914 86.8485 298.484 85.0965 294.429C77.9485 277.88 58.6576 253.199 46.3909 240.69L77.0792 229.588C77.0792 229.588 86.9077 249.361 99.9872 273.649V273.647Z" fill="#0D8BA0"/>
<path d="M74.8213 333.732C74.8213 333.732 74.4876 339.87 81.9289 340.689C81.9289 340.689 86.1811 340.71 86.1919 344.618L64.5649 344.685C64.5649 344.685 63.9379 343.108 63.7845 339.733C63.6688 337.141 66.2954 330.365 66.2954 330.365L74.8186 333.729L74.8213 333.732Z" fill="#222222"/>
<path d="M67.0138 229.586C67.0138 229.586 80.6853 244.608 89.3619 271.671C94.0824 286.395 80.7069 323.416 78.099 336.28C78.099 336.28 69.1264 337.042 62.9903 334.671C62.9903 334.671 62.5247 308.103 66.1122 287.628C68.1199 276.168 48.1131 263.119 39.3692 242.412C33.4215 228.326 40.6583 228.566 49.5502 228.226L67.0111 229.588L67.0138 229.586Z" fill="#21A7CC"/>
<path d="M51.2323 162.565C43.6268 166.86 28.0552 162.899 28.0552 162.899C28.0552 162.899 34.3796 155.67 31.5054 144.025L37.4773 147.058L43.8932 150.317C43.8932 150.317 44.3077 152.373 44.5956 156.066C44.6683 157.016 44.7356 158.079 44.7813 159.239C48.6863 160.423 51.235 162.563 51.235 162.563L51.2323 162.565Z" fill="#FFC48E"/>
<path d="M79.1217 228.81C79.1217 230.148 77.5823 230.789 77.254 230.853C74.186 231.413 65.6197 234.745 57.9039 235.509C51.4072 236.19 45.3734 235.544 38.7475 234.212C37.8702 234.034 35.8087 233.48 35.6633 232.64C35.4803 231.722 10.0991 180.898 29.8314 159.069C30.2943 158.558 34.1885 159.478 37.7518 160.326C41.0405 161.107 44.0574 160.671 46.7513 159.591L50.0912 161.349C54.1926 163.634 61.9542 171.756 62.8612 178.126C63.3214 181.366 65.1756 183.767 65.7112 186.617C65.9104 187.672 66.1149 188.703 66.3221 189.704C66.7258 191.674 67.1429 193.547 67.5709 195.329C68.7308 200.149 69.9553 204.296 71.1583 207.881C72.4393 211.686 73.6935 214.851 74.8157 217.499C76.2717 220.933 77.4989 223.498 78.2686 225.465C78.8122 226.849 79.1217 227.933 79.1217 228.813V228.81Z" fill="#12326E"/>
<path d="M78.2688 225.463C42.4401 208.583 30.0334 176.169 30.0334 176.169C30.0334 176.169 59.1421 186.908 66.3223 189.704C66.726 191.674 67.1432 193.547 67.5711 195.329C68.731 200.149 69.9555 204.296 71.1585 207.881C72.4395 211.686 73.6937 214.851 74.8159 217.499C76.2719 220.933 77.4991 223.498 78.2688 225.465V225.463Z" fill="#09234C"/>
<path d="M179.471 189.564L171.798 165.23C171.052 162.867 168.606 161.747 166.472 162.35H166.466C166.353 162.385 166.24 162.423 166.13 162.463L163.439 163.362C163.439 163.362 159.227 167.7 156.202 168.575C146.906 171.263 138.084 166.309 134.693 157.247C130.92 147.169 135.299 136.099 145.429 132.902C148.895 131.81 155.718 133.847 155.718 133.847L158.457 132.937C159.946 132.485 160.966 130.881 160.435 129.194L151.988 102.41C150.833 98.7502 146.931 96.7183 143.268 97.8728L118.328 105.739C116.019 106.469 113.753 104.512 114.135 102.122C114.576 99.3584 114.396 96.4545 113.497 93.6045C109.964 82.3981 96.8168 76.8837 86.0033 83.2862C80.5589 86.5104 76.5489 94.4253 77.1356 100.726C77.5716 105.376 79.5416 109.33 82.4266 112.263C84.0764 113.94 83.3578 116.768 81.1133 117.476L56.0174 125.391C52.3573 126.545 50.3281 130.448 51.4799 134.105L79.0437 221.509C80.1714 225.083 83.9849 227.069 87.5589 225.942L174.866 198.407C178.577 197.237 180.639 193.278 179.468 189.567L179.471 189.564Z" fill="#0E839E"/>
<path d="M74.4794 101.608C74.9154 106.259 76.8854 110.212 79.7704 113.146C81.4174 114.822 80.7016 117.651 78.4571 118.359L53.3611 126.274C49.701 127.428 47.6718 131.331 48.8237 134.991L76.3875 222.395C77.5151 225.971 81.3286 227.955 84.9026 226.827L172.21 199.293C175.921 198.122 177.982 194.163 176.812 190.452L169.136 166.118C168.143 162.969 164.133 162.03 161.859 164.422C159.66 166.731 156.837 168.51 153.538 169.466C144.242 172.154 134.319 167.183 130.928 158.122C127.155 148.043 132.635 136.99 142.767 133.796C146.578 132.593 150.489 132.682 154.028 133.812C156.326 134.547 158.5 132.391 157.774 130.087L149.326 103.301C148.171 99.641 144.269 97.6091 140.606 98.7637L115.664 106.63C113.355 107.357 111.089 105.403 111.471 103.013C111.912 100.249 111.732 97.3454 110.833 94.4926C107.299 83.2836 94.1525 77.7719 83.3417 84.1744C77.8973 87.3985 73.8873 95.3135 74.474 101.614L74.4794 101.608Z" fill="#21A7CC"/>
<path d="M99.2307 215.68L102.326 216.816C102.326 216.816 108.526 212.431 112.386 219.561C112.386 219.561 113.782 222.674 111.573 223.35C109.363 224.025 110.165 223.39 107.06 224.424C103.954 225.457 100.894 224.714 99.7205 222.494L97.616 220.949L99.2307 215.677V215.68Z" fill="#FFC48E"/>
<path d="M101.779 220.058C102.923 217.071 103.448 215.72 103.448 215.72C103.448 215.72 80.0529 196.653 77.6711 195.016C76.0456 193.902 59.8766 181.816 51.9912 172.394C48.0808 167.722 41.9151 165.585 35.9513 166.836L31.0398 167.867C25.1109 169.11 23.184 176.616 27.7834 180.559C40.7391 191.666 62.5893 204.546 66.6639 207.227C76.7776 213.877 99.1474 223.199 99.1474 223.199C99.1474 223.199 100.881 222.408 101.779 220.061V220.058Z" fill="#12326E"/>
<path d="M44.5931 156.069C37.1141 156.488 32.2483 150.312 32.2483 150.312C32.2483 150.312 35.6312 148.439 37.4747 147.061L43.8907 150.32C43.8907 150.32 44.3051 152.376 44.5931 156.069Z" fill="#EA8E50"/>
<path d="M47.7794 148.388C47.7794 148.388 36.4465 156.521 31.4893 149.386C26.5347 142.252 21.7335 138.495 28.7576 132.999C35.7845 127.504 39.0974 129.239 41.3285 131.22C43.5622 133.201 50.5972 146.089 47.7767 148.388H47.7794Z" fill="#FFC48E"/>
<path d="M42.5315 124.777C42.1251 122.035 41.2101 120.105 41.2101 120.105C41.2101 120.105 40.4996 123.052 35.1144 122.646C29.7292 122.239 21.198 123.176 18.3533 129.309C18.173 129.7 18.0115 130.103 17.8689 130.512C17.3548 129.153 17.231 127.113 17.231 127.113C16.2084 129.753 17.231 133.058 17.231 133.058C17.2149 133.155 17.2041 133.252 17.188 133.349C16.0011 134.353 15.0027 137.477 15.0027 137.477C15.3606 136.608 16.2353 136.038 17.0157 135.688C16.9915 140.462 18.9265 145.129 22.3256 146.517C27.2936 148.549 27.256 146.999 32.2536 150.315C32.2536 150.315 33.5939 148.651 32.6788 147.535C31.7638 146.418 28.3109 144.792 30.2406 143.167C32.1702 141.541 32.8807 143.368 33.5939 142.252C34.3044 141.135 30.7492 137.884 35.3217 134.837C39.8941 131.791 42.9406 127.522 42.5342 124.78L42.5315 124.777Z" fill="#222222"/>
</g>
<g clip-path="url(#clip2_1951_17054)">
<path d="M569.189 340.258H0.811007C0.3631 340.258 0 340.981 0 341.873V343.385C0 344.277 0.3631 345 0.811007 345H569.189C569.637 345 570 344.277 570 343.385V341.873C570 340.981 569.637 340.258 569.189 340.258Z" fill="#2E3552"/>
</g>
<defs>
<clipPath id="clip0_1951_17054">
<rect width="562.875" height="343.814" fill="white" transform="translate(4 1.18555)"/>
</clipPath>
<clipPath id="clip1_1951_17054">
<rect width="540.078" height="345" fill="white" transform="translate(15)"/>
</clipPath>
<clipPath id="clip2_1951_17054">
<rect width="570" height="4.74227" fill="white" transform="translate(0 340.258)"/>
</clipPath>
</defs>
</svg>
