<svg width="570" height="344" viewBox="0 0 570 344" fill="none" xmlns="http://www.w3.org/2000/svg">
<g clip-path="url(#clip0_1951_18056)">
<path d="M30.5059 343.999C30.5059 343.999 -10.7211 293.23 9.65712 195.169C22.4729 133.491 76.3115 102.933 148.484 105.85C173.293 106.852 213.658 76.9675 271.654 40.2559C395.714 -38.2687 575.164 -4.91834 532.215 171.711C511.431 257.187 597.591 258.556 554.769 343.999H30.5059Z" fill="#FCF1D2"/>
</g>
<g clip-path="url(#clip1_1951_18056)">
<path d="M569.189 339.258H0.811007C0.3631 339.258 0 339.981 0 340.873V342.384C0 343.277 0.3631 344 0.811007 344H569.189C569.637 344 570 343.277 570 342.384V340.873C570 339.981 569.637 339.258 569.189 339.258Z" fill="#2E3552"/>
</g>
<path d="M337.927 109.612C338.138 110.139 347.345 125.582 348.634 127.301C349.923 129.02 350.858 128.839 349.923 126.871C348.988 124.902 339.674 105.286 339.674 105.286L337.927 109.612Z" fill="#4D1F22"/>
<path d="M335.771 115.853C335.771 115.853 312.838 123.133 303.457 127.3H303.455C294.963 118.032 283.076 149.824 298.899 150.456C314.721 151.087 337.605 122.917 337.605 122.917L335.771 115.853Z" fill="#FFC48E"/>
<path d="M306.891 125.543C305.832 125.969 303.457 126.585 303.457 126.585C303.457 126.585 282.237 106.608 275.522 98.9024C264.259 85.9773 255.507 86.0375 255.507 86.0375L251.631 126.982C251.631 126.982 280.027 151.364 299.617 151.352C302.652 151.352 305.944 150.53 309.285 148.935C306.655 140.12 306.578 130.026 306.891 125.543Z" fill="#21A7CC"/>
<path d="M249.292 38.1377C253.496 32.8663 261.091 30.5907 267.501 32.6824C269.701 33.4008 271.77 34.6005 273.319 36.3193C274.867 38.038 275.862 40.2947 275.862 42.6082C275.862 43.5793 275.699 44.5985 276.088 45.4888C276.273 45.9133 276.574 46.276 276.845 46.6524C278.263 48.6135 278.965 51.0816 278.789 53.4948C278.703 54.6652 278.423 55.8632 278.736 56.9941C278.996 57.9326 279.632 58.7094 280.14 59.5396C282.345 63.1369 281.99 68.1248 279.295 71.3715C280.087 72.719 280.749 74.2195 280.69 75.7818C280.627 77.4885 279.7 79.0698 278.487 80.2712C277.069 81.672 275.383 82.8184 273.466 83.1621C274.054 89.2465 269.414 94.4062 263.517 95.5509C257.738 96.6732 251.839 94.5368 246.558 91.9363C243.036 90.2038 239.519 88.1568 237.178 85.0046C234.487 81.3815 233.658 76.691 233.578 72.1776C233.349 59.464 238.696 46.7469 247.94 38.014" fill="#222222"/>
<path d="M154.89 305.335C154.89 305.335 164.52 327.073 160.85 328.019C155.539 329.385 141.77 312.202 140.908 308.157C140.131 304.507 147.375 301.004 147.375 301.004" fill="#222222"/>
<path d="M278.724 302.677C278.724 302.677 299.174 308.878 298.708 312.639C298.452 314.702 273.91 316.68 270.503 314.332C267.432 312.214 270.29 304.692 270.29 304.692" fill="#222222"/>
<path d="M249.917 173.603C249.917 173.603 288.984 201.632 293.344 216.945C299.224 237.594 285.78 275.061 278.725 302.678C278.725 302.678 278.309 305.289 275.387 305.98C271.822 306.821 270.291 304.692 270.291 304.692C270.291 304.692 265.705 277.713 265.705 256.29C265.705 234.869 271.107 227.35 271.107 227.35L206.439 197.701" fill="#FFC48E"/>
<path d="M191.279 209.893C198.371 229.05 205.849 248.063 213.711 266.916C196.32 275.945 163.657 290.101 147.375 301.004C147.375 301.004 146.724 305.108 149.866 305.992C153.006 306.875 153.119 306.514 155.053 306.313C181.097 303.611 235.039 296.511 245.191 286.357C260.59 270.958 242.919 222.029 233.146 202.806" fill="#FFC48E"/>
<path d="M167.647 173.603C163.09 188.338 164.424 202.418 169.957 215.178C179.439 237.04 208.137 259.69 208.171 263.191C208.183 264.32 207.96 265.506 207.235 266.372C206.81 266.879 206.243 267.244 205.686 267.602C199.564 271.534 187.789 276.761 177.101 284.558C196.027 291.332 236.742 289.446 249.916 287.073C264.88 284.378 276.877 281.917 289.424 271.946C289.424 271.946 298.378 225.344 295.719 214.834C292.003 200.147 243.749 166.774 243.749 166.774" fill="#21A7CC"/>
<path d="M169.91 160.451C168.827 160.188 167.624 160.035 166.411 160.035C165.046 160.037 163.667 160.226 162.428 160.7C161.596 161.02 160.931 161.501 160.462 162.065C159.996 162.629 159.713 163.278 159.709 163.962C159.702 164.533 159.945 165.141 160.424 165.54C160.9 165.942 161.536 166.123 162.246 166.123C162.634 166.123 163.052 166.07 163.504 165.965C164.917 165.628 166.036 164.863 167.079 164.189C168.122 163.507 169.085 162.916 170.123 162.716L169.791 161.028C168.341 161.319 167.193 162.07 166.142 162.749C165.089 163.438 164.128 164.057 163.111 164.291C162.765 164.371 162.476 164.404 162.246 164.404C161.816 164.404 161.614 164.296 161.536 164.229L161.428 163.962C161.424 163.789 161.519 163.479 161.785 163.163C162.048 162.845 162.466 162.525 163.044 162.304C164.02 161.929 165.209 161.754 166.411 161.754C167.48 161.754 168.559 161.891 169.504 162.122L169.91 160.451Z" fill="white"/>
<path d="M169.006 160.949C167.526 161.496 166.691 162.745 166.027 163.794C163.702 167.537 161.966 171.863 161.962 176.37C161.962 176.767 161.976 177.164 162.004 177.562L163.719 177.442C163.693 177.085 163.681 176.727 163.681 176.37C163.678 172.317 165.268 168.267 167.486 164.701C168.102 163.697 168.789 162.836 169.585 162.566L169.006 160.949Z" fill="white"/>
<path d="M168.229 160.992H168.193C167.392 161.002 165.967 160.607 164.689 160C163.401 159.411 162.214 158.574 161.784 157.964C161.43 157.489 161.359 157.18 161.368 157.125V157.113L161.316 157.096L161.361 157.127L161.368 157.113L161.316 157.096L161.361 157.127L161.409 157.089C161.535 156.996 161.994 156.877 162.561 156.886C163.205 156.884 163.987 157.003 164.659 157.187C165.328 157.362 165.909 157.641 166.077 157.794C167.286 158.797 168.116 160.294 168.702 161.905L170.316 161.315C169.671 159.552 168.729 157.77 167.179 156.474C166.638 156.035 165.928 155.759 165.111 155.528C164.3 155.308 163.403 155.169 162.561 155.167C161.915 155.171 161.303 155.241 160.741 155.499C160.462 155.631 160.187 155.822 159.978 156.107C159.766 156.389 159.646 156.762 159.649 157.125C159.658 157.768 159.938 158.345 160.399 158.981C161.175 160.018 162.513 160.87 163.96 161.558C165.416 162.23 166.938 162.702 168.193 162.711H168.246L168.229 160.992Z" fill="white"/>
<path d="M237.014 81.0133C211.702 86.2435 174.925 115.983 165.667 177.556C165.667 177.556 192.397 191.71 225.087 188.337C257.778 184.965 258.452 173.603 258.452 173.603C258.452 173.603 267.822 119.397 266.643 107.584C267.776 90.3891 252.795 77.7529 237.014 81.0133Z" fill="#F5CF68"/>
<path d="M294.292 210.407C289.363 202.377 263.286 180.437 263.876 173.603C264.565 165.589 267.891 117.672 265.686 113.894C250.402 115.628 231.996 107.584 231.996 107.584C218.736 125.509 201.65 149.092 199.545 175.844C199.129 181.131 200.165 186.731 203.484 190.868C205.574 193.474 237.144 229.995 238.543 243.152C239.542 252.527 239.141 262.001 240.777 263.637C242.414 265.273 290.829 258.906 292.763 256.975C296.212 246.535 299.222 218.437 294.292 210.407Z" fill="white"/>
<path d="M266.03 116.994C266.03 103.588 263.596 95.7003 261.093 91.125C258.593 86.5496 256.011 85.3173 255.86 85.2537L255.155 86.8212C255.291 86.8934 257.544 88.0381 259.804 92.359C262.059 96.68 264.311 104.205 264.311 116.994H266.03Z" fill="white"/>
<path d="M231.854 111.397C236.553 103.252 238.622 95.9373 240.336 90.714C241.188 88.1049 241.963 86.0235 242.859 84.6692C243.304 83.9885 243.77 83.497 244.272 83.1687C244.775 82.8421 245.318 82.6599 246.018 82.6256L245.939 80.9085C244.966 80.9515 244.083 81.2368 243.33 81.7318C242.008 82.6049 241.114 84.0195 240.32 85.7898C239.138 88.4538 238.168 92.0151 236.725 96.2346C235.281 100.454 233.375 105.32 230.365 110.538L231.854 111.397Z" fill="white"/>
<path d="M168.047 161.742C178.217 167.321 189.916 169.086 201.308 170.042L201.453 168.33C190.135 167.384 178.681 165.621 168.874 160.234L168.047 161.742Z" fill="white"/>
<path d="M247.193 63.2468L239.351 84.463C239.351 84.463 239.165 95.7432 251.946 93.5724C261.461 91.9551 258.451 86.0237 258.451 86.0237L257.652 64.4533" fill="#FFC48E"/>
<path d="M270.269 40.0145C270.269 40.0145 276.347 46.9514 274.814 55.485C273.817 61.0365 270.041 72.4886 266.798 74.1197C259.056 78.0092 245.083 69.1508 244.859 64.2042C244.182 49.2769 259.292 36.0614 270.269 40.0145Z" fill="#FFC48E"/>
<path d="M270.266 40.164C268.664 41.1231 266.791 41.6232 264.923 41.5871C263.771 45.1432 260.478 47.9087 256.777 48.4278C256.726 50.8839 258.654 53.1595 258.233 55.5777C257.915 57.4151 256.343 58.7317 254.876 59.8815C256.162 62.5731 257.126 65.5396 256.795 68.5045C256.463 71.4693 254.576 74.4084 251.712 75.2454C254.134 79.3997 252.407 85.4153 248.149 87.6497C246.87 88.3217 245.44 88.6758 244.169 89.3633C243.227 89.8737 242.39 90.5561 241.46 91.0872C238.595 92.72 235.112 92.7801 231.825 92.543C229.607 92.3831 227.356 92.0961 225.338 91.1611C223.322 90.2261 221.548 88.5486 220.981 86.4001C220.544 84.7536 220.845 82.9953 221.368 81.3745C222.081 79.1642 223.207 77.0897 224.668 75.285C223.215 74.0096 222.474 72.0589 222.37 70.1287C222.267 68.1985 222.743 66.2787 223.404 64.4637C224.444 61.6089 226.032 58.8331 228.528 57.1023C228.834 56.8892 229.162 56.6812 229.339 56.3546C229.628 55.8218 229.417 55.1704 229.252 54.586C227.957 50.0365 230.099 44.741 234.191 42.3692C235.451 41.6404 236.878 41.1523 237.936 40.1554C239.136 39.0244 239.702 37.3985 240.532 35.9737C243.337 31.1595 248.608 29.7483 253.847 30.7487C254.235 30.8226 254.629 30.9034 255.021 30.8604C255.536 30.8037 256.002 30.5372 256.47 30.3087C259.345 28.8976 262.875 28.7841 265.744 30.209C268.613 31.6321 270.694 34.6279 270.82 37.8282" fill="#222222"/>
<path d="M261.767 55.8151C261.035 56.3582 260.717 58.2712 260.925 58.914C261.081 59.3936 261.617 59.1787 261.86 58.9295C262.38 58.3932 262.49 57.5029 262.525 56.7896C262.549 56.3032 262.496 55.2771 261.767 55.8151Z" fill="#191E37"/>
<path d="M272.124 56.5607C271.392 57.1038 271.074 59.0151 271.282 59.6596C271.438 60.1391 271.974 59.9243 272.217 59.6751C272.738 59.1388 272.848 58.2485 272.882 57.5353C272.906 57.0489 272.853 56.0227 272.124 56.5607Z" fill="#191E37"/>
<path d="M258.206 52.4789C259.34 51.9117 260.579 51.5113 261.806 51.5113L261.909 51.513C263.339 51.5474 264.398 51.8121 265.326 52.8777L265.978 52.3157C264.866 51.0163 263.443 50.6725 261.927 50.6536L261.806 50.6519C260.392 50.6536 259.032 51.1056 257.822 51.7089L258.206 52.4789Z" fill="#191E37"/>
<path d="M270.533 53.7887C271.198 53.3349 271.909 53.0393 272.611 53.041L272.86 53.0531C273.788 53.1631 274.445 53.4157 275.158 54.5381L275.888 54.0878C275.091 52.7609 274.027 52.2899 272.946 52.1971L272.611 52.1816C271.665 52.1816 270.801 52.5684 270.05 53.0771L270.533 53.7887Z" fill="#191E37"/>
<path d="M268.248 57.0351C268.248 57.0403 268.431 59.481 268.431 61.6174C268.431 62.4372 268.403 63.2124 268.331 63.7658C268.297 64.0408 268.248 64.2608 268.202 64.3811L268.162 64.467L268.331 64.6028L268.298 64.4L268.162 64.467L268.331 64.6028L268.298 64.4C268.221 64.412 268.083 64.4207 267.92 64.4207C267.367 64.4207 266.497 64.3347 265.78 64.2471C265.062 64.1594 264.493 64.0717 264.491 64.0717L264.361 64.9225C264.373 64.9225 266.667 65.2783 267.92 65.28C268.111 65.28 268.279 65.2731 268.432 65.2491C268.618 65.2198 268.752 65.1081 268.833 65.0067C268.974 64.8228 269.032 64.6338 269.091 64.4086C269.247 63.7417 269.288 62.7225 269.29 61.6174C269.29 59.4345 269.104 56.9767 269.104 56.9716L268.248 57.0351Z" fill="#E8945B"/>
<path d="M259.787 66.1737C259.711 68.8704 262.172 71.2578 264.236 71.0515C265.802 70.8951 266.993 70.0684 267.394 68.482L259.787 66.1737Z" fill="white"/>
<path d="M229.889 172.138C245.966 178.115 286.441 169.345 299.598 165.258L298.168 159.44C287.302 157.587 254.026 152.134 248.094 146.758" fill="#FFC48E"/>
<path d="M248.388 146.185C244.297 142.389 237.345 109.566 222.033 95.8569C222.033 95.8569 187.596 102.247 196.587 128.577C205.579 154.908 215.995 167.709 229.669 172.941C233.844 174.54 239.609 175.155 246.112 175.115C247.508 173.144 248.62 170.88 249.486 168.677C251.929 162.469 253.55 155.944 254.333 149.32C251.611 148.287 249.519 147.234 248.388 146.185Z" fill="#21A7CC"/>
<path d="M306.783 146.045C306.011 147.059 296.747 172.19 296.768 172.392C296.787 172.593 297.251 173.694 298.492 174.129C298.978 174.299 300.64 174.39 301.181 173.469C301.692 172.601 314.051 148.48 313.742 148.057C312.67 146.584 311.227 146.134 310.368 145.863C308.424 145.249 306.783 146.045 306.783 146.045Z" fill="#222222"/>
<path d="M322.705 144.654C322.375 144.755 322.134 145.034 321.911 145.297C321.687 145.561 321.442 145.836 321.108 145.927C320.775 146.02 320.343 145.83 320.316 145.484C320.302 145.283 320.422 145.101 320.538 144.936C320.966 144.317 321.39 143.482 320.96 142.865C320.831 142.679 320.642 142.547 320.453 142.425C319.515 141.816 318.496 141.344 317.463 140.914C315.56 140.123 313.606 139.465 311.638 138.867C310.672 138.571 309.701 138.293 308.73 138.019C307.791 137.757 306.574 136.935 305.612 137.478C304.826 137.92 304.433 139.047 304 139.785C303.51 140.62 303.061 141.478 302.623 142.342C302.24 143.1 301.882 143.951 302.088 144.776C302.221 145.305 302.575 145.754 302.982 146.118C304.22 147.23 305.913 147.648 307.532 148.028C310.29 148.677 313.049 149.325 315.808 149.975C316.258 150.08 316.779 150.175 317.148 149.894C317.593 149.559 317.762 148.745 318.315 148.805C318.764 148.853 318.886 149.472 318.747 149.9C318.607 150.329 318.327 150.749 318.413 151.192C318.554 151.919 319.501 152.1 320.242 152.113C320.709 152.122 321.218 152.115 321.581 151.821C321.777 151.663 321.906 151.44 322.028 151.22C322.679 150.049 323.26 148.842 323.771 147.605C324.021 146.995 324.259 146.335 324.126 145.689C323.994 145.042 323.336 144.461 322.705 144.654Z" fill="#676E78"/>
<path d="M293.09 159.042C293.09 159.042 301.711 155.443 303.729 156.103C305.746 156.764 308.33 159.296 308.742 160.021C309.024 160.52 308.971 161.4 308.524 161.864C308.261 162.135 307.293 162.072 307.293 162.072C307.293 162.072 308.086 162.782 307.63 163.569C307.08 164.519 306.405 164.174 306.405 164.174C306.405 164.174 306.778 164.863 306.513 165.423C306.006 166.494 304.88 165.936 304.88 165.936C304.88 165.936 305.599 166.8 305.425 167.158C304.882 168.278 303.644 167.881 303.644 167.881C303.644 167.881 302.656 167.323 301.578 166.865C300.499 166.41 296.372 167.426 294.226 167.024C293.23 166.836 292.608 165.869 291.857 164.251" fill="#FFC48E"/>
<path d="M332.614 117.276C332.614 117.276 333.97 115.643 334.336 115.057C335.453 113.275 336.452 111.119 337.927 109.612C339.102 108.407 340.737 108.244 342.313 107.835C343.219 107.599 344.286 107.396 345.008 107.995C345.994 108.813 345.56 110.384 345.805 111.64C345.984 112.554 346.562 113.359 346.701 114.28C346.807 114.983 346.653 115.696 346.496 116.389C346.177 117.821 345.823 119.319 344.839 120.407C343.504 121.887 341.73 121.935 339.922 122.295C338.03 122.671 336.49 123.03 334.487 122.917C334.058 122.893 333.611 122.853 333.233 122.647C332.853 122.441 332.555 122.023 332.623 121.597" fill="#FFC48E"/>
<path d="M339.721 112.609C339.721 112.609 330.243 97.8347 329.516 96.5044C328.788 95.1741 333.007 90.3393 333.64 91.8449C334.274 93.3488 342.101 110.655 342.101 110.655C342.101 110.655 341.701 112.327 339.721 112.609Z" fill="#222222"/>
<path d="M433.926 301.042L326.089 299.562C321.141 299.562 313.462 304.55 309.13 307.233L279.43 316.754C279.43 316.754 279.356 338.008 279.441 338.375C279.525 338.741 279.803 339.048 280.218 339.048H397.902C402.851 339.048 407.718 337.643 412.048 334.958L433.522 321.352C433.886 321.127 433.912 320.452 433.912 320.075C433.912 319.491 433.926 301.042 433.926 301.042Z" fill="#949CA2"/>
<path d="M397.903 318.441H280.218C279.388 318.441 279.104 317.203 279.83 316.754L301.304 303.446C305.633 300.763 310.501 299.355 315.449 299.355H433.134C433.964 299.355 434.249 300.591 433.522 301.042L412.048 314.35C407.718 317.033 402.851 318.441 397.903 318.441Z" fill="#ADB2B8"/>
<path d="M348.952 8.07837L353.064 27.6859C353.064 27.6859 335.287 32.3626 335.287 36.1353C335.287 39.9079 335.783 49.2322 337.428 57.288C339.413 67.0109 353.517 105.394 356.912 109.019C360.305 112.644 351.699 126.053 351.699 126.053C351.699 126.053 344.301 134.566 339.46 139.736C334.618 144.906 319.703 157.907 319.703 170.846C319.703 183.786 324.752 192.22 324.752 200.85C324.752 209.482 326.414 224.38 326.414 231.612C326.414 238.847 308.701 267.527 308.701 274.753C308.701 281.979 316.294 296.42 312.733 300.222C309.172 304.025 304.158 305.514 309.966 311.717C315.775 317.919 330.337 311.717 364.861 311.717C399.386 311.717 404.205 311.527 412.926 302.215C421.647 292.903 422.097 282.546 422.097 273.086C422.097 263.624 412.926 240.723 412.926 240.723C412.926 240.723 404.992 126.889 404.992 121.384C404.992 115.877 396.761 108.553 396.761 101.663C396.761 94.7705 398.86 83.0555 398.86 77.6449C398.86 72.2325 405.298 65.1358 404.992 57.288C404.559 46.1436 396.761 38.5604 396.761 38.5604C396.761 38.5604 390.785 26.7509 388.02 23.7981C382.129 24.2535 378.486 26.2542 377.64 23.7981C376.786 21.3179 376.769 4.3624 376.769 4.3624L348.952 8.07837Z" fill="#E2E8EA"/>
<path d="M307.311 306.863C307.309 304.278 310.348 302.769 312.733 300.222C310.348 302.77 307.309 304.278 307.311 306.863ZM413.088 302.042C413.098 302.031 413.108 302.02 413.119 302.008C413.108 302.02 413.098 302.03 413.088 302.042Z" fill="#BBC1C9"/>
<path d="M353.064 27.686C353.062 27.6791 353.062 27.674 353.06 27.6688L353.064 27.686Z" fill="#EAEFF2"/>
<path d="M319.108 314.473C314.811 314.473 311.903 313.785 309.966 311.717C309.803 311.541 309.646 311.369 309.499 311.201C307.928 309.408 307.311 308.027 307.311 306.863C307.309 304.278 310.348 302.77 312.733 300.222C312.941 300 313.111 299.74 313.247 299.448C313.551 298.795 313.682 297.979 313.684 297.037C313.689 292.317 310.42 284.471 309.175 278.547C308.882 277.154 308.701 275.867 308.701 274.753C308.701 267.803 325.091 241 326.339 232.53C326.389 232.195 326.415 231.889 326.415 231.613C326.415 224.38 324.752 209.482 324.752 200.85C324.752 192.22 319.703 183.787 319.703 170.846C319.703 157.907 334.618 144.907 339.46 139.737C342.724 136.253 347.15 131.248 349.686 128.355C349.886 128.13 350.071 127.917 350.245 127.717C351.115 126.726 351.658 126.1 351.696 126.057C351.697 126.055 351.699 126.054 351.699 126.054C351.699 126.054 351.704 126.047 351.713 126.031C352.045 125.511 357.699 116.552 357.704 111.508C357.704 110.482 357.472 109.617 356.912 109.019C356.831 108.933 356.747 108.83 356.656 108.708C352.863 103.61 339.367 66.7842 337.428 57.2881C335.783 49.2323 335.287 39.9081 335.287 36.1354C335.287 32.3628 353.064 27.686 353.064 27.686L353.06 27.6689C352.239 23.7501 349.243 8.77972 349.243 8.77972C349.243 8.77972 356.187 7.67804 358.583 7.67804C358.691 7.67804 358.789 7.67975 358.877 7.6832C359.157 7.69867 359.459 7.72275 359.678 7.9118C359.939 8.13867 360.001 8.53055 360.044 8.88632C360.502 12.7518 360.666 16.6568 360.528 20.5498C360.494 21.5089 360.423 22.528 359.894 23.3032C359.662 23.6435 359.351 23.9185 359.146 24.2795C358.83 24.8381 358.811 25.5393 358.933 26.1787C359.499 29.1436 362.608 30.675 365.404 31.1596C368.201 31.6443 371.234 31.6116 373.572 33.3218C373.869 33.5401 374.18 33.865 374.115 34.2431C369.801 35.056 365.418 35.3362 361.056 35.747C359.571 35.8862 358.06 36.0495 356.689 36.6682C355.315 37.287 354.076 38.4403 353.669 39.9717C353.033 42.3728 354.55 44.8873 354.253 47.3623C353.739 51.6712 349.595 54.5175 350.759 59.3489C351.663 63.0958 354.365 66.1517 357.627 67.6865C360.253 68.9223 363.127 69.3984 366.056 69.3984C370.55 69.3984 375.177 68.2778 379.244 67.0609C379.948 71.9525 375.287 75.6976 371.035 77.6673C366.783 79.6387 361.762 81.6841 360.37 86.4038C359.619 88.9527 360.157 91.7044 360.698 94.3117C362.648 103.686 364.598 113.058 366.547 122.432C366.874 124.005 367.247 125.669 368.314 126.808C369.557 128.133 371.384 128.405 373.189 128.405C373.658 128.405 374.127 128.386 374.583 128.364C380.445 128.066 386.306 127.771 392.169 127.473C385.693 130.87 379.218 134.266 372.742 137.66C362.483 143.042 351.524 149.143 346.465 160.09C362.797 159.244 378.759 151.845 390.49 139.683C384.895 152.947 371.281 159.624 360.63 168.696C351.61 176.377 344.317 186.356 339.53 197.564C338.568 199.816 337.693 202.181 337.65 204.654C337.6 207.5 338.65 210.216 339.532 212.902C345.62 231.432 344.03 252.675 335.261 269.938C351.84 264.868 361.621 246.808 367.766 229.602C373.91 212.395 378.689 193.552 391.375 181.079C393.547 201.058 387.413 220.886 381.365 239.935C376.956 253.817 372.135 268.375 361.788 278.01C355.695 283.683 348.042 287.265 342.242 293.28C352.431 294.847 362.618 296.416 372.807 297.984C373.589 298.104 374.402 298.218 375.196 298.218C376.105 298.218 376.994 298.068 377.786 297.602C379.254 296.738 380.04 295.002 380.718 293.366C388.7 274.119 394.317 253.757 397.38 232.965C402.143 253.086 402.299 274.433 397.829 294.634C399.149 295.333 400.556 295.633 401.99 295.633C405.175 295.633 408.49 294.151 411.252 292.276C414.599 290.005 417.685 287.149 421.259 285.411C420.258 290.966 418.079 296.543 413.308 301.801C413.306 301.803 413.303 301.806 413.301 301.81C413.287 301.824 413.273 301.839 413.261 301.853C413.254 301.859 413.249 301.867 413.242 301.873C413.236 301.882 413.229 301.889 413.222 301.898C413.21 301.91 413.198 301.922 413.187 301.933C413.182 301.941 413.175 301.945 413.17 301.953C413.16 301.965 413.15 301.975 413.139 301.987C413.132 301.994 413.126 302 413.119 302.008C413.108 302.02 413.098 302.031 413.088 302.042C413.084 302.047 413.079 302.051 413.076 302.055C413.062 302.069 413.048 302.085 413.034 302.098C413.031 302.104 413.028 302.107 413.022 302.112C413.009 302.128 412.995 302.141 412.981 302.157C412.978 302.16 412.976 302.164 412.973 302.165C412.957 302.183 412.942 302.198 412.926 302.215C411.735 303.489 410.614 304.591 409.482 305.547C402.332 311.576 394.666 311.717 364.861 311.717C341.844 311.717 327.702 314.473 319.108 314.473Z" fill="#D9DFE5"/>
<path d="M335.287 36.1353C335.287 39.9079 335.783 49.2304 337.428 57.2879C338.016 60.1669 339.671 65.5689 341.792 71.8303C344.351 72.3476 347.06 72.3219 349.645 71.9506C350.728 71.7942 351.849 71.569 352.734 70.8781C357.751 66.9593 354.709 58.9104 354.009 53.6957C353.275 48.2301 353.002 40.7518 346.905 39.0159C343.057 37.9193 339.207 36.8227 335.359 35.7262L335.287 36.1353Z" fill="#BECCD7"/>
<path d="M376.768 4.36265C377.152 7.64031 371.236 11.1294 363.555 12.1555C355.875 13.1816 349.337 11.3563 348.952 8.07861C348.569 4.79923 354.485 1.31015 362.166 0.285774C369.845 -0.74032 376.383 1.08499 376.768 4.36265Z" fill="#BECCD7"/>
<defs>
<clipPath id="clip0_1951_18056">
<rect width="562.875" height="343.814" fill="white" transform="translate(4 0.185303)"/>
</clipPath>
<clipPath id="clip1_1951_18056">
<rect width="570" height="4.74227" fill="white" transform="translate(0 339.258)"/>
</clipPath>
</defs>
</svg>
