<svg width="48" height="48" viewBox="0 0 48 48" fill="none" xmlns="http://www.w3.org/2000/svg">
<circle cx="24" cy="24" r="24" fill="#0EA6CE"/>
<path d="M24 22.75C24.6875 22.75 25.276 22.5052 25.7656 22.0156C26.2552 21.526 26.5 20.9375 26.5 20.25C26.5 19.5625 26.2552 18.974 25.7656 18.4844C25.276 17.9948 24.6875 17.75 24 17.75C23.3125 17.75 22.724 17.9948 22.2344 18.4844C21.7448 18.974 21.5 19.5625 21.5 20.25C21.5 20.9375 21.7448 21.526 22.2344 22.0156C22.724 22.5052 23.3125 22.75 24 22.75ZM17.75 35.25V32.75H22.75V28.875C21.7292 28.6458 20.8177 28.2135 20.0156 27.5781C19.2135 26.9427 18.625 26.1458 18.25 25.1875C16.6875 25 15.3802 24.3177 14.3281 23.1406C13.276 21.9635 12.75 20.5833 12.75 19V17.75C12.75 17.0625 12.9948 16.474 13.4844 15.9844C13.974 15.4948 14.5625 15.25 15.25 15.25H17.75V12.75H30.25V15.25H32.75C33.4375 15.25 34.026 15.4948 34.5156 15.9844C35.0052 16.474 35.25 17.0625 35.25 17.75V19C35.25 20.5833 34.724 21.9635 33.6719 23.1406C32.6198 24.3177 31.3125 25 29.75 25.1875C29.375 26.1458 28.7865 26.9427 27.9844 27.5781C27.1823 28.2135 26.2708 28.6458 25.25 28.875V32.75H30.25V35.25H17.75ZM17.75 22.5V17.75H15.25V19C15.25 19.7917 15.4792 20.5052 15.9375 21.1406C16.3958 21.776 17 22.2292 17.75 22.5ZM30.25 22.5C31 22.2292 31.6042 21.776 32.0625 21.1406C32.5208 20.5052 32.75 19.7917 32.75 19V17.75H30.25V22.5Z" fill="white"/>
</svg>
