<svg width="36" height="36" viewBox="0 0 36 36" fill="none" xmlns="http://www.w3.org/2000/svg">
<rect width="36" height="36" rx="18" fill="#F5CF68"/>
<path d="M24.375 11.625C24.8398 11.625 25.25 12.0352 25.25 12.5273V23C25.25 23.4922 24.8398 23.875 24.375 23.875H13.8477C13.3828 23.875 13 23.4922 13 23V12.5273C13 12.0352 13.3828 11.625 13.8477 11.625H24.375ZM16.6914 22.125V16.3008H14.8867V22.125H16.6914ZM15.7891 15.4805C16.3633 15.4805 16.8281 15.0156 16.8281 14.4414C16.8281 13.8672 16.3633 13.375 15.7891 13.375C15.1875 13.375 14.7227 13.8672 14.7227 14.4414C14.7227 15.0156 15.1875 15.4805 15.7891 15.4805ZM23.5 22.125V18.9258C23.5 17.3672 23.1445 16.1367 21.3125 16.1367C20.4375 16.1367 19.8359 16.6289 19.5898 17.0938H19.5625V16.3008H17.8398V22.125H19.6445V19.2539C19.6445 18.4883 19.7812 17.75 20.7383 17.75C21.668 17.75 21.668 18.625 21.668 19.2812V22.125H23.5Z" fill="#12326E"/>
</svg>
