<svg width="36" height="36" viewBox="0 0 36 36" fill="none" xmlns="http://www.w3.org/2000/svg">
<rect width="36" height="36" rx="18" fill="#12326E"/>
<path d="M18.125 14.6055C19.8477 14.6055 21.2695 16.0273 21.2695 17.75C21.2695 19.5 19.8477 20.8945 18.125 20.8945C16.375 20.8945 14.9805 19.5 14.9805 17.75C14.9805 16.0273 16.375 14.6055 18.125 14.6055ZM18.125 19.8008C19.2461 19.8008 20.1484 18.8984 20.1484 17.75C20.1484 16.6289 19.2461 15.7266 18.125 15.7266C16.9766 15.7266 16.0742 16.6289 16.0742 17.75C16.0742 18.8984 17.0039 19.8008 18.125 19.8008ZM22.1172 14.4961C22.1172 14.9062 21.7891 15.2344 21.3789 15.2344C20.9688 15.2344 20.6406 14.9062 20.6406 14.4961C20.6406 14.0859 20.9688 13.7578 21.3789 13.7578C21.7891 13.7578 22.1172 14.0859 22.1172 14.4961ZM24.1953 15.2344C24.25 16.2461 24.25 19.2812 24.1953 20.293C24.1406 21.2773 23.9219 22.125 23.2109 22.8633C22.5 23.5742 21.625 23.793 20.6406 23.8477C19.6289 23.9023 16.5938 23.9023 15.582 23.8477C14.5977 23.793 13.75 23.5742 13.0117 22.8633C12.3008 22.125 12.082 21.2773 12.0273 20.293C11.9727 19.2812 11.9727 16.2461 12.0273 15.2344C12.082 14.25 12.3008 13.375 13.0117 12.6641C13.75 11.9531 14.5977 11.7344 15.582 11.6797C16.5938 11.625 19.6289 11.625 20.6406 11.6797C21.625 11.7344 22.5 11.9531 23.2109 12.6641C23.9219 13.375 24.1406 14.25 24.1953 15.2344ZM22.8828 21.3594C23.2109 20.5664 23.1289 18.6523 23.1289 17.75C23.1289 16.875 23.2109 14.9609 22.8828 14.1406C22.6641 13.6211 22.2539 13.1836 21.7344 12.9922C20.9141 12.6641 19 12.7461 18.125 12.7461C17.2227 12.7461 15.3086 12.6641 14.5156 12.9922C13.9688 13.2109 13.5586 13.6211 13.3398 14.1406C13.0117 14.9609 13.0938 16.875 13.0938 17.75C13.0938 18.6523 13.0117 20.5664 13.3398 21.3594C13.5586 21.9062 13.9688 22.3164 14.5156 22.5352C15.3086 22.8633 17.2227 22.7812 18.125 22.7812C19 22.7812 20.9141 22.8633 21.7344 22.5352C22.2539 22.3164 22.6914 21.9062 22.8828 21.3594Z" fill="#FFF"/>
</svg>
