<svg width="96" height="96" viewBox="0 0 96 96" fill="none" xmlns="http://www.w3.org/2000/svg">
<circle cx="48" cy="48" r="48" fill="#02A5CE"/>
<g clip-path="url(#clip0_4_3491)">
<path d="M53.4567 27.2212H42.5471C34.0825 27.2212 27.2212 34.0825 27.2212 42.5434V53.453C27.2212 61.9176 34.0825 68.7753 42.5434 68.7753H53.453C61.9176 68.7753 68.7753 61.914 68.7753 53.453V42.5434C68.7753 34.0789 61.914 27.2212 53.453 27.2212H53.4567ZM43.5637 59.3815L33.5687 49.3865L35.8024 47.1529L43.5637 54.9142L60.205 38.2729L62.4387 40.5065L43.5674 59.3779L43.5637 59.3815Z" fill="#262626"/>
<path d="M53.453 72H42.5434C32.3188 72 24 63.6812 24 53.4566V42.547C24 32.3188 32.3188 24 42.5434 24H53.453C63.6775 24 71.9964 32.3188 71.9964 42.5434V53.453C71.9964 63.6775 63.6775 71.9964 53.453 71.9964V72ZM30.4423 50.1662V53.453C30.4423 60.1248 35.8716 65.5541 42.5434 65.5541H53.453C60.1284 65.5541 65.5577 60.1248 65.5577 53.453V42.5434C65.5577 42.179 65.5432 41.8183 65.5104 41.4612C65.3573 41.9567 65.084 42.4122 64.7124 42.7875L45.841 61.6588C44.5839 62.916 42.5434 62.916 41.2863 61.6588L31.2913 51.6639C30.8759 51.2485 30.5844 50.7274 30.4423 50.1662ZM35.7987 43.9353C36.6513 43.9353 37.4712 44.2742 38.0761 44.8791L43.56 50.363L57.9239 35.9991C58.5288 35.3942 59.3487 35.0553 60.2013 35.0553C61.054 35.0553 61.8738 35.3942 62.4787 35.9991L64.7124 38.2327C64.7415 38.2619 64.7707 38.2947 64.7998 38.3238C63.0836 33.7253 58.6454 30.4423 53.4566 30.4423H42.547C35.8752 30.4423 30.4459 35.8716 30.4459 42.547V48.6103C30.5844 48.0492 30.8759 47.5281 31.2949 47.1127L33.5286 44.8791C34.1335 44.2742 34.9533 43.9353 35.806 43.9353H35.7987Z" fill="#262626"/>
<path d="M43.5601 54.9178L35.7987 47.1565L33.5651 49.3865L43.5601 59.3815L62.435 40.5101L60.2014 38.2765L43.5601 54.9178Z" fill="#262626"/>
<path d="M43.56 62.6027C42.7365 62.6027 41.913 62.2893 41.2826 61.6589L31.2876 51.6639C30.6827 51.059 30.3439 50.2392 30.3439 49.3865C30.3439 48.5339 30.6827 47.714 31.2876 47.1091L33.5213 44.8755C34.1262 44.2706 34.946 43.9317 35.7987 43.9317C36.6513 43.9317 37.4712 44.2706 38.0761 44.8755L43.56 50.3594L57.9239 35.9955C58.5288 35.3906 59.3487 35.0518 60.2013 35.0518C61.054 35.0518 61.8738 35.3906 62.4787 35.9955L64.7124 38.2292C65.3172 38.834 65.6561 39.6539 65.6561 40.5066C65.6561 41.3592 65.3172 42.1791 64.7124 42.7839L45.841 61.6553C45.2106 62.2856 44.3871 62.599 43.5636 62.599L43.56 62.6027Z" fill="#262626"/>
<path d="M53.4567 27.2212H42.5434C34.0812 27.2212 27.2212 34.0812 27.2212 42.5434V53.4567C27.2212 61.9189 34.0812 68.7789 42.5434 68.7789H53.4567C61.9189 68.7789 68.7789 61.9189 68.7789 53.4567V42.5434C68.7789 34.0812 61.9189 27.2212 53.4567 27.2212Z" fill="#FCCE60"/>
<path d="M43.56 58.9879C43.0717 58.9879 42.6053 58.7948 42.2592 58.4486L33.3792 49.5686C32.6614 48.8508 32.6614 47.6848 33.3792 46.9669C34.097 46.2491 35.263 46.2491 35.9809 46.9669L43.5564 54.5424L60.0119 38.087C60.7297 37.3691 61.8957 37.3691 62.6135 38.087C63.3314 38.8048 63.3314 39.9708 62.6135 40.6886L44.8572 58.445C44.5111 58.7911 44.0446 58.9842 43.5564 58.9842L43.56 58.9879Z" fill="#262626"/>
</g>
<defs>
<clipPath id="clip0_4_3491">
<rect width="48" height="48" fill="white" transform="translate(24 24)"/>
</clipPath>
</defs>
</svg>
