<svg width="60" height="60" viewBox="0 0 60 60" fill="none" xmlns="http://www.w3.org/2000/svg">
<circle cx="30" cy="30" r="30" fill="#0EA6CE"/>
<circle cx="30" cy="30" r="30" fill="#C5E9F5"/>
<g clip-path="url(#clip0_217_654)">
<path d="M32.3208 41.1762C30.3332 41.1762 29.3756 40.6604 28.9984 40.3767H25.7646V27.8415H29.6013C29.9027 27.5852 30.4718 26.8114 30.9812 26.1214C31.7195 25.1187 32.5578 23.9839 33.3783 23.2133C34.1795 22.4621 34.518 21.1886 34.7888 20.1649C35.0161 19.3106 35.1951 18.6367 35.611 18.2966C35.9705 18.0016 36.4444 17.921 36.9087 18.0774C37.7711 18.3643 38.4885 19.3622 38.8286 20.7453C39.3412 22.828 38.461 25.2477 37.6292 26.194C37.3536 26.5067 37.1537 26.9258 37.0183 27.2805H41.0194C42.4122 27.2805 43.5454 28.4137 43.5454 29.8065V30.1418C43.5454 30.6883 43.281 31.2654 42.8764 31.6797C43.1311 32.0134 43.2907 32.4454 43.3101 32.9081C43.3439 33.6932 42.9876 34.4379 42.3154 35.0183C42.5331 35.3455 42.6378 35.734 42.6153 36.1531C42.5846 36.7286 42.3041 37.3025 41.8689 37.7297C42.1429 38.1924 42.2058 38.8146 42.014 39.4368C41.6916 40.4863 40.7904 41.1649 39.72 41.1649C33.2751 41.1649 32.4465 41.173 32.345 41.1762H32.3208Z" fill="white"/>
<path d="M32.3208 41.1762C30.3332 41.1762 29.3756 40.6604 28.9984 40.3767H25.7646V27.8415H29.6013C29.9027 27.5852 30.4718 26.8114 30.9812 26.1214C31.7195 25.1187 32.5578 23.9839 33.3783 23.2133C34.1795 22.4621 34.518 21.1886 34.7888 20.1649C35.0161 19.3106 35.1951 18.6367 35.611 18.2966C35.9705 18.0016 36.4444 17.921 36.9087 18.0774C37.7711 18.3643 38.4885 19.3622 38.8286 20.7453C39.3412 22.828 38.461 25.2477 37.6292 26.194C37.3536 26.5067 37.1537 26.9258 37.0183 27.2805H41.0194C42.4122 27.2805 43.5454 28.4137 43.5454 29.8065V30.1418C43.5454 30.6883 43.281 31.2654 42.8764 31.6797C43.1311 32.0134 43.2907 32.4454 43.3101 32.9081C43.3439 33.6932 42.9876 34.4379 42.3154 35.0183C42.5331 35.3455 42.6378 35.734 42.6153 36.1531C42.5846 36.7286 42.3041 37.3025 41.8689 37.7297C42.1429 38.1924 42.2058 38.8146 42.014 39.4368C41.6916 40.4863 40.7904 41.1649 39.72 41.1649C33.2751 41.1649 32.4465 41.173 32.345 41.1762H32.3208ZM29.5707 39.5287C29.5723 39.5287 30.2284 40.1558 32.3224 40.1558C32.4546 40.1526 33.4412 40.1445 39.7217 40.1445C40.4648 40.1445 40.8904 39.6255 41.0387 39.1386C41.1757 38.6921 41.0935 38.2584 40.8388 38.086L40.1698 37.633L40.8662 37.2235C41.2789 36.9801 41.5723 36.5287 41.5965 36.0999C41.6126 35.7936 41.4949 35.5454 41.2466 35.36L40.6437 34.9119L41.2821 34.5169C42.1929 33.9527 42.3041 33.2966 42.2896 32.9548C42.2703 32.518 42.0414 32.2085 41.8383 32.1053L40.9065 31.6346L41.8495 31.1881C42.209 31.0172 42.525 30.5303 42.525 30.1451V29.8098C42.525 28.9796 41.8495 28.3057 41.021 28.3057H35.6706L35.8302 27.6706C35.9318 27.2611 36.238 26.2343 36.8651 25.5217C37.4519 24.856 38.2773 22.7732 37.8404 20.9919C37.5583 19.8442 37.0086 19.1881 36.5895 19.0494C36.4121 18.9898 36.317 19.0446 36.2606 19.0913C36.101 19.2219 35.9156 19.9215 35.7802 20.4309C35.4756 21.5803 35.0951 23.0102 34.0811 23.9613C33.3283 24.6674 32.5207 25.7636 31.8066 26.7308C30.9522 27.8882 30.4492 28.5556 30.0156 28.8006L29.8979 28.8667H26.7851V39.3595H29.4369L29.5707 39.5287Z" fill="#222222" stroke="#222222" stroke-width="0.5"/>
<path d="M17.5109 40.3412C17.5109 40.9747 18.0251 41.4889 18.6587 41.4889H23.3207C23.9542 41.4889 24.4684 40.9747 24.4684 40.3412V27.9398C24.4684 27.3062 23.9542 26.792 23.3207 26.792H18.657C18.0235 26.792 17.5093 27.3062 17.5093 27.9398V40.3412H17.5109Z" fill="#F5CF68"/>
<path d="M23.3208 41.9999H18.6572C17.7431 41.9999 17 41.2568 17 40.3412V27.9398C17 27.0257 17.7431 26.2826 18.6572 26.2826H23.3192C24.2332 26.2826 24.9764 27.0257 24.9764 27.9398V40.3412C24.978 41.2568 24.2348 41.9999 23.3208 41.9999ZM18.6572 27.3046C18.3057 27.3046 18.0204 27.59 18.0204 27.9414V40.3428C18.0204 40.6942 18.3057 40.9795 18.6572 40.9795H23.3192C23.6706 40.9795 23.9559 40.6942 23.9559 40.3428V27.9398C23.9559 27.5883 23.6706 27.303 23.3192 27.303H18.6572V27.3046Z" fill="#222222" stroke="#222222" stroke-width="0.5"/>
</g>
<defs>
<clipPath id="clip0_217_654">
<rect width="26.5454" height="24" fill="white" transform="translate(17 18)"/>
</clipPath>
</defs>
</svg>
