<svg width="96" height="96" viewBox="0 0 96 96" fill="none" xmlns="http://www.w3.org/2000/svg">
<circle cx="48" cy="48" r="48" fill="#02A5CE"/>
<g clip-path="url(#clip0_4_3435)">
<path d="M47.4224 27.2212C40.3654 27.3232 34.3159 33.4448 34.1623 40.6413C34.0765 44.6422 35.6737 48.2678 38.2786 50.8258C40.0509 52.5675 41.1836 54.8741 41.5231 57.3592L41.9233 60.2779H43.9386L42.5629 47.2221C42.4092 45.7609 42.8737 44.2961 43.8349 43.2029C44.7961 42.1098 46.1754 41.4831 47.6154 41.4831C49.0554 41.4831 50.4346 42.1098 51.3958 43.2029C52.357 44.2961 52.8215 45.7609 52.6679 47.2221L51.2922 60.2779H53.3075L53.7077 57.3592C54.0507 54.8559 55.212 52.5493 56.9915 50.7894C59.5106 48.297 61.0721 44.8062 61.0721 40.9438C61.0721 33.299 54.9404 27.1118 47.4189 27.2212H47.4224Z" fill="#262626"/>
<path d="M53.311 63.4989H51.2958C50.3989 63.4989 49.5449 63.109 48.9446 62.4312C48.3443 61.7535 48.0584 60.8425 48.1549 59.9352L49.5306 46.8794C49.5878 46.3256 49.4127 45.7717 49.0482 45.36C48.6837 44.9446 48.1621 44.7077 47.6154 44.7077C47.0687 44.7077 46.547 44.9446 46.1825 45.36C45.818 45.7753 45.643 46.3292 45.7001 46.8794L47.0758 59.9352C47.1723 60.8425 46.8829 61.7498 46.2861 62.4312C45.6894 63.1126 44.8318 63.4989 43.935 63.4989H41.9197C40.3439 63.4989 39.0111 62.3146 38.7931 60.7223L38.3929 57.8036C38.15 56.0218 37.3281 54.3675 36.0846 53.1431C32.7544 49.8746 30.9035 45.2907 31.0036 40.572C31.0965 36.2541 32.8616 32.1402 35.9774 28.9846C39.0933 25.8327 43.1417 24.0618 47.3795 23.9999C51.8639 23.938 56.091 25.6688 59.2819 28.8753C62.4727 32.0855 64.2307 36.3707 64.2307 40.9436C64.2307 45.5166 62.4406 49.8783 59.1925 53.0994C57.9169 54.3638 57.0808 56.0327 56.8378 57.8036L56.4376 60.7223C56.2196 62.3146 54.8868 63.4989 53.311 63.4989ZM47.4653 30.4422C42.0805 30.5187 37.4353 35.2229 37.3174 40.7104C37.2674 43.1263 37.9963 45.4073 39.3934 47.2802C39.2291 45.0065 39.983 42.751 41.4802 41.053C43.0417 39.2821 45.2749 38.2654 47.6118 38.2654C49.9487 38.2654 52.1819 39.2821 53.7434 41.053C55.2406 42.7546 55.9945 45.0101 55.8301 47.2802C57.1808 45.4656 57.9133 43.2684 57.9133 40.9436C57.9133 38.1088 56.8235 35.4524 54.8439 33.4629C52.8644 31.4734 50.2452 30.4021 47.4653 30.4385V30.4422Z" fill="#262626"/>
<path d="M47.6154 44.6422C47.0437 44.6422 46.5184 44.8827 46.1361 45.3163C45.7537 45.7499 45.5786 46.3074 45.6394 46.8868L47.0508 60.2778H48.1799L49.5913 46.8868C49.6521 46.3074 49.477 45.7499 49.0947 45.3163C48.7123 44.8827 48.1871 44.6422 47.6154 44.6422Z" fill="#262626"/>
<path d="M48.1799 63.4989H47.0508C45.4357 63.4989 44.0815 62.26 43.91 60.624L42.4985 47.2329C42.3413 45.7535 42.813 44.2741 43.7849 43.1664C44.7604 42.0587 46.1539 41.4247 47.6118 41.4247C49.0697 41.4247 50.4668 42.0587 51.4387 43.1664C52.4142 44.2741 52.8823 45.7535 52.725 47.2329L51.3136 60.624C51.1421 62.26 49.7879 63.4989 48.1728 63.4989H48.1799Z" fill="#262626"/>
<path d="M52.6679 47.222C52.8215 45.7609 52.357 44.2961 51.3958 43.2029C50.4346 42.1098 49.0554 41.483 47.6154 41.483C46.1754 41.483 44.7961 42.1098 43.8349 43.2029C42.8737 44.2961 42.4092 45.7609 42.5629 47.222L43.9386 60.2778H41.9233V67.2302C41.9233 68.0865 42.6022 68.7789 43.4419 68.7789H51.7925C52.6322 68.7789 53.3111 68.0865 53.3111 67.2302V60.2778H51.2958L52.6715 47.222H52.6679ZM49.5914 46.8832L48.18 60.2742H47.0508L45.6394 46.8832C45.5787 46.3038 45.7537 45.7463 46.1361 45.3127C46.5184 44.8791 47.0437 44.6386 47.6154 44.6386C48.1871 44.6386 48.7124 44.8791 49.0947 45.3127C49.477 45.7463 49.6521 46.3038 49.5914 46.8832Z" fill="#262626"/>
<path d="M51.7924 71.9999H43.4419C40.862 71.9999 38.7646 69.861 38.7646 67.2302V60.2778C38.7646 59.0352 39.4542 57.9603 40.4618 57.421L39.422 47.5645C39.1719 45.196 39.9258 42.8239 41.4838 41.0494C43.0453 39.2785 45.2785 38.2618 47.6154 38.2618C49.9522 38.2618 52.1855 39.2785 53.747 41.0494C55.3085 42.8203 56.0588 45.196 55.8087 47.5645L54.7689 57.421C55.7766 57.9603 56.4662 59.0352 56.4662 60.2778V67.2302C56.4662 69.861 54.3687 71.9999 51.7889 71.9999H51.7924ZM45.082 65.5577H50.1559V63.2803C50.013 63.2256 49.8736 63.1564 49.7414 63.0799C49.2805 63.3459 48.7481 63.4989 48.1835 63.4989H47.0544C46.4898 63.4989 45.9574 63.3459 45.4965 63.0799C45.3643 63.1564 45.2249 63.2256 45.082 63.2803V65.5577ZM46.4541 46.5406C46.4541 46.5406 46.4541 46.5406 46.4541 46.5442V46.5406Z" fill="#262626"/>
<path d="M47.4224 27.2212C40.3654 27.3232 34.3159 33.4448 34.1623 40.6413C34.0765 44.6422 35.6737 48.2678 38.2786 50.8258C40.0509 52.5675 41.1836 54.8741 41.5231 57.3592L41.9233 60.2779H43.9386L42.5629 47.2221C42.4092 45.7609 42.8737 44.2961 43.8349 43.2029C44.7961 42.1098 46.1754 41.4831 47.6154 41.4831C49.0554 41.4831 50.4346 42.1098 51.3958 43.2029C52.357 44.2961 52.8215 45.7609 52.6679 47.2221L51.2922 60.2779H53.3075L53.7077 57.3592C54.0507 54.8559 55.212 52.5493 56.9915 50.7894C59.5106 48.297 61.0721 44.8062 61.0721 40.9438C61.0721 33.299 54.9404 27.1118 47.4189 27.2212H47.4224Z" fill="#FCCE60"/>
<path d="M49.5914 46.8831C49.6521 46.3038 49.477 45.7463 49.0947 45.3127C48.7124 44.879 48.1871 44.6385 47.6154 44.6385C47.0437 44.6385 46.5184 44.879 46.1361 45.3127C45.7538 45.7463 45.5787 46.3038 45.6394 46.8831L47.0508 60.2742H48.18L49.5914 46.8831Z" fill="#FCCE60"/>
<path d="M52.6679 47.222C52.8215 45.7609 52.357 44.2961 51.3958 43.2029C50.4346 42.1098 49.0554 41.483 47.6154 41.483C46.1754 41.483 44.7961 42.1098 43.8349 43.2029C42.8737 44.2961 42.4092 45.7609 42.5629 47.222L43.9386 60.2778H41.9233V67.2302C41.9233 68.0865 42.6022 68.7789 43.4419 68.7789H51.7925C52.6322 68.7789 53.3111 68.0865 53.3111 67.2302V60.2778H51.2958L52.6715 47.222H52.6679ZM45.6394 46.8832C45.5787 46.3038 45.7537 45.7463 46.1361 45.3127C46.5184 44.8791 47.0437 44.6386 47.6154 44.6386C48.1871 44.6386 48.7124 44.8791 49.0947 45.3127C49.477 45.7463 49.6521 46.3038 49.5914 46.8832L48.18 60.2742H47.0508L45.6394 46.8832Z" fill="#262626"/>
</g>
<defs>
<clipPath id="clip0_4_3435">
<rect width="33.2308" height="48" fill="white" transform="translate(31 24)"/>
</clipPath>
</defs>
</svg>
