<svg width="24" height="24" viewBox="0 0 24 24" fill="none" xmlns="http://www.w3.org/2000/svg">
<g clip-path="url(#clip0_12_1889)">
<path d="M5.32437 3.51871C5.08082 3.27225 4.74934 3.13264 4.40285 3.13058C4.05636 3.12852 3.72324 3.26419 3.47678 3.50774C3.23032 3.75129 3.0907 4.08276 3.08865 4.42925C3.08659 4.77574 3.22226 5.10885 3.46581 5.35531L6.80667 8.69709C7.04637 8.94739 7.37569 9.09223 7.72218 9.09973C8.06867 9.10723 8.40395 8.97678 8.65425 8.73708C8.90456 8.49738 9.04939 8.16805 9.05689 7.82156C9.06439 7.47507 8.93394 7.1398 8.69424 6.8895L5.32437 3.51871Z" fill="#21A7CC"/>
<path d="M16.9468 15.1412H16.9448C16.821 15.0225 16.675 14.9293 16.5151 14.867C16.3553 14.8046 16.1847 14.7744 16.0132 14.778C15.8417 14.7816 15.6726 14.8189 15.5155 14.8879C15.3584 14.9568 15.2164 15.056 15.0977 15.1799C14.9789 15.3037 14.8857 15.4497 14.8234 15.6095C14.7611 15.7694 14.7308 15.9399 14.7344 16.1114C14.738 16.2829 14.7753 16.4521 14.8443 16.6092C14.9132 16.7663 15.0125 16.9082 15.1363 17.027L18.4605 20.3502L18.4757 20.3653C18.7193 20.6067 19.0486 20.7418 19.3915 20.7408C19.6499 20.7408 19.9025 20.6641 20.1173 20.5206C20.3322 20.377 20.4996 20.1729 20.5985 19.9342C20.6974 19.6954 20.7233 19.4328 20.6729 19.1793C20.6225 18.9259 20.4981 18.693 20.3154 18.5103L16.9468 15.1412Z" fill="#21A7CC"/>
<path d="M16.0606 9.07974C16.2322 9.08004 16.4021 9.04647 16.5607 8.98095C16.7193 8.91544 16.8634 8.81926 16.9847 8.69794L20.3158 5.36627C20.5616 5.12203 20.7003 4.79016 20.7014 4.44366C20.7025 4.09715 20.5659 3.7644 20.3216 3.51861C20.0774 3.27281 19.7455 3.13411 19.399 3.133C19.0525 3.1319 18.7198 3.26849 18.474 3.51272L15.1378 6.84835C14.9546 7.03083 14.8296 7.26361 14.7788 7.5172C14.7281 7.77078 14.7537 8.03373 14.8526 8.27271C14.9514 8.51169 15.119 8.71595 15.3341 8.85957C15.5491 9.00319 15.802 9.07971 16.0606 9.07943V9.07974Z" fill="#21A7CC"/>
<path d="M6.80758 15.1792L3.48943 18.4995L3.47667 18.511C3.35535 18.6323 3.25912 18.7763 3.19346 18.9348C3.1278 19.0933 3.094 19.2632 3.09399 19.4347C3.09399 19.6063 3.12777 19.7762 3.19342 19.9347C3.25906 20.0932 3.35529 20.2372 3.4766 20.3585C3.5979 20.4798 3.74191 20.5761 3.90041 20.6417C4.05891 20.7074 4.22879 20.7412 4.40035 20.7412C4.57191 20.7412 4.74179 20.7074 4.90029 20.6418C5.0588 20.5761 5.20282 20.4799 5.32414 20.3586L8.69386 16.9899V16.9876C8.81261 16.8637 8.90579 16.7177 8.9681 16.5578C9.03041 16.3979 9.06062 16.2273 9.057 16.0558C9.05338 15.8842 9.01601 15.7151 8.94702 15.5579C8.87803 15.4008 8.77876 15.2589 8.65489 15.1401C8.53103 15.0214 8.38499 14.9282 8.22511 14.8659C8.06523 14.8036 7.89465 14.7733 7.7231 14.777C7.55154 14.7806 7.38238 14.818 7.22527 14.8869C7.06816 14.9559 6.92618 15.0552 6.80743 15.1791L6.80758 15.1792Z" fill="#21A7CC"/>
<path d="M11.8962 2.91961e-08H11.8957C11.6703 -5.85805e-05 11.4538 0.0881267 11.2925 0.245686C11.1313 0.403245 11.0381 0.617658 11.033 0.843036L11.0325 3.80134C11.0321 4.02577 11.119 4.24154 11.275 4.40295C11.4309 4.56436 11.6436 4.65872 11.8679 4.66606C12.0922 4.67339 12.3105 4.59311 12.4767 4.44224C12.6428 4.29137 12.7437 4.08175 12.758 3.85778L12.7599 3.85572L12.7596 0.863321C12.7592 0.634454 12.6682 0.415048 12.5063 0.253214C12.3445 0.0913804 12.1251 0.0003215 11.8962 2.91961e-08Z" fill="#21A7CC"/>
<path d="M11.8963 19.1681C11.6674 19.1687 11.4481 19.2599 11.2863 19.4217C11.1245 19.5835 11.0333 19.8028 11.0327 20.0316L11.0332 22.9633L11.0328 22.9785L11.0333 22.9814C11.0358 23.2084 11.1277 23.4253 11.2892 23.585C11.4506 23.7446 11.6685 23.8342 11.8956 23.8342H11.8969C12.1259 23.8341 12.3453 23.7431 12.5072 23.5812C12.669 23.4193 12.7599 23.1998 12.76 22.9709V19.9891L12.7587 19.9873C12.747 19.7664 12.6512 19.5583 12.4907 19.4059C12.3303 19.2535 12.1175 19.1684 11.8963 19.1681Z" fill="#21A7CC"/>
<path d="M23.5392 11.3279C23.38 11.1678 23.1641 11.077 22.9384 11.0752H19.9905C19.7628 11.0772 19.5451 11.169 19.3848 11.3306C19.2245 11.4922 19.1344 11.7106 19.1343 11.9383C19.1341 12.166 19.2239 12.3845 19.384 12.5463C19.5441 12.7082 19.7617 12.8002 19.9893 12.8025H22.9293C23.1 12.8024 23.2669 12.7517 23.4088 12.6568C23.5508 12.5619 23.6614 12.427 23.7267 12.2693C23.792 12.1115 23.8091 11.9379 23.7758 11.7705C23.7425 11.603 23.6602 11.4492 23.5395 11.3284L23.5392 11.3279Z" fill="#21A7CC"/>
<path d="M3.86688 12.7997C4.08984 12.7832 4.29772 12.6809 4.4468 12.5143C4.59588 12.3477 4.67455 12.1298 4.66626 11.9064C4.65797 11.683 4.56336 11.4715 4.40234 11.3164C4.24132 11.1612 4.02643 11.0746 3.80285 11.0747L0.863618 11.0752C0.634632 11.0751 0.415003 11.166 0.253043 11.3279C0.0910823 11.4898 6.04592e-05 11.7093 3.01088e-08 11.9383C-6.0399e-05 12.1673 0.0908433 12.3869 0.252718 12.5489C0.414593 12.7109 0.634178 12.8019 0.863164 12.8019H0.863618L3.8646 12.8023L3.86688 12.7997Z" fill="#21A7CC"/>
</g>
<defs>
<clipPath id="clip0_12_1889">
<rect width="24" height="24" fill="white"/>
</clipPath>
</defs>
</svg>
