<svg xmlns="http://www.w3.org/2000/svg" width="686.711" height="313.826" viewBox="0 0 686.711 313.826"><defs><style>.a{fill:#ffffff;}</style></defs><g transform="translate(-998.31 -1809.726)"><path class="a" d="M1375.722,2016.881v-49.235h11.4l12.837,24.466,4.833,10.874h.3q-.378-3.925-.868-8.759a90.776,90.776,0,0,1-.491-9.212v-17.369h10.572v49.235h-11.4l-12.837-24.542-4.833-10.723h-.3q.376,4.078.868,8.76a87.293,87.293,0,0,1,.49,9.062v17.443Z"/><path class="a" d="M1429.185,2031.53a19.588,19.588,0,0,1-2.946-.188,14.55,14.55,0,0,1-2.341-.567l1.963-8.458q.53.151,1.209.3a5.965,5.965,0,0,0,1.284.151,6.226,6.226,0,0,0,4.3-1.359,8.323,8.323,0,0,0,2.266-3.55l.528-1.963-14.423-36.472H1432.2l5.361,16.084q.831,2.568,1.51,5.21t1.436,5.437h.3q.6-2.643,1.247-5.324t1.321-5.323l4.531-16.084h10.647l-12.989,37.832a50.367,50.367,0,0,1-2.831,6.229,17.335,17.335,0,0,1-3.4,4.455,13.074,13.074,0,0,1-4.38,2.681A16.652,16.652,0,0,1,1429.185,2031.53Z"/><path class="a" d="M1469.886,1973.914a6.64,6.64,0,0,1-4.607-1.624,5.366,5.366,0,0,1-1.812-4.19,5.257,5.257,0,0,1,1.812-4.154,7.536,7.536,0,0,1,9.25,0,5.308,5.308,0,0,1,1.775,4.154,5.419,5.419,0,0,1-1.775,4.19A6.608,6.608,0,0,1,1469.886,1973.914Zm-5.513,42.967v-37.454h11.1v37.454Z"/><path class="a" d="M1499.637,2017.787a14.921,14.921,0,0,1-5.928-1.058,10.352,10.352,0,0,1-4-2.944,11.971,11.971,0,0,1-2.266-4.569,22.87,22.87,0,0,1-.717-5.928V1988.11h-5.135v-8.231l5.739-.452,1.284-9.968h9.212v9.968h8.987v8.683h-8.987v15.028q0,3.171,1.322,4.568a4.6,4.6,0,0,0,3.511,1.4,7.928,7.928,0,0,0,1.851-.227,12.145,12.145,0,0,0,1.7-.528l1.737,8.08q-1.51.452-3.548.906A22.137,22.137,0,0,1,1499.637,2017.787Z"/><path class="a" d="M1530.22,2017.787a18.449,18.449,0,0,1-6.872-1.321,17.44,17.44,0,0,1-5.853-3.814,18.307,18.307,0,0,1-4.04-6.154,23.809,23.809,0,0,1,0-16.688,18.311,18.311,0,0,1,4.04-6.155,17.437,17.437,0,0,1,5.853-3.813,18.449,18.449,0,0,1,6.872-1.321,18.171,18.171,0,0,1,6.834,1.321,17.546,17.546,0,0,1,5.814,3.813,18.325,18.325,0,0,1,4.04,6.155,23.809,23.809,0,0,1,0,16.688,18.321,18.321,0,0,1-4.04,6.154,17.548,17.548,0,0,1-5.814,3.814A18.171,18.171,0,0,1,1530.22,2017.787Zm0-8.986a5.631,5.631,0,0,0,5.134-2.869,18.283,18.283,0,0,0,0-15.556,6.062,6.062,0,0,0-10.307,0,18.654,18.654,0,0,0,0,15.556A5.609,5.609,0,0,0,1530.22,2008.8Z"/><path class="a" d="M1570.468,2017.787a14.918,14.918,0,0,1-5.928-1.058,10.355,10.355,0,0,1-4-2.944,11.971,11.971,0,0,1-2.265-4.569,22.871,22.871,0,0,1-.717-5.928V1988.11h-5.135v-8.231l5.739-.452,1.283-9.968h9.213v9.968h8.987v8.683h-8.987v15.028q0,3.171,1.322,4.568a4.6,4.6,0,0,0,3.511,1.4,7.918,7.918,0,0,0,1.85-.227,12.155,12.155,0,0,0,1.7-.528l1.736,8.08q-1.509.452-3.548.906A22.133,22.133,0,0,1,1570.468,2017.787Z"/><path class="a" d="M1599.389,2017.787a14.917,14.917,0,0,1-5.928-1.058,10.355,10.355,0,0,1-4-2.944,11.971,11.971,0,0,1-2.265-4.569,22.87,22.87,0,0,1-.717-5.928V1988.11h-5.135v-8.231l5.739-.452,1.283-9.968h9.213v9.968h8.987v8.683h-8.987v15.028q0,3.171,1.321,4.568a4.6,4.6,0,0,0,3.512,1.4,7.919,7.919,0,0,0,1.85-.227,12.16,12.16,0,0,0,1.7-.528l1.736,8.08q-1.509.452-3.548.906A22.134,22.134,0,0,1,1599.389,2017.787Z"/><path class="a" d="M1375.722,2089.5v-49.234h16.839a42.035,42.035,0,0,1,7.136.566,17,17,0,0,1,5.739,2,10.686,10.686,0,0,1,3.851,3.775,11.345,11.345,0,0,1,1.4,5.89,12.571,12.571,0,0,1-.454,3.323,12.909,12.909,0,0,1-1.284,3.1,11.677,11.677,0,0,1-2,2.567,7.283,7.283,0,0,1-2.68,1.662v.3a12.422,12.422,0,0,1,3.473,1.4,10.978,10.978,0,0,1,2.794,2.379,10.684,10.684,0,0,1,1.888,3.36,13.239,13.239,0,0,1,.68,4.418,13.447,13.447,0,0,1-1.473,6.493,12.668,12.668,0,0,1-4.077,4.493,18.779,18.779,0,0,1-6.079,2.644,30.763,30.763,0,0,1-7.476.868Zm11.1-29.525h5.21q4.078,0,5.928-1.586a5.292,5.292,0,0,0,1.851-4.229,4.47,4.47,0,0,0-1.888-4.078,11.018,11.018,0,0,0-5.816-1.208h-5.285Zm0,20.917h6.268q9.135,0,9.137-6.646a5.025,5.025,0,0,0-2.266-4.643q-2.265-1.4-6.871-1.4h-6.268Z"/><path class="a" d="M1431.752,2090.4q-6.117,0-8.873-4t-2.756-11.1v-23.258h11.1v21.823q0,4.077,1.132,5.588a4.143,4.143,0,0,0,3.549,1.51,6.131,6.131,0,0,0,3.549-.982,14.279,14.279,0,0,0,3.1-3.171v-24.768h11.1V2089.5h-9.061l-.83-5.21h-.227a20.3,20.3,0,0,1-5.173,4.492A12.8,12.8,0,0,1,1431.752,2090.4Z"/><path class="a" d="M1476.758,2090.4a14.384,14.384,0,0,1-6.306-1.359,13.58,13.58,0,0,1-4.833-3.889,18.347,18.347,0,0,1-3.1-6.154,28.461,28.461,0,0,1-1.095-8.231,23.905,23.905,0,0,1,1.322-8.231,19.875,19.875,0,0,1,3.474-6.154,15.044,15.044,0,0,1,4.983-3.89,13.235,13.235,0,0,1,5.777-1.358,11.29,11.29,0,0,1,5.21,1.056,18.489,18.489,0,0,1,4,2.87l-.453-5.739v-12.761h11.1V2089.5h-9.062l-.755-3.7h-.3a17.6,17.6,0,0,1-4.606,3.285A11.894,11.894,0,0,1,1476.758,2090.4Zm2.869-9.061a7.1,7.1,0,0,0,3.285-.755,8.325,8.325,0,0,0,2.831-2.644v-15.329a8.862,8.862,0,0,0-3.1-1.887,9.767,9.767,0,0,0-3.095-.529,5.932,5.932,0,0,0-4.683,2.53q-2.037,2.531-2.038,7.891,0,5.589,1.774,8.155A5.747,5.747,0,0,0,1479.627,2081.342Z"/><path class="a" d="M1516.1,2090.4a11.94,11.94,0,0,1-4.644-.868,9.919,9.919,0,0,1-3.512-2.417,11.144,11.144,0,0,1-2.227-3.587,12.174,12.174,0,0,1-.793-4.455,10.489,10.489,0,0,1,4.983-9.213q4.984-3.321,16.085-4.455a6.327,6.327,0,0,0-1.472-3.964q-1.323-1.473-4.418-1.472a13.355,13.355,0,0,0-4.8.906,34.828,34.828,0,0,0-5.1,2.491l-4-7.324a39.234,39.234,0,0,1,7.59-3.55,25.8,25.8,0,0,1,8.419-1.358q7.25,0,11.063,4.115t3.814,12.8V2089.5h-9.062l-.756-3.851h-.3a23.984,23.984,0,0,1-5.06,3.436A12.833,12.833,0,0,1,1516.1,2090.4Zm3.775-8.608a6.1,6.1,0,0,0,3.247-.831,15.843,15.843,0,0,0,2.87-2.341v-6.569q-5.891.831-8.155,2.416a4.562,4.562,0,0,0-2.266,3.775,3.12,3.12,0,0,0,1.17,2.682A5.138,5.138,0,0,0,1519.875,2081.795Z"/><path class="a" d="M1546.455,2103.392v-51.349h9.062l.755,3.7h.3a20.93,20.93,0,0,1,4.947-3.284,13.045,13.045,0,0,1,5.7-1.321,13.5,13.5,0,0,1,6.116,1.358,13.031,13.031,0,0,1,4.606,3.852,18.286,18.286,0,0,1,2.908,6,28.013,28.013,0,0,1,1.019,7.816,25.671,25.671,0,0,1-1.321,8.57,19.819,19.819,0,0,1-3.549,6.343,15.434,15.434,0,0,1-5.06,3.965,13.376,13.376,0,0,1-5.852,1.359,11.3,11.3,0,0,1-4.682-1.019,14.943,14.943,0,0,1-4.228-2.907l.377,5.965v10.95Zm17.066-22.05a6.065,6.065,0,0,0,4.909-2.606q2.038-2.6,2.039-8.42,0-10.117-6.494-10.118-3.247,0-6.419,3.4v15.329a9.029,9.029,0,0,0,3.02,1.888A8.869,8.869,0,0,0,1563.521,2081.342Z"/><path class="a" d="M1606.488,2090.4a20.868,20.868,0,0,1-7.476-1.321,17.2,17.2,0,0,1-6.041-3.852,17.59,17.59,0,0,1-4-6.154,22.424,22.424,0,0,1-1.435-8.306,21.313,21.313,0,0,1,1.51-8.194,19.4,19.4,0,0,1,3.965-6.191,17.224,17.224,0,0,1,5.626-3.89,16.527,16.527,0,0,1,6.569-1.358,16.727,16.727,0,0,1,6.985,1.358,13.8,13.8,0,0,1,4.984,3.776,16.022,16.022,0,0,1,2.983,5.7,24.831,24.831,0,0,1,.982,7.135,25.9,25.9,0,0,1-.152,2.87q-.151,1.359-.3,2.039h-22.428a9.177,9.177,0,0,0,3.36,6,10.44,10.44,0,0,0,6.381,1.924,15.419,15.419,0,0,0,8.08-2.491l3.7,6.721a24.606,24.606,0,0,1-6.381,3.1A22.452,22.452,0,0,1,1606.488,2090.4Zm-8.306-23.711H1611.7a8.5,8.5,0,0,0-1.434-5.134q-1.436-1.964-4.833-1.964a6.866,6.866,0,0,0-4.644,1.737A8.716,8.716,0,0,0,1598.182,2066.692Z"/><path class="a" d="M1639.864,2090.4a21.877,21.877,0,0,1-7.589-1.434,23.356,23.356,0,0,1-6.758-3.777l4.984-6.947a22.409,22.409,0,0,0,4.908,2.945,12.168,12.168,0,0,0,4.757.982,6.211,6.211,0,0,0,3.625-.83,2.733,2.733,0,0,0,1.133-2.341,2.372,2.372,0,0,0-.643-1.624,6.557,6.557,0,0,0-1.736-1.321,17.26,17.26,0,0,0-2.454-1.095q-1.359-.49-2.794-1.095a35.162,35.162,0,0,1-3.474-1.586,14.644,14.644,0,0,1-3.172-2.227,10.9,10.9,0,0,1-2.34-3.1,8.926,8.926,0,0,1-.907-4.115,11.129,11.129,0,0,1,1.02-4.757,10.178,10.178,0,0,1,2.907-3.7,14.331,14.331,0,0,1,4.531-2.379,18.829,18.829,0,0,1,5.89-.868,18.143,18.143,0,0,1,7.552,1.471,30.373,30.373,0,0,1,5.663,3.286l-4.984,6.645a19.668,19.668,0,0,0-4-2.341,10.023,10.023,0,0,0-3.926-.831q-4.23,0-4.229,2.946a2.17,2.17,0,0,0,.605,1.547,5.949,5.949,0,0,0,1.623,1.171,20.567,20.567,0,0,0,2.341,1.019q1.32.492,2.756,1.019,1.812.679,3.587,1.548a14.929,14.929,0,0,1,3.247,2.153,9.841,9.841,0,0,1,2.378,3.133,9.948,9.948,0,0,1,.907,4.418,11.513,11.513,0,0,1-.982,4.757,10.467,10.467,0,0,1-2.945,3.814,14.7,14.7,0,0,1-4.832,2.567A21.3,21.3,0,0,1,1639.864,2090.4Z"/><path class="a" d="M1676.714,2090.4a14.939,14.939,0,0,1-5.928-1.057,10.351,10.351,0,0,1-4-2.945,11.944,11.944,0,0,1-2.265-4.569,22.823,22.823,0,0,1-.718-5.928v-15.177h-5.135V2052.5l5.739-.452,1.284-9.968h9.212v9.968h8.987v8.684H1674.9v15.027q0,3.171,1.322,4.568a4.6,4.6,0,0,0,3.511,1.4,7.868,7.868,0,0,0,1.851-.227,12.135,12.135,0,0,0,1.7-.528l1.738,8.08q-1.512.453-3.549.906A22.137,22.137,0,0,1,1676.714,2090.4Z"/><path class="a" d="M1446.683,1865.526h6.5v-8.615l2.187-2.183,2.183,2.183v8.615h6.5l2.24,8.613h-8.982v-4.064a1.942,1.942,0,0,0-3.883,0v4.064h-8.983Zm-13.06,10.634,6.491,2.611a12.411,12.411,0,0,0,9.282.007l.02-.007a17.3,17.3,0,0,1,12.975,0,12.4,12.4,0,0,0,9.3,0l6.494-2.611v-23.694h-44.558Z"/><path class="a" d="M1466.826,1907.39h-4.61V1903a1.391,1.391,0,0,0-.565-1.125,1.99,1.99,0,0,0-3.319,1.454v4.063h-4.856V1903a1.4,1.4,0,0,0-.562-1.125,1.993,1.993,0,0,0-3.324,1.454v4.063h-4.609v-14.322l2.183-2.186,2.186,2.186v5.706h4.367v-8.614l2.187-2.183,2.183,2.183v8.614h4.373v-5.706l2.18-2.186,2.186,2.186Zm11.354-26.169-6.493,2.61a12.4,12.4,0,0,1-9.3,0,17.312,17.312,0,0,0-12.975,0l-.02.008a12.416,12.416,0,0,1-9.282-.008l-6.491-2.61v13.045s-.386,13.842,22.279,24.153c22.664-10.311,22.278-24.153,22.278-24.153Z"/><path class="a" d="M1470.759,1837.985l-5.128-5.126-5.239,5.241h-.05v-11.272c6.568.817,11.475,3.386,13.809,6.206a5.335,5.335,0,0,0-3.392,4.951m-3.26,7.059h-3.727v-3.723h3.727Zm-11.595.642a2.5,2.5,0,1,1,2.5-2.5,2.5,2.5,0,0,1-2.5,2.5m-4.441-7.586h-.05l-5.239-5.241-5.13,5.128a5.339,5.339,0,0,0-3.325-4.929c2.317-2.816,7.2-5.39,13.744-6.22Zm-3.429,6.944h-3.728v-3.723h3.728Zm9.6-21.826-1.449-4.635,2.961-.925-.8-2.577-2.961.925-1.121-3.587-2.576.805,1.121,3.587-2.961.925.805,2.577,2.961-.925,1.19,3.81c-10.051.291-18.484,4.39-21.173,9.887v8.236h3.729v3.723h-3.729v3.225h44.558v-3.225h-3.724v-3.723h3.724v-8.264c-2.639-5.4-10.747-9.421-20.55-9.839"/><path class="a" d="M1521.181,1887.957l10.146-4.234a2.66,2.66,0,0,1,3.685,2.455v.36a3.076,3.076,0,0,1-3.554,3.039Zm10.759,5.591a7.011,7.011,0,0,0,7.006-7.01v-.36a6.594,6.594,0,0,0-9.134-6.086l-11.2,4.675c-1.016-1.7-2.375-6.391-2.874-8.185a11.726,11.726,0,0,0,2.233-1.136l2.093,2.413a3.983,3.983,0,0,0,6.208-.237l-5.843-4.335a11.718,11.718,0,0,0,1.368-1.951l7.464,1.925a4.776,4.776,0,0,0,6.317-3.948l-12.53-1.381a11.743,11.743,0,0,0,.226-2.282c0-.065-.005-.129-.007-.194l9.238-1.9a5.919,5.919,0,0,0,3.844-8.393l-13.818,6.39a11.691,11.691,0,0,0-1.085-2.183l8.368-8.6a7.218,7.218,0,0,0-.905-11.221l-15.12,22.582h0a4.039,4.039,0,0,1,.39.283c.045.036.086.076.129.114.077.067.152.135.223.208.051.051.1.1.147.159s.111.129.164.2.1.13.146.2.08.121.119.183c.048.079.1.157.138.239.027.051.051.1.076.156.045.1.092.192.13.292.008.02.013.042.02.062a4.126,4.126,0,0,1,.213.832c0,.027.008.053.012.079h0a4.228,4.228,0,0,1,.036.519c0,.126-.008.249-.019.372a4.159,4.159,0,0,1-.088.552h0c-.014.063-.031.126-.049.189a4.109,4.109,0,0,1-.413.981l-.034.056a4.138,4.138,0,0,1-.713.883l-.065.059a4.1,4.1,0,0,1-.431.345l-.007,0a4.143,4.143,0,0,1-.478.28l-.052.025-.053.025a4.189,4.189,0,0,1-.5.2l-.015.005h0a4.092,4.092,0,0,1-.543.126q-.066.012-.135.021a4.14,4.14,0,0,1-.572.044,4.2,4.2,0,0,1-.437-.023c-.019,0-.038-.007-.057-.009-.126-.015-.25-.033-.372-.059l-.019-.005a4.194,4.194,0,0,1-.94-.329c-.043-.021-.087-.041-.13-.063h0a4.266,4.266,0,0,1-.4-.243c-.1-.067-.194-.14-.286-.214l-.021-.018a3.547,3.547,0,0,1-.43-.418c-.046-.052-.094-.1-.137-.154l-.014-.02a4.145,4.145,0,0,1-.925-2.615,4.3,4.3,0,0,1,.038-.535l0-.015c0-.019.011-.042.014-.062a4.05,4.05,0,0,1,.2-.811,23.119,23.119,0,0,1,2.687-4.975c.52-.685,1.166-1.578,1.829-2.592l.006-.009h0c2.461-3.768,5.149-9.223,2.471-12.117l4.349-4.987-15.85,1.5c-2.871.386-5.168,3.245-6.054,6.044h7.14a6.235,6.235,0,0,1,4.357,1.775l.865.847h-10.482l1.119.816a10.429,10.429,0,0,0,6.142,2h3.654c-3.61,2.114-11.009,4.672-14.042,9.681l-10.566-.9,1.577-5.481-4.968-3.06v10.948l12.418,6.077,9.332-1.217-18.086,11,1.3-4.873-4.968-3.06v11.861l2.594-.707c9.78-2.456,16.323-1.465,20.695,1.064l-12.707,12.05,7.206,16.083-7.167-1.426-1.687,5.437h15.495s-8.68-9.27,2.3-13.6c0,0-7.318-.667-9.715-5.994l9.715-.333s1-6.635-.9-10.389c6.9,6.14,6.2,16.661,6.2,16.661,15.72-1.642,17.794,6.824,18.232,9.751l-7.728-1.538-1.687,5.437h15.154l-5.976-18.388c-6.692.21-9.106-2.739-9.789-5.536l8.733,1.377a6.977,6.977,0,0,0,1.095.086"/><path class="a" d="M1417.944,1869.8l11.911-5.729v-11.3l-4.968,3.06,1.524,5.3-11.4,1.431a24.247,24.247,0,0,0-8.338-9.765l7.846-.083.893-3.005h-6.491l1-2.623h5.784l1.047-4.412c-.239.016-1.039.037-1.282.037a11.284,11.284,0,0,1-8-3.315h-11.528l2.576,3.033-5.123,8.131h3.826l-3.245,7.686h3.753l-1.208,8.913,3.8.467-6.39,14.121a5.015,5.015,0,0,1-.244.538l-.006.013h0a5,5,0,0,1-4.393,2.642l-.038.01c-.138,0-.272-.018-.408-.03-.037,0-.074,0-.11-.007-.111-.013-.219-.031-.327-.05-.089-.016-.178-.033-.265-.053s-.172-.041-.257-.066c-.117-.034-.231-.073-.344-.114-.059-.022-.119-.041-.177-.065a5.037,5.037,0,0,1-.507-.243c-.021-.011-.04-.025-.061-.037a4.9,4.9,0,0,1-.432-.277l-.095-.071a5.139,5.139,0,0,1-.4-.334l-.038-.035a4.987,4.987,0,0,1-1.48-2.707c-.008-.044-.013-.088-.02-.133-.021-.133-.039-.267-.049-.4-.008-.089-.011-.178-.014-.267,0-.041-.006-.081-.006-.123s.006-.1.008-.147c0-.108.006-.216.016-.324.006-.066.017-.132.026-.2a5.01,5.01,0,0,1,.328-1.238c.009-.02.016-.041.025-.062.031-.074.055-.151.09-.224l4.619-9.661a6.1,6.1,0,0,0-5.5-8.727h-11.245a5.417,5.417,0,0,0,9.149,3.934h.077a2.546,2.546,0,0,1,4.18,1.967c0,.01,0,.019,0,.029a2.143,2.143,0,0,1-.206,1.1l-4.619,9.661a8.971,8.971,0,0,0,8.052,12.84c.389,2.9-1.033,8.381-8.895,8.739l-5.983,18.387h15.3l-1.687-5.438-7.863,1.566c.566-2.9,3.575-11.422,19.337-9.779,0,0-1.288-10.518,5.14-16.658-1.731,3.726-.364,10.272-.364,10.272l9.117.45c-2.392,5.326-9.712,5.992-9.712,5.992,10.978,4.325,2.3,13.6,2.3,13.6h15.644l-1.687-5.438-7.266,1.447,7.455-16.124-13.035-12.064c4.146-2.5,10.494-3.469,20.174-1.04l2.636.718v-11.862l-4.968,3.061,1.292,4.831-22.571-11.505Z"/><path class="a" d="M1068.406,1856.062h0a17.2,17.2,0,0,0-24.471,24.182l43.988,44a17.206,17.206,0,0,0,24.85-23.794Z"/><path class="a" d="M1221.442,2009.091h-.027a17.2,17.2,0,0,0-23.812,24.829l43.769,43.755.205.2a17.064,17.064,0,0,0,12.058,4.944h0a17.205,17.205,0,0,0,12.165-29.369Z"/><path class="a" d="M1209.773,1929.283a17.164,17.164,0,0,0,12.167-5.027l43.859-43.867a17.2,17.2,0,0,0-24.25-24.405l-43.926,43.923a17.193,17.193,0,0,0,12.15,29.376Z"/><path class="a" d="M1087.937,2009.586l-43.689,43.717-.168.151a17.2,17.2,0,1,0,24.325,24.327l44.368-44.355v-.03a17.206,17.206,0,0,0-24.836-23.81Z"/><path class="a" d="M1154.94,1809.726h-.007a11.359,11.359,0,0,0-11.359,11.1l-.007,38.951a11.371,11.371,0,0,0,22.719.743l.026-.027-.005-39.4A11.383,11.383,0,0,0,1154.94,1809.726Z"/><path class="a" d="M1154.937,2062.114a11.4,11.4,0,0,0-11.37,11.37l.006,38.6-.005.2.006.038a11.355,11.355,0,0,0,11.354,11.229h.018a11.368,11.368,0,0,0,11.363-11.367V2072.92l-.017-.023A11.385,11.385,0,0,0,1154.937,2062.114Z"/><path class="a" d="M1308.243,1958.88a11.284,11.284,0,0,0-7.911-3.327l-38.814,0a11.371,11.371,0,1,0-.015,22.743l38.7,0h.009a11.37,11.37,0,0,0,8.035-19.409Z"/><path class="a" d="M1049.218,1978.26a11.372,11.372,0,0,0-.843-22.713l-38.7.006a11.368,11.368,0,0,0-.006,22.736h.006l39.513.005Z"/></g></svg>
