<svg xmlns="http://www.w3.org/2000/svg" width="815.475" height="312.569" viewBox="0 0 815.475 312.569"><defs><style>.a{fill:#fff;}</style></defs><g transform="translate(-999.35 -1309.967)"><path class="a" d="M1375.722,1518.881v-49.235h30.809v9.364h-19.709v9.892h16.764v9.288h-16.764v11.328h20.464v9.363Z"/><path class="a" d="M1427.221,1519.787a21.881,21.881,0,0,1-7.589-1.434,23.372,23.372,0,0,1-6.759-3.777l4.984-6.947a22.427,22.427,0,0,0,4.909,2.945,12.177,12.177,0,0,0,4.756.982,6.206,6.206,0,0,0,3.625-.83,2.733,2.733,0,0,0,1.133-2.341,2.375,2.375,0,0,0-.642-1.624,6.585,6.585,0,0,0-1.737-1.322,17.236,17.236,0,0,0-2.454-1.094q-1.359-.491-2.794-1.095a35.188,35.188,0,0,1-3.473-1.586,14.674,14.674,0,0,1-3.172-2.227,10.921,10.921,0,0,1-2.341-3.1,8.925,8.925,0,0,1-.906-4.115,11.141,11.141,0,0,1,1.019-4.757,10.171,10.171,0,0,1,2.908-3.7,14.311,14.311,0,0,1,4.531-2.379,18.815,18.815,0,0,1,5.889-.868,18.14,18.14,0,0,1,7.552,1.471,30.331,30.331,0,0,1,5.663,3.285l-4.983,6.646a19.7,19.7,0,0,0-4-2.341,10.009,10.009,0,0,0-3.927-.831q-4.229,0-4.228,2.945a2.175,2.175,0,0,0,.6,1.548,5.948,5.948,0,0,0,1.623,1.171,20.841,20.841,0,0,0,2.341,1.019q1.321.492,2.757,1.019,1.812.68,3.587,1.548a15,15,0,0,1,3.247,2.152,9.529,9.529,0,0,1,3.284,7.552,11.513,11.513,0,0,1-.981,4.757,10.469,10.469,0,0,1-2.946,3.813,14.7,14.7,0,0,1-4.832,2.568A21.29,21.29,0,0,1,1427.221,1519.787Z"/><path class="a" d="M1466.411,1519.787a20.855,20.855,0,0,1-7.475-1.321,17.182,17.182,0,0,1-6.041-3.852,17.574,17.574,0,0,1-4-6.154,22.432,22.432,0,0,1-1.436-8.307,21.287,21.287,0,0,1,1.511-8.193,19.394,19.394,0,0,1,3.965-6.191,17.193,17.193,0,0,1,5.625-3.89,16.532,16.532,0,0,1,6.57-1.358,16.726,16.726,0,0,1,6.984,1.358,13.814,13.814,0,0,1,4.985,3.776,16.021,16.021,0,0,1,2.982,5.7,24.876,24.876,0,0,1,.982,7.136,26.142,26.142,0,0,1-.151,2.869q-.152,1.36-.3,2.039h-22.426a9.164,9.164,0,0,0,3.36,6,10.43,10.43,0,0,0,6.381,1.925,15.421,15.421,0,0,0,8.08-2.491l3.7,6.721a24.573,24.573,0,0,1-6.381,3.1A22.421,22.421,0,0,1,1466.411,1519.787Zm-8.307-23.711h13.518a8.5,8.5,0,0,0-1.435-5.135q-1.436-1.962-4.833-1.963a6.868,6.868,0,0,0-4.644,1.737A8.728,8.728,0,0,0,1458.1,1496.076Zm7.779-20.388-5.438-5.438,11.63-13.743,7.476,7.325Z"/><path class="a" d="M1498.957,1519.787a11.5,11.5,0,0,1-4.833-.906,7.8,7.8,0,0,1-3.134-2.529,10.719,10.719,0,0,1-1.7-3.927,23.146,23.146,0,0,1-.528-5.173v-41.306h11.1V1507.7a3.513,3.513,0,0,0,.642,2.416,1.838,1.838,0,0,0,1.321.68h.642a2.418,2.418,0,0,0,.718-.151l1.359,8.231a11.866,11.866,0,0,1-2.3.641A17.9,17.9,0,0,1,1498.957,1519.787Z"/><path class="a" d="M1514.513,1533.53a19.6,19.6,0,0,1-2.946-.188,14.508,14.508,0,0,1-2.34-.567l1.962-8.458q.53.151,1.209.3a5.973,5.973,0,0,0,1.284.151,6.224,6.224,0,0,0,4.3-1.359,8.323,8.323,0,0,0,2.266-3.55l.528-1.963-14.423-36.472h11.176l5.362,16.084q.829,2.568,1.509,5.21t1.436,5.437h.3q.6-2.643,1.246-5.324t1.321-5.323l4.531-16.084h10.647l-12.989,37.832a50.367,50.367,0,0,1-2.831,6.229,17.335,17.335,0,0,1-3.4,4.455,13.074,13.074,0,0,1-4.38,2.681A16.647,16.647,0,0,1,1514.513,1533.53Z"/><path class="a" d="M1564.124,1519.787a14.924,14.924,0,0,1-5.928-1.058,10.367,10.367,0,0,1-4-2.944,11.957,11.957,0,0,1-2.265-4.569,22.827,22.827,0,0,1-.718-5.928V1490.11h-5.135v-8.231l5.739-.452,1.285-9.968h9.212v9.968h8.986v8.683h-8.986v15.028q0,3.171,1.321,4.568a4.6,4.6,0,0,0,3.512,1.4,7.924,7.924,0,0,0,1.85-.227,12.14,12.14,0,0,0,1.7-.528l1.738,8.08q-1.512.452-3.549.906A22.13,22.13,0,0,1,1564.124,1519.787Z"/><path class="a" d="M1595.387,1519.787a20.874,20.874,0,0,1-7.477-1.321,17.209,17.209,0,0,1-6.041-3.852,17.588,17.588,0,0,1-4-6.154,22.432,22.432,0,0,1-1.434-8.307,21.326,21.326,0,0,1,1.509-8.193,19.411,19.411,0,0,1,3.965-6.191,17.228,17.228,0,0,1,5.626-3.89,16.532,16.532,0,0,1,6.57-1.358,16.727,16.727,0,0,1,6.985,1.358,13.805,13.805,0,0,1,4.983,3.776,16.042,16.042,0,0,1,2.984,5.7,24.88,24.88,0,0,1,.981,7.136,26.142,26.142,0,0,1-.151,2.869c-.1.907-.2,1.586-.3,2.039h-22.428a9.17,9.17,0,0,0,3.361,6,10.433,10.433,0,0,0,6.38,1.925,15.422,15.422,0,0,0,8.081-2.491l3.7,6.721a24.6,24.6,0,0,1-6.381,3.1A22.431,22.431,0,0,1,1595.387,1519.787Zm-8.307-23.711H1600.6a8.5,8.5,0,0,0-1.435-5.135q-1.436-1.962-4.833-1.963a6.863,6.863,0,0,0-4.643,1.737A8.718,8.718,0,0,0,1587.08,1496.076Z"/><path class="a" d="M1617.737,1518.881v-37.454h9.062l.755,6.569h.3a14.492,14.492,0,0,1,4.909-5.664,10.669,10.669,0,0,1,5.738-1.811,14.825,14.825,0,0,1,2.6.188,8.022,8.022,0,0,1,1.851.566l-1.813,9.59a18.65,18.65,0,0,0-1.963-.453,13.224,13.224,0,0,0-2.115-.15,8.11,8.11,0,0,0-4.417,1.509,10.927,10.927,0,0,0-3.813,5.362v21.748Z"/><path class="a" d="M1664.556,1519.787a20.875,20.875,0,0,1-7.477-1.321,17.211,17.211,0,0,1-6.041-3.852,17.588,17.588,0,0,1-4-6.154,22.43,22.43,0,0,1-1.434-8.307,21.308,21.308,0,0,1,1.509-8.193,19.4,19.4,0,0,1,3.965-6.191,17.228,17.228,0,0,1,5.626-3.89,16.53,16.53,0,0,1,6.569-1.358,16.732,16.732,0,0,1,6.986,1.358,13.805,13.805,0,0,1,4.983,3.776,16.042,16.042,0,0,1,2.984,5.7,24.88,24.88,0,0,1,.981,7.136,26.112,26.112,0,0,1-.151,2.869c-.1.907-.2,1.586-.3,2.039h-22.428a9.17,9.17,0,0,0,3.361,6,10.433,10.433,0,0,0,6.38,1.925,15.421,15.421,0,0,0,8.081-2.491l3.7,6.721a24.6,24.6,0,0,1-6.381,3.1A22.43,22.43,0,0,1,1664.556,1519.787Zm-8.307-23.711h13.517a8.5,8.5,0,0,0-1.435-5.135q-1.436-1.962-4.833-1.963a6.867,6.867,0,0,0-4.644,1.737A8.723,8.723,0,0,0,1656.249,1496.076Z"/><path class="a" d="M1686.906,1518.881v-37.454h9.062l.755,4.832h.3a29.934,29.934,0,0,1,4.984-4.04,13.161,13.161,0,0,1,12.8-.075,11.147,11.147,0,0,1,3.888,4.644,32.842,32.842,0,0,1,5.248-4.418,11.45,11.45,0,0,1,6.533-1.849q6.039,0,8.872,4.04t2.832,11.062v23.258h-11.1v-21.823q0-4.078-1.1-5.588a4.042,4.042,0,0,0-3.511-1.511q-2.794,0-6.418,3.625v25.3h-11.1v-21.823q0-4.078-1.1-5.588a4.043,4.043,0,0,0-3.511-1.511q-2.871,0-6.343,3.625v25.3Z"/><path class="a" d="M1766.044,1519.787a14.925,14.925,0,0,1-5.928-1.058,10.36,10.36,0,0,1-4-2.944,11.957,11.957,0,0,1-2.265-4.569,22.827,22.827,0,0,1-.718-5.928V1490.11H1748v-8.231l5.739-.452,1.285-9.968h9.211v9.968h8.987v8.683h-8.987v15.028q0,3.171,1.322,4.568a4.6,4.6,0,0,0,3.511,1.4,7.927,7.927,0,0,0,1.851-.227,12.145,12.145,0,0,0,1.7-.528l1.738,8.08q-1.512.452-3.549.906A22.137,22.137,0,0,1,1766.044,1519.787Z"/><path class="a" d="M1796.626,1519.787a18.444,18.444,0,0,1-6.871-1.321,17.43,17.43,0,0,1-5.853-3.814,18.29,18.29,0,0,1-4.04-6.154,23.809,23.809,0,0,1,0-16.688,18.294,18.294,0,0,1,4.04-6.155,17.428,17.428,0,0,1,5.853-3.813,18.444,18.444,0,0,1,6.871-1.321,18.16,18.16,0,0,1,6.834,1.321,17.526,17.526,0,0,1,5.814,3.813,18.294,18.294,0,0,1,4.04,6.155,23.794,23.794,0,0,1,0,16.688,18.29,18.29,0,0,1-4.04,6.154,17.528,17.528,0,0,1-5.814,3.814A18.16,18.16,0,0,1,1796.626,1519.787Zm-4-43.571-5.814-2.643,6.569-13.668,7.475,3.323Zm4,34.585a5.63,5.63,0,0,0,5.135-2.869,18.282,18.282,0,0,0,0-15.556,6.063,6.063,0,0,0-10.308,0,18.663,18.663,0,0,0,0,15.556A5.611,5.611,0,0,0,1796.626,1510.8Zm9.515-34.585-5.815-2.643,6.57-13.668,7.476,3.323Z"/><path class="a" d="M1375.722,1591.5v-49.234h16.839a42.035,42.035,0,0,1,7.136.566,17,17,0,0,1,5.739,2,10.686,10.686,0,0,1,3.851,3.775,11.345,11.345,0,0,1,1.4,5.89,12.569,12.569,0,0,1-.454,3.323,12.9,12.9,0,0,1-1.284,3.1,11.678,11.678,0,0,1-2,2.567,7.283,7.283,0,0,1-2.68,1.662v.3a12.426,12.426,0,0,1,3.473,1.4,10.982,10.982,0,0,1,2.794,2.379,10.683,10.683,0,0,1,1.888,3.36,13.239,13.239,0,0,1,.68,4.418,13.447,13.447,0,0,1-1.473,6.493,12.665,12.665,0,0,1-4.077,4.493,18.779,18.779,0,0,1-6.079,2.644,30.77,30.77,0,0,1-7.476.868Zm11.1-29.525h5.21q4.078,0,5.928-1.586a5.292,5.292,0,0,0,1.851-4.229,4.47,4.47,0,0,0-1.888-4.078,11.02,11.02,0,0,0-5.816-1.208h-5.285Zm0,20.917h6.268q9.135,0,9.137-6.646a5.025,5.025,0,0,0-2.266-4.643q-2.265-1.4-6.871-1.4h-6.268Z"/><path class="a" d="M1431.752,1592.4q-6.117,0-8.873-4t-2.756-11.1v-23.258h11.1v21.823q0,4.077,1.132,5.588a4.142,4.142,0,0,0,3.549,1.51,6.132,6.132,0,0,0,3.549-.982,14.286,14.286,0,0,0,3.1-3.171v-24.768h11.1V1591.5h-9.061l-.83-5.21h-.227a20.3,20.3,0,0,1-5.173,4.492A12.8,12.8,0,0,1,1431.752,1592.4Z"/><path class="a" d="M1476.758,1592.4a14.384,14.384,0,0,1-6.306-1.359,13.58,13.58,0,0,1-4.833-3.889,18.347,18.347,0,0,1-3.1-6.154,28.461,28.461,0,0,1-1.095-8.231,23.906,23.906,0,0,1,1.322-8.231,19.875,19.875,0,0,1,3.474-6.154,15.047,15.047,0,0,1,4.983-3.89,13.235,13.235,0,0,1,5.777-1.358,11.291,11.291,0,0,1,5.21,1.056,18.5,18.5,0,0,1,4,2.87l-.453-5.739v-12.761h11.1V1591.5h-9.062l-.755-3.7h-.3a17.59,17.59,0,0,1-4.606,3.285A11.892,11.892,0,0,1,1476.758,1592.4Zm2.869-9.061a7.1,7.1,0,0,0,3.285-.755,8.325,8.325,0,0,0,2.831-2.644v-15.329a8.86,8.86,0,0,0-3.1-1.887,9.767,9.767,0,0,0-3.095-.529,5.932,5.932,0,0,0-4.683,2.53q-2.037,2.531-2.038,7.891,0,5.589,1.774,8.155A5.748,5.748,0,0,0,1479.627,1583.342Z"/><path class="a" d="M1516.1,1592.4a11.942,11.942,0,0,1-4.644-.868,9.921,9.921,0,0,1-3.512-2.417,11.145,11.145,0,0,1-2.227-3.587,12.174,12.174,0,0,1-.793-4.455,10.489,10.489,0,0,1,4.983-9.213q4.984-3.321,16.085-4.455a6.328,6.328,0,0,0-1.472-3.964q-1.323-1.473-4.418-1.472a13.352,13.352,0,0,0-4.8.906,34.8,34.8,0,0,0-5.1,2.491l-4-7.324a39.242,39.242,0,0,1,7.59-3.55,25.8,25.8,0,0,1,8.419-1.358q7.25,0,11.063,4.115t3.814,12.8V1591.5h-9.062l-.756-3.851h-.3a23.975,23.975,0,0,1-5.06,3.436A12.832,12.832,0,0,1,1516.1,1592.4Zm3.775-8.608a6.1,6.1,0,0,0,3.247-.831,15.836,15.836,0,0,0,2.87-2.341v-6.569q-5.891.831-8.155,2.416a4.562,4.562,0,0,0-2.266,3.775,3.12,3.12,0,0,0,1.17,2.682A5.139,5.139,0,0,0,1519.875,1583.8Z"/><path class="a" d="M1546.455,1605.392v-51.349h9.062l.755,3.7h.3a20.927,20.927,0,0,1,4.947-3.284,13.047,13.047,0,0,1,5.7-1.321,13.5,13.5,0,0,1,6.116,1.358,13.033,13.033,0,0,1,4.606,3.852,18.285,18.285,0,0,1,2.908,6,28.016,28.016,0,0,1,1.019,7.816,25.669,25.669,0,0,1-1.321,8.57,19.817,19.817,0,0,1-3.549,6.343,15.431,15.431,0,0,1-5.06,3.965,13.376,13.376,0,0,1-5.852,1.359,11.3,11.3,0,0,1-4.682-1.019,14.948,14.948,0,0,1-4.228-2.907l.377,5.965v10.95Zm17.066-22.05a6.065,6.065,0,0,0,4.909-2.606q2.038-2.6,2.039-8.42,0-10.117-6.494-10.118-3.247,0-6.419,3.4v15.329a9.028,9.028,0,0,0,3.02,1.888A8.869,8.869,0,0,0,1563.521,1583.342Z"/><path class="a" d="M1606.488,1592.4a20.865,20.865,0,0,1-7.476-1.321,17.2,17.2,0,0,1-6.041-3.852,17.589,17.589,0,0,1-4-6.154,22.425,22.425,0,0,1-1.435-8.306,21.312,21.312,0,0,1,1.51-8.194,19.394,19.394,0,0,1,3.965-6.191,17.228,17.228,0,0,1,5.626-3.89,16.527,16.527,0,0,1,6.569-1.358,16.727,16.727,0,0,1,6.985,1.358,13.8,13.8,0,0,1,4.984,3.776,16.022,16.022,0,0,1,2.983,5.7,24.829,24.829,0,0,1,.982,7.135,25.9,25.9,0,0,1-.152,2.87q-.151,1.359-.3,2.039h-22.428a9.178,9.178,0,0,0,3.36,6,10.44,10.44,0,0,0,6.381,1.924,15.418,15.418,0,0,0,8.08-2.491l3.7,6.721a24.606,24.606,0,0,1-6.381,3.1A22.448,22.448,0,0,1,1606.488,1592.4Zm-8.306-23.711H1611.7a8.5,8.5,0,0,0-1.434-5.134q-1.436-1.963-4.833-1.964a6.865,6.865,0,0,0-4.644,1.737A8.717,8.717,0,0,0,1598.182,1568.692Z"/><path class="a" d="M1639.864,1592.4a21.88,21.88,0,0,1-7.589-1.434,23.356,23.356,0,0,1-6.758-3.777l4.984-6.947a22.4,22.4,0,0,0,4.908,2.945,12.168,12.168,0,0,0,4.757.982,6.211,6.211,0,0,0,3.625-.83,2.733,2.733,0,0,0,1.133-2.341,2.372,2.372,0,0,0-.643-1.624,6.557,6.557,0,0,0-1.736-1.321,17.2,17.2,0,0,0-2.454-1.095q-1.359-.491-2.794-1.1a35.19,35.19,0,0,1-3.474-1.586,14.648,14.648,0,0,1-3.172-2.227,10.9,10.9,0,0,1-2.34-3.1,8.926,8.926,0,0,1-.907-4.115,11.129,11.129,0,0,1,1.02-4.757,10.177,10.177,0,0,1,2.907-3.7,14.329,14.329,0,0,1,4.531-2.379,18.826,18.826,0,0,1,5.89-.868,18.141,18.141,0,0,1,7.552,1.471,30.359,30.359,0,0,1,5.663,3.286l-4.984,6.645a19.679,19.679,0,0,0-4-2.341,10.023,10.023,0,0,0-3.926-.831q-4.23,0-4.229,2.946a2.169,2.169,0,0,0,.605,1.547,5.949,5.949,0,0,0,1.623,1.171,20.589,20.589,0,0,0,2.341,1.019q1.32.492,2.756,1.019,1.812.68,3.587,1.548a14.924,14.924,0,0,1,3.247,2.153,9.843,9.843,0,0,1,2.378,3.133,9.948,9.948,0,0,1,.907,4.418,11.514,11.514,0,0,1-.982,4.757,10.467,10.467,0,0,1-2.945,3.814,14.705,14.705,0,0,1-4.832,2.567A21.293,21.293,0,0,1,1639.864,1592.4Z"/><path class="a" d="M1676.714,1592.4a14.939,14.939,0,0,1-5.928-1.057,10.352,10.352,0,0,1-4-2.945,11.946,11.946,0,0,1-2.265-4.569,22.823,22.823,0,0,1-.718-5.928v-15.177h-5.135v-8.232l5.739-.452,1.284-9.968h9.212v9.968h8.987v8.684H1674.9v15.027q0,3.171,1.322,4.568a4.6,4.6,0,0,0,3.511,1.4,7.868,7.868,0,0,0,1.851-.227,12.118,12.118,0,0,0,1.7-.528l1.738,8.08q-1.512.453-3.549.906A22.137,22.137,0,0,1,1676.714,1592.4Z"/><path class="a" d="M1446.683,1367.526h6.5v-8.615l2.187-2.183,2.183,2.183v8.615h6.5l2.24,8.613h-8.982v-4.064a1.942,1.942,0,0,0-3.883,0v4.064h-8.983Zm-13.06,10.634,6.491,2.611a12.411,12.411,0,0,0,9.282.007l.02-.007a17.3,17.3,0,0,1,12.975,0,12.4,12.4,0,0,0,9.3,0l6.494-2.611v-23.694h-44.558Z"/><path class="a" d="M1466.826,1409.39h-4.61V1405a1.391,1.391,0,0,0-.565-1.125,1.99,1.99,0,0,0-3.319,1.454v4.063h-4.856V1405a1.4,1.4,0,0,0-.562-1.125,1.993,1.993,0,0,0-3.324,1.454v4.063h-4.609v-14.322l2.183-2.186,2.186,2.186v5.706h4.367v-8.614l2.187-2.183,2.183,2.183v8.614h4.373v-5.706l2.18-2.186,2.186,2.186Zm11.354-26.169-6.493,2.61a12.4,12.4,0,0,1-9.3,0,17.312,17.312,0,0,0-12.975,0l-.02.008a12.416,12.416,0,0,1-9.282-.008l-6.491-2.61v13.045s-.386,13.842,22.279,24.153c22.664-10.311,22.278-24.153,22.278-24.153Z"/><path class="a" d="M1470.759,1339.985l-5.128-5.126-5.239,5.241h-.05v-11.272c6.568.817,11.475,3.386,13.809,6.206a5.335,5.335,0,0,0-3.392,4.951m-3.26,7.059h-3.727v-3.723h3.727Zm-11.595.642a2.5,2.5,0,1,1,2.5-2.5,2.5,2.5,0,0,1-2.5,2.5m-4.441-7.586h-.05l-5.239-5.241-5.13,5.128a5.339,5.339,0,0,0-3.325-4.929c2.317-2.816,7.2-5.39,13.744-6.22Zm-3.429,6.944h-3.728v-3.723h3.728Zm9.6-21.826-1.449-4.635,2.961-.925-.8-2.577-2.961.925-1.121-3.587-2.576.805,1.121,3.587-2.961.925.805,2.577,2.961-.925,1.19,3.81c-10.051.291-18.484,4.39-21.173,9.887v8.236h3.729v3.723h-3.729v3.225h44.558v-3.225h-3.724v-3.723h3.724v-8.264c-2.639-5.4-10.747-9.421-20.55-9.839"/><path class="a" d="M1521.181,1389.957l10.146-4.234a2.66,2.66,0,0,1,3.685,2.455v.36a3.076,3.076,0,0,1-3.554,3.039Zm10.759,5.591a7.011,7.011,0,0,0,7.006-7.01v-.36a6.594,6.594,0,0,0-9.134-6.086l-11.2,4.675c-1.016-1.7-2.375-6.391-2.874-8.185a11.726,11.726,0,0,0,2.233-1.136l2.093,2.413a3.983,3.983,0,0,0,6.208-.237l-5.843-4.335a11.718,11.718,0,0,0,1.368-1.951l7.464,1.925a4.776,4.776,0,0,0,6.317-3.948l-12.53-1.381a11.743,11.743,0,0,0,.226-2.282c0-.065-.005-.129-.007-.194l9.238-1.9a5.919,5.919,0,0,0,3.844-8.393l-13.818,6.39a11.691,11.691,0,0,0-1.085-2.183l8.368-8.6a7.218,7.218,0,0,0-.905-11.221l-15.12,22.582h0a4.039,4.039,0,0,1,.39.283c.045.036.086.076.129.114.077.067.152.135.223.208.051.051.1.1.147.159s.111.129.164.2.1.13.146.2.08.121.119.183c.048.079.1.157.138.239.027.051.051.1.076.156.045.1.092.192.13.292.008.02.013.042.02.062a4.126,4.126,0,0,1,.213.832c0,.027.008.053.012.079h0a4.228,4.228,0,0,1,.036.519c0,.126-.008.249-.019.372a4.159,4.159,0,0,1-.088.552h0c-.014.063-.031.126-.049.189a4.109,4.109,0,0,1-.413.981l-.034.056a4.138,4.138,0,0,1-.713.883l-.065.059a4.1,4.1,0,0,1-.431.345l-.007,0a4.143,4.143,0,0,1-.478.28l-.052.025-.053.025a4.189,4.189,0,0,1-.5.2l-.015.005h0a4.092,4.092,0,0,1-.543.126q-.066.012-.135.021a4.14,4.14,0,0,1-.572.044,4.2,4.2,0,0,1-.437-.023c-.019,0-.038-.007-.057-.009-.126-.015-.25-.033-.372-.059l-.019-.005a4.194,4.194,0,0,1-.94-.329c-.043-.021-.087-.041-.13-.063h0a4.266,4.266,0,0,1-.4-.243c-.1-.067-.194-.14-.286-.214l-.021-.018a3.547,3.547,0,0,1-.43-.418c-.046-.052-.094-.1-.137-.154l-.014-.02a4.145,4.145,0,0,1-.925-2.615,4.3,4.3,0,0,1,.038-.535l0-.015c0-.019.011-.042.014-.062a4.05,4.05,0,0,1,.2-.811,23.119,23.119,0,0,1,2.687-4.975c.52-.685,1.166-1.578,1.829-2.592l.006-.009h0c2.461-3.768,5.149-9.223,2.471-12.117l4.349-4.987-15.85,1.5c-2.871.386-5.168,3.245-6.054,6.044h7.14a6.235,6.235,0,0,1,4.357,1.775l.865.847h-10.482l1.119.816a10.429,10.429,0,0,0,6.142,2h3.654c-3.61,2.114-11.009,4.672-14.042,9.681l-10.566-.9,1.577-5.481-4.968-3.06v10.948l12.418,6.077,9.332-1.217-18.086,11,1.3-4.873-4.968-3.06v11.861l2.594-.707c9.78-2.456,16.323-1.465,20.695,1.064l-12.707,12.05,7.206,16.083-7.167-1.426-1.687,5.437h15.495s-8.68-9.27,2.3-13.6c0,0-7.318-.667-9.715-5.994l9.715-.333s1-6.635-.9-10.389c6.9,6.14,6.2,16.661,6.2,16.661,15.72-1.642,17.794,6.824,18.232,9.751l-7.728-1.538-1.687,5.437h15.154l-5.976-18.388c-6.692.21-9.106-2.739-9.789-5.536l8.733,1.377a6.977,6.977,0,0,0,1.095.086"/><path class="a" d="M1417.944,1371.8l11.911-5.729v-11.3l-4.968,3.06,1.524,5.3-11.4,1.431a24.247,24.247,0,0,0-8.338-9.765l7.846-.083.893-3.005h-6.491l1-2.623h5.784l1.047-4.412c-.239.016-1.039.037-1.282.037a11.284,11.284,0,0,1-8-3.315h-11.528l2.576,3.033-5.123,8.131h3.826l-3.245,7.686h3.753l-1.208,8.913,3.8.467-6.39,14.121a5.015,5.015,0,0,1-.244.538l-.006.013h0a5,5,0,0,1-4.393,2.642l-.038.01c-.138,0-.272-.018-.408-.03-.037,0-.074,0-.11-.007-.111-.013-.219-.031-.327-.05-.089-.016-.178-.033-.265-.053s-.172-.041-.257-.066c-.117-.034-.231-.073-.344-.114-.059-.022-.119-.041-.177-.065a5.037,5.037,0,0,1-.507-.243c-.021-.011-.04-.025-.061-.037a4.9,4.9,0,0,1-.432-.277l-.095-.071a5.139,5.139,0,0,1-.4-.334l-.038-.035a4.987,4.987,0,0,1-1.48-2.707c-.008-.044-.013-.088-.02-.133-.021-.133-.039-.267-.049-.4-.008-.089-.011-.178-.014-.267,0-.041-.006-.081-.006-.123s.006-.1.008-.147c0-.108.006-.216.016-.324.006-.066.017-.132.026-.2a5.01,5.01,0,0,1,.328-1.238c.009-.02.016-.041.025-.062.031-.074.055-.151.09-.224l4.619-9.661a6.1,6.1,0,0,0-5.5-8.727h-11.245a5.417,5.417,0,0,0,9.149,3.934h.077a2.546,2.546,0,0,1,4.18,1.967c0,.01,0,.019,0,.029a2.143,2.143,0,0,1-.206,1.1l-4.619,9.661a8.971,8.971,0,0,0,8.052,12.84c.389,2.9-1.033,8.381-8.895,8.739l-5.983,18.387h15.3l-1.687-5.438-7.863,1.566c.566-2.9,3.575-11.422,19.337-9.779,0,0-1.288-10.518,5.14-16.658-1.731,3.726-.364,10.272-.364,10.272l9.117.45c-2.392,5.326-9.712,5.992-9.712,5.992,10.978,4.325,2.3,13.6,2.3,13.6h15.644l-1.687-5.438-7.266,1.447,7.455-16.124-13.035-12.064c4.146-2.5,10.494-3.469,20.174-1.04l2.636.718v-11.862l-4.968,3.061,1.292,4.831-22.571-11.505Z"/><path class="a" d="M1264.881,1385.98c11.512-11.512,7.265-32.815-12.738-37.119a13.042,13.042,0,0,0-6.141.162c-7.912,2.155-13.178,6.868-15.855,12.519l.006.015c-.294.613-.551,1.237-.783,1.864l-12.343,29.776a7.786,7.786,0,0,0,10.168,10.177l31.676-13.1-.039-.038a21.405,21.405,0,0,0,6.049-4.257"/><path class="a" d="M1043.9,1545.6c-11.512,11.512-7.265,32.815,12.738,37.119a13.041,13.041,0,0,0,6.141-.162c7.912-2.155,13.178-6.867,15.855-12.519l-.006-.015c.294-.613.551-1.237.783-1.864l12.343-29.776a7.786,7.786,0,0,0-10.168-10.177l-31.676,13.1.039.038a21.407,21.407,0,0,0-6.049,4.257"/><path class="a" d="M1234.766,1576.709c11.512,11.512,32.815,7.264,37.119-12.738a13.047,13.047,0,0,0-.162-6.142c-2.155-7.911-6.868-13.178-12.519-15.854l-.015.005c-.613-.294-1.237-.551-1.864-.782l-29.776-12.344a7.786,7.786,0,0,0-10.177,10.168l13.1,31.676.039-.038a21.431,21.431,0,0,0,4.257,6.049"/><path class="a" d="M1074.366,1355.793c-11.512-11.512-32.815-7.264-37.119,12.738a13.032,13.032,0,0,0,.163,6.142c2.154,7.911,6.867,13.178,12.518,15.854l.016-.005c.612.294,1.236.551,1.863.782l29.777,12.344a7.786,7.786,0,0,0,10.176-10.168l-13.1-31.676-.039.038a21.435,21.435,0,0,0-4.257-6.049"/><path class="a" d="M1020.889,1444.384c-16.28,0-28.341,18.067-17.239,35.254a13.024,13.024,0,0,0,4.457,4.228c7.118,4.071,14.174,4.462,20.063,2.359l.007-.015c.641-.225,1.263-.485,1.871-.764l29.783-12.327a7.786,7.786,0,0,0,.006-14.386l-31.66-13.137v.055a21.438,21.438,0,0,0-7.288-1.267"/><path class="a" d="M1289.311,1487.477c16.279,0,28.339-18.064,17.243-35.249a13.041,13.041,0,0,0-4.465-4.235c-7.116-4.069-14.171-4.46-20.058-2.357l-.007.015c-.642.225-1.264.485-1.871.764l-29.8,12.335a7.778,7.778,0,0,0-.006,14.37l31.679,13.145v-.055a21.425,21.425,0,0,0,7.287,1.267"/><path class="a" d="M1197.792,1389.956a13.964,13.964,0,0,0-13.264-18.892,13.242,13.242,0,0,0-10.8,5.5,14.375,14.375,0,0,0-2.825,8.191l.007.008c-.011.438,0,.873.032,1.3l.5,17.2a6.505,6.505,0,0,0,11.233,4.278l12.721-13.473-.033-.012a13.83,13.83,0,0,0,2.434-4.1"/><path class="a" d="M1110.271,1541.905a13.964,13.964,0,0,0,13.265,18.892,13.24,13.24,0,0,0,10.8-5.5,14.37,14.37,0,0,0,2.826-8.191l-.007-.008c.011-.438,0-.873-.032-1.3l-.5-17.2a6.505,6.505,0,0,0-11.233-4.278l-12.721,13.473.033.012a13.809,13.809,0,0,0-2.435,4.1"/><path class="a" d="M1238.7,1443.152a13.98,13.98,0,0,0,3.63-23.086,12.9,12.9,0,0,0-10.116-3.54,14.554,14.554,0,0,0-8.852,3.929v.01c-.318.3-.615.619-.9.945l-11.811,12.517a6.506,6.506,0,0,0,4.919,10.968l18.521-.532-.014-.032a13.828,13.828,0,0,0,4.622-1.179"/><path class="a" d="M1069.366,1488.709a13.981,13.981,0,0,0-3.629,23.086,12.9,12.9,0,0,0,10.115,3.54,14.549,14.549,0,0,0,8.852-3.929v-.01c.318-.3.616-.619.9-.945l11.811-12.517a6.506,6.506,0,0,0-4.919-10.968l-18.521.532.014.032a13.837,13.837,0,0,0-4.623,1.179"/><path class="a" d="M1176.811,1550.6a13.981,13.981,0,0,0,23.086,3.63,12.9,12.9,0,0,0,3.539-10.116,14.557,14.557,0,0,0-3.928-8.852h-.011c-.3-.318-.619-.616-.944-.9l-12.518-11.811a6.506,6.506,0,0,0-10.968,4.918l.532,18.522.032-.015a13.811,13.811,0,0,0,1.18,4.623"/><path class="a" d="M1131.253,1381.265a13.981,13.981,0,0,0-23.086-3.63,12.9,12.9,0,0,0-3.539,10.116,14.55,14.55,0,0,0,3.928,8.852h.011c.3.318.619.616.944.9l12.518,11.811A6.506,6.506,0,0,0,1133,1404.4l-.532-18.522-.032.015a13.809,13.809,0,0,0-1.18-4.623"/><path class="a" d="M1078.057,1422.17a13.964,13.964,0,0,0-18.892,13.264,13.243,13.243,0,0,0,5.5,10.805,14.384,14.384,0,0,0,8.192,2.826l.007-.008c.439.012.873,0,1.3-.032l17.2-.5a6.506,6.506,0,0,0,4.277-11.234l-13.472-12.72-.013.033a13.809,13.809,0,0,0-4.1-2.435"/><path class="a" d="M1230.006,1509.691a13.964,13.964,0,0,0,18.892-13.264,13.24,13.24,0,0,0-5.5-10.805,14.385,14.385,0,0,0-8.192-2.826l-.008.008c-.438-.012-.873,0-1.3.032l-17.2.5a6.506,6.506,0,0,0-4.278,11.234l13.473,12.72.013-.033a13.817,13.817,0,0,0,4.1,2.435"/><path class="a" d="M1132.485,1601c0,16.281,18.067,28.341,35.254,17.24a13.034,13.034,0,0,0,4.228-4.457c4.071-7.118,4.463-14.174,2.359-20.063l-.015-.007c-.225-.642-.484-1.264-.764-1.871l-12.327-29.783a7.786,7.786,0,0,0-14.386-.007l-13.136,31.661h.054a21.428,21.428,0,0,0-1.267,7.287"/><path class="a" d="M1175.579,1331.506c0-16.279-18.064-28.339-35.25-17.243a13.051,13.051,0,0,0-4.235,4.465c-4.068,7.117-4.459,14.171-2.356,20.058l.014.007c.226.642.485,1.264.765,1.871l12.334,29.8a7.778,7.778,0,0,0,14.371.006l13.144-31.679h-.055a21.428,21.428,0,0,0,1.268-7.287"/></g></svg>