<svg id="Group_2" data-name="Group 2" xmlns="http://www.w3.org/2000/svg" width="311.498" height="312.569" viewBox="0 0 311.498 312.569">
  <g id="eselyteremto_budapest_white_category" transform="translate(-999.351 -1309.971)">
    <path id="Path_54" data-name="Path 54" d="M1264.88,1385.98c11.512-11.512,7.265-32.815-12.738-37.119a13.041,13.041,0,0,0-6.141.162c-7.912,2.155-13.178,6.868-15.855,12.519l.006.015c-.294.613-.551,1.237-.783,1.864l-12.343,29.776a7.786,7.786,0,0,0,10.168,10.177l31.676-13.1-.039-.038a21.407,21.407,0,0,0,6.049-4.257" fill="#fff"/>
    <path id="Path_55" data-name="Path 55" d="M1043.9,1545.6c-11.512,11.512-7.265,32.815,12.738,37.119a13.041,13.041,0,0,0,6.141-.162c7.912-2.155,13.178-6.867,15.855-12.519l-.006-.015c.294-.613.551-1.237.783-1.864l12.343-29.776a7.786,7.786,0,0,0-10.168-10.177l-31.676,13.1.039.038a21.4,21.4,0,0,0-6.049,4.257" fill="#fff"/>
    <path id="Path_56" data-name="Path 56" d="M1234.77,1576.71c11.512,11.512,32.815,7.264,37.119-12.738a13.048,13.048,0,0,0-.162-6.142c-2.155-7.911-6.868-13.178-12.519-15.854l-.015.005c-.613-.294-1.237-.551-1.864-.782l-29.776-12.344a7.786,7.786,0,0,0-10.177,10.168l13.1,31.676.039-.038a21.427,21.427,0,0,0,4.257,6.049" fill="#fff"/>
    <path id="Path_57" data-name="Path 57" d="M1074.37,1355.79c-11.512-11.512-32.815-7.264-37.119,12.738a13.031,13.031,0,0,0,.163,6.142c2.154,7.911,6.867,13.178,12.518,15.854l.016-.005c.612.294,1.236.551,1.863.782l29.777,12.344a7.786,7.786,0,0,0,10.176-10.168l-13.1-31.676-.039.038a21.434,21.434,0,0,0-4.257-6.049" fill="#fff"/>
    <path id="Path_58" data-name="Path 58" d="M1020.89,1444.38c-16.28,0-28.341,18.067-17.239,35.254a13.023,13.023,0,0,0,4.457,4.228c7.118,4.071,14.174,4.462,20.063,2.359l.007-.015c.641-.225,1.263-.485,1.871-.764l29.783-12.327a7.786,7.786,0,0,0,.006-14.386l-31.66-13.137v.055a21.437,21.437,0,0,0-7.288-1.267" fill="#fff"/>
    <path id="Path_59" data-name="Path 59" d="M1289.31,1487.48c16.279,0,28.339-18.064,17.243-35.249a13.041,13.041,0,0,0-4.465-4.235c-7.116-4.069-14.171-4.46-20.058-2.357l-.007.015c-.642.225-1.264.485-1.871.764l-29.8,12.335a7.778,7.778,0,0,0-.006,14.37l31.679,13.145v-.055a21.418,21.418,0,0,0,7.287,1.267" fill="#fff"/>
    <path id="Path_60" data-name="Path 60" d="M1197.79,1389.96a13.964,13.964,0,0,0-13.264-18.892,13.242,13.242,0,0,0-10.8,5.5,14.374,14.374,0,0,0-2.825,8.191l.007.008c-.011.438,0,.873.032,1.3l.5,17.2a6.5,6.5,0,0,0,11.233,4.278l12.721-13.473-.033-.012a13.827,13.827,0,0,0,2.434-4.1" fill="#fff"/>
    <path id="Path_61" data-name="Path 61" d="M1110.27,1541.91a13.964,13.964,0,0,0,13.265,18.892,13.24,13.24,0,0,0,10.8-5.5,14.37,14.37,0,0,0,2.826-8.191l-.007-.008c.011-.438,0-.873-.032-1.3l-.5-17.2a6.505,6.505,0,0,0-11.233-4.278l-12.721,13.473.033.012a13.808,13.808,0,0,0-2.435,4.1" fill="#fff"/>
    <path id="Path_62" data-name="Path 62" d="M1238.7,1443.15a13.98,13.98,0,0,0,3.63-23.086,12.9,12.9,0,0,0-10.116-3.54,14.554,14.554,0,0,0-8.852,3.929v.01c-.318.3-.615.619-.9.945l-11.811,12.517a6.506,6.506,0,0,0,4.919,10.968l18.521-.532-.014-.032a13.827,13.827,0,0,0,4.622-1.179" fill="#fff"/>
    <path id="Path_63" data-name="Path 63" d="M1069.37,1488.71a13.981,13.981,0,0,0-3.629,23.086,12.9,12.9,0,0,0,10.115,3.54,14.55,14.55,0,0,0,8.852-3.929v-.01c.318-.3.616-.619.9-.945l11.811-12.517a6.506,6.506,0,0,0-4.919-10.968l-18.521.532.014.032a13.839,13.839,0,0,0-4.623,1.179" fill="#fff"/>
    <path id="Path_64" data-name="Path 64" d="M1176.81,1550.6a13.981,13.981,0,0,0,23.086,3.63,12.9,12.9,0,0,0,3.539-10.116,14.557,14.557,0,0,0-3.928-8.852h-.011c-.3-.318-.619-.616-.944-.9l-12.518-11.811a6.506,6.506,0,0,0-10.968,4.918l.532,18.522.032-.015a13.811,13.811,0,0,0,1.18,4.623" fill="#fff"/>
    <path id="Path_65" data-name="Path 65" d="M1131.25,1381.27a13.981,13.981,0,0,0-23.086-3.63,12.9,12.9,0,0,0-3.539,10.116,14.55,14.55,0,0,0,3.928,8.852h.011c.3.318.619.616.944.9l12.518,11.811A6.506,6.506,0,0,0,1133,1404.4l-.532-18.522-.032.015a13.808,13.808,0,0,0-1.18-4.623" fill="#fff"/>
    <path id="Path_66" data-name="Path 66" d="M1078.06,1422.17a13.964,13.964,0,0,0-18.892,13.264,13.243,13.243,0,0,0,5.5,10.805,14.385,14.385,0,0,0,8.192,2.826l.007-.008a12.754,12.754,0,0,0,1.3-.032l17.2-.5a6.506,6.506,0,0,0,4.277-11.234l-13.472-12.72-.013.033a13.807,13.807,0,0,0-4.1-2.435" fill="#fff"/>
    <path id="Path_67" data-name="Path 67" d="M1230.01,1509.69a13.964,13.964,0,0,0,18.892-13.264,13.24,13.24,0,0,0-5.5-10.805,14.384,14.384,0,0,0-8.192-2.826l-.008.008a12.761,12.761,0,0,0-1.3.032l-17.2.5a6.506,6.506,0,0,0-4.278,11.234l13.473,12.72.013-.033a13.82,13.82,0,0,0,4.1,2.435" fill="#fff"/>
    <path id="Path_68" data-name="Path 68" d="M1132.48,1601c0,16.281,18.067,28.341,35.254,17.24a13.035,13.035,0,0,0,4.228-4.457c4.071-7.118,4.463-14.174,2.359-20.063l-.015-.007c-.225-.642-.484-1.264-.764-1.871l-12.327-29.783a7.786,7.786,0,0,0-14.386-.007l-13.136,31.661h.054a21.425,21.425,0,0,0-1.267,7.287" fill="#fff"/>
    <path id="Path_69" data-name="Path 69" d="M1175.58,1331.51c0-16.279-18.064-28.339-35.25-17.243a13.05,13.05,0,0,0-4.235,4.465c-4.068,7.117-4.459,14.171-2.356,20.058l.014.007c.226.642.485,1.264.765,1.871l12.334,29.8a7.778,7.778,0,0,0,14.371.006l13.144-31.679h-.055a21.429,21.429,0,0,0,1.268-7.287" fill="#fff"/>
  </g>
</svg>
