<svg xmlns="http://www.w3.org/2000/svg" xmlns:xlink="http://www.w3.org/1999/xlink" width="755.656" height="279.89" viewBox="0 0 755.656 279.89"><defs><clipPath id="b"><rect width="755.656" height="279.89"/></clipPath></defs><g id="a" clip-path="url(#b)"><path d="M821.73,196.211H688.316c-15.07,0-27.4-14.2-27.4-31.553V127.153c0-17.353,12.331-31.552,27.4-31.552h148.8c15.07,0,27.4,14.2,27.4,31.552v37.506c0,12.254-6.151,22.926-15.07,28.146l9.976,36.51Z" transform="translate(-655.846 -2)" fill="#fff" stroke="#454347" stroke-linecap="round" stroke-linejoin="round" stroke-width="8"/><path d="M18.576,25.648a.555.555,0,0,1,.492.288,1.489,1.489,0,0,1,.18.792,2.265,2.265,0,0,1-.456,1.488,8.847,8.847,0,0,1-2.6,2.256,6.569,6.569,0,0,1-3.036.648,8.1,8.1,0,0,1-2.3-.312,27.025,27.025,0,0,1-2.568-.936,23.5,23.5,0,0,0-2.64-.984A3.948,3.948,0,0,1,1.968,31.12,3.459,3.459,0,0,1-.18,30.508a1.892,1.892,0,0,1-.8-1.572A2.312,2.312,0,0,1,.144,26.98a5.182,5.182,0,0,1,3-.78h.312l.432-6.984a11.085,11.085,0,0,1,.864-3.96,7.825,7.825,0,0,1,1.992-2.664,7.605,7.605,0,0,1,2.52-1.452,9.075,9.075,0,0,1,3-.492,5.507,5.507,0,0,1,3.984,1.344,4.652,4.652,0,0,1,1.392,3.5,4.64,4.64,0,0,1-.528,2.364,1.627,1.627,0,0,1-1.464.9,1.587,1.587,0,0,1-1.056-.324,1.142,1.142,0,0,1-.384-.924,5.8,5.8,0,0,1,.1-.792,5.8,5.8,0,0,0,.144-1.2,2.157,2.157,0,0,0-.588-1.6,2.432,2.432,0,0,0-1.788-.588,4.015,4.015,0,0,0-3.264,1.38,8.073,8.073,0,0,0-1.464,4.332L6.792,24.5a16.945,16.945,0,0,1-.312,1.992q1.536.264,3.84.84,1.344.336,2.064.48a6.58,6.58,0,0,0,1.272.144,5.576,5.576,0,0,0,2.388-.468,5.749,5.749,0,0,0,1.884-1.5A.842.842,0,0,1,18.576,25.648Zm11.352,0a.555.555,0,0,1,.492.288,1.489,1.489,0,0,1,.18.792,2.207,2.207,0,0,1-.456,1.488,8.768,8.768,0,0,1-2.508,1.992,6.957,6.957,0,0,1-3.468.912,5.344,5.344,0,0,1-3.912-1.368,5.01,5.01,0,0,1-1.392-3.744,6.945,6.945,0,0,1,.7-3.084,5.7,5.7,0,0,1,1.932-2.268,4.859,4.859,0,0,1,2.8-.84,3.041,3.041,0,0,1,2.232.828,3.008,3.008,0,0,1,.84,2.244,3.88,3.88,0,0,1-1.188,2.844,8.591,8.591,0,0,1-4.02,1.884,2.357,2.357,0,0,0,2.28,1.1,5.249,5.249,0,0,0,2.46-.756,8.125,8.125,0,0,0,2.388-1.98A.842.842,0,0,1,29.928,25.648Zm-6.048-3.48a1.759,1.759,0,0,0-1.5,1.032,4.81,4.81,0,0,0-.612,2.5v.048A5.454,5.454,0,0,0,24,24.736a1.981,1.981,0,0,0,.816-1.56,1.043,1.043,0,0,0-.252-.732A.88.88,0,0,0,23.88,22.168ZM40.824,25.7a.551.551,0,0,1,.492.3,1.449,1.449,0,0,1,.18.756,1.841,1.841,0,0,1-.168.864,1.567,1.567,0,0,1-.528.552q-2.064,1.392-3.024,2.064L36.24,31.264a28.53,28.53,0,0,1-2.388,7.812Q32.376,41.92,30.1,41.92a2.718,2.718,0,0,1-1.992-.756,2.655,2.655,0,0,1-.768-1.98,6.567,6.567,0,0,1,1.344-3.66,24.382,24.382,0,0,1,5.04-4.812l.144-.936a2.9,2.9,0,0,1-2.376,1.344,2.919,2.919,0,0,1-2.376-1.08,4.316,4.316,0,0,1-.888-2.832,7.8,7.8,0,0,1,.888-3.636,7.58,7.58,0,0,1,2.364-2.76,5.331,5.331,0,0,1,3.132-1.044.935.935,0,0,1,.708.2,1.724,1.724,0,0,1,.3.732,5.167,5.167,0,0,1,1.056-.1,1.515,1.515,0,0,1,.852.18.823.823,0,0,1,.252.708,3.389,3.389,0,0,1-.024.456q-.1.744-.6,3.768-.1.576-.2,1.26t-.228,1.452q1.848-1.44,3.552-2.544A1.09,1.09,0,0,1,40.824,25.7Zm-8.472,3a1.376,1.376,0,0,0,1.056-.672,4.465,4.465,0,0,0,.72-1.92L34.9,22a2.834,2.834,0,0,0-1.824.756,5.159,5.159,0,0,0-1.344,1.932,6.5,6.5,0,0,0-.5,2.544,1.7,1.7,0,0,0,.3,1.1A1.02,1.02,0,0,0,32.352,28.7Zm-1.992,10.9q.6,0,1.356-1.44a19.731,19.731,0,0,0,1.452-4.584A13.945,13.945,0,0,0,30.5,36.424a4.306,4.306,0,0,0-.816,2.232,1.305,1.305,0,0,0,.156.672A.552.552,0,0,0,30.36,39.592Zm21.7-13.9a.551.551,0,0,1,.492.3,1.449,1.449,0,0,1,.18.756,1.841,1.841,0,0,1-.168.864,1.567,1.567,0,0,1-.528.552l-4.608,3.1a28.53,28.53,0,0,1-2.388,7.812Q43.56,41.92,41.28,41.92a2.718,2.718,0,0,1-1.992-.756,2.655,2.655,0,0,1-.768-1.98,5.709,5.709,0,0,1,.516-2.3,10.428,10.428,0,0,1,1.92-2.7,31.807,31.807,0,0,1,3.972-3.492L45,30.136q.168-.888.384-2.544A6.1,6.1,0,0,1,44.04,30.22a2.528,2.528,0,0,1-1.824.9,2.063,2.063,0,0,1-1.764-1,4.287,4.287,0,0,1-.684-2.484,20.957,20.957,0,0,1,.24-3.3,20.715,20.715,0,0,1,.792-3.18,2.008,2.008,0,0,1,.672-1.032,2.366,2.366,0,0,1,1.368-.312,1.185,1.185,0,0,1,.732.168.615.615,0,0,1,.2.5,9.963,9.963,0,0,1-.264,1.3q-.24.888-.384,1.608-.192.984-.336,1.884a9.719,9.719,0,0,0-.144,1.476q0,.912.5.912.36,0,.9-.72A10.582,10.582,0,0,0,45.2,24.76a29.186,29.186,0,0,0,1.188-3.6,1.558,1.558,0,0,1,1.776-1.344,1.471,1.471,0,0,1,.768.144.534.534,0,0,1,.216.48q0,.6-.624,4.128L47.9,28.432q1.848-1.392,3.6-2.544A1.09,1.09,0,0,1,52.056,25.7Zm-10.512,13.9q.6,0,1.344-1.392a20.33,20.33,0,0,0,1.488-4.632A13.658,13.658,0,0,0,41.7,36.412a4.324,4.324,0,0,0-.828,2.244,1.305,1.305,0,0,0,.156.672A.552.552,0,0,0,41.544,39.592ZM61.968,25.648a.555.555,0,0,1,.492.288,1.489,1.489,0,0,1,.18.792,2.207,2.207,0,0,1-.456,1.488,8.768,8.768,0,0,1-2.508,1.992,6.957,6.957,0,0,1-3.468.912A5.344,5.344,0,0,1,52.3,29.752,5.01,5.01,0,0,1,50.9,26.008a6.945,6.945,0,0,1,.7-3.084,5.7,5.7,0,0,1,1.932-2.268,4.859,4.859,0,0,1,2.8-.84,3.041,3.041,0,0,1,2.232.828,3.008,3.008,0,0,1,.84,2.244,3.88,3.88,0,0,1-1.188,2.844,8.59,8.59,0,0,1-4.02,1.884,2.357,2.357,0,0,0,2.28,1.1,5.249,5.249,0,0,0,2.46-.756,8.125,8.125,0,0,0,2.388-1.98A.842.842,0,0,1,61.968,25.648Zm-6.048-3.48a1.759,1.759,0,0,0-1.5,1.032,4.81,4.81,0,0,0-.612,2.5v.048a5.454,5.454,0,0,0,2.232-1.008,1.981,1.981,0,0,0,.816-1.56,1.043,1.043,0,0,0-.252-.732A.88.88,0,0,0,55.92,22.168ZM62.4,31.12a1.311,1.311,0,0,1-1.284-.96,9.2,9.2,0,0,1-.372-3.072,19.545,19.545,0,0,1,.888-5.928,1.805,1.805,0,0,1,.708-1.02,2.5,2.5,0,0,1,1.38-.324,1.352,1.352,0,0,1,.672.12.5.5,0,0,1,.192.456,9.149,9.149,0,0,1-.36,1.728q-.24.96-.384,1.68a17.216,17.216,0,0,0-.24,1.776,13.646,13.646,0,0,1,1.776-3.36,6.964,6.964,0,0,1,1.932-1.848,3.513,3.513,0,0,1,1.74-.552,1.379,1.379,0,0,1,1.56,1.56,19.289,19.289,0,0,1-.528,3.384,16.656,16.656,0,0,0-.456,2.76q0,.96.7.96a1.875,1.875,0,0,0,1.14-.588,19.263,19.263,0,0,0,1.764-1.908.842.842,0,0,1,.648-.336.555.555,0,0,1,.492.288,1.489,1.489,0,0,1,.18.792,2.207,2.207,0,0,1-.456,1.488,10.621,10.621,0,0,1-2.22,2.088,4.656,4.656,0,0,1-2.7.816,2.333,2.333,0,0,1-1.848-.708A3.012,3.012,0,0,1,66.7,28.36a14.984,14.984,0,0,1,.336-2.4,12.42,12.42,0,0,0,.312-2.088q0-.384-.264-.384-.312,0-.876.8a12.888,12.888,0,0,0-1.152,2.124A16.521,16.521,0,0,0,64.1,29.2a3.743,3.743,0,0,1-.612,1.524A1.381,1.381,0,0,1,62.4,31.12Zm20.9-5.472a.555.555,0,0,1,.492.288,1.489,1.489,0,0,1,.18.792,2.207,2.207,0,0,1-.456,1.488,8.768,8.768,0,0,1-2.508,1.992,6.957,6.957,0,0,1-3.468.912,5.344,5.344,0,0,1-3.912-1.368,5.01,5.01,0,0,1-1.392-3.744,6.945,6.945,0,0,1,.7-3.084,5.7,5.7,0,0,1,1.932-2.268,4.859,4.859,0,0,1,2.8-.84,3.041,3.041,0,0,1,2.232.828,3.008,3.008,0,0,1,.84,2.244,3.88,3.88,0,0,1-1.188,2.844,8.591,8.591,0,0,1-4.02,1.884,2.357,2.357,0,0,0,2.28,1.1,5.249,5.249,0,0,0,2.46-.756,8.125,8.125,0,0,0,2.388-1.98A.842.842,0,0,1,83.3,25.648Zm-6.048-3.48a1.759,1.759,0,0,0-1.5,1.032,4.81,4.81,0,0,0-.612,2.5v.048a5.454,5.454,0,0,0,2.232-1.008,1.981,1.981,0,0,0,.816-1.56,1.043,1.043,0,0,0-.252-.732A.88.88,0,0,0,77.256,22.168ZM92.232,28.5a1.04,1.04,0,0,1,.984,1.08,1.387,1.387,0,0,1-.54,1.068,2.3,2.3,0,0,1-1.548.468,3.863,3.863,0,0,1-2.82-1.068,3.736,3.736,0,0,1-1.092-2.8,1.388,1.388,0,0,1,.96-1.344,4.283,4.283,0,0,0,1.512-.972,1.835,1.835,0,0,0,.456-1.26.994.994,0,0,0-.18-.648.556.556,0,0,0-.444-.216,2.078,2.078,0,0,0-1.428.936,10.672,10.672,0,0,0-1.452,2.412A17.28,17.28,0,0,0,85.584,29.2a3.743,3.743,0,0,1-.612,1.524,1.381,1.381,0,0,1-1.092.4,1.205,1.205,0,0,1-1.092-.54,3.931,3.931,0,0,1-.468-1.668q-.12-1.128-.12-3.312a41.568,41.568,0,0,1,.756-7.7,23.152,23.152,0,0,1,2.232-6.732q1.476-2.724,3.54-2.724a2.109,2.109,0,0,1,1.788.948,4.106,4.106,0,0,1,.684,2.46,10.517,10.517,0,0,1-1.416,5.028,32.512,32.512,0,0,1-4.608,6.084q-.072,1.248-.072,2.568a11.365,11.365,0,0,1,2.64-4.356,4.306,4.306,0,0,1,2.784-1.356,2.47,2.47,0,0,1,1.932.816,2.909,2.909,0,0,1,.732,2.016,4.574,4.574,0,0,1-.672,2.424,5.747,5.747,0,0,1-2.3,1.968,1.43,1.43,0,0,0,.588,1A4.466,4.466,0,0,0,92.232,28.5ZM88.224,10.816q-.432,0-.96,1.236a20.945,20.945,0,0,0-1.02,3.336,44.551,44.551,0,0,0-.8,4.572,17.175,17.175,0,0,0,2.46-3.816,8.911,8.911,0,0,0,.972-3.744,3.213,3.213,0,0,0-.168-1.176Q88.536,10.816,88.224,10.816ZM111.6,25.648a.555.555,0,0,1,.492.288,1.489,1.489,0,0,1,.18.792,2.207,2.207,0,0,1-.456,1.488,8.768,8.768,0,0,1-2.508,1.992,6.957,6.957,0,0,1-3.468.912,5.344,5.344,0,0,1-3.912-1.368,5.01,5.01,0,0,1-1.392-3.744,6.945,6.945,0,0,1,.7-3.084,5.7,5.7,0,0,1,1.932-2.268,4.859,4.859,0,0,1,2.8-.84,3.041,3.041,0,0,1,2.232.828,3.008,3.008,0,0,1,.84,2.244,3.88,3.88,0,0,1-1.188,2.844,8.591,8.591,0,0,1-4.02,1.884,2.357,2.357,0,0,0,2.28,1.1,5.249,5.249,0,0,0,2.46-.756,8.124,8.124,0,0,0,2.388-1.98A.842.842,0,0,1,111.6,25.648Zm-6.048-3.48a1.759,1.759,0,0,0-1.5,1.032,4.81,4.81,0,0,0-.612,2.5v.048a5.454,5.454,0,0,0,2.232-1.008,1.981,1.981,0,0,0,.816-1.56,1.043,1.043,0,0,0-.252-.732A.88.88,0,0,0,105.552,22.168Zm6.48,8.952a1.311,1.311,0,0,1-1.284-.96,9.2,9.2,0,0,1-.372-3.072,19.545,19.545,0,0,1,.888-5.928,1.806,1.806,0,0,1,.708-1.02,2.5,2.5,0,0,1,1.38-.324,1.352,1.352,0,0,1,.672.12.5.5,0,0,1,.192.456,9.149,9.149,0,0,1-.36,1.728q-.24.96-.384,1.68a17.217,17.217,0,0,0-.24,1.776,13.646,13.646,0,0,1,1.776-3.36,6.964,6.964,0,0,1,1.932-1.848,3.513,3.513,0,0,1,1.74-.552,1.379,1.379,0,0,1,1.56,1.56,12.061,12.061,0,0,1-.216,1.512,8.843,8.843,0,0,0-.192,1.2q0,.84.6.84a2.884,2.884,0,0,0,1.728-1.056.918.918,0,0,1,.648-.312.559.559,0,0,1,.492.276,1.322,1.322,0,0,1,.18.732A1.936,1.936,0,0,1,123,25.96a6.5,6.5,0,0,1-1.572,1.188,3.919,3.919,0,0,1-1.908.492,2.648,2.648,0,0,1-1.932-.648,2.343,2.343,0,0,1-.66-1.752,3.663,3.663,0,0,1,.072-.72q.048-.48.048-.648,0-.384-.264-.384-.36,0-.948.8a11.282,11.282,0,0,0-1.164,2.124,17.239,17.239,0,0,0-.936,2.784,3.743,3.743,0,0,1-.612,1.524A1.381,1.381,0,0,1,112.032,31.12Zm22.848-5.472a.555.555,0,0,1,.492.288,1.489,1.489,0,0,1,.18.792,2.207,2.207,0,0,1-.456,1.488,11.586,11.586,0,0,1-2.16,2.052,3.964,3.964,0,0,1-2.328.852,3.033,3.033,0,0,1-2.784-2.136,6.9,6.9,0,0,1-1.764,1.7,3.494,3.494,0,0,1-1.764.432,3.053,3.053,0,0,1-2.412-1.092,4.183,4.183,0,0,1-.948-2.844,7.905,7.905,0,0,1,.816-3.564A7.282,7.282,0,0,1,124,20.932a6.523,6.523,0,0,1,3.2-1.236,30.175,30.175,0,0,1,1.74-7.956q1.284-3.3,3.372-3.3a2.054,2.054,0,0,1,1.716.936,4.8,4.8,0,0,1,.684,2.832,18.675,18.675,0,0,1-1.32,6.288,46.71,46.71,0,0,1-3.528,7.392,5.242,5.242,0,0,0,.42,1.992.95.95,0,0,0,.828.6,2.051,2.051,0,0,0,1.32-.576,17.513,17.513,0,0,0,1.8-1.92A.842.842,0,0,1,134.88,25.648Zm-2.832-14.856q-.456,0-.912,1.62a29.577,29.577,0,0,0-.78,4.236q-.324,2.616-.468,5.472,2.688-5.856,2.688-9.408a5.012,5.012,0,0,0-.156-1.416Q132.264,10.792,132.048,10.792Zm-6.912,17.9a1.445,1.445,0,0,0,.912-.372,7.034,7.034,0,0,0,1.152-1.38,16.02,16.02,0,0,1-.24-2.9q0-.576.048-1.872a4.02,4.02,0,0,0-2.2,1.764,5.434,5.434,0,0,0-.876,3.012Q123.936,28.7,125.136,28.7Zm20.712-5.064a.524.524,0,0,1,.48.312,1.66,1.66,0,0,1,.168.792q0,1.152-.7,1.368a10.927,10.927,0,0,1-3.168.576,5.99,5.99,0,0,1-1.8,3.228,4.428,4.428,0,0,1-3.048,1.212,4.259,4.259,0,0,1-2.46-.7,4.421,4.421,0,0,1-1.548-1.848,5.918,5.918,0,0,1-.528-2.5,7.329,7.329,0,0,1,.7-3.252,5.468,5.468,0,0,1,1.92-2.232,4.835,4.835,0,0,1,2.712-.8,3.738,3.738,0,0,1,2.94,1.26,5.4,5.4,0,0,1,1.308,3.108,14.546,14.546,0,0,0,2.688-.48A1.41,1.41,0,0,1,145.848,23.632Zm-7.872,4.944a1.741,1.741,0,0,0,1.332-.624,3.464,3.464,0,0,0,.756-1.8,3.313,3.313,0,0,1-1.14-1.32,3.908,3.908,0,0,1-.4-1.728,4.16,4.16,0,0,1,.072-.768h-.12a1.884,1.884,0,0,0-1.6.924,4.555,4.555,0,0,0-.636,2.6,3.348,3.348,0,0,0,.516,2.016A1.49,1.49,0,0,0,137.976,28.576Zm-1.344-10.32A.833.833,0,0,1,136.02,18a.862.862,0,0,1-.252-.636,1.233,1.233,0,0,1,.072-.384l1.536-5.016a1.363,1.363,0,0,1,.516-.768,1.4,1.4,0,0,1,.828-.264,1.627,1.627,0,0,1,1.1.42,1.383,1.383,0,0,1,.48,1.092,2.244,2.244,0,0,1-.36,1.152l-2.472,4.128a.991.991,0,0,1-.372.4A.923.923,0,0,1,136.632,18.256Zm4.344,0a.833.833,0,0,1-.612-.252.862.862,0,0,1-.252-.636,1.233,1.233,0,0,1,.072-.384l1.536-5.016a1.363,1.363,0,0,1,.516-.768,1.4,1.4,0,0,1,.828-.264,1.628,1.628,0,0,1,1.1.42,1.383,1.383,0,0,1,.48,1.092,2.244,2.244,0,0,1-.36,1.152l-2.472,4.128a.991.991,0,0,1-.372.4A.923.923,0,0,1,140.976,18.256ZM154.632,28.5a1.04,1.04,0,0,1,.984,1.08,1.387,1.387,0,0,1-.54,1.068,2.3,2.3,0,0,1-1.548.468,3.863,3.863,0,0,1-2.82-1.068,3.736,3.736,0,0,1-1.092-2.8,1.388,1.388,0,0,1,.96-1.344,4.283,4.283,0,0,0,1.512-.972,1.835,1.835,0,0,0,.456-1.26.994.994,0,0,0-.18-.648.556.556,0,0,0-.444-.216,2.078,2.078,0,0,0-1.428.936,10.673,10.673,0,0,0-1.452,2.412,17.28,17.28,0,0,0-1.056,3.036,3.743,3.743,0,0,1-.612,1.524,1.381,1.381,0,0,1-1.092.4,1.205,1.205,0,0,1-1.092-.54,3.931,3.931,0,0,1-.468-1.668q-.12-1.128-.12-3.312a41.568,41.568,0,0,1,.756-7.7,23.152,23.152,0,0,1,2.232-6.732q1.476-2.724,3.54-2.724a2.109,2.109,0,0,1,1.788.948,4.106,4.106,0,0,1,.684,2.46,10.517,10.517,0,0,1-1.416,5.028,32.512,32.512,0,0,1-4.608,6.084q-.072,1.248-.072,2.568a11.365,11.365,0,0,1,2.64-4.356,4.306,4.306,0,0,1,2.784-1.356,2.47,2.47,0,0,1,1.932.816,2.909,2.909,0,0,1,.732,2.016,4.574,4.574,0,0,1-.672,2.424,5.747,5.747,0,0,1-2.3,1.968,1.43,1.43,0,0,0,.588,1A4.466,4.466,0,0,0,154.632,28.5Zm-4.008-17.688q-.432,0-.96,1.236a20.944,20.944,0,0,0-1.02,3.336,44.547,44.547,0,0,0-.8,4.572,17.175,17.175,0,0,0,2.46-3.816,8.911,8.911,0,0,0,.972-3.744,3.213,3.213,0,0,0-.168-1.176Q150.936,10.816,150.624,10.816ZM3.912,73.12a2.7,2.7,0,0,1-2.22-1.08A4.44,4.44,0,0,1,.84,69.208a7.8,7.8,0,0,1,.888-3.636,7.58,7.58,0,0,1,2.364-2.76,5.331,5.331,0,0,1,3.132-1.044.934.934,0,0,1,.708.2,1.724,1.724,0,0,1,.3.732,4.9,4.9,0,0,1,1.008-.1,1.262,1.262,0,0,1,.888.288,1.055,1.055,0,0,1,.312.816,13.046,13.046,0,0,1-.24,1.92q-.264,1.464-.408,2.8a28.006,28.006,0,0,0-.144,2.988,1.879,1.879,0,0,1-.372,1.308,1.6,1.6,0,0,1-1.212.4,1.65,1.65,0,0,1-1.212-.4,1.763,1.763,0,0,1-.4-1.284l.024-.384A2.652,2.652,0,0,1,3.912,73.12ZM4.848,70.7q.672,0,1.224-.936a11.056,11.056,0,0,0,.984-3.336L7.512,64a2.834,2.834,0,0,0-1.824.756,5.159,5.159,0,0,0-1.344,1.932,6.5,6.5,0,0,0-.5,2.544,1.817,1.817,0,0,0,.276,1.092A.868.868,0,0,0,4.848,70.7ZM30.384,65.7a.842.842,0,0,1,.24-.024.666.666,0,0,1,.552.24,1.008,1.008,0,0,1,.192.648,2.036,2.036,0,0,1-.288,1.164,1.631,1.631,0,0,1-.864.612,7.541,7.541,0,0,1-2.352.36,6.738,6.738,0,0,1-1.992-.288q-.7,1.128-1.536,2.328a8.159,8.159,0,0,1-1.656,1.872,2.633,2.633,0,0,1-1.584.5,1.816,1.816,0,0,1-1.548-.768,4.871,4.871,0,0,1-.708-2.424q-.288-3.36-.288-5.88v-.84a1.366,1.366,0,0,1,.432-1.1,2,2,0,0,1,1.224-.312,1.329,1.329,0,0,1,.924.276,1.21,1.21,0,0,1,.3.924q0,2.76.336,7.176,1.44-2.136,2.16-3.408a3.562,3.562,0,0,1-.36-1.656,3.693,3.693,0,0,1,.36-1.584,3.322,3.322,0,0,1,.984-1.248,2.262,2.262,0,0,1,1.416-.48,1.43,1.43,0,0,1,1.128.492,2.1,2.1,0,0,1,.432,1.428,6.586,6.586,0,0,1-.576,2.472,17.09,17.09,0,0,0,2.424-.36Zm1.848,7.416a2.919,2.919,0,0,1-2.376-1.08,4.316,4.316,0,0,1-.888-2.832,7.8,7.8,0,0,1,.888-3.636,7.58,7.58,0,0,1,2.364-2.76,5.331,5.331,0,0,1,3.132-1.044.934.934,0,0,1,.708.2,1.724,1.724,0,0,1,.3.732,5.635,5.635,0,0,1,1.056-.1q1.176,0,1.176.84a18.007,18.007,0,0,1-.36,2.4,23.294,23.294,0,0,0-.552,3.84.871.871,0,0,0,.18.576.58.58,0,0,0,.468.216,1.824,1.824,0,0,0,1.1-.588,20.53,20.53,0,0,0,1.752-1.908.842.842,0,0,1,.648-.336.555.555,0,0,1,.492.288,1.489,1.489,0,0,1,.18.792,2.207,2.207,0,0,1-.456,1.488A12.09,12.09,0,0,1,39.96,72.28a3.56,3.56,0,0,1-2.136.84,2.241,2.241,0,0,1-1.452-.54,3.291,3.291,0,0,1-1-1.476A3.648,3.648,0,0,1,32.232,73.12ZM33.1,70.7a1.317,1.317,0,0,0,1.008-.624,4.046,4.046,0,0,0,.7-1.656L35.688,64a2.907,2.907,0,0,0-1.86.756,5.093,5.093,0,0,0-1.356,1.932,6.5,6.5,0,0,0-.5,2.544,1.7,1.7,0,0,0,.3,1.1A1.02,1.02,0,0,0,33.1,70.7Zm2.472-10.464a.806.806,0,0,1-.588-.252.833.833,0,0,1-.252-.612,1.28,1.28,0,0,1,.12-.456L37.08,53.92a1.6,1.6,0,0,1,.564-.708,1.392,1.392,0,0,1,.78-.228,1.531,1.531,0,0,1,1.068.432,1.409,1.409,0,0,1,.468,1.08,2.174,2.174,0,0,1-.528,1.344l-3.1,3.984A.936.936,0,0,1,35.568,60.232Zm6.7,12.888a1.311,1.311,0,0,1-1.284-.96,9.2,9.2,0,0,1-.372-3.072A19.545,19.545,0,0,1,41.5,63.16a1.805,1.805,0,0,1,.708-1.02,2.5,2.5,0,0,1,1.38-.324,1.352,1.352,0,0,1,.672.12.5.5,0,0,1,.192.456,9.149,9.149,0,0,1-.36,1.728q-.24.96-.384,1.68a17.216,17.216,0,0,0-.24,1.776,13.646,13.646,0,0,1,1.776-3.36,6.964,6.964,0,0,1,1.932-1.848,3.513,3.513,0,0,1,1.74-.552,1.379,1.379,0,0,1,1.56,1.56,12.06,12.06,0,0,1-.216,1.512,8.842,8.842,0,0,0-.192,1.2q0,.84.6.84a2.884,2.884,0,0,0,1.728-1.056.918.918,0,0,1,.648-.312.559.559,0,0,1,.492.276,1.322,1.322,0,0,1,.18.732,1.936,1.936,0,0,1-.48,1.392,6.5,6.5,0,0,1-1.572,1.188,3.919,3.919,0,0,1-1.908.492,2.648,2.648,0,0,1-1.932-.648,2.343,2.343,0,0,1-.66-1.752,3.663,3.663,0,0,1,.072-.72q.048-.48.048-.648,0-.384-.264-.384-.36,0-.948.8A11.283,11.283,0,0,0,44.9,68.416a17.239,17.239,0,0,0-.936,2.784,3.743,3.743,0,0,1-.612,1.524A1.381,1.381,0,0,1,42.264,73.12Zm13.272,0a4.055,4.055,0,0,1-2.412-.708,4.4,4.4,0,0,1-1.5-1.86,6.1,6.1,0,0,1-.5-2.472,7.438,7.438,0,0,1,.684-3.252,5.522,5.522,0,0,1,1.86-2.232,4.571,4.571,0,0,1,2.64-.8,4.109,4.109,0,0,1,2.424.708,4.364,4.364,0,0,1,1.512,1.86,6.1,6.1,0,0,1,.5,2.472,7.329,7.329,0,0,1-.7,3.252,5.573,5.573,0,0,1-1.884,2.232A4.587,4.587,0,0,1,55.536,73.12Zm.264-2.592a1.626,1.626,0,0,0,1.38-.888,4.87,4.87,0,0,0,.564-2.592,3.42,3.42,0,0,0-.48-1.992,1.393,1.393,0,0,0-1.152-.672,1.661,1.661,0,0,0-1.428.876,4.86,4.86,0,0,0-.564,2.6,3.4,3.4,0,0,0,.48,2.016A1.443,1.443,0,0,0,55.8,70.528Zm10.9,3.12a2.818,2.818,0,0,1-1.908-.576,1.7,1.7,0,0,1-.66-1.3,1.476,1.476,0,0,1,.456-1.08,1.822,1.822,0,0,1,1.344-.456,5.266,5.266,0,0,1,.732.06q.42.06.636.084a3.09,3.09,0,0,0-.276-1.176,5.875,5.875,0,0,0-.636-1.068q-.384-.516-.72-.9a15.681,15.681,0,0,1-1.476,2.352,17.579,17.579,0,0,1-1.6,1.776,1.285,1.285,0,0,1-.912.432.788.788,0,0,1-.624-.276,1,1,0,0,1-.24-.684,1.368,1.368,0,0,1,.336-.888l.312-.384a31.017,31.017,0,0,0,1.992-2.688q.408-.7.96-1.86t1.08-2.412a1.847,1.847,0,0,1,1.9-1.056,2.518,2.518,0,0,1,.936.12.4.4,0,0,1,.264.384,1.766,1.766,0,0,1-.1.456,3.469,3.469,0,0,1-.264.624A3.422,3.422,0,0,0,67.8,64.6a1.6,1.6,0,0,0,.252.792,8.989,8.989,0,0,0,.78,1.08A15.247,15.247,0,0,1,70,68.188a3.118,3.118,0,0,1,.4,1.548,6.5,6.5,0,0,1-.048.672,7.653,7.653,0,0,0,2.76-2.424.842.842,0,0,1,.648-.336.555.555,0,0,1,.492.288,1.489,1.489,0,0,1,.18.792,2.325,2.325,0,0,1-.456,1.488,7.319,7.319,0,0,1-2.292,2.028,6.506,6.506,0,0,1-2.7.588A3.407,3.407,0,0,1,66.7,73.648Zm18.552-8.016a.524.524,0,0,1,.48.312,1.66,1.66,0,0,1,.168.792,2.048,2.048,0,0,1-.168.924.886.886,0,0,1-.528.444,10.926,10.926,0,0,1-3.168.576A6.22,6.22,0,0,1,80.22,71.9a4.253,4.253,0,0,1-2.94,1.224,3.8,3.8,0,0,1-3.528-1.848,10.556,10.556,0,0,1-1.1-5.352,32.725,32.725,0,0,1,.768-6.732A21.041,21.041,0,0,1,75.66,53q1.476-2.556,3.516-2.556a2.079,2.079,0,0,1,1.776.948,4.16,4.16,0,0,1,.672,2.46,10.871,10.871,0,0,1-.744,3.912,15.35,15.35,0,0,1-2.472,4.08,3.615,3.615,0,0,1,2.616,1.332,5.474,5.474,0,0,1,1.2,2.988,14.546,14.546,0,0,0,2.688-.48A1.064,1.064,0,0,1,85.248,65.632ZM78.624,52.816q-.48,0-1.044,1.428a22.969,22.969,0,0,0-1.044,3.876,48.785,48.785,0,0,0-.72,5.352q1.584-2.9,2.532-5.124A10.241,10.241,0,0,0,79.3,54.4a3.017,3.017,0,0,0-.18-1.176Q78.936,52.816,78.624,52.816Zm-1.248,17.76a1.753,1.753,0,0,0,1.32-.624,3.405,3.405,0,0,0,.768-1.8,3.313,3.313,0,0,1-1.14-1.32,3.908,3.908,0,0,1-.4-1.728,5.876,5.876,0,0,1,.1-.912h-.072a1.941,1.941,0,0,0-1.644.972,4.566,4.566,0,0,0-.66,2.6,3.559,3.559,0,0,0,.516,2.088A1.48,1.48,0,0,0,77.376,70.576Zm9.408,2.544a2.919,2.919,0,0,1-2.376-1.08,4.316,4.316,0,0,1-.888-2.832,7.8,7.8,0,0,1,.888-3.636,7.58,7.58,0,0,1,2.364-2.76A5.331,5.331,0,0,1,89.9,61.768a.935.935,0,0,1,.708.2,1.724,1.724,0,0,1,.3.732,5.635,5.635,0,0,1,1.056-.1q1.176,0,1.176.84a18.007,18.007,0,0,1-.36,2.4,23.293,23.293,0,0,0-.552,3.84.871.871,0,0,0,.18.576.58.58,0,0,0,.468.216,1.824,1.824,0,0,0,1.1-.588,20.53,20.53,0,0,0,1.752-1.908.842.842,0,0,1,.648-.336.555.555,0,0,1,.492.288,1.489,1.489,0,0,1,.18.792,2.207,2.207,0,0,1-.456,1.488,12.09,12.09,0,0,1-2.088,2.064,3.56,3.56,0,0,1-2.136.84,2.241,2.241,0,0,1-1.452-.54,3.291,3.291,0,0,1-1-1.476A3.648,3.648,0,0,1,86.784,73.12Zm.864-2.424a1.317,1.317,0,0,0,1.008-.624,4.046,4.046,0,0,0,.7-1.656L90.24,64a2.907,2.907,0,0,0-1.86.756,5.093,5.093,0,0,0-1.356,1.932,6.5,6.5,0,0,0-.5,2.544,1.7,1.7,0,0,0,.3,1.1A1.02,1.02,0,0,0,87.648,70.7Zm9.168,2.424a1.311,1.311,0,0,1-1.284-.96,9.2,9.2,0,0,1-.372-3.072,19.545,19.545,0,0,1,.888-5.928,1.805,1.805,0,0,1,.708-1.02,2.5,2.5,0,0,1,1.38-.324,1.352,1.352,0,0,1,.672.12.5.5,0,0,1,.192.456,9.149,9.149,0,0,1-.36,1.728q-.24.96-.384,1.68a17.218,17.218,0,0,0-.24,1.776,13.646,13.646,0,0,1,1.776-3.36,6.964,6.964,0,0,1,1.932-1.848,3.513,3.513,0,0,1,1.74-.552,1.392,1.392,0,0,1,1.56,1.56,19,19,0,0,1-.264,2.352q-.24,1.464-.384,2.772a26.821,26.821,0,0,0-.144,2.916,1.879,1.879,0,0,1-.372,1.308,1.6,1.6,0,0,1-1.212.4,1.462,1.462,0,0,1-1.152-.408,1.8,1.8,0,0,1-.36-1.224,24.081,24.081,0,0,1,.336-3.168,22.607,22.607,0,0,0,.288-2.448q0-.384-.264-.384-.312,0-.876.8a12.888,12.888,0,0,0-1.152,2.124A16.521,16.521,0,0,0,98.52,71.2a3.743,3.743,0,0,1-.612,1.524A1.381,1.381,0,0,1,96.816,73.12Z" transform="translate(28 101)" fill="#454347"/><path d="M994.7,205.732h154.743c17.48,0,31.782-15.542,31.782-34.539V130.139c0-19-14.3-34.538-31.782-34.538H976.85c-17.479,0-31.781,15.542-31.781,34.538v41.055c0,13.414,7.134,25.1,17.479,30.809l-11.57,39.964Z" transform="translate(-720.769 31.399)" fill="#fff" stroke="#454347" stroke-linecap="round" stroke-linejoin="round" stroke-width="8"/><path d="M11.856,10.792a1.806,1.806,0,0,1,1.056.3.875.875,0,0,1,.432.732,1.648,1.648,0,0,1-.48,1.236,1.879,1.879,0,0,1-1.368.468q-1.392,0-2.112.024l-.432,2.592q-.432,2.568-.528,3.144l-.5,3.144q-.528,3.528-.84,5.9.5-.024,1.368-.024a3.117,3.117,0,0,1,1.728.336,1.171,1.171,0,0,1,.456,1.008,1.353,1.353,0,0,1-.492,1.056,2.023,2.023,0,0,1-1.38.432q-.6,0-1.9-.048-1.2-.048-1.584-.048a22.952,22.952,0,0,0-3.312.264,8.678,8.678,0,0,1-1.128.12,1.376,1.376,0,0,1-.888-.288,1.012,1.012,0,0,1-.36-.84A1.5,1.5,0,0,1,.36,28.96a4.22,4.22,0,0,1,2.16-.5l1.128-.024L3.72,27.9q.576-3.84.84-5.424l.528-3.144q.48-2.784.864-5.736l-2.016.024a1.886,1.886,0,0,1-1.188-.276.969.969,0,0,1-.324-.78q0-1.632,2.352-1.752,1.1-.048,2.688-.048ZM8.3,9.112a.9.9,0,0,1-.648-.252.814.814,0,0,1-.264-.612,1.117,1.117,0,0,1,.456-.864l4.128-3.528a1.594,1.594,0,0,1,1.056-.408,1.5,1.5,0,0,1,1.08.444,1.437,1.437,0,0,1,.456,1.068,1.966,1.966,0,0,1-1.272,1.7L8.808,8.992A1.021,1.021,0,0,1,8.3,9.112ZM14.736,31.12a1.311,1.311,0,0,1-1.284-.96,9.2,9.2,0,0,1-.372-3.072,19.545,19.545,0,0,1,.888-5.928,1.805,1.805,0,0,1,.708-1.02,2.5,2.5,0,0,1,1.38-.324,1.352,1.352,0,0,1,.672.12.5.5,0,0,1,.192.456,9.149,9.149,0,0,1-.36,1.728q-.24.96-.384,1.68a17.217,17.217,0,0,0-.24,1.776,13.646,13.646,0,0,1,1.776-3.36,6.964,6.964,0,0,1,1.932-1.848,3.513,3.513,0,0,1,1.74-.552,1.379,1.379,0,0,1,1.56,1.56,12.059,12.059,0,0,1-.216,1.512,8.843,8.843,0,0,0-.192,1.2q0,.84.6.84a2.884,2.884,0,0,0,1.728-1.056.918.918,0,0,1,.648-.312.559.559,0,0,1,.492.276,1.322,1.322,0,0,1,.18.732,1.936,1.936,0,0,1-.48,1.392,6.5,6.5,0,0,1-1.572,1.188,3.919,3.919,0,0,1-1.908.492,2.648,2.648,0,0,1-1.932-.648,2.343,2.343,0,0,1-.66-1.752,3.663,3.663,0,0,1,.072-.72q.048-.48.048-.648,0-.384-.264-.384-.36,0-.948.8a11.283,11.283,0,0,0-1.164,2.124A17.239,17.239,0,0,0,16.44,29.2a3.743,3.743,0,0,1-.612,1.524A1.381,1.381,0,0,1,14.736,31.12ZM26.52,18.232a2.153,2.153,0,0,1-1.512-.468,1.7,1.7,0,0,1-.5-1.308,1.773,1.773,0,0,1,.66-1.4,2.442,2.442,0,0,1,1.644-.564,2.269,2.269,0,0,1,1.44.432,1.464,1.464,0,0,1,.552,1.224,1.952,1.952,0,0,1-.624,1.524A2.375,2.375,0,0,1,26.52,18.232ZM30.84,25.7a.551.551,0,0,1,.492.3,1.449,1.449,0,0,1,.18.756,1.841,1.841,0,0,1-.168.864,1.567,1.567,0,0,1-.528.552q-1.68,1.1-4.488,3.048A28.9,28.9,0,0,1,23.9,39.064q-1.488,2.856-3.792,2.856a2.709,2.709,0,0,1-2-.756,2.678,2.678,0,0,1-.756-1.98,6.533,6.533,0,0,1,1.32-3.636,24.07,24.07,0,0,1,4.968-4.764l.168-1.224q.336-2.3.528-4.536.144-1.3.456-3.864a1.456,1.456,0,0,1,.528-1.02,2.2,2.2,0,0,1,1.32-.324,1.449,1.449,0,0,1,.948.216.787.787,0,0,1,.228.6,59.581,59.581,0,0,1-.792,6.1l-.24,1.656q1.92-1.44,3.5-2.5A1.09,1.09,0,0,1,30.84,25.7Zm-10.464,13.9q.624,0,1.368-1.416a18.585,18.585,0,0,0,1.392-4.56,13.592,13.592,0,0,0-2.628,2.82,4.288,4.288,0,0,0-.8,2.22Q19.7,39.592,20.376,39.592Zm21.912-15.96a.524.524,0,0,1,.48.312,1.66,1.66,0,0,1,.168.792q0,1.152-.7,1.368a10.927,10.927,0,0,1-3.168.576,5.99,5.99,0,0,1-1.8,3.228,4.428,4.428,0,0,1-3.048,1.212,4.259,4.259,0,0,1-2.46-.7,4.421,4.421,0,0,1-1.548-1.848,5.918,5.918,0,0,1-.528-2.5,7.329,7.329,0,0,1,.7-3.252A5.468,5.468,0,0,1,32.3,20.6a4.835,4.835,0,0,1,2.712-.8,3.738,3.738,0,0,1,2.94,1.26,5.4,5.4,0,0,1,1.308,3.108,14.546,14.546,0,0,0,2.688-.48A1.41,1.41,0,0,1,42.288,23.632Zm-7.872,4.944a1.741,1.741,0,0,0,1.332-.624,3.464,3.464,0,0,0,.756-1.8,3.313,3.313,0,0,1-1.14-1.32,3.908,3.908,0,0,1-.4-1.728,4.159,4.159,0,0,1,.072-.768h-.12a1.884,1.884,0,0,0-1.6.924,4.555,4.555,0,0,0-.636,2.6A3.348,3.348,0,0,0,33.2,27.88,1.49,1.49,0,0,0,34.416,28.576Zm8.16,2.544a1.311,1.311,0,0,1-1.284-.96,9.2,9.2,0,0,1-.372-3.072,19.545,19.545,0,0,1,.888-5.928,1.805,1.805,0,0,1,.708-1.02,2.5,2.5,0,0,1,1.38-.324,1.352,1.352,0,0,1,.672.12.5.5,0,0,1,.192.456,9.149,9.149,0,0,1-.36,1.728q-.24.96-.384,1.68a17.216,17.216,0,0,0-.24,1.776,13.646,13.646,0,0,1,1.776-3.36,6.964,6.964,0,0,1,1.932-1.848,3.513,3.513,0,0,1,1.74-.552,1.392,1.392,0,0,1,1.56,1.56,19,19,0,0,1-.264,2.352q-.24,1.464-.384,2.772a26.82,26.82,0,0,0-.144,2.916,1.879,1.879,0,0,1-.372,1.308,1.6,1.6,0,0,1-1.212.4,1.462,1.462,0,0,1-1.152-.408,1.8,1.8,0,0,1-.36-1.224,24.081,24.081,0,0,1,.336-3.168,22.608,22.608,0,0,0,.288-2.448q0-.384-.264-.384-.312,0-.876.8a12.888,12.888,0,0,0-1.152,2.124A16.521,16.521,0,0,0,44.28,29.2a3.743,3.743,0,0,1-.612,1.524A1.381,1.381,0,0,1,42.576,31.12Zm26.976-5.472a.555.555,0,0,1,.492.288,1.489,1.489,0,0,1,.18.792,2.207,2.207,0,0,1-.456,1.488,8.768,8.768,0,0,1-2.508,1.992,6.957,6.957,0,0,1-3.468.912,5.344,5.344,0,0,1-3.912-1.368,5.01,5.01,0,0,1-1.392-3.744,6.945,6.945,0,0,1,.7-3.084,5.7,5.7,0,0,1,1.932-2.268,4.859,4.859,0,0,1,2.8-.84,3.041,3.041,0,0,1,2.232.828,3.008,3.008,0,0,1,.84,2.244A3.88,3.88,0,0,1,65.8,25.732a8.591,8.591,0,0,1-4.02,1.884,2.357,2.357,0,0,0,2.28,1.1,5.249,5.249,0,0,0,2.46-.756,8.125,8.125,0,0,0,2.388-1.98A.842.842,0,0,1,69.552,25.648ZM63.5,22.168A1.759,1.759,0,0,0,62,23.2a4.81,4.81,0,0,0-.612,2.5v.048a5.454,5.454,0,0,0,2.232-1.008,1.981,1.981,0,0,0,.816-1.56,1.043,1.043,0,0,0-.252-.732A.88.88,0,0,0,63.5,22.168Zm.624-3.936a.806.806,0,0,1-.588-.252.833.833,0,0,1-.252-.612,1.28,1.28,0,0,1,.12-.456L65.64,11.92a1.6,1.6,0,0,1,.564-.708,1.392,1.392,0,0,1,.78-.228,1.531,1.531,0,0,1,1.068.432,1.409,1.409,0,0,1,.468,1.08,2.174,2.174,0,0,1-.528,1.344l-3.1,3.984A.936.936,0,0,1,64.128,18.232ZM77.976,23.1a1.226,1.226,0,0,1,.9.372,1.254,1.254,0,0,1,.372.924,1.817,1.817,0,0,1-.144.672,4.06,4.06,0,0,1-1.08,1.488,2.3,2.3,0,0,1-1.536.6,1.532,1.532,0,0,1-1.14-.48,1.777,1.777,0,0,1-.468-1.3q0-.456.048-.984a5.11,5.11,0,0,0,.048-.528.427.427,0,0,0-.084-.288.261.261,0,0,0-.2-.1q-.336,0-.912.8a11.793,11.793,0,0,0-1.152,2.124,17.239,17.239,0,0,0-.936,2.784,3.8,3.8,0,0,1-.6,1.536,1.4,1.4,0,0,1-1.1.384,1.311,1.311,0,0,1-1.284-.96,9.2,9.2,0,0,1-.372-3.072,19.545,19.545,0,0,1,.888-5.928,1.806,1.806,0,0,1,.708-1.02,2.5,2.5,0,0,1,1.38-.324,1.352,1.352,0,0,1,.672.12.5.5,0,0,1,.192.456,9.149,9.149,0,0,1-.36,1.728q-.24.96-.384,1.68a17.217,17.217,0,0,0-.24,1.776,13.646,13.646,0,0,1,1.776-3.36,7.051,7.051,0,0,1,1.92-1.848,3.42,3.42,0,0,1,1.7-.552,1.4,1.4,0,0,1,1.068.4,1.641,1.641,0,0,1,.372,1.164A10.463,10.463,0,0,1,77.76,23.1Zm12.888,2.544a.555.555,0,0,1,.492.288,1.489,1.489,0,0,1,.18.792,2.207,2.207,0,0,1-.456,1.488A10.209,10.209,0,0,1,88.824,30.3a4.945,4.945,0,0,1-2.808.816q-4.9,0-4.9-6.888,0-1.056.072-2.136h-.936a1.346,1.346,0,0,1-.972-.264,1.185,1.185,0,0,1-.252-.84q0-1.344,1.08-1.344H81.48a23.356,23.356,0,0,1,1.248-4.824,10.883,10.883,0,0,1,2.028-3.48,3.457,3.457,0,0,1,2.556-1.3,1.8,1.8,0,0,1,1.584.888,4.024,4.024,0,0,1,.576,2.232,8.408,8.408,0,0,1-3.12,6.48H89.04a.759.759,0,0,1,.552.168.883.883,0,0,1,.168.624q0,1.656-2.712,1.656H84.12q-.048,1.2-.048,1.872a7.467,7.467,0,0,0,.588,3.5,2,2,0,0,0,1.86,1.008,2.865,2.865,0,0,0,1.824-.624,14.562,14.562,0,0,0,1.872-1.872A.842.842,0,0,1,90.864,25.648Zm-4.2-13.3q-.36,0-.8.9a12.8,12.8,0,0,0-.84,2.5,33.459,33.459,0,0,0-.66,3.54,8.2,8.2,0,0,0,2.124-2.748,6.664,6.664,0,0,0,.708-2.772Q87.192,12.352,86.664,12.352Zm16.248,13.3a.555.555,0,0,1,.492.288,1.489,1.489,0,0,1,.18.792,2.207,2.207,0,0,1-.456,1.488A12.658,12.658,0,0,1,100.86,30.3a4.507,4.507,0,0,1-2.652.816,2.333,2.333,0,0,1-1.848-.708,3.012,3.012,0,0,1-.624-2.052,14.983,14.983,0,0,1,.336-2.4,12.42,12.42,0,0,0,.312-2.088q0-.384-.264-.384-.312,0-.888.8a11.794,11.794,0,0,0-1.152,2.124,17.24,17.24,0,0,0-.936,2.784,2.17,2.17,0,0,1-2.256,1.92.927.927,0,0,1-.948-.516,5.172,5.172,0,0,1-.228-1.86q0-.768.024-1.224l.024-1.92a41.567,41.567,0,0,1,.756-7.7,23.151,23.151,0,0,1,2.232-6.732q1.476-2.724,3.54-2.724a2.109,2.109,0,0,1,1.788.948,4.106,4.106,0,0,1,.684,2.46,10.517,10.517,0,0,1-1.416,5.028,32.512,32.512,0,0,1-4.608,6.084q-.072,1.248-.072,2.568A13.773,13.773,0,0,1,94.428,22.2a6.884,6.884,0,0,1,1.92-1.836,3.513,3.513,0,0,1,1.74-.552,1.379,1.379,0,0,1,1.56,1.56,19.289,19.289,0,0,1-.528,3.384,16.656,16.656,0,0,0-.456,2.76q0,.96.7.96a1.875,1.875,0,0,0,1.14-.588,19.262,19.262,0,0,0,1.764-1.908A.842.842,0,0,1,102.912,25.648ZM95.784,10.816q-.432,0-.96,1.236a20.945,20.945,0,0,0-1.02,3.336A44.551,44.551,0,0,0,93,19.96a17.175,17.175,0,0,0,2.46-3.816,8.911,8.911,0,0,0,.972-3.744,3.213,3.213,0,0,0-.168-1.176Q96.1,10.816,95.784,10.816Zm16.56,14.832a.555.555,0,0,1,.492.288,1.489,1.489,0,0,1,.18.792,2.207,2.207,0,0,1-.456,1.488,8.768,8.768,0,0,1-2.508,1.992,6.957,6.957,0,0,1-3.468.912,5.344,5.344,0,0,1-3.912-1.368,5.01,5.01,0,0,1-1.392-3.744,6.945,6.945,0,0,1,.7-3.084,5.7,5.7,0,0,1,1.932-2.268,4.859,4.859,0,0,1,2.8-.84,3.041,3.041,0,0,1,2.232.828,3.008,3.008,0,0,1,.84,2.244,3.88,3.88,0,0,1-1.188,2.844,8.591,8.591,0,0,1-4.02,1.884,2.357,2.357,0,0,0,2.28,1.1,5.249,5.249,0,0,0,2.46-.756,8.125,8.125,0,0,0,2.388-1.98A.842.842,0,0,1,112.344,25.648Zm-6.048-3.48a1.759,1.759,0,0,0-1.5,1.032,4.81,4.81,0,0,0-.612,2.5v.048a5.454,5.454,0,0,0,2.232-1.008,1.981,1.981,0,0,0,.816-1.56,1.043,1.043,0,0,0-.252-.732A.88.88,0,0,0,106.3,22.168Zm15.48,3.48a.555.555,0,0,1,.492.288,1.489,1.489,0,0,1,.18.792,2.207,2.207,0,0,1-.456,1.488,10.209,10.209,0,0,1-2.256,2.088,4.945,4.945,0,0,1-2.808.816q-4.9,0-4.9-6.888,0-1.056.072-2.136h-.936a1.346,1.346,0,0,1-.972-.264,1.185,1.185,0,0,1-.252-.84q0-1.344,1.08-1.344h1.368a23.356,23.356,0,0,1,1.248-4.824,10.883,10.883,0,0,1,2.028-3.48,3.457,3.457,0,0,1,2.556-1.3,1.8,1.8,0,0,1,1.584.888,4.024,4.024,0,0,1,.576,2.232,8.408,8.408,0,0,1-3.12,6.48h2.688a.759.759,0,0,1,.552.168.883.883,0,0,1,.168.624q0,1.656-2.712,1.656h-2.928q-.048,1.2-.048,1.872a7.467,7.467,0,0,0,.588,3.5,2,2,0,0,0,1.86,1.008,2.865,2.865,0,0,0,1.824-.624,14.562,14.562,0,0,0,1.872-1.872A.842.842,0,0,1,121.776,25.648Zm-4.2-13.3q-.36,0-.8.9a12.8,12.8,0,0,0-.84,2.5,33.459,33.459,0,0,0-.66,3.54A8.2,8.2,0,0,0,117.4,16.54a6.664,6.664,0,0,0,.708-2.772Q118.1,12.352,117.576,12.352Zm15.168,11.28a.524.524,0,0,1,.48.312,1.66,1.66,0,0,1,.168.792q0,1.152-.7,1.368a10.927,10.927,0,0,1-3.168.576,5.99,5.99,0,0,1-1.8,3.228,4.428,4.428,0,0,1-3.048,1.212,4.259,4.259,0,0,1-2.46-.7,4.421,4.421,0,0,1-1.548-1.848,5.918,5.918,0,0,1-.528-2.5,7.329,7.329,0,0,1,.7-3.252,5.468,5.468,0,0,1,1.92-2.232,4.835,4.835,0,0,1,2.712-.8,3.738,3.738,0,0,1,2.94,1.26,5.4,5.4,0,0,1,1.308,3.108,14.546,14.546,0,0,0,2.688-.48A1.41,1.41,0,0,1,132.744,23.632Zm-7.872,4.944a1.741,1.741,0,0,0,1.332-.624,3.464,3.464,0,0,0,.756-1.8,3.313,3.313,0,0,1-1.14-1.32,3.908,3.908,0,0,1-.4-1.728,4.159,4.159,0,0,1,.072-.768h-.12a1.884,1.884,0,0,0-1.6.924,4.555,4.555,0,0,0-.636,2.6,3.348,3.348,0,0,0,.516,2.016A1.49,1.49,0,0,0,124.872,28.576Zm-1.344-10.32a.833.833,0,0,1-.612-.252.862.862,0,0,1-.252-.636,1.233,1.233,0,0,1,.072-.384l1.536-5.016a1.363,1.363,0,0,1,.516-.768,1.4,1.4,0,0,1,.828-.264,1.627,1.627,0,0,1,1.1.42,1.383,1.383,0,0,1,.48,1.092,2.244,2.244,0,0,1-.36,1.152l-2.472,4.128a.991.991,0,0,1-.372.4A.923.923,0,0,1,123.528,18.256Zm4.344,0A.833.833,0,0,1,127.26,18a.862.862,0,0,1-.252-.636,1.233,1.233,0,0,1,.072-.384l1.536-5.016a1.363,1.363,0,0,1,.516-.768,1.4,1.4,0,0,1,.828-.264,1.628,1.628,0,0,1,1.1.42,1.383,1.383,0,0,1,.48,1.092,2.244,2.244,0,0,1-.36,1.152l-2.472,4.128a.991.991,0,0,1-.372.4A.923.923,0,0,1,127.872,18.256ZM144.1,23.632a.524.524,0,0,1,.48.312,1.66,1.66,0,0,1,.168.792,2.048,2.048,0,0,1-.168.924.886.886,0,0,1-.528.444,10.927,10.927,0,0,1-3.168.576,6.22,6.22,0,0,1-1.812,3.216,4.253,4.253,0,0,1-2.94,1.224,3.8,3.8,0,0,1-3.528-1.848,10.556,10.556,0,0,1-1.1-5.352,32.726,32.726,0,0,1,.768-6.732A21.041,21.041,0,0,1,134.508,11q1.476-2.556,3.516-2.556a2.079,2.079,0,0,1,1.776.948,4.16,4.16,0,0,1,.672,2.46,10.871,10.871,0,0,1-.744,3.912,15.351,15.351,0,0,1-2.472,4.08,3.615,3.615,0,0,1,2.616,1.332,5.474,5.474,0,0,1,1.2,2.988,14.546,14.546,0,0,0,2.688-.48A1.064,1.064,0,0,1,144.1,23.632Zm-6.624-12.816q-.48,0-1.044,1.428a22.97,22.97,0,0,0-1.044,3.876,48.786,48.786,0,0,0-.72,5.352q1.584-2.9,2.532-5.124a10.241,10.241,0,0,0,.948-3.948,3.017,3.017,0,0,0-.18-1.176Q137.784,10.816,137.472,10.816Zm-1.248,17.76a1.753,1.753,0,0,0,1.32-.624,3.405,3.405,0,0,0,.768-1.8,3.313,3.313,0,0,1-1.14-1.32,3.908,3.908,0,0,1-.4-1.728,5.877,5.877,0,0,1,.1-.912H136.8a1.941,1.941,0,0,0-1.644.972,4.566,4.566,0,0,0-.66,2.6,3.56,3.56,0,0,0,.516,2.088A1.48,1.48,0,0,0,136.224,28.576Zm11.208,2.544a3.753,3.753,0,0,1-3.492-1.848,10.653,10.653,0,0,1-1.092-5.352,32.726,32.726,0,0,1,.768-6.732A21.041,21.041,0,0,1,145.86,11q1.476-2.556,3.516-2.556a2.078,2.078,0,0,1,1.776.948,4.16,4.16,0,0,1,.672,2.46,10.871,10.871,0,0,1-.744,3.912,15.351,15.351,0,0,1-2.472,4.08,3.705,3.705,0,0,1,2.052.792,4.489,4.489,0,0,1,1.344,1.8,6.086,6.086,0,0,1,.468,2.4,7.245,7.245,0,0,1-.708,3.24,5.767,5.767,0,0,1-1.86,2.244A4.239,4.239,0,0,1,147.432,31.12Zm-1.416-9.648q1.584-2.9,2.532-5.124A10.241,10.241,0,0,0,149.5,12.4a3.017,3.017,0,0,0-.18-1.176q-.18-.408-.492-.408-.48,0-1.044,1.428a22.969,22.969,0,0,0-1.044,3.876A48.782,48.782,0,0,0,146.016,21.472Zm1.512,7.056a1.626,1.626,0,0,0,1.38-.888,4.87,4.87,0,0,0,.564-2.592,3.42,3.42,0,0,0-.48-1.992,1.393,1.393,0,0,0-1.152-.672,1.675,1.675,0,0,0-1.416.864,4.552,4.552,0,0,0-.576,2.52,3.616,3.616,0,0,0,.48,2.1A1.436,1.436,0,0,0,147.528,28.528ZM10.248,67.648a.555.555,0,0,1,.492.288,1.489,1.489,0,0,1,.18.792,2.207,2.207,0,0,1-.456,1.488A10.34,10.34,0,0,1,8.22,72.3a4.807,4.807,0,0,1-2.748.816A3.332,3.332,0,0,1,2.34,71.2a10.563,10.563,0,0,1-1.02-4.968,34.123,34.123,0,0,1,.756-6.672,22.639,22.639,0,0,1,2.232-6.432Q5.784,50.44,7.824,50.44a2.036,2.036,0,0,1,1.812,1.068,5.854,5.854,0,0,1,.66,3.06,17.479,17.479,0,0,1-1.584,6.624,36.684,36.684,0,0,1-4.3,7.464,2.785,2.785,0,0,0,.552,1.4,1.3,1.3,0,0,0,1.008.42A2.781,2.781,0,0,0,7.7,69.916a13.169,13.169,0,0,0,1.9-1.932A.842.842,0,0,1,10.248,67.648ZM7.3,52.816q-.552,0-1.248,1.992a32.736,32.736,0,0,0-1.224,4.944,35.789,35.789,0,0,0-.576,5.664A30.93,30.93,0,0,0,6.96,59.788,15.428,15.428,0,0,0,7.968,54.64Q7.968,52.816,7.3,52.816ZM19.68,67.648a.555.555,0,0,1,.492.288,1.489,1.489,0,0,1,.18.792,2.207,2.207,0,0,1-.456,1.488,8.768,8.768,0,0,1-2.508,1.992,6.957,6.957,0,0,1-3.468.912,5.344,5.344,0,0,1-3.912-1.368,5.01,5.01,0,0,1-1.392-3.744,6.945,6.945,0,0,1,.7-3.084,5.7,5.7,0,0,1,1.932-2.268,4.859,4.859,0,0,1,2.8-.84,3.041,3.041,0,0,1,2.232.828,3.008,3.008,0,0,1,.84,2.244,3.88,3.88,0,0,1-1.188,2.844,8.591,8.591,0,0,1-4.02,1.884,2.357,2.357,0,0,0,2.28,1.1,5.249,5.249,0,0,0,2.46-.756,8.124,8.124,0,0,0,2.388-1.98A.842.842,0,0,1,19.68,67.648Zm-6.048-3.48a1.759,1.759,0,0,0-1.5,1.032,4.81,4.81,0,0,0-.612,2.5v.048a5.454,5.454,0,0,0,2.232-1.008,1.981,1.981,0,0,0,.816-1.56,1.043,1.043,0,0,0-.252-.732A.88.88,0,0,0,13.632,64.168ZM30.408,65.7a.842.842,0,0,1,.24-.024.666.666,0,0,1,.552.24,1.008,1.008,0,0,1,.192.648,2.036,2.036,0,0,1-.288,1.164,1.631,1.631,0,0,1-.864.612,7.541,7.541,0,0,1-2.352.36,6.738,6.738,0,0,1-1.992-.288q-.7,1.128-1.536,2.328A8.159,8.159,0,0,1,22.7,72.616a2.633,2.633,0,0,1-1.584.5,1.816,1.816,0,0,1-1.548-.768,4.871,4.871,0,0,1-.708-2.424q-.288-3.36-.288-5.88v-.84a1.366,1.366,0,0,1,.432-1.1,2,2,0,0,1,1.224-.312,1.329,1.329,0,0,1,.924.276,1.21,1.21,0,0,1,.3.924q0,2.76.336,7.176,1.44-2.136,2.16-3.408a3.562,3.562,0,0,1-.36-1.656,3.693,3.693,0,0,1,.36-1.584,3.322,3.322,0,0,1,.984-1.248,2.262,2.262,0,0,1,1.416-.48,1.43,1.43,0,0,1,1.128.492,2.1,2.1,0,0,1,.432,1.428,6.586,6.586,0,0,1-.576,2.472,17.09,17.09,0,0,0,2.424-.36Zm9.6,1.944a.555.555,0,0,1,.492.288,1.489,1.489,0,0,1,.18.792,2.207,2.207,0,0,1-.456,1.488,8.768,8.768,0,0,1-2.508,1.992,6.957,6.957,0,0,1-3.468.912,5.344,5.344,0,0,1-3.912-1.368,5.01,5.01,0,0,1-1.392-3.744,6.945,6.945,0,0,1,.7-3.084,5.7,5.7,0,0,1,1.932-2.268,4.859,4.859,0,0,1,2.8-.84,3.041,3.041,0,0,1,2.232.828,3.008,3.008,0,0,1,.84,2.244,3.88,3.88,0,0,1-1.188,2.844,8.59,8.59,0,0,1-4.02,1.884,2.357,2.357,0,0,0,2.28,1.1,5.249,5.249,0,0,0,2.46-.756,8.124,8.124,0,0,0,2.388-1.98A.842.842,0,0,1,40.008,67.648Zm-6.048-3.48a1.759,1.759,0,0,0-1.5,1.032,4.81,4.81,0,0,0-.612,2.5v.048a5.454,5.454,0,0,0,2.232-1.008,1.981,1.981,0,0,0,.816-1.56,1.043,1.043,0,0,0-.252-.732A.88.88,0,0,0,33.96,64.168Zm13.872,3.48a.555.555,0,0,1,.492.288,1.489,1.489,0,0,1,.18.792,2.207,2.207,0,0,1-.456,1.488A10.34,10.34,0,0,1,45.8,72.3a4.807,4.807,0,0,1-2.748.816,3.332,3.332,0,0,1-3.132-1.92,10.563,10.563,0,0,1-1.02-4.968,34.123,34.123,0,0,1,.756-6.672,22.639,22.639,0,0,1,2.232-6.432q1.476-2.688,3.516-2.688a2.036,2.036,0,0,1,1.812,1.068,5.854,5.854,0,0,1,.66,3.06A17.479,17.479,0,0,1,46.3,61.192,36.684,36.684,0,0,1,42,68.656a2.785,2.785,0,0,0,.552,1.4,1.3,1.3,0,0,0,1.008.42,2.781,2.781,0,0,0,1.728-.564,13.169,13.169,0,0,0,1.9-1.932A.842.842,0,0,1,47.832,67.648ZM44.88,52.816q-.552,0-1.248,1.992a32.737,32.737,0,0,0-1.224,4.944,35.789,35.789,0,0,0-.576,5.664,30.93,30.93,0,0,0,2.712-5.628,15.428,15.428,0,0,0,1.008-5.148Q45.552,52.816,44.88,52.816ZM57.264,67.648a.555.555,0,0,1,.492.288,1.489,1.489,0,0,1,.18.792,2.207,2.207,0,0,1-.456,1.488,8.768,8.768,0,0,1-2.508,1.992,6.957,6.957,0,0,1-3.468.912,5.344,5.344,0,0,1-3.912-1.368A5.01,5.01,0,0,1,46.2,68.008a6.945,6.945,0,0,1,.7-3.084,5.7,5.7,0,0,1,1.932-2.268,4.859,4.859,0,0,1,2.8-.84,3.041,3.041,0,0,1,2.232.828,3.008,3.008,0,0,1,.84,2.244,3.88,3.88,0,0,1-1.188,2.844,8.591,8.591,0,0,1-4.02,1.884,2.357,2.357,0,0,0,2.28,1.1,5.249,5.249,0,0,0,2.46-.756,8.124,8.124,0,0,0,2.388-1.98A.842.842,0,0,1,57.264,67.648Zm-6.048-3.48a1.759,1.759,0,0,0-1.5,1.032,4.81,4.81,0,0,0-.612,2.5v.048a5.454,5.454,0,0,0,2.232-1.008,1.981,1.981,0,0,0,.816-1.56,1.043,1.043,0,0,0-.252-.732A.88.88,0,0,0,51.216,64.168Zm18.648,3.48a.555.555,0,0,1,.492.288,1.489,1.489,0,0,1,.18.792,2.207,2.207,0,0,1-.456,1.488A11.659,11.659,0,0,1,67.9,72.328a4.369,4.369,0,0,1-2.616.792A4.178,4.178,0,0,1,62.3,72.064a3.664,3.664,0,0,1-1.128-2.808,1.388,1.388,0,0,1,.96-1.344,4.283,4.283,0,0,0,1.512-.972,1.835,1.835,0,0,0,.456-1.26.994.994,0,0,0-.18-.648.556.556,0,0,0-.444-.216,2.078,2.078,0,0,0-1.428.936A10.672,10.672,0,0,0,60.6,68.164,17.281,17.281,0,0,0,59.544,71.2a3.743,3.743,0,0,1-.612,1.524,1.381,1.381,0,0,1-1.092.4,1.205,1.205,0,0,1-1.092-.54,3.931,3.931,0,0,1-.468-1.668q-.12-1.128-.12-3.312a41.568,41.568,0,0,1,.756-7.7,23.151,23.151,0,0,1,2.232-6.732q1.476-2.724,3.54-2.724a2.109,2.109,0,0,1,1.788.948,4.106,4.106,0,0,1,.684,2.46,10.517,10.517,0,0,1-1.416,5.028,32.512,32.512,0,0,1-4.608,6.084q-.072,1.248-.072,2.568a11.365,11.365,0,0,1,2.64-4.356,4.306,4.306,0,0,1,2.784-1.356,2.47,2.47,0,0,1,1.932.816,2.909,2.909,0,0,1,.732,2.016,4.574,4.574,0,0,1-.672,2.424,5.747,5.747,0,0,1-2.3,1.968,1.59,1.59,0,0,0,.588,1.044,1.835,1.835,0,0,0,1.188.4,2.239,2.239,0,0,0,1.44-.576,15.858,15.858,0,0,0,1.824-1.92A.842.842,0,0,1,69.864,67.648Zm-7.68-14.832q-.432,0-.96,1.236a20.944,20.944,0,0,0-1.02,3.336,44.55,44.55,0,0,0-.8,4.572,17.175,17.175,0,0,0,2.46-3.816,8.911,8.911,0,0,0,.972-3.744,3.213,3.213,0,0,0-.168-1.176Q62.5,52.816,62.184,52.816ZM79.3,67.648a.555.555,0,0,1,.492.288,1.489,1.489,0,0,1,.18.792,2.207,2.207,0,0,1-.456,1.488A8.768,8.768,0,0,1,77,72.208a6.957,6.957,0,0,1-3.468.912,5.344,5.344,0,0,1-3.912-1.368,5.01,5.01,0,0,1-1.392-3.744,6.945,6.945,0,0,1,.7-3.084,5.7,5.7,0,0,1,1.932-2.268,4.859,4.859,0,0,1,2.8-.84,3.041,3.041,0,0,1,2.232.828,3.008,3.008,0,0,1,.84,2.244,3.88,3.88,0,0,1-1.188,2.844,8.591,8.591,0,0,1-4.02,1.884,2.357,2.357,0,0,0,2.28,1.1,5.249,5.249,0,0,0,2.46-.756,8.125,8.125,0,0,0,2.388-1.98A.842.842,0,0,1,79.3,67.648Zm-6.048-3.48a1.759,1.759,0,0,0-1.5,1.032,4.81,4.81,0,0,0-.612,2.5v.048a5.454,5.454,0,0,0,2.232-1.008,1.981,1.981,0,0,0,.816-1.56,1.043,1.043,0,0,0-.252-.732A.88.88,0,0,0,73.248,64.168Zm8.736-.072q-.048,1.2-.048,1.872a15.656,15.656,0,0,0,.18,2.7,2.626,2.626,0,0,0,.6,1.392,1.573,1.573,0,0,0,1.164.42,2.274,2.274,0,0,0,.912-.24,3.809,3.809,0,0,0,.96-.624.792.792,0,0,1,.528-.24.532.532,0,0,1,.468.324,1.583,1.583,0,0,1,.18.78,2.288,2.288,0,0,1-.18.888,1.787,1.787,0,0,1-.54.72,4.323,4.323,0,0,1-2.832,1.032,3.544,3.544,0,0,1-3.336-1.908,10.246,10.246,0,0,1-1.056-4.98q0-1.056.072-2.136H78.12a1.346,1.346,0,0,1-.972-.264,1.185,1.185,0,0,1-.252-.84q0-1.344,1.08-1.344h1.368a23.356,23.356,0,0,1,1.248-4.824,10.883,10.883,0,0,1,2.028-3.48,3.457,3.457,0,0,1,2.556-1.3,1.8,1.8,0,0,1,1.584.888,4.024,4.024,0,0,1,.576,2.232,8.408,8.408,0,0,1-3.12,6.48H86.9a.759.759,0,0,1,.552.168.883.883,0,0,1,.168.624q0,1.656-2.712,1.656Zm2.544-9.744q-.36,0-.8.9a12.805,12.805,0,0,0-.84,2.5,33.459,33.459,0,0,0-.66,3.54,8.2,8.2,0,0,0,2.124-2.748,6.664,6.664,0,0,0,.708-2.772Q85.056,54.352,84.528,54.352ZM97.056,73.12a2.7,2.7,0,0,1-2.22-1.08,4.44,4.44,0,0,1-.852-2.832,7.8,7.8,0,0,1,.888-3.636,7.58,7.58,0,0,1,2.364-2.76,5.331,5.331,0,0,1,3.132-1.044.935.935,0,0,1,.708.2,1.724,1.724,0,0,1,.3.732,4.9,4.9,0,0,1,1.008-.1,1.262,1.262,0,0,1,.888.288,1.055,1.055,0,0,1,.312.816,13.047,13.047,0,0,1-.24,1.92q-.264,1.464-.408,2.8a28.007,28.007,0,0,0-.144,2.988,1.879,1.879,0,0,1-.372,1.308,1.6,1.6,0,0,1-1.212.4,1.65,1.65,0,0,1-1.212-.4,1.763,1.763,0,0,1-.4-1.284l.024-.384A2.652,2.652,0,0,1,97.056,73.12Zm.936-2.424q.672,0,1.224-.936a11.056,11.056,0,0,0,.984-3.336L100.656,64a2.834,2.834,0,0,0-1.824.756,5.159,5.159,0,0,0-1.344,1.932,6.5,6.5,0,0,0-.5,2.544,1.817,1.817,0,0,0,.276,1.092A.868.868,0,0,0,97.992,70.7Zm26.976-3.048a.555.555,0,0,1,.492.288,1.489,1.489,0,0,1,.18.792,2.207,2.207,0,0,1-.456,1.488,12.658,12.658,0,0,1-2.268,2.088,4.507,4.507,0,0,1-2.652.816,2.333,2.333,0,0,1-1.848-.708,3.012,3.012,0,0,1-.624-2.052,14.983,14.983,0,0,1,.336-2.4,12.42,12.42,0,0,0,.312-2.088q0-.384-.264-.384-.312,0-.888.8a11.794,11.794,0,0,0-1.152,2.124A17.24,17.24,0,0,0,115.2,71.2a2.17,2.17,0,0,1-2.256,1.92A.927.927,0,0,1,112,72.6a5.172,5.172,0,0,1-.228-1.86q0-.768.024-1.224l.024-1.92a41.567,41.567,0,0,1,.756-7.7,23.151,23.151,0,0,1,2.232-6.732q1.476-2.724,3.54-2.724a2.109,2.109,0,0,1,1.788.948,4.106,4.106,0,0,1,.684,2.46,10.517,10.517,0,0,1-1.416,5.028,32.512,32.512,0,0,1-4.608,6.084q-.072,1.248-.072,2.568a13.773,13.773,0,0,1,1.764-3.324,6.884,6.884,0,0,1,1.92-1.836,3.513,3.513,0,0,1,1.74-.552,1.379,1.379,0,0,1,1.56,1.56,19.289,19.289,0,0,1-.528,3.384,16.656,16.656,0,0,0-.456,2.76q0,.96.7.96a1.875,1.875,0,0,0,1.14-.588,19.261,19.261,0,0,0,1.764-1.908A.842.842,0,0,1,124.968,67.648ZM117.84,52.816q-.432,0-.96,1.236a20.945,20.945,0,0,0-1.02,3.336,44.551,44.551,0,0,0-.8,4.572,17.175,17.175,0,0,0,2.46-3.816,8.911,8.911,0,0,0,.972-3.744,3.213,3.213,0,0,0-.168-1.176Q118.152,52.816,117.84,52.816Zm9,7.416a2.153,2.153,0,0,1-1.512-.468,1.7,1.7,0,0,1-.5-1.308,1.773,1.773,0,0,1,.66-1.4,2.442,2.442,0,0,1,1.644-.564,2.269,2.269,0,0,1,1.44.432,1.464,1.464,0,0,1,.552,1.224,1.952,1.952,0,0,1-.624,1.524A2.375,2.375,0,0,1,126.84,60.232Zm-.192,12.888a2.494,2.494,0,0,1-2.268-1.1,5.359,5.359,0,0,1-.708-2.928,17.922,17.922,0,0,1,.276-2.772,25.882,25.882,0,0,1,.708-3.156,2.034,2.034,0,0,1,.576-1.056,1.846,1.846,0,0,1,1.152-.288q1.224,0,1.224.816a18.817,18.817,0,0,1-.456,2.784,20.756,20.756,0,0,0-.576,3.576,2.532,2.532,0,0,0,.192,1.1.668.668,0,0,0,.648.384,1.807,1.807,0,0,0,1.08-.6,21.478,21.478,0,0,0,1.728-1.9.842.842,0,0,1,.648-.336.555.555,0,0,1,.492.288,1.489,1.489,0,0,1,.18.792,2.207,2.207,0,0,1-.456,1.488Q128.712,73.12,126.648,73.12ZM141.72,65.7a.842.842,0,0,1,.24-.024.666.666,0,0,1,.552.24,1.008,1.008,0,0,1,.192.648,2.036,2.036,0,0,1-.288,1.164,1.631,1.631,0,0,1-.864.612,7.541,7.541,0,0,1-2.352.36,6.738,6.738,0,0,1-1.992-.288q-.7,1.128-1.536,2.328a8.159,8.159,0,0,1-1.656,1.872,2.633,2.633,0,0,1-1.584.5,1.816,1.816,0,0,1-1.548-.768,4.871,4.871,0,0,1-.708-2.424q-.288-3.36-.288-5.88v-.84a1.366,1.366,0,0,1,.432-1.1,2,2,0,0,1,1.224-.312,1.329,1.329,0,0,1,.924.276,1.21,1.21,0,0,1,.3.924q0,2.76.336,7.176,1.44-2.136,2.16-3.408a3.562,3.562,0,0,1-.36-1.656,3.692,3.692,0,0,1,.36-1.584,3.322,3.322,0,0,1,.984-1.248,2.262,2.262,0,0,1,1.416-.48,1.43,1.43,0,0,1,1.128.492,2.1,2.1,0,0,1,.432,1.428,6.586,6.586,0,0,1-.576,2.472,17.091,17.091,0,0,0,2.424-.36Zm1.848,7.416a2.919,2.919,0,0,1-2.376-1.08,4.316,4.316,0,0,1-.888-2.832,7.8,7.8,0,0,1,.888-3.636,7.58,7.58,0,0,1,2.364-2.76,5.331,5.331,0,0,1,3.132-1.044.935.935,0,0,1,.708.2,1.724,1.724,0,0,1,.3.732,5.635,5.635,0,0,1,1.056-.1q1.176,0,1.176.84a18.006,18.006,0,0,1-.36,2.4,23.294,23.294,0,0,0-.552,3.84.871.871,0,0,0,.18.576.58.58,0,0,0,.468.216,1.824,1.824,0,0,0,1.1-.588,20.532,20.532,0,0,0,1.752-1.908.842.842,0,0,1,.648-.336.555.555,0,0,1,.492.288,1.489,1.489,0,0,1,.18.792,2.207,2.207,0,0,1-.456,1.488A12.089,12.089,0,0,1,151.3,72.28a3.56,3.56,0,0,1-2.136.84,2.241,2.241,0,0,1-1.452-.54,3.291,3.291,0,0,1-1-1.476A3.648,3.648,0,0,1,143.568,73.12Zm.864-2.424a1.317,1.317,0,0,0,1.008-.624,4.046,4.046,0,0,0,.7-1.656L147.024,64a2.907,2.907,0,0,0-1.86.756,5.093,5.093,0,0,0-1.356,1.932,6.5,6.5,0,0,0-.5,2.544,1.7,1.7,0,0,0,.3,1.1A1.02,1.02,0,0,0,144.432,70.7ZM162.6,67.648a.555.555,0,0,1,.492.288,1.489,1.489,0,0,1,.18.792,2.207,2.207,0,0,1-.456,1.488A10.21,10.21,0,0,1,160.56,72.3a4.945,4.945,0,0,1-2.808.816q-4.9,0-4.9-6.888,0-1.056.072-2.136h-.936a1.346,1.346,0,0,1-.972-.264,1.185,1.185,0,0,1-.252-.84q0-1.344,1.08-1.344h1.368a23.357,23.357,0,0,1,1.248-4.824,10.883,10.883,0,0,1,2.028-3.48,3.457,3.457,0,0,1,2.556-1.3,1.8,1.8,0,0,1,1.584.888,4.024,4.024,0,0,1,.576,2.232,8.408,8.408,0,0,1-3.12,6.48h2.688a.759.759,0,0,1,.552.168.883.883,0,0,1,.168.624q0,1.656-2.712,1.656h-2.928q-.048,1.2-.048,1.872a7.467,7.467,0,0,0,.588,3.5,2,2,0,0,0,1.86,1.008,2.865,2.865,0,0,0,1.824-.624,14.561,14.561,0,0,0,1.872-1.872A.842.842,0,0,1,162.6,67.648Zm-4.2-13.3q-.36,0-.8.9a12.8,12.8,0,0,0-.84,2.5,33.459,33.459,0,0,0-.66,3.54,8.2,8.2,0,0,0,2.124-2.748,6.664,6.664,0,0,0,.708-2.772Q158.928,54.352,158.4,54.352Zm5.88,18.768a2.919,2.919,0,0,1-2.376-1.08,4.316,4.316,0,0,1-.888-2.832,7.8,7.8,0,0,1,.888-3.636,7.58,7.58,0,0,1,2.364-2.76,5.331,5.331,0,0,1,3.132-1.044.935.935,0,0,1,.708.2,1.724,1.724,0,0,1,.3.732,5.635,5.635,0,0,1,1.056-.1q1.176,0,1.176.84a18.006,18.006,0,0,1-.36,2.4,23.294,23.294,0,0,0-.552,3.84.871.871,0,0,0,.18.576.58.58,0,0,0,.468.216,1.824,1.824,0,0,0,1.1-.588,20.532,20.532,0,0,0,1.752-1.908.842.842,0,0,1,.648-.336.555.555,0,0,1,.492.288,1.489,1.489,0,0,1,.18.792,2.207,2.207,0,0,1-.456,1.488,12.089,12.089,0,0,1-2.088,2.064,3.56,3.56,0,0,1-2.136.84,2.241,2.241,0,0,1-1.452-.54,3.291,3.291,0,0,1-1-1.476A3.648,3.648,0,0,1,164.28,73.12Zm.864-2.424a1.317,1.317,0,0,0,1.008-.624,4.046,4.046,0,0,0,.7-1.656L167.736,64a2.907,2.907,0,0,0-1.86.756,5.093,5.093,0,0,0-1.356,1.932,6.5,6.5,0,0,0-.5,2.544,1.7,1.7,0,0,0,.3,1.1A1.02,1.02,0,0,0,165.144,70.7Zm14.4-1.08a.792.792,0,0,1,.528-.24.532.532,0,0,1,.468.324,1.584,1.584,0,0,1,.18.78,1.986,1.986,0,0,1-.72,1.608,4.323,4.323,0,0,1-2.832,1.032,3.544,3.544,0,0,1-3.336-1.908,10.246,10.246,0,0,1-1.056-4.98,34.123,34.123,0,0,1,.756-6.672,22.639,22.639,0,0,1,2.232-6.432q1.476-2.688,3.516-2.688a2.036,2.036,0,0,1,1.812,1.068,5.854,5.854,0,0,1,.66,3.06,17.59,17.59,0,0,1-1.572,6.624,35.68,35.68,0,0,1-4.284,7.44,2.594,2.594,0,0,0,.6,1.416,1.589,1.589,0,0,0,1.176.432,2.231,2.231,0,0,0,.924-.24A3.889,3.889,0,0,0,179.544,69.616Zm-.792-16.8q-.552,0-1.248,1.992a32.737,32.737,0,0,0-1.224,4.944,35.789,35.789,0,0,0-.576,5.664,30.93,30.93,0,0,0,2.712-5.628,15.428,15.428,0,0,0,1.008-5.148Q179.424,52.816,178.752,52.816Z" transform="translate(256 139)" fill="#454347"/><path d="M880.029,207.012H698.249c-20.533,0-37.334-15.723-37.334-34.94V130.54c0-19.216,16.8-34.939,37.334-34.939H901c20.533,0,37.334,15.723,37.334,34.939v41.532c0,13.57-8.381,25.388-20.533,31.167l13.592,40.429Z" transform="translate(-189.559 -30.668)" fill="#fff" stroke="#454347" stroke-linecap="round" stroke-linejoin="round" stroke-width="8"/><path d="M20.184,11.08a2.165,2.165,0,0,1,1.116.5,1.134,1.134,0,0,1,.372.84,1.4,1.4,0,0,1-.444,1.152,1.976,1.976,0,0,1-1.4.288q-2.16-.168-3.372-.228t-3.18-.084q-.888,4.416-1.632,8.88-.264,1.632-.552,3.78T10.7,29.68a1.349,1.349,0,0,1-.576,1.068,2.152,2.152,0,0,1-1.272.372,1.782,1.782,0,0,1-1.224-.384A1.284,1.284,0,0,1,7.2,29.728a16.3,16.3,0,0,1,.18-1.908q.18-1.332.42-2.8.264-1.464.408-2.544.264-1.824.6-3.624t.672-3.408q.072-.36.168-.828t.216-1.044a19.831,19.831,0,0,0-3.7.384,3.965,3.965,0,0,0-1.908.876A1.965,1.965,0,0,0,3.7,16.288a2.834,2.834,0,0,0,.48,1.56.714.714,0,0,1,.1.36,1.09,1.09,0,0,1-.54.852,1.865,1.865,0,0,1-1.116.4.961.961,0,0,1-.672-.24,2.99,2.99,0,0,1-.792-1.164A4.464,4.464,0,0,1,.84,16.336,4.257,4.257,0,0,1,2.172,13.06a8.474,8.474,0,0,1,4.056-1.812,34.834,34.834,0,0,1,7-.576q2.64,0,4.212.1A23.244,23.244,0,0,1,20.184,11.08ZM27.96,23.632a.524.524,0,0,1,.48.312,1.66,1.66,0,0,1,.168.792q0,1.152-.7,1.368a10.927,10.927,0,0,1-3.168.576,5.99,5.99,0,0,1-1.8,3.228A4.428,4.428,0,0,1,19.9,31.12a4.259,4.259,0,0,1-2.46-.7,4.421,4.421,0,0,1-1.548-1.848,5.918,5.918,0,0,1-.528-2.5,7.329,7.329,0,0,1,.7-3.252,5.468,5.468,0,0,1,1.92-2.232,4.835,4.835,0,0,1,2.712-.8,3.738,3.738,0,0,1,2.94,1.26,5.4,5.4,0,0,1,1.308,3.108,14.546,14.546,0,0,0,2.688-.48A1.41,1.41,0,0,1,27.96,23.632Zm-7.872,4.944a1.741,1.741,0,0,0,1.332-.624,3.464,3.464,0,0,0,.756-1.8,3.313,3.313,0,0,1-1.14-1.32,3.908,3.908,0,0,1-.4-1.728,4.159,4.159,0,0,1,.072-.768h-.12a1.884,1.884,0,0,0-1.6.924,4.555,4.555,0,0,0-.636,2.6,3.348,3.348,0,0,0,.516,2.016A1.49,1.49,0,0,0,20.088,28.576ZM18.5,18.232a1.649,1.649,0,0,1-1.2-.42,1.753,1.753,0,0,1-.432-1.308,2.083,2.083,0,0,1,.516-1.5,1.82,1.82,0,0,1,1.38-.54,1.649,1.649,0,0,1,1.2.42,1.753,1.753,0,0,1,.432,1.308,2.083,2.083,0,0,1-.516,1.5A1.819,1.819,0,0,1,18.5,18.232Zm4.992,0a1.649,1.649,0,0,1-1.2-.42,1.753,1.753,0,0,1-.432-1.308A2.083,2.083,0,0,1,22.38,15a1.82,1.82,0,0,1,1.38-.54,1.649,1.649,0,0,1,1.2.42,1.753,1.753,0,0,1,.432,1.308,2.083,2.083,0,0,1-.516,1.5A1.819,1.819,0,0,1,23.5,18.232Zm15.816,5.4a.524.524,0,0,1,.48.312,1.66,1.66,0,0,1,.168.792,2.048,2.048,0,0,1-.168.924.886.886,0,0,1-.528.444,10.927,10.927,0,0,1-3.168.576A6.22,6.22,0,0,1,34.284,29.9a4.253,4.253,0,0,1-2.94,1.224,3.8,3.8,0,0,1-3.528-1.848,10.556,10.556,0,0,1-1.1-5.352,32.725,32.725,0,0,1,.768-6.732A21.041,21.041,0,0,1,29.724,11Q31.2,8.44,33.24,8.44a2.078,2.078,0,0,1,1.776.948,4.16,4.16,0,0,1,.672,2.46,10.871,10.871,0,0,1-.744,3.912,15.35,15.35,0,0,1-2.472,4.08,3.615,3.615,0,0,1,2.616,1.332,5.474,5.474,0,0,1,1.2,2.988,14.546,14.546,0,0,0,2.688-.48A1.064,1.064,0,0,1,39.312,23.632ZM32.688,10.816q-.48,0-1.044,1.428A22.969,22.969,0,0,0,30.6,16.12a48.786,48.786,0,0,0-.72,5.352q1.584-2.9,2.532-5.124A10.241,10.241,0,0,0,33.36,12.4a3.017,3.017,0,0,0-.18-1.176Q33,10.816,32.688,10.816ZM31.44,28.576a1.753,1.753,0,0,0,1.32-.624,3.4,3.4,0,0,0,.768-1.8,3.313,3.313,0,0,1-1.14-1.32,3.908,3.908,0,0,1-.4-1.728,5.876,5.876,0,0,1,.1-.912h-.072a1.941,1.941,0,0,0-1.644.972,4.566,4.566,0,0,0-.66,2.6,3.559,3.559,0,0,0,.516,2.088A1.48,1.48,0,0,0,31.44,28.576ZM42.648,31.12a3.753,3.753,0,0,1-3.492-1.848,10.653,10.653,0,0,1-1.092-5.352,32.725,32.725,0,0,1,.768-6.732A21.04,21.04,0,0,1,41.076,11Q42.552,8.44,44.592,8.44a2.079,2.079,0,0,1,1.776.948,4.16,4.16,0,0,1,.672,2.46A10.871,10.871,0,0,1,46.3,15.76a15.351,15.351,0,0,1-2.472,4.08,3.705,3.705,0,0,1,2.052.792,4.489,4.489,0,0,1,1.344,1.8,6.086,6.086,0,0,1,.468,2.4,7.245,7.245,0,0,1-.708,3.24,5.767,5.767,0,0,1-1.86,2.244A4.239,4.239,0,0,1,42.648,31.12Zm-1.416-9.648q1.584-2.9,2.532-5.124a10.241,10.241,0,0,0,.948-3.948,3.017,3.017,0,0,0-.18-1.176q-.18-.408-.492-.408-.48,0-1.044,1.428a22.969,22.969,0,0,0-1.044,3.876A48.787,48.787,0,0,0,41.232,21.472Zm1.512,7.056a1.626,1.626,0,0,0,1.38-.888,4.87,4.87,0,0,0,.564-2.592,3.42,3.42,0,0,0-.48-1.992,1.393,1.393,0,0,0-1.152-.672,1.675,1.675,0,0,0-1.416.864,4.552,4.552,0,0,0-.576,2.52,3.616,3.616,0,0,0,.48,2.1A1.436,1.436,0,0,0,42.744,28.528ZM58.8,18.232a2.153,2.153,0,0,1-1.512-.468,1.7,1.7,0,0,1-.5-1.308,1.773,1.773,0,0,1,.66-1.4,2.442,2.442,0,0,1,1.644-.564,2.269,2.269,0,0,1,1.44.432,1.464,1.464,0,0,1,.552,1.224,1.952,1.952,0,0,1-.624,1.524A2.375,2.375,0,0,1,58.8,18.232ZM58.608,31.12a2.494,2.494,0,0,1-2.268-1.1,5.359,5.359,0,0,1-.708-2.928,17.921,17.921,0,0,1,.276-2.772,25.883,25.883,0,0,1,.708-3.156,2.034,2.034,0,0,1,.576-1.056,1.846,1.846,0,0,1,1.152-.288q1.224,0,1.224.816a18.817,18.817,0,0,1-.456,2.784,20.756,20.756,0,0,0-.576,3.576,2.532,2.532,0,0,0,.192,1.1.668.668,0,0,0,.648.384,1.807,1.807,0,0,0,1.08-.6,21.48,21.48,0,0,0,1.728-1.9.842.842,0,0,1,.648-.336.555.555,0,0,1,.492.288,1.489,1.489,0,0,1,.18.792,2.207,2.207,0,0,1-.456,1.488Q60.672,31.12,58.608,31.12Zm4.656,0a1.311,1.311,0,0,1-1.284-.96,9.2,9.2,0,0,1-.372-3.072A19.545,19.545,0,0,1,62.5,21.16a1.805,1.805,0,0,1,.708-1.02,2.5,2.5,0,0,1,1.38-.324,1.352,1.352,0,0,1,.672.12.5.5,0,0,1,.192.456,9.149,9.149,0,0,1-.36,1.728q-.24.96-.384,1.68a17.215,17.215,0,0,0-.24,1.776,13.646,13.646,0,0,1,1.776-3.36,6.964,6.964,0,0,1,1.932-1.848,3.513,3.513,0,0,1,1.74-.552,1.379,1.379,0,0,1,1.56,1.56,19.289,19.289,0,0,1-.528,3.384,16.656,16.656,0,0,0-.456,2.76q0,.96.7.96a1.875,1.875,0,0,0,1.14-.588,19.263,19.263,0,0,0,1.764-1.908.842.842,0,0,1,.648-.336.555.555,0,0,1,.492.288,1.489,1.489,0,0,1,.18.792,2.207,2.207,0,0,1-.456,1.488,10.622,10.622,0,0,1-2.22,2.088,4.656,4.656,0,0,1-2.7.816,2.333,2.333,0,0,1-1.848-.708,3.012,3.012,0,0,1-.624-2.052,14.983,14.983,0,0,1,.336-2.4,12.42,12.42,0,0,0,.312-2.088q0-.384-.264-.384-.312,0-.876.8a12.888,12.888,0,0,0-1.152,2.124,16.522,16.522,0,0,0-.948,2.784,3.743,3.743,0,0,1-.612,1.524A1.381,1.381,0,0,1,63.264,31.12ZM85.752,25.7a.551.551,0,0,1,.492.3,1.449,1.449,0,0,1,.18.756,1.841,1.841,0,0,1-.168.864,1.567,1.567,0,0,1-.528.552Q83.664,29.56,82.7,30.232l-1.536,1.032a28.53,28.53,0,0,1-2.388,7.812Q77.3,41.92,75.024,41.92a2.718,2.718,0,0,1-1.992-.756,2.655,2.655,0,0,1-.768-1.98,6.567,6.567,0,0,1,1.344-3.66,24.382,24.382,0,0,1,5.04-4.812l.144-.936a2.9,2.9,0,0,1-2.376,1.344,2.919,2.919,0,0,1-2.376-1.08,4.316,4.316,0,0,1-.888-2.832,7.8,7.8,0,0,1,.888-3.636,7.58,7.58,0,0,1,2.364-2.76,5.331,5.331,0,0,1,3.132-1.044.935.935,0,0,1,.708.2,1.724,1.724,0,0,1,.3.732,5.167,5.167,0,0,1,1.056-.1,1.515,1.515,0,0,1,.852.18.823.823,0,0,1,.252.708,3.39,3.39,0,0,1-.024.456q-.1.744-.6,3.768-.1.576-.2,1.26t-.228,1.452q1.848-1.44,3.552-2.544A1.09,1.09,0,0,1,85.752,25.7Zm-8.472,3a1.376,1.376,0,0,0,1.056-.672,4.465,4.465,0,0,0,.72-1.92l.768-4.1A2.834,2.834,0,0,0,78,22.756a5.159,5.159,0,0,0-1.344,1.932,6.5,6.5,0,0,0-.5,2.544,1.7,1.7,0,0,0,.3,1.1A1.02,1.02,0,0,0,77.28,28.7Zm-1.992,10.9q.6,0,1.356-1.44A19.732,19.732,0,0,0,78.1,33.568a13.945,13.945,0,0,0-2.664,2.856,4.306,4.306,0,0,0-.816,2.232,1.305,1.305,0,0,0,.156.672A.552.552,0,0,0,75.288,39.592Zm21.7-13.9a.551.551,0,0,1,.492.3,1.449,1.449,0,0,1,.18.756,1.841,1.841,0,0,1-.168.864,1.567,1.567,0,0,1-.528.552l-4.608,3.1a28.53,28.53,0,0,1-2.388,7.812q-1.476,2.844-3.756,2.844a2.718,2.718,0,0,1-1.992-.756,2.655,2.655,0,0,1-.768-1.98,5.709,5.709,0,0,1,.516-2.3,10.428,10.428,0,0,1,1.92-2.7,31.808,31.808,0,0,1,3.972-3.492l.072-.552q.168-.888.384-2.544a6.1,6.1,0,0,1-1.344,2.628,2.528,2.528,0,0,1-1.824.9,2.063,2.063,0,0,1-1.764-1A4.287,4.287,0,0,1,84.7,27.64a20.957,20.957,0,0,1,.24-3.3,20.716,20.716,0,0,1,.792-3.18,2.008,2.008,0,0,1,.672-1.032,2.366,2.366,0,0,1,1.368-.312,1.185,1.185,0,0,1,.732.168.615.615,0,0,1,.2.5,9.963,9.963,0,0,1-.264,1.3q-.24.888-.384,1.608-.192.984-.336,1.884a9.719,9.719,0,0,0-.144,1.476q0,.912.5.912.36,0,.9-.72a10.582,10.582,0,0,0,1.152-2.184,29.187,29.187,0,0,0,1.188-3.6A1.558,1.558,0,0,1,93.1,19.816a1.471,1.471,0,0,1,.768.144.534.534,0,0,1,.216.48q0,.6-.624,4.128l-.624,3.864q1.848-1.392,3.6-2.544A1.09,1.09,0,0,1,96.984,25.7Zm-10.512,13.9q.6,0,1.344-1.392A20.33,20.33,0,0,0,89.3,33.568a13.658,13.658,0,0,0-2.676,2.844,4.324,4.324,0,0,0-.828,2.244,1.305,1.305,0,0,0,.156.672A.552.552,0,0,0,86.472,39.592ZM106.9,25.648a.555.555,0,0,1,.492.288,1.489,1.489,0,0,1,.18.792,2.207,2.207,0,0,1-.456,1.488,8.768,8.768,0,0,1-2.508,1.992,6.957,6.957,0,0,1-3.468.912,5.344,5.344,0,0,1-3.912-1.368,5.01,5.01,0,0,1-1.392-3.744,6.945,6.945,0,0,1,.7-3.084,5.7,5.7,0,0,1,1.932-2.268,4.859,4.859,0,0,1,2.8-.84,3.041,3.041,0,0,1,2.232.828,3.008,3.008,0,0,1,.84,2.244,3.88,3.88,0,0,1-1.188,2.844,8.591,8.591,0,0,1-4.02,1.884,2.357,2.357,0,0,0,2.28,1.1,5.249,5.249,0,0,0,2.46-.756,8.125,8.125,0,0,0,2.388-1.98A.842.842,0,0,1,106.9,25.648Zm-6.048-3.48a1.759,1.759,0,0,0-1.5,1.032,4.81,4.81,0,0,0-.612,2.5v.048a5.454,5.454,0,0,0,2.232-1.008,1.981,1.981,0,0,0,.816-1.56,1.043,1.043,0,0,0-.252-.732A.88.88,0,0,0,100.848,22.168Zm6.48,8.952a1.311,1.311,0,0,1-1.284-.96,9.2,9.2,0,0,1-.372-3.072,19.545,19.545,0,0,1,.888-5.928,1.806,1.806,0,0,1,.708-1.02,2.5,2.5,0,0,1,1.38-.324,1.352,1.352,0,0,1,.672.12.5.5,0,0,1,.192.456,9.149,9.149,0,0,1-.36,1.728q-.24.96-.384,1.68a17.217,17.217,0,0,0-.24,1.776,13.646,13.646,0,0,1,1.776-3.36,6.964,6.964,0,0,1,1.932-1.848,3.513,3.513,0,0,1,1.74-.552,1.379,1.379,0,0,1,1.56,1.56,19.289,19.289,0,0,1-.528,3.384,16.656,16.656,0,0,0-.456,2.76q0,.96.7.96a1.875,1.875,0,0,0,1.14-.588,19.263,19.263,0,0,0,1.764-1.908.842.842,0,0,1,.648-.336.555.555,0,0,1,.492.288,1.489,1.489,0,0,1,.18.792,2.207,2.207,0,0,1-.456,1.488A10.621,10.621,0,0,1,116.8,30.3a4.656,4.656,0,0,1-2.7.816,2.333,2.333,0,0,1-1.848-.708,3.012,3.012,0,0,1-.624-2.052,14.984,14.984,0,0,1,.336-2.4,12.42,12.42,0,0,0,.312-2.088q0-.384-.264-.384-.312,0-.876.8a12.888,12.888,0,0,0-1.152,2.124,16.521,16.521,0,0,0-.948,2.784,3.743,3.743,0,0,1-.612,1.524A1.381,1.381,0,0,1,107.328,31.12Zm20.9-5.472a.555.555,0,0,1,.492.288,1.489,1.489,0,0,1,.18.792,2.207,2.207,0,0,1-.456,1.488,8.768,8.768,0,0,1-2.508,1.992,6.957,6.957,0,0,1-3.468.912,5.344,5.344,0,0,1-3.912-1.368,5.01,5.01,0,0,1-1.392-3.744,6.945,6.945,0,0,1,.7-3.084,5.7,5.7,0,0,1,1.932-2.268,4.859,4.859,0,0,1,2.8-.84,3.041,3.041,0,0,1,2.232.828,3.008,3.008,0,0,1,.84,2.244,3.88,3.88,0,0,1-1.188,2.844,8.591,8.591,0,0,1-4.02,1.884,2.357,2.357,0,0,0,2.28,1.1,5.249,5.249,0,0,0,2.46-.756,8.125,8.125,0,0,0,2.388-1.98A.842.842,0,0,1,128.232,25.648Zm-6.048-3.48a1.759,1.759,0,0,0-1.5,1.032,4.81,4.81,0,0,0-.612,2.5v.048a5.454,5.454,0,0,0,2.232-1.008,1.981,1.981,0,0,0,.816-1.56,1.043,1.043,0,0,0-.252-.732A.88.88,0,0,0,122.184,22.168Zm9.24,9.48a2.818,2.818,0,0,1-1.908-.576,1.7,1.7,0,0,1-.66-1.3,1.476,1.476,0,0,1,.456-1.08,1.822,1.822,0,0,1,1.344-.456,5.266,5.266,0,0,1,.732.06q.42.06.636.084a3.09,3.09,0,0,0-.276-1.176,5.875,5.875,0,0,0-.636-1.068q-.384-.516-.72-.9a15.68,15.68,0,0,1-1.476,2.352,17.578,17.578,0,0,1-1.6,1.776,1.285,1.285,0,0,1-.912.432.788.788,0,0,1-.624-.276,1,1,0,0,1-.24-.684,1.368,1.368,0,0,1,.336-.888l.312-.384a31.016,31.016,0,0,0,1.992-2.688,15.5,15.5,0,0,0,.876-1.656q.444-.96,1.164-2.616a1.847,1.847,0,0,1,1.9-1.056,2.517,2.517,0,0,1,.936.12.4.4,0,0,1,.264.384,1.766,1.766,0,0,1-.1.456,3.468,3.468,0,0,1-.264.624,3.422,3.422,0,0,0-.432,1.464,1.6,1.6,0,0,0,.252.792,8.99,8.99,0,0,0,.78,1.08,15.246,15.246,0,0,1,1.164,1.716,3.118,3.118,0,0,1,.4,1.548,4.078,4.078,0,0,1-.468,1.908,3.813,3.813,0,0,1-1.308,1.452A3.417,3.417,0,0,1,131.424,31.648Zm15.816,0a2.818,2.818,0,0,1-1.908-.576,1.7,1.7,0,0,1-.66-1.3,1.476,1.476,0,0,1,.456-1.08,1.822,1.822,0,0,1,1.344-.456,5.266,5.266,0,0,1,.732.06q.42.06.636.084a3.09,3.09,0,0,0-.276-1.176,5.875,5.875,0,0,0-.636-1.068q-.384-.516-.72-.9a15.682,15.682,0,0,1-1.476,2.352,17.578,17.578,0,0,1-1.6,1.776,1.285,1.285,0,0,1-.912.432.788.788,0,0,1-.624-.276,1,1,0,0,1-.24-.684,1.368,1.368,0,0,1,.336-.888l.312-.384A31.021,31.021,0,0,0,144,24.88q.408-.7.96-1.86t1.08-2.412a1.847,1.847,0,0,1,1.9-1.056,2.518,2.518,0,0,1,.936.12.4.4,0,0,1,.264.384,1.767,1.767,0,0,1-.1.456,3.467,3.467,0,0,1-.264.624,3.422,3.422,0,0,0-.432,1.464,1.6,1.6,0,0,0,.252.792,8.988,8.988,0,0,0,.78,1.08,15.245,15.245,0,0,1,1.164,1.716,3.118,3.118,0,0,1,.4,1.548,6.5,6.5,0,0,1-.048.672,7.653,7.653,0,0,0,2.76-2.424.842.842,0,0,1,.648-.336.555.555,0,0,1,.492.288,1.489,1.489,0,0,1,.18.792,2.325,2.325,0,0,1-.456,1.488,7.319,7.319,0,0,1-2.292,2.028,6.506,6.506,0,0,1-2.7.588A3.407,3.407,0,0,1,147.24,31.648Zm18.6-6a.555.555,0,0,1,.492.288,1.489,1.489,0,0,1,.18.792,2.207,2.207,0,0,1-.456,1.488,10.622,10.622,0,0,1-2.22,2.088,4.656,4.656,0,0,1-2.7.816,2.6,2.6,0,0,1-2.064-.912,5.333,5.333,0,0,1-2.856.912,29.3,29.3,0,0,1-1.416,7.74q-1.1,3.108-3.24,3.108a2.147,2.147,0,0,1-1.92-.936,4.634,4.634,0,0,1-.624-2.592,17.17,17.17,0,0,1,1.08-5.484,37.472,37.472,0,0,1,3.336-6.9q0-3.5-.048-4.872a1.228,1.228,0,0,1,.552-1.1,2.43,2.43,0,0,1,1.44-.408,1.081,1.081,0,0,1,.732.2,1.136,1.136,0,0,1,.252.8q0,.6.024.888a5.477,5.477,0,0,1,1.512-1.38,3.172,3.172,0,0,1,1.584-.42,2.672,2.672,0,0,1,2.2,1.08,4.44,4.44,0,0,1,.852,2.832,7.628,7.628,0,0,1-.408,2.472,8.074,8.074,0,0,1-1.128,2.184,3.173,3.173,0,0,0,.84.144,2.388,2.388,0,0,0,1.512-.576,14.545,14.545,0,0,0,1.848-1.92A.842.842,0,0,1,165.84,25.648Zm-9.5,3.168a3.182,3.182,0,0,0,1.6-.948A5.511,5.511,0,0,0,159.1,26a6.425,6.425,0,0,0,.432-2.34,1.76,1.76,0,0,0-.288-1.092.922.922,0,0,0-.768-.372q-.864,0-2.088,1.824-.024,1.056-.024,3.1Q156.36,28.216,156.336,28.816Zm-4.584,10.8q.648,0,1.08-2.82a58.651,58.651,0,0,0,.552-7.02,35.383,35.383,0,0,0-1.632,4.584,14.324,14.324,0,0,0-.6,3.672,3.017,3.017,0,0,0,.18,1.176Q151.512,39.616,151.752,39.616Zm25.056-15.984a.524.524,0,0,1,.48.312,1.66,1.66,0,0,1,.168.792q0,1.152-.7,1.368a10.927,10.927,0,0,1-3.168.576,5.99,5.99,0,0,1-1.8,3.228,4.428,4.428,0,0,1-3.048,1.212,4.259,4.259,0,0,1-2.46-.7,4.421,4.421,0,0,1-1.548-1.848,5.918,5.918,0,0,1-.528-2.5,7.329,7.329,0,0,1,.7-3.252,5.468,5.468,0,0,1,1.92-2.232,4.835,4.835,0,0,1,2.712-.8,3.738,3.738,0,0,1,2.94,1.26,5.4,5.4,0,0,1,1.308,3.108,14.546,14.546,0,0,0,2.688-.48A1.41,1.41,0,0,1,176.808,23.632Zm-7.872,4.944a1.741,1.741,0,0,0,1.332-.624,3.464,3.464,0,0,0,.756-1.8,3.313,3.313,0,0,1-1.14-1.32,3.908,3.908,0,0,1-.4-1.728,4.16,4.16,0,0,1,.072-.768h-.12a1.884,1.884,0,0,0-1.6.924,4.555,4.555,0,0,0-.636,2.6,3.348,3.348,0,0,0,.516,2.016A1.49,1.49,0,0,0,168.936,28.576ZM185.088,23.1a1.226,1.226,0,0,1,.9.372,1.254,1.254,0,0,1,.372.924,1.817,1.817,0,0,1-.144.672,4.06,4.06,0,0,1-1.08,1.488,2.3,2.3,0,0,1-1.536.6,1.532,1.532,0,0,1-1.14-.48,1.777,1.777,0,0,1-.468-1.3q0-.456.048-.984a5.111,5.111,0,0,0,.048-.528.427.427,0,0,0-.084-.288.261.261,0,0,0-.2-.1q-.336,0-.912.8a11.794,11.794,0,0,0-1.152,2.124A17.24,17.24,0,0,0,178.8,29.2a3.8,3.8,0,0,1-.6,1.536,1.4,1.4,0,0,1-1.1.384,1.311,1.311,0,0,1-1.284-.96,9.2,9.2,0,0,1-.372-3.072,19.545,19.545,0,0,1,.888-5.928,1.805,1.805,0,0,1,.708-1.02,2.5,2.5,0,0,1,1.38-.324,1.352,1.352,0,0,1,.672.12.5.5,0,0,1,.192.456,9.149,9.149,0,0,1-.36,1.728q-.24.96-.384,1.68a17.221,17.221,0,0,0-.24,1.776,13.646,13.646,0,0,1,1.776-3.36,7.051,7.051,0,0,1,1.92-1.848,3.42,3.42,0,0,1,1.7-.552,1.4,1.4,0,0,1,1.068.4,1.641,1.641,0,0,1,.372,1.164,10.462,10.462,0,0,1-.264,1.728Zm12.888,2.544a.555.555,0,0,1,.492.288,1.489,1.489,0,0,1,.18.792,2.207,2.207,0,0,1-.456,1.488,10.21,10.21,0,0,1-2.256,2.088,4.945,4.945,0,0,1-2.808.816q-4.9,0-4.9-6.888,0-1.056.072-2.136h-.936a1.346,1.346,0,0,1-.972-.264,1.185,1.185,0,0,1-.252-.84q0-1.344,1.08-1.344h1.368a23.357,23.357,0,0,1,1.248-4.824,10.883,10.883,0,0,1,2.028-3.48,3.457,3.457,0,0,1,2.556-1.3,1.8,1.8,0,0,1,1.584.888,4.024,4.024,0,0,1,.576,2.232,8.408,8.408,0,0,1-3.12,6.48h2.688a.76.76,0,0,1,.552.168.883.883,0,0,1,.168.624q0,1.656-2.712,1.656h-2.928q-.048,1.2-.048,1.872a7.467,7.467,0,0,0,.588,3.5,2,2,0,0,0,1.86,1.008,2.865,2.865,0,0,0,1.824-.624,14.562,14.562,0,0,0,1.872-1.872A.842.842,0,0,1,197.976,25.648Zm-4.2-13.3q-.36,0-.8.9a12.8,12.8,0,0,0-.84,2.5,33.459,33.459,0,0,0-.66,3.54A8.2,8.2,0,0,0,193.6,16.54a6.664,6.664,0,0,0,.708-2.772Q194.3,12.352,193.776,12.352Zm15.168,11.28a.524.524,0,0,1,.48.312,1.66,1.66,0,0,1,.168.792q0,1.152-.7,1.368a10.927,10.927,0,0,1-3.168.576,5.99,5.99,0,0,1-1.8,3.228,4.428,4.428,0,0,1-3.048,1.212,4.259,4.259,0,0,1-2.46-.7,4.421,4.421,0,0,1-1.548-1.848,5.918,5.918,0,0,1-.528-2.5,7.329,7.329,0,0,1,.7-3.252,5.468,5.468,0,0,1,1.92-2.232,4.835,4.835,0,0,1,2.712-.8,3.738,3.738,0,0,1,2.94,1.26,5.4,5.4,0,0,1,1.308,3.108,14.546,14.546,0,0,0,2.688-.48A1.41,1.41,0,0,1,208.944,23.632Zm-7.872,4.944a1.741,1.741,0,0,0,1.332-.624,3.464,3.464,0,0,0,.756-1.8,3.313,3.313,0,0,1-1.14-1.32,3.908,3.908,0,0,1-.4-1.728,4.16,4.16,0,0,1,.072-.768h-.12a1.884,1.884,0,0,0-1.6.924,4.555,4.555,0,0,0-.636,2.6,3.348,3.348,0,0,0,.516,2.016A1.49,1.49,0,0,0,201.072,28.576Zm15.552-2.928a.555.555,0,0,1,.492.288,1.489,1.489,0,0,1,.18.792,2.207,2.207,0,0,1-.456,1.488A10.34,10.34,0,0,1,214.6,30.3a4.807,4.807,0,0,1-2.748.816,3.332,3.332,0,0,1-3.132-1.92,10.563,10.563,0,0,1-1.02-4.968,34.123,34.123,0,0,1,.756-6.672,22.639,22.639,0,0,1,2.232-6.432Q212.16,8.44,214.2,8.44a2.036,2.036,0,0,1,1.812,1.068,5.854,5.854,0,0,1,.66,3.06,17.479,17.479,0,0,1-1.584,6.624,36.684,36.684,0,0,1-4.3,7.464,2.785,2.785,0,0,0,.552,1.4,1.3,1.3,0,0,0,1.008.42,2.781,2.781,0,0,0,1.728-.564,13.169,13.169,0,0,0,1.9-1.932A.842.842,0,0,1,216.624,25.648Zm-2.952-14.832q-.552,0-1.248,1.992a32.737,32.737,0,0,0-1.224,4.944,35.789,35.789,0,0,0-.576,5.664,30.93,30.93,0,0,0,2.712-5.628,15.428,15.428,0,0,0,1.008-5.148Q214.344,10.816,213.672,10.816Zm4.392,20.3a2.919,2.919,0,0,1-2.376-1.08,4.316,4.316,0,0,1-.888-2.832,7.8,7.8,0,0,1,.888-3.636,7.58,7.58,0,0,1,2.364-2.76,5.331,5.331,0,0,1,3.132-1.044.935.935,0,0,1,.708.2,1.724,1.724,0,0,1,.3.732,5.635,5.635,0,0,1,1.056-.1q1.176,0,1.176.84a18.006,18.006,0,0,1-.36,2.4,23.294,23.294,0,0,0-.552,3.84.871.871,0,0,0,.18.576.581.581,0,0,0,.468.216,1.824,1.824,0,0,0,1.1-.588,20.532,20.532,0,0,0,1.752-1.908.842.842,0,0,1,.648-.336.555.555,0,0,1,.492.288,1.489,1.489,0,0,1,.18.792,2.207,2.207,0,0,1-.456,1.488,12.089,12.089,0,0,1-2.088,2.064,3.56,3.56,0,0,1-2.136.84,2.241,2.241,0,0,1-1.452-.54,3.291,3.291,0,0,1-1-1.476A3.648,3.648,0,0,1,218.064,31.12Zm.864-2.424a1.317,1.317,0,0,0,1.008-.624,4.046,4.046,0,0,0,.7-1.656L221.52,22a2.907,2.907,0,0,0-1.86.756,5.093,5.093,0,0,0-1.356,1.932,6.5,6.5,0,0,0-.5,2.544,1.7,1.7,0,0,0,.3,1.1A1.02,1.02,0,0,0,218.928,28.7ZM221.4,18.232a.806.806,0,0,1-.588-.252.833.833,0,0,1-.252-.612,1.28,1.28,0,0,1,.12-.456l2.232-4.992a1.6,1.6,0,0,1,.564-.708,1.392,1.392,0,0,1,.78-.228,1.531,1.531,0,0,1,1.068.432,1.409,1.409,0,0,1,.468,1.08,2.174,2.174,0,0,1-.528,1.344l-3.1,3.984A.936.936,0,0,1,221.4,18.232Zm9.456,13.416a2.818,2.818,0,0,1-1.908-.576,1.7,1.7,0,0,1-.66-1.3,1.476,1.476,0,0,1,.456-1.08,1.822,1.822,0,0,1,1.344-.456,5.266,5.266,0,0,1,.732.06q.42.06.636.084a3.09,3.09,0,0,0-.276-1.176,5.875,5.875,0,0,0-.636-1.068q-.384-.516-.72-.9a15.682,15.682,0,0,1-1.476,2.352,17.578,17.578,0,0,1-1.6,1.776,1.285,1.285,0,0,1-.912.432.788.788,0,0,1-.624-.276,1,1,0,0,1-.24-.684,1.368,1.368,0,0,1,.336-.888l.312-.384a31.021,31.021,0,0,0,1.992-2.688q.408-.7.96-1.86t1.08-2.412a1.847,1.847,0,0,1,1.9-1.056,2.518,2.518,0,0,1,.936.12.4.4,0,0,1,.264.384,1.767,1.767,0,0,1-.1.456,3.467,3.467,0,0,1-.264.624,3.422,3.422,0,0,0-.432,1.464,1.6,1.6,0,0,0,.252.792,8.988,8.988,0,0,0,.78,1.08,15.245,15.245,0,0,1,1.164,1.716,3.118,3.118,0,0,1,.4,1.548,6.5,6.5,0,0,1-.048.672,7.653,7.653,0,0,0,2.76-2.424.842.842,0,0,1,.648-.336.555.555,0,0,1,.492.288,1.489,1.489,0,0,1,.18.792,2.325,2.325,0,0,1-.456,1.488,7.319,7.319,0,0,1-2.292,2.028,6.506,6.506,0,0,1-2.7.588A3.407,3.407,0,0,1,230.856,31.648Zm9.1-13.416a2.153,2.153,0,0,1-1.512-.468,1.7,1.7,0,0,1-.5-1.308,1.773,1.773,0,0,1,.66-1.4,2.442,2.442,0,0,1,1.644-.564,2.269,2.269,0,0,1,1.44.432,1.464,1.464,0,0,1,.552,1.224,1.952,1.952,0,0,1-.624,1.524A2.375,2.375,0,0,1,239.952,18.232Zm-2.3,12.888a1.11,1.11,0,0,1-1.344-1.3q0-.192.048-.672a52.6,52.6,0,0,1,1.272-7.992,1.714,1.714,0,0,1,.636-1.044,2.617,2.617,0,0,1,1.428-.3q1.032,0,1.032.84a3.947,3.947,0,0,1-.048.456,61.859,61.859,0,0,0-1.3,8.616,1.4,1.4,0,0,1-.456,1.08A2.1,2.1,0,0,1,237.648,31.12ZM10.248,67.648a.555.555,0,0,1,.492.288,1.489,1.489,0,0,1,.18.792,2.207,2.207,0,0,1-.456,1.488A10.34,10.34,0,0,1,8.22,72.3a4.807,4.807,0,0,1-2.748.816A3.332,3.332,0,0,1,2.34,71.2a10.563,10.563,0,0,1-1.02-4.968,34.123,34.123,0,0,1,.756-6.672,22.639,22.639,0,0,1,2.232-6.432Q5.784,50.44,7.824,50.44a2.036,2.036,0,0,1,1.812,1.068,5.854,5.854,0,0,1,.66,3.06,17.479,17.479,0,0,1-1.584,6.624,36.684,36.684,0,0,1-4.3,7.464,2.785,2.785,0,0,0,.552,1.4,1.3,1.3,0,0,0,1.008.42A2.781,2.781,0,0,0,7.7,69.916a13.169,13.169,0,0,0,1.9-1.932A.842.842,0,0,1,10.248,67.648ZM7.3,52.816q-.552,0-1.248,1.992a32.736,32.736,0,0,0-1.224,4.944,35.789,35.789,0,0,0-.576,5.664A30.93,30.93,0,0,0,6.96,59.788,15.428,15.428,0,0,0,7.968,54.64Q7.968,52.816,7.3,52.816ZM19.68,67.648a.555.555,0,0,1,.492.288,1.489,1.489,0,0,1,.18.792,2.207,2.207,0,0,1-.456,1.488,8.768,8.768,0,0,1-2.508,1.992,6.957,6.957,0,0,1-3.468.912,5.344,5.344,0,0,1-3.912-1.368,5.01,5.01,0,0,1-1.392-3.744,6.945,6.945,0,0,1,.7-3.084,5.7,5.7,0,0,1,1.932-2.268,4.859,4.859,0,0,1,2.8-.84,3.041,3.041,0,0,1,2.232.828,3.008,3.008,0,0,1,.84,2.244,3.88,3.88,0,0,1-1.188,2.844,8.591,8.591,0,0,1-4.02,1.884,2.357,2.357,0,0,0,2.28,1.1,5.249,5.249,0,0,0,2.46-.756,8.124,8.124,0,0,0,2.388-1.98A.842.842,0,0,1,19.68,67.648Zm-6.048-3.48a1.759,1.759,0,0,0-1.5,1.032,4.81,4.81,0,0,0-.612,2.5v.048a5.454,5.454,0,0,0,2.232-1.008,1.981,1.981,0,0,0,.816-1.56,1.043,1.043,0,0,0-.252-.732A.88.88,0,0,0,13.632,64.168Zm18.1,3.48a.555.555,0,0,1,.492.288,1.489,1.489,0,0,1,.18.792,2.207,2.207,0,0,1-.456,1.488A12.658,12.658,0,0,1,29.676,72.3a4.507,4.507,0,0,1-2.652.816,2.333,2.333,0,0,1-1.848-.708,3.012,3.012,0,0,1-.624-2.052,14.984,14.984,0,0,1,.336-2.4,12.42,12.42,0,0,0,.312-2.088q0-.384-.264-.384-.312,0-.888.8A11.793,11.793,0,0,0,22.9,68.416,17.239,17.239,0,0,0,21.96,71.2,2.17,2.17,0,0,1,19.7,73.12a.927.927,0,0,1-.948-.516,5.172,5.172,0,0,1-.228-1.86q0-.768.024-1.224l.024-1.92a41.568,41.568,0,0,1,.756-7.7,23.151,23.151,0,0,1,2.232-6.732Q23.04,50.44,25.1,50.44a2.109,2.109,0,0,1,1.788.948,4.106,4.106,0,0,1,.684,2.46,10.517,10.517,0,0,1-1.416,5.028,32.512,32.512,0,0,1-4.608,6.084q-.072,1.248-.072,2.568A13.773,13.773,0,0,1,23.244,64.2a6.884,6.884,0,0,1,1.92-1.836,3.513,3.513,0,0,1,1.74-.552,1.379,1.379,0,0,1,1.56,1.56,19.289,19.289,0,0,1-.528,3.384,16.656,16.656,0,0,0-.456,2.76q0,.96.7.96a1.875,1.875,0,0,0,1.14-.588,19.262,19.262,0,0,0,1.764-1.908A.842.842,0,0,1,31.728,67.648ZM24.6,52.816q-.432,0-.96,1.236a20.944,20.944,0,0,0-1.02,3.336,44.549,44.549,0,0,0-.8,4.572,17.175,17.175,0,0,0,2.46-3.816,8.911,8.911,0,0,0,.972-3.744,3.213,3.213,0,0,0-.168-1.176Q24.912,52.816,24.6,52.816ZM41.16,67.648a.555.555,0,0,1,.492.288,1.489,1.489,0,0,1,.18.792,2.207,2.207,0,0,1-.456,1.488,8.768,8.768,0,0,1-2.508,1.992,6.957,6.957,0,0,1-3.468.912,5.344,5.344,0,0,1-3.912-1.368A5.01,5.01,0,0,1,30.1,68.008a6.945,6.945,0,0,1,.7-3.084,5.7,5.7,0,0,1,1.932-2.268,4.859,4.859,0,0,1,2.8-.84,3.041,3.041,0,0,1,2.232.828,3.008,3.008,0,0,1,.84,2.244A3.88,3.88,0,0,1,37.4,67.732a8.59,8.59,0,0,1-4.02,1.884,2.357,2.357,0,0,0,2.28,1.1,5.249,5.249,0,0,0,2.46-.756,8.124,8.124,0,0,0,2.388-1.98A.842.842,0,0,1,41.16,67.648Zm-6.048-3.48a1.759,1.759,0,0,0-1.5,1.032A4.81,4.81,0,0,0,33,67.7v.048a5.454,5.454,0,0,0,2.232-1.008,1.981,1.981,0,0,0,.816-1.56,1.043,1.043,0,0,0-.252-.732A.88.88,0,0,0,35.112,64.168Zm15.48,3.48a.555.555,0,0,1,.492.288,1.489,1.489,0,0,1,.18.792,2.207,2.207,0,0,1-.456,1.488A10.209,10.209,0,0,1,48.552,72.3a4.945,4.945,0,0,1-2.808.816q-4.9,0-4.9-6.888,0-1.056.072-2.136h-.936a1.346,1.346,0,0,1-.972-.264,1.185,1.185,0,0,1-.252-.84q0-1.344,1.08-1.344h1.368a23.356,23.356,0,0,1,1.248-4.824,10.884,10.884,0,0,1,2.028-3.48,3.457,3.457,0,0,1,2.556-1.3,1.8,1.8,0,0,1,1.584.888,4.024,4.024,0,0,1,.576,2.232,8.408,8.408,0,0,1-3.12,6.48h2.688a.759.759,0,0,1,.552.168.883.883,0,0,1,.168.624q0,1.656-2.712,1.656H43.848q-.048,1.2-.048,1.872a7.467,7.467,0,0,0,.588,3.5,2,2,0,0,0,1.86,1.008,2.865,2.865,0,0,0,1.824-.624,14.562,14.562,0,0,0,1.872-1.872A.842.842,0,0,1,50.592,67.648Zm-4.2-13.3q-.36,0-.8.9a12.8,12.8,0,0,0-.84,2.5,33.458,33.458,0,0,0-.66,3.54,8.2,8.2,0,0,0,2.124-2.748,6.664,6.664,0,0,0,.708-2.772Q46.92,54.352,46.392,54.352ZM53.376,73.12a4.055,4.055,0,0,1-2.412-.708,4.4,4.4,0,0,1-1.5-1.86,6.1,6.1,0,0,1-.5-2.472,7.438,7.438,0,0,1,.684-3.252A5.522,5.522,0,0,1,51.5,62.6a4.571,4.571,0,0,1,2.64-.8,4.109,4.109,0,0,1,2.424.708,4.364,4.364,0,0,1,1.512,1.86,6.1,6.1,0,0,1,.5,2.472,7.329,7.329,0,0,1-.7,3.252A5.573,5.573,0,0,1,56,72.316,4.587,4.587,0,0,1,53.376,73.12Zm.264-2.592a1.626,1.626,0,0,0,1.38-.888,4.87,4.87,0,0,0,.564-2.592,3.42,3.42,0,0,0-.48-1.992,1.393,1.393,0,0,0-1.152-.672,1.661,1.661,0,0,0-1.428.876,4.86,4.86,0,0,0-.564,2.6,3.4,3.4,0,0,0,.48,2.016A1.443,1.443,0,0,0,53.64,70.528Zm-1.3-10.272A.833.833,0,0,1,51.732,60a.862.862,0,0,1-.252-.636,1.233,1.233,0,0,1,.072-.384l1.536-5.016A1.363,1.363,0,0,1,53.6,53.2a1.4,1.4,0,0,1,.828-.264,1.627,1.627,0,0,1,1.1.42,1.383,1.383,0,0,1,.48,1.092,2.244,2.244,0,0,1-.36,1.152l-2.472,4.128a.991.991,0,0,1-.372.4A.923.923,0,0,1,52.344,60.256Zm4.344,0A.833.833,0,0,1,56.076,60a.862.862,0,0,1-.252-.636,1.233,1.233,0,0,1,.072-.384l1.536-5.016a1.363,1.363,0,0,1,.516-.768,1.4,1.4,0,0,1,.828-.264,1.627,1.627,0,0,1,1.1.42,1.383,1.383,0,0,1,.48,1.092A2.244,2.244,0,0,1,60,55.6l-2.472,4.128a.991.991,0,0,1-.372.4A.923.923,0,0,1,56.688,60.256Zm7.848,13.392a2.818,2.818,0,0,1-1.908-.576,1.7,1.7,0,0,1-.66-1.3,1.476,1.476,0,0,1,.456-1.08,1.822,1.822,0,0,1,1.344-.456,5.266,5.266,0,0,1,.732.06q.42.06.636.084a3.09,3.09,0,0,0-.276-1.176,5.875,5.875,0,0,0-.636-1.068q-.384-.516-.72-.9a15.681,15.681,0,0,1-1.476,2.352,17.579,17.579,0,0,1-1.6,1.776,1.285,1.285,0,0,1-.912.432.788.788,0,0,1-.624-.276,1,1,0,0,1-.24-.684,1.368,1.368,0,0,1,.336-.888l.312-.384A31.017,31.017,0,0,0,61.3,66.88q.408-.7.96-1.86t1.08-2.412a1.847,1.847,0,0,1,1.9-1.056,2.518,2.518,0,0,1,.936.12.4.4,0,0,1,.264.384,1.766,1.766,0,0,1-.1.456,3.469,3.469,0,0,1-.264.624A3.422,3.422,0,0,0,65.64,64.6a1.6,1.6,0,0,0,.252.792,8.989,8.989,0,0,0,.78,1.08,15.247,15.247,0,0,1,1.164,1.716,3.118,3.118,0,0,1,.4,1.548,6.5,6.5,0,0,1-.048.672,7.653,7.653,0,0,0,2.76-2.424.842.842,0,0,1,.648-.336.555.555,0,0,1,.492.288,1.489,1.489,0,0,1,.18.792,2.325,2.325,0,0,1-.456,1.488,7.319,7.319,0,0,1-2.292,2.028,6.506,6.506,0,0,1-2.7.588A3.407,3.407,0,0,1,64.536,73.648Zm16.488-6a.555.555,0,0,1,.492.288,1.489,1.489,0,0,1,.18.792,2.207,2.207,0,0,1-.456,1.488,8.768,8.768,0,0,1-2.508,1.992,6.957,6.957,0,0,1-3.468.912,5.344,5.344,0,0,1-3.912-1.368,5.01,5.01,0,0,1-1.392-3.744,6.945,6.945,0,0,1,.7-3.084,5.7,5.7,0,0,1,1.932-2.268,4.859,4.859,0,0,1,2.8-.84,3.041,3.041,0,0,1,2.232.828,3.008,3.008,0,0,1,.84,2.244,3.88,3.88,0,0,1-1.188,2.844,8.591,8.591,0,0,1-4.02,1.884,2.357,2.357,0,0,0,2.28,1.1,5.249,5.249,0,0,0,2.46-.756,8.125,8.125,0,0,0,2.388-1.98A.842.842,0,0,1,81.024,67.648Zm-6.048-3.48a1.759,1.759,0,0,0-1.5,1.032,4.81,4.81,0,0,0-.612,2.5v.048A5.454,5.454,0,0,0,75.1,66.736a1.981,1.981,0,0,0,.816-1.56,1.043,1.043,0,0,0-.252-.732A.88.88,0,0,0,74.976,64.168Zm.624-3.936a.806.806,0,0,1-.588-.252.833.833,0,0,1-.252-.612,1.28,1.28,0,0,1,.12-.456l2.232-4.992a1.6,1.6,0,0,1,.564-.708,1.392,1.392,0,0,1,.78-.228,1.531,1.531,0,0,1,1.068.432,1.409,1.409,0,0,1,.468,1.08,2.174,2.174,0,0,1-.528,1.344l-3.1,3.984A.936.936,0,0,1,75.6,60.232ZM91.92,67.7a.551.551,0,0,1,.492.3,1.449,1.449,0,0,1,.18.756,1.841,1.841,0,0,1-.168.864,1.567,1.567,0,0,1-.528.552q-2.064,1.392-3.024,2.064l-1.536,1.032a28.53,28.53,0,0,1-2.388,7.812q-1.476,2.844-3.756,2.844a2.718,2.718,0,0,1-1.992-.756,2.655,2.655,0,0,1-.768-1.98,6.567,6.567,0,0,1,1.344-3.66,24.382,24.382,0,0,1,5.04-4.812l.144-.936a2.9,2.9,0,0,1-2.376,1.344,2.919,2.919,0,0,1-2.376-1.08,4.316,4.316,0,0,1-.888-2.832,7.8,7.8,0,0,1,.888-3.636,7.58,7.58,0,0,1,2.364-2.76A5.331,5.331,0,0,1,85.7,61.768a.935.935,0,0,1,.708.2,1.724,1.724,0,0,1,.3.732,5.167,5.167,0,0,1,1.056-.1,1.515,1.515,0,0,1,.852.18.823.823,0,0,1,.252.708,3.39,3.39,0,0,1-.024.456q-.1.744-.6,3.768-.1.576-.2,1.26t-.228,1.452q1.848-1.44,3.552-2.544A1.09,1.09,0,0,1,91.92,67.7Zm-8.472,3a1.376,1.376,0,0,0,1.056-.672,4.465,4.465,0,0,0,.72-1.92l.768-4.1a2.834,2.834,0,0,0-1.824.756,5.159,5.159,0,0,0-1.344,1.932,6.5,6.5,0,0,0-.5,2.544,1.7,1.7,0,0,0,.3,1.1A1.02,1.02,0,0,0,83.448,70.7Zm-1.992,10.9q.6,0,1.356-1.44a19.731,19.731,0,0,0,1.452-4.584A13.945,13.945,0,0,0,81.6,78.424a4.306,4.306,0,0,0-.816,2.232,1.306,1.306,0,0,0,.156.672A.552.552,0,0,0,81.456,81.592Zm20.376-13.944a.555.555,0,0,1,.492.288,1.489,1.489,0,0,1,.18.792,2.207,2.207,0,0,1-.456,1.488,8.768,8.768,0,0,1-2.508,1.992,6.957,6.957,0,0,1-3.468.912,5.344,5.344,0,0,1-3.912-1.368,5.01,5.01,0,0,1-1.392-3.744,6.945,6.945,0,0,1,.7-3.084A5.7,5.7,0,0,1,93.4,62.656a4.859,4.859,0,0,1,2.8-.84,3.041,3.041,0,0,1,2.232.828,3.008,3.008,0,0,1,.84,2.244,3.88,3.88,0,0,1-1.188,2.844,8.591,8.591,0,0,1-4.02,1.884,2.357,2.357,0,0,0,2.28,1.1,5.249,5.249,0,0,0,2.46-.756,8.125,8.125,0,0,0,2.388-1.98A.842.842,0,0,1,101.832,67.648Zm-6.048-3.48a1.759,1.759,0,0,0-1.5,1.032,4.81,4.81,0,0,0-.612,2.5v.048A5.454,5.454,0,0,0,95.9,66.736a1.981,1.981,0,0,0,.816-1.56,1.043,1.043,0,0,0-.252-.732A.88.88,0,0,0,95.784,64.168Zm8.736-.072q-.048,1.2-.048,1.872a15.656,15.656,0,0,0,.18,2.7,2.626,2.626,0,0,0,.6,1.392,1.573,1.573,0,0,0,1.164.42,2.274,2.274,0,0,0,.912-.24,3.809,3.809,0,0,0,.96-.624.792.792,0,0,1,.528-.24.532.532,0,0,1,.468.324,1.583,1.583,0,0,1,.18.78,2.288,2.288,0,0,1-.18.888,1.787,1.787,0,0,1-.54.72,4.323,4.323,0,0,1-2.832,1.032,3.544,3.544,0,0,1-3.336-1.908,10.246,10.246,0,0,1-1.056-4.98q0-1.056.072-2.136h-.936a1.346,1.346,0,0,1-.972-.264,1.185,1.185,0,0,1-.252-.84q0-1.344,1.08-1.344h1.368a23.356,23.356,0,0,1,1.248-4.824,10.883,10.883,0,0,1,2.028-3.48,3.457,3.457,0,0,1,2.556-1.3,1.8,1.8,0,0,1,1.584.888,4.024,4.024,0,0,1,.576,2.232,8.408,8.408,0,0,1-3.12,6.48h2.688a.759.759,0,0,1,.552.168.883.883,0,0,1,.168.624q0,1.656-2.712,1.656Zm2.544-9.744q-.36,0-.8.9a12.805,12.805,0,0,0-.84,2.5,33.459,33.459,0,0,0-.66,3.54,8.2,8.2,0,0,0,2.124-2.748,6.664,6.664,0,0,0,.708-2.772Q107.592,54.352,107.064,54.352Zm14.232,19.3a2.818,2.818,0,0,1-1.908-.576,1.7,1.7,0,0,1-.66-1.3,1.476,1.476,0,0,1,.456-1.08,1.822,1.822,0,0,1,1.344-.456,5.266,5.266,0,0,1,.732.06q.42.06.636.084a3.09,3.09,0,0,0-.276-1.176,5.875,5.875,0,0,0-.636-1.068q-.384-.516-.72-.9a15.681,15.681,0,0,1-1.476,2.352,17.579,17.579,0,0,1-1.6,1.776,1.285,1.285,0,0,1-.912.432.788.788,0,0,1-.624-.276,1,1,0,0,1-.24-.684,1.368,1.368,0,0,1,.336-.888l.312-.384a31.017,31.017,0,0,0,1.992-2.688q.408-.7.96-1.86t1.08-2.412a1.847,1.847,0,0,1,1.9-1.056,2.518,2.518,0,0,1,.936.12.4.4,0,0,1,.264.384,1.766,1.766,0,0,1-.1.456,3.469,3.469,0,0,1-.264.624A3.422,3.422,0,0,0,122.4,64.6a1.6,1.6,0,0,0,.252.792,8.989,8.989,0,0,0,.78,1.08,15.247,15.247,0,0,1,1.164,1.716,3.118,3.118,0,0,1,.4,1.548,6.5,6.5,0,0,1-.048.672,7.653,7.653,0,0,0,2.76-2.424.842.842,0,0,1,.648-.336.555.555,0,0,1,.492.288,1.489,1.489,0,0,1,.18.792,2.325,2.325,0,0,1-.456,1.488,7.319,7.319,0,0,1-2.292,2.028,6.506,6.506,0,0,1-2.7.588A3.407,3.407,0,0,1,121.3,73.648Zm17.28-6a.555.555,0,0,1,.492.288,1.489,1.489,0,0,1,.18.792,2.388,2.388,0,0,1-.456,1.488,8.058,8.058,0,0,1-2.8,2.3,8.233,8.233,0,0,1-3.756.84,7.439,7.439,0,0,1-2.832-.492,4.217,4.217,0,0,1-1.836-1.344,3.112,3.112,0,0,1-.636-1.908,3.8,3.8,0,0,1,1.272-2.808,13.82,13.82,0,0,1,3.648-2.352l-3.936.1a.866.866,0,0,1-.8-.372,1.616,1.616,0,0,1-.276-.948,1.892,1.892,0,0,1,.276-1.02.851.851,0,0,1,.756-.444q1.1,0,2.952.168.384.024,1.4.1t1.716.072a4.136,4.136,0,0,0,.912-.192q.12-.024.468-.12a2.28,2.28,0,0,1,.588-.1.765.765,0,0,1,.636.336,1.72,1.72,0,0,1,.252,1.032,1.821,1.821,0,0,1-.36,1.2,3.021,3.021,0,0,1-1.128.768,18,18,0,0,0-3.624,2,2.863,2.863,0,0,0-1.44,2.124,1.3,1.3,0,0,0,.624,1.1,3.251,3.251,0,0,0,1.848.432,6.187,6.187,0,0,0,2.724-.672,7.325,7.325,0,0,0,2.484-2.04A.842.842,0,0,1,138.576,67.648Zm9.408,0a.555.555,0,0,1,.492.288,1.489,1.489,0,0,1,.18.792,2.207,2.207,0,0,1-.456,1.488,8.768,8.768,0,0,1-2.508,1.992,6.957,6.957,0,0,1-3.468.912,5.344,5.344,0,0,1-3.912-1.368,5.01,5.01,0,0,1-1.392-3.744,6.945,6.945,0,0,1,.7-3.084,5.7,5.7,0,0,1,1.932-2.268,4.859,4.859,0,0,1,2.8-.84,3.041,3.041,0,0,1,2.232.828,3.008,3.008,0,0,1,.84,2.244,3.88,3.88,0,0,1-1.188,2.844,8.591,8.591,0,0,1-4.02,1.884,2.357,2.357,0,0,0,2.28,1.1,5.249,5.249,0,0,0,2.46-.756,8.125,8.125,0,0,0,2.388-1.98A.842.842,0,0,1,147.984,67.648Zm-6.048-3.48a1.759,1.759,0,0,0-1.5,1.032,4.81,4.81,0,0,0-.612,2.5v.048a5.454,5.454,0,0,0,2.232-1.008,1.981,1.981,0,0,0,.816-1.56,1.043,1.043,0,0,0-.252-.732A.88.88,0,0,0,141.936,64.168Zm6.48,8.952a1.311,1.311,0,0,1-1.284-.96,9.2,9.2,0,0,1-.372-3.072,19.545,19.545,0,0,1,.888-5.928,1.805,1.805,0,0,1,.708-1.02,2.5,2.5,0,0,1,1.38-.324,1.352,1.352,0,0,1,.672.12.5.5,0,0,1,.192.456,9.149,9.149,0,0,1-.36,1.728q-.24.96-.384,1.68a17.222,17.222,0,0,0-.24,1.776,13.646,13.646,0,0,1,1.776-3.36,6.964,6.964,0,0,1,1.932-1.848,3.513,3.513,0,0,1,1.74-.552,1.379,1.379,0,0,1,1.56,1.56,12.058,12.058,0,0,1-.216,1.512,8.842,8.842,0,0,0-.192,1.2q0,.84.6.84a2.884,2.884,0,0,0,1.728-1.056.919.919,0,0,1,.648-.312.559.559,0,0,1,.492.276,1.322,1.322,0,0,1,.18.732,1.936,1.936,0,0,1-.48,1.392,6.5,6.5,0,0,1-1.572,1.188,3.919,3.919,0,0,1-1.908.492,2.648,2.648,0,0,1-1.932-.648,2.343,2.343,0,0,1-.66-1.752,3.663,3.663,0,0,1,.072-.72q.048-.48.048-.648,0-.384-.264-.384-.36,0-.948.8a11.283,11.283,0,0,0-1.164,2.124,17.24,17.24,0,0,0-.936,2.784,3.742,3.742,0,0,1-.612,1.524A1.381,1.381,0,0,1,148.416,73.12Zm19.92-5.472a.555.555,0,0,1,.492.288,1.489,1.489,0,0,1,.18.792,2.207,2.207,0,0,1-.456,1.488,8.768,8.768,0,0,1-2.508,1.992,6.957,6.957,0,0,1-3.468.912,5.344,5.344,0,0,1-3.912-1.368,5.01,5.01,0,0,1-1.392-3.744,6.945,6.945,0,0,1,.7-3.084,5.7,5.7,0,0,1,1.932-2.268,4.859,4.859,0,0,1,2.8-.84,3.041,3.041,0,0,1,2.232.828,3.008,3.008,0,0,1,.84,2.244,3.88,3.88,0,0,1-1.188,2.844,8.591,8.591,0,0,1-4.02,1.884,2.357,2.357,0,0,0,2.28,1.1,5.249,5.249,0,0,0,2.46-.756,8.124,8.124,0,0,0,2.388-1.98A.842.842,0,0,1,168.336,67.648Zm-6.048-3.48a1.759,1.759,0,0,0-1.5,1.032,4.81,4.81,0,0,0-.612,2.5v.048a5.454,5.454,0,0,0,2.232-1.008,1.981,1.981,0,0,0,.816-1.56,1.043,1.043,0,0,0-.252-.732A.88.88,0,0,0,162.288,64.168Zm15.48,3.48a.555.555,0,0,1,.492.288,1.489,1.489,0,0,1,.18.792,2.207,2.207,0,0,1-.456,1.488,10.21,10.21,0,0,1-2.256,2.088,4.945,4.945,0,0,1-2.808.816q-4.9,0-4.9-6.888,0-1.056.072-2.136h-.936a1.346,1.346,0,0,1-.972-.264,1.185,1.185,0,0,1-.252-.84q0-1.344,1.08-1.344h1.368a23.357,23.357,0,0,1,1.248-4.824,10.883,10.883,0,0,1,2.028-3.48,3.457,3.457,0,0,1,2.556-1.3,1.8,1.8,0,0,1,1.584.888,4.024,4.024,0,0,1,.576,2.232,8.408,8.408,0,0,1-3.12,6.48h2.688a.759.759,0,0,1,.552.168.883.883,0,0,1,.168.624q0,1.656-2.712,1.656h-2.928q-.048,1.2-.048,1.872a7.467,7.467,0,0,0,.588,3.5,2,2,0,0,0,1.86,1.008,2.865,2.865,0,0,0,1.824-.624,14.561,14.561,0,0,0,1.872-1.872A.842.842,0,0,1,177.768,67.648Zm-4.2-13.3q-.36,0-.8.9a12.8,12.8,0,0,0-.84,2.5,33.459,33.459,0,0,0-.66,3.54,8.2,8.2,0,0,0,2.124-2.748,6.664,6.664,0,0,0,.708-2.772Q174.1,54.352,173.568,54.352ZM178.2,73.12a1.311,1.311,0,0,1-1.284-.96,9.2,9.2,0,0,1-.372-3.072,19.545,19.545,0,0,1,.888-5.928,1.805,1.805,0,0,1,.708-1.02,2.5,2.5,0,0,1,1.38-.324,1.352,1.352,0,0,1,.672.12.5.5,0,0,1,.192.456,9.149,9.149,0,0,1-.36,1.728q-.24.96-.384,1.68a17.213,17.213,0,0,0-.24,1.776,13.646,13.646,0,0,1,1.776-3.36,6.964,6.964,0,0,1,1.932-1.848,3.513,3.513,0,0,1,1.74-.552,1.379,1.379,0,0,1,1.56,1.56,19.288,19.288,0,0,1-.528,3.384,16.656,16.656,0,0,0-.456,2.76q0,.96.7.96a1.875,1.875,0,0,0,1.14-.588,19.262,19.262,0,0,0,1.764-1.908.842.842,0,0,1,.648-.336.555.555,0,0,1,.492.288,1.489,1.489,0,0,1,.18.792,2.207,2.207,0,0,1-.456,1.488,10.622,10.622,0,0,1-2.22,2.088,4.656,4.656,0,0,1-2.7.816,2.333,2.333,0,0,1-1.848-.708,3.012,3.012,0,0,1-.624-2.052,14.982,14.982,0,0,1,.336-2.4,12.421,12.421,0,0,0,.312-2.088q0-.384-.264-.384-.312,0-.876.8a12.887,12.887,0,0,0-1.152,2.124A16.522,16.522,0,0,0,179.9,71.2a3.742,3.742,0,0,1-.612,1.524A1.381,1.381,0,0,1,178.2,73.12Zm20.9-5.472a.555.555,0,0,1,.492.288,1.489,1.489,0,0,1,.18.792,2.207,2.207,0,0,1-.456,1.488,8.768,8.768,0,0,1-2.508,1.992,6.957,6.957,0,0,1-3.468.912,5.344,5.344,0,0,1-3.912-1.368,5.01,5.01,0,0,1-1.392-3.744,6.945,6.945,0,0,1,.7-3.084,5.7,5.7,0,0,1,1.932-2.268,4.859,4.859,0,0,1,2.8-.84,3.041,3.041,0,0,1,2.232.828,3.008,3.008,0,0,1,.84,2.244,3.88,3.88,0,0,1-1.188,2.844,8.591,8.591,0,0,1-4.02,1.884,2.357,2.357,0,0,0,2.28,1.1,5.249,5.249,0,0,0,2.46-.756,8.125,8.125,0,0,0,2.388-1.98A.842.842,0,0,1,199.1,67.648Zm-6.048-3.48a1.759,1.759,0,0,0-1.5,1.032,4.81,4.81,0,0,0-.612,2.5v.048a5.454,5.454,0,0,0,2.232-1.008,1.981,1.981,0,0,0,.816-1.56,1.043,1.043,0,0,0-.252-.732A.88.88,0,0,0,193.056,64.168Zm.624-3.936a.806.806,0,0,1-.588-.252.833.833,0,0,1-.252-.612,1.28,1.28,0,0,1,.12-.456l2.232-4.992a1.6,1.6,0,0,1,.564-.708,1.392,1.392,0,0,1,.78-.228,1.531,1.531,0,0,1,1.068.432,1.409,1.409,0,0,1,.468,1.08,2.174,2.174,0,0,1-.528,1.344l-3.1,3.984A.936.936,0,0,1,193.68,60.232ZM208.032,70.5a1.04,1.04,0,0,1,.984,1.08,1.387,1.387,0,0,1-.54,1.068,2.3,2.3,0,0,1-1.548.468,3.863,3.863,0,0,1-2.82-1.068,3.736,3.736,0,0,1-1.092-2.8,1.388,1.388,0,0,1,.96-1.344,4.283,4.283,0,0,0,1.512-.972,1.835,1.835,0,0,0,.456-1.26.994.994,0,0,0-.18-.648.556.556,0,0,0-.444-.216,2.078,2.078,0,0,0-1.428.936,10.672,10.672,0,0,0-1.452,2.412,17.28,17.28,0,0,0-1.056,3.036,3.742,3.742,0,0,1-.612,1.524,1.381,1.381,0,0,1-1.092.4,1.205,1.205,0,0,1-1.092-.54,3.931,3.931,0,0,1-.468-1.668Q198,69.784,198,67.6a41.568,41.568,0,0,1,.756-7.7,23.152,23.152,0,0,1,2.232-6.732q1.476-2.724,3.54-2.724a2.109,2.109,0,0,1,1.788.948,4.106,4.106,0,0,1,.684,2.46,10.517,10.517,0,0,1-1.416,5.028,32.512,32.512,0,0,1-4.608,6.084q-.072,1.248-.072,2.568a11.365,11.365,0,0,1,2.64-4.356,4.306,4.306,0,0,1,2.784-1.356,2.47,2.47,0,0,1,1.932.816,2.909,2.909,0,0,1,.732,2.016,4.574,4.574,0,0,1-.672,2.424,5.747,5.747,0,0,1-2.3,1.968,1.43,1.43,0,0,0,.588,1A4.466,4.466,0,0,0,208.032,70.5Zm-4.008-17.688q-.432,0-.96,1.236a20.944,20.944,0,0,0-1.02,3.336,44.547,44.547,0,0,0-.8,4.572,17.175,17.175,0,0,0,2.46-3.816,8.911,8.911,0,0,0,.972-3.744,3.213,3.213,0,0,0-.168-1.176Q204.336,52.816,204.024,52.816Z" transform="translate(492 75)" fill="#454347"/><g transform="translate(-2142 224)"><g transform="translate(2293 -1288)"><path d="M394.476,639.1H532.493a28.43,28.43,0,0,0,28.346-28.346V585.558a28.43,28.43,0,0,0-28.346-28.346H378.555a28.43,28.43,0,0,0-28.346,28.346l12.9,18.667c0,11.009-6.533,27.121,2.694,31.81l-20.7,19.674Z" transform="translate(-254 524)" fill="#ffc449" stroke="#3a3939" stroke-linecap="round" stroke-linejoin="round" stroke-width="6"/><path d="M384.271,625.49H522.288a28.43,28.43,0,0,0,28.347-28.347V571.952a28.43,28.43,0,0,0-28.347-28.346H368.35A28.43,28.43,0,0,0,340,571.952v25.191a28.421,28.421,0,0,0,15.59,25.286l-10.319,32.8Z" transform="translate(-254 524)" fill="#fff" stroke="#3a3939" stroke-linecap="round" stroke-linejoin="round" stroke-width="6"/><g transform="translate(-254 524)"><path d="M369.791,580.632V564.648h4.229V570.6h.1l4.032-5.951h4.623L378,571.14l5.705,9.492h-4.623l-3.541-6.148-1.525,2.164v3.984Z" fill="#002660" stroke="#002660" stroke-miterlimit="10" stroke-width="0.5"/><path d="M391.97,580.927a7.858,7.858,0,0,1-3.036-.566,6.462,6.462,0,0,1-2.337-1.634,7.526,7.526,0,0,1-1.511-2.632,10.705,10.705,0,0,1-.541-3.529,10.48,10.48,0,0,1,.541-3.5,7.292,7.292,0,0,1,1.511-2.583,6.32,6.32,0,0,1,2.337-1.585,8.761,8.761,0,0,1,6.062,0,6.238,6.238,0,0,1,2.347,1.6,7.452,7.452,0,0,1,1.513,2.582,10.435,10.435,0,0,1,.541,3.492,10.757,10.757,0,0,1-.541,3.529,7.529,7.529,0,0,1-1.513,2.632A6.431,6.431,0,0,1,395,580.361,7.9,7.9,0,0,1,391.97,580.927Zm-2.8-17.786a1.832,1.832,0,0,1-1.39-.553,2.028,2.028,0,0,1,0-2.73,2.022,2.022,0,0,1,2.779,0,2.026,2.026,0,0,1,0,2.73A1.834,1.834,0,0,1,389.168,563.141Zm2.8,14.146a2.581,2.581,0,0,0,2.276-1.265,6.288,6.288,0,0,0,.823-3.456,5.9,5.9,0,0,0-.823-3.38,2.764,2.764,0,0,0-4.55,0,5.9,5.9,0,0,0-.823,3.38,6.288,6.288,0,0,0,.823,3.456A2.578,2.578,0,0,0,391.97,577.287Zm2.8-14.146a1.835,1.835,0,0,1-1.39-.553,2.028,2.028,0,0,1,0-2.73,2.023,2.023,0,0,1,2.78,0,2.029,2.029,0,0,1,0,2.73A1.838,1.838,0,0,1,394.774,563.141Z" fill="#002660" stroke="#002660" stroke-miterlimit="10" stroke-width="0.5"/><path d="M401.512,580.632v-2.558l6.541-9.885h-5.9v-3.541h11.115v2.558l-6.541,9.885h6.59v3.541Z" fill="#002660" stroke="#002660" stroke-miterlimit="10" stroke-width="0.5"/><path d="M422.806,580.927a7.858,7.858,0,0,1-3.036-.566,6.461,6.461,0,0,1-2.337-1.634,7.526,7.526,0,0,1-1.511-2.632,10.7,10.7,0,0,1-.542-3.529,10.48,10.48,0,0,1,.542-3.5,7.291,7.291,0,0,1,1.511-2.583,6.319,6.319,0,0,1,2.337-1.585,8.761,8.761,0,0,1,6.062,0,6.238,6.238,0,0,1,2.347,1.6,7.452,7.452,0,0,1,1.513,2.582,10.435,10.435,0,0,1,.541,3.492,10.757,10.757,0,0,1-.541,3.529,7.529,7.529,0,0,1-1.513,2.632,6.431,6.431,0,0,1-2.347,1.634A7.9,7.9,0,0,1,422.806,580.927ZM420,563.141a1.832,1.832,0,0,1-1.39-.553,2.028,2.028,0,0,1,0-2.73,2.022,2.022,0,0,1,2.779,0,2.026,2.026,0,0,1,0,2.73A1.834,1.834,0,0,1,420,563.141Zm2.8,14.146a2.581,2.581,0,0,0,2.276-1.265,6.3,6.3,0,0,0,.823-3.456,5.908,5.908,0,0,0-.823-3.38,2.764,2.764,0,0,0-4.55,0,5.9,5.9,0,0,0-.823,3.38,6.288,6.288,0,0,0,.823,3.456A2.577,2.577,0,0,0,422.806,577.287Zm2.8-14.146a1.835,1.835,0,0,1-1.39-.553,2.028,2.028,0,0,1,0-2.73,2.023,2.023,0,0,1,2.78,0,2.028,2.028,0,0,1,0,2.73A1.838,1.838,0,0,1,425.61,563.141Z" fill="#002660" stroke="#002660" stroke-miterlimit="10" stroke-width="0.5"/><path d="M438.18,580.927a9.637,9.637,0,0,1-3.135-.553,8.337,8.337,0,0,1-2.914-1.734l2.409-2.9a8.12,8.12,0,0,0,1.857,1.119,4.729,4.729,0,0,0,1.881.43,2.517,2.517,0,0,0,1.39-.295.954.954,0,0,0,.43-.836.792.792,0,0,0-.148-.491,1.494,1.494,0,0,0-.431-.369,4.777,4.777,0,0,0-.675-.332q-.395-.16-.91-.357l-1.992-.835a5.936,5.936,0,0,1-1.229-.653,4.76,4.76,0,0,1-1.033-.959,4.428,4.428,0,0,1-.7-1.265,4.626,4.626,0,0,1-.257-1.575,4.305,4.305,0,0,1,.442-1.93,4.971,4.971,0,0,1,1.23-1.574,5.919,5.919,0,0,1,1.881-1.069,7.022,7.022,0,0,1,2.4-.393,8.108,8.108,0,0,1,2.791.515,6.888,6.888,0,0,1,2.52,1.623l-2.115,2.656a7.741,7.741,0,0,0-1.561-.861,4.442,4.442,0,0,0-1.635-.295,2.359,2.359,0,0,0-1.23.271.889.889,0,0,0-.443.811.954.954,0,0,0,.628.873q.627.307,1.733.726l1.943.763a5.235,5.235,0,0,1,2.311,1.647,4.357,4.357,0,0,1,.812,2.73,4.736,4.736,0,0,1-1.636,3.577,6.061,6.061,0,0,1-1.954,1.119A7.81,7.81,0,0,1,438.18,580.927Z" fill="#002660" stroke="#002660" stroke-miterlimit="10" stroke-width="0.5"/><path d="M452.153,580.927a9.646,9.646,0,0,1-3.135-.553,8.337,8.337,0,0,1-2.914-1.734l2.409-2.9a8.148,8.148,0,0,0,1.858,1.119,4.729,4.729,0,0,0,1.881.43,2.516,2.516,0,0,0,1.389-.295.952.952,0,0,0,.43-.836.8.8,0,0,0-.147-.491,1.521,1.521,0,0,0-.431-.369,4.74,4.74,0,0,0-.676-.332q-.393-.16-.91-.357l-1.991-.835a5.944,5.944,0,0,1-1.23-.653,4.782,4.782,0,0,1-1.033-.959,4.425,4.425,0,0,1-.7-1.265,4.6,4.6,0,0,1-.258-1.575,4.306,4.306,0,0,1,.443-1.93,4.968,4.968,0,0,1,1.229-1.574,5.913,5.913,0,0,1,1.882-1.069,7.012,7.012,0,0,1,2.4-.393,8.1,8.1,0,0,1,2.791.515,6.883,6.883,0,0,1,2.521,1.623l-2.115,2.656a7.747,7.747,0,0,0-1.562-.861,4.442,4.442,0,0,0-1.635-.295,2.358,2.358,0,0,0-1.229.271.89.89,0,0,0-.444.811.954.954,0,0,0,.628.873q.627.307,1.734.726l1.942.763a5.238,5.238,0,0,1,2.312,1.647,4.357,4.357,0,0,1,.811,2.73,4.736,4.736,0,0,1-1.636,3.577,6.05,6.05,0,0,1-1.954,1.119A7.805,7.805,0,0,1,452.153,580.927Z" fill="#002660" stroke="#002660" stroke-miterlimit="10" stroke-width="0.5"/><path d="M461.552,580.632V564.648h10.329v3.541h-6.1V570.7h5.213v3.541h-5.213v2.853h6.345v3.541Zm5.164-16.574-1.869-2.115,4.476-3.541,2.213,2.705Z" fill="#002660" stroke="#002660" stroke-miterlimit="10" stroke-width="0.5"/><path d="M482.913,580.927a9.664,9.664,0,0,1-3.147-.5,6.917,6.917,0,0,1-4.291-4.082,10.418,10.418,0,0,1,.013-7.155,7.694,7.694,0,0,1,1.733-2.632,7.483,7.483,0,0,1,2.545-1.635,8.318,8.318,0,0,1,3.049-.565,6.953,6.953,0,0,1,3.061.626,7.9,7.9,0,0,1,2.153,1.488l-2.214,2.7a6.125,6.125,0,0,0-1.241-.849,3.641,3.641,0,0,0-4.316.9,4.13,4.13,0,0,0-.8,1.451,6.227,6.227,0,0,0-.282,1.942,5.271,5.271,0,0,0,1.008,3.468,3.907,3.907,0,0,0,3.172,1.2,3.117,3.117,0,0,0,.676-.073,1.608,1.608,0,0,0,.553-.222v-2.213h-2.36v-3.442h6.1v7.623a7.3,7.3,0,0,1-2.288,1.389A8.246,8.246,0,0,1,482.913,580.927Z" fill="#002660" stroke="#002660" stroke-miterlimit="10" stroke-width="0.5"/><path d="M491.876,580.632V564.648h4.229v15.984Z" fill="#002660" stroke="#002660" stroke-miterlimit="10" stroke-width="0.5"/></g><g transform="translate(-254 524)"><path d="M361.287,605.336V589.353h4.229v5.95h.1l4.032-5.95h4.623l-4.77,6.491,5.7,9.492h-4.623l-3.541-6.147-1.525,2.164v3.983Z" fill="#0098c6" stroke="#0098c6" stroke-miterlimit="10" stroke-width="0.5"/><path d="M383.466,605.631a7.857,7.857,0,0,1-3.036-.565,6.452,6.452,0,0,1-2.337-1.635,7.526,7.526,0,0,1-1.511-2.632,10.7,10.7,0,0,1-.541-3.528,10.482,10.482,0,0,1,.541-3.5,7.277,7.277,0,0,1,1.511-2.582,6.321,6.321,0,0,1,2.337-1.586,8.761,8.761,0,0,1,6.062,0,6.229,6.229,0,0,1,2.347,1.6,7.442,7.442,0,0,1,1.513,2.582,10.427,10.427,0,0,1,.541,3.492,10.756,10.756,0,0,1-.541,3.528,7.529,7.529,0,0,1-1.513,2.632,6.422,6.422,0,0,1-2.347,1.635A7.9,7.9,0,0,1,383.466,605.631Zm-2.8-17.785a1.834,1.834,0,0,1-1.39-.554,2.028,2.028,0,0,1,0-2.73,2.025,2.025,0,0,1,2.779,0,2.026,2.026,0,0,1,0,2.73A1.835,1.835,0,0,1,380.664,587.846Zm2.8,14.145a2.579,2.579,0,0,0,2.276-1.265,6.285,6.285,0,0,0,.823-3.455,5.906,5.906,0,0,0-.823-3.381,2.766,2.766,0,0,0-4.55,0,5.906,5.906,0,0,0-.823,3.381,6.285,6.285,0,0,0,.823,3.455A2.576,2.576,0,0,0,383.466,601.991Zm2.8-14.145a1.835,1.835,0,0,1-1.39-.554,2.028,2.028,0,0,1,0-2.73,2.026,2.026,0,0,1,2.78,0,2.028,2.028,0,0,1,0,2.73A1.838,1.838,0,0,1,386.27,587.846Z" fill="#0098c6" stroke="#0098c6" stroke-miterlimit="10" stroke-width="0.5"/><path d="M394.058,605.336V589.353h4.229v12.442h6.049v3.541Z" fill="#0098c6" stroke="#0098c6" stroke-miterlimit="10" stroke-width="0.5"/><path d="M407.926,605.336V592.894H403.7v-3.541h12.689v3.541h-4.23v12.442Z" fill="#0098c6" stroke="#0098c6" stroke-miterlimit="10" stroke-width="0.5"/><path d="M424.058,605.631a9.61,9.61,0,0,1-3.135-.553,8.337,8.337,0,0,1-2.914-1.734l2.409-2.9a8.129,8.129,0,0,0,1.858,1.119,4.743,4.743,0,0,0,1.88.429,2.519,2.519,0,0,0,1.39-.294.956.956,0,0,0,.43-.836.792.792,0,0,0-.148-.492,1.516,1.516,0,0,0-.43-.369,4.9,4.9,0,0,0-.676-.332q-.394-.159-.91-.356l-1.992-.836a5.916,5.916,0,0,1-1.229-.653,4.735,4.735,0,0,1-1.033-.959,4.4,4.4,0,0,1-.7-1.265,4.6,4.6,0,0,1-.258-1.574,4.309,4.309,0,0,1,.442-1.931,4.956,4.956,0,0,1,1.23-1.573,5.916,5.916,0,0,1,1.882-1.07,7.037,7.037,0,0,1,2.4-.393,8.126,8.126,0,0,1,2.791.515,6.89,6.89,0,0,1,2.521,1.624l-2.116,2.656a7.749,7.749,0,0,0-1.561-.862,4.44,4.44,0,0,0-1.635-.294,2.362,2.362,0,0,0-1.23.27.893.893,0,0,0-.443.812.955.955,0,0,0,.628.873q.627.308,1.733.725l1.943.763a5.234,5.234,0,0,1,2.311,1.647,4.359,4.359,0,0,1,.812,2.73,4.736,4.736,0,0,1-1.636,3.577,6.014,6.014,0,0,1-1.954,1.119A7.805,7.805,0,0,1,424.058,605.631Z" fill="#0098c6" stroke="#0098c6" stroke-miterlimit="10" stroke-width="0.5"/><path d="M433.6,605.336V589.353h10.328v3.541h-6.1V595.4h5.213v3.541h-5.213v2.852h6.345v3.541Zm5.164-16.574-1.869-2.114,4.475-3.541,2.213,2.705Z" fill="#0098c6" stroke="#0098c6" stroke-miterlimit="10" stroke-width="0.5"/><path d="M455.386,605.631a9.675,9.675,0,0,1-3.148-.5,6.91,6.91,0,0,1-4.291-4.082,10.418,10.418,0,0,1,.013-7.155,7.71,7.71,0,0,1,1.734-2.632,7.488,7.488,0,0,1,2.544-1.635,8.321,8.321,0,0,1,3.049-.565,6.943,6.943,0,0,1,3.062.627,7.888,7.888,0,0,1,2.152,1.487l-2.214,2.705a6.019,6.019,0,0,0-1.241-.848,3.872,3.872,0,0,0-3.111-.012,3.578,3.578,0,0,0-1.2.909,4.123,4.123,0,0,0-.8,1.451,6.2,6.2,0,0,0-.282,1.943,5.273,5.273,0,0,0,1.007,3.467,3.908,3.908,0,0,0,3.172,1.2,3.13,3.13,0,0,0,.677-.073,1.637,1.637,0,0,0,.553-.221v-2.213H454.7v-3.443h6.1v7.623a7.292,7.292,0,0,1-2.287,1.389A8.226,8.226,0,0,1,455.386,605.631Z" fill="#0098c6" stroke="#0098c6" stroke-miterlimit="10" stroke-width="0.5"/><path d="M466.845,605.336l-4.722-15.983H466.6l1.672,6.983q.344,1.28.591,2.521t.589,2.545h.1q.344-1.3.6-2.545t.577-2.521l1.623-6.983h4.328l-4.722,15.983Z" fill="#0098c6" stroke="#0098c6" stroke-miterlimit="10" stroke-width="0.5"/><path d="M478.943,605.336V589.353h10.328v3.541h-6.1V595.4h5.213v3.541h-5.213v2.852h6.345v3.541Z" fill="#0098c6" stroke="#0098c6" stroke-miterlimit="10" stroke-width="0.5"/><path d="M496.4,605.336V592.894h-4.23v-3.541h12.689v3.541h-4.23v12.442Z" fill="#0098c6" stroke="#0098c6" stroke-miterlimit="10" stroke-width="0.5"/><path d="M507.676,605.336V589.353H518v3.541h-6.1V595.4h5.213v3.541H511.9v2.852h6.345v3.541Zm5.164-16.574-1.869-2.114,4.475-3.541,2.213,2.705Z" fill="#0098c6" stroke="#0098c6" stroke-miterlimit="10" stroke-width="0.5"/><path d="M527.01,605.631a9.61,9.61,0,0,1-3.135-.553,8.337,8.337,0,0,1-2.914-1.734l2.409-2.9a8.122,8.122,0,0,0,1.857,1.119,4.744,4.744,0,0,0,1.881.429,2.519,2.519,0,0,0,1.39-.294.956.956,0,0,0,.43-.836.792.792,0,0,0-.148-.492,1.522,1.522,0,0,0-.431-.369,4.885,4.885,0,0,0-.675-.332q-.395-.159-.911-.356l-1.991-.836a5.864,5.864,0,0,1-1.229-.653,4.712,4.712,0,0,1-1.033-.959,4.43,4.43,0,0,1-.7-1.265,4.625,4.625,0,0,1-.257-1.574,4.309,4.309,0,0,1,.442-1.931,4.967,4.967,0,0,1,1.229-1.573,5.938,5.938,0,0,1,1.882-1.07,7.047,7.047,0,0,1,2.4-.393,8.131,8.131,0,0,1,2.791.515,6.878,6.878,0,0,1,2.52,1.624l-2.115,2.656a7.748,7.748,0,0,0-1.561-.862,4.441,4.441,0,0,0-1.635-.294,2.36,2.36,0,0,0-1.23.27.891.891,0,0,0-.443.812.955.955,0,0,0,.628.873q.627.308,1.733.725l1.943.763a5.234,5.234,0,0,1,2.311,1.647,4.359,4.359,0,0,1,.812,2.73,4.736,4.736,0,0,1-1.636,3.577,6.024,6.024,0,0,1-1.954,1.119A7.81,7.81,0,0,1,527.01,605.631Z" fill="#0098c6" stroke="#0098c6" stroke-miterlimit="10" stroke-width="0.5"/></g></g></g></g></svg>