<svg width="18" height="18" viewBox="0 0 18 18" fill="none" xmlns="http://www.w3.org/2000/svg">
<path d="M3.46874 16.7625C3.06874 16.7625 2.72186 16.6156 2.42811 16.3219C2.13436 16.0281 1.98749 15.6812 1.98749 15.2812V3.84375C1.98749 3.43125 2.13436 3.07813 2.42811 2.78438C2.72186 2.49063 3.06874 2.34375 3.46874 2.34375H4.59374V1.89375C4.59374 1.71875 4.66249 1.5625 4.79999 1.425C4.93749 1.2875 5.09999 1.21875 5.28749 1.21875C5.48749 1.21875 5.65624 1.29063 5.79374 1.43438C5.93124 1.57812 5.99999 1.7375 5.99999 1.9125V2.34375H12V1.89375C12 1.71875 12.0687 1.5625 12.2062 1.425C12.3437 1.2875 12.5125 1.21875 12.7125 1.21875C12.9 1.21875 13.0625 1.29063 13.2 1.43438C13.3375 1.57812 13.4062 1.7375 13.4062 1.9125V2.34375H14.5312C14.9437 2.34375 15.2969 2.49063 15.5906 2.78438C15.8844 3.07813 16.0312 3.43125 16.0312 3.84375V15.2812C16.0312 15.6812 15.8844 16.0281 15.5906 16.3219C15.2969 16.6156 14.9437 16.7625 14.5312 16.7625H3.46874ZM3.46874 15.2812H14.5312V7.3125H3.46874V15.2812ZM3.46874 6.1875H14.5312V3.84375H3.46874V6.1875ZM3.46874 6.1875V3.84375V6.1875Z" fill="#222222" fill-opacity="0.7"/>
</svg>
