<svg width="60" height="60" viewBox="0 0 60 60" fill="none" xmlns="http://www.w3.org/2000/svg">
<circle cx="30" cy="30" r="30" fill="#21A7CC"/>
<path d="M41.1899 26.8394L41.1829 26.8352L41.1758 26.8311C40.7506 26.5873 40.4152 26.2133 40.2191 25.7641L40.2177 25.761C40.0344 25.3453 39.9973 24.88 40.112 24.4407C40.2975 23.813 40.3113 23.1469 40.1517 22.5118C39.9906 21.871 39.6591 21.2857 39.1922 20.8181C38.7253 20.3505 38.1405 20.018 37.4999 19.856C36.8643 19.6952 36.1973 19.7082 35.5685 19.8934C35.1288 20.0101 34.6624 19.9731 34.2465 19.7884L34.2465 19.7884L34.2347 19.7833C33.7878 19.5918 33.4163 19.2587 33.1774 18.8353L33.1774 18.8352L33.1719 18.8256C32.8504 18.2704 32.3886 17.8095 31.8328 17.4891C31.277 17.1687 30.6467 17 30.0051 17C29.3636 17 28.7333 17.1687 28.1775 17.4891C27.6217 17.8095 27.1599 18.2704 26.8384 18.8256L26.8383 18.8256L26.8323 18.8362C26.5941 19.2593 26.223 19.5921 25.7765 19.7829L25.7696 19.7858L25.7628 19.7889C25.3488 19.9732 24.8843 20.01 24.4467 19.8934C23.8178 19.7088 23.1507 19.6963 22.5151 19.8572C21.8749 20.0194 21.2905 20.3514 20.8235 20.8184C20.3566 21.2854 20.0245 21.8698 19.8624 22.51C19.7014 23.1456 19.7139 23.8126 19.8985 24.4416C20.0151 24.8792 19.9783 25.3437 19.794 25.7576L19.794 25.7576L19.791 25.7644C19.595 26.2135 19.2588 26.5871 18.8328 26.8292L18.8327 26.8291L18.8256 26.8332C18.2704 27.1547 17.8095 27.6165 17.4891 28.1723C17.1687 28.7282 17 29.3584 17 30C17 30.6416 17.1687 31.2718 17.4891 31.8277C17.8095 32.3835 18.2704 32.8453 18.8256 33.1668L18.8256 33.1668L18.8341 33.1716C19.2598 33.4126 19.5955 33.7856 19.7904 34.2342L19.7904 34.2342L19.794 34.2424C19.9783 34.6563 20.0151 35.1208 19.8985 35.5584C19.7139 36.1874 19.7014 36.8544 19.8624 37.49L20.8318 37.2445L19.8624 37.49C20.0245 38.1302 20.3566 38.7146 20.8235 39.1816C21.2905 39.6486 21.8749 39.9806 22.5151 40.1428L22.7606 39.1734L22.5151 40.1428C23.15 40.3035 23.8163 40.2912 24.4447 40.1072C24.8843 39.9921 25.3501 40.0292 25.7661 40.2126L25.7661 40.2126L25.7741 40.2161C26.2215 40.4087 26.5936 40.7423 26.8336 41.1661L26.8336 41.1662L26.8384 41.1744C27.1598 41.7296 27.6217 42.1905 28.1775 42.5109C28.7333 42.8313 29.3636 43 30.0051 43C30.6467 43 31.277 42.8313 31.8328 42.5109C32.3886 42.1905 32.8504 41.7296 33.1719 41.1744L33.1719 41.1744L33.1761 41.1671C33.4169 40.743 33.7894 40.409 34.2371 40.2156L34.2371 40.2157L34.2432 40.213C34.6618 40.029 35.1302 39.9919 35.5724 40.1076C36.198 40.2888 36.8607 40.2998 37.4921 40.1393C38.1282 39.9775 38.7091 39.6477 39.174 39.1843C39.6388 38.7209 39.9704 38.141 40.1341 37.5054C40.2968 36.8738 40.2877 36.2103 40.1079 35.5835C39.9919 35.1431 40.0288 34.6763 40.2126 34.2595L40.2146 34.2549C40.4097 33.8063 40.7446 33.4328 41.1693 33.1901L41.1694 33.1902L41.1808 33.1834C41.737 32.8558 42.1963 32.3865 42.5119 31.8234C42.8258 31.2633 42.9863 30.6304 42.9774 29.9886C42.9782 29.3555 42.8148 28.733 42.5031 28.1819C42.1896 27.6278 41.737 27.165 41.1899 26.8394Z" fill="#F5CF68" stroke="#262626" stroke-width="2"/>
<path d="M28.5935 33.9481C28.2562 33.9463 27.9331 33.8122 27.6935 33.5748L25.0955 30.9717C24.9763 30.8551 24.8812 30.7163 24.8156 30.563C24.7501 30.4097 24.7154 30.2451 24.7135 30.0784C24.7116 29.9117 24.7425 29.7462 24.8045 29.5915C24.8666 29.4368 24.9585 29.2958 25.075 29.1766C25.1915 29.0574 25.3304 28.9623 25.4837 28.8967C25.6369 28.8312 25.8016 28.7965 25.9683 28.7946C26.135 28.7927 26.3004 28.8236 26.4551 28.8857C26.6099 28.9477 26.7509 29.0396 26.8701 29.1561L28.5935 30.8796L33.0071 26.4354C33.2451 26.1974 33.568 26.0636 33.9046 26.0636C34.2413 26.0636 34.5641 26.1974 34.8022 26.4354C35.0402 26.6734 35.1739 26.9963 35.1739 27.3329C35.1739 27.6696 35.0402 27.9924 34.8022 28.2305L29.4885 33.5543C29.3728 33.6759 29.2341 33.7733 29.0805 33.8409C28.9269 33.9085 28.7614 33.945 28.5935 33.9481Z" fill="#262626"/>
</svg>
