<svg width="60" height="60" viewBox="0 0 60 60" fill="none" xmlns="http://www.w3.org/2000/svg">
<circle cx="30" cy="30" r="30" fill="#21A7CC"/>
<g clip-path="url(#clip0_40_715)">
<path d="M30.2111 19.6106C26.6825 19.6616 23.6578 22.7224 23.581 26.3207C23.5381 28.3211 24.3367 30.1339 25.6392 31.4129C26.5253 32.2838 27.0917 33.437 27.2614 34.6796L27.4615 36.1389H28.4691L27.7813 29.611C27.7045 28.8804 27.9367 28.148 28.4173 27.6015C28.8979 27.0549 29.5875 26.7415 30.3075 26.7415C31.0275 26.7415 31.7172 27.0549 32.1978 27.6015C32.6784 28.148 32.9106 28.8804 32.8338 29.611L32.146 36.1389H33.1536L33.3537 34.6796C33.5252 33.4279 34.1059 32.2747 34.9956 31.3947C36.2551 30.1485 37.0359 28.4031 37.0359 26.4719C37.0359 22.6495 33.9701 19.5559 30.2093 19.6106H30.2111Z" fill="#262626"/>
<path d="M33.1554 37.7494H32.1478C31.6994 37.7494 31.2724 37.5545 30.9722 37.2156C30.6721 36.8767 30.5291 36.4213 30.5774 35.9676L31.2652 29.4397C31.2938 29.1628 31.2062 28.8859 31.024 28.68C30.8418 28.4723 30.5809 28.3539 30.3076 28.3539C30.0342 28.3539 29.7734 28.4723 29.5912 28.68C29.4089 28.8877 29.3214 29.1646 29.35 29.4397L30.0378 35.9676C30.0861 36.4213 29.9413 36.8749 29.643 37.2156C29.3446 37.5563 28.9158 37.7494 28.4674 37.7494H27.4597C26.6719 37.7494 26.0055 37.1573 25.8965 36.3611L25.6964 34.9018C25.5749 34.0109 25.164 33.1837 24.5422 32.5716C22.8771 30.9373 21.9517 28.6454 22.0017 26.286C22.0481 24.127 22.9307 22.0701 24.4886 20.4923C26.0465 18.9164 28.0708 18.0309 30.1897 17.9999C32.4319 17.969 34.5454 18.8344 36.1408 20.4377C37.7363 22.0428 38.6153 24.1853 38.6153 26.4718C38.6153 28.7583 37.7202 30.9391 36.0962 32.5497C35.4584 33.1819 35.0403 34.0163 34.9188 34.9018L34.7187 36.3611C34.6097 37.1573 33.9433 37.7494 33.1554 37.7494ZM30.2326 21.2211C27.5401 21.2593 25.2176 23.6114 25.1586 26.3552C25.1336 27.5631 25.4981 28.7037 26.1966 29.6401C26.1144 28.5033 26.4914 27.3755 27.24 26.5265C28.0207 25.641 29.1374 25.1327 30.3058 25.1327C31.4742 25.1327 32.5909 25.641 33.3716 26.5265C34.1202 27.3773 34.4972 28.5051 34.415 29.6401C35.0903 28.7328 35.4566 27.6342 35.4566 26.4718C35.4566 25.0544 34.9117 23.7262 33.9219 22.7314C32.9321 21.7367 31.6225 21.201 30.2326 21.2193V21.2211Z" fill="#262626"/>
<path d="M30.3076 28.3211C30.0218 28.3211 29.7591 28.4414 29.568 28.6582C29.3768 28.875 29.2892 29.1537 29.3196 29.4434L30.0253 36.1389H30.5899L31.2956 29.4434C31.326 29.1537 31.2384 28.875 31.0473 28.6582C30.8561 28.4414 30.5935 28.3211 30.3076 28.3211Z" fill="#262626"/>
<path d="M30.5899 37.7495H30.0254C29.2178 37.7495 28.5407 37.13 28.4549 36.312L27.7492 29.6165C27.6706 28.8768 27.9065 28.1371 28.3924 27.5832C28.8802 27.0294 29.5769 26.7124 30.3059 26.7124C31.0348 26.7124 31.7334 27.0294 32.2193 27.5832C32.7071 28.1371 32.9411 28.8768 32.8625 29.6165L32.1568 36.312C32.071 37.13 31.3939 37.7495 30.5864 37.7495H30.5899Z" fill="#262626"/>
<path d="M32.834 29.611C32.9108 28.8804 32.6785 28.148 32.1979 27.6015C31.7174 27.0549 31.0277 26.7415 30.3077 26.7415C29.5877 26.7415 28.8981 27.0549 28.4175 27.6015C27.9369 28.148 27.7046 28.8804 27.7815 29.611L28.4693 36.1389H27.4617V39.6151C27.4617 40.0433 27.8011 40.3894 28.221 40.3894H32.3963C32.8161 40.3894 33.1556 40.0433 33.1556 39.6151V36.1389H32.1479L32.8358 29.611H32.834ZM31.2957 29.4416L30.59 36.1371H30.0254L29.3197 29.4416C29.2894 29.1519 29.3769 28.8731 29.5681 28.6563C29.7592 28.4395 30.0219 28.3193 30.3077 28.3193C30.5936 28.3193 30.8562 28.4395 31.0474 28.6563C31.2385 28.8731 31.3261 29.1519 31.2957 29.4416Z" fill="#262626"/>
<path d="M32.3963 42H28.221C26.9311 42 25.8823 40.9305 25.8823 39.6151V36.1389C25.8823 35.5177 26.2271 34.9802 26.731 34.7105L26.2111 29.7823C26.086 28.598 26.463 27.412 27.2419 26.5247C28.0227 25.6393 29.1393 25.131 30.3077 25.131C31.4762 25.131 32.5928 25.6393 33.3735 26.5247C34.1543 27.4102 34.5295 28.598 34.4044 29.7823L33.8845 34.7105C34.3883 34.9802 34.7331 35.5177 34.7331 36.1389V39.6151C34.7331 40.9305 33.6844 42 32.3945 42H32.3963ZM29.041 38.7789H31.578V37.6402C31.5065 37.6128 31.4369 37.5782 31.3708 37.54C31.1403 37.673 30.8741 37.7495 30.5918 37.7495H30.0272C29.745 37.7495 29.4788 37.673 29.2483 37.54C29.1822 37.5782 29.1125 37.6128 29.041 37.6402V38.7789ZM29.7271 29.2703C29.7271 29.2703 29.7271 29.2703 29.7271 29.2721V29.2703Z" fill="#262626"/>
<path d="M30.2113 19.6106C26.6828 19.6616 23.6581 22.7224 23.5812 26.3207C23.5384 28.3211 24.337 30.1339 25.6394 31.4129C26.5256 32.2838 27.0919 33.437 27.2616 34.6796L27.4617 36.1389H28.4694L27.7815 29.611C27.7047 28.8804 27.937 28.148 28.4176 27.6015C28.8982 27.0549 29.5878 26.7415 30.3078 26.7415C31.0278 26.7415 31.7174 27.0549 32.198 27.6015C32.6786 28.148 32.9109 28.8804 32.834 29.611L32.1462 36.1389H33.1538L33.3539 34.6796C33.5255 33.4279 34.1061 32.2747 34.9958 31.3947C36.2554 30.1485 37.0361 28.4031 37.0361 26.4719C37.0361 22.6495 33.9703 19.5559 30.2095 19.6106H30.2113Z" fill="#FCCE60"/>
<path d="M31.2958 29.4416C31.3262 29.1519 31.2387 28.8732 31.0475 28.6564C30.8563 28.4396 30.5937 28.3193 30.3079 28.3193C30.022 28.3193 29.7594 28.4396 29.5682 28.6564C29.377 28.8732 29.2895 29.1519 29.3199 29.4416L30.0256 36.1371H30.5901L31.2958 29.4416Z" fill="#FCCE60"/>
<path d="M32.834 29.611C32.9108 28.8804 32.6785 28.148 32.1979 27.6015C31.7174 27.0549 31.0277 26.7415 30.3077 26.7415C29.5877 26.7415 28.8981 27.0549 28.4175 27.6015C27.9369 28.148 27.7046 28.8804 27.7815 29.611L28.4693 36.1389H27.4617V39.6151C27.4617 40.0433 27.8011 40.3894 28.221 40.3894H32.3963C32.8161 40.3894 33.1556 40.0433 33.1556 39.6151V36.1389H32.1479L32.8358 29.611H32.834ZM29.3197 29.4416C29.2894 29.1519 29.3769 28.8731 29.5681 28.6563C29.7592 28.4395 30.0219 28.3193 30.3077 28.3193C30.5936 28.3193 30.8562 28.4395 31.0474 28.6563C31.2385 28.8731 31.3261 29.1519 31.2957 29.4416L30.59 36.1371H30.0254L29.3197 29.4416Z" fill="#262626"/>
</g>
<defs>
<clipPath id="clip0_40_715">
<rect width="16.6154" height="24" fill="white" transform="translate(22 18)"/>
</clipPath>
</defs>
</svg>
