<svg width="18" height="18" viewBox="0 0 18 18" fill="none" xmlns="http://www.w3.org/2000/svg">
<path d="M5.2498 13.0125C4.1123 13.0125 3.15918 12.6281 2.39043 11.8594C1.62168 11.0906 1.2373 10.1375 1.2373 9C1.2373 7.8625 1.62168 6.90625 2.39043 6.13125C3.15918 5.35625 4.1123 4.96875 5.2498 4.96875H7.57481C7.78731 4.96875 7.96543 5.04375 8.10918 5.19375C8.25293 5.34375 8.32481 5.525 8.32481 5.7375C8.32481 5.9375 8.25293 6.10937 8.10918 6.25312C7.96543 6.39687 7.78731 6.46875 7.57481 6.46875H5.2498C4.5248 6.46875 3.92168 6.70937 3.44043 7.19062C2.95918 7.67188 2.71855 8.275 2.71855 9C2.71855 9.725 2.95918 10.3281 3.44043 10.8094C3.92168 11.2906 4.5248 11.5313 5.2498 11.5313H7.57481C7.78731 11.5313 7.96543 11.6031 8.10918 11.7469C8.25293 11.8906 8.32481 12.0688 8.32481 12.2813C8.32481 12.4813 8.25293 12.6531 8.10918 12.7969C7.96543 12.9406 7.78731 13.0125 7.57481 13.0125H5.2498ZM6.54355 9.61875C6.35605 9.61875 6.20293 9.5625 6.08418 9.45C5.96543 9.3375 5.90605 9.1875 5.90605 9C5.90605 8.8125 5.96543 8.6625 6.08418 8.55C6.20293 8.4375 6.35605 8.38125 6.54355 8.38125H11.4561C11.6436 8.38125 11.7967 8.4375 11.9154 8.55C12.0342 8.6625 12.0936 8.8125 12.0936 9C12.0936 9.1875 12.0342 9.3375 11.9154 9.45C11.7967 9.5625 11.6436 9.61875 11.4561 9.61875H6.54355ZM10.4248 13.0125C10.2123 13.0125 10.0342 12.9406 9.89043 12.7969C9.74668 12.6531 9.6748 12.475 9.6748 12.2625C9.6748 12.0625 9.74668 11.8906 9.89043 11.7469C10.0342 11.6031 10.2123 11.5313 10.4248 11.5313H12.7498C13.4748 11.5313 14.0779 11.2906 14.5592 10.8094C15.0404 10.3281 15.2811 9.725 15.2811 9C15.2811 8.275 15.0404 7.67188 14.5592 7.19062C14.0779 6.70937 13.4748 6.46875 12.7498 6.46875H10.4248C10.2123 6.46875 10.0342 6.39687 9.89043 6.25312C9.74668 6.10937 9.6748 5.93125 9.6748 5.71875C9.6748 5.51875 9.74668 5.34375 9.89043 5.19375C10.0342 5.04375 10.2123 4.96875 10.4248 4.96875H12.7498C13.8873 4.96875 14.8436 5.35625 15.6186 6.13125C16.3936 6.90625 16.7811 7.8625 16.7811 9C16.7811 10.1375 16.3936 11.0906 15.6186 11.8594C14.8436 12.6281 13.8873 13.0125 12.7498 13.0125H10.4248Z" fill="#12326E"/>
</svg>
