<svg width="570" height="345" viewBox="0 0 570 345" fill="none" xmlns="http://www.w3.org/2000/svg">
<g clip-path="url(#clip0_640_383)">
<path d="M30.0686 345C30.0686 345 -11.1583 294.23 9.21987 196.169C22.0356 134.491 75.8743 103.933 148.046 106.85C172.855 107.853 213.22 77.9679 271.217 41.2562C395.277 -37.2684 574.727 -3.918 531.778 172.711C510.994 258.188 597.154 259.557 554.332 345H30.0686Z" fill="#EEF8FB"/>
</g>
<g clip-path="url(#clip1_640_383)">
<path d="M495.989 117.181C495.749 101.452 469.67 99.7298 469.67 99.7298C469.67 99.7298 446.181 121.185 441.105 120.549C436.028 119.913 457.592 98.2944 457.592 98.2944C448.296 94.9556 421.028 100.437 421.028 100.437C421.028 100.437 414.891 130.867 410.129 129.006C405.366 127.145 416.941 102.338 416.941 102.338C407.012 102.756 395.662 111.297 395.662 111.297C380.437 126.038 400.211 144.767 400.211 144.767C400.211 144.767 397.856 155.267 388.346 165.583C388.346 165.583 386.326 167.421 383.887 170.797L386.403 171.435C386.78 170.815 387.173 170.223 387.581 169.663C387.581 169.658 387.584 169.656 387.589 169.653C387.595 169.645 387.602 169.637 387.608 169.629C387.879 169.285 388.267 168.796 388.747 168.204C388.747 168.204 388.747 168.204 388.747 168.202C389.899 166.898 390.701 165.922 391.234 165.205C391.234 165.205 391.236 165.199 391.239 165.197C394.744 161.075 399.625 155.785 402.167 155.059C402.167 155.059 401.988 154.599 401.922 153.774C402.001 154.184 402.08 154.612 402.167 155.059C404.124 165.349 425.255 172.345 437.874 172.937C450.493 173.528 446.126 168.83 441.068 161.719C436.01 154.607 422.112 152.614 418.663 149.454C415.213 146.294 421.603 145.632 429.441 148.274C437.278 150.916 439.24 159.902 451.84 164.405C464.441 168.909 480.466 147.191 480.466 147.191C470.844 147.685 456.107 138.723 456.276 135.502C456.445 132.282 480.042 138.597 483.966 138.615C487.89 138.631 496.226 132.915 495.989 117.186V117.181Z" fill="#BDE5F0"/>
<path d="M518.551 271.098C530.827 250.405 498.208 227.414 498.208 227.414C498.208 227.414 450.418 236.703 444.31 231.836C438.203 226.97 483.614 215.941 483.614 215.941C474.168 204.195 434.237 189.654 434.237 189.654C434.237 189.654 401.887 224.444 397.166 218.229C392.446 212.014 427.388 188.881 427.388 188.881C414.11 181.528 392.478 183.639 392.478 183.639C360.835 190.745 371.623 230.885 371.623 230.885C371.623 230.885 360.152 242.699 339.498 248.583C339.498 248.583 335.392 249.372 329.511 251.83L332.277 254.661C333.266 254.154 334.25 253.694 335.233 253.289C335.239 253.284 335.244 253.281 335.252 253.281C335.265 253.276 335.281 253.27 335.294 253.263C335.922 253.031 336.821 252.703 337.921 252.311C337.921 252.311 337.923 252.311 337.926 252.311C337.926 252.311 337.928 252.311 337.931 252.311C340.476 251.525 342.303 250.891 343.569 250.381C343.575 250.381 343.577 250.379 343.58 250.376C351.446 247.789 362.045 244.776 365.937 245.851C365.937 245.851 366.075 245.107 366.649 243.98C366.423 244.576 366.185 245.199 365.937 245.851C360.254 260.818 382.203 286.745 398.176 297.553C414.152 308.361 412.219 298.762 411.317 285.468C410.413 272.173 393.891 258.523 391.924 251.661C389.956 244.797 398.817 249.017 406.921 258.694C415.025 268.371 410.392 281.645 423.213 297.537C436.035 313.432 474.305 297.863 474.305 297.863C461.367 290.857 449.329 267.451 452.127 263.387C454.925 259.32 480.632 286.322 485.732 289.466C490.835 292.611 506.278 291.788 518.551 271.092V271.098Z" fill="#BDE5F0"/>
<path d="M77.2269 194.129C84.5053 179.228 110.165 189.202 110.165 189.202C110.165 189.202 122.957 220.137 128.087 221.794C133.216 223.447 122.33 193.214 122.33 193.214C132.696 194.168 156.256 211.548 156.256 211.548C156.256 211.548 148.469 243.317 153.849 243.664C159.228 244.009 159.305 215.184 159.305 215.184C168.593 220.006 175.592 233.214 175.592 233.214C183.511 254.062 156.249 263.121 156.249 263.121C156.249 263.121 153.788 274.189 158.24 288.267C158.24 288.267 159.345 290.92 160.159 295.229L157.475 294.719C157.393 293.959 157.285 293.218 157.145 292.503C157.145 292.498 157.145 292.495 157.143 292.49C157.143 292.479 157.137 292.469 157.137 292.458C157.032 292.009 156.881 291.37 156.689 290.591C156.689 290.591 156.689 290.591 156.689 290.589C156.689 290.589 156.689 290.589 156.689 290.586C156.175 288.827 155.848 287.539 155.66 286.619C155.66 286.616 155.66 286.614 155.66 286.611C154.165 281.117 151.876 273.892 149.777 272.07C149.777 272.07 150.154 271.71 150.587 270.953C150.328 271.311 150.059 271.681 149.777 272.07C143.298 281.017 119.999 278.277 107.694 273.222C95.3888 268.166 101.66 265.627 109.677 261.094C117.691 256.562 131.845 260.852 136.554 259.375C141.262 257.897 135.463 254.417 126.8 253.447C118.137 252.476 112.237 260.174 98.1947 258.86C84.152 257.543 78.5982 229.683 78.5982 229.683C87.5565 234.442 105.637 232.454 106.918 229.307C108.203 226.158 82.8545 221.673 79.1019 219.94C75.3492 218.208 69.9589 209.038 77.2374 194.137L77.2269 194.129Z" fill="#BDE5F0"/>
</g>
<g clip-path="url(#clip2_640_383)">
<path d="M408.5 0H150.812V344.82H408.5V0Z" fill="#21A7CC"/>
<path d="M396.217 11.1762H165.923V329.351H396.217V11.1762Z" fill="white"/>
<path d="M234.104 0V11.6804C234.104 18.1312 239.349 23.3608 245.819 23.3608H308.754C315.226 23.3608 320.469 18.1312 320.469 11.6804V0H234.104Z" fill="#F5CF68"/>
<path d="M235.086 125.579H193.435V84.0943H235.086V125.579ZM195.397 123.625H233.124V86.0488H195.397V123.625Z" fill="#21A7CC"/>
<path d="M215.293 117.241C214.42 117.241 213.586 116.855 213.024 116.177L200.171 100.692C199.135 99.4454 199.312 97.5974 200.563 96.5658C201.815 95.5342 203.67 95.71 204.706 96.9567L214.898 109.238L233.339 78.4114C234.17 77.0213 235.977 76.5657 237.373 77.3937C238.768 78.2218 239.226 80.0212 238.395 81.4113L217.817 115.81C217.327 116.628 216.468 117.158 215.516 117.232C215.442 117.239 215.365 117.241 215.291 117.241H215.293Z" fill="#F5CF68"/>
<path d="M235.086 190.444H193.435V148.959H235.086V190.444ZM195.397 188.489H233.124V150.913H195.397V188.489Z" fill="#21A7CC"/>
<path d="M215.293 181.75C214.42 181.75 213.586 181.363 213.024 180.686L200.171 165.2C199.135 163.954 199.312 162.106 200.563 161.074C201.815 160.042 203.67 160.218 204.706 161.465L214.898 173.747L233.339 142.922C234.17 141.532 235.977 141.076 237.373 141.904C238.768 142.732 239.226 144.532 238.395 145.922L217.817 180.32C217.327 181.139 216.468 181.669 215.516 181.743C215.442 181.75 215.365 181.752 215.291 181.752L215.293 181.75Z" fill="#F5CF68"/>
<path d="M235.086 253.967H193.435V212.482H235.086V253.967ZM195.397 252.012H233.124V214.436H195.397V252.012Z" fill="#21A7CC"/>
<path d="M215.293 244.66C214.42 244.66 213.586 244.273 213.024 243.596L200.171 228.11C199.135 226.864 199.312 225.016 200.563 223.984C201.815 222.952 203.67 223.128 204.706 224.375L214.898 236.657L233.339 205.83C234.17 204.44 235.977 203.984 237.373 204.812C238.768 205.64 239.226 207.439 238.395 208.83L217.817 243.228C217.327 244.047 216.468 244.576 215.516 244.65C215.442 244.657 215.365 244.66 215.291 244.66H215.293Z" fill="#F5CF68"/>
<g opacity="0.5">
<path d="M317.469 93.774H263.157V97.8217H317.469V93.774Z" fill="#21A7CC"/>
<path d="M363.616 93.774H351.271V97.8217H363.616V93.774Z" fill="#21A7CC"/>
<path d="M317.469 111.852H263.157V115.9H317.469V111.852Z" fill="#21A7CC"/>
<path d="M363.616 111.852H345.213V115.9H363.616V111.852Z" fill="#21A7CC"/>
<path d="M363.616 102.813H348.489V106.861H363.616V102.813Z" fill="#21A7CC"/>
<path d="M318.407 102.813H303.28V106.861H318.407V102.813Z" fill="#21A7CC"/>
<path d="M296.769 102.813H263.157V106.861H296.769V102.813Z" fill="#21A7CC"/>
</g>
<g opacity="0.5">
<path d="M315.396 156.073H263.157V160.121H315.396V156.073Z" fill="#21A7CC"/>
<path d="M317.469 174.151H263.157V178.199H317.469V174.151Z" fill="#21A7CC"/>
<path d="M314.718 165.112H300.661V169.16H314.718V165.112Z" fill="#21A7CC"/>
<path d="M296.769 165.112H263.157V169.16H296.769V165.112Z" fill="#21A7CC"/>
</g>
<g opacity="0.5">
<path d="M317.469 220.138H263.157V224.185H317.469V220.138Z" fill="#21A7CC"/>
<path d="M317.469 238.216H263.157V242.263H317.469V238.216Z" fill="#21A7CC"/>
<path d="M324.28 229.177H300.661V233.224H324.28V229.177Z" fill="#21A7CC"/>
<path d="M296.769 229.177H263.157V233.224H296.769V229.177Z" fill="#21A7CC"/>
</g>
<path d="M381.818 210.835C381.818 210.835 383.931 217.314 383.748 218.796C383.567 220.279 382.241 225.342 381.293 226.637C380.346 227.932 379.879 221.359 379.129 220.369C378.379 219.379 378.975 222.844 378.446 223.165C377.917 223.487 376.816 220.616 376.342 219.606C375.868 218.593 377.501 214.862 377.506 212.26C377.51 209.658 381.818 210.837 381.818 210.837V210.835Z" fill="#FFC48E"/>
<path d="M332.143 159.369C331.558 151.94 339.66 146.847 346.058 150.71C346.19 150.788 346.318 150.869 346.448 150.953C356.027 157.093 376.693 185.746 378.116 188.617C379.537 191.487 383.736 214.323 383.736 214.323C383.736 214.323 378.548 216.213 376.121 214.251C376.121 214.251 367.708 192.595 366.463 191.512C365.219 190.43 332.81 172.317 332.533 165.526C332.461 163.732 332.315 161.574 332.141 159.369H332.143Z" fill="#233862"/>
<path d="M248.71 161.492L251.528 169.552L292.234 155.433L289.415 147.373L248.71 161.492Z" fill="#F5CF68"/>
<path d="M240.666 168.813L251.539 169.56L248.722 161.5L240.666 168.813Z" fill="#F9DDBF"/>
<path d="M295.094 148.418L295.984 150.966C296.532 152.535 295.7 154.246 294.126 154.792L292.243 155.444L289.426 147.384L291.474 146.674C292.956 146.16 294.576 146.94 295.094 148.415V148.418Z" fill="#F9DDBF"/>
<path d="M389.978 327.079C389.978 327.079 393.84 330.59 393.085 333.084C392.333 335.577 388.847 337.24 388.376 340.289C387.904 343.337 386.021 345 384.326 345H376.242C376.242 345 374.995 342.856 378.009 342.208C381.023 341.561 382.159 337.98 381.971 334.654C381.783 331.328 382.254 326.894 382.254 326.894L388.659 325.416L389.978 327.079Z" fill="#222222"/>
<path d="M342.6 336.158C342.6 336.158 343.292 344.147 341.597 344.977L319.9 344.933C319.9 344.933 319.9 342.44 323.386 341.884C326.872 341.329 332.993 339.299 334.029 334.772C335.064 330.246 342.6 336.158 342.6 336.158Z" fill="#222222"/>
<path d="M324.28 223.311C324.28 223.311 325.425 237.314 326.77 254.147C328.597 277.013 330.796 305.099 331.015 310.421C331.391 319.662 332.9 334.439 332.9 334.439C332.9 334.439 336.479 337.95 343.638 336.47C343.638 336.47 350.02 315.373 351.84 293.051C351.868 292.686 351.896 292.316 351.926 291.948C353.622 269.223 356.257 221.373 356.257 221.373L324.28 223.313V223.311Z" fill="#F5CF68"/>
<path d="M324.28 223.311C324.28 223.311 325.425 237.314 326.77 254.147L351.84 293.051C351.868 292.686 351.896 292.316 351.926 291.948C353.622 269.223 356.257 221.373 356.257 221.373L324.28 223.313V223.311Z" fill="#D8AE45"/>
<path d="M329.507 224.974C329.507 224.974 350.135 275.688 363.697 299.52C377.261 323.353 381.499 330.005 381.499 330.005C381.499 330.005 389.27 326.957 389.976 324.877C389.976 324.877 384.79 278.868 375.705 267.65C370.573 261.313 364.545 242.293 364.262 235.641C363.978 228.989 362.425 215.826 362.425 215.826L329.505 224.972L329.507 224.974Z" fill="#F5CF68"/>
<path d="M347.293 148.901C347.293 148.901 333.473 155.884 325.378 153.555C325.378 153.555 327.308 151.027 330.738 149.107C330.426 147.504 330.183 146.112 330.036 144.932C329.642 142.207 329.611 140.66 329.611 140.66L334.911 136.337L339.936 132.199C339.759 143.556 347.295 148.901 347.295 148.901H347.293Z" fill="#FFC48E"/>
<path d="M361.022 219.842C355.442 223.205 350.159 225.735 343.977 227.155C336.686 228.878 327.722 228.369 324.724 228.825C324.415 228.867 324.125 228.786 323.848 228.605C323.614 228.485 322.29 219.626 320.964 208.443C320.906 207.995 320.843 207.539 320.818 207.083L320.799 206.933C320.284 202.561 319.833 197.97 319.441 193.367C319.12 189.787 318.858 186.244 318.677 182.918C318.447 178.757 318.352 174.931 318.447 171.785C318.489 170.347 318.572 169.056 318.702 167.934C319.492 161.402 322.62 156.735 325.567 153.261L328.01 150.492C330.843 150.67 333.736 150.138 336.465 148.344C339.449 146.387 342.67 144.282 343.278 144.634C347.853 147.127 351.576 153.585 354.237 162.115C355.763 167.025 356.933 172.597 357.681 178.497C357.922 180.329 358.127 182.207 358.282 184.076C358.312 184.423 358.338 184.768 358.366 185.11C358.723 190.224 359.311 195.017 359.961 199.296C360.837 205.069 361.83 209.903 362.534 213.307C362.887 215.04 363.156 216.381 363.317 217.341C363.461 218.178 361.775 219.379 361.025 219.846L361.022 219.842Z" fill="#12326E"/>
<path d="M340.113 136.536C340.113 136.536 336.713 143.008 330.034 144.932C329.64 142.207 329.609 140.66 329.609 140.66L334.909 136.337L340.113 136.538V136.536Z" fill="#ED985F"/>
<path d="M327.152 140.523C327.152 140.523 340.507 142.429 341.594 134.253C342.681 126.077 345.138 120.817 336.657 119.256C328.176 117.692 326.1 120.602 325.062 123.243C324.022 125.887 323.706 139.816 327.152 140.523Z" fill="#FFC48E"/>
<path d="M346.111 118.092C346.23 117.951 346.506 117.836 347.126 117.789C347.126 117.789 346.625 117.491 345.96 117.486C345.814 116.631 345.324 115.118 343.833 114.778C343.833 114.778 344.639 115.185 344.762 116.096C343.009 114.371 339.298 113.164 329.113 114.167C315.688 115.49 320.291 123.977 322.051 124.964C323.811 125.952 328.137 123.063 331.386 123.255C334.635 123.447 335.343 128.103 336.458 128.72C337.573 129.338 337.115 128.216 338.592 127.515C340.067 126.817 340.257 129.269 339.86 130.876C339.463 132.481 341.548 134.549 341.548 134.549L343.571 132.292C345.594 130.034 347.354 120.604 346.376 118.622C346.29 118.446 346.204 118.271 346.116 118.09L346.111 118.092Z" fill="#222222"/>
<path d="M341.87 172.512C341.87 172.512 330.61 181.044 318.674 182.915C318.444 178.754 318.349 174.929 318.444 171.783L341.87 172.512Z" fill="#233862"/>
<path d="M272.72 161.5C272.543 161.31 270.247 153.663 266.276 154.223C263.684 154.586 259.451 156.08 260.575 159.48C261.016 160.817 268.911 165.422 268.911 165.422L272.72 161.502V161.5Z" fill="#FFC48E"/>
<path d="M343.265 156.023C349.686 159.848 349.165 169.378 342.299 172.336C342.157 172.396 342.015 172.456 341.874 172.512C331.303 176.735 295.88 176.932 292.708 176.425C289.535 175.919 268.41 166.109 268.41 166.109C268.41 166.109 269.866 160.801 272.876 159.966C272.876 159.966 295.476 165.67 297.083 165.286C298.69 164.902 332.278 149.067 337.998 152.775C339.51 153.756 341.36 154.887 343.265 156.023Z" fill="#12326E"/>
</g>
<g clip-path="url(#clip3_640_383)">
<path d="M569.189 340.258H0.811007C0.3631 340.258 0 340.981 0 341.873V343.385C0 344.277 0.3631 345 0.811007 345H569.189C569.637 345 570 344.277 570 343.385V341.873C570 340.981 569.637 340.258 569.189 340.258Z" fill="#2E3552"/>
</g>
<defs>
<clipPath id="clip0_640_383">
<rect width="562.875" height="343.814" fill="white" transform="translate(3.5625 1.18558)"/>
</clipPath>
<clipPath id="clip1_640_383">
<rect width="447.688" height="207.474" fill="white" transform="translate(73.625 97.2165)"/>
</clipPath>
<clipPath id="clip2_640_383">
<rect width="257.688" height="345" fill="white" transform="translate(150.812)"/>
</clipPath>
<clipPath id="clip3_640_383">
<rect width="570" height="4.74227" fill="white" transform="translate(0 340.258)"/>
</clipPath>
</defs>
</svg>
