<svg xmlns="http://www.w3.org/2000/svg" width="226.835" height="118.103"><g data-name="Group 23"><path data-name="Path 262" d="M57.472 98.494h138.017a28.43 28.43 0 0 0 28.346-28.346V44.952a28.43 28.43 0 0 0-28.346-28.346H41.551a28.43 28.43 0 0 0-28.346 28.346l12.9 18.667c0 11.009-6.533 27.121 2.694 31.81l-20.7 19.674Z" fill="#ffc449" stroke="#3a3939" stroke-linecap="round" stroke-linejoin="round" stroke-width="6"/><path data-name="Path 263" d="M47.267 84.884h138.017a28.43 28.43 0 0 0 28.347-28.347V31.346A28.43 28.43 0 0 0 185.284 3H31.346a28.43 28.43 0 0 0-28.35 28.346v25.191a28.421 28.421 0 0 0 15.59 25.286l-10.319 32.8Z" fill="#fff" stroke="#3a3939" stroke-linecap="round" stroke-linejoin="round" stroke-width="6"/><g data-name="Group 21" fill="#002660" stroke="#002660" stroke-miterlimit="10" stroke-width=".5"><path data-name="Path 123" d="M32.787 40.026V24.042h4.229v5.952h.1l4.032-5.951h4.623l-4.775 6.491 5.705 9.492h-4.623l-3.541-6.148-1.525 2.164v3.984Z"/><path data-name="Path 124" d="M54.966 40.321a7.858 7.858 0 0 1-3.036-.566 6.462 6.462 0 0 1-2.337-1.634 7.526 7.526 0 0 1-1.511-2.632 10.705 10.705 0 0 1-.541-3.529 10.48 10.48 0 0 1 .541-3.5 7.292 7.292 0 0 1 1.511-2.583 6.32 6.32 0 0 1 2.337-1.585 8.761 8.761 0 0 1 6.062 0 6.238 6.238 0 0 1 2.347 1.6 7.452 7.452 0 0 1 1.513 2.582 10.435 10.435 0 0 1 .541 3.492 10.757 10.757 0 0 1-.541 3.529 7.529 7.529 0 0 1-1.513 2.632 6.431 6.431 0 0 1-2.343 1.628 7.9 7.9 0 0 1-3.03.566Zm-2.8-17.786a1.832 1.832 0 0 1-1.39-.553 2.028 2.028 0 0 1 0-2.73 2.022 2.022 0 0 1 2.779 0 2.026 2.026 0 0 1 0 2.73 1.834 1.834 0 0 1-1.391.553Zm2.8 14.146a2.581 2.581 0 0 0 2.276-1.265 6.288 6.288 0 0 0 .823-3.456 5.9 5.9 0 0 0-.823-3.38 2.764 2.764 0 0 0-4.55 0 5.9 5.9 0 0 0-.823 3.38 6.288 6.288 0 0 0 .823 3.456 2.578 2.578 0 0 0 2.274 1.265Zm2.8-14.146a1.835 1.835 0 0 1-1.39-.553 2.028 2.028 0 0 1 0-2.73 2.023 2.023 0 0 1 2.78 0 2.029 2.029 0 0 1 0 2.73 1.838 1.838 0 0 1-1.386.553Z"/><path data-name="Path 125" d="M64.508 40.026v-2.558l6.541-9.885h-5.9v-3.541h11.115V26.6l-6.541 9.885h6.59v3.541Z"/><path data-name="Path 126" d="M85.802 40.321a7.858 7.858 0 0 1-3.036-.566 6.461 6.461 0 0 1-2.337-1.634 7.526 7.526 0 0 1-1.511-2.632 10.7 10.7 0 0 1-.542-3.529 10.48 10.48 0 0 1 .542-3.5 7.291 7.291 0 0 1 1.511-2.583 6.319 6.319 0 0 1 2.337-1.585 8.761 8.761 0 0 1 6.062 0 6.238 6.238 0 0 1 2.347 1.6 7.452 7.452 0 0 1 1.513 2.582 10.435 10.435 0 0 1 .541 3.492 10.757 10.757 0 0 1-.541 3.529 7.529 7.529 0 0 1-1.513 2.632 6.431 6.431 0 0 1-2.347 1.634 7.9 7.9 0 0 1-3.026.56Zm-2.806-17.786a1.832 1.832 0 0 1-1.39-.553 2.028 2.028 0 0 1 0-2.73 2.022 2.022 0 0 1 2.779 0 2.026 2.026 0 0 1 0 2.73 1.834 1.834 0 0 1-1.389.553Zm2.8 14.146a2.581 2.581 0 0 0 2.276-1.265 6.3 6.3 0 0 0 .823-3.456 5.908 5.908 0 0 0-.823-3.38 2.764 2.764 0 0 0-4.55 0 5.9 5.9 0 0 0-.823 3.38 6.288 6.288 0 0 0 .823 3.456 2.577 2.577 0 0 0 2.28 1.265Zm2.8-14.146a1.835 1.835 0 0 1-1.39-.553 2.028 2.028 0 0 1 0-2.73 2.023 2.023 0 0 1 2.78 0 2.028 2.028 0 0 1 0 2.73 1.838 1.838 0 0 1-1.38.553Z"/><path data-name="Path 127" d="M101.176 40.321a9.637 9.637 0 0 1-3.135-.553 8.337 8.337 0 0 1-2.914-1.734l2.409-2.9a8.12 8.12 0 0 0 1.857 1.119 4.729 4.729 0 0 0 1.881.43 2.517 2.517 0 0 0 1.39-.295.954.954 0 0 0 .43-.836.792.792 0 0 0-.148-.491 1.494 1.494 0 0 0-.431-.369 4.777 4.777 0 0 0-.675-.332q-.395-.16-.91-.357l-1.992-.835a5.936 5.936 0 0 1-1.229-.653 4.76 4.76 0 0 1-1.033-.959 4.428 4.428 0 0 1-.7-1.265 4.626 4.626 0 0 1-.257-1.575 4.305 4.305 0 0 1 .442-1.93 4.971 4.971 0 0 1 1.23-1.574 5.919 5.919 0 0 1 1.881-1.069 7.022 7.022 0 0 1 2.4-.393 8.108 8.108 0 0 1 2.791.515 6.888 6.888 0 0 1 2.52 1.623l-2.115 2.656a7.741 7.741 0 0 0-1.561-.861 4.442 4.442 0 0 0-1.635-.295 2.359 2.359 0 0 0-1.23.271.889.889 0 0 0-.443.811.954.954 0 0 0 .628.873q.627.307 1.733.726l1.943.763a5.235 5.235 0 0 1 2.311 1.647 4.357 4.357 0 0 1 .812 2.73 4.736 4.736 0 0 1-1.636 3.577 6.061 6.061 0 0 1-1.954 1.119 7.81 7.81 0 0 1-2.66.416Z"/><path data-name="Path 128" d="M115.149 40.321a9.646 9.646 0 0 1-3.135-.553 8.337 8.337 0 0 1-2.914-1.734l2.409-2.9a8.148 8.148 0 0 0 1.858 1.119 4.729 4.729 0 0 0 1.881.43 2.516 2.516 0 0 0 1.389-.295.952.952 0 0 0 .43-.836.8.8 0 0 0-.147-.491 1.521 1.521 0 0 0-.431-.369 4.74 4.74 0 0 0-.676-.332q-.393-.16-.91-.357l-1.991-.835a5.944 5.944 0 0 1-1.23-.653 4.782 4.782 0 0 1-1.033-.959 4.425 4.425 0 0 1-.7-1.265 4.6 4.6 0 0 1-.258-1.575 4.306 4.306 0 0 1 .443-1.93 4.968 4.968 0 0 1 1.229-1.574 5.913 5.913 0 0 1 1.882-1.069 7.012 7.012 0 0 1 2.4-.393 8.1 8.1 0 0 1 2.791.515 6.883 6.883 0 0 1 2.521 1.623l-2.115 2.656a7.747 7.747 0 0 0-1.562-.861 4.442 4.442 0 0 0-1.635-.295 2.358 2.358 0 0 0-1.229.271.89.89 0 0 0-.444.811.954.954 0 0 0 .628.873q.627.307 1.734.726l1.942.763a5.238 5.238 0 0 1 2.312 1.647 4.357 4.357 0 0 1 .811 2.73 4.736 4.736 0 0 1-1.636 3.577 6.05 6.05 0 0 1-1.954 1.119 7.805 7.805 0 0 1-2.66.416Z"/><path data-name="Path 129" d="M124.548 40.026V24.042h10.329v3.541h-6.1v2.511h5.213v3.541h-5.213v2.853h6.345v3.541Zm5.164-16.574-1.869-2.115 4.476-3.541 2.213 2.705Z"/><path data-name="Path 130" d="M145.909 40.321a9.664 9.664 0 0 1-3.147-.5 6.917 6.917 0 0 1-4.291-4.082 10.418 10.418 0 0 1 .013-7.155 7.694 7.694 0 0 1 1.733-2.632 7.483 7.483 0 0 1 2.545-1.635 8.318 8.318 0 0 1 3.049-.565 6.953 6.953 0 0 1 3.061.626 7.9 7.9 0 0 1 2.153 1.488l-2.214 2.7a6.125 6.125 0 0 0-1.241-.849 3.641 3.641 0 0 0-4.316.9 4.13 4.13 0 0 0-.8 1.451 6.227 6.227 0 0 0-.282 1.942 5.271 5.271 0 0 0 1.008 3.468 3.907 3.907 0 0 0 3.172 1.2 3.117 3.117 0 0 0 .676-.073 1.608 1.608 0 0 0 .553-.222V34.17h-2.36v-3.442h6.1v7.623a7.3 7.3 0 0 1-2.288 1.389 8.246 8.246 0 0 1-3.124.581Z"/><path data-name="Path 131" d="M154.872 40.026V24.042h4.229v15.984Z"/></g><g data-name="Group 22" fill="#0098c6" stroke="#0098c6" stroke-miterlimit="10" stroke-width=".5"><path data-name="Path 132" d="M24.283 64.73V48.747h4.229v5.95h.1l4.032-5.95h4.623l-4.77 6.491 5.7 9.492h-4.623l-3.541-6.147-1.525 2.164v3.983Z"/><path data-name="Path 133" d="M46.462 65.025a7.857 7.857 0 0 1-3.036-.565 6.452 6.452 0 0 1-2.337-1.635 7.526 7.526 0 0 1-1.511-2.632 10.7 10.7 0 0 1-.541-3.528 10.482 10.482 0 0 1 .541-3.5 7.277 7.277 0 0 1 1.511-2.582 6.321 6.321 0 0 1 2.337-1.586 8.761 8.761 0 0 1 6.062 0 6.229 6.229 0 0 1 2.347 1.6 7.442 7.442 0 0 1 1.513 2.582 10.427 10.427 0 0 1 .541 3.492 10.756 10.756 0 0 1-.541 3.528 7.529 7.529 0 0 1-1.513 2.632 6.422 6.422 0 0 1-2.347 1.635 7.9 7.9 0 0 1-3.026.559Zm-2.8-17.785a1.834 1.834 0 0 1-1.39-.554 2.028 2.028 0 0 1 0-2.73 2.025 2.025 0 0 1 2.779 0 2.026 2.026 0 0 1 0 2.73 1.835 1.835 0 0 1-1.391.554Zm2.8 14.145a2.579 2.579 0 0 0 2.276-1.265 6.285 6.285 0 0 0 .823-3.455 5.906 5.906 0 0 0-.823-3.381 2.766 2.766 0 0 0-4.55 0 5.906 5.906 0 0 0-.823 3.381 6.285 6.285 0 0 0 .823 3.455 2.576 2.576 0 0 0 2.274 1.265Zm2.8-14.145a1.835 1.835 0 0 1-1.39-.554 2.028 2.028 0 0 1 0-2.73 2.026 2.026 0 0 1 2.78 0 2.028 2.028 0 0 1 0 2.73 1.838 1.838 0 0 1-1.386.554Z"/><path data-name="Path 134" d="M57.054 64.73V48.747h4.229v12.442h6.049v3.541Z"/><path data-name="Path 135" d="M70.922 64.73V52.288h-4.226v-3.541h12.689v3.541h-4.23V64.73Z"/><path data-name="Path 136" d="M87.054 65.025a9.61 9.61 0 0 1-3.135-.553 8.337 8.337 0 0 1-2.914-1.734l2.409-2.9a8.129 8.129 0 0 0 1.858 1.119 4.743 4.743 0 0 0 1.88.429 2.519 2.519 0 0 0 1.39-.294.956.956 0 0 0 .43-.836.792.792 0 0 0-.148-.492 1.516 1.516 0 0 0-.43-.369 4.9 4.9 0 0 0-.676-.332q-.394-.159-.91-.356l-1.992-.836a5.916 5.916 0 0 1-1.229-.653 4.735 4.735 0 0 1-1.033-.959 4.4 4.4 0 0 1-.7-1.265 4.6 4.6 0 0 1-.258-1.574 4.309 4.309 0 0 1 .442-1.931 4.956 4.956 0 0 1 1.23-1.573 5.916 5.916 0 0 1 1.882-1.07 7.037 7.037 0 0 1 2.4-.393 8.126 8.126 0 0 1 2.791.515 6.89 6.89 0 0 1 2.521 1.624l-2.116 2.656a7.749 7.749 0 0 0-1.561-.862 4.44 4.44 0 0 0-1.635-.294 2.362 2.362 0 0 0-1.23.27.893.893 0 0 0-.443.812.955.955 0 0 0 .628.873q.627.308 1.733.725l1.943.763a5.234 5.234 0 0 1 2.311 1.647 4.359 4.359 0 0 1 .812 2.73 4.736 4.736 0 0 1-1.636 3.577 6.014 6.014 0 0 1-1.954 1.119 7.805 7.805 0 0 1-2.66.417Z"/><path data-name="Path 137" d="M96.596 64.73V48.747h10.328v3.541h-6.1v2.506h5.213v3.541h-5.213v2.852h6.345v3.541Zm5.164-16.574-1.869-2.114 4.475-3.541 2.213 2.705Z"/><path data-name="Path 138" d="M118.382 65.025a9.675 9.675 0 0 1-3.148-.5 6.91 6.91 0 0 1-4.291-4.082 10.418 10.418 0 0 1 .013-7.155 7.71 7.71 0 0 1 1.734-2.632 7.488 7.488 0 0 1 2.544-1.635 8.321 8.321 0 0 1 3.049-.565 6.943 6.943 0 0 1 3.062.627 7.888 7.888 0 0 1 2.152 1.487l-2.214 2.705a6.019 6.019 0 0 0-1.241-.848 3.872 3.872 0 0 0-3.111-.012 3.578 3.578 0 0 0-1.2.909 4.123 4.123 0 0 0-.8 1.451 6.2 6.2 0 0 0-.282 1.943 5.273 5.273 0 0 0 1.007 3.467 3.908 3.908 0 0 0 3.172 1.2 3.13 3.13 0 0 0 .677-.073 1.637 1.637 0 0 0 .553-.221v-2.213h-2.362v-3.443h6.1v7.623a7.292 7.292 0 0 1-2.287 1.389 8.226 8.226 0 0 1-3.127.578Z"/><path data-name="Path 139" d="m129.841 64.73-4.722-15.983h4.477l1.672 6.983q.344 1.28.591 2.521t.589 2.545h.1q.344-1.3.6-2.545t.577-2.521l1.623-6.983h4.328l-4.722 15.983Z"/><path data-name="Path 140" d="M141.939 64.73V48.747h10.328v3.541h-6.1v2.506h5.213v3.541h-5.213v2.852h6.345v3.541Z"/><path data-name="Path 141" d="M159.396 64.73V52.288h-4.23v-3.541h12.689v3.541h-4.23V64.73Z"/><path data-name="Path 142" d="M170.672 64.73V48.747h10.324v3.541h-6.1v2.506h5.213v3.541h-5.213v2.852h6.345v3.541Zm5.164-16.574-1.869-2.114 4.475-3.541 2.213 2.705Z"/><path data-name="Path 143" d="M190.006 65.025a9.61 9.61 0 0 1-3.135-.553 8.337 8.337 0 0 1-2.914-1.734l2.409-2.9a8.122 8.122 0 0 0 1.857 1.119 4.744 4.744 0 0 0 1.881.429 2.519 2.519 0 0 0 1.39-.294.956.956 0 0 0 .43-.836.792.792 0 0 0-.148-.492 1.522 1.522 0 0 0-.431-.369 4.885 4.885 0 0 0-.675-.332q-.395-.159-.911-.356l-1.991-.836a5.864 5.864 0 0 1-1.229-.653 4.712 4.712 0 0 1-1.033-.959 4.43 4.43 0 0 1-.7-1.265 4.625 4.625 0 0 1-.257-1.574 4.309 4.309 0 0 1 .442-1.931 4.967 4.967 0 0 1 1.229-1.573 5.938 5.938 0 0 1 1.882-1.07 7.047 7.047 0 0 1 2.4-.393 8.131 8.131 0 0 1 2.791.515 6.878 6.878 0 0 1 2.52 1.624l-2.115 2.656a7.748 7.748 0 0 0-1.561-.862 4.441 4.441 0 0 0-1.635-.294 2.36 2.36 0 0 0-1.23.27.891.891 0 0 0-.443.812.955.955 0 0 0 .628.873q.627.308 1.733.725l1.943.763a5.234 5.234 0 0 1 2.311 1.647 4.359 4.359 0 0 1 .812 2.73 4.736 4.736 0 0 1-1.636 3.577 6.024 6.024 0 0 1-1.954 1.119 7.81 7.81 0 0 1-2.66.417Z"/></g></g></svg>