<svg xmlns="http://www.w3.org/2000/svg" width="306" height="165"><defs><clipPath id="a"><path d="M0 0h306v165H0z"/></clipPath></defs><g data-name="logo" clip-path="url(#a)"><path fill="none" d="M0 0h306v165H0z"/><g data-name="Group 1"><path d="M227.45 135.184H43.426a37.906 37.906 0 0 1-37.795-37.8V63.8a37.906 37.906 0 0 1 37.795-37.795h205.251a37.906 37.906 0 0 1 37.8 37.795l-17.2 24.889c0 14.679 8.711 36.161-3.592 42.413l27.6 26.231Z" fill="#26a8d0" stroke="#504f4f" stroke-linecap="round" stroke-linejoin="round" stroke-width="8"/><path d="M241.057 117.042H57.033a37.906 37.906 0 0 1-37.795-37.8V45.658A37.906 37.906 0 0 1 57.033 7.863h205.251a37.906 37.906 0 0 1 37.8 37.795v33.584a37.9 37.9 0 0 1-20.792 33.719l13.76 43.733Z" fill="#fff"/><path d="M241.057 117.042H57.033a37.906 37.906 0 0 1-37.795-37.8V45.658A37.906 37.906 0 0 1 57.033 7.863h205.251a37.906 37.906 0 0 1 37.8 37.795v33.584a37.9 37.9 0 0 1-20.792 33.719l13.76 43.733Z" fill="none" stroke="#504f4f" stroke-linecap="round" stroke-linejoin="round" stroke-width="8"/><path d="M59.144 58.744V37.433h5.639v7.933h.132l5.376-7.933h6.164l-6.36 8.655 7.606 12.656h-6.164l-4.721-8.2-2.033 2.889v5.311ZM92.455 35.422a2.447 2.447 0 0 1-1.853-.739 2.53 2.53 0 0 1-.7-1.819 2.536 2.536 0 0 1 .7-1.82 2.451 2.451 0 0 1 1.853-.737 2.455 2.455 0 0 1 1.853.737 2.541 2.541 0 0 1 .7 1.82 2.536 2.536 0 0 1-.7 1.819 2.451 2.451 0 0 1-1.853.739Zm-3.739 18.861a3.438 3.438 0 0 0 3.039-1.686 8.38 8.38 0 0 0 1.1-4.607 7.875 7.875 0 0 0-1.1-4.508 3.492 3.492 0 0 0-3.039-1.591 3.488 3.488 0 0 0-3.032 1.591 7.875 7.875 0 0 0-1.1 4.508 8.38 8.38 0 0 0 1.1 4.607 3.434 3.434 0 0 0 3.032 1.687ZM84.98 35.422a2.443 2.443 0 0 1-1.853-.739 2.525 2.525 0 0 1-.7-1.819 2.53 2.53 0 0 1 .7-1.82 2.447 2.447 0 0 1 1.853-.737 2.45 2.45 0 0 1 1.852.737 2.537 2.537 0 0 1 .705 1.82 2.532 2.532 0 0 1-.705 1.819 2.446 2.446 0 0 1-1.852.739Zm3.736 23.715a10.476 10.476 0 0 1-4.048-.753 8.6 8.6 0 0 1-3.116-2.18 10.034 10.034 0 0 1-2.015-3.509 14.271 14.271 0 0 1-.721-4.7 13.976 13.976 0 0 1 .722-4.673 9.7 9.7 0 0 1 2.017-3.447 8.429 8.429 0 0 1 3.113-2.114 10.912 10.912 0 0 1 4.048-.721 10.967 10.967 0 0 1 4.039.721 8.306 8.306 0 0 1 3.125 2.13 9.924 9.924 0 0 1 2.018 3.443 13.9 13.9 0 0 1 .721 4.656 14.342 14.342 0 0 1-.721 4.7 10.039 10.039 0 0 1-2.017 3.509 8.563 8.563 0 0 1-3.126 2.184 10.528 10.528 0 0 1-4.035.753ZM101.439 58.744v-3.411l8.721-13.178h-7.869v-4.721h14.82v3.41l-8.721 13.179h8.787v4.721ZM133.569 35.422a2.447 2.447 0 0 1-1.853-.739 2.53 2.53 0 0 1-.7-1.819 2.536 2.536 0 0 1 .7-1.82 2.451 2.451 0 0 1 1.853-.737 2.455 2.455 0 0 1 1.853.737 2.541 2.541 0 0 1 .7 1.82 2.536 2.536 0 0 1-.7 1.819 2.451 2.451 0 0 1-1.853.739Zm-3.739 18.861a3.438 3.438 0 0 0 3.039-1.686 8.38 8.38 0 0 0 1.1-4.607 7.875 7.875 0 0 0-1.1-4.508 3.492 3.492 0 0 0-3.039-1.591 3.488 3.488 0 0 0-3.032 1.591 7.875 7.875 0 0 0-1.1 4.508 8.38 8.38 0 0 0 1.1 4.607 3.434 3.434 0 0 0 3.032 1.687Zm-3.736-18.861a2.443 2.443 0 0 1-1.853-.739 2.525 2.525 0 0 1-.7-1.819 2.53 2.53 0 0 1 .7-1.82 2.447 2.447 0 0 1 1.853-.737 2.45 2.45 0 0 1 1.852.737 2.537 2.537 0 0 1 .705 1.82 2.532 2.532 0 0 1-.705 1.819 2.446 2.446 0 0 1-1.852.739Zm3.736 23.715a10.476 10.476 0 0 1-4.048-.753 8.6 8.6 0 0 1-3.116-2.18 10.034 10.034 0 0 1-2.015-3.509 14.271 14.271 0 0 1-.721-4.7 13.976 13.976 0 0 1 .722-4.673 9.7 9.7 0 0 1 2.017-3.447 8.429 8.429 0 0 1 3.113-2.114 10.912 10.912 0 0 1 4.048-.721 10.967 10.967 0 0 1 4.039.721 8.306 8.306 0 0 1 3.125 2.13 9.924 9.924 0 0 1 2.018 3.443 13.9 13.9 0 0 1 .721 4.656 14.342 14.342 0 0 1-.721 4.7 10.039 10.039 0 0 1-2.017 3.509 8.563 8.563 0 0 1-3.126 2.184 10.528 10.528 0 0 1-4.035.753Z" fill="#243a75" stroke="#243a75" stroke-miterlimit="10" stroke-width=".667"/><path d="M150.328 59.137a12.849 12.849 0 0 1-4.18-.737 11.116 11.116 0 0 1-3.885-2.312l3.212-3.868a10.867 10.867 0 0 0 2.477 1.492 6.325 6.325 0 0 0 2.508.572 3.343 3.343 0 0 0 1.852-.393 1.272 1.272 0 0 0 .573-1.115 1.063 1.063 0 0 0-.2-.655 2.028 2.028 0 0 0-.575-.492 6.538 6.538 0 0 0-.9-.443 69.66 69.66 0 0 0-1.213-.475l-2.652-1.114a7.863 7.863 0 0 1-1.64-.871 6.344 6.344 0 0 1-1.377-1.278 5.9 5.9 0 0 1-.935-1.687 6.133 6.133 0 0 1-.344-2.1 5.746 5.746 0 0 1 .589-2.575 6.608 6.608 0 0 1 1.64-2.1 7.862 7.862 0 0 1 2.51-1.422 9.382 9.382 0 0 1 3.2-.524 10.836 10.836 0 0 1 3.721.687 9.189 9.189 0 0 1 3.361 2.164l-2.825 3.546a10.332 10.332 0 0 0-2.081-1.149 5.922 5.922 0 0 0-2.18-.393 3.144 3.144 0 0 0-1.639.361 1.188 1.188 0 0 0-.592 1.081 1.275 1.275 0 0 0 .837 1.165q.836.41 2.312.967l2.589 1.017a6.984 6.984 0 0 1 3.083 2.2 5.811 5.811 0 0 1 1.081 3.64 6.288 6.288 0 0 1-.557 2.589 6.28 6.28 0 0 1-1.624 2.18 8.018 8.018 0 0 1-2.605 1.485 10.408 10.408 0 0 1-3.541.557" fill="#243a75"/><path d="M168.96 59.137a12.849 12.849 0 0 1-4.18-.737 11.116 11.116 0 0 1-3.885-2.312l3.212-3.868a10.867 10.867 0 0 0 2.477 1.492 6.325 6.325 0 0 0 2.508.572 3.343 3.343 0 0 0 1.852-.393 1.272 1.272 0 0 0 .573-1.115 1.063 1.063 0 0 0-.2-.655 2.028 2.028 0 0 0-.575-.492 6.538 6.538 0 0 0-.9-.443 69.66 69.66 0 0 0-1.213-.475l-2.652-1.114a7.863 7.863 0 0 1-1.64-.871 6.344 6.344 0 0 1-1.377-1.278 5.9 5.9 0 0 1-.935-1.687 6.133 6.133 0 0 1-.344-2.1 5.746 5.746 0 0 1 .589-2.575 6.608 6.608 0 0 1 1.64-2.1 7.862 7.862 0 0 1 2.51-1.422 9.382 9.382 0 0 1 3.2-.524 10.836 10.836 0 0 1 3.721.687 9.189 9.189 0 0 1 3.361 2.164l-2.825 3.546a10.332 10.332 0 0 0-2.081-1.149 5.922 5.922 0 0 0-2.18-.393 3.144 3.144 0 0 0-1.639.361 1.188 1.188 0 0 0-.592 1.081 1.275 1.275 0 0 0 .837 1.165q.836.41 2.312.967l2.589 1.017a6.984 6.984 0 0 1 3.083 2.2 5.811 5.811 0 0 1 1.081 3.64 6.288 6.288 0 0 1-.557 2.589 6.28 6.28 0 0 1-1.624 2.18 8.018 8.018 0 0 1-2.605 1.485 10.408 10.408 0 0 1-3.541.557ZM188.378 36.645l-2.492-2.819 5.967-4.721 2.95 3.607Zm-6.885 22.1V37.433h13.77v4.721h-8.132v3.344h6.947v4.721h-6.947v3.8h8.46v4.726ZM209.973 59.137a12.886 12.886 0 0 1-4.2-.672 9.42 9.42 0 0 1-3.423-2.028 9.487 9.487 0 0 1-2.294-3.415 12.563 12.563 0 0 1-.836-4.771 12.482 12.482 0 0 1 .853-4.769 10.281 10.281 0 0 1 2.312-3.509 9.977 9.977 0 0 1 3.388-2.18 11.083 11.083 0 0 1 4.068-.756 9.253 9.253 0 0 1 4.083.836 10.516 10.516 0 0 1 2.869 1.985l-2.952 3.607a8.089 8.089 0 0 0-1.655-1.128 4.723 4.723 0 0 0-2.148-.443 4.694 4.694 0 0 0-2 .428 4.772 4.772 0 0 0-1.605 1.208 5.486 5.486 0 0 0-1.067 1.935 8.263 8.263 0 0 0-.376 2.589 7.025 7.025 0 0 0 1.344 4.624 5.206 5.206 0 0 0 4.228 1.606 4.169 4.169 0 0 0 .9-.1 2.155 2.155 0 0 0 .737-.3v-2.947h-3.143v-4.591h8.13v10.168a9.725 9.725 0 0 1-3.049 1.852 10.97 10.97 0 0 1-4.164.771ZM221.923 37.432h5.639v21.311h-5.639Z" fill="#243a75" stroke="#243a75" stroke-miterlimit="10" stroke-width=".667"/><path d="M47.804 91.683V70.372h5.639v7.933h.132l5.376-7.933h6.164l-6.36 8.655 7.606 12.656h-6.164l-4.721-8.2-2.033 2.889v5.311ZM81.115 68.361a2.447 2.447 0 0 1-1.853-.739 2.53 2.53 0 0 1-.7-1.819 2.536 2.536 0 0 1 .7-1.82 2.451 2.451 0 0 1 1.853-.737 2.455 2.455 0 0 1 1.853.737 2.541 2.541 0 0 1 .7 1.82 2.536 2.536 0 0 1-.7 1.819 2.451 2.451 0 0 1-1.853.739Zm-3.739 18.861a3.438 3.438 0 0 0 3.039-1.686 8.38 8.38 0 0 0 1.1-4.607 7.875 7.875 0 0 0-1.1-4.508 3.492 3.492 0 0 0-3.039-1.591 3.488 3.488 0 0 0-3.032 1.591 7.875 7.875 0 0 0-1.1 4.508 8.38 8.38 0 0 0 1.1 4.607 3.434 3.434 0 0 0 3.032 1.687ZM73.64 68.361a2.443 2.443 0 0 1-1.853-.739 2.525 2.525 0 0 1-.7-1.819 2.53 2.53 0 0 1 .7-1.82 2.447 2.447 0 0 1 1.853-.737 2.45 2.45 0 0 1 1.852.737 2.537 2.537 0 0 1 .705 1.82 2.532 2.532 0 0 1-.705 1.819 2.446 2.446 0 0 1-1.852.739Zm3.736 23.715a10.476 10.476 0 0 1-4.048-.753 8.6 8.6 0 0 1-3.116-2.18 10.034 10.034 0 0 1-2.015-3.509 14.271 14.271 0 0 1-.721-4.7 13.976 13.976 0 0 1 .722-4.673 9.7 9.7 0 0 1 2.017-3.447 8.429 8.429 0 0 1 3.113-2.114 10.912 10.912 0 0 1 4.048-.721 10.967 10.967 0 0 1 4.039.721 8.306 8.306 0 0 1 3.125 2.13 9.924 9.924 0 0 1 2.018 3.443 13.9 13.9 0 0 1 .721 4.656 14.342 14.342 0 0 1-.721 4.7 10.039 10.039 0 0 1-2.017 3.509 8.563 8.563 0 0 1-3.126 2.184 10.528 10.528 0 0 1-4.035.753ZM91.5 91.683V70.372h5.639v16.59h8.061v4.721ZM109.99 91.683V75.094h-5.639v-4.721h16.918v4.721h-5.64v16.589ZM131.5 92.076a12.849 12.849 0 0 1-4.18-.737 11.116 11.116 0 0 1-3.885-2.312l3.212-3.868a10.867 10.867 0 0 0 2.477 1.492 6.325 6.325 0 0 0 2.508.572 3.343 3.343 0 0 0 1.852-.393 1.272 1.272 0 0 0 .573-1.115 1.063 1.063 0 0 0-.2-.655 2.028 2.028 0 0 0-.575-.492 6.538 6.538 0 0 0-.9-.443 69.66 69.66 0 0 0-1.213-.475l-2.652-1.114a7.863 7.863 0 0 1-1.64-.871 6.344 6.344 0 0 1-1.377-1.278 5.9 5.9 0 0 1-.935-1.687 6.133 6.133 0 0 1-.344-2.1 5.746 5.746 0 0 1 .589-2.575 6.608 6.608 0 0 1 1.64-2.1 7.862 7.862 0 0 1 2.51-1.422 9.382 9.382 0 0 1 3.2-.524 10.836 10.836 0 0 1 3.721.687 9.189 9.189 0 0 1 3.361 2.164l-2.825 3.546a10.332 10.332 0 0 0-2.081-1.149 5.922 5.922 0 0 0-2.18-.393 3.144 3.144 0 0 0-1.639.361 1.188 1.188 0 0 0-.592 1.081 1.275 1.275 0 0 0 .837 1.165q.836.41 2.312.967l2.589 1.017a6.984 6.984 0 0 1 3.083 2.2 5.811 5.811 0 0 1 1.081 3.64 6.288 6.288 0 0 1-.557 2.589 6.28 6.28 0 0 1-1.624 2.18 8.018 8.018 0 0 1-2.605 1.485 10.408 10.408 0 0 1-3.541.557ZM151.106 69.584l-2.492-2.819 5.967-4.721 2.95 3.607Zm-6.885 22.1V70.372h13.77v4.721h-8.132v3.344h6.947v4.721h-6.947v3.8h8.46v4.726ZM173.27 92.076a12.886 12.886 0 0 1-4.2-.672 9.42 9.42 0 0 1-3.423-2.028 9.487 9.487 0 0 1-2.294-3.415 12.563 12.563 0 0 1-.836-4.771 12.482 12.482 0 0 1 .853-4.769 10.281 10.281 0 0 1 2.312-3.509 9.977 9.977 0 0 1 3.388-2.18 11.083 11.083 0 0 1 4.068-.756 9.253 9.253 0 0 1 4.083.836 10.516 10.516 0 0 1 2.869 1.985l-2.952 3.607a8.089 8.089 0 0 0-1.655-1.128 4.723 4.723 0 0 0-2.148-.443 4.694 4.694 0 0 0-2 .428 4.772 4.772 0 0 0-1.605 1.208 5.486 5.486 0 0 0-1.067 1.935 8.263 8.263 0 0 0-.376 2.589 7.025 7.025 0 0 0 1.344 4.624 5.206 5.206 0 0 0 4.228 1.606 4.169 4.169 0 0 0 .9-.1 2.155 2.155 0 0 0 .737-.3v-2.947h-3.143v-4.591h8.13v10.168a9.725 9.725 0 0 1-3.049 1.852 10.97 10.97 0 0 1-4.164.771ZM188.549 91.683l-6.3-21.311h5.972l2.228 9.311q.458 1.706.788 3.361t.785 3.392h.132q.46-1.736.8-3.392t.775-3.361l2.164-9.311h5.771l-6.296 21.311ZM204.679 91.683V70.372h13.771v4.721h-8.132v3.343h6.951v4.721h-6.951v3.8h8.461v4.726Z" fill="#26a8d0" stroke="#26a8d0" stroke-miterlimit="10" stroke-width=".667"/><path d="M227.958 91.683V75.094h-5.639v-4.721h16.918v4.721h-5.64v16.589Z" fill="#26a8d0"/><path d="m249.875 69.584-2.492-2.819 5.967-4.721 2.95 3.607Zm-6.885 22.1V70.372h13.77v4.721h-8.132v3.344h6.947v4.721h-6.947v3.8h8.46v4.726ZM268.768 92.076a12.849 12.849 0 0 1-4.18-.737 11.116 11.116 0 0 1-3.885-2.312l3.212-3.868a10.867 10.867 0 0 0 2.477 1.492 6.325 6.325 0 0 0 2.508.572 3.343 3.343 0 0 0 1.852-.393 1.272 1.272 0 0 0 .573-1.115 1.063 1.063 0 0 0-.2-.655 2.028 2.028 0 0 0-.575-.492 6.538 6.538 0 0 0-.9-.443 69.66 69.66 0 0 0-1.213-.475l-2.652-1.114a7.863 7.863 0 0 1-1.64-.871 6.344 6.344 0 0 1-1.377-1.278 5.9 5.9 0 0 1-.935-1.687 6.133 6.133 0 0 1-.344-2.1 5.746 5.746 0 0 1 .589-2.575 6.608 6.608 0 0 1 1.64-2.1 7.862 7.862 0 0 1 2.51-1.422 9.382 9.382 0 0 1 3.2-.524 10.836 10.836 0 0 1 3.721.687 9.189 9.189 0 0 1 3.361 2.164l-2.825 3.546a10.332 10.332 0 0 0-2.081-1.149 5.922 5.922 0 0 0-2.18-.393 3.144 3.144 0 0 0-1.639.361 1.188 1.188 0 0 0-.592 1.081 1.275 1.275 0 0 0 .837 1.165q.836.41 2.312.967l2.589 1.017a6.984 6.984 0 0 1 3.083 2.2 5.811 5.811 0 0 1 1.081 3.64 6.288 6.288 0 0 1-.557 2.589 6.28 6.28 0 0 1-1.624 2.18 8.018 8.018 0 0 1-2.605 1.485 10.408 10.408 0 0 1-3.541.557Z" fill="#26a8d0" stroke="#26a8d0" stroke-miterlimit="10" stroke-width=".667"/></g></g></svg>
