<svg width="204" height="48" viewBox="0 0 204 48" fill="none" xmlns="http://www.w3.org/2000/svg">
<path d="M178.602 39.4867H13.6072C10.3495 39.4759 7.22835 38.177 4.9248 35.8734C2.62125 33.5699 1.32234 30.4487 1.31154 27.191V19.5091C1.32388 16.2519 2.62327 13.1316 4.92649 10.8284C7.22971 8.5252 10.35 7.2258 13.6072 7.21347H185.511C188.768 7.2258 191.888 8.5252 194.191 10.8284C196.495 13.1316 197.794 16.2519 197.806 19.5091L192.209 24.3513C192.209 29.1291 195.043 36.1259 191.038 38.1576L200.061 46.7002L178.602 39.4867Z" fill="#26A8D0"/>
<path d="M200.061 48C199.919 47.999 199.779 47.9753 199.645 47.9297L178.397 40.7924H13.6072C10 40.7739 6.54617 39.3311 3.99765 36.7782C1.44913 34.2253 0.0123061 30.769 0 27.1617V19.5091C0.018449 15.907 1.45718 12.4575 4.00378 9.90984C6.55038 7.36215 9.99922 5.92193 13.6014 5.90193H185.511C189.113 5.92038 192.562 7.35911 195.11 9.90571C197.658 12.4523 199.098 15.9011 199.118 19.5033C199.118 19.6909 199.078 19.8763 199 20.047C198.922 20.2177 198.809 20.3697 198.667 20.4928L193.532 24.9368C193.621 26.2025 193.773 27.4629 193.989 28.7133C194.516 32.1737 195.101 36.0264 193.052 38.263L200.927 45.7516C201.118 45.9303 201.25 46.1623 201.307 46.4173C201.364 46.6723 201.343 46.9386 201.246 47.1813C201.149 47.424 200.982 47.632 200.765 47.778C200.548 47.9241 200.293 48.0014 200.031 48H200.061ZM13.6072 8.50744C10.6941 8.52282 7.90473 9.68687 5.84483 11.7468C3.78494 13.8067 2.62089 16.5961 2.60551 19.5091V27.1617C2.62089 30.0748 3.78494 32.8642 5.84483 34.9241C7.90473 36.984 10.6941 38.1481 13.6072 38.1635H178.602C178.743 38.1644 178.883 38.1861 179.017 38.2279L194.867 43.5618L190.154 39.0768C190.001 38.9352 189.885 38.758 189.816 38.5609C189.748 38.3638 189.729 38.1529 189.761 37.9468C189.792 37.741 189.871 37.5455 189.992 37.3764C190.113 37.2073 190.273 37.0697 190.458 36.9749C192.32 36.0264 192.045 33.2393 191.413 29.0822C191.131 27.5117 190.965 25.9227 190.915 24.3279C190.916 24.1413 190.956 23.957 191.034 23.7874C191.112 23.6178 191.225 23.4667 191.366 23.3442L196.495 18.9061C196.334 16.0973 195.108 13.4556 193.067 11.5192C191.026 9.58274 188.324 8.4973 185.511 8.48402L13.6072 8.50744Z" fill="#504F4F"/>
<path d="M183.034 33.6023H18.0337C14.7764 33.59 11.6562 32.2906 9.35294 29.9874C7.04972 27.6842 5.75032 24.5639 5.73798 21.3067V13.6014C5.74879 10.3437 7.04769 7.22249 9.35124 4.91894C11.6548 2.61539 14.776 1.31649 18.0337 1.30568H189.943C193.201 1.31649 196.322 2.61539 198.625 4.91894C200.929 7.22249 202.228 10.3437 202.239 13.6014V21.3067C202.232 23.5827 201.597 25.8127 200.402 27.7502C199.208 29.6876 197.501 31.257 195.47 32.2849L199.955 46.4835L183.034 33.6023Z" fill="white"/>
<path d="M199.955 47.7892C199.67 47.7888 199.393 47.6964 199.165 47.5257L182.595 34.8846H18.0337C14.4361 34.8662 10.9907 33.4305 8.44464 30.8888C5.89854 28.3471 4.45691 24.9042 4.4323 21.3067V13.6014C4.4477 9.99981 5.88484 6.55008 8.43099 4.00282C10.9772 1.45557 14.4263 0.0169484 18.0278 0H189.943C193.55 0.0107649 197.006 1.44629 199.559 3.99388C202.112 6.54147 203.555 9.9947 203.574 13.6014V21.3067C203.573 23.6359 202.974 25.926 201.834 27.9572C200.694 29.9883 199.051 31.6923 197.063 32.9056L201.22 46.1264C201.303 46.3901 201.3 46.6735 201.211 46.9355C201.123 47.1975 200.954 47.4247 200.728 47.5843C200.499 47.7328 200.228 47.8046 199.955 47.7892ZM189.937 2.59966H18.0337C15.12 2.61658 12.3306 3.78192 10.2709 5.84274C8.21118 7.90357 7.04733 10.6936 7.03196 13.6072V21.3067C7.04735 24.2208 8.2122 27.011 10.2734 29.0711C12.3345 31.1312 15.1254 32.2945 18.0395 32.3084H183.034C183.32 32.3088 183.598 32.4034 183.824 32.5777L197.484 42.9705L194.235 32.648C194.144 32.3535 194.161 32.0367 194.281 31.753C194.4 31.4693 194.616 31.2368 194.89 31.0964C196.707 30.1848 198.235 28.787 199.303 27.0586C200.372 25.3301 200.94 23.3389 200.945 21.3067V13.6014C200.929 10.6873 199.764 7.89699 197.703 5.83693C195.642 3.77687 192.851 2.6135 189.937 2.59966Z" fill="#504F4F"/>
<path d="M16.8092 22.6254V13.5106H19.2167V16.9027H19.2706L21.5781 13.5106H24.2164L21.4704 17.2104L24.7241 22.5946H22.1089L20.0859 19.1179L19.2167 20.3486V22.6562L16.8092 22.6254ZM31.0468 12.6261C30.9037 12.6298 30.7614 12.6037 30.629 12.5494C30.4965 12.4951 30.3769 12.4138 30.2776 12.3107C30.0801 12.1039 29.9723 11.8274 29.9776 11.5415C29.9745 11.3999 29.9995 11.259 30.0509 11.127C30.1024 10.995 30.1794 10.8745 30.2776 10.7723C30.3769 10.6692 30.4965 10.588 30.629 10.5337C30.7614 10.4794 30.9037 10.4532 31.0468 10.457C31.1899 10.4528 31.3323 10.4787 31.4648 10.533C31.5973 10.5873 31.7169 10.6689 31.8159 10.7723C31.9141 10.8745 31.9911 10.995 32.0426 11.127C32.094 11.259 32.119 11.3999 32.1159 11.5415C32.1212 11.8274 32.0134 12.1039 31.8159 12.3107C31.719 12.4183 31.6003 12.5042 31.4677 12.5625C31.3351 12.6209 31.1916 12.6504 31.0468 12.6491V12.6261ZM29.4545 20.7178C29.7147 20.7171 29.9704 20.6503 30.1977 20.5239C30.425 20.3974 30.6166 20.2154 30.7545 19.9948C31.092 19.3953 31.2546 18.713 31.2237 18.0257C31.263 17.3498 31.0996 16.6775 30.7545 16.0951C30.6085 15.8856 30.414 15.7145 30.1877 15.5964C29.9614 15.4783 29.7099 15.4166 29.4545 15.4166C29.1992 15.4166 28.9477 15.4783 28.7214 15.5964C28.4951 15.7145 28.3006 15.8856 28.1546 16.0951C27.8095 16.6775 27.6461 17.3498 27.6854 18.0257C27.6472 18.7137 27.8102 19.398 28.1546 19.9948C28.2891 20.2185 28.48 20.403 28.7081 20.5298C28.9362 20.6567 29.1936 20.7215 29.4545 20.7178ZM27.8547 12.6491C27.7115 12.6533 27.5691 12.6274 27.4366 12.5731C27.3041 12.5188 27.1845 12.4372 27.0855 12.3338C26.888 12.127 26.7802 11.8505 26.7855 11.5646C26.7824 11.4229 26.8074 11.2821 26.8588 11.1501C26.9103 11.0181 26.9873 10.8976 27.0855 10.7954C27.1845 10.6919 27.3041 10.6104 27.4366 10.5561C27.5691 10.5017 27.7115 10.4758 27.8547 10.48C27.9977 10.4763 28.14 10.5024 28.2724 10.5567C28.4049 10.611 28.5245 10.6923 28.6238 10.7954C28.722 10.8976 28.799 11.0181 28.8505 11.1501C28.9019 11.2821 28.9269 11.4229 28.9238 11.5646C28.9291 11.8505 28.8213 12.127 28.6238 12.3338C28.5245 12.4369 28.4049 12.5181 28.2724 12.5724C28.14 12.6267 27.9977 12.6529 27.8547 12.6491ZM29.4545 22.7869C28.8627 22.7949 28.2749 22.6878 27.7239 22.4716C27.2125 22.2641 26.7549 21.9432 26.3855 21.5332C25.995 21.0855 25.7016 20.5617 25.524 19.9948C25.1137 18.6905 25.1137 17.2917 25.524 15.9874C25.7068 15.4435 26.0001 14.9433 26.3855 14.5182C26.7622 14.1316 27.219 13.8323 27.7239 13.6414C28.8386 13.2311 30.0629 13.2311 31.1775 13.6414C31.6881 13.8395 32.1461 14.1527 32.5159 14.5567C32.9013 14.9818 33.1946 15.482 33.3774 16.0258C33.5948 16.667 33.6989 17.3411 33.685 18.018C33.6944 18.6996 33.5904 19.3781 33.3774 20.0256C33.1979 20.5917 32.9048 21.1152 32.5159 21.5639C32.1451 21.9724 31.6879 22.293 31.1775 22.5023C30.6292 22.7185 30.0439 22.8257 29.4545 22.8177V22.7869ZM34.8927 22.6254V21.164L38.6232 15.5259H35.2542V13.5106H41.5922V14.9644L37.8617 20.6025H41.623V22.6254H34.8927ZM48.6302 12.6261C48.4871 12.6303 48.3447 12.6044 48.2122 12.55C48.0797 12.4957 47.96 12.4142 47.861 12.3107C47.6636 12.1039 47.5557 11.8274 47.5611 11.5415C47.558 11.3999 47.5829 11.259 47.6344 11.127C47.6859 10.995 47.7629 10.8745 47.861 10.7723C48.0752 10.57 48.3587 10.4573 48.6533 10.4573C48.9479 10.4573 49.2314 10.57 49.4456 10.7723C49.5437 10.8745 49.6207 10.995 49.6722 11.127C49.7237 11.259 49.7486 11.3999 49.7455 11.5415C49.7509 11.8274 49.6431 12.1039 49.4456 12.3107C49.3436 12.4244 49.2174 12.5138 49.0763 12.5724C48.9352 12.6309 48.7828 12.6572 48.6302 12.6491V12.6261ZM47.0303 20.7178C47.2913 20.7215 47.5487 20.6567 47.7768 20.5298C48.0049 20.403 48.1957 20.2185 48.3302 19.9948C48.6747 19.398 48.8377 18.7137 48.7994 18.0257C48.8426 17.3495 48.679 16.6761 48.3302 16.0951C48.1901 15.8799 47.9968 15.7046 47.7691 15.586C47.5414 15.4675 47.2869 15.4096 47.0303 15.4182C46.7747 15.4087 46.5209 15.4662 46.2943 15.5849C46.0676 15.7036 45.8759 15.8795 45.7381 16.0951C45.3907 16.6769 45.2247 17.3491 45.2612 18.0257C45.2292 18.7141 45.3947 19.3973 45.7381 19.9948C45.8708 20.2184 46.0602 20.403 46.2871 20.53C46.514 20.6569 46.7704 20.7217 47.0303 20.7178ZM45.4304 12.6491C45.2874 12.6529 45.1451 12.6267 45.0126 12.5724C44.8802 12.5181 44.7605 12.4369 44.6613 12.3338C44.5631 12.232 44.4865 12.1113 44.4363 11.9791C44.3861 11.8469 44.3632 11.7059 44.369 11.5646C44.3645 11.4234 44.388 11.2828 44.4382 11.1508C44.4883 11.0187 44.5641 10.898 44.6613 10.7954C44.7605 10.6923 44.8802 10.611 45.0126 10.5567C45.1451 10.5024 45.2874 10.4763 45.4304 10.48C45.5736 10.4758 45.716 10.5017 45.8485 10.5561C45.981 10.6104 46.1006 10.6919 46.1996 10.7954C46.2991 10.897 46.3776 11.0172 46.4304 11.1492C46.4832 11.2812 46.5093 11.4224 46.5073 11.5646C46.5097 11.8514 46.3992 12.1277 46.1996 12.3338C46.1012 12.438 45.9817 12.5201 45.8491 12.5745C45.7164 12.6289 45.5737 12.6543 45.4304 12.6491ZM47.0303 22.7869C46.4437 22.7918 45.8616 22.6848 45.3151 22.4716C44.8069 22.2622 44.3522 21.9415 43.9844 21.5332C43.5938 21.0855 43.3005 20.5617 43.1229 19.9948C42.7125 18.6905 42.7125 17.2917 43.1229 15.9874C43.3057 15.4435 43.599 14.9433 43.9844 14.5182C44.3569 14.1302 44.8116 13.8306 45.3151 13.6414C46.4324 13.2313 47.659 13.2313 48.7764 13.6414C49.2847 13.8396 49.7402 14.1529 50.1071 14.5567C50.4947 14.9815 50.7905 15.4816 50.9762 16.0258C51.1898 16.6679 51.2938 17.3414 51.2839 18.018C51.2895 18.6994 51.1856 19.3772 50.9762 20.0256C50.7968 20.5917 50.5037 21.1152 50.1147 21.5639C49.7425 21.9707 49.2857 22.291 48.7764 22.5023C48.225 22.7175 47.6375 22.8245 47.0457 22.8177L47.0303 22.7869Z" fill="#243A75"/>
<path d="M63.7754 22.7869C63.1643 22.7866 62.5578 22.6798 61.9832 22.4716C61.365 22.2619 60.7967 21.9267 60.3141 21.487L61.6909 19.8333C62.013 20.0909 62.3672 20.3055 62.7447 20.4717C63.0834 20.6256 63.4497 20.7094 63.8216 20.7178C64.0885 20.7313 64.3541 20.6729 64.5907 20.5486C64.6694 20.497 64.7333 20.426 64.7764 20.3425C64.8196 20.2589 64.8404 20.1657 64.8369 20.0717C64.8415 19.9756 64.8202 19.88 64.7754 19.7948C64.7063 19.7115 64.623 19.6411 64.5292 19.5871C64.405 19.5154 64.2766 19.4512 64.1446 19.3948L63.6216 19.1949L62.4909 18.718C62.2432 18.6244 62.008 18.5004 61.7909 18.3488C61.5687 18.1956 61.3693 18.0117 61.1987 17.8026C61.0285 17.5839 60.8936 17.34 60.7987 17.0796C60.6967 16.7907 60.6472 16.486 60.6525 16.1797C60.6505 15.7983 60.7374 15.4217 60.9064 15.0797C61.0766 14.7356 61.3147 14.4295 61.6063 14.1798C61.9222 13.9131 62.2847 13.7071 62.6755 13.5722C63.1152 13.4178 63.5787 13.3423 64.0446 13.3491C64.5883 13.3531 65.1272 13.452 65.6368 13.6414C66.1789 13.8421 66.67 14.1599 67.0752 14.5721L65.8676 16.1104C65.5903 15.9122 65.2909 15.747 64.9753 15.6182C64.6783 15.5045 64.3627 15.4471 64.0446 15.4489C63.8015 15.4336 63.559 15.4869 63.3447 15.6028C63.2642 15.6491 63.198 15.7167 63.1532 15.798C63.1085 15.8794 63.0869 15.9715 63.0908 16.0643C63.0941 16.1732 63.1294 16.2787 63.1923 16.3676C63.2553 16.4566 63.3431 16.525 63.4447 16.5643C63.6857 16.6771 64.0164 16.8155 64.4369 16.9796L65.5445 17.4104C66.0545 17.5889 66.5065 17.9027 66.8521 18.318C67.1731 18.765 67.3356 19.3065 67.3136 19.8564C67.3146 20.2384 67.2333 20.6162 67.0752 20.964C66.9184 21.3229 66.6816 21.6413 66.3829 21.8947C66.0544 22.1736 65.6759 22.3876 65.2676 22.5254C64.7741 22.6999 64.2524 22.7808 63.7293 22.7639L63.7754 22.7869ZM72.0749 13.1722L71.0057 11.9646L73.5594 9.9493L74.8209 11.4877L72.0749 13.1722ZM69.1597 22.6254V13.5106H75.0516V15.5259H71.5749V16.9565H74.544V18.9795H71.5749V20.6025H75.1901V22.6254H69.1597ZM81.3435 22.7869C80.7319 22.7932 80.1235 22.6971 79.5436 22.5023C78.9995 22.3214 78.501 22.0249 78.0822 21.6332C77.65 21.2248 77.3138 20.7256 77.0976 20.1717C76.849 19.5215 76.7289 18.8293 76.7438 18.1334C76.7294 17.4368 76.8522 16.7442 77.1053 16.0951C77.3256 15.5189 77.6635 14.995 78.0976 14.5567C78.5012 14.1609 78.9797 13.8497 79.5052 13.6414C80.0597 13.4271 80.6491 13.3176 81.2435 13.3183C81.8447 13.304 82.4414 13.4249 82.9896 13.6721C83.4444 13.8864 83.8603 14.1749 84.2202 14.5259L82.9588 16.0643C82.7424 15.876 82.5049 15.7134 82.2511 15.5797C81.9611 15.4501 81.6457 15.3871 81.3281 15.3951C81.0336 15.3947 80.7424 15.4577 80.4743 15.5797C80.2095 15.6964 79.9752 15.8728 79.7898 16.0951C79.5833 16.3364 79.4265 16.6161 79.3283 16.9181C79.2214 17.2776 79.167 17.6506 79.1667 18.0257C79.1217 18.7318 79.3259 19.4314 79.7436 20.0025C79.9742 20.2454 80.2562 20.4336 80.569 20.5533C80.8818 20.6731 81.2173 20.7214 81.5512 20.6948C81.6808 20.6951 81.8099 20.6796 81.9358 20.6486C82.04 20.6384 82.1416 20.6097 82.2358 20.564V19.2872H80.8974V17.3181H84.3664V21.6716C83.9825 22.0036 83.5423 22.2642 83.0665 22.4408C82.5007 22.6625 81.8973 22.7722 81.2897 22.7639L81.3435 22.7869ZM86.4509 13.5106H88.8584V22.6254H86.4509V13.5106Z" fill="#243A75"/>
<path d="M29.393 23.0485C28.7872 23.0485 28.1869 22.9336 27.6239 22.71C27.0822 22.4847 26.5965 22.1434 26.2009 21.7101C25.8013 21.2447 25.5004 20.703 25.3164 20.1179C25.0901 19.4414 24.9809 18.7312 24.9933 18.018C24.9777 17.3146 25.0871 16.6141 25.3164 15.9489C25.5102 15.3776 25.822 14.8534 26.2317 14.4106C26.6146 13.9768 27.0905 13.635 27.6239 13.4106C28.2082 13.188 28.8294 13.0784 29.4546 13.0876C30.0749 13.0759 30.6916 13.1857 31.2698 13.4106C31.8188 13.6266 32.309 13.9692 32.7005 14.4106C33.109 14.8557 33.423 15.379 33.6235 15.9489C34.0439 17.3042 34.0439 18.755 33.6235 20.1102C33.4282 20.6969 33.1169 21.2383 32.7082 21.7024C32.3124 22.1389 31.8235 22.4807 31.2775 22.7023C30.7012 22.9272 30.0886 23.0445 29.4699 23.0485H29.393ZM29.393 13.5952C28.8515 13.5955 28.3145 13.6946 27.8085 13.8875C27.3424 14.0746 26.9225 14.3607 26.5778 14.7259C26.2281 15.1291 25.9662 15.6006 25.8086 16.1104C25.6006 16.7244 25.5017 17.37 25.5163 18.018C25.5006 18.6762 25.5995 19.3321 25.8086 19.9564C25.9662 20.4732 26.2279 20.9522 26.5778 21.364C26.9204 21.7426 27.3436 22.0396 27.8162 22.2331C28.3058 22.4282 28.8275 22.53 29.3546 22.5331H29.4161C29.9741 22.5416 30.5283 22.4397 31.0468 22.2331C31.5362 22.0358 31.9732 21.7278 32.3236 21.3332C32.6719 20.9204 32.9335 20.4417 33.0928 19.9256C33.3001 19.3034 33.4015 18.6507 33.3928 17.9949C33.4021 17.3466 33.3007 16.7015 33.0928 16.0874C32.9352 15.5775 32.6733 15.106 32.3236 14.7028C31.98 14.3309 31.5566 14.0417 31.0852 13.8567C30.5661 13.6532 30.012 13.5539 29.4546 13.5645L29.393 13.5952ZM46.9688 23.0485C46.3655 23.0484 45.7677 22.9336 45.2074 22.71C44.6623 22.4868 44.1737 22.1452 43.7767 21.7101C43.3661 21.2474 43.0546 20.7055 42.8614 20.1179C42.6394 19.443 42.5303 18.7361 42.5383 18.0257C42.5297 17.3203 42.6389 16.6184 42.8614 15.9489C43.0611 15.3804 43.3723 14.8574 43.7767 14.4106C44.176 13.9856 44.6646 13.6545 45.2074 13.4414C45.7915 13.2182 46.4128 13.1086 47.038 13.1183C47.6584 13.1067 48.275 13.2165 48.8533 13.4414C49.3983 13.6503 49.8878 13.9819 50.284 14.4106C50.6902 14.856 51.0017 15.3794 51.1993 15.9489C51.4287 16.6167 51.538 17.3198 51.5224 18.0257C51.5304 18.7336 51.4213 19.4379 51.1993 20.1102C51.0096 20.6994 50.6977 21.242 50.284 21.7024C49.8911 22.1422 49.4013 22.4845 48.8533 22.7023C48.2778 22.9206 47.6688 23.0377 47.0534 23.0485H46.9688ZM46.9688 13.5952C46.4273 13.5955 45.8903 13.6946 45.3843 13.8875C44.9182 14.0746 44.4983 14.3607 44.1536 14.7259C43.8017 15.1275 43.5394 15.5995 43.3844 16.1104C43.1777 16.7249 43.0763 17.3698 43.0844 18.018C43.0751 18.6764 43.1765 19.3316 43.3844 19.9564C43.539 20.4744 43.8011 20.954 44.1536 21.364C44.4962 21.7426 44.9194 22.0396 45.392 22.2331C45.8815 22.4284 46.4033 22.5302 46.9303 22.5331H46.9996C47.5551 22.5416 48.1068 22.4397 48.6226 22.2331C49.1215 22.037 49.5688 21.7291 49.9302 21.3332C50.2784 20.9204 50.54 20.4417 50.6993 19.9256C50.9074 19.3037 51.0063 18.6505 50.9916 17.9949C51.0027 17.3547 50.9038 16.7173 50.6993 16.1104C50.5365 15.6052 50.2751 15.1372 49.9302 14.7336C49.5865 14.3617 49.1632 14.0724 48.6918 13.8875C48.1728 13.6834 47.6186 13.584 47.0611 13.5952H46.9688ZM41.8768 22.8715H34.6388V21.087L38.1463 15.7874H35.0004V13.2568H41.8461V15.049L38.3386 20.3486H41.8768V22.8715ZM35.1465 22.3562H41.3615V20.8178H37.3848L41.3384 14.849V13.7644H35.5157V15.3028H39.1001L35.1465 21.2716V22.3562ZM25.1933 22.8715H21.955L20.0629 19.5871L19.4706 20.4256V22.8715H16.5477V13.2568H19.4706V16.1489L21.4705 13.2568H24.7472L21.8243 17.2258L25.1933 22.8715ZM22.2396 22.3639H24.2703L21.1936 17.195L23.7165 13.7644H21.7089L19.4014 17.1565H19.0091L18.9552 16.9027V13.7644H17.0631V22.3639H18.9629V20.2717L20.109 18.6411L22.2396 22.3639ZM47.0534 20.9717H46.9842C46.6847 20.9711 46.3904 20.8929 46.1302 20.7446C45.87 20.5963 45.6528 20.383 45.4997 20.1256C45.1304 19.484 44.9542 18.7496 44.992 18.0103C44.9513 17.2859 45.1339 16.5664 45.5151 15.9489C45.6889 15.7045 45.92 15.5065 46.1883 15.3724C46.4565 15.2383 46.7536 15.1721 47.0534 15.1797C47.3538 15.1687 47.6521 15.2333 47.9209 15.3677C48.1897 15.5021 48.4204 15.702 48.5918 15.9489C48.9698 16.5759 49.1495 17.3025 49.1071 18.0334C49.1419 18.7601 48.9656 19.4814 48.5995 20.1102C48.4444 20.3773 48.2207 20.5981 47.9515 20.7495C47.6824 20.901 47.3776 20.9777 47.0688 20.9717H47.0534ZM46.9842 15.672C46.7768 15.6705 46.5723 15.7211 46.3895 15.8192C46.2067 15.9173 46.0515 16.0598 45.9381 16.2335C45.6178 16.7685 45.4676 17.3881 45.5074 18.0103C45.4662 18.6581 45.6189 19.3034 45.9458 19.864C46.0533 20.0489 46.2086 20.2014 46.3954 20.3056C46.5821 20.4098 46.7935 20.4619 47.0073 20.4563C47.2222 20.4624 47.4348 20.4107 47.6229 20.3065C47.811 20.2023 47.9676 20.0495 48.0764 19.864C48.3972 19.3093 48.5496 18.6732 48.5149 18.0334C48.5551 17.4014 48.4051 16.7718 48.0841 16.2258C47.9676 16.0485 47.8072 15.9043 47.6185 15.8073C47.4298 15.7103 47.2193 15.6637 47.0073 15.672H46.9842ZM29.4853 20.9717H29.4161C29.1167 20.9704 28.8228 20.8918 28.5627 20.7436C28.3026 20.5954 28.0852 20.3825 27.9316 20.1256C27.565 19.4832 27.3914 18.7488 27.4316 18.0103C27.3874 17.2886 27.5617 16.5702 27.9316 15.9489C28.1058 15.705 28.3371 15.5074 28.6053 15.3733C28.8734 15.2393 29.1702 15.1728 29.4699 15.1797C29.7704 15.168 30.069 15.2323 30.3379 15.3668C30.6068 15.5012 30.8375 15.7015 31.0083 15.9489C31.3723 16.5828 31.5334 17.3129 31.4698 18.0411C31.5046 18.7678 31.3283 19.4891 30.9622 20.1179C30.8119 20.3767 30.5965 20.5916 30.3374 20.7414C30.0783 20.8912 29.7846 20.9705 29.4853 20.9717ZM29.4238 15.672C29.2153 15.6706 29.0098 15.7212 28.8258 15.8193C28.6418 15.9173 28.4851 16.0597 28.37 16.2335C28.0497 16.7685 27.8995 17.3881 27.9393 18.0103C27.9065 18.6593 28.0642 19.3036 28.3931 19.864C28.5019 20.0495 28.6585 20.2023 28.8466 20.3065C29.0347 20.4107 29.2473 20.4624 29.4622 20.4563C29.6782 20.4622 29.8918 20.4104 30.0811 20.3063C30.2703 20.2022 30.4284 20.0496 30.5391 19.864C30.8576 19.3087 31.0073 18.6725 30.9698 18.0334C31.016 17.4009 30.8655 16.7696 30.5391 16.2258C30.4222 16.0507 30.2628 15.9081 30.0759 15.8112C29.8889 15.7144 29.6804 15.6665 29.4699 15.672H29.4238ZM45.392 12.8722C45.2183 12.874 45.046 12.8401 44.8859 12.7726C44.7258 12.7051 44.5813 12.6055 44.4613 12.4799C44.3372 12.3531 44.2399 12.2026 44.1751 12.0375C44.1104 11.8723 44.0795 11.6958 44.0844 11.5184C44.0784 11.1668 44.211 10.827 44.4536 10.5723C44.5814 10.4395 44.7359 10.3352 44.9069 10.2662C45.0779 10.1973 45.2616 10.1653 45.4458 10.1724C45.6246 10.1668 45.8026 10.1988 45.9683 10.2664C46.1339 10.3339 46.2835 10.4356 46.4073 10.5647C46.5309 10.6934 46.6278 10.8453 46.6925 11.0116C46.7572 11.1779 46.7884 11.3554 46.7842 11.5338C46.7902 11.8854 46.6576 12.2253 46.415 12.4799C46.2885 12.612 46.1352 12.7154 45.9653 12.783C45.7955 12.8507 45.6131 12.8811 45.4304 12.8722H45.392ZM45.392 10.6877C45.2832 10.6839 45.1749 10.7031 45.0741 10.7442C44.9733 10.7853 44.8824 10.8473 44.8074 10.9262C44.733 11.0053 44.675 11.0984 44.6367 11.2C44.5984 11.3017 44.5806 11.4099 44.5844 11.5184C44.5804 11.63 44.5988 11.7412 44.6384 11.8455C44.6781 11.9499 44.7381 12.0453 44.8151 12.1261C44.891 12.2059 44.9831 12.2685 45.0853 12.3097C45.1875 12.3508 45.2973 12.3695 45.4074 12.3645C45.5183 12.3677 45.6288 12.3482 45.732 12.3072C45.8351 12.2662 45.9288 12.2046 46.0073 12.1261C46.1555 11.965 46.2355 11.7527 46.2304 11.5338C46.2352 11.4222 46.2172 11.3107 46.1775 11.2062C46.1379 11.1018 46.0773 11.0065 45.9996 10.9262C45.9237 10.8463 45.8316 10.7837 45.7294 10.7426C45.6272 10.7014 45.5174 10.6827 45.4074 10.6877H45.392ZM27.8085 12.8722C27.6334 12.8794 27.4586 12.851 27.2947 12.7889C27.1308 12.7268 26.9811 12.6321 26.8547 12.5107C26.6169 12.25 26.4851 11.9098 26.4851 11.5569C26.4851 11.204 26.6169 10.8638 26.8547 10.6031C26.9808 10.4701 27.1339 10.3655 27.3037 10.2965C27.4735 10.2275 27.6561 10.1957 27.8393 10.2031C28.0191 10.1988 28.1978 10.2314 28.3645 10.2988C28.5312 10.3663 28.6823 10.4673 28.8084 10.5954C29.0538 10.8576 29.1864 11.2056 29.1777 11.5646C29.1823 11.7389 29.1521 11.9125 29.0886 12.0749C29.0252 12.2374 28.93 12.3856 28.8084 12.5107C28.684 12.6348 28.5346 12.7312 28.3702 12.7935C28.2059 12.8558 28.0301 12.8826 27.8547 12.8722H27.8085ZM27.8085 10.6877C27.6983 10.6807 27.5879 10.6975 27.4847 10.737C27.3816 10.7765 27.2882 10.8378 27.2108 10.9166C27.1335 10.9954 27.074 11.0899 27.0364 11.1938C26.9989 11.2976 26.9841 11.4084 26.9932 11.5184C26.9893 11.63 27.0076 11.7412 27.0473 11.8455C27.0869 11.9499 27.147 12.0453 27.2239 12.1261C27.3007 12.2069 27.3941 12.2701 27.4977 12.3113C27.6013 12.3525 27.7126 12.3706 27.8239 12.3645C27.9352 12.3706 28.0465 12.3525 28.1501 12.3113C28.2537 12.2701 28.3471 12.2069 28.4239 12.1261C28.573 11.9619 28.6557 11.748 28.6557 11.5261C28.6557 11.3043 28.573 11.0904 28.4239 10.9262C28.3471 10.8453 28.2537 10.7821 28.1501 10.7409C28.0465 10.6998 27.9352 10.6816 27.8239 10.6877H27.8085ZM48.6764 12.8722H48.5918C48.3716 12.8631 48.1569 12.8004 47.9664 12.6895C47.7759 12.5786 47.6154 12.4229 47.4988 12.2359C47.3822 12.0488 47.313 11.8362 47.2972 11.6163C47.2815 11.3965 47.3197 11.1761 47.4084 10.9744C47.4972 10.7726 47.6339 10.5956 47.8066 10.4587C47.9793 10.3218 48.1829 10.2291 48.3995 10.1887C48.6162 10.1484 48.8395 10.1615 49.0499 10.227C49.2604 10.2925 49.4516 10.4084 49.6071 10.5647C49.7297 10.6938 49.8254 10.8459 49.8888 11.0123C49.9522 11.1786 49.9819 11.3559 49.9763 11.5338C49.9815 11.7077 49.9516 11.8809 49.8886 12.0431C49.8256 12.2053 49.7307 12.3532 49.6094 12.478C49.4882 12.6028 49.3432 12.702 49.1829 12.7697C49.0226 12.8374 48.8504 12.8723 48.6764 12.8722ZM48.6072 10.6877C48.4984 10.6839 48.3901 10.7031 48.2893 10.7442C48.1885 10.7853 48.0976 10.8473 48.0226 10.9262C47.8734 11.0904 47.7908 11.3043 47.7908 11.5261C47.7908 11.748 47.8734 11.9619 48.0226 12.1261C48.0993 12.2069 48.1927 12.2701 48.2963 12.3113C48.3999 12.3525 48.5112 12.3706 48.6226 12.3645C48.7339 12.3706 48.8452 12.3525 48.9488 12.3113C49.0523 12.2701 49.1458 12.2069 49.2225 12.1261C49.3717 11.9619 49.4543 11.748 49.4543 11.5261C49.4543 11.3043 49.3717 11.0904 49.2225 10.9262C49.1458 10.8453 49.0523 10.7821 48.9488 10.7409C48.8452 10.6998 48.7339 10.6816 48.6226 10.6877H48.6072ZM31.0083 12.8722C30.8346 12.874 30.6623 12.8401 30.5022 12.7726C30.3421 12.7051 30.1976 12.6055 30.0776 12.4799C29.9535 12.3531 29.8562 12.2026 29.7915 12.0375C29.7267 11.8723 29.6958 11.6958 29.7007 11.5184C29.6947 11.1668 29.8273 10.827 30.0699 10.5723C30.3313 10.3177 30.6818 10.1752 31.0468 10.1752C31.4117 10.1752 31.7622 10.3177 32.0236 10.5723C32.2704 10.8342 32.4056 11.1818 32.4005 11.5415C32.4065 11.8931 32.2739 12.233 32.0313 12.4876C31.9046 12.6193 31.7512 12.7224 31.5814 12.79C31.4116 12.8577 31.2293 12.8883 31.0468 12.8799L31.0083 12.8722ZM31.0083 10.6877C30.8995 10.6839 30.7912 10.7031 30.6904 10.7442C30.5897 10.7853 30.4987 10.8473 30.4237 10.9262C30.3493 11.0053 30.2913 11.0984 30.253 11.2C30.2147 11.3017 30.1969 11.4099 30.2007 11.5184C30.1967 11.63 30.2151 11.7412 30.2548 11.8455C30.2944 11.9499 30.3544 12.0453 30.4314 12.1261C30.5073 12.2059 30.5995 12.2685 30.7016 12.3097C30.8038 12.3508 30.9136 12.3695 31.0237 12.3645C31.1347 12.3677 31.2451 12.3482 31.3483 12.3072C31.4514 12.2662 31.5451 12.2046 31.6236 12.1261C31.7725 11.9654 31.8526 11.7528 31.8467 11.5338C31.8524 11.4221 31.8349 11.3104 31.7952 11.2058C31.7554 11.1012 31.6944 11.0059 31.616 10.9262C31.5401 10.8463 31.4479 10.7837 31.3457 10.7426C31.2435 10.7014 31.1337 10.6827 31.0237 10.6877H31.0083Z" fill="#243A75"/>
<path d="M55.799 22.7869C55.1879 22.7859 54.5816 22.6792 54.0068 22.4716C53.3913 22.2609 52.8257 21.9258 52.3454 21.487L53.7222 19.8333C54.0457 20.0928 54.4028 20.3076 54.7837 20.4717C55.1193 20.6265 55.4833 20.7103 55.8528 20.7178C56.1198 20.7321 56.3857 20.6736 56.622 20.5486C56.7006 20.497 56.7646 20.426 56.8077 20.3425C56.8508 20.2589 56.8717 20.1657 56.8682 20.0717C56.8672 19.9708 56.8379 19.8722 56.7836 19.7871C56.7145 19.7038 56.6312 19.6335 56.5374 19.5795C56.4132 19.5077 56.2848 19.4435 56.1528 19.3872L55.6298 19.1872L54.5452 18.7103C54.2983 18.6151 54.0633 18.4911 53.8453 18.3411C53.6231 18.1879 53.4237 18.004 53.253 17.795C53.0829 17.5762 52.9479 17.3323 52.853 17.0719C52.7548 16.7821 52.7054 16.478 52.7069 16.172C52.7049 15.7906 52.7918 15.414 52.9607 15.0721C53.131 14.7279 53.3691 14.4218 53.6607 14.1721C53.9793 13.9052 54.3443 13.6992 54.7375 13.5645C55.1697 13.412 55.6253 13.3365 56.0836 13.3414C56.6273 13.3454 57.1661 13.4443 57.6758 13.6337C58.2191 13.8318 58.7108 14.15 59.1142 14.5644L57.9066 16.1028C57.6293 15.9045 57.3299 15.7393 57.0143 15.6105C56.719 15.4882 56.4032 15.4229 56.0836 15.4182C55.8405 15.4037 55.5982 15.4569 55.3836 15.572C55.3032 15.6184 55.237 15.6859 55.1922 15.7673C55.1474 15.8487 55.1259 15.9407 55.1298 16.0335C55.1327 16.1436 55.1687 16.2502 55.2332 16.3395C55.2977 16.4287 55.3877 16.4963 55.4913 16.5335C55.7298 16.6489 56.0605 16.7873 56.4759 16.9489L57.5835 17.3796C58.1005 17.5684 58.5574 17.8925 58.9065 18.318C59.2238 18.7668 59.3859 19.307 59.368 19.8564C59.3782 20.2436 59.3075 20.6287 59.1603 20.9871C58.9782 21.3518 58.7151 21.6702 58.3911 21.9178C58.0654 22.1966 57.6895 22.4106 57.2835 22.5485C56.7898 22.7219 56.2683 22.8028 55.7452 22.7869" fill="#243A75"/>
<path d="M63.8369 23.0485H63.7754C63.1383 23.043 62.5066 22.9312 61.9063 22.7177C61.259 22.4955 60.6646 22.142 60.1603 21.6793L59.9295 21.5101L61.6217 19.4718L61.8217 19.6333C62.1248 19.8797 62.4615 20.0817 62.8216 20.2333C63.1253 20.3751 63.4556 20.4511 63.7908 20.4563C64.0227 20.4783 64.2558 20.4301 64.46 20.3179C64.4962 20.2901 64.525 20.2538 64.5438 20.2122C64.5626 20.1706 64.5708 20.125 64.5677 20.0794C64.5779 20.0578 64.5833 20.0341 64.5833 20.0102C64.5833 19.9862 64.5779 19.9626 64.5677 19.941C64.5247 19.8834 64.4696 19.8361 64.4061 19.8025C64.2921 19.736 64.1739 19.6769 64.0523 19.6256L63.537 19.4256L62.3909 18.9487C62.1188 18.8479 61.8604 18.7136 61.6217 18.5487C61.3762 18.3839 61.1581 18.1815 60.9756 17.9488C60.7876 17.7186 60.6395 17.4586 60.5372 17.1796C60.4239 16.8638 60.3667 16.5306 60.3679 16.1951C60.3807 15.7622 60.4939 15.3382 60.6987 14.9567C60.8827 14.58 61.1449 14.247 61.4679 13.9798C61.8084 13.692 62.1997 13.4703 62.6216 13.326C63.09 13.1573 63.5854 13.0765 64.0831 13.0876C64.6558 13.0899 65.2236 13.1941 65.7599 13.3952C66.3379 13.6082 66.8628 13.9441 67.2983 14.3798L67.4521 14.5413L65.9137 16.4258L65.7137 16.2874C65.457 16.0998 65.178 15.9447 64.883 15.8258C64.6151 15.7246 64.3311 15.6725 64.0446 15.672C63.8427 15.665 63.642 15.7073 63.46 15.7951C63.4235 15.8213 63.3939 15.856 63.3738 15.8962C63.3537 15.9364 63.3437 15.9809 63.3447 16.0258C63.3462 16.0838 63.3655 16.14 63.3999 16.1867C63.4342 16.2334 63.4821 16.2686 63.537 16.2874C63.8641 16.4507 64.2005 16.5945 64.5446 16.7181L65.6522 17.1565C66.2125 17.3585 66.7053 17.7128 67.0752 18.1795C67.4431 18.6716 67.6354 19.2729 67.6213 19.8871C67.6127 20.3107 67.5135 20.7276 67.3304 21.1097C67.1473 21.4918 66.8846 21.8302 66.5598 22.1024C66.207 22.4048 65.7998 22.6371 65.3599 22.7869C64.8706 22.9591 64.3557 23.0475 63.8369 23.0485ZM60.6987 21.4563C61.1106 21.7932 61.5795 22.0537 62.0832 22.2254C62.6325 22.417 63.2091 22.5183 63.7908 22.5254C64.2769 22.5328 64.7607 22.4573 65.2215 22.3024C65.5971 22.1705 65.9462 21.9725 66.2522 21.7178C66.5169 21.4826 66.7292 21.1943 66.8752 20.8717C67.0192 20.5581 67.0927 20.2168 67.0906 19.8717C67.1161 19.369 66.9696 18.8725 66.6752 18.4641C66.3632 18.0778 65.9507 17.7851 65.483 17.618L64.3677 17.1796C63.9446 17.0181 63.5985 16.8719 63.3601 16.7566C63.2128 16.7016 63.086 16.6028 62.9966 16.4735C62.9072 16.3442 62.8596 16.1907 62.8601 16.0335C62.8546 15.8949 62.8868 15.7573 62.9531 15.6355C63.0195 15.5136 63.1176 15.4119 63.237 15.3413C63.4976 15.2057 63.7897 15.1419 64.0831 15.1567C64.4278 15.1512 64.7703 15.2139 65.0907 15.3413C65.3586 15.4449 65.6162 15.5737 65.8599 15.7259L66.7752 14.5798C66.4317 14.2709 66.0323 14.0307 65.5984 13.8721C65.1067 13.6863 64.5857 13.5899 64.06 13.5875C63.6234 13.5934 63.1902 13.6661 62.7755 13.8029C62.4114 13.9239 62.0744 14.1146 61.7832 14.3644C61.5136 14.5903 61.2913 14.8674 61.1294 15.1797C60.9833 15.4874 60.9071 15.8237 60.9064 16.1643C60.9073 16.4412 60.9514 16.7163 61.0371 16.9796C61.1221 17.213 61.2441 17.4312 61.3986 17.6257C61.5505 17.8149 61.7293 17.9808 61.9294 18.118C62.1346 18.2559 62.3538 18.3719 62.5832 18.4641L63.7216 18.941L64.2369 19.141C64.3816 19.2025 64.5228 19.2718 64.66 19.3487C64.7807 19.4215 64.8875 19.5153 64.9753 19.6256C65.0666 19.7564 65.115 19.9123 65.1138 20.0717C65.115 20.2069 65.0826 20.3402 65.0195 20.4597C64.9564 20.5792 64.8645 20.6811 64.7523 20.7563C64.4603 20.914 64.1296 20.986 63.7985 20.964C63.3995 20.9544 63.0067 20.8627 62.6447 20.6948C62.3226 20.555 62.0159 20.3823 61.7294 20.1794L60.6987 21.4563ZM81.3743 23.0485H81.2897C80.6621 23.049 80.0387 22.9477 79.4436 22.7485C78.8553 22.553 78.3177 22.2295 77.8694 21.8012C77.4212 21.3729 77.0735 20.8505 76.8515 20.2717C76.5894 19.5898 76.4615 18.8638 76.4746 18.1334C76.4635 17.405 76.5942 16.6813 76.8592 16.0028C77.0883 15.4097 77.4335 14.8684 77.8745 14.4106C78.3166 13.9832 78.8396 13.6484 79.4129 13.426C79.9997 13.2099 80.6183 13.0929 81.2435 13.0799C81.8823 13.0685 82.5157 13.1999 83.0972 13.4645C83.5779 13.6895 84.0173 13.9937 84.3971 14.3644L84.5664 14.5259L83.0049 16.4566L82.8126 16.2797C82.6115 16.1041 82.3893 15.9543 82.1511 15.8335C81.9116 15.7184 81.6476 15.663 81.382 15.672C81.1173 15.673 80.8555 15.7279 80.6128 15.8335C80.3834 15.9415 80.1791 16.096 80.0128 16.2874C79.8241 16.5121 79.6852 16.7742 79.6052 17.0565C79.5028 17.3903 79.4535 17.7381 79.459 18.0872C79.4101 18.7402 79.5956 19.3893 79.9821 19.9179C80.1818 20.1191 80.4227 20.2749 80.6882 20.3744C80.9537 20.474 81.2376 20.5151 81.5204 20.4948C81.6378 20.5112 81.7569 20.5112 81.8742 20.4948H81.9896V19.6487H80.6435V17.0642H84.6356V21.7793L84.551 21.8562C84.1465 22.2224 83.6768 22.5094 83.1665 22.7023C82.5886 22.9313 81.9727 23.0487 81.3512 23.0485H81.3743ZM81.3281 22.5331C81.9045 22.5435 82.4771 22.4389 83.0126 22.2254C83.4284 22.0673 83.8135 21.8383 84.151 21.5486V17.5796H81.1897V19.0256H82.5357V20.6871L82.4127 20.7563C82.2921 20.8391 82.1561 20.8967 82.0127 20.9255C81.8686 20.9565 81.7216 20.9719 81.5743 20.9717C81.2056 21.003 80.8346 20.95 80.4895 20.8168C80.1443 20.6835 79.834 20.4734 79.5821 20.2025C79.1153 19.5795 78.8862 18.8103 78.936 18.0334C78.9306 17.6366 78.9904 17.2417 79.1129 16.8642C79.2127 16.5271 79.3831 16.2151 79.6128 15.9489C79.8251 15.702 80.0873 15.5027 80.382 15.3643C80.6827 15.224 81.0118 15.1555 81.3435 15.1644C81.6985 15.1533 82.0512 15.2244 82.3742 15.372C82.5696 15.4763 82.7573 15.5946 82.9357 15.7259L83.8818 14.5721C83.5861 14.3129 83.2545 14.0979 82.8972 13.9337C82.3873 13.696 81.829 13.5802 81.2666 13.5952C80.7007 13.5909 80.1393 13.6953 79.6128 13.9029C79.1047 14.1006 78.6416 14.3989 78.2514 14.7798C77.8474 15.1798 77.5306 15.659 77.3207 16.1874C76.8641 17.4472 76.8641 18.8273 77.3207 20.0871C77.5266 20.6022 77.8414 21.0666 78.2437 21.4486C78.6385 21.8018 79.1058 22.0643 79.6128 22.2177C80.1638 22.3999 80.7402 22.4934 81.3204 22.4946L81.3281 22.5331ZM75.4285 22.8792H68.8905V13.2568H71.821L70.6519 11.9338L73.6132 9.62625L75.2208 11.5953L72.4518 13.2952H75.29V15.8258H71.8133V16.7181H74.7824V19.2487H71.8133V20.364H75.4285V22.8792ZM69.4058 22.3639H74.9208V20.8255H71.298V18.718H74.2747V17.2181H71.298V15.272H74.7747V13.7337H69.3904L69.4058 22.3639ZM71.398 12.003L72.1672 12.8414L74.4747 11.4261L73.5594 10.3031L71.398 12.003ZM89.0815 22.8715H86.1509V13.2491H89.0815V22.8715ZM86.6662 22.3562H88.5661V13.7644H86.6662V22.3562Z" fill="#243A75"/>
<path d="M93.7735 22.5869V13.4722H96.181V16.8642H96.2348L98.5424 13.4722H101.181L98.3886 17.1719L101.642 22.5562H99.0116L96.9886 19.0487L96.1195 20.2794V22.5869H93.7735ZM108.011 12.5876C107.868 12.5913 107.726 12.5652 107.593 12.5109C107.461 12.4566 107.341 12.3753 107.242 12.2722C107.044 12.0654 106.937 11.789 106.942 11.5031C106.939 11.3614 106.964 11.2206 107.015 11.0886C107.067 10.9566 107.144 10.836 107.242 10.7339C107.341 10.6308 107.461 10.5495 107.593 10.4952C107.726 10.4409 107.868 10.4148 108.011 10.4185C108.154 10.4143 108.297 10.4402 108.429 10.4945C108.562 10.5489 108.681 10.6304 108.78 10.7339C108.878 10.836 108.955 10.9566 109.007 11.0886C109.058 11.2206 109.083 11.3614 109.08 11.5031C109.085 11.789 108.978 12.0654 108.78 12.2722C108.68 12.3839 108.556 12.4721 108.418 12.5306C108.28 12.5891 108.13 12.6164 107.98 12.6107L108.011 12.5876ZM106.388 20.6794C106.648 20.6833 106.904 20.6185 107.131 20.4915C107.358 20.3646 107.548 20.18 107.68 19.9564C108.024 19.3589 108.189 18.6757 108.157 17.9873C108.198 17.3102 108.031 16.6369 107.68 16.0566C107.535 15.8472 107.341 15.676 107.116 15.5578C106.89 15.4396 106.639 15.3779 106.384 15.3779C106.129 15.3779 105.878 15.4396 105.653 15.5578C105.427 15.676 105.233 15.8472 105.088 16.0566C104.743 16.6391 104.58 17.3113 104.619 17.9873C104.581 18.6753 104.744 19.3595 105.088 19.9564C105.223 20.18 105.413 20.3645 105.642 20.4914C105.87 20.6183 106.127 20.6831 106.388 20.6794ZM104.788 12.6107C104.645 12.6149 104.503 12.589 104.37 12.5346C104.238 12.4803 104.118 12.3988 104.019 12.2953C103.821 12.0885 103.714 11.812 103.719 11.5261C103.716 11.3845 103.741 11.2436 103.792 11.1117C103.844 10.9797 103.921 10.8591 104.019 10.7569C104.118 10.6535 104.238 10.5719 104.37 10.5176C104.503 10.4633 104.645 10.4374 104.788 10.4416C104.931 10.4379 105.074 10.464 105.206 10.5183C105.338 10.5726 105.458 10.6539 105.557 10.7569C105.747 10.9685 105.851 11.2423 105.851 11.5261C105.851 11.8099 105.747 12.0838 105.557 12.2953C105.458 12.3984 105.338 12.4797 105.206 12.534C105.074 12.5883 104.931 12.6144 104.788 12.6107ZM106.388 22.7562C105.793 22.7615 105.203 22.6518 104.65 22.4331C104.142 22.2237 103.687 21.903 103.319 21.4947C102.933 21.0584 102.64 20.5481 102.458 19.9948C102.047 18.6905 102.047 17.2917 102.458 15.9874C102.64 15.4435 102.934 14.9433 103.319 14.5182C103.694 14.1335 104.148 13.8344 104.65 13.6414C105.205 13.432 105.795 13.3277 106.388 13.3337C106.976 13.3284 107.561 13.4327 108.111 13.6414C108.622 13.8395 109.08 14.1527 109.449 14.5567C109.835 14.9818 110.128 15.482 110.311 16.0258C110.528 16.667 110.632 17.3411 110.619 18.018C110.628 18.6996 110.524 19.3781 110.311 20.0256C110.127 20.5781 109.834 21.088 109.449 21.5255C109.079 21.934 108.621 22.2545 108.111 22.4639C107.563 22.6801 106.977 22.7872 106.388 22.7792V22.7562ZM112.426 22.5869V13.4722H114.834V20.564H118.28V22.5869H112.426ZM120.333 22.5869V15.4874H117.918V13.4722H125.156V15.4874H122.741V22.5869H120.333ZM129.525 22.7562C128.917 22.7476 128.315 22.6411 127.741 22.4408C127.125 22.2261 126.56 21.8885 126.079 21.4486L127.456 19.7948C127.776 20.0551 128.131 20.2699 128.51 20.4332C128.848 20.5872 129.215 20.6709 129.587 20.6794C129.854 20.6956 130.12 20.637 130.356 20.5102C130.433 20.4575 130.496 20.3863 130.539 20.303C130.582 20.2197 130.604 20.127 130.602 20.0333C130.602 19.931 130.57 19.8314 130.51 19.7487C130.444 19.6618 130.36 19.5908 130.263 19.541C130.14 19.4678 130.011 19.4035 129.879 19.3487L129.363 19.1487L128.233 18.6718C127.983 18.5766 127.746 18.4527 127.525 18.3026C127.305 18.1493 127.108 17.9654 126.941 17.7565C126.768 17.5396 126.632 17.2952 126.541 17.0335C126.439 16.7446 126.389 16.4398 126.394 16.1335C126.392 15.7529 126.476 15.3767 126.641 15.0336C126.816 14.6908 127.056 14.3852 127.348 14.1337C127.666 13.8697 128.028 13.664 128.417 13.526C128.857 13.3717 129.321 13.2962 129.787 13.3029C130.33 13.3107 130.868 13.4095 131.379 13.5952C131.921 13.7959 132.412 14.1137 132.817 14.5259L131.609 16.0643C131.332 15.8661 131.033 15.7009 130.717 15.572C130.42 15.4588 130.105 15.4015 129.787 15.4028C129.543 15.3875 129.301 15.4408 129.087 15.5566C129.006 15.6023 128.939 15.6697 128.894 15.7513C128.849 15.8328 128.828 15.9252 128.833 16.0181C128.836 16.127 128.871 16.2326 128.934 16.3215C128.997 16.4104 129.085 16.4788 129.187 16.5181C129.428 16.6361 129.758 16.7745 130.179 16.9335L131.286 17.3642C131.806 17.5335 132.269 17.8422 132.625 18.2565C132.948 18.7024 133.111 19.2446 133.086 19.7948C133.089 20.177 133.008 20.5552 132.848 20.9024C132.688 21.2598 132.452 21.5776 132.156 21.8332C131.824 22.1102 131.447 22.3263 131.04 22.4716C130.545 22.6376 130.025 22.7182 129.502 22.71L129.525 22.7562ZM137.909 13.1337L136.848 11.9261L139.401 9.91085L140.663 11.4492L137.909 13.1337ZM134.971 22.5869V13.4722H140.855V15.4874H137.378V16.9181H140.347V18.941H137.378V20.564H140.993V22.5869H134.971ZM147.385 22.7562C146.776 22.7554 146.171 22.6567 145.593 22.4639C145.047 22.2868 144.548 21.9898 144.132 21.5947C143.701 21.1877 143.365 20.6915 143.147 20.141C142.899 19.4879 142.779 18.7933 142.793 18.0949C142.779 17.3983 142.902 16.7057 143.155 16.0566C143.375 15.4804 143.713 14.9565 144.147 14.5182C144.565 14.1319 145.057 13.8337 145.593 13.6414C146.148 13.4271 146.737 13.3176 147.332 13.3183C147.933 13.304 148.529 13.4249 149.078 13.6721C149.532 13.8864 149.948 14.1749 150.308 14.5259L149.047 16.0643C148.83 15.8785 148.593 15.7184 148.339 15.5874C148.051 15.4518 147.735 15.3859 147.416 15.3951C147.122 15.3947 146.83 15.4577 146.562 15.5797C146.299 15.6989 146.065 15.8749 145.878 16.0951C145.671 16.3364 145.515 16.6161 145.416 16.9181C145.309 17.2776 145.255 17.6507 145.255 18.0257C145.21 18.7318 145.414 19.4314 145.832 20.0025C146.062 20.2454 146.344 20.4336 146.657 20.5533C146.97 20.6731 147.305 20.7214 147.639 20.6948C147.769 20.6951 147.898 20.6796 148.024 20.6486C148.137 20.6292 148.245 20.5845 148.339 20.5179V19.2487H147.001V17.2796H150.47V21.6332C150.086 21.9652 149.646 22.2257 149.17 22.4023C148.601 22.6236 147.996 22.7358 147.385 22.7331V22.7562ZM153.923 22.5869L151.231 13.4722H153.77L154.739 17.4873C154.862 17.9719 154.977 18.4488 155.069 18.918C155.162 19.3872 155.277 19.8794 155.408 20.3717H155.462C155.595 19.8589 155.71 19.3743 155.808 18.918C155.9 18.4488 156.016 17.9719 156.139 17.4873L157.062 13.5029H159.531L156.846 22.5869H153.923ZM160.846 22.5869V13.4722H166.73V15.4874H163.231V16.9181H166.2V18.941H163.231V20.564H166.846V22.5869H160.846Z" fill="#26A8D0"/>
<path d="M129.602 23.01H129.525C128.888 23.0046 128.256 22.8928 127.656 22.6793C127.007 22.4552 126.411 22.102 125.902 21.6409L125.725 21.4716L127.417 19.4333L127.617 19.5948C127.921 19.8413 128.257 20.0433 128.617 20.1948C128.92 20.3409 129.251 20.4171 129.587 20.4179C129.818 20.4427 130.051 20.3971 130.256 20.2871C130.292 20.2573 130.32 20.2195 130.339 20.1768C130.357 20.134 130.366 20.0875 130.363 20.041C130.38 19.9963 130.38 19.9472 130.363 19.9025C130.318 19.8469 130.264 19.7999 130.202 19.7641C130.088 19.6976 129.97 19.6385 129.848 19.5871L129.333 19.3872L128.194 18.9103C127.923 18.8072 127.665 18.673 127.425 18.5103C127.185 18.3441 126.97 18.1447 126.787 17.918C126.382 17.4122 126.167 16.781 126.179 16.1335C126.178 15.7127 126.273 15.2972 126.456 14.9182C126.643 14.5436 126.905 14.2112 127.225 13.9414C127.566 13.6536 127.957 13.4318 128.379 13.2876C128.844 13.1164 129.337 13.0355 129.833 13.0491C130.408 13.0513 130.978 13.1555 131.517 13.3568C132.095 13.5697 132.62 13.9056 133.056 14.3413L133.209 14.5029L131.709 16.3874L131.509 16.2489C131.25 16.0608 130.969 15.9057 130.671 15.7874C130.407 15.6827 130.125 15.6305 129.84 15.6336C129.637 15.6256 129.436 15.6707 129.256 15.7643C129.219 15.7883 129.189 15.8215 129.169 15.8606C129.148 15.8997 129.139 15.9434 129.14 15.9874C129.143 16.0462 129.162 16.103 129.196 16.1509C129.23 16.1988 129.278 16.2355 129.333 16.2566C129.587 16.3797 129.917 16.5104 130.325 16.6643L131.433 17.1027C131.993 17.3046 132.486 17.6589 132.856 18.1257C133.219 18.6249 133.403 19.2319 133.379 19.8487C133.379 20.2786 133.285 20.7034 133.103 21.0929C132.921 21.4824 132.655 21.827 132.325 22.1024C131.972 22.4048 131.565 22.6371 131.125 22.7869C130.633 22.946 130.118 23.0214 129.602 23.01ZM126.433 21.4178C126.849 21.7528 127.32 22.0131 127.825 22.187C128.373 22.3821 128.951 22.4835 129.533 22.487C130.016 22.4975 130.498 22.422 130.956 22.2639C131.333 22.1354 131.683 21.9371 131.986 21.6793C132.256 21.4467 132.471 21.1579 132.617 20.8332C132.761 20.5196 132.835 20.1783 132.832 19.8333C132.858 19.3305 132.711 18.8341 132.417 18.4257C132.104 18.0373 131.688 17.7443 131.217 17.5796L130.11 17.1412C129.687 16.9796 129.34 16.8412 129.102 16.7181C128.955 16.6631 128.828 16.5643 128.738 16.435C128.649 16.3058 128.601 16.1522 128.602 15.9951C128.597 15.8564 128.629 15.7189 128.695 15.597C128.761 15.4751 128.859 15.3735 128.979 15.3028C129.24 15.1672 129.532 15.1035 129.825 15.1182C130.17 15.1115 130.513 15.1743 130.833 15.3028C131.101 15.4065 131.358 15.5353 131.602 15.6874L132.517 14.5413C132.172 14.2306 131.77 13.9903 131.333 13.8337C130.841 13.6462 130.32 13.5498 129.794 13.5491C129.357 13.5512 128.923 13.6239 128.51 13.7644C128.147 13.8882 127.81 14.0786 127.517 14.3259C127.251 14.5511 127.034 14.8286 126.879 15.1413C126.733 15.449 126.657 15.7852 126.656 16.1258C126.652 16.4031 126.697 16.6789 126.787 16.9412C126.872 17.1746 126.994 17.3928 127.148 17.5873C127.3 17.7765 127.479 17.9423 127.679 18.0795C127.882 18.2203 128.102 18.3365 128.333 18.4257L129.471 18.9026L129.987 19.1103C130.131 19.1644 130.27 19.2313 130.402 19.3102C130.526 19.379 130.633 19.4734 130.717 19.5871C130.816 19.7143 130.868 19.8721 130.863 20.0333C130.865 20.1684 130.832 20.3017 130.769 20.4212C130.706 20.5407 130.614 20.6426 130.502 20.7178C130.21 20.8755 129.879 20.9475 129.548 20.9255C129.147 20.915 128.752 20.8235 128.387 20.6563C128.066 20.5178 127.762 20.345 127.479 20.141L126.433 21.4178ZM106.319 23.01C105.716 23.01 105.118 22.8951 104.557 22.6716C104.016 22.4462 103.53 22.1049 103.134 21.6716C102.729 21.2076 102.423 20.6658 102.234 20.0794C102.005 19.4063 101.896 18.6982 101.911 17.9873C101.9 17.2942 102.009 16.6044 102.234 15.9489C102.428 15.3776 102.74 14.8535 103.15 14.4106C103.529 13.9628 104.005 13.6076 104.542 13.3722C105.127 13.1515 105.748 13.042 106.373 13.0491C106.993 13.0392 107.609 13.1489 108.188 13.3722C108.735 13.5815 109.225 13.9161 109.619 14.349C110.026 14.7953 110.339 15.3183 110.542 15.8874C110.765 16.5565 110.872 17.259 110.857 17.9642C110.871 18.6744 110.765 19.3819 110.542 20.0563C110.344 20.6397 110.033 21.1782 109.626 21.6409C109.231 22.0774 108.742 22.4192 108.196 22.6408C107.619 22.8903 106.993 23.0085 106.365 22.9869H106.303L106.319 23.01ZM106.38 22.4947C106.941 22.4936 107.496 22.3893 108.019 22.187C108.49 21.998 108.913 21.7063 109.257 21.3332C109.619 20.9237 109.894 20.4448 110.065 19.9256C110.272 19.3034 110.373 18.6507 110.365 17.9949C110.374 17.3466 110.273 16.7015 110.065 16.0874C109.896 15.5743 109.621 15.1025 109.257 14.7028C108.913 14.3309 108.49 14.0417 108.019 13.8567C106.961 13.4671 105.799 13.4671 104.742 13.8567C104.276 14.0438 103.856 14.3299 103.511 14.6952C103.162 15.0983 102.9 15.5698 102.742 16.0797C102.534 16.6961 102.435 17.3443 102.45 17.9949C102.435 18.6506 102.534 19.3038 102.742 19.9256C102.9 20.4424 103.161 20.9215 103.511 21.3332C103.854 21.7119 104.277 22.0089 104.75 22.2024C105.269 22.4057 105.823 22.505 106.38 22.4947ZM147.439 23.01H147.355C146.727 23.0105 146.104 22.9092 145.509 22.71C144.919 22.5155 144.38 22.1924 143.93 21.7641C143.48 21.3358 143.132 20.8129 142.909 20.2333C142.647 19.5514 142.519 18.8253 142.532 18.0949C142.521 17.3665 142.651 16.6429 142.916 15.9643C143.157 15.381 143.512 14.8525 143.963 14.4106C144.402 13.9775 144.925 13.6398 145.501 13.4183C146.085 13.1951 146.706 13.0804 147.332 13.0799C147.97 13.0658 148.603 13.1946 149.185 13.4568C149.666 13.6818 150.105 13.986 150.485 14.3567L150.654 14.5182L149.07 16.4489L148.87 16.272C148.673 16.0948 148.453 15.9448 148.216 15.8258C147.974 15.7183 147.712 15.6633 147.447 15.6643C147.181 15.6582 146.918 15.7135 146.678 15.8258C146.448 15.9338 146.244 16.0883 146.078 16.2797C145.889 16.5044 145.75 16.7665 145.67 17.0488C145.568 17.3828 145.519 17.7305 145.524 18.0795C145.475 18.7325 145.661 19.3816 146.047 19.9102C146.251 20.1171 146.498 20.2768 146.77 20.3778C147.043 20.4788 147.334 20.5187 147.624 20.4948C147.742 20.504 147.86 20.504 147.978 20.4948H148.093V19.6487H146.747V17.0258H150.739V21.7485L150.654 21.8255C150.248 22.1867 149.778 22.4708 149.27 22.6639C148.687 22.8947 148.066 23.0122 147.439 23.01ZM147.393 22.4947C147.969 22.503 148.542 22.3985 149.078 22.187C149.493 22.0289 149.878 21.7999 150.216 21.5101V17.5411H147.255V19.0256H148.601V20.6871L148.478 20.764C148.355 20.8413 148.22 20.896 148.078 20.9255C147.934 20.9569 147.787 20.9724 147.639 20.9717C147.27 21.0036 146.899 20.9509 146.554 20.8176C146.209 20.6843 145.899 20.4739 145.647 20.2025C145.18 19.5795 144.951 18.8103 145.001 18.0334C144.995 17.6391 145.055 17.2466 145.178 16.8719C145.276 16.5318 145.447 16.2169 145.678 15.9489C145.89 15.702 146.152 15.5027 146.447 15.3643C146.748 15.2253 147.077 15.1569 147.408 15.1644C147.763 15.1533 148.116 15.2244 148.439 15.372C148.635 15.4763 148.822 15.5946 149.001 15.7259L149.947 14.5721C149.651 14.3129 149.319 14.0979 148.962 13.9337C148.452 13.6955 147.894 13.5796 147.332 13.5952C146.766 13.5968 146.206 13.7011 145.678 13.9029C145.153 14.1037 144.676 14.413 144.278 14.8106C143.88 15.2082 143.571 15.6852 143.37 16.2104C143.128 16.8274 143.011 17.4862 143.024 18.1488C143.008 18.8159 143.123 19.4797 143.363 20.1025C143.568 20.6176 143.883 21.082 144.286 21.4639C144.678 21.8306 145.145 22.1086 145.655 22.2793C146.206 22.4577 146.783 22.5486 147.362 22.5485L147.393 22.4947ZM141.24 22.8408H134.694V13.2183H137.617L136.448 11.8953L139.417 9.5878L141.024 11.5569L138.248 13.2568H141.086V15.7874H137.617V16.7027H140.594V19.2333H137.617V20.3486H141.24V22.8408ZM135.209 22.3254H140.724V20.7871H137.109V18.6795H140.078V17.1412H137.109V15.2336H140.586V13.6952H135.202L135.209 22.3254ZM137.201 11.9646L137.971 12.803L140.278 11.3877L139.355 10.2724L137.201 11.9646ZM167.107 22.8715H160.561V13.2183H166.969V15.7489H163.484V16.6643H166.461V19.1949H163.484V20.3102H167.107V22.8715ZM161.077 22.3562H166.592V20.8178H163V18.6795H165.969V17.1412H163V15.2336H166.476V13.6952H161.092L161.077 22.3562ZM157.031 22.8715H153.77L150.924 13.2491H154L155 17.4257C155.131 17.9026 155.239 18.3872 155.339 18.8718L155.454 19.4102L155.569 18.8718C155.669 18.3949 155.777 17.9103 155.9 17.4181L156.846 13.2183H159.861L157.031 22.8715ZM154.116 22.3562H156.646L159.154 13.726H157.239L156.385 17.4873C156.262 17.9719 156.154 18.4488 156.054 18.918C155.954 19.3872 155.846 19.8871 155.716 20.3794L155.662 20.5717H155.308L155.2 20.3794C155.069 19.8871 154.954 19.3949 154.862 18.918C154.77 18.4411 154.654 17.9719 154.523 17.495L153.616 13.7029H151.608L154.116 22.3562ZM123.002 22.8715H120.072V15.7489H117.664V13.2183H125.41V15.7489H123.002V22.8715ZM120.587 22.3562H122.487V15.2336H124.895V13.6952H118.18V15.2336H120.587V22.3562ZM118.541 22.8715H112.165V13.2183H115.095V20.3102H118.541V22.8715ZM112.68 22.3562H118.026V20.8178H114.58V13.726H112.68V22.3562ZM102.127 22.8715H98.8885L96.9963 19.5871L96.4041 20.4256V22.8715H93.4812V13.2183H96.4041V16.1104L98.3885 13.2183H101.665L98.7424 17.1873L102.127 22.8715ZM99.1577 22.3254H101.188L98.1116 17.1565L100.635 13.726H98.6424L96.3348 17.1181H95.9426L95.8887 16.8642V13.726H93.9888V22.3254H95.8887V20.2333L97.0348 18.6026L99.1577 22.3254ZM106.388 20.9332H106.319C106.019 20.9319 105.725 20.8534 105.465 20.7052C105.205 20.5569 104.988 20.344 104.834 20.0871C104.464 19.4461 104.291 18.7107 104.334 17.9719C104.293 17.2553 104.467 16.5428 104.834 15.9258C105.004 15.6768 105.234 15.4754 105.503 15.3407C105.773 15.2061 106.072 15.1427 106.373 15.1567C106.673 15.147 106.971 15.2123 107.239 15.3466C107.508 15.4809 107.739 15.6799 107.911 15.9258C108.292 16.5515 108.472 17.2791 108.426 18.0103C108.458 18.7392 108.282 19.4622 107.919 20.0948C107.763 20.3531 107.543 20.5663 107.28 20.7133C107.017 20.8604 106.72 20.9362 106.419 20.9332H106.388ZM106.327 15.6336C106.118 15.6321 105.912 15.6828 105.728 15.7808C105.544 15.8788 105.388 16.0212 105.273 16.1951C104.952 16.73 104.802 17.3496 104.842 17.9719C104.82 18.612 104.983 19.2449 105.311 19.7948C105.419 19.9808 105.576 20.1341 105.764 20.2384C105.952 20.3427 106.165 20.394 106.38 20.3871C106.596 20.3938 106.81 20.3424 107 20.2382C107.189 20.134 107.347 19.9809 107.457 19.7948C107.775 19.2419 107.924 18.6084 107.888 17.9719C107.933 17.337 107.782 16.7037 107.457 16.1566C107.34 15.9815 107.181 15.8388 106.994 15.742C106.807 15.6451 106.599 15.5972 106.388 15.6028L106.327 15.6336ZM104.742 12.8722C104.522 12.8618 104.308 12.798 104.119 12.6863C103.929 12.5746 103.77 12.4184 103.654 12.2312C103.538 12.044 103.47 11.8314 103.455 11.6118C103.44 11.3923 103.479 11.1724 103.568 10.9713C103.657 10.7701 103.794 10.5937 103.967 10.4574C104.14 10.321 104.343 10.2288 104.559 10.1888C104.776 10.1487 104.999 10.162 105.209 10.2275C105.419 10.293 105.61 10.4087 105.765 10.5647C106.01 10.8272 106.142 11.175 106.134 11.5338C106.14 11.8854 106.008 12.2253 105.765 12.4799C105.639 12.6108 105.487 12.714 105.319 12.7828C105.151 12.8517 104.97 12.8848 104.788 12.8799L104.742 12.8722ZM104.742 10.68C104.633 10.6762 104.525 10.6954 104.424 10.7365C104.323 10.7776 104.232 10.8396 104.157 10.9185C104.081 10.9967 104.022 11.0895 103.982 11.1912C103.942 11.2929 103.923 11.4016 103.927 11.5107C103.923 11.6223 103.941 11.7335 103.981 11.8378C104.02 11.9422 104.08 12.0376 104.157 12.1184C104.233 12.1982 104.325 12.2608 104.428 12.302C104.53 12.3431 104.64 12.3618 104.75 12.3568C104.861 12.363 104.972 12.3448 105.076 12.3036C105.179 12.2624 105.273 12.1992 105.35 12.1184C105.499 11.9542 105.581 11.7403 105.581 11.5184C105.581 11.2966 105.499 11.0827 105.35 10.9185C105.273 10.8376 105.179 10.7744 105.076 10.7333C104.972 10.6921 104.861 10.6739 104.75 10.68H104.742ZM107.942 12.8722C107.767 12.8718 107.593 12.8362 107.432 12.7675C107.271 12.6988 107.125 12.5984 107.003 12.4722C106.766 12.2115 106.634 11.8713 106.634 11.5184C106.634 11.1655 106.766 10.8254 107.003 10.5647C107.265 10.31 107.615 10.1675 107.98 10.1675C108.345 10.1675 108.696 10.31 108.957 10.5647C109.204 10.8265 109.339 11.1741 109.334 11.5338C109.337 11.8849 109.205 12.2235 108.965 12.4799C108.837 12.6103 108.683 12.713 108.514 12.7818C108.345 12.8506 108.163 12.884 107.98 12.8799L107.942 12.8722ZM107.942 10.68C107.833 10.6762 107.725 10.6954 107.624 10.7365C107.523 10.7776 107.432 10.8396 107.357 10.9185C107.211 11.0842 107.131 11.2975 107.131 11.5184C107.131 11.7393 107.211 11.9526 107.357 12.1184C107.433 12.1982 107.525 12.2608 107.627 12.302C107.73 12.3431 107.839 12.3618 107.949 12.3568C108.06 12.3587 108.17 12.3386 108.273 12.2977C108.376 12.2568 108.47 12.1958 108.549 12.1184C108.698 11.9573 108.778 11.745 108.772 11.5261C108.777 11.4145 108.759 11.303 108.72 11.1986C108.68 11.0941 108.619 10.9988 108.542 10.9185C108.466 10.8386 108.374 10.776 108.272 10.7349C108.169 10.6938 108.06 10.6751 107.949 10.68H107.942Z" fill="#26A8D0"/>
<path d="M170.776 22.5869V15.4874H168.384V13.4722H175.622V15.4874H173.207V22.5869H170.776Z" fill="#26A8D0"/>
<path d="M180.145 13.1337L179.083 11.9261L181.629 9.91085L182.891 11.4492L180.145 13.1337ZM177.199 22.5869V13.4722H183.091V15.4874H179.614V16.9181H182.583V18.941H179.614V20.564H183.229V22.5869H177.199ZM188.221 22.7562C187.613 22.7476 187.011 22.6411 186.437 22.4408C185.822 22.2244 185.257 21.887 184.775 21.4486L186.152 19.7948C186.472 20.0551 186.827 20.2699 187.206 20.4332C187.545 20.5872 187.911 20.6709 188.283 20.6794C188.55 20.6956 188.816 20.637 189.052 20.5102C189.129 20.4575 189.193 20.3863 189.236 20.303C189.279 20.2197 189.3 20.127 189.298 20.0333C189.298 19.931 189.266 19.8314 189.206 19.7487C189.14 19.6618 189.056 19.5908 188.96 19.541C188.836 19.4678 188.708 19.4035 188.575 19.3487L188.06 19.1487L186.929 18.6718C186.68 18.5766 186.442 18.4527 186.221 18.3026C186.003 18.1473 185.807 17.9636 185.637 17.7565C185.467 17.5378 185.332 17.2938 185.237 17.0335C185.135 16.7446 185.085 16.4398 185.091 16.1335C185.087 15.7519 185.174 15.3748 185.344 15.0336C185.515 14.6895 185.753 14.3833 186.044 14.1337C186.362 13.8697 186.724 13.664 187.114 13.526C187.553 13.3717 188.017 13.2962 188.483 13.3029C189.026 13.3107 189.564 13.4095 190.075 13.5952C190.617 13.7959 191.108 14.1137 191.513 14.5259L190.306 16.0643C190.028 15.8661 189.729 15.7009 189.413 15.572C189.116 15.4588 188.801 15.4015 188.483 15.4028C188.24 15.3875 187.997 15.4408 187.783 15.5566C187.702 15.6023 187.635 15.6697 187.59 15.7513C187.545 15.8328 187.524 15.9252 187.529 16.0181C187.532 16.127 187.567 16.2326 187.63 16.3215C187.693 16.4104 187.781 16.4788 187.883 16.5181C188.124 16.6361 188.455 16.7745 188.875 16.9335L189.983 17.3642C190.502 17.5335 190.965 17.8422 191.321 18.2565C191.644 18.7024 191.807 19.2446 191.783 19.7948C191.785 20.177 191.704 20.5552 191.544 20.9024C191.385 21.2598 191.148 21.5776 190.852 21.8332C190.521 22.1102 190.143 22.3263 189.736 22.4716C189.241 22.6376 188.721 22.7182 188.198 22.71L188.221 22.7562Z" fill="#26A8D0"/>
<path d="M188.298 23.01H188.221C187.584 23.0046 186.952 22.8928 186.352 22.6793C185.703 22.4552 185.107 22.102 184.598 21.6409L184.421 21.4716L186.114 19.4333L186.314 19.5948C186.617 19.8413 186.953 20.0433 187.314 20.1948C187.618 20.3418 187.952 20.418 188.29 20.4179C188.519 20.4421 188.75 20.3965 188.952 20.2871C188.988 20.2573 189.016 20.2195 189.035 20.1768C189.054 20.134 189.062 20.0875 189.06 20.041C189.076 19.9963 189.076 19.9472 189.06 19.9025C189.015 19.8469 188.96 19.7999 188.898 19.7641C188.784 19.6976 188.666 19.6385 188.544 19.5871L188.029 19.3872L186.844 18.9103C186.573 18.8072 186.315 18.673 186.075 18.5103C185.837 18.3416 185.623 18.1425 185.437 17.918C185.25 17.6859 185.099 17.4265 184.991 17.1488C184.882 16.8323 184.83 16.499 184.837 16.1643C184.832 15.743 184.927 15.3266 185.114 14.949C185.301 14.5744 185.563 14.242 185.883 13.9721C186.223 13.6843 186.615 13.4626 187.037 13.3183C187.506 13.1546 188.001 13.0739 188.498 13.0799C189.071 13.0822 189.639 13.1864 190.175 13.3875C190.753 13.6005 191.278 13.9364 191.713 14.3721L191.867 14.5336L190.329 16.4181L190.129 16.2797C189.869 16.093 189.587 15.9381 189.29 15.8182C189.026 15.7135 188.744 15.6613 188.46 15.6643C188.257 15.6564 188.055 15.7015 187.875 15.7951C187.838 15.8191 187.808 15.8522 187.788 15.8913C187.768 15.9305 187.758 15.9741 187.76 16.0181C187.762 16.0769 187.781 16.1338 187.815 16.1817C187.85 16.2295 187.897 16.2663 187.952 16.2874C188.206 16.4104 188.529 16.5412 188.944 16.695L190.052 17.1335C190.612 17.3354 191.105 17.6897 191.475 18.1565C191.838 18.6557 192.022 19.2626 191.998 19.8794C192.003 20.2982 191.919 20.7134 191.75 21.0968C191.582 21.4803 191.333 21.8232 191.021 22.1024C190.67 22.4075 190.262 22.6402 189.821 22.7869C189.329 22.946 188.815 23.0214 188.298 23.01ZM185.137 21.4178C185.549 21.7547 186.018 22.0152 186.521 22.187C187.07 22.3821 187.647 22.4835 188.229 22.487C188.715 22.492 189.198 22.4166 189.66 22.2639C190.034 22.1337 190.38 21.9355 190.683 21.6793C190.952 21.4467 191.167 21.1579 191.313 20.8332C191.457 20.5196 191.531 20.1783 191.529 19.8333C191.554 19.3305 191.408 18.8341 191.113 18.4257C190.801 18.0394 190.389 17.7466 189.921 17.5796L188.806 17.1412C188.383 16.9796 188.037 16.8335 187.798 16.7181C187.651 16.6631 187.524 16.5643 187.435 16.435C187.345 16.3058 187.298 16.1522 187.298 15.9951C187.293 15.8564 187.325 15.7189 187.391 15.597C187.458 15.4751 187.556 15.3735 187.675 15.3028C187.935 15.1658 188.228 15.102 188.521 15.1182C188.866 15.1121 189.209 15.1749 189.529 15.3028C189.797 15.4065 190.054 15.5353 190.298 15.6874L191.213 14.5413C190.867 14.2323 190.465 13.9922 190.029 13.8337C189.538 13.6462 189.016 13.5498 188.49 13.5491C188.053 13.5512 187.62 13.6239 187.206 13.7644C186.843 13.8882 186.507 14.0786 186.214 14.3259C185.949 14.5533 185.733 14.8303 185.575 15.1413C185.429 15.449 185.353 15.7852 185.352 16.1258C185.349 16.4031 185.393 16.6789 185.483 16.9412C185.568 17.1746 185.69 17.3928 185.844 17.5873C185.996 17.7765 186.175 17.9423 186.375 18.0795C186.579 18.2203 186.798 18.3365 187.029 18.4257L188.167 18.9026L188.683 19.1103C188.829 19.1659 188.97 19.2328 189.106 19.3102C189.225 19.3854 189.331 19.4788 189.421 19.5871C189.512 19.7179 189.561 19.8738 189.56 20.0333C189.561 20.1684 189.528 20.3017 189.465 20.4212C189.402 20.5407 189.31 20.6426 189.198 20.7178C188.906 20.8755 188.575 20.9475 188.244 20.9255C187.843 20.915 187.448 20.8235 187.083 20.6563C186.763 20.5178 186.458 20.345 186.175 20.141L185.137 21.4178ZM183.483 22.8715H176.945V13.2183H179.876L178.706 11.8953L181.668 9.5878L183.275 11.5569L180.506 13.2568H183.345V15.7874H179.868V16.7027H182.837V19.2333H179.868V20.3486H183.483V22.8715ZM177.46 22.3562H182.998V20.8178H179.376V18.6795H182.352V17.1412H179.376V15.2336H182.86V13.6952H177.476L177.46 22.3562ZM179.453 11.9953L180.222 12.8337L182.529 11.4184L181.614 10.3031L179.453 11.9953Z" fill="#26A8D0"/>
</svg>
