<svg xmlns="http://www.w3.org/2000/svg" width="570" height="147" viewBox="0 0 570 147"><defs><style>.a{fill:#fff;}.b,.c,.d{fill:#12326e;}.c{font-size:36px;font-family:SourceSansPro-Bold, Source Sans Pro;font-weight:700;letter-spacing:0.048em;}.d{font-size:27px;font-family:SourceSansPro-SemiBold, Source Sans Pro;font-weight:600;}</style></defs><g transform="translate(-466 429)"><rect class="a" width="570" height="147" transform="translate(466 -429)"/><g transform="translate(1 174)"><g transform="translate(-447.351 -1622.971)"><g transform="translate(862.801 806.641)"><g transform="translate(139.408 273.645)"><path class="b" d="M153.13,304.731l6.05,2.433a11.6,11.6,0,0,0,8.652.008l.016-.008a16.1,16.1,0,0,1,12.092,0,11.582,11.582,0,0,0,8.66,0l6.05-2.433V282.65H153.13Zm12.172-9.909h6.058v-8.032l2.038-2.03,2.038,2.03v8.032h6.058l2.086,8.024h-8.37V299.06a1.809,1.809,0,0,0-3.617,0v3.786h-8.378Z" transform="translate(-153.13 -282.65)"/><path class="b" d="M194.66,315.92l-6.05,2.433a11.582,11.582,0,0,1-8.66,0,16.1,16.1,0,0,0-12.092,0l-.016.008a11.6,11.6,0,0,1-8.652-.008l-6.05-2.433v12.156s-.363,12.9,20.76,22.508c21.123-9.611,20.76-22.508,20.76-22.508Zm-10.585,24.385h-4.294v-4.092a1.3,1.3,0,0,0-.524-1.047,1.856,1.856,0,0,0-3.093,1.353v3.786h-4.527v-4.092a1.3,1.3,0,0,0-.524-1.047,1.856,1.856,0,0,0-3.093,1.353v3.786h-4.294V326.957l2.03-2.038,2.038,2.038v5.317h4.068V324.25l2.038-2.038,2.038,2.038v8.024h4.076v-5.317l2.03-2.038,2.038,2.038v13.349Z" transform="translate(-153.132 -289.118)"/></g><path class="b" d="M175.5,246.392l-1.353-4.318,2.755-.862-.749-2.4-2.755.862-1.047-3.343-2.4.749L171,240.422l-2.755.862.749,2.4,2.755-.862,1.112,3.553c-9.369.274-17.223,4.092-19.729,9.216v7.677H156.6v3.472H153.13v3h41.52v-3h-3.472v-3.472h3.472v-7.7C192.193,250.533,184.637,246.778,175.5,246.392Zm-8.942,20.341h-3.472v-3.472h3.472Zm3.2-6.469h-.048l-4.882-4.882-4.777,4.777a4.981,4.981,0,0,0-3.1-4.592c2.159-2.626,6.7-5.027,12.809-5.8Zm4.141,7.065A2.328,2.328,0,1,1,176.226,265,2.329,2.329,0,0,1,173.9,267.329Zm10.8-.6h-3.472v-3.472H184.7Zm3.037-6.582-4.777-4.777-4.882,4.882h-.048v-10.5c6.122.765,10.69,3.158,12.865,5.784A4.956,4.956,0,0,0,187.738,260.151Z" transform="translate(-13.722 0)"/><path class="b" d="M255.594,318.031a6.54,6.54,0,0,0,6.525-6.533v-.338a6.146,6.146,0,0,0-8.515-5.671l-10.44,4.358c-.951-1.579-2.215-5.961-2.675-7.629a11.2,11.2,0,0,0,2.078-1.055l1.95,2.248a3.712,3.712,0,0,0,5.784-.217l-5.446-4.036a11.007,11.007,0,0,0,1.273-1.821l6.952,1.8a4.455,4.455,0,0,0,5.889-3.682l-11.681-1.289a10.88,10.88,0,0,0,.209-2.127c0-.064-.008-.121-.008-.177l8.612-1.772a5.518,5.518,0,0,0,3.585-7.822l-12.873,5.953a10.459,10.459,0,0,0-1.015-2.038l7.8-8.016a6.727,6.727,0,0,0-.846-10.457l-14.09,21.042h0a2.994,2.994,0,0,1,.363.266c.04.032.081.073.121.1.072.064.145.129.209.193.048.048.089.1.137.145a1.7,1.7,0,0,1,.153.185c.048.056.089.121.137.185s.073.113.113.169a2.051,2.051,0,0,1,.129.226l.073.145a2.806,2.806,0,0,1,.121.274.149.149,0,0,1,.016.056,3.624,3.624,0,0,1,.193.773c0,.024.008.048.008.073h0c.016.161.032.322.032.483a4.365,4.365,0,0,1-.064.653,1.487,1.487,0,0,1-.032.185,3.282,3.282,0,0,1-.177.564c-.032.073-.056.145-.089.218a3.066,3.066,0,0,1-.25.451,2.281,2.281,0,0,1-.161.226c-.081.1-.169.209-.258.314-.056.064-.113.129-.169.185a4.163,4.163,0,0,1-.5.419c-.032.016-.056.032-.089.048a3.841,3.841,0,0,1-.508.274,2.114,2.114,0,0,1-.2.081,4.636,4.636,0,0,1-.475.145l-.209.048a4.15,4.15,0,0,1-.709.073,3.513,3.513,0,0,1-.411-.024c-.016,0-.032-.008-.056-.008-.121-.016-.234-.032-.346-.056-.008,0-.008,0-.016-.008a3.66,3.66,0,0,1-.878-.306c-.04-.016-.081-.04-.121-.056h0c-.129-.073-.25-.145-.371-.226a3.29,3.29,0,0,1-.266-.2c-.008-.008-.016-.008-.016-.016a3.668,3.668,0,0,1-.4-.387c-.04-.048-.089-.1-.129-.145l-.016-.016a3.866,3.866,0,0,1-.862-2.441c0-.169.016-.338.032-.5V291.5a.15.15,0,0,1,.016-.056,4.016,4.016,0,0,1,.193-.757,21.379,21.379,0,0,1,2.505-4.632c.483-.636,1.088-1.474,1.7-2.417l.008-.008h0c2.3-3.512,4.8-8.6,2.3-11.294l4.052-4.648-14.766,1.394c-2.675.362-4.817,3.021-5.639,5.631h6.654a5.839,5.839,0,0,1,4.06,1.651l.806.789h-9.772l1.039.757a9.732,9.732,0,0,0,5.72,1.869H235c-3.367,1.966-10.263,4.35-13.083,9.023l-9.844-.838,1.466-5.107-4.632-2.852v10.2l11.568,5.663h0l8.7-1.136-16.853,10.255,1.216-4.544-4.632-2.852v11.061h0l2.417-.661c9.111-2.288,15.21-1.361,19.286.991l-11.842,11.23,6.719,14.984-6.678-1.329-1.571,5.067h14.436s-8.088-8.636,2.143-12.672c0,0-6.815-.62-9.055-5.583l9.055-.314s.934-6.187-.838-9.683c6.429,5.72,5.776,15.524,5.776,15.524,14.646-1.531,16.579,6.356,16.99,9.087l-7.2-1.434-1.571,5.067H261.1l-5.567-17.135c-6.235.193-8.483-2.554-9.119-5.156l8.136,1.281A4.832,4.832,0,0,0,255.594,318.031Zm-10.021-5.212,9.458-3.947a2.478,2.478,0,0,1,3.432,2.288v.338a2.871,2.871,0,0,1-3.319,2.828Z" transform="translate(-24.566 -6.097)"/><path class="b" d="M124.8,295.863l11.1-5.341V279.992l-4.632,2.852,1.418,4.938-10.626,1.337a22.656,22.656,0,0,0-7.766-9.1l7.315-.081.83-2.8h-6.05l.926-2.441h5.389l.975-4.109c-.226.016-.967.032-1.192.032a10.541,10.541,0,0,1-7.46-3.085H104.285l2.4,2.828-4.777,7.581h3.569l-3.021,7.162h3.5l-1.128,8.306,3.537.435L102.408,307a3.955,3.955,0,0,1-.226.5l-.008.008h0a4.667,4.667,0,0,1-4.092,2.465c-.008,0-.024.008-.032.008-.129,0-.258-.016-.379-.024a.459.459,0,0,1-.1-.008c-.1-.008-.2-.032-.306-.048l-.25-.048c-.081-.016-.161-.04-.242-.064-.1-.032-.218-.064-.322-.1-.056-.024-.113-.04-.169-.064a5.126,5.126,0,0,1-.475-.226c-.016-.008-.04-.024-.056-.032-.137-.081-.274-.169-.4-.258l-.089-.064a3.469,3.469,0,0,1-.371-.314l-.032-.032a4.647,4.647,0,0,1-1.378-2.522.621.621,0,0,1-.016-.121c-.016-.121-.032-.25-.048-.379-.008-.081-.008-.169-.016-.25,0-.04-.008-.072-.008-.113s.008-.089.008-.137c0-.1.008-.2.016-.3.008-.064.016-.121.024-.185a4.429,4.429,0,0,1,.306-1.152c.008-.016.016-.04.024-.056.032-.072.048-.137.081-.209l4.3-9.006a5.682,5.682,0,0,0-5.132-8.128H82.55a5.049,5.049,0,0,0,8.523,3.665h.073a2.367,2.367,0,0,1,3.891,1.829v.024a1.987,1.987,0,0,1-.193,1.023l-4.3,9.006a8.354,8.354,0,0,0,7.5,11.963c.363,2.707-.967,7.806-8.289,8.144l-5.575,17.135H98.436l-1.571-5.067-7.331,1.458c.532-2.707,3.335-10.642,18.021-9.111,0,0-1.2-9.8,4.793-15.524-1.611,3.472-.338,9.57-.338,9.57l8.5.419c-2.231,4.962-9.047,5.583-9.047,5.583,10.231,4.028,2.143,12.672,2.143,12.672h14.581l-1.571-5.067-6.775,1.345,6.944-15.024-12.148-11.246c3.867-2.328,9.78-3.23,18.8-.967l2.457.669V297.578l-4.632,2.852,1.2,4.5L111.43,294.211l13.373,1.651Z" transform="translate(0 -6.066)"/><text class="c" transform="translate(267.55 296.33)"><tspan x="0" y="0">BUDAPEST</tspan></text></g></g><text class="d" transform="translate(683 -490)"><tspan x="0" y="0">KÖZÖSSÉGI KÖLTSÉGVETÉS</tspan></text></g></g></svg>
