<svg width="563" height="39" viewBox="0 0 563 39" fill="none" xmlns="http://www.w3.org/2000/svg">
<path fill-rule="evenodd" clip-rule="evenodd" d="M65.06 22.7V27.82H66.33C67.99 27.82 68.88 26.94 68.88 25.28C68.88 23.64 67.97 22.7 66.32 22.7H65.06ZM65.93 21.06C67.57 21.06 68.47 20.22 68.47 18.66C68.47 17.19 67.57 16.37 65.93 16.37H65.06V21.06H65.93ZM68.47 21.6V21.72C69.82 21.82 70.92 22.24 71.74 22.92C72.129 23.2309 72.4413 23.6271 72.6528 24.0779C72.8643 24.5287 72.9694 25.0221 72.96 25.52C72.9948 26.0973 72.8817 26.674 72.6315 27.1955C72.3813 27.7169 72.0022 28.1659 71.53 28.5C70.57 29.15 69.34 29.48 67.83 29.48H59.54V28.18L61.19 27.65V16.54L59.54 16.02V14.71H67.18C68.66 14.71 69.88 15 70.82 15.58C71.27 15.8441 71.6398 16.2255 71.8899 16.6834C72.1401 17.1414 72.261 17.6586 72.24 18.18C72.24 19.95 70.99 21.1 68.47 21.6ZM75.52 16.02V14.71H82.68V16.02L80.95 16.54V24.44C80.95 26.54 82.08 27.75 83.97 27.75C85.97 27.75 87.27 26.34 87.26 24.24L87.17 16.71L85.27 15.98V14.7H90.69V15.97L89.11 16.7L89.03 24.23C89 26.06 88.44 27.43 87.33 28.35C86.1084 29.3096 84.5815 29.796 83.03 29.72C81.4588 29.7975 79.9162 29.2798 78.71 28.27C77.62 27.29 77.08 25.87 77.08 24.02V16.53L75.52 16.01V16.02ZM100.03 27.82C100.647 27.841 101.259 27.7075 101.811 27.4315C102.363 27.1556 102.837 26.746 103.19 26.24C104.027 24.9563 104.437 23.4406 104.36 21.91C104.36 18.33 102.71 16.37 100.03 16.37H98.84V27.82H100.03ZM93.33 29.48V28.18L94.97 27.65V16.54L93.33 16.02V14.71H100.86C103.17 14.71 105 15.33 106.38 16.56C107.75 17.79 108.44 19.56 108.44 21.89C108.44 24.24 107.73 26.11 106.34 27.46C105.608 28.1461 104.746 28.6784 103.805 29.0253C102.863 29.3723 101.862 29.5269 100.86 29.48H93.33ZM118.57 23.43L117.42 20.41L116.68 18.27H116.55L115.82 20.43L114.74 23.43H118.57ZM114.16 25.09L113.28 27.49L115.28 28.21V29.48H110.14V28.21L111.34 27.49L116.2 14.71H119.42L124.29 27.65L125.52 28.17V29.48H118.51V28.18L120.15 27.65L119.19 25.09H114.16ZM134.21 21.79C136.07 21.79 136.98 20.85 136.98 18.99C136.98 17.19 136.17 16.37 134.42 16.37H133.36V21.78H134.21V21.79ZM129.49 16.54L127.85 16.02V14.72H135.55C138.81 14.72 140.95 16.12 140.95 18.97C140.95 20.43 140.43 21.53 139.39 22.3C138.203 23.1179 136.78 23.522 135.34 23.45H133.36V27.65L135.63 28.17V29.48H127.85V28.18L129.49 27.65V16.54ZM143.66 28.17L145.3 27.65V16.55L143.66 16.02V14.71H156.25V19.29H154.87L153.52 16.37H149.17V21.2L153.58 20.72V23.26L149.18 22.78V27.82H153.83L155.29 24.72H156.66V29.48H143.66V28.17ZM160.26 24.8H161.66L163.34 27.99C164.51 28.29 165.48 28.26 166.3 27.88C167.1 27.51 167.52 26.94 167.52 26.18C167.5 24.72 165.72 24.22 163.88 23.38C162.63 22.78 161.53 22.22 160.8 20.98C160.433 20.3164 160.247 19.5681 160.26 18.81C160.26 17.43 160.78 16.37 161.8 15.61C162.93 14.8139 164.289 14.4099 165.67 14.46C167.44 14.46 169.02 14.77 170.44 15.42V18.85H169.06L167.48 16.12C165.34 15.62 163.94 16.39 163.94 17.81C163.94 19.49 166.61 20.14 168.67 21.18C169.441 21.5199 170.096 22.0758 170.557 22.7803C171.019 23.4848 171.266 24.3078 171.27 25.15C171.27 26.59 170.67 27.71 169.46 28.52C168.105 29.3762 166.521 29.7983 164.92 29.73C163.4 29.73 161.86 29.33 160.26 28.57V24.8ZM187.7 14.71V19.29H186.33L184.98 16.38H182.75V27.65L184.81 28.17V29.48H176.82V28.18L178.88 27.65V16.38H176.66L175.3 19.28H173.93V14.71H187.7Z" fill="white"/>
<mask id="mask0" mask-type="alpha" maskUnits="userSpaceOnUse" x="0" y="0" width="51" height="35">
<path d="M0 0.589996H50.7V34.06H0V0.589996Z" fill="white"/>
</mask>
<g mask="url(#mask0)">
<path fill-rule="evenodd" clip-rule="evenodd" d="M32.82 19.41C32.41 19.41 32.07 19.54 31.79 19.84C31.79 19.24 32.24 18.89 32.81 18.89C33.28 18.89 33.63 19.24 33.63 19.59C33.3761 19.4723 33.0998 19.4109 32.82 19.41ZM27.32 18.41H25.85V16.79C25.85 16.79 25.69 16.63 25.28 16.63C24.88 16.63 24.71 16.79 24.71 16.79V18.41H23.24V15.56H24.54V13.93C24.54 13.93 24.79 13.76 25.28 13.76C25.77 13.76 26.01 13.93 26.01 13.93V15.56H27.31V18.41H27.32ZM17.75 19.41C17.49 19.41 17.18 19.47 16.93 19.59C16.93 19.24 17.28 18.89 17.76 18.89C18.32 18.89 18.77 19.25 18.77 19.84C18.49 19.54 18.15 19.41 17.75 19.41ZM47.87 25.51C50.02 25.51 50.59 24.68 50.59 24.05C50.59 23.31 49.84 22.82 48.55 22.82C47.4048 22.8545 46.2868 23.1779 45.3 23.76C45.5 23.88 45.71 23.98 45.94 24.07C46.72 23.67 47.54 23.39 48.46 23.39C49.48 23.39 49.96 23.69 49.96 24.05C49.96 24.49 49.23 24.87 48.04 24.87C47.4 24.87 46.86 24.8 46.38 24.67C45.3813 24.4589 44.4913 23.897 43.8712 23.0861C43.2511 22.2753 42.9421 21.2691 43 20.25L43.21 20.24C43.31 20.23 43.41 20.29 43.45 20.39L43.71 21.21C44.09 22.35 44.71 22.74 45.38 22.85C45.25 22.12 44.85 21.4 43.78 20.11L43.98 20C44.0188 19.9794 44.0634 19.9721 44.1068 19.9793C44.1502 19.9865 44.19 20.0079 44.22 20.04L44.95 20.84C45.89 21.88 46.72 22.01 47.49 21.79C47 21.09 46.24 20.49 44.48 19.63L44.65 19.43C44.6775 19.3945 44.7161 19.3693 44.7596 19.3584C44.8031 19.3476 44.8491 19.3516 44.89 19.37L46.18 19.94C47.74 20.64 48.73 20.36 49.48 19.74C48.58 19.19 47.42 18.92 45 18.82L45.09 18.56C45.11 18.46 45.19 18.4 45.29 18.4H47.09C49.19 18.4 50.17 17.59 50.7 16.52C49.4 16.34 47.96 16.62 45.16 17.75C45.16 17.64 45.14 17.53 45.12 17.43C45.1098 17.3745 45.1179 17.3171 45.1431 17.2666C45.1684 17.2161 45.2094 17.1751 45.26 17.15L47.2 16.28C49.48 15.28 50.14 13.93 50.2 12.51C48.7 12.95 47.27 13.96 44.75 16.56C44.6887 16.4757 44.6219 16.3955 44.55 16.32C44.5022 16.2683 44.4757 16.2004 44.4757 16.13C44.4757 16.0596 44.5022 15.9917 44.55 15.94L46.11 14.21C47.95 12.17 48.01 10.51 47.44 9.05C46.11 10.19 45.11 11.88 43.7 15.74C43.6382 15.9088 43.626 16.0917 43.665 16.2672C43.704 16.4427 43.7925 16.6033 43.92 16.73C44.0509 16.8599 44.1529 17.0161 44.2193 17.1881C44.2857 17.3602 44.315 17.5444 44.3053 17.7286C44.2956 17.9128 44.2471 18.0928 44.163 18.257C44.0789 18.4212 43.9611 18.5657 43.8173 18.6812C43.6735 18.7967 43.5069 18.8805 43.3285 18.9271C43.15 18.9738 42.9637 18.9822 42.7818 18.9519C42.5998 18.9216 42.4264 18.8532 42.2727 18.7512C42.119 18.6492 41.9886 18.5159 41.89 18.36L34.69 20.98V20.02C34.69 18.98 34.05 18.32 33.19 18.32C32.78 18.32 32.49 18.42 32.22 18.55C32.22 18.21 32.51 17.9 32.9 17.81V12.34H17.67V17.81C18.06 17.91 18.35 18.21 18.35 18.55C18.0468 18.3961 17.7099 18.3205 17.37 18.33C16.51 18.33 15.87 18.98 15.87 20.03V20.98L7.2 17.82C7.2 21.2 6.52 24.5 4.19 24.5C3.14 24.5 2.39 23.76 2.39 22.7C2.39 21.71 3.13 21 4.19 21C4.47 21 4.74 21.05 4.96 21.14C4.83 20.67 4.38 20.31 3.82 20.21C4.68 19.31 5.6 18.37 5.6 17.05C5.6 15.76 4.66 14.59 3 14.59H0.34C0.49 14.96 0.88 15.19 1.2 15.24C0.78 15.64 0.53 16.18 0.53 16.82C0.53 17.97 1.34 18.62 2.3 18.62C3.42 18.62 4 17.72 4 17.05C4 16.43 3.56 15.96 2.92 15.96C2.29 15.96 1.91 16.45 1.91 16.86C2.53 16.86 2.87 17.16 2.87 17.56C2.87 17.88 2.58 18.08 2.26 18.08C1.64 18.08 1.17 17.59 1.17 16.82C1.17 15.92 1.92 15.25 2.97 15.25C3.97 15.25 4.77 15.98 4.77 17.05C4.77 19.18 1.25 20.14 1.25 22.7C1.23155 23.0888 1.29437 23.4772 1.43446 23.8404C1.57454 24.2035 1.7888 24.5335 2.06357 24.8092C2.33834 25.0849 2.66758 25.3003 3.03027 25.4416C3.39296 25.583 3.78113 25.6471 4.17 25.63V26.77C4.17 27.17 3.84 27.5 3.44 27.5H1.77C1.77 29.87 1.11 31.52 0 32.4H1.42C2.73 32.4 3.22 32.82 3.22 33.84C3.68 33.69 4.04 33.2 4.04 32.76C4.51 32.89 4.66 33.38 4.66 34.06C5.31 33.78 5.41 32.96 5.22 32.56C5.69 32.56 6.12 33.13 6.19 33.84C6.44 33.6 6.58 33.18 6.58 32.77C6.58 31.91 6 31.32 4.96 31.32H2.43C2.43 29.61 3.63 28.94 6.25 28.94H6.42C6.68522 28.94 6.93957 28.8346 7.12711 28.6471C7.31464 28.4596 7.42 28.2052 7.42 27.94V27.42C7.42 24.78 9.02 21.78 13.02 21.78C14.55 21.78 15.78 22.24 16.68 22.71C16.68 21.73 17.15 21.2 17.81 21.2C17.98 21.2 18.16 21.23 18.33 21.32C18.33 20.86 17.79 20.43 17.13 20.43C17.18 20.26 17.45 20.05 17.83 20.05C18.17 20.05 18.45 20.19 18.69 20.56C19.11 20.72 19.61 20.81 20.2 20.81C22.74 20.81 22.74 19.94 25.28 19.94C27.82 19.94 27.82 20.81 30.36 20.81C30.95 20.81 31.46 20.71 31.87 20.56C32.11 20.19 32.39 20.05 32.73 20.05C33.11 20.05 33.38 20.26 33.43 20.43C32.77 20.43 32.23 20.86 32.23 21.33C32.4 21.23 32.58 21.2 32.74 21.2C33.41 21.2 33.88 21.73 33.88 22.7C34.78 22.24 36.01 21.78 37.54 21.78C41.54 21.78 43.14 24.78 43.14 27.42V27.94C43.14 28.2052 43.2454 28.4596 43.4329 28.6471C43.6204 28.8346 43.8748 28.94 44.14 28.94H44.32C46.92 28.94 48.13 29.61 48.13 31.32H45.6C44.56 31.32 43.98 31.91 43.98 32.77C43.98 33.18 44.12 33.6 44.38 33.84C44.44 33.13 44.88 32.56 45.34 32.56C45.15 32.96 45.25 33.78 45.91 34.06C45.91 33.38 46.05 32.89 46.51 32.76C46.51 33.2 46.88 33.69 47.34 33.84C47.34 32.82 47.83 32.41 49.14 32.41H50.56C49.46 31.52 48.79 29.87 48.79 27.51H47.12C46.9237 27.51 46.7355 27.432 46.5967 27.2933C46.458 27.1545 46.38 26.9663 46.38 26.77V25.51H47.88H47.87ZM12.35 16.27C12.98 16.61 13.43 17.05 13.83 17.58L14.83 16.21H16.23C15.98 15.8 15.82 15.47 15.82 15.06C15.82 14.59 16.2 14.23 16.74 14.23C17 14.23 17.21 14.31 17.33 14.41C17.33 13.77 16.83 13.51 16.47 13.51C16.32 13.51 16.11 13.51 16.03 13.55C16.17 13.03 16.79 12.75 17.33 12.75C17.2376 12.6188 17.1147 12.512 16.9718 12.4388C16.829 12.3656 16.6705 12.3283 16.51 12.33C15.96 12.33 15.4 12.73 15.25 13.43C15.1395 13.2687 15.0787 13.0785 15.0751 12.883C15.0716 12.6875 15.1254 12.4952 15.23 12.33C14.69 12.33 14.27 12.64 14.27 13.33C14.27 13.76 14.63 14.76 14.84 15.38L12.35 16.27V16.27ZM20.47 7.97C20.4705 7.74357 20.4075 7.52154 20.288 7.32916C20.1686 7.13678 19.9976 6.98177 19.7944 6.88176C19.5913 6.78175 19.3642 6.74075 19.1389 6.76342C18.9136 6.78609 18.6992 6.87152 18.52 7.01V8.91H20.47V7.97ZM11.43 12.47V12.49H11.79C12.61 12.49 12.83 12.77 13.29 12.77C13.69 12.77 13.98 12.39 13.84 12C13.74 12.14 13.52 12.25 13.26 12.25C12.91 12.25 12.66 12.13 12.3 12.13C11.93 12.13 11.62 12.28 11.43 12.47V12.47ZM19.97 10.23C19.97 10.07 20.1 9.94 20.27 9.94H21.59C21.75 9.94 21.88 10.07 21.88 10.23V10.97H23.85V10.53C23.85 10.01 24.27 9.6 24.78 9.6H25.78C26.29 9.6 26.71 10.01 26.71 10.53V10.97H28.68V10.23C28.68 10.07 28.81 9.94 28.98 9.94H30.3C30.46 9.94 30.59 10.07 30.59 10.23V10.97H32.52V9.94H32.04V9.26H18.52V9.94H18.05V10.97H19.97V10.23V10.23ZM18.52 11.83H32.04V11.31H18.52V11.82V11.83ZM40.28 27.26L42.11 26.21L40.75 25.43L41.73 24.87C41.5053 24.2461 41.1662 23.6695 40.73 23.17L37.23 25.19C37.098 25.2688 36.9839 25.3743 36.8952 25.4999C36.8064 25.6254 36.745 25.7682 36.7149 25.919C36.6847 26.0697 36.6865 26.2251 36.7201 26.3752C36.7537 26.5252 36.8184 26.6665 36.91 26.79C37.72 27.88 39.22 28.87 39.22 31.13L36.87 29.77C36.54 29.57 36.22 29.48 35.93 29.48C34.97 29.48 34.53 30.11 34.53 30.9C34.53 31.02 34.55 31.18 34.58 31.3C34.81 30.84 35.44 30.5 36.04 30.72C35.8961 30.8418 35.7805 30.9934 35.701 31.1644C35.6216 31.3353 35.5803 31.5215 35.58 31.71C35.58 31.91 35.65 32.11 35.78 32.3C35.91 31.88 36.38 31.48 36.97 31.48C36.76 31.9 36.83 32.4 37.17 32.76C37.44 32.19 37.87 31.94 38.56 31.94C39.57 31.94 40.39 32.76 40.39 32.76V31.76C40.39 30.23 40.79 29.38 41.49 28.71L40.29 28.01C40.2259 27.9706 40.1729 27.9155 40.1362 27.8499C40.0995 27.7842 40.0802 27.7102 40.0802 27.635C40.0802 27.5598 40.0995 27.4858 40.1362 27.4201C40.1729 27.3545 40.2259 27.2994 40.29 27.26H40.28ZM10.72 10.45C10.72 10.6 10.59 10.85 10.31 10.85C9.88 10.85 9.43 10.41 9.31 10.01C9.97 10.01 10.47 10.24 10.72 10.45ZM5.78 14.65L5.68 15.02H6.83C6.57522 15.6485 6.44939 16.3219 6.46 17V17.36L13.16 19.03C13.16 16.4 9.62 15.13 9.62 13.95C9.62 13.71 9.75 13.57 10.01 13.57C10.34 13.57 10.71 13.73 11.13 13.73C11.73 13.73 12.03 13.29 12.15 12.68H9.07C9.07 12.19 9.64 11.74 10.85 11.74H11.86C12.15 11.74 12.35 11.54 12.39 11.28L12.48 10.82L12.15 10.76C12.1005 10.7509 12.0556 10.725 12.0229 10.6868C11.9901 10.6486 11.9715 10.6003 11.97 10.55H12.52L12.59 10.2L10.87 9.9C10.87 9.64 10.57 9.26 9.32 9.26H6.46C6.46 9.26 6.72 10.14 7.95 10.14C7.95 10.26 7.86 10.32 7.7 10.32H7.22C6.7 10.81 6.26 11.35 5.72 12.31L5.5 12.67H6.67C6.27981 13.2852 5.97692 13.9515 5.77 14.65H5.78ZM35.39 28.85C36.23 28.85 36.79 28.6 37.54 28.19L37.17 27.77C36.52 28.12 36.05 28.3 35.39 28.3C34.93 28.3 34.64 28.04 34.64 27.67C34.64 27.27 34.94 27.04 35.39 27.04C35.28 26.7 35.02 26.42 34.56 26.42C33.92 26.42 33.48 26.87 33.48 27.49C33.48 28.24 34.14 28.85 35.39 28.85ZM28.62 28.63H27.15V27C27.15 27 26.99 26.84 26.58 26.84C26.18 26.84 26.01 27 26.01 27V28.63H24.55V27C24.55 27 24.38 26.84 23.98 26.84C23.57 26.84 23.41 27 23.41 27V28.63H21.94V24.15C21.94 24.15 22.18 23.99 22.67 23.99C23.16 23.99 23.41 24.15 23.41 24.15V25.78H24.55V24.15C24.55 24.15 24.79 23.99 25.28 23.99C25.77 23.99 26.01 24.15 26.01 24.15V25.78H27.15V24.15C27.15 24.15 27.4 23.99 27.89 23.99C28.37 23.99 28.62 24.15 28.62 24.15V28.63ZM25.28 21.68C22.74 21.68 22.74 22.55 20.2 22.55C19.2904 22.5963 18.3971 22.2962 17.7 21.71C18.03 27.95 20.73 31.43 25.28 34.06C29.83 31.43 32.53 27.95 32.86 21.71C32.1614 22.2926 31.2683 22.5891 30.36 22.54C27.82 22.54 27.82 21.67 25.28 21.67V21.68ZM14.63 29.48C14.34 29.48 14.03 29.58 13.69 29.77L11.34 31.13C11.34 28.87 12.84 27.88 13.65 26.79C13.7412 26.6659 13.8053 26.524 13.8381 26.3736C13.871 26.2231 13.8719 26.0674 13.8408 25.9166C13.8097 25.7658 13.7472 25.6232 13.6575 25.498C13.5678 25.3729 13.4528 25.2679 13.32 25.19L9.82 23.17C9.3868 23.6699 9.05102 24.2465 8.83 24.87L9.81 25.43L8.45 26.21L10.28 27.26C10.57 27.43 10.57 27.86 10.28 28.02L9.08 28.72C9.78 29.38 10.18 30.23 10.18 31.76V32.76C10.18 32.76 10.98 31.94 12 31.94C12.7 31.94 13.12 32.19 13.4 32.76C13.73 32.4 13.8 31.9 13.6 31.48C14.19 31.48 14.66 31.88 14.78 32.3C14.92 32.12 14.98 31.91 14.98 31.71C14.98 31.29 14.77 30.91 14.52 30.72C15.12 30.51 15.76 30.84 15.98 31.29C16.02 31.19 16.03 31.02 16.03 30.9C16.03 30.11 15.59 29.48 14.63 29.48V29.48ZM30.09 7.97V8.92H32.04V7.01C31.8608 6.87152 31.6464 6.78609 31.4211 6.76342C31.1958 6.74075 30.9687 6.78175 30.7656 6.88176C30.5624 6.98177 30.3914 7.13678 30.272 7.32916C30.1525 7.52154 30.0895 7.74357 30.09 7.97V7.97ZM19.26 6.41H19.6C19.6 6.01 19.74 5.71 20.02 5.39C20.3 5.06 20.7 4.76 21.22 4.5C21.9041 4.17423 22.6316 3.94859 23.38 3.83V6.31H23.72C23.99 5.81 24.48 5.46 25.07 5.39V5.29C24.999 5.22567 24.9426 5.14685 24.9047 5.05887C24.8667 4.97089 24.8481 4.8758 24.85 4.78C24.85 4.45 25.05 4.18 25.28 4.18C25.51 4.18 25.71 4.45 25.71 4.78C25.71 5 25.62 5.19 25.49 5.3V5.39C26.08 5.46 26.58 5.82 26.84 6.31H27.18V3.83C27.98 3.97 28.72 4.2 29.34 4.5C29.86 4.76 30.26 5.06 30.54 5.39C30.82 5.72 30.96 6.05 30.96 6.41H31.3C31.49 6.41 31.64 6.19 31.64 5.91C31.64 5.63 31.49 5.4 31.3 5.4C31.2 5.4 31.13 5.45 31.06 5.54C30.78 5.04 30.25 4.57 29.49 4.2C28.1737 3.59549 26.7383 3.29474 25.29 3.32C23.69 3.32 22.19 3.63 21.07 4.2C20.32 4.57 19.78 5.03 19.5 5.54C19.44 5.44 19.35 5.39 19.26 5.39C19.07 5.39 18.92 5.62 18.92 5.9C18.92 6.18 19.07 6.41 19.26 6.41V6.41ZM33.24 14.41C33.4079 14.2859 33.6113 14.2193 33.82 14.22C34.36 14.22 34.74 14.59 34.74 15.06C34.74 15.47 34.58 15.8 34.32 16.21H35.74L36.74 17.61C37.11 17.09 37.54 16.62 38.16 16.25L35.72 15.38C35.92 14.76 36.29 13.76 36.29 13.33C36.29 12.64 35.87 12.33 35.33 12.33C35.56 12.67 35.52 13.15 35.31 13.43C35.2576 13.1301 35.1039 12.8573 34.8746 12.6571C34.6452 12.4569 34.3542 12.3415 34.05 12.33C33.8913 12.3307 33.7352 12.3692 33.5943 12.4422C33.4535 12.5153 33.332 12.6208 33.24 12.75C33.77 12.75 34.39 13.03 34.53 13.55C34.386 13.5148 34.2382 13.498 34.09 13.5C33.9745 13.5012 33.8604 13.5257 33.7545 13.572C33.6486 13.6183 33.5532 13.6855 33.4738 13.7695C33.3945 13.8535 33.3329 13.9526 33.2927 14.0609C33.2526 14.1693 33.2346 14.2846 33.24 14.4V14.41ZM23.8 2.06C23.86 2.19 23.93 2.26 23.93 2.26L24.66 1.94L25.06 2.84C25.0919 2.88754 25.1397 2.92212 25.1948 2.93753C25.2499 2.95293 25.3087 2.94813 25.3606 2.92399C25.4125 2.89986 25.454 2.85798 25.4778 2.80591C25.5015 2.75383 25.5058 2.69499 25.49 2.64L25.1 1.75L25.84 1.43C25.84 1.43 25.84 1.33 25.78 1.2C25.72 1.07 25.64 1 25.64 1L24.91 1.31L24.59 0.580002C24.59 0.580002 24.49 0.580002 24.36 0.640002C24.23 0.700002 24.16 0.770002 24.16 0.770002L24.48 1.5L23.74 1.82C23.74 1.82 23.74 1.92 23.8 2.06V2.06ZM40.24 10.84C40.1337 10.8376 40.0323 10.795 39.9562 10.7207C39.8801 10.6465 39.835 10.5462 39.83 10.44C40.08 10.24 40.58 10 41.24 10C41.12 10.4 40.67 10.84 40.24 10.84ZM40.34 12.49H38.42C38.62 13.21 39.47 13.52 40.34 13.52C40.84 13.52 41.29 13.42 41.67 13.28C41.79 13.23 41.92 13.32 41.92 13.44C41.92 14.26 37.56 15.89 37.38 19.03L41.76 18.1C41.7079 17.9556 41.6809 17.8035 41.68 17.65C41.68 15.42 44.3 13.95 44.3 11.73C44.3 11.01 44.07 10.55 43.77 10.22H43.03C42.87 10.22 42.78 10.16 42.78 10.04C43.98 10.04 44.44 9.24 44.44 9.24H41.14C40.13 9.24 39.59 9.69 39.59 10.04C37.97 10.04 37.16 10.7 37.16 11.54H41.93C41.93 11.94 41.36 12.49 40.33 12.49H40.34ZM37.27 12.59C37.73 12.59 37.95 12.29 38.77 12.29H39.13V12.28C38.95 12.09 38.63 11.94 38.27 11.94C37.91 11.94 37.66 12.06 37.3 12.06C37.04 12.06 36.82 11.95 36.72 11.81C36.59 12.2 36.88 12.58 37.27 12.58V12.59ZM23.38 8.91L22.33 6.75H22L20.95 8.91H23.38ZM28.74 5.9C28.74 5.62 28.59 5.39 28.4 5.39C28.2 5.39 28.06 5.62 28.06 5.89C28.06 6.18 28.21 6.4 28.4 6.4C28.59 6.4 28.74 6.18 28.74 5.9ZM22.5 5.89C22.5 5.61 22.35 5.38 22.16 5.38C21.97 5.38 21.82 5.61 21.82 5.89C21.82 6.17 21.97 6.4 22.16 6.4C22.36 6.4 22.51 6.17 22.51 5.89H22.5ZM25.28 5.71C24.49 5.71 23.85 6.35 23.85 7.14V8.91H26.71V7.15C26.71 6.35 26.07 5.72 25.28 5.72V5.71ZM29.61 8.91L28.57 6.75H28.23L27.18 8.91H29.61Z" fill="white"/>
</g>
<path d="M196.397 14.6H203.096C204.973 14.6 206.414 15.0363 207.419 15.909C208.424 16.7817 208.926 17.988 208.926 19.528C208.926 20.76 208.552 21.7793 207.804 22.586C207.056 23.3927 205.996 23.906 204.625 24.126L209.047 30H204.669L200.61 24.236H200.071V30H196.397V14.6ZM203.052 17.933H200.071V21.145H203.052C203.727 21.145 204.251 21.0093 204.625 20.738C204.999 20.4667 205.186 20.0633 205.186 19.528C205.186 19 204.995 18.604 204.614 18.34C204.24 18.0687 203.719 17.933 203.052 17.933ZM223.013 26.689V30H211.221V14.6H222.969V17.911H214.895V20.573H222.496V23.873H214.895V26.689H223.013ZM218.008 13.401H214.785L217.117 9.749H221.066L218.008 13.401ZM237.907 15.953L236.268 18.967C234.823 18.1017 233.353 17.669 231.857 17.669C231.131 17.669 230.544 17.79 230.097 18.032C229.657 18.274 229.437 18.615 229.437 19.055C229.437 19.2823 229.507 19.4767 229.646 19.638C229.785 19.7993 230.027 19.9387 230.372 20.056C230.724 20.166 231.025 20.2503 231.274 20.309C231.523 20.3603 231.927 20.4337 232.484 20.529C232.499 20.5363 232.51 20.54 232.517 20.54C232.532 20.54 232.546 20.5437 232.561 20.551C232.576 20.551 232.59 20.551 232.605 20.551L233.243 20.661C234.79 20.9323 235.989 21.4347 236.84 22.168C237.691 22.894 238.116 23.8693 238.116 25.094C238.116 25.8053 237.995 26.4543 237.753 27.041C237.518 27.6203 237.199 28.108 236.796 28.504C236.393 28.9 235.912 29.2337 235.355 29.505C234.805 29.7763 234.218 29.9743 233.595 30.099C232.979 30.2237 232.334 30.286 231.659 30.286C230.354 30.286 229.107 30.1173 227.919 29.78C226.731 29.4427 225.719 28.9587 224.883 28.328L226.72 25.336C228.297 26.414 229.954 26.953 231.692 26.953C232.418 26.953 233.005 26.832 233.452 26.59C233.907 26.3407 234.134 25.985 234.134 25.523C234.134 25.0903 233.903 24.775 233.441 24.577C232.986 24.379 232.202 24.1957 231.087 24.027L230.317 23.906C228.696 23.6493 227.479 23.1433 226.665 22.388C225.851 21.6253 225.459 20.5657 225.488 19.209C225.517 17.7277 226.104 16.5433 227.248 15.656C228.392 14.7687 229.873 14.325 231.692 14.325C232.799 14.325 233.833 14.4423 234.794 14.677C235.762 14.9117 236.8 15.337 237.907 15.953ZM252.159 14.6V17.482L244.591 26.689H252.159V30H239.707V27.118L247.264 17.911H239.718V14.6H252.159ZM268.881 14.6L263.194 30H258.816L253.118 14.6H257.023L261.027 26.216L265.053 14.6H268.881ZM282.203 26.689V30H270.411V14.6H282.159V17.911H274.085V20.573H281.686V23.873H274.085V26.689H282.203ZM277.198 13.401H273.975L276.307 9.749H280.256L277.198 13.401ZM296.39 14.6V18.01H291.836V30H288.162V18.01H283.597V14.6H296.39ZM309.853 26.689V30H298.061V14.6H309.809V17.911H301.735V20.573H309.336V23.873H301.735V26.689H309.853ZM323.788 26.59V30H312.37V14.6H316.044V26.59H323.788ZM329.128 14.6V30H325.454V14.6H329.128ZM344.383 15.953L342.744 18.967C341.3 18.1017 339.829 17.669 338.333 17.669C337.607 17.669 337.021 17.79 336.573 18.032C336.133 18.274 335.913 18.615 335.913 19.055C335.913 19.2823 335.983 19.4767 336.122 19.638C336.262 19.7993 336.504 19.9387 336.848 20.056C337.2 20.166 337.501 20.2503 337.75 20.309C338 20.3603 338.403 20.4337 338.96 20.529C338.975 20.5363 338.986 20.54 338.993 20.54C339.008 20.54 339.023 20.5437 339.037 20.551C339.052 20.551 339.067 20.551 339.081 20.551L339.719 20.661C341.267 20.9323 342.466 21.4347 343.316 22.168C344.167 22.894 344.592 23.8693 344.592 25.094C344.592 25.8053 344.471 26.4543 344.229 27.041C343.995 27.6203 343.676 28.108 343.272 28.504C342.869 28.9 342.389 29.2337 341.831 29.505C341.281 29.7763 340.695 29.9743 340.071 30.099C339.455 30.2237 338.81 30.286 338.135 30.286C336.83 30.286 335.583 30.1173 334.395 29.78C333.207 29.4427 332.195 28.9587 331.359 28.328L333.196 25.336C334.773 26.414 336.43 26.953 338.168 26.953C338.894 26.953 339.481 26.832 339.928 26.59C340.383 26.3407 340.61 25.985 340.61 25.523C340.61 25.0903 340.379 24.775 339.917 24.577C339.463 24.379 338.678 24.1957 337.563 24.027L336.793 23.906C335.173 23.6493 333.955 23.1433 333.141 22.388C332.327 21.6253 331.935 20.5657 331.964 19.209C331.994 17.7277 332.58 16.5433 333.724 15.656C334.868 14.7687 336.35 14.325 338.168 14.325C339.276 14.325 340.31 14.4423 341.27 14.677C342.238 14.9117 343.276 15.337 344.383 15.953ZM358.623 26.689V30H346.831V14.6H358.579V17.911H350.505V20.573H358.106V23.873H350.505V26.689H358.623ZM353.618 13.401H350.395L352.727 9.749H356.676L353.618 13.401ZM368.503 14.314C370.893 14.314 372.804 15.0583 374.234 16.547L371.616 19.121C370.772 18.219 369.676 17.768 368.327 17.768C367.087 17.768 366.072 18.1897 365.28 19.033C364.488 19.8763 364.092 20.9653 364.092 22.3C364.092 23.7227 364.499 24.8483 365.313 25.677C366.134 26.5057 367.142 26.92 368.338 26.92C370.494 26.92 371.792 25.9923 372.232 24.137H368.481V21.299H375.873C375.924 21.6803 375.95 22.0653 375.95 22.454C375.95 23.6493 375.744 24.7457 375.334 25.743C374.93 26.7403 374.384 27.5653 373.695 28.218C373.005 28.8707 372.21 29.3767 371.308 29.736C370.413 30.0953 369.467 30.275 368.47 30.275C367.333 30.275 366.262 30.0843 365.258 29.703C364.26 29.3143 363.395 28.779 362.662 28.097C361.936 27.415 361.36 26.5753 360.935 25.578C360.517 24.5733 360.308 23.4807 360.308 22.3C360.308 20.76 360.656 19.385 361.353 18.175C362.049 16.9577 363.021 16.0117 364.268 15.337C365.514 14.655 366.926 14.314 368.503 14.314ZM381.786 14.6V30H378.112V14.6H381.786Z" fill="#00AF96"/>
<path d="M394.402 30L389.551 23.906H388.253V30H384.579V14.6H388.253V20.595H389.584L394.006 14.6H398.527L392.554 22.113L399.022 30H394.402ZM402.993 14.919C404.005 14.5157 405.094 14.314 406.26 14.314C407.426 14.314 408.515 14.5157 409.527 14.919C410.539 15.3223 411.397 15.876 412.101 16.58C412.812 17.284 413.369 18.131 413.773 19.121C414.176 20.1037 414.378 21.1633 414.378 22.3C414.378 23.4367 414.176 24.5 413.773 25.49C413.369 26.4727 412.812 27.316 412.101 28.02C411.397 28.724 410.539 29.2777 409.527 29.681C408.515 30.0843 407.426 30.286 406.26 30.286C405.094 30.286 404.005 30.0843 402.993 29.681C401.981 29.2777 401.119 28.724 400.408 28.02C399.704 27.316 399.15 26.4727 398.747 25.49C398.343 24.5 398.142 23.4367 398.142 22.3C398.142 21.1633 398.343 20.1037 398.747 19.121C399.15 18.131 399.704 17.284 400.408 16.58C401.119 15.876 401.981 15.3223 402.993 14.919ZM409.34 19.077C408.54 18.2483 407.514 17.834 406.26 17.834C405.006 17.834 403.975 18.2483 403.169 19.077C402.369 19.9057 401.97 20.98 401.97 22.3C401.97 23.62 402.369 24.6943 403.169 25.523C403.975 26.3517 405.006 26.766 406.26 26.766C407.514 26.766 408.54 26.3517 409.34 25.523C410.146 24.6943 410.55 23.62 410.55 22.3C410.55 20.98 410.146 19.9057 409.34 19.077ZM402.245 10.211C402.641 9.815 403.128 9.617 403.708 9.617C404.287 9.617 404.775 9.815 405.171 10.211C405.574 10.607 405.776 11.0947 405.776 11.674C405.776 12.2533 405.578 12.741 405.182 13.137C404.786 13.533 404.294 13.731 403.708 13.731C403.128 13.731 402.641 13.533 402.245 13.137C401.856 12.741 401.662 12.2533 401.662 11.674C401.662 11.0947 401.856 10.607 402.245 10.211ZM407.349 10.211C407.745 9.815 408.232 9.617 408.812 9.617C409.391 9.617 409.879 9.815 410.275 10.211C410.671 10.607 410.869 11.0947 410.869 11.674C410.869 12.2533 410.671 12.741 410.275 13.137C409.879 13.533 409.391 13.731 408.812 13.731C408.232 13.731 407.745 13.5367 407.349 13.148C406.953 12.752 406.755 12.2607 406.755 11.674C406.755 11.0947 406.953 10.607 407.349 10.211ZM427.944 26.59V30H416.526V14.6H420.2V26.59H427.944ZM439.713 14.6V18.01H435.159V30H431.485V18.01H426.92V14.6H439.713ZM453.739 15.953L452.1 18.967C450.655 18.1017 449.185 17.669 447.689 17.669C446.963 17.669 446.376 17.79 445.929 18.032C445.489 18.274 445.269 18.615 445.269 19.055C445.269 19.2823 445.339 19.4767 445.478 19.638C445.617 19.7993 445.859 19.9387 446.204 20.056C446.556 20.166 446.857 20.2503 447.106 20.309C447.355 20.3603 447.759 20.4337 448.316 20.529C448.331 20.5363 448.342 20.54 448.349 20.54C448.364 20.54 448.378 20.5437 448.393 20.551C448.408 20.551 448.422 20.551 448.437 20.551L449.075 20.661C450.622 20.9323 451.821 21.4347 452.672 22.168C453.523 22.894 453.948 23.8693 453.948 25.094C453.948 25.8053 453.827 26.4543 453.585 27.041C453.35 27.6203 453.031 28.108 452.628 28.504C452.225 28.9 451.744 29.2337 451.187 29.505C450.637 29.7763 450.05 29.9743 449.427 30.099C448.811 30.2237 448.166 30.286 447.491 30.286C446.186 30.286 444.939 30.1173 443.751 29.78C442.563 29.4427 441.551 28.9587 440.715 28.328L442.552 25.336C444.129 26.414 445.786 26.953 447.524 26.953C448.25 26.953 448.837 26.832 449.284 26.59C449.739 26.3407 449.966 25.985 449.966 25.523C449.966 25.0903 449.735 24.775 449.273 24.577C448.818 24.379 448.034 24.1957 446.919 24.027L446.149 23.906C444.528 23.6493 443.311 23.1433 442.497 22.388C441.683 21.6253 441.291 20.5657 441.32 19.209C441.349 17.7277 441.936 16.5433 443.08 15.656C444.224 14.7687 445.705 14.325 447.524 14.325C448.631 14.325 449.665 14.4423 450.626 14.677C451.594 14.9117 452.632 15.337 453.739 15.953ZM467.978 26.689V30H456.186V14.6H467.934V17.911H459.86V20.573H467.461V23.873H459.86V26.689H467.978ZM462.973 13.401H459.75L462.082 9.749H466.031L462.973 13.401ZM477.858 14.314C480.249 14.314 482.159 15.0583 483.589 16.547L480.971 19.121C480.128 18.219 479.032 17.768 477.682 17.768C476.443 17.768 475.427 18.1897 474.635 19.033C473.843 19.8763 473.447 20.9653 473.447 22.3C473.447 23.7227 473.854 24.8483 474.668 25.677C475.49 26.5057 476.498 26.92 477.693 26.92C479.849 26.92 481.147 25.9923 481.587 24.137H477.836V21.299H485.228C485.28 21.6803 485.305 22.0653 485.305 22.454C485.305 23.6493 485.1 24.7457 484.689 25.743C484.286 26.7403 483.74 27.5653 483.05 28.218C482.361 28.8707 481.565 29.3767 480.663 29.736C479.769 30.0953 478.823 30.275 477.825 30.275C476.689 30.275 475.618 30.0843 474.613 29.703C473.616 29.3143 472.751 28.779 472.017 28.097C471.291 27.415 470.716 26.5753 470.29 25.578C469.872 24.5733 469.663 23.4807 469.663 22.3C469.663 20.76 470.012 19.385 470.708 18.175C471.405 16.9577 472.377 16.0117 473.623 15.337C474.87 14.655 476.282 14.314 477.858 14.314ZM501.17 14.6L495.483 30H491.105L485.407 14.6H489.312L493.316 26.216L497.342 14.6H501.17ZM514.492 26.689V30H502.7V14.6H514.448V17.911H506.374V20.573H513.975V23.873H506.374V26.689H514.492ZM528.679 14.6V18.01H524.125V30H520.451V18.01H515.886V14.6H528.679ZM542.142 26.689V30H530.35V14.6H542.098V17.911H534.024V20.573H541.625V23.873H534.024V26.689H542.142ZM537.137 13.401H533.914L536.246 9.749H540.195L537.137 13.401ZM557.036 15.953L555.397 18.967C553.952 18.1017 552.482 17.669 550.986 17.669C550.26 17.669 549.673 17.79 549.226 18.032C548.786 18.274 548.566 18.615 548.566 19.055C548.566 19.2823 548.635 19.4767 548.775 19.638C548.914 19.7993 549.156 19.9387 549.501 20.056C549.853 20.166 550.153 20.2503 550.403 20.309C550.652 20.3603 551.055 20.4337 551.613 20.529C551.627 20.5363 551.638 20.54 551.646 20.54C551.66 20.54 551.675 20.5437 551.69 20.551C551.704 20.551 551.719 20.551 551.734 20.551L552.372 20.661C553.919 20.9323 555.118 21.4347 555.969 22.168C556.819 22.894 557.245 23.8693 557.245 25.094C557.245 25.8053 557.124 26.4543 556.882 27.041C556.647 27.6203 556.328 28.108 555.925 28.504C555.521 28.9 555.041 29.2337 554.484 29.505C553.934 29.7763 553.347 29.9743 552.724 30.099C552.108 30.2237 551.462 30.286 550.788 30.286C549.482 30.286 548.236 30.1173 547.048 29.78C545.86 29.4427 544.848 28.9587 544.012 28.328L545.849 25.336C547.425 26.414 549.083 26.953 550.821 26.953C551.547 26.953 552.133 26.832 552.581 26.59C553.035 26.3407 553.263 25.985 553.263 25.523C553.263 25.0903 553.032 24.775 552.57 24.577C552.115 24.379 551.33 24.1957 550.216 24.027L549.446 23.906C547.825 23.6493 546.608 23.1433 545.794 22.388C544.98 21.6253 544.587 20.5657 544.617 19.209C544.646 17.7277 545.233 16.5433 546.377 15.656C547.521 14.7687 549.002 14.325 550.821 14.325C551.928 14.325 552.962 14.4423 553.923 14.677C554.891 14.9117 555.928 15.337 557.036 15.953Z" fill="white"/>
</svg>
