<svg width="24" height="24" viewBox="0 0 24 24" fill="none" xmlns="http://www.w3.org/2000/svg">
<path d="M12 15.3C11.8666 15.3 11.7416 15.275 11.625 15.225C11.5083 15.175 11.4 15.1 11.3 15L6.34996 10.05C6.16662 9.86669 6.07912 9.63336 6.08746 9.35002C6.09579 9.06669 6.19162 8.83335 6.37496 8.65002C6.59162 8.43335 6.82912 8.33752 7.08746 8.36252C7.34579 8.38752 7.57496 8.49169 7.77496 8.67502L12 12.9L16.225 8.67502C16.4083 8.49169 16.6458 8.39169 16.9375 8.37502C17.2291 8.35836 17.4666 8.45836 17.65 8.67502C17.8666 8.85836 17.9625 9.08752 17.9375 9.36252C17.9125 9.63752 17.8083 9.87502 17.625 10.075L12.7 15C12.6 15.1 12.4916 15.175 12.375 15.225C12.2583 15.275 12.1333 15.3 12 15.3Z" fill="#222222"/>
</svg>
