<svg xmlns="http://www.w3.org/2000/svg" xmlns:xlink="http://www.w3.org/1999/xlink" width="316" height="316" viewBox="0 0 316 316">
  <defs>
    <clipPath id="clip-Custom_Size_1">
      <rect width="316" height="316"/>
    </clipPath>
  </defs>
  <g id="Custom_Size_1" data-name="Custom Size – 1" clip-path="url(#clip-Custom_Size_1)">
    <g id="Group_1" data-name="Group 1" transform="translate(-61 -103)">
      <g id="nyitott_budapest_white_category" transform="translate(-937.306 -1706.73)">
        <path id="Path_21" data-name="Path 21" d="M1068.41,1856.06h0a17.2,17.2,0,0,0-24.471,24.182l43.988,44a17.2,17.2,0,1,0,24.853-23.8Z" fill="#fff"/>
        <path id="Path_22" data-name="Path 22" d="M1221.44,2009.09h-.027a17.2,17.2,0,0,0-23.812,24.829l43.769,43.755.2.2a17.063,17.063,0,0,0,12.058,4.944h0a17.205,17.205,0,0,0,12.165-29.369Z" fill="#fff"/>
        <path id="Path_23" data-name="Path 23" d="M1209.77,1929.28a17.164,17.164,0,0,0,12.167-5.027l43.859-43.867a17.2,17.2,0,0,0-24.25-24.405L1197.62,1899.9a17.193,17.193,0,0,0,12.15,29.376Z" fill="#fff"/>
        <path id="Path_24" data-name="Path 24" d="M1087.94,2009.59l-43.689,43.717-.168.151a17.2,17.2,0,1,0,24.325,24.327l44.368-44.355v-.03a17.2,17.2,0,1,0-24.838-23.812Z" fill="#fff"/>
        <path id="Path_25" data-name="Path 25" d="M1154.94,1809.73h-.007a11.359,11.359,0,0,0-11.359,11.1l-.007,38.951a11.371,11.371,0,0,0,22.719.743l.026-.027-.005-39.4a11.383,11.383,0,0,0-11.367-11.367Z" fill="#fff"/>
        <path id="Path_26" data-name="Path 26" d="M1154.94,2062.11a11.4,11.4,0,0,0-11.37,11.37l.006,38.6-.005.2.006.038a11.355,11.355,0,0,0,11.354,11.229h.018a11.368,11.368,0,0,0,11.363-11.367v-39.26l-.017-.023A11.385,11.385,0,0,0,1154.94,2062.11Z" fill="#fff"/>
        <path id="Path_27" data-name="Path 27" d="M1308.24,1958.88a11.284,11.284,0,0,0-7.911-3.327h-38.814a11.372,11.372,0,0,0-.015,22.743h38.709a11.37,11.37,0,0,0,8.035-19.409Z" fill="#fff"/>
        <path id="Path_28" data-name="Path 28" d="M1049.22,1978.26a11.372,11.372,0,0,0-.843-22.713l-38.7.006a11.368,11.368,0,0,0-.006,22.736h.006l39.513.005Z" fill="#fff"/>
      </g>
    </g>
  </g>
</svg>
