<svg width="96" height="96" viewBox="0 0 96 96" fill="none" xmlns="http://www.w3.org/2000/svg">
<circle cx="48" cy="48" r="48" fill="#CCEDF5"/>
<g clip-path="url(#clip0_4_3472)">
<path d="M64.3116 44.2231L64.2933 44.2158C63.9508 43.1664 63.8342 42.802 63.4917 41.7526L63.5026 41.738L66.8586 37.3837C66.108 36.0865 65.2298 34.884 64.2387 33.7799L59.0535 35.62H59.0462C58.1535 34.9751 57.8401 34.7492 56.9474 34.1006V34.0896L57.1041 28.5948C55.7632 27.9935 54.3457 27.5271 52.87 27.2174L49.7545 31.7612H47.1601L44.0447 27.2174C42.5689 27.5271 41.1551 27.9899 39.8105 28.5948L39.9672 34.0896V34.1006C39.0745 34.7492 38.7611 34.9751 37.8684 35.6237H37.8611L32.6759 33.7799C31.6848 34.8804 30.8067 36.0865 30.056 37.3837L33.412 41.738L33.4229 41.7526C33.0804 42.802 32.9638 43.1664 32.6213 44.2158L32.6031 44.2231L27.3378 45.7717C27.2649 46.5005 27.2248 47.2475 27.2248 47.9981C27.2248 48.7487 27.2649 49.4957 27.3378 50.2281L32.6104 51.7767H32.6213C32.9602 52.8298 33.0804 53.1942 33.4193 54.2472L33.4083 54.2618L30.0633 58.6162C30.8103 59.9134 31.6921 61.1158 32.6832 62.2199L37.8647 60.3725H37.8757C38.7684 61.0175 39.0781 61.2434 39.9709 61.892V61.9102L39.8142 67.4051C41.1551 68.0063 42.5725 68.4727 44.0483 68.7824L47.1565 64.2386L47.1638 64.2277H49.7545L49.7618 64.2386L52.87 68.7824C54.3457 68.4727 55.7595 68.0063 57.1041 67.4051L56.9474 61.9102V61.892C57.8401 61.2434 58.1499 61.0175 59.0426 60.3689H59.0535L64.2314 62.2199C65.2225 61.1195 66.108 59.9134 66.8513 58.6162L63.5063 54.2618L63.4953 54.2472C63.8342 53.1978 63.9545 52.8298 64.2933 51.7804H64.3043L69.5769 50.2281C69.6498 49.4921 69.6898 48.7524 69.6898 47.9981C69.6898 47.2438 69.6498 46.5005 69.5769 45.7717L64.3116 44.2231V44.2231ZM48.4573 61.3053C41.1223 61.3053 35.1537 55.3367 35.1537 48.0017C35.1537 40.6667 41.1187 34.6945 48.4573 34.6945C55.796 34.6945 61.7609 40.6631 61.7609 47.9981C61.7609 55.3331 55.7923 61.3017 48.4573 61.3017V61.3053Z" fill="#262626"/>
<path d="M52.8663 72C51.8169 72 50.8185 71.4862 50.21 70.5971L48.4573 68.0355L46.7046 70.5971C45.9686 71.672 44.6605 72.1967 43.3851 71.9307C41.7053 71.5773 40.062 71.0453 38.4951 70.342C37.3072 69.81 36.5566 68.6149 36.5931 67.314L36.6805 64.2131L33.7654 65.2516C32.5375 65.6889 31.1638 65.3427 30.2929 64.3735C29.1342 63.0872 28.1175 61.6916 27.2722 60.2231C26.6236 59.0936 26.7183 57.687 27.509 56.6558L29.4002 54.1926L26.4304 53.3218C25.1733 52.9537 24.266 51.8606 24.1348 50.5561C24.0474 49.6852 24.0037 48.8508 24.0037 48.0018C24.0037 47.1528 24.0474 46.3038 24.1348 45.4475C24.2697 44.1466 25.1733 43.0535 26.4304 42.6855L29.4002 41.8109L27.5054 39.355C26.7074 38.3202 26.6126 36.9027 27.2685 35.7731C28.1285 34.2901 29.1414 32.8982 30.282 31.6301C31.1528 30.6609 32.5229 30.3147 33.7509 30.752L36.6769 31.7904L36.5894 28.6932C36.553 27.3924 37.3036 26.1972 38.4915 25.6652C40.0547 24.9619 41.7017 24.4263 43.3815 24.0765C44.6532 23.8105 45.9649 24.3352 46.701 25.4065L48.4573 27.9644L50.2136 25.4065C50.9497 24.3315 52.2578 23.8068 53.5332 24.0765C55.213 24.4299 56.8563 24.9656 58.4232 25.6652C59.611 26.1972 60.3617 27.3924 60.3252 28.6932L60.2378 31.7904L63.1638 30.752C64.3917 30.3147 65.7618 30.6645 66.6327 31.6301C67.7732 32.8982 68.7898 34.2937 69.6461 35.7731C70.302 36.9027 70.2073 38.3202 69.4093 39.355L67.5145 41.8109L70.4842 42.6855C71.7377 43.0535 72.645 44.1466 72.7798 45.4475C72.8672 46.3001 72.911 47.1601 72.911 48.0018C72.911 48.8435 72.8672 49.6889 72.7798 50.5561C72.6486 51.8606 71.7413 52.9537 70.4842 53.3218L67.5145 54.1926L69.4056 56.6558C70.1963 57.687 70.2911 59.0936 69.6425 60.2231C68.7971 61.6916 67.7805 63.0872 66.6217 64.3771C65.7472 65.3463 64.3772 65.6925 63.1492 65.2553L60.2341 64.2168L60.3216 67.3177C60.358 68.6185 59.6074 69.8137 58.4195 70.3457C56.8527 71.0489 55.2093 71.5846 53.5295 71.9344C53.3072 71.9817 53.0886 72.0036 52.8663 72.0036V72ZM43.1373 63.6483L43.1155 64.4318L43.5564 63.7832C43.4143 63.7394 43.2758 63.6921 43.1373 63.6447V63.6483ZM53.351 63.7868L53.7919 64.4318L53.77 63.6483C53.6315 63.6957 53.4894 63.7431 53.351 63.7868V63.7868ZM34.957 57.5267L34.4687 58.1607L35.223 57.8911C35.1319 57.7709 35.0444 57.647 34.957 57.5267ZM61.6844 57.8911L62.4386 58.1607L61.9504 57.5267C61.8629 57.6506 61.7755 57.7709 61.6844 57.8911V57.8911ZM48.4537 37.9157C42.8932 37.9157 38.3676 42.4413 38.3676 48.0018C38.3676 53.5622 42.8932 58.0879 48.4537 58.0879C54.0141 58.0879 58.5361 53.5622 58.5361 48.0018C58.5361 42.4413 54.0105 37.9157 48.4537 37.9157V37.9157ZM64.9784 47.7759C64.9784 47.8487 64.9784 47.9253 64.9784 47.9981C64.9784 48.071 64.9784 48.1475 64.9784 48.2204L65.7363 47.9981L64.9784 47.7759ZM31.1711 47.9981L31.929 48.2204C31.929 48.1475 31.929 48.071 31.929 47.9981C31.929 47.9253 31.929 47.8487 31.929 47.7759L31.1711 47.9981ZM61.6807 38.1052C61.7718 38.2254 61.8593 38.3493 61.9467 38.4732L62.4386 37.8355L61.6807 38.1052ZM34.4651 37.8355L34.9533 38.4732C35.0408 38.3493 35.1319 38.2254 35.2193 38.1052L34.4614 37.8355H34.4651ZM43.1118 31.5609L43.1337 32.3479C43.2758 32.3006 43.4143 32.2532 43.5564 32.2095L43.1118 31.5572V31.5609ZM53.3437 32.2131C53.4858 32.2569 53.6279 32.3042 53.7664 32.3516L53.7882 31.5645L53.3437 32.2168V32.2131Z" fill="#262626"/>
<path d="M48.4573 37.8502C42.8604 37.8502 38.3093 42.4013 38.3093 47.9983C38.3093 53.5952 42.8604 58.1463 48.4573 58.1463C54.0542 58.1463 58.6053 53.5952 58.6053 47.9983C58.6053 42.4013 54.0542 37.8502 48.4573 37.8502V37.8502ZM48.4573 54.5134C44.8572 54.5134 41.9458 51.5947 41.9458 47.9946C41.9458 44.3945 44.8572 41.4831 48.4573 41.4831C52.0574 41.4831 54.9688 44.3945 54.9688 47.9946C54.9688 51.5947 52.0574 54.5134 48.4573 54.5134Z" fill="#262626"/>
<path d="M48.4573 61.3674C41.0859 61.3674 35.0881 55.3696 35.0881 47.9982C35.0881 40.6268 41.0822 34.629 48.4573 34.629C55.8324 34.629 61.8265 40.6268 61.8265 47.9982C61.8265 55.3696 55.8287 61.3674 48.4573 61.3674ZM48.4573 44.7042C46.6427 44.7042 45.1669 46.1799 45.1669 47.9945C45.1669 49.8092 46.6427 51.2922 48.4573 51.2922C50.2719 51.2922 51.7477 49.8128 51.7477 47.9945C51.7477 46.1763 50.2719 44.7042 48.4573 44.7042V44.7042Z" fill="#262626"/>
<path d="M48.4573 34.6947C41.1223 34.6947 35.1537 40.6633 35.1537 47.9983C35.1537 55.3333 41.1223 61.3019 48.4573 61.3019C55.7923 61.3019 61.7609 55.3333 61.7609 47.9983C61.7609 40.6633 55.7923 34.6947 48.4573 34.6947V34.6947ZM48.4573 58.15C42.8604 58.15 38.3093 53.5988 38.3093 48.0019C38.3093 42.405 42.8604 37.8539 48.4573 37.8539C54.0542 37.8539 58.6054 42.405 58.6054 48.0019C58.6054 53.5988 54.0542 58.15 48.4573 58.15Z" fill="#262626"/>
<path d="M48.4573 64.5266C39.3441 64.5266 31.9326 57.1114 31.9326 48.0019C31.9326 38.8923 39.3441 31.4735 48.4573 31.4735C57.5705 31.4735 64.982 38.8887 64.982 47.9982C64.982 57.1078 57.5669 64.5229 48.4573 64.5229V64.5266ZM48.4573 41.0713C44.6386 41.0713 41.5304 44.1795 41.5304 47.9982C41.5304 51.8169 44.6386 54.9251 48.4573 54.9251C52.276 54.9251 55.3842 51.8169 55.3842 47.9982C55.3842 44.1795 52.276 41.0713 48.4573 41.0713Z" fill="#262626"/>
<path d="M69.5769 50.2282C69.6498 49.4922 69.6898 48.7525 69.6898 47.9982C69.6898 47.2439 69.6498 46.5006 69.5769 45.7718L64.3116 44.2232L64.2933 44.2159C63.9508 43.1665 63.8342 42.8021 63.4917 41.7527L63.5026 41.7381L66.8586 37.3838C66.108 36.0866 65.2298 34.8841 64.2387 33.78L59.0535 35.6202H59.0462C58.1535 34.9752 57.8401 34.7493 56.9474 34.1007V34.0898L57.1041 28.5949C55.7632 27.9937 54.3457 27.5273 52.87 27.2175L49.7545 31.7614C48.6504 31.7614 48.2678 31.7614 47.1601 31.7614L44.0447 27.2175C42.5689 27.5273 41.1551 27.99 39.8105 28.5949L39.9672 34.0898V34.1007C39.0745 34.7493 38.7611 34.9752 37.8684 35.6238H37.8611L32.6759 33.78C31.6848 34.8805 30.8067 36.0866 30.056 37.3838L33.412 41.7381L33.4229 41.7527C33.0804 42.8021 32.9638 43.1665 32.6213 44.2159L32.6031 44.2232L27.3378 45.7718C27.2649 46.5006 27.2248 47.2476 27.2248 47.9982C27.2248 48.7488 27.2649 49.4958 27.3378 50.2282L32.6104 51.7769H32.6213C32.9602 52.8299 33.0804 53.1943 33.4193 54.2474L33.4083 54.2619L30.0633 58.6163C30.8103 59.9135 31.6921 61.116 32.6832 62.22L37.8647 60.3726H37.8757C38.7684 61.0176 39.0781 61.2435 39.9709 61.8921V61.9103L39.8142 67.4052C41.1551 68.0064 42.5725 68.4728 44.0483 68.7825L47.1565 64.2387L47.1638 64.2278H49.7545L49.7618 64.2387L52.87 68.7825C54.3457 68.4728 55.7595 68.0064 57.1041 67.4052L56.9474 61.9103V61.8921C57.8401 61.2435 58.1499 61.0176 59.0426 60.369H59.0535L64.235 62.22C65.2262 61.1196 66.1116 59.9135 66.8549 58.6163L63.5099 54.2619L63.499 54.2474C63.8379 53.1979 63.9581 52.8299 64.297 51.7805H64.3079L69.5805 50.2282H69.5769ZM48.4573 54.517C44.8572 54.517 41.9458 51.5983 41.9458 47.9982C41.9458 44.3981 44.8572 41.4867 48.4573 41.4867C52.0574 41.4867 54.9688 44.3981 54.9688 47.9982C54.9688 51.5983 52.0574 54.517 48.4573 54.517Z" fill="#FCCE60"/>
<path d="M48.4573 61.5678C40.9765 61.5678 34.8914 55.4826 34.8914 48.0018C34.8914 40.5211 40.9729 34.4323 48.4573 34.4323C55.9417 34.4323 62.0232 40.5174 62.0232 47.9982C62.0232 55.4789 55.938 61.5641 48.4573 61.5641V61.5678ZM48.4573 38.1125C43.0061 38.1125 38.5716 42.547 38.5716 47.9982C38.5716 53.4493 43.0061 57.8839 48.4573 57.8839C53.9084 57.8839 58.343 53.4493 58.343 47.9982C58.343 42.547 53.9084 38.1125 48.4573 38.1125Z" fill="#262626"/>
</g>
<defs>
<clipPath id="clip0_4_3472">
<rect width="48.911" height="48" fill="white" transform="translate(24 24)"/>
</clipPath>
</defs>
</svg>
