<svg width="60" height="60" viewBox="0 0 60 60" fill="none" xmlns="http://www.w3.org/2000/svg">
<circle cx="30" cy="30" r="30" fill="#CCEDF5"/>
<path fill-rule="evenodd" clip-rule="evenodd" d="M43.1691 24.2081C43.1497 24.1762 43.1275 24.1451 43.1028 24.1148C42.8421 23.7946 42.5821 23.4751 42.3221 23.1555C42.0357 22.8036 41.7493 22.4516 41.4621 22.0989C41.0299 21.5668 40.5969 21.0355 40.1639 20.5042C39.7319 19.9739 39.2998 19.4437 38.8684 18.9127C38.6689 18.6655 38.4694 18.4213 38.2669 18.1742C38.0763 17.9419 37.6118 17.9419 37.4242 18.1742C37.1635 18.4944 36.9034 18.8139 36.6434 19.1335C36.357 19.4854 36.0706 19.8374 35.7834 20.1901C35.3512 20.7222 34.9182 21.2535 34.4853 21.7849C34.0532 22.3151 33.6211 22.8454 33.1897 23.3764C32.9902 23.6235 32.7907 23.8677 32.5882 24.1148C32.4334 24.3054 32.3649 24.5258 32.4661 24.764C32.5584 24.9814 32.7728 25.1303 33.0111 25.1303H34.8781V26.2171V30.252V35.0998V39.3164C34.8781 39.5437 34.8765 39.771 34.8748 39.9983C34.8715 40.4529 34.8682 40.9075 34.8781 41.3621V41.3889C34.8781 41.7105 35.1521 41.9845 35.4737 41.9845H39.6426H40.2382C40.5598 41.9845 40.8337 41.7105 40.8337 41.3889V39.7065V35.6716V30.8238V26.6072C40.8337 26.3812 40.8367 26.1546 40.8397 25.9276C40.8432 25.6621 40.8466 25.3961 40.8454 25.1303H42.6432C42.667 25.1312 42.6909 25.1308 42.7148 25.1291C42.7241 25.1285 42.7333 25.1277 42.7425 25.1267C42.8814 25.1113 43.0149 25.0533 43.1028 24.9576C43.1236 24.9347 43.1424 24.9112 43.1592 24.8874C43.2362 24.7877 43.2816 24.6651 43.2755 24.5347C43.27 24.4156 43.232 24.3027 43.1691 24.2081ZM31.247 41.9996C31.2623 42.0003 31.2777 42.0003 31.2933 41.9996C31.6059 41.9996 31.9037 41.7256 31.8889 41.404V40.1235V37.0653V33.3491V30.151C31.8889 29.9773 31.8905 29.8035 31.8922 29.6298C31.8955 29.2824 31.8988 28.935 31.8889 28.5876V28.5668C31.8889 28.2452 31.6149 27.9712 31.2933 27.9712H27.1244H26.5288C26.2072 27.9712 25.9333 28.2451 25.9333 28.5668V29.8472V32.9054V36.6217V39.8198C25.9333 39.9935 25.9316 40.1672 25.9299 40.3409C25.9266 40.6883 25.9233 41.0357 25.9333 41.3831V41.404C25.9333 41.7256 26.2072 41.9996 26.5288 41.9996H30.6977H31.247ZM22.3138 41.9994H21.7644H17.5956C17.274 41.9994 17 41.7254 17 41.4038V40.2187V35.0701V31.8422C17 31.5205 17.274 31.2466 17.5956 31.2466H18.1912H22.36C22.6817 31.2466 22.9556 31.5206 22.9556 31.8422V33.0273V38.1759V41.4038C22.9705 41.7255 22.6727 41.9994 22.36 41.9994C22.3445 42.0001 22.3291 42.0001 22.3138 41.9994Z" fill="#FCCE60"/>
<path d="M43.1691 24.2081L42.5292 24.5992L42.5365 24.6112L42.5443 24.623L43.1691 24.2081ZM43.1028 24.1148L42.5212 24.5884L42.5218 24.589L43.1028 24.1148ZM42.3218 23.1552L42.9035 22.6818L42.9035 22.6818L42.3218 23.1552ZM41.4621 22.0989L40.8799 22.5718L40.8805 22.5725L41.4621 22.0989ZM40.1639 20.5042L39.5825 20.978L40.1639 20.5042ZM38.8684 18.9127L38.2848 19.3838L38.2863 19.3855L38.8684 18.9127ZM38.2669 18.1742L38.847 17.6988L38.8467 17.6985L38.2669 18.1742ZM37.4242 18.1742L38.0058 18.6477L38.0076 18.6455L37.4242 18.1742ZM36.6432 19.1338L36.0614 18.6604V18.6604L36.6432 19.1338ZM35.7834 20.1901L35.2018 19.7166L35.2013 19.7172L35.7834 20.1901ZM34.4853 21.7849L35.0667 22.2586L34.4853 21.7849ZM33.1897 23.3764L32.6076 22.9035L32.6061 22.9053L33.1897 23.3764ZM32.5882 24.1148L32.0081 23.6395L32.0061 23.6419L32.5882 24.1148ZM32.4661 24.764L33.1565 24.4708L33.1564 24.4706L32.4661 24.764ZM34.8781 25.1303H35.6281V24.3803H34.8781V25.1303ZM34.8748 39.9983L35.6248 40.0037V40.0037L34.8748 39.9983ZM34.8781 41.3621H35.6281V41.3539L35.628 41.3457L34.8781 41.3621ZM40.8397 25.9276L41.5896 25.9374V25.9374L40.8397 25.9276ZM40.8454 25.1303V24.3803H40.0918L40.0954 25.1338L40.8454 25.1303ZM42.6432 25.1303L42.6715 24.3808L42.6574 24.3803H42.6432V25.1303ZM42.7148 25.1291L42.6665 24.3807L42.6632 24.3809L42.7148 25.1291ZM42.7425 25.1267L42.6603 24.3812L42.6565 24.3816L42.7425 25.1267ZM43.1028 24.9576L43.6551 25.4651L43.6581 25.4618L43.1028 24.9576ZM43.1592 24.8874L42.5656 24.429L42.5556 24.442L42.5461 24.4554L43.1592 24.8874ZM43.2755 24.5347L44.0247 24.5L44.0247 24.4997L43.2755 24.5347ZM31.2933 41.9996V41.2496H31.276L31.2587 41.2504L31.2933 41.9996ZM31.2471 41.9996L31.2816 41.2504L31.2644 41.2496H31.2471V41.9996ZM31.8889 41.404H31.1389V41.4213L31.1397 41.4386L31.8889 41.404ZM31.8922 29.6298L32.6421 29.637V29.637L31.8922 29.6298ZM31.8889 28.5876H31.1389V28.5983L31.1392 28.609L31.8889 28.5876ZM25.9299 40.3409L25.18 40.3338V40.3338L25.9299 40.3409ZM25.9333 41.3831H26.6833V41.3724L26.6829 41.3617L25.9333 41.3831ZM22.3138 41.9994L22.3485 41.2502L22.3311 41.2494H22.3138V41.9994ZM22.9556 41.4038H22.2056V41.4212L22.2064 41.4385L22.9556 41.4038ZM22.36 41.9994V41.2494H22.3427L22.3254 41.2502L22.36 41.9994ZM43.809 23.8169C43.7712 23.755 43.7292 23.6961 43.6839 23.6406L42.5218 24.589C42.5259 24.594 42.5282 24.5975 42.5292 24.5992L43.809 23.8169ZM43.6844 23.6413C43.4237 23.3211 43.1636 23.0015 42.9035 22.6818L41.7401 23.6286C42.0002 23.9482 42.2604 24.2679 42.5212 24.5884L43.6844 23.6413ZM42.9035 22.6818C42.6172 22.33 42.3309 21.9781 42.0437 21.6254L40.8805 22.5725C41.1675 22.925 41.4537 23.2767 41.7401 23.6286L42.9035 22.6818ZM42.0442 21.626C41.6116 21.0934 41.1783 20.5617 40.7454 20.0304L39.5825 20.978C40.0155 21.5094 40.4481 22.0402 40.8799 22.5718L42.0442 21.626ZM40.7454 20.0304C40.3132 19.5001 39.8815 18.9703 39.4505 18.4398L38.2863 19.3855C38.7181 19.9171 39.1505 20.4478 39.5825 20.978L40.7454 20.0304ZM39.452 18.4416C39.2507 18.1922 39.0498 17.9464 38.847 17.6988L37.6868 18.6495C37.8889 18.8963 38.0871 19.1388 38.2848 19.3837L39.452 18.4416ZM38.8467 17.6985C38.5667 17.3573 38.1561 17.25 37.8444 17.25C37.5334 17.25 37.1201 17.3571 36.8407 17.7029L38.0076 18.6455C37.9591 18.7055 37.9091 18.731 37.8856 18.7403C37.8622 18.7497 37.8486 18.75 37.8444 18.75C37.8402 18.75 37.8273 18.7497 37.8049 18.7408C37.7827 18.732 37.7344 18.7076 37.6871 18.6499L38.8467 17.6985ZM36.8425 17.7007C36.5817 18.0211 36.3215 18.3408 36.0614 18.6604L37.2249 19.6072C37.485 19.2875 37.7451 18.968 38.0058 18.6477L36.8425 17.7007ZM36.0614 18.6604C35.7751 19.0123 35.4888 19.364 35.2018 19.7166L36.365 20.6637C36.6522 20.3109 36.9386 19.959 37.2249 19.6072L36.0614 18.6604ZM35.2013 19.7172C34.7695 20.2488 34.3369 20.7797 33.9038 21.3111L35.0667 22.2586C35.4996 21.7274 35.9329 21.1956 36.3655 20.663L35.2013 19.7172ZM33.9038 21.3111C33.4718 21.8413 33.0394 22.372 32.6076 22.9035L33.7719 23.8493C34.2028 23.3188 34.6345 22.789 35.0667 22.2586L33.9038 21.3111ZM32.6061 22.9053C32.4084 23.1503 32.2103 23.3928 32.0081 23.6395L33.1683 24.5902C33.3712 24.3427 33.5721 24.0968 33.7733 23.8475L32.6061 22.9053ZM32.0061 23.6419C31.7351 23.9755 31.5336 24.4874 31.7759 25.0573L33.1564 24.4706C33.1597 24.4784 33.1652 24.4949 33.1674 24.5183C33.1696 24.5418 33.1677 24.564 33.1637 24.5821C33.1562 24.6165 33.1457 24.618 33.1703 24.5878L32.0061 23.6419ZM31.7758 25.0571C31.9803 25.5387 32.4583 25.8803 33.0111 25.8803V24.3803C33.0874 24.3803 33.1366 24.424 33.1565 24.4708L31.7758 25.0571ZM33.0111 25.8803H34.8781V24.3803H33.0111V25.8803ZM34.1281 25.1303V26.2171H35.6281V25.1303H34.1281ZM34.1281 26.2171V30.252H35.6281V26.2171H34.1281ZM34.1281 30.252V35.0998H35.6281V30.252H34.1281ZM34.1281 35.0998V39.3164H35.6281V35.0998H34.1281ZM34.1281 39.3164C34.1281 39.5405 34.1265 39.7651 34.1248 39.9928L35.6248 40.0037C35.6265 39.7769 35.6281 39.5469 35.6281 39.3164H34.1281ZM34.1248 39.9928C34.1215 40.4456 34.1181 40.9111 34.1283 41.3785L35.628 41.3457C35.6183 40.9039 35.6215 40.4602 35.6248 40.0037L34.1248 39.9928ZM34.1281 41.3621V41.3889H35.6281V41.3621H34.1281ZM34.1281 41.3889C34.1281 42.1247 34.7378 42.7345 35.4737 42.7345V41.2345C35.5288 41.2345 35.5662 41.2575 35.5857 41.277C35.6051 41.2964 35.6281 41.3338 35.6281 41.3889H34.1281ZM35.4737 42.7345H39.6426V41.2345H35.4737V42.7345ZM39.6426 42.7345H40.2382V41.2345H39.6426V42.7345ZM40.2382 42.7345C40.9739 42.7345 41.5837 42.1248 41.5837 41.3889H40.0837C40.0837 41.3338 40.1067 41.2964 40.1262 41.277C40.1457 41.2575 40.1831 41.2345 40.2382 41.2345V42.7345ZM41.5837 41.3889V39.7065H40.0837V41.3889H41.5837ZM41.5837 39.7065V35.6716H40.0837V39.7065H41.5837ZM41.5837 35.6716V30.8238H40.0837V35.6716H41.5837ZM41.5837 30.8238V26.6072H40.0837V30.8238H41.5837ZM41.5837 26.6072C41.5837 26.3869 41.5866 26.1652 41.5896 25.9374L40.0898 25.9178C40.0868 26.1439 40.0837 26.3755 40.0837 26.6072H41.5837ZM41.5896 25.9374C41.5931 25.673 41.5967 25.4004 41.5954 25.1267L40.0954 25.1338C40.0966 25.3919 40.0932 25.6512 40.0898 25.9178L41.5896 25.9374ZM40.8454 25.8803H42.6432V24.3803H40.8454V25.8803ZM42.6148 25.8797C42.6656 25.8817 42.7162 25.8808 42.7664 25.8774L42.6632 24.3809C42.6656 24.3807 42.6684 24.3807 42.6715 24.3808L42.6148 25.8797ZM42.7631 25.8776C42.7844 25.8762 42.8062 25.8743 42.8285 25.8717L42.6565 24.3816C42.6603 24.3812 42.6637 24.3809 42.6665 24.3807L42.7631 25.8776ZM42.8247 25.8721C43.1021 25.8416 43.4186 25.7223 43.6551 25.4651L42.5506 24.4501C42.5829 24.4149 42.6127 24.3981 42.6283 24.3909C42.6441 24.3836 42.6547 24.3818 42.6603 24.3812L42.8247 25.8721ZM43.6581 25.4618C43.6989 25.4167 43.7372 25.3692 43.7724 25.3193L42.5461 24.4554C42.5477 24.4532 42.5483 24.4525 42.5476 24.4534L43.6581 25.4618ZM43.7529 25.3457C43.9235 25.1247 44.04 24.831 44.0247 24.5L42.5263 24.5693C42.5231 24.4992 42.5488 24.4507 42.5656 24.429L43.7529 25.3457ZM44.0247 24.4997C44.0128 24.2439 43.9312 23.9999 43.7939 23.7932L42.5443 24.623C42.5327 24.6055 42.5272 24.5873 42.5264 24.5697L44.0247 24.4997ZM31.2587 41.2504C31.2664 41.25 31.2741 41.25 31.2816 41.2504L31.2125 42.7488C31.2506 42.7505 31.2891 42.7505 31.3279 42.7488L31.2587 41.2504ZM31.1397 41.4386C31.1356 41.351 31.1751 41.3002 31.1908 41.2849C31.2041 41.2719 31.2342 41.2496 31.2933 41.2496V42.7496C31.9798 42.7496 32.6751 42.1703 32.6381 41.3693L31.1397 41.4386ZM31.1389 40.1235V41.404H32.6389V40.1235H31.1389ZM31.1389 37.0653V40.1235H32.6389V37.0653H31.1389ZM31.1389 33.3491V37.0653H32.6389V33.3491H31.1389ZM31.1389 30.151V33.3491H32.6389V30.151H31.1389ZM31.1422 29.6227C31.1406 29.7958 31.1389 29.9731 31.1389 30.151H32.6389C32.6389 29.9814 32.6405 29.8113 32.6421 29.637L31.1422 29.6227ZM31.1392 28.609C31.1486 28.9398 31.1455 29.2729 31.1422 29.6227L32.6421 29.637C32.6454 29.2919 32.649 28.9303 32.6386 28.5662L31.1392 28.609ZM31.1389 28.5668V28.5876H32.6389V28.5668H31.1389ZM31.2933 28.7212C31.2382 28.7212 31.2008 28.6982 31.1813 28.6787C31.1619 28.6592 31.1389 28.6219 31.1389 28.5668H32.6389C32.6389 27.831 32.0291 27.2212 31.2933 27.2212V28.7212ZM27.1244 28.7212H31.2933V27.2212H27.1244V28.7212ZM26.5288 28.7212H27.1244V27.2212H26.5288V28.7212ZM26.6833 28.5668C26.6833 28.6218 26.6603 28.6592 26.6408 28.6787C26.6213 28.6982 26.5839 28.7212 26.5288 28.7212V27.2212C25.7931 27.2212 25.1833 27.8309 25.1833 28.5668H26.6833ZM26.6833 29.8472V28.5668H25.1833V29.8472H26.6833ZM26.6833 32.9054V29.8472H25.1833V32.9054H26.6833ZM26.6833 36.6217V32.9054H25.1833V36.6217H26.6833ZM26.6833 39.8198V36.6217H25.1833V39.8198H26.6833ZM26.6799 40.3481C26.6816 40.1749 26.6833 39.9977 26.6833 39.8198H25.1833C25.1833 39.9893 25.1816 40.1595 25.18 40.3338L26.6799 40.3481ZM26.6829 41.3617C26.6735 41.031 26.6766 40.6978 26.6799 40.348L25.18 40.3338C25.1767 40.6788 25.1732 41.0405 25.1836 41.4045L26.6829 41.3617ZM26.6833 41.404V41.3831H25.1833V41.404H26.6833ZM26.5288 41.2496C26.5839 41.2496 26.6213 41.2726 26.6408 41.292C26.6603 41.3115 26.6833 41.3489 26.6833 41.404H25.1833C25.1833 42.1398 25.793 42.7496 26.5288 42.7496V41.2496ZM30.6977 41.2496H26.5288V42.7496H30.6977V41.2496ZM31.2471 41.2496H30.6977V42.7496H31.2471V41.2496ZM21.7644 42.7494H22.3138V41.2494H21.7644V42.7494ZM17.5956 42.7494H21.7644V41.2494H17.5956V42.7494ZM16.25 41.4038C16.25 42.1396 16.8597 42.7494 17.5956 42.7494V41.2494C17.6507 41.2494 17.688 41.2724 17.7075 41.2919C17.727 41.3114 17.75 41.3488 17.75 41.4038H16.25ZM16.25 40.2187V41.4038H17.75V40.2187H16.25ZM16.25 35.0701V40.2187H17.75V35.0701H16.25ZM16.25 31.8422V35.0701H17.75V31.8422H16.25ZM17.5956 30.4966C16.8598 30.4966 16.25 31.1063 16.25 31.8422H17.75C17.75 31.8972 17.727 31.9346 17.7075 31.9541C17.688 31.9736 17.6507 31.9966 17.5956 31.9966V30.4966ZM18.1912 30.4966H17.5956V31.9966H18.1912V30.4966ZM22.36 30.4966H18.1912V31.9966H22.36V30.4966ZM23.7056 31.8422C23.7056 31.1064 23.0959 30.4966 22.36 30.4966V31.9966C22.305 31.9966 22.2676 31.9736 22.2481 31.9541C22.2286 31.9346 22.2056 31.8972 22.2056 31.8422H23.7056ZM23.7056 33.0273V31.8422H22.2056V33.0273H23.7056ZM23.7056 38.1759V33.0273H22.2056V38.1759H23.7056ZM23.7056 41.4038V38.1759H22.2056V41.4038H23.7056ZM22.36 42.7494C23.0466 42.7494 23.7418 42.1702 23.7048 41.3692L22.2064 41.4385C22.2024 41.3509 22.2418 41.3001 22.2575 41.2848C22.2709 41.2718 22.301 41.2494 22.36 41.2494V42.7494ZM22.2791 42.7486C22.3174 42.7504 22.3559 42.7504 22.3946 42.7486L22.3254 41.2502C22.3331 41.2499 22.3408 41.2499 22.3485 41.2502L22.2791 42.7486Z" fill="#262626"/>
</svg>
