<svg width="96" height="96" viewBox="0 0 96 96" fill="none" xmlns="http://www.w3.org/2000/svg">
<circle cx="48" cy="48" r="48" fill="#CCEDF5"/>
<g clip-path="url(#clip0_4_3455)">
<path d="M66.1205 27.2212H29.2705C28.4288 27.2212 27.9296 28.1613 28.3997 28.8573L44.3742 52.5129L44.9754 68.0793C44.99 68.4692 45.3106 68.7789 45.7005 68.7789H49.6905C50.0804 68.7789 50.401 68.4692 50.4156 68.0793L51.0168 52.5129L66.9913 28.8573C67.4614 28.1613 66.9622 27.2212 66.1205 27.2212ZM37.7461 37.9413V30.6828H40.9016V37.9413C40.9016 39.0235 41.7834 39.9053 42.8656 39.9053C43.9478 39.9053 44.8296 39.0235 44.8296 37.9413V30.6828H47.9852V37.9413C47.9852 40.7653 45.6859 43.0645 42.862 43.0645C40.038 43.0645 37.7388 40.7653 37.7388 37.9413H37.7461Z" fill="#262626"/>
<path d="M49.6906 72H45.7006C43.569 72 41.8382 70.3311 41.7544 68.2031L41.1896 53.555L25.7325 30.6609C24.8471 29.3491 24.7596 27.6657 25.4993 26.2665C26.2426 24.8672 27.6892 24 29.2707 24H66.1206C67.702 24 69.1486 24.8672 69.8919 26.2665C70.6353 27.6657 70.5442 29.3491 69.6587 30.6609L54.2017 53.555L53.6369 68.2031C53.5531 70.3311 51.8222 72 49.6906 72ZM43.999 46.2054L47.0415 50.7092C47.3768 51.2084 47.5663 51.7878 47.5918 52.389L47.6974 55.1L47.8031 52.389C47.825 51.7878 48.0181 51.2084 48.3533 50.7092L62.0359 30.4423H51.2028C51.2101 30.5224 51.2101 30.6026 51.2101 30.6828V37.9412C51.2101 42.1571 48.0655 45.6516 43.999 46.2054ZM33.3554 30.4423L34.525 32.1731V30.6828C34.525 30.6026 34.525 30.5224 34.5323 30.4423H33.3554Z" fill="#262626"/>
<path d="M47.9889 37.9413V30.6829H44.8333V37.9413C44.8333 39.0236 43.9515 39.9054 42.8693 39.9054C41.7871 39.9054 40.9053 39.0236 40.9053 37.9413V30.6829H37.7498V37.9413C37.7498 40.7653 40.049 43.0646 42.873 43.0646C45.6969 43.0646 47.9962 40.7653 47.9962 37.9413H47.9889Z" fill="#262626"/>
<path d="M42.8693 46.282C38.2708 46.282 34.525 42.5398 34.525 37.9413V30.6828C34.525 28.9046 35.9679 27.4617 37.7461 27.4617H40.9016C41.6413 27.4617 42.3227 27.7131 42.8657 28.1321C43.4086 27.7131 44.09 27.4617 44.8297 27.4617H47.9852C49.7634 27.4617 51.2064 28.9046 51.2064 30.6828V37.9413C51.2064 42.5398 47.4642 46.282 42.862 46.282H42.8693Z" fill="#262626"/>
<path d="M51.1699 48.563H44.2175L44.9717 68.0793C44.9863 68.4692 45.307 68.7789 45.6969 68.7789H49.6868C50.0767 68.7789 50.3974 68.4692 50.412 68.0793L51.1662 48.563H51.1699Z" fill="#FCCE60"/>
<path d="M66.1205 27.2212H29.2705C28.4288 27.2212 27.9296 28.1613 28.3997 28.8573L44.4106 52.5676H50.984L66.9913 28.8573C67.4614 28.1613 66.9622 27.2212 66.1205 27.2212Z" fill="#FCCE60"/>
<path d="M42.8693 43.3232C39.8996 43.3232 37.4837 40.9073 37.4837 37.9376V30.6791C37.4837 29.6625 38.3072 28.839 39.3238 28.839C40.3405 28.839 41.164 29.6625 41.164 30.6791V37.9376C41.164 38.8777 41.9292 39.6393 42.8656 39.6393C43.8021 39.6393 44.5673 38.8741 44.5673 37.9376V30.6791C44.5673 29.6625 45.3908 28.839 46.4074 28.839C47.424 28.839 48.2475 29.6625 48.2475 30.6791V37.9376C48.2475 40.9073 45.8317 43.3232 42.862 43.3232H42.8693Z" fill="#262626"/>
</g>
<defs>
<clipPath id="clip0_4_3455">
<rect width="45.391" height="48" fill="white" transform="translate(25 24)"/>
</clipPath>
</defs>
</svg>
