<svg xmlns="http://www.w3.org/2000/svg" width="686.635" height="315.368" viewBox="0 0 686.635 315.368"><defs><style>.a{fill:#fff;}</style></defs><g transform="translate(-69.94 -1807.528)"><path class="a" d="M444.18,2016.881v-6.721l21.748-33.15H446.219v-9.364H479.6v6.721l-21.748,33.151h21.974v9.363Z"/><path class="a" d="M503.306,2017.787a18.445,18.445,0,0,1-6.872-1.321,17.426,17.426,0,0,1-5.852-3.814,18.276,18.276,0,0,1-4.04-6.154,23.794,23.794,0,0,1,0-16.688,18.28,18.28,0,0,1,4.04-6.155,17.424,17.424,0,0,1,5.852-3.813,18.445,18.445,0,0,1,6.872-1.321,18.168,18.168,0,0,1,6.834,1.321,17.535,17.535,0,0,1,5.814,3.813,18.324,18.324,0,0,1,4.04,6.155,23.809,23.809,0,0,1,0,16.688,18.321,18.321,0,0,1-4.04,6.154,17.538,17.538,0,0,1-5.814,3.814A18.168,18.168,0,0,1,503.306,2017.787ZM495,1973.914a5.239,5.239,0,0,1-3.926-1.548,5.338,5.338,0,0,1-1.511-3.889,5.232,5.232,0,0,1,5.437-5.362,5.123,5.123,0,0,1,3.889,1.548,5.325,5.325,0,0,1,1.473,3.814,5.416,5.416,0,0,1-1.473,3.889A5.119,5.119,0,0,1,495,1973.914Zm8.307,34.887a5.63,5.63,0,0,0,5.134-2.869,18.283,18.283,0,0,0,0-15.556,6.062,6.062,0,0,0-10.307,0,18.653,18.653,0,0,0,0,15.556A5.61,5.61,0,0,0,503.306,2008.8Zm8.155-34.887a5.118,5.118,0,0,1-3.889-1.548,5.415,5.415,0,0,1-1.472-3.889,5.324,5.324,0,0,1,1.472-3.814,5.121,5.121,0,0,1,3.889-1.548,5.23,5.23,0,0,1,5.437,5.362,5.345,5.345,0,0,1-1.51,3.889A5.245,5.245,0,0,1,511.461,1973.914Z"/><path class="a" d="M539.325,2017.787a11.5,11.5,0,0,1-4.833-.906,7.8,7.8,0,0,1-3.134-2.529,10.721,10.721,0,0,1-1.7-3.927,23.147,23.147,0,0,1-.529-5.173v-41.306h11.1V2005.7a3.512,3.512,0,0,0,.642,2.416,1.838,1.838,0,0,0,1.321.68h.642a2.43,2.43,0,0,0,.718-.151l1.359,8.231a11.842,11.842,0,0,1-2.3.641A17.9,17.9,0,0,1,539.325,2017.787Z"/><path class="a" d="M564.093,2017.787a14.38,14.38,0,0,1-6.3-1.359,13.59,13.59,0,0,1-4.833-3.889,18.344,18.344,0,0,1-3.1-6.154,28.428,28.428,0,0,1-1.1-8.232,23.926,23.926,0,0,1,1.321-8.23,19.9,19.9,0,0,1,3.474-6.154,15.062,15.062,0,0,1,4.984-3.89,13.232,13.232,0,0,1,5.777-1.358,11.294,11.294,0,0,1,5.21,1.056,18.515,18.515,0,0,1,4,2.87l-.453-5.739v-12.762h11.1v52.935h-9.062l-.755-3.7h-.3a17.591,17.591,0,0,1-4.606,3.285A11.893,11.893,0,0,1,564.093,2017.787Zm2.869-9.061a7.1,7.1,0,0,0,3.286-.755,8.333,8.333,0,0,0,2.831-2.644V1990a8.879,8.879,0,0,0-3.1-1.888,9.8,9.8,0,0,0-3.1-.528,5.932,5.932,0,0,0-4.682,2.529q-2.039,2.532-2.038,7.892,0,5.589,1.774,8.155A5.745,5.745,0,0,0,566.962,2008.726Z"/><path class="a" d="M447.276,2089.5v-49.234h16.839a42.018,42.018,0,0,1,7.136.566,17,17,0,0,1,5.739,2,10.689,10.689,0,0,1,3.852,3.775,11.355,11.355,0,0,1,1.4,5.89,12.611,12.611,0,0,1-.453,3.323,12.99,12.99,0,0,1-1.284,3.1,11.71,11.71,0,0,1-2,2.567,7.267,7.267,0,0,1-2.68,1.662v.3a12.409,12.409,0,0,1,3.473,1.4,10.962,10.962,0,0,1,2.794,2.379,10.707,10.707,0,0,1,1.889,3.36,13.265,13.265,0,0,1,.679,4.418,13.447,13.447,0,0,1-1.472,6.493,12.661,12.661,0,0,1-4.078,4.493,18.759,18.759,0,0,1-6.079,2.644,30.751,30.751,0,0,1-7.476.868Zm11.1-29.525h5.211q4.077,0,5.928-1.586a5.292,5.292,0,0,0,1.85-4.229,4.47,4.47,0,0,0-1.888-4.078,11.014,11.014,0,0,0-5.815-1.208h-5.286Zm0,20.917h6.268q9.135,0,9.137-6.646a5.026,5.026,0,0,0-2.265-4.643q-2.266-1.4-6.872-1.4h-6.268Z"/><path class="a" d="M503.306,2090.4q-6.115,0-8.872-4t-2.757-11.1v-23.258h11.1v21.823q0,4.077,1.133,5.588a4.142,4.142,0,0,0,3.548,1.51,6.133,6.133,0,0,0,3.55-.982,14.279,14.279,0,0,0,3.1-3.171v-24.768h11.1V2089.5h-9.061l-.831-5.21h-.227a20.284,20.284,0,0,1-5.172,4.492A12.8,12.8,0,0,1,503.306,2090.4Z"/><path class="a" d="M548.312,2090.4a14.388,14.388,0,0,1-6.306-1.359,13.586,13.586,0,0,1-4.832-3.889,18.327,18.327,0,0,1-3.1-6.154,28.424,28.424,0,0,1-1.1-8.231,23.927,23.927,0,0,1,1.322-8.231,19.9,19.9,0,0,1,3.474-6.154,15.048,15.048,0,0,1,4.984-3.89,13.228,13.228,0,0,1,5.777-1.358,11.293,11.293,0,0,1,5.21,1.056,18.535,18.535,0,0,1,4,2.87l-.453-5.739v-12.761h11.1V2089.5h-9.061l-.755-3.7h-.3a17.563,17.563,0,0,1-4.606,3.285A11.887,11.887,0,0,1,548.312,2090.4Zm2.869-9.061a7.1,7.1,0,0,0,3.285-.755,8.327,8.327,0,0,0,2.832-2.644v-15.329a8.861,8.861,0,0,0-3.1-1.887,9.774,9.774,0,0,0-3.1-.529,5.929,5.929,0,0,0-4.682,2.53q-2.039,2.531-2.039,7.891,0,5.589,1.775,8.155A5.745,5.745,0,0,0,551.181,2081.342Z"/><path class="a" d="M587.654,2090.4a11.941,11.941,0,0,1-4.644-.868,9.924,9.924,0,0,1-3.511-2.417,11.162,11.162,0,0,1-2.228-3.587,12.2,12.2,0,0,1-.793-4.455,10.49,10.49,0,0,1,4.984-9.213q4.984-3.321,16.084-4.455a6.322,6.322,0,0,0-1.472-3.964q-1.323-1.473-4.418-1.472a13.355,13.355,0,0,0-4.795.906,34.882,34.882,0,0,0-5.1,2.491l-4-7.324a39.226,39.226,0,0,1,7.589-3.55,25.81,25.81,0,0,1,8.42-1.358q7.25,0,11.062,4.115t3.814,12.8V2089.5h-9.062l-.755-3.851h-.3a23.983,23.983,0,0,1-5.059,3.436A12.835,12.835,0,0,1,587.654,2090.4Zm3.776-8.608a6.1,6.1,0,0,0,3.247-.831,15.808,15.808,0,0,0,2.869-2.341v-6.569q-5.889.831-8.155,2.416a4.565,4.565,0,0,0-2.266,3.775,3.118,3.118,0,0,0,1.171,2.682A5.138,5.138,0,0,0,591.43,2081.795Z"/><path class="a" d="M618.01,2103.392v-51.349h9.061l.756,3.7h.3a20.9,20.9,0,0,1,4.946-3.284,13.048,13.048,0,0,1,5.7-1.321,13.5,13.5,0,0,1,6.117,1.358,13.041,13.041,0,0,1,4.606,3.852,18.266,18.266,0,0,1,2.907,6,27.973,27.973,0,0,1,1.02,7.816,25.67,25.67,0,0,1-1.322,8.57,19.78,19.78,0,0,1-3.549,6.343,15.441,15.441,0,0,1-5.059,3.965,13.382,13.382,0,0,1-5.852,1.359,11.306,11.306,0,0,1-4.683-1.019,14.97,14.97,0,0,1-4.228-2.907l.377,5.965v10.95Zm17.066-22.05a6.063,6.063,0,0,0,4.908-2.606q2.039-2.6,2.039-8.42,0-10.117-6.494-10.118-3.247,0-6.419,3.4v15.329a9.034,9.034,0,0,0,3.021,1.888A8.866,8.866,0,0,0,635.076,2081.342Z"/><path class="a" d="M678.042,2090.4a20.872,20.872,0,0,1-7.476-1.321,17.2,17.2,0,0,1-6.041-3.852,17.587,17.587,0,0,1-4-6.154,22.424,22.424,0,0,1-1.435-8.306,21.294,21.294,0,0,1,1.511-8.194,19.392,19.392,0,0,1,3.964-6.191,17.224,17.224,0,0,1,5.626-3.89,16.531,16.531,0,0,1,6.57-1.358,16.734,16.734,0,0,1,6.985,1.358,13.814,13.814,0,0,1,4.984,3.776,16.02,16.02,0,0,1,2.982,5.7,24.833,24.833,0,0,1,.982,7.135,26.177,26.177,0,0,1-.151,2.87q-.153,1.359-.3,2.039H669.812a9.169,9.169,0,0,0,3.36,6,10.44,10.44,0,0,0,6.381,1.924,15.422,15.422,0,0,0,8.08-2.491l3.7,6.721a24.608,24.608,0,0,1-6.381,3.1A22.459,22.459,0,0,1,678.042,2090.4Zm-8.306-23.711h13.517a8.5,8.5,0,0,0-1.435-5.134q-1.435-1.964-4.833-1.964a6.868,6.868,0,0,0-4.644,1.737A8.722,8.722,0,0,0,669.736,2066.692Z"/><path class="a" d="M711.418,2090.4a21.876,21.876,0,0,1-7.588-1.434,23.348,23.348,0,0,1-6.759-3.777l4.984-6.947a22.43,22.43,0,0,0,4.908,2.945,12.17,12.17,0,0,0,4.758.982,6.207,6.207,0,0,0,3.624-.83,2.731,2.731,0,0,0,1.133-2.341,2.375,2.375,0,0,0-.642-1.624,6.563,6.563,0,0,0-1.737-1.321,17.2,17.2,0,0,0-2.454-1.095q-1.359-.49-2.794-1.095a35.271,35.271,0,0,1-3.474-1.586,14.662,14.662,0,0,1-3.171-2.227,10.907,10.907,0,0,1-2.341-3.1,8.925,8.925,0,0,1-.906-4.115,11.128,11.128,0,0,1,1.02-4.757,10.157,10.157,0,0,1,2.907-3.7,14.322,14.322,0,0,1,4.531-2.379,18.825,18.825,0,0,1,5.89-.868,18.138,18.138,0,0,1,7.551,1.471,30.34,30.34,0,0,1,5.663,3.286l-4.983,6.645a19.694,19.694,0,0,0-4-2.341,10.024,10.024,0,0,0-3.927-.831q-4.228,0-4.228,2.946a2.173,2.173,0,0,0,.6,1.547,5.963,5.963,0,0,0,1.623,1.171,20.647,20.647,0,0,0,2.341,1.019q1.321.492,2.757,1.019,1.812.679,3.587,1.548a14.925,14.925,0,0,1,3.247,2.153,9.525,9.525,0,0,1,3.284,7.551,11.511,11.511,0,0,1-.981,4.757,10.47,10.47,0,0,1-2.946,3.814,14.682,14.682,0,0,1-4.832,2.567A21.292,21.292,0,0,1,711.418,2090.4Z"/><path class="a" d="M748.269,2090.4a14.936,14.936,0,0,1-5.928-1.057,10.363,10.363,0,0,1-4-2.945,11.961,11.961,0,0,1-2.265-4.569,22.87,22.87,0,0,1-.718-5.928v-15.177h-5.134V2052.5l5.739-.452,1.284-9.968h9.212v9.968h8.986v8.684h-8.986v15.027q0,3.171,1.321,4.568a4.6,4.6,0,0,0,3.512,1.4,7.86,7.86,0,0,0,1.85-.227,12.156,12.156,0,0,0,1.7-.528l1.737,8.08q-1.512.453-3.549.906A22.12,22.12,0,0,1,748.269,2090.4Z"/><path class="a" d="M518.641,1865.526h6.5v-8.615l2.187-2.183,2.184,2.183v8.615h6.5l2.239,8.613h-8.982v-4.064a1.941,1.941,0,0,0-3.882,0v4.064H516.4ZM505.58,1876.16l6.491,2.611a12.411,12.411,0,0,0,9.282.007l.02-.007a17.306,17.306,0,0,1,12.976,0,12.4,12.4,0,0,0,9.3,0l6.493-2.611v-23.694H505.58Z"/><path class="a" d="M538.784,1907.39h-4.611V1903a1.388,1.388,0,0,0-.565-1.125,1.99,1.99,0,0,0-3.319,1.454v4.063h-4.856V1903a1.4,1.4,0,0,0-.562-1.125,1.993,1.993,0,0,0-3.323,1.454v4.063h-4.609v-14.322l2.182-2.186,2.186,2.186v5.706h4.367v-8.614l2.187-2.183,2.184,2.183v8.614h4.373v-5.706l2.18-2.186,2.186,2.186Zm11.353-26.169-6.492,2.61a12.4,12.4,0,0,1-9.3,0,17.315,17.315,0,0,0-12.976,0l-.02.008a12.416,12.416,0,0,1-9.282-.008l-6.491-2.61v13.045s-.386,13.842,22.279,24.153c22.664-10.311,22.278-24.153,22.278-24.153Z"/><path class="a" d="M542.716,1837.985l-5.128-5.126-5.239,5.241h-.05v-11.272c6.568.817,11.476,3.386,13.81,6.206a5.335,5.335,0,0,0-3.393,4.951m-3.259,7.059h-3.728v-3.723h3.728Zm-11.6.642a2.5,2.5,0,1,1,2.5-2.5,2.5,2.5,0,0,1-2.5,2.5m-4.441-7.586h-.049l-5.24-5.241L513,1837.987a5.339,5.339,0,0,0-3.325-4.929c2.316-2.816,7.2-5.39,13.743-6.22Zm-3.429,6.944h-3.727v-3.723h3.727Zm9.6-21.826-1.448-4.635,2.96-.925-.8-2.577-2.96.925-1.121-3.587-2.577.805,1.121,3.587-2.96.925.8,2.577,2.96-.925,1.191,3.81c-10.051.291-18.485,4.39-21.173,9.887v8.236h3.728v3.723H505.58v3.225h44.558v-3.225h-3.725v-3.723h3.725v-8.264c-2.64-5.4-10.748-9.421-20.551-9.839"/><path class="a" d="M593.138,1887.957l10.146-4.234a2.661,2.661,0,0,1,3.686,2.455v.36a3.078,3.078,0,0,1-3.555,3.039Zm10.759,5.591a7.011,7.011,0,0,0,7.006-7.01v-.36a6.594,6.594,0,0,0-9.133-6.086l-11.2,4.675c-1.015-1.7-2.374-6.391-2.874-8.185a11.727,11.727,0,0,0,2.233-1.136l2.093,2.413a3.983,3.983,0,0,0,6.208-.237l-5.843-4.335a11.727,11.727,0,0,0,1.369-1.951l7.464,1.925a4.776,4.776,0,0,0,6.317-3.948L595,1867.932a11.743,11.743,0,0,0,.226-2.282c0-.065-.005-.129-.006-.194l9.237-1.9a5.918,5.918,0,0,0,3.844-8.393l-13.818,6.39a11.628,11.628,0,0,0-1.085-2.183l8.368-8.6a7.218,7.218,0,0,0-.905-11.221l-15.12,22.582h0a4.177,4.177,0,0,1,.391.283c.045.036.086.076.128.114.077.067.153.135.224.208.051.051.1.1.146.159s.112.129.164.2.1.13.146.2.08.121.119.183c.048.079.1.157.138.239.028.051.051.1.076.156.046.1.092.192.13.292.008.02.013.042.021.062a4.124,4.124,0,0,1,.212.832c0,.027.009.053.012.079h0a4.228,4.228,0,0,1,.036.519c0,.126-.008.249-.019.372a4.148,4.148,0,0,1-.087.552h0c-.015.063-.032.126-.049.189a4.115,4.115,0,0,1-.414.981c-.011.019-.022.038-.034.056a4.138,4.138,0,0,1-.713.883c-.021.021-.043.04-.065.059a4.1,4.1,0,0,1-.431.345l-.006,0a4.074,4.074,0,0,1-.479.28l-.052.025-.053.025a4.121,4.121,0,0,1-.5.2l-.015.005h0a4.116,4.116,0,0,1-.542.126q-.067.012-.135.021a4.165,4.165,0,0,1-.573.044,4.215,4.215,0,0,1-.437-.023c-.019,0-.037-.007-.057-.009-.125-.015-.25-.033-.372-.059l-.019-.005a4.2,4.2,0,0,1-.94-.329c-.043-.021-.087-.041-.13-.063h0a4.25,4.25,0,0,1-.4-.243c-.1-.067-.2-.14-.286-.214l-.022-.018a3.547,3.547,0,0,1-.43-.418c-.046-.052-.093-.1-.137-.154l-.014-.02a4.144,4.144,0,0,1-.925-2.615,4.3,4.3,0,0,1,.038-.535v-.015c0-.019.01-.042.013-.062a4.113,4.113,0,0,1,.205-.811,23.123,23.123,0,0,1,2.688-4.975c.519-.685,1.165-1.578,1.828-2.592l.006-.009h0c2.46-3.768,5.148-9.223,2.471-12.117l4.348-4.987-15.85,1.5c-2.871.386-5.167,3.245-6.054,6.044h7.14a6.234,6.234,0,0,1,4.357,1.775l.865.847H570.921l1.119.816a10.426,10.426,0,0,0,6.141,2h3.654c-3.609,2.114-11.009,4.672-14.041,9.681l-10.566-.9,1.576-5.481-4.968-3.06v10.948l12.418,6.077,9.333-1.217-18.086,11,1.3-4.873-4.968-3.06v11.861l2.594-.707c9.78-2.456,16.324-1.465,20.7,1.064l-12.707,12.05L571.624,1912l-7.167-1.426-1.686,5.437h15.495s-8.68-9.27,2.3-13.6c0,0-7.317-.667-9.714-5.994l9.714-.333s1-6.635-.9-10.389c6.9,6.14,6.2,16.661,6.2,16.661,15.72-1.642,17.794,6.824,18.232,9.751l-7.728-1.538-1.687,5.437h15.154l-5.976-18.388c-6.692.21-9.1-2.739-9.788-5.536l8.732,1.377a6.977,6.977,0,0,0,1.095.086"/><path class="a" d="M489.9,1869.8l11.911-5.729v-11.3l-4.968,3.06,1.524,5.3-11.4,1.431a24.247,24.247,0,0,0-8.338-9.765l7.846-.083.893-3.005h-6.49l.995-2.623h5.784l1.047-4.412c-.239.016-1.039.037-1.282.037a11.286,11.286,0,0,1-8-3.315H467.891l2.576,3.033-5.123,8.131h3.827l-3.246,7.686h3.753l-1.208,8.913,3.8.467-6.391,14.121a4.83,4.83,0,0,1-.244.538l-.005.013h0a5,5,0,0,1-4.393,2.642l-.037.01c-.138,0-.273-.018-.408-.03-.037,0-.074,0-.111-.007-.11-.013-.218-.031-.327-.05-.089-.016-.177-.033-.265-.053s-.172-.041-.257-.066c-.117-.034-.23-.073-.343-.114-.059-.022-.12-.041-.178-.065a5.141,5.141,0,0,1-.507-.243c-.021-.011-.04-.025-.061-.037a5.051,5.051,0,0,1-.432-.277l-.1-.071q-.209-.157-.4-.334l-.037-.035a4.987,4.987,0,0,1-1.48-2.707c-.009-.044-.013-.088-.021-.133-.021-.133-.038-.267-.049-.4-.007-.089-.011-.178-.013-.267,0-.041-.007-.081-.007-.123s.007-.1.008-.147c0-.108.006-.216.016-.324.006-.066.017-.132.026-.2a5.062,5.062,0,0,1,.329-1.238c.008-.02.016-.041.025-.062.031-.074.055-.151.09-.224l4.619-9.661a6.1,6.1,0,0,0-5.5-8.727H444.569a5.418,5.418,0,0,0,9.149,3.934h.077a2.546,2.546,0,0,1,4.18,1.967.285.285,0,0,1,0,.029,2.142,2.142,0,0,1-.2,1.1l-4.619,9.661a8.97,8.97,0,0,0,8.052,12.84c.389,2.9-1.034,8.381-8.9,8.739l-5.983,18.387h15.3l-1.687-5.438-7.863,1.566c.567-2.9,3.575-11.422,19.337-9.779,0,0-1.288-10.518,5.141-16.658-1.731,3.726-.364,10.272-.364,10.272l9.117.45c-2.392,5.326-9.712,5.992-9.712,5.992,10.978,4.325,2.3,13.6,2.3,13.6h15.645l-1.687-5.438-7.267,1.447,7.455-16.124L479,1883.83c4.147-2.5,10.494-3.469,20.174-1.04l2.636.718v-11.862l-4.968,3.061,1.292,4.831-22.57-11.505Z"/><ellipse class="a" cx="47.186" cy="15.832" rx="47.186" ry="15.832" transform="translate(201.522 1874.259) rotate(-45)"/><ellipse class="a" cx="47.186" cy="15.832" rx="47.186" ry="15.832" transform="translate(273.161 1882.456)"/><ellipse class="a" cx="15.832" cy="47.186" rx="15.832" ry="47.186" transform="translate(296.296 1961.283) rotate(-45)"/><ellipse class="a" cx="15.832" cy="47.186" rx="15.832" ry="47.186" transform="translate(277.961 2011.396)"/><ellipse class="a" cx="47.186" cy="15.832" rx="47.186" ry="15.832" transform="translate(163.958 2100.506) rotate(-45)"/><ellipse class="a" cx="47.186" cy="15.832" rx="47.186" ry="15.832" transform="translate(86.456 2015.315)"/><ellipse class="a" cx="15.832" cy="47.186" rx="15.832" ry="47.186" transform="translate(69.94 1923.629) rotate(-45)"/><ellipse class="a" cx="15.832" cy="47.186" rx="15.832" ry="47.186" transform="translate(144.508 1824.781)"/><ellipse class="a" cx="7.82" cy="23.306" rx="7.82" ry="23.306" transform="translate(189.167 1902.364) rotate(-51.54)"/><ellipse class="a" cx="23.306" cy="7.82" rx="23.306" ry="7.82" transform="translate(154.393 1932.471) rotate(-6.54)"/><ellipse class="a" cx="23.306" cy="7.82" rx="23.306" ry="7.82" transform="translate(152.546 1993.917) rotate(-51.54)"/><ellipse class="a" cx="7.82" cy="23.306" rx="7.82" ry="23.306" transform="translate(190.062 1992.485) rotate(-6.54)"/><ellipse class="a" cx="7.82" cy="23.306" rx="7.82" ry="23.306" transform="translate(220.328 2011.272) rotate(-51.54)"/><ellipse class="a" cx="23.306" cy="7.82" rx="23.306" ry="7.82" transform="translate(253.484 1987.162) rotate(-6.54)"/><ellipse class="a" cx="23.306" cy="7.82" rx="23.306" ry="7.82" transform="translate(261.502 1962.705) rotate(-51.54)"/><ellipse class="a" cx="7.82" cy="23.306" rx="7.82" ry="23.306" transform="translate(245.05 1893.404) rotate(-6.54)"/></g></svg>