<svg width="402" height="80"
	xmlns="http://www.w3.org/2000/svg" xml:space="preserve" version="1.0">

	<g>
		<title>Layer 1</title>
		<path id="svg_1" fill="#12326e" d="m47,49.2l4.9,2c2.3,0.9 4.8,0.9 7,0c3.2,-1.3 6.7,-1.3 9.8,0c2.3,0.9 4.8,0.9 7,0l4.9,-2l0,-17.9l-33.6,0l0,17.9zm9.9,-8.1l4.9,0l0,-6.5l1.7,-1.7l1.7,1.7l0,6.5l4.9,0l1.7,6.5l-6.8,0l0,-3.1c0,-0.8 -0.7,-1.5 -1.5,-1.5s-1.5,0.7 -1.5,1.5l0,3.1l-6.8,0l1.7,-6.5zm23.8,11.9l-4.9,2c-2.3,0.9 -4.8,0.9 -7,0c-3.2,-1.3 -6.7,-1.3 -9.8,0c-2.3,0.9 -4.8,0.9 -7,0l-4.9,-2l0,9.9s-0.3,10.5 16.9,18.3c17.2,-7.8 16.9,-18.3 16.9,-18.3l0,-9.9l-0.2,0zm-8.6,19.8l-3.5,0l0,-3.3c0,-0.3 -0.2,-0.7 -0.4,-0.9c-1.2,-0.9 -2.5,0 -2.5,1.1l0,3.1l-3.7,0l0,-3.3c0,-0.3 -0.2,-0.7 -0.4,-0.9c-1.2,-0.9 -2.5,0 -2.5,1.1l0,3.1l-3.5,0l0,-10.8l1.7,-1.7l1.7,1.7l0,4.3l3.3,0l0,-6.5l1.7,-1.7l1.7,1.7l0,6.5l3.3,0l0,-4.3l1.6,-1.7l1.7,1.7l0,10.8l-0.2,0zm-6.9,-63.7l-1.1,-3.5l2.2,-0.7l-0.6,-1.9l-2.2,0.7l-0.8,-2.7l-1.9,0.6l0.8,2.7l-2.2,0.7l0.6,1.9l2.2,-0.7l0.9,2.9c-7.6,0.2 -14,3.3 -16,7.5l0,6.2l2.8,0l0,2.8l-2.9,0l0,2.4l33.7,0l0,-2.4l-2.8,0l0,-2.8l2.8,0l0,-6.2c-2,-4.1 -8.1,-7.2 -15.5,-7.5zm-7.3,16.5l-2.8,0l0,-2.8l2.8,0l0,2.8zm2.6,-5.2l-4,-4l-3.9,3.9c0,-1.7 -1,-3.1 -2.5,-3.7c1.8,-2.1 5.4,-4.1 10.4,-4.7l0,8.5zm3.3,5.7c-1,0 -1.9,-0.8 -1.9,-1.9c0,-1 0.8,-1.9 1.9,-1.9c1,0 1.9,0.8 1.9,1.9c0,1.1 -0.8,1.9 -1.9,1.9zm8.8,-0.5l-2.8,0l0,-2.8l2.8,0l0,2.8zm2.5,-5.3l-3.9,-3.9l-4,4l0,-8.5c5,0.6 8.7,2.6 10.4,4.7c-1.4,0.5 -2.5,2 -2.5,3.7zm46.3,42c1.3,0 2.5,-0.4 3.4,-1.3c1.2,-1 1.9,-2.5 1.9,-4l0,-0.3c0,-1.7 -0.8,-3.2 -2.2,-4.2c-1.4,-0.9 -3.1,-1.1 -4.7,-0.5l-8.5,3.5c-0.8,-1.3 -1.8,-4.8 -2.2,-6.2c0.6,-0.2 1.2,-0.5 1.7,-0.9l1.6,1.8c1.3,1.5 3.5,1.4 4.7,-0.2l-4.4,-3.3c0.4,-0.5 0.7,-0.9 1,-1.5l5.6,1.5c2.2,0.8 4.5,-0.7 4.8,-3l-9.5,-1c0.1,-0.6 0.2,-1.1 0.2,-1.7l0,-0.1l7,-1.4c2.8,-0.7 4.2,-3.8 2.9,-6.4l-10.5,4.8c-0.2,-0.6 -0.5,-1.1 -0.8,-1.7l6.3,-6.5c2.5,-2.4 2.2,-6.5 -0.7,-8.5l-11.4,17.1c0.1,0.1 0.2,0.1 0.3,0.2l0.1,0.1l0.2,0.2l0.1,0.1l0.1,0.1l0.1,0.1l0.1,0.1c0,0.1 0.1,0.1 0.1,0.2c0,0 0,0.1 0.1,0.1c0,0.1 0.1,0.1 0.1,0.2c0.1,0.2 0.1,0.4 0.2,0.6l0,0.5c0,0.2 0,0.4 -0.1,0.5l0,0.1c0,0.2 -0.1,0.3 -0.1,0.5c0,0.1 0,0.1 -0.1,0.2s-0.1,0.3 -0.2,0.4c0,0.1 -0.1,0.1 -0.1,0.2c-0.1,0.1 -0.1,0.2 -0.2,0.3c0,0.1 -0.1,0.1 -0.1,0.2c-0.1,0.1 -0.3,0.2 -0.4,0.3l-0.1,0c-0.1,0.1 -0.3,0.2 -0.4,0.2c-0.1,0 -0.1,0 -0.2,0.1c-0.1,0 -0.3,0.1 -0.4,0.1l-0.2,0c-0.2,0 -0.4,0.1 -0.6,0.1l-0.6,0c-0.2,-0.1 -0.5,-0.1 -0.7,-0.2l-0.1,0c-0.1,-0.1 -0.2,-0.1 -0.3,-0.2l-0.2,-0.2l-0.3,-0.3l-0.1,-0.1c-0.4,-0.5 -0.7,-1.2 -0.7,-2l0,-0.4c0,-0.2 0.1,-0.4 0.2,-0.6c0.4,-1.1 1.2,-2.6 2,-3.8c0.4,-0.5 0.9,-1.2 1.4,-2c1.9,-2.9 3.9,-7 1.9,-9.2l3.3,-3.8l-12,1.1c-2.2,0.3 -3.9,2.5 -4.6,4.6l5.4,0c1.2,0 2.4,0.5 3.3,1.3l0.7,0.6l-7.9,0l0.8,0.6c1.3,1 3,1.5 4.6,1.5l2.8,0c-2.7,1.6 -8.3,3.5 -10.6,7.3l-8,-0.7l1.2,-4.1l-3.8,-2.3l0,8.3l9.4,4.6l7.1,-0.9l-13.7,8.3l1,-3.7l-3.8,-2.3l0,9l2,-0.5c7.4,-1.9 12.4,-1.1 15.7,0.8l-9.6,9.1l5.5,12.2l-5.4,-1.1l-1.3,4.1l11.5,0s-6.6,-7 1.7,-10.3c0,0 -5.5,-0.5 -7.4,-4.5l7.4,-0.3s0.8,-5 -0.7,-7.9c5.2,4.6 4.7,12.6 4.7,12.6c11.9,-1.2 13.5,5.2 13.8,7.4l-5.8,-1.2l-1.3,4.1l11.5,0l-4.5,-13.9c-5.1,0.2 -6.9,-2.1 -7.4,-4.2l6.6,1c0.2,0.5 0.5,0.5 0.8,0.5zm-8.2,-4.2l7.7,-3.2c0.6,-0.3 1.3,-0.2 1.9,0.2c0.6,0.4 0.9,1 0.9,1.7l0,0.3c0,0.7 -0.3,1.3 -0.8,1.8c-0.5,0.4 -1.2,0.6 -1.9,0.5l-7.8,-1.3zm-78.1,-13.7l9,-4.3l0,-8.6l-3.8,2.3l1.2,4l-8.6,1.1c-2.4,-5.1 -6.3,-7.4 -6.3,-7.4l5.9,-0.1l0.7,-2.3l-4.9,0l0.8,-2l4.4,0l0.8,-3.3l-1,0c-2.4,0 -4.5,-1 -6.1,-2.5l-8.7,0l1.9,2.3l-3.9,6.2l2.9,0l-2.5,5.8l2.8,0l-0.9,6.7l2.9,0.4l-4.8,10.7c-0.1,0.1 -0.1,0.3 -0.2,0.4c-0.6,1.2 -1.9,2 -3.3,2l-0.8,0c-0.1,0 -0.1,0 -0.2,-0.1c-0.1,0 -0.2,-0.1 -0.3,-0.1l-0.1,0c-0.1,-0.1 -0.3,-0.1 -0.4,-0.2c-0.1,-0.1 -0.2,-0.1 -0.3,-0.2l-0.1,-0.1l-0.3,-0.3c-0.6,-0.5 -1,-1.2 -1.1,-2l0,-1.1c0,-0.3 0.1,-0.6 0.2,-0.9c0,-0.1 0,-0.1 0.1,-0.2l3.5,-7.3c0.7,-1.4 0.6,-3.1 -0.3,-4.5c-0.8,-1.3 -2.3,-2.2 -3.9,-2.2l-8.6,0c0,2.3 1.8,4.1 4.1,4.1c1.1,0 2.1,-0.4 2.8,-1.1l0.1,0c0.3,-0.3 0.8,-0.4 1.2,-0.4c1.1,0 1.9,0.9 1.9,1.9c0,0.3 0,0.6 -0.2,0.8l-3.5,7.3c-1,2.1 -0.9,4.6 0.4,6.5c1.2,2 3.4,3.2 5.7,3.2c0.3,2.2 -0.8,6.3 -6.7,6.6l-4.5,13.9l11.6,0l-1.3,-4.1l-5.9,1.2c0.4,-2.2 2.7,-8.6 14.6,-7.4c0,0 -1,-8 3.9,-12.6c-1.3,2.8 -0.3,7.8 -0.3,7.8l6.9,0.3c-1.8,4 -7.3,4.5 -7.3,4.5c8.3,3.3 1.7,10.3 1.7,10.3l11.8,0l-1.3,-4.1l-5.5,1.1l5.6,-12.2l-9.9,-9.1c3.1,-1.9 7.9,-2.6 15.3,-0.8l2,0.5l0,-9l-3.8,2.3l1,3.7l-16.9,-8.8l10.8,1.4z" class="st0"/>
		<g id="svg_2">
			<path id="svg_3" fill="#12326e" d="m150.7,69.9l0,-32.9l11.8,0c1.7,0 3.3,0.1 4.9,0.4c1.5,0.3 2.8,0.7 3.9,1.3s2,1.4 2.7,2.5c0.7,1.1 1,2.4 1,4c0,0.7 -0.1,1.4 -0.3,2.2s-0.5,1.4 -0.8,2.1s-0.8,1.2 -1.3,1.7s-1.1,0.9 -1.7,1.1l0,0.2c1.6,0.5 2.9,1.3 4,2.6c1.1,1.2 1.6,2.9 1.6,5.1c0,1.7 -0.3,3.1 -1,4.4c-0.7,1.2 -1.6,2.2 -2.8,3c-1.2,0.8 -2.5,1.4 -4.1,1.7c-1.6,0.4 -3.3,0.6 -5,0.6l-12.9,0zm8.7,-20.1l2.9,0c1.4,0 2.5,-0.3 3.1,-0.9c0.7,-0.6 1,-1.4 1,-2.4s-0.3,-1.7 -1,-2.2c-0.7,-0.4 -1.7,-0.7 -3.1,-0.7l-2.9,0l0,6.2zm0,13.4l3.5,0c3.4,0 5.1,-1.2 5.1,-3.6c0,-1.2 -0.4,-2.1 -1.2,-2.6c-0.8,-0.5 -2.1,-0.8 -3.8,-0.8l-3.5,0l0,7l-0.1,0zm37.8,7.3c-4.6,0 -8.1,-1.3 -10.3,-4c-2.2,-2.7 -3.4,-6.8 -3.4,-12.5l0,-17l8.7,0l0,18c0,2.9 0.4,5 1.2,6.2c0.8,1.2 2.1,1.8 3.8,1.8c1.7,0 3,-0.6 3.8,-1.8c0.8,-1.2 1.2,-3.3 1.2,-6.2l0,-18l8.4,0l0,17c0,5.6 -1.1,9.8 -3.3,12.5c-2.1,2.6 -5.5,4 -10.1,4zm22,-0.6l0,-32.9l9.7,0c2.5,0 4.8,0.3 6.9,0.9c2.1,0.6 3.9,1.6 5.3,2.9s2.6,3 3.5,5.1c0.8,2.1 1.2,4.5 1.2,7.4s-0.4,5.4 -1.2,7.5c-0.8,2.1 -1.9,3.8 -3.4,5.2c-1.5,1.4 -3.2,2.3 -5.2,3c-2,0.6 -4.2,1 -6.6,1l-10.2,0l0,-0.1zm8.8,-7l0.5,0c1.2,0 2.3,-0.1 3.3,-0.4c1,-0.3 1.9,-0.8 2.7,-1.5c0.8,-0.7 1.4,-1.7 1.8,-2.9c0.4,-1.2 0.7,-2.8 0.7,-4.8c0,-1.9 -0.2,-3.5 -0.7,-4.7c-0.4,-1.2 -1,-2.2 -1.8,-2.8c-0.8,-0.7 -1.7,-1.1 -2.7,-1.4c-1,-0.3 -2.2,-0.4 -3.3,-0.4l-0.5,0l0,18.9zm21.1,7l10,-32.9l10.5,0l10,32.9l-9.2,0l-1.6,-7l-9.2,0l-1.6,7l-8.9,0zm12.7,-16l-0.6,2.3l6.1,0l-0.6,-2.3c-0.4,-1.6 -0.8,-3.3 -1.2,-5.2c-0.4,-1.9 -0.8,-3.6 -1.2,-5.3l-0.2,0c-0.4,1.7 -0.8,3.5 -1.1,5.3c-0.4,1.9 -0.8,3.6 -1.2,5.2zm23.6,16l0,-32.9l12,0c1.8,0 3.5,0.2 5.1,0.5s3,1 4.3,1.8c1.2,0.9 2.2,2 2.9,3.4c0.7,1.4 1.1,3.1 1.1,5.2c0,2 -0.4,3.8 -1.1,5.2c-0.7,1.5 -1.7,2.6 -2.9,3.6c-1.2,0.9 -2.6,1.6 -4.2,2.1s-3.2,0.7 -5,0.7l-3.5,0l0,10.4l-8.7,0zm8.7,-17.3l3.1,0c1.7,0 3,-0.4 3.8,-1.2c0.8,-0.8 1.2,-2 1.2,-3.4s-0.5,-2.5 -1.4,-3.1c-0.9,-0.6 -2.2,-0.9 -3.9,-0.9l-2.9,0l0,8.6l0.1,0zm23.6,17.3l0,-32.9l21.3,0l0,7.3l-12.6,0l0,5.2l10.7,0l0,7.3l-10.7,0l0,5.9l13.1,0l0,7.3l-21.8,0l0,-0.1zm40.1,0.6c-2.1,0 -4.2,-0.4 -6.5,-1.1c-2.2,-0.8 -4.2,-1.9 -6,-3.6l5,-6c1.2,0.9 2.5,1.7 3.8,2.3c1.4,0.6 2.7,0.9 3.9,0.9c1.3,0 2.3,-0.2 2.9,-0.6c0.6,-0.4 0.9,-1 0.9,-1.7c0,-0.4 -0.1,-0.7 -0.3,-1c-0.2,-0.3 -0.5,-0.5 -0.9,-0.8c-0.4,-0.2 -0.9,-0.5 -1.4,-0.7s-1.2,-0.5 -1.9,-0.7l-4.1,-1.7c-0.9,-0.3 -1.7,-0.8 -2.5,-1.3c-0.8,-0.6 -1.5,-1.2 -2.1,-2c-0.6,-0.8 -1.1,-1.6 -1.4,-2.6c-0.4,-1 -0.5,-2.1 -0.5,-3.2c0,-1.4 0.3,-2.7 0.9,-4c0.6,-1.2 1.5,-2.3 2.5,-3.2c1.1,-0.9 2.4,-1.7 3.9,-2.2c1.5,-0.5 3.1,-0.8 4.9,-0.8c1.9,0 3.8,0.4 5.7,1.1c1.9,0.7 3.7,1.8 5.2,3.3l-4.4,5.5c-1.1,-0.8 -2.2,-1.4 -3.2,-1.8c-1,-0.4 -2.2,-0.6 -3.4,-0.6c-1.1,0 -1.9,0.2 -2.5,0.6c-0.6,0.4 -0.9,0.9 -0.9,1.7c0,0.8 0.4,1.4 1.3,1.8c0.9,0.4 2,0.9 3.6,1.5l4,1.6c2.1,0.8 3.6,1.9 4.8,3.4c1.1,1.5 1.7,3.3 1.7,5.6c0,1.4 -0.3,2.7 -0.9,4c-0.6,1.3 -1.4,2.4 -2.5,3.4s-2.4,1.7 -4,2.3c-1.7,0.3 -3.6,0.6 -5.6,0.6zm25.9,-0.6l0,-25.6l-8.7,0l0,-7.3l26.1,0l0,7.3l-8.7,0l0,25.6l-8.7,0z" class="st0"/>
		</g>
	</g>
</svg>
