<svg width="24" height="25" viewBox="0 0 24 25" fill="none" xmlns="http://www.w3.org/2000/svg">
<path d="M11.9999 8.40572C14.1097 8.40572 15.8199 6.63596 15.8199 4.45286C15.8199 2.26976 14.1097 0.5 11.9999 0.5C9.8902 0.5 8.17993 2.26976 8.17993 4.45286C8.17993 6.63596 9.8902 8.40572 11.9999 8.40572Z" fill="#FFF"/>
<path d="M3.82 14.5522C5.92973 14.5522 7.64 12.7824 7.64 10.5993C7.64 8.41624 5.92973 6.64648 3.82 6.64648C1.71027 6.64648 0 8.41624 0 10.5993C0 12.7824 1.71027 14.5522 3.82 14.5522Z" fill="#FFF"/>
<path d="M6.94659 24.5C9.05631 24.5 10.7666 22.7302 10.7666 20.5471C10.7666 18.364 9.05631 16.5942 6.94659 16.5942C4.83686 16.5942 3.12659 18.364 3.12659 20.5471C3.12659 22.7302 4.83686 24.5 6.94659 24.5Z" fill="#FFF"/>
<path d="M17.0534 24.5C19.1631 24.5 20.8734 22.7302 20.8734 20.5471C20.8734 18.364 19.1631 16.5942 17.0534 16.5942C14.9437 16.5942 13.2334 18.364 13.2334 20.5471C13.2334 22.7302 14.9437 24.5 17.0534 24.5Z" fill="#FFF"/>
<path d="M20.1801 14.5522C22.2898 14.5522 24.0001 12.7824 24.0001 10.5993C24.0001 8.41624 22.2898 6.64648 20.1801 6.64648C18.0704 6.64648 16.3601 8.41624 16.3601 10.5993C16.3601 12.7824 18.0704 14.5522 20.1801 14.5522Z" fill="#FFF"/>
<path d="M12 15.3318C13.0567 15.3318 13.9133 14.4454 13.9133 13.3519C13.9133 12.2585 13.0567 11.3721 12 11.3721C10.9433 11.3721 10.0867 12.2585 10.0867 13.3519C10.0867 14.4454 10.9433 15.3318 12 15.3318Z" fill="#FFF"/>
</svg>
