<svg width="24" height="25" viewBox="0 0 24 25" fill="none" xmlns="http://www.w3.org/2000/svg">
<path d="M12 17.7024C14.2017 17.7024 15.9866 15.8415 15.9866 13.546C15.9866 11.2505 14.2017 9.38965 12 9.38965C9.7982 9.38965 8.01331 11.2505 8.01331 13.546C8.01331 15.8415 9.7982 17.7024 12 17.7024Z" fill="#23A8CC"/>
<path d="M11.9999 4.65639C13.1008 4.65639 13.9933 3.72595 13.9933 2.57819C13.9933 1.43044 13.1008 0.5 11.9999 0.5C10.899 0.5 10.0066 1.43044 10.0066 2.57819C10.0066 3.72595 10.899 4.65639 11.9999 4.65639Z" fill="#23A8CC"/>
<path d="M1.99333 12.2323C3.09422 12.2323 3.98667 11.3019 3.98667 10.1541C3.98667 9.00637 3.09422 8.07593 1.99333 8.07593C0.892446 8.07593 0 9.00637 0 10.1541C0 11.3019 0.892446 12.2323 1.99333 12.2323Z" fill="#23A8CC"/>
<path d="M5.8134 24.5001C6.91429 24.5001 7.80674 23.5697 7.80674 22.4219C7.80674 21.2742 6.91429 20.3438 5.8134 20.3438C4.71251 20.3438 3.82007 21.2742 3.82007 22.4219C3.82007 23.5697 4.71251 24.5001 5.8134 24.5001Z" fill="#23A8CC"/>
<path d="M18.1867 24.5001C19.2876 24.5001 20.18 23.5697 20.18 22.4219C20.18 21.2742 19.2876 20.3438 18.1867 20.3438C17.0858 20.3438 16.1934 21.2742 16.1934 22.4219C16.1934 23.5697 17.0858 24.5001 18.1867 24.5001Z" fill="#23A8CC"/>
<path d="M22.0066 12.2323C23.1075 12.2323 24 11.3019 24 10.1541C24 9.00637 23.1075 8.07593 22.0066 8.07593C20.9057 8.07593 20.0133 9.00637 20.0133 10.1541C20.0133 11.3019 20.9057 12.2323 22.0066 12.2323Z" fill="#23A8CC"/>
</svg>
