<svg width="24" height="24" viewBox="0 0 24 24" fill="none" xmlns="http://www.w3.org/2000/svg">
<g clip-path="url(#clip0_12_1754)">
<path d="M14.2282 4.23458C15.6278 2.83504 16.3817 1.31982 15.9121 0.850239C15.4425 0.380661 13.9273 1.13454 12.5277 2.53408C11.1282 3.93362 10.3743 5.44884 10.8439 5.91842C11.3135 6.388 12.8287 5.63412 14.2282 4.23458Z" fill="#21A7CC"/>
<path d="M19.0183 8.0956C20.9976 8.0956 22.6021 7.55725 22.6021 6.89317C22.6021 6.22908 20.9976 5.69073 19.0183 5.69073C17.0391 5.69073 15.4346 6.22908 15.4346 6.89317C15.4346 7.55725 17.0391 8.0956 19.0183 8.0956Z" fill="#21A7CC"/>
<path d="M23.1101 15.8955C23.5797 15.426 22.8258 13.9108 21.4262 12.5112C20.0267 11.1117 18.5115 10.3578 18.0419 10.8274C17.5723 11.2969 18.3262 12.8122 19.7257 14.2117C21.1253 15.6112 22.6405 16.3651 23.1101 15.8955Z" fill="#21A7CC"/>
<path d="M17.0015 22.6511C17.6656 22.6511 18.2039 21.0466 18.2039 19.0674C18.2039 17.0881 17.6656 15.4836 17.0015 15.4836C16.3374 15.4836 15.7991 17.0881 15.7991 19.0674C15.7991 21.0466 16.3374 22.6511 17.0015 22.6511Z" fill="#21A7CC"/>
<path d="M11.3752 21.4179C12.7748 20.0184 13.5286 18.5032 13.0591 18.0336C12.5895 17.564 11.0743 18.3179 9.67472 19.7174C8.27518 21.117 7.52129 22.6322 7.99087 23.1018C8.46045 23.5714 9.97567 22.8175 11.3752 21.4179Z" fill="#21A7CC"/>
<path d="M4.83814 18.1862C6.81739 18.1862 8.42189 17.6478 8.42189 16.9837C8.42189 16.3197 6.81739 15.7813 4.83814 15.7813C2.85889 15.7813 1.25439 16.3197 1.25439 16.9837C1.25439 17.6478 2.85889 18.1862 4.83814 18.1862Z" fill="#21A7CC"/>
<path d="M5.91843 13.0357C6.38801 12.5662 5.63413 11.0509 4.23459 9.65141C2.83504 8.25187 1.31982 7.49799 0.850247 7.96756C0.380668 8.43714 1.13455 9.95236 2.53409 11.3519C3.93363 12.7514 5.44885 13.5053 5.91843 13.0357Z" fill="#21A7CC"/>
<path d="M6.86576 8.47786C7.52984 8.47786 8.06819 6.87336 8.06819 4.89411C8.06819 2.91486 7.52984 1.31036 6.86576 1.31036C6.20168 1.31036 5.66333 2.91486 5.66333 4.89411C5.66333 6.87336 6.20168 8.47786 6.86576 8.47786Z" fill="#21A7CC"/>
<path d="M12.1967 8.93955C12.4007 8.6827 11.9455 7.98158 11.18 7.37355C10.4145 6.76553 9.62859 6.48084 9.42458 6.73769C9.22056 6.99454 9.67573 7.69566 10.4412 8.30369C11.2067 8.91172 11.9927 9.1964 12.1967 8.93955Z" fill="#21A7CC"/>
<path d="M8.30791 10.4678C9.27914 10.3565 10.0362 10.002 9.99882 9.67617C9.96146 9.35029 9.14384 9.17637 8.17262 9.28771C7.2014 9.39906 6.44435 9.7535 6.48171 10.0794C6.51907 10.4053 7.33669 10.5792 8.30791 10.4678Z" fill="#21A7CC"/>
<path d="M8.30499 13.5089C8.91302 12.7434 9.1977 11.9575 8.94086 11.7534C8.68401 11.5494 7.98288 12.0046 7.37486 12.7701C6.76683 13.5356 6.48214 14.3215 6.73899 14.5255C6.99584 14.7295 7.69696 14.2744 8.30499 13.5089Z" fill="#21A7CC"/>
<path d="M10.1166 17.4968C10.4424 17.4595 10.6164 16.6419 10.505 15.6706C10.3937 14.6994 10.0392 13.9424 9.71335 13.9797C9.38747 14.0171 9.21355 14.8347 9.3249 15.8059C9.43624 16.7771 9.79068 17.5342 10.1166 17.4968Z" fill="#21A7CC"/>
<path d="M14.5634 17.211C14.7674 16.9542 14.3122 16.2531 13.5467 15.645C12.7812 15.037 11.9953 14.7523 11.7913 15.0092C11.5873 15.266 12.0424 15.9671 12.8079 16.5752C13.5734 17.1832 14.3594 17.4679 14.5634 17.211Z" fill="#21A7CC"/>
<path d="M15.8338 14.6216C16.805 14.5102 17.5621 14.1558 17.5247 13.8299C17.4873 13.504 16.6697 13.3301 15.6985 13.4415C14.7273 13.5528 13.9702 13.9072 14.0076 14.2331C14.0449 14.559 14.8626 14.7329 15.8338 14.6216Z" fill="#21A7CC"/>
<path d="M16.5801 11.1383C17.1882 10.3729 17.4729 9.58691 17.216 9.3829C16.9592 9.17888 16.258 9.63405 15.65 10.3995C15.042 11.165 14.7573 11.951 15.0141 12.155C15.271 12.359 15.9721 11.9038 16.5801 11.1383Z" fill="#21A7CC"/>
<path d="M14.2928 9.97169C14.6187 9.93433 14.7926 9.11671 14.6813 8.14548C14.5699 7.17426 14.2155 6.41721 13.8896 6.45457C13.5637 6.49193 13.3898 7.30955 13.5012 8.28077C13.6125 9.252 13.967 10.009 14.2928 9.97169Z" fill="#21A7CC"/>
</g>
<defs>
<clipPath id="clip0_12_1754">
<rect width="24" height="24" fill="white"/>
</clipPath>
</defs>
</svg>
