<svg width="18" height="18" viewBox="0 0 18 18" fill="none" xmlns="http://www.w3.org/2000/svg">
    <path d="M4.1998 13.1063C4.9873 12.5688 5.76543 12.1562 6.53418 11.8687C7.30293 11.5813 8.1248 11.4375 8.9998 11.4375C9.88731 11.4375 10.7186 11.5844 11.4936 11.8781C12.2686 12.1719 13.0436 12.5813 13.8186 13.1063C14.3561 12.4187 14.7342 11.7469 14.9529 11.0906C15.1717 10.4344 15.2811 9.7375 15.2811 9C15.2811 7.225 14.6779 5.73438 13.4717 4.52812C12.2654 3.32187 10.7748 2.71875 8.9998 2.71875C7.2248 2.71875 5.73418 3.32187 4.52793 4.52812C3.32168 5.73438 2.71855 7.225 2.71855 9C2.71855 9.7375 2.83105 10.4344 3.05605 11.0906C3.28105 11.7469 3.6623 12.4187 4.1998 13.1063ZM8.9998 9.6375C8.2498 9.6375 7.6248 9.38437 7.1248 8.87812C6.6248 8.37187 6.3748 7.75 6.3748 7.0125C6.3748 6.2625 6.62793 5.63438 7.13418 5.12813C7.64043 4.62188 8.2623 4.36875 8.9998 4.36875C9.74981 4.36875 10.3748 4.625 10.8748 5.1375C11.3748 5.65 11.6248 6.275 11.6248 7.0125C11.6248 7.75 11.3717 8.37187 10.8654 8.87812C10.3592 9.38437 9.7373 9.6375 8.9998 9.6375ZM8.9998 16.7625C7.9373 16.7625 6.93418 16.5594 5.99043 16.1531C5.04668 15.7469 4.22168 15.1906 3.51543 14.4844C2.80918 13.7781 2.25293 12.9531 1.84668 12.0094C1.44043 11.0656 1.2373 10.0625 1.2373 9C1.2373 7.9375 1.44043 6.93438 1.84668 5.99063C2.25293 5.04688 2.80918 4.22187 3.51543 3.51562C4.22168 2.80938 5.04668 2.25 5.99043 1.8375C6.93418 1.425 7.9373 1.21875 8.9998 1.21875C10.0623 1.21875 11.0654 1.425 12.0092 1.8375C12.9529 2.25 13.7779 2.80938 14.4842 3.51562C15.1904 4.22187 15.7498 5.04688 16.1623 5.99063C16.5748 6.93438 16.7811 7.9375 16.7811 9C16.7811 10.0625 16.5748 11.0656 16.1623 12.0094C15.7498 12.9531 15.1904 13.7781 14.4842 14.4844C13.7779 15.1906 12.9529 15.7469 12.0092 16.1531C11.0654 16.5594 10.0623 16.7625 8.9998 16.7625ZM8.9998 15.2812C9.6623 15.2812 10.3061 15.1875 10.9311 15C11.5561 14.8125 12.1873 14.4812 12.8248 14.0062C12.1748 13.5562 11.5404 13.2219 10.9217 13.0031C10.3029 12.7844 9.6623 12.675 8.9998 12.675C8.33731 12.675 7.69668 12.7844 7.07793 13.0031C6.45918 13.2219 5.83105 13.5562 5.19355 14.0062C5.83105 14.4812 6.45918 14.8125 7.07793 15C7.69668 15.1875 8.33731 15.2812 8.9998 15.2812ZM8.9998 8.38125C9.39981 8.38125 9.73106 8.25313 9.99356 7.99688C10.2561 7.74063 10.3873 7.4125 10.3873 7.0125C10.3873 6.6 10.2561 6.26562 9.99356 6.00937C9.73106 5.75312 9.39981 5.625 8.9998 5.625C8.5998 5.625 8.26856 5.75312 8.00605 6.00937C7.74356 6.26562 7.6123 6.6 7.6123 7.0125C7.6123 7.4125 7.74356 7.74063 8.00605 7.99688C8.26856 8.25313 8.5998 8.38125 8.9998 8.38125Z" fill="#12326E"/>
    </svg>
