<svg width="24" height="24" viewBox="0 0 24 24" fill="none" xmlns="http://www.w3.org/2000/svg">
<path d="M4.5 22.0001C4.1 22.0001 3.75 21.8501 3.45 21.5501C3.15 21.2501 3 20.9001 3 20.5001V15.5501L6.375 11.8251L7.45 12.9001L4.5 16.1251H19.5L16.725 12.9751L17.8 11.9001L21 15.5501V20.5001C21 20.9001 20.85 21.2501 20.55 21.5501C20.25 21.8501 19.9 22.0001 19.5 22.0001H4.5ZM4.5 20.5001H19.5V17.6251H4.5V20.5001ZM11.05 14.3751L7.075 10.4001C6.75833 10.0834 6.61667 9.72924 6.65 9.33758C6.68333 8.94591 6.85 8.60008 7.15 8.30008L12.45 3.00008C12.7322 2.72408 13.082 2.58008 13.4992 2.56808C13.9164 2.55608 14.275 2.70008 14.575 3.00008L18.55 6.97508C18.8333 7.25841 18.9792 7.59591 18.9875 7.98758C18.9958 8.37924 18.8333 8.74174 18.5 9.07508L13.2 14.3751C12.9167 14.6584 12.5667 14.8084 12.15 14.8251C11.7333 14.8417 11.3667 14.6917 11.05 14.3751ZM17.275 7.95008L13.525 4.20008L8.325 9.40008L12.075 13.1501L17.275 7.95008Z" fill="#12326E"/>
</svg>
