<svg width="570" height="345" viewBox="0 0 570 345" fill="none" xmlns="http://www.w3.org/2000/svg">
<g clip-path="url(#clip0_640_959)">
<path d="M30.5061 345C30.5061 345 -10.7208 294.23 9.65737 196.169C22.4731 134.491 76.3118 103.933 148.484 106.85C173.293 107.853 213.658 77.9679 271.655 41.2563C395.714 -37.2683 575.164 -3.91797 532.215 172.711C511.431 258.188 597.591 259.557 554.769 345H30.5061Z" fill="#EEF8FB"/>
</g>
<g clip-path="url(#clip1_640_959)">
<path d="M251.115 213.163C251.354 215.4 254.516 215.319 258.09 214.784C261.664 214.248 260.741 215.187 265.769 215.09C270.796 214.993 272.473 213.274 272.691 212.55C272.887 211.907 270.449 211.449 267.838 210.905C267.51 210.838 267.182 210.766 266.85 210.696C263.906 210.05 261.901 207.929 259.339 206.104C256.914 204.377 255.278 196.456 255.278 196.456L248.133 196.413C248.133 196.413 250.377 203.577 251.548 206.067C252.237 207.531 251.502 209.412 251.274 210.825C251.15 211.592 251.029 212.378 251.112 213.163H251.115Z" fill="#FFC48E"/>
<path d="M258.093 214.784C261.667 214.248 260.744 215.187 265.771 215.09C270.798 214.993 272.475 213.274 272.693 212.55C272.889 211.907 270.451 211.449 267.841 210.905L267.811 210.954C267.811 210.954 264.633 212.797 260.483 212.52C257.1 212.294 253.612 211 251.276 210.827C251.152 211.594 251.031 212.38 251.114 213.166C251.354 215.403 254.516 215.322 258.09 214.786L258.093 214.784Z" fill="#222222"/>
<path d="M195.25 212.808C195.406 215.05 198.568 215.09 202.161 214.689C205.754 214.288 204.796 215.193 209.821 215.284C214.848 215.376 216.586 213.723 216.834 213.005C217.055 212.367 214.635 211.821 212.046 211.177C211.721 211.097 211.395 211.013 211.067 210.93C208.149 210.174 206.225 207.98 203.736 206.061C201.375 204.242 203.319 196.698 203.319 196.698L197.896 194.139C197.896 194.139 197.15 201.914 196.747 205.846C196.582 207.455 195.78 209.073 195.495 210.475C195.342 211.237 195.191 212.017 195.247 212.806L195.25 212.808Z" fill="#FFC48E"/>
<path d="M202.161 214.689C205.754 214.288 204.796 215.193 209.821 215.284C214.848 215.376 216.586 213.723 216.834 213.005C217.055 212.367 214.635 211.82 212.046 211.177L212.014 211.226C212.014 211.226 208.768 212.948 204.632 212.515C201.26 212.162 197.823 210.739 195.495 210.475C195.342 211.236 195.191 212.017 195.247 212.805C195.404 215.047 198.566 215.088 202.159 214.687L202.161 214.689Z" fill="#222222"/>
<path d="M207.43 100.855C207.43 100.855 205.928 108.127 204.424 145.007C204.424 145.007 201.633 151.835 199.612 160.186C197.588 168.534 196.159 203.375 196.159 203.375C196.159 203.375 196.967 204.538 199.416 204.686C201.415 204.807 202.973 203.93 202.973 203.93C202.973 203.93 217.041 158.297 223.89 140.583C230.736 122.867 234.749 97.5714 234.749 97.5714L207.43 100.857V100.855Z" fill="#12326E"/>
<path d="M224.35 103.966C224.35 103.966 225.459 111.308 236.816 146.428C236.816 146.428 236.563 153.8 237.556 162.334C238.549 170.868 250.044 204.468 250.044 204.468C250.044 204.468 251.569 204.998 253.86 204.393C255.988 203.83 257.657 202.549 257.657 202.549C257.657 202.549 253.249 154.526 253.539 135.534C253.83 116.545 248.835 91.4219 248.835 91.4219L224.345 103.963L224.35 103.966Z" fill="#12326E"/>
<path d="M244.465 2.25254C242.684 1.11952 240.496 0.896143 238.954 0.909599C239.371 0.522059 240.154 0.411717 240.154 0.411717C239.209 0.223329 237.035 1.06031 237.035 1.06031C224.044 -4.70705 220.987 14.6942 221.038 19.2397C221.089 23.7853 220.86 29.0036 214.043 32.7364C200.633 40.0835 210.913 54.5921 210.913 54.5921C208.499 61.5193 217.437 70.0049 217.437 70.0049C217.286 66.3259 234.171 42.8905 243.276 37.543C245.58 34.4911 246.621 28.9471 246.702 28.5111C246.11 32.9167 245.23 35.363 244.481 36.7248C252.289 30.2281 249.18 5.25328 244.463 2.24984L244.465 2.25254Z" fill="#222222"/>
<path d="M241.634 35.0347C241.68 35.0562 237.374 37.2899 234.136 36.4045C231.09 35.5756 229.098 31.6222 229.141 31.6141C230.43 31.3584 230.805 29.5849 230.778 21.9686L231.362 22.0844L240.816 23.9575L241.169 24.0247C241.169 24.0247 240.945 27.1116 240.937 30.0182C240.937 30.6345 240.945 31.24 240.967 31.8079C241.031 33.4953 241.217 34.8382 241.637 35.0347H241.634Z" fill="#FFC48E"/>
<path d="M240.934 30.0182C240.934 30.6345 240.942 31.24 240.964 31.8079C235.466 31.5872 232.295 25.2977 231.098 22.5392L240.813 23.9575L241.166 24.0248C241.166 24.0248 240.942 27.1116 240.934 30.0182Z" fill="#EA8E50"/>
<path d="M230.343 21.016C230.343 21.016 227.466 16.4731 226.777 12.587C226.285 9.81228 227.698 -0.46831 238.03 1.01188C238.03 1.01188 241.03 1.30792 243.851 3.21333C246.095 4.7285 249.333 7.99838 245.71 16.971L244.771 20.0014L230.341 21.016H230.343Z" fill="#222222"/>
<path d="M241.744 28.5919C241.744 28.5919 228.872 26.891 230.053 18.8899C231.237 10.8888 230.371 5.28025 238.641 6.02842C246.911 6.77659 248.052 10.0653 248.308 12.8319C248.564 15.5985 245.124 28.8287 241.744 28.5919Z" fill="#FFC48E"/>
<path d="M244.519 6.70651C244.519 6.70651 239.605 15.5661 234.002 16.1501C228.399 16.7341 226.272 14.9391 226.272 14.9391C226.272 14.9391 230.901 12.2666 232.616 6.65537C232.616 6.65537 242.53 1.84341 244.516 6.70382L244.519 6.70651Z" fill="#222222"/>
<path d="M243.533 7.33629C243.533 7.33629 245.848 9.823 246.184 11.9545C246.521 14.086 246.184 18.322 247.427 18.3624C247.427 18.3624 251.028 12.377 248.587 8.32667C246.001 4.02873 243.533 7.33629 243.533 7.33629Z" fill="#222222"/>
<path d="M329.024 116.039C326.322 110.317 318.816 105.583 312.489 105.583C307.817 105.583 303.697 107.176 300.507 109.774C298.685 111.259 295.935 110.279 295.44 107.981L289.904 82.2554C289.096 78.5038 285.401 76.1167 281.65 76.924L192.055 96.2069C188.39 96.9954 186.059 100.607 186.848 104.273L206.109 193.77C206.661 196.33 208.536 198.262 210.864 199.002L209.688 199.336H213.165L213.195 199.33C213.62 199.317 214.051 199.268 214.481 199.177L216.433 198.757L239.427 193.808C242.654 193.114 243.964 189.209 241.795 186.722C239.701 184.319 238.194 181.339 237.551 177.967C235.742 168.462 241.617 159.048 250.956 156.515C261.344 153.7 271.835 160.186 274.071 170.572C274.911 174.479 274.461 178.363 273.005 181.781C272.44 183.107 272.909 184.488 273.88 185.274L272.54 185.928H275.648C275.88 185.931 276.122 185.912 276.367 185.858L303.823 179.948C307.575 179.141 309.964 175.443 309.154 171.691L303.651 146.124C303.142 143.759 305.298 141.684 307.645 142.287C310.355 142.984 313.264 143.078 316.187 142.448C327.676 139.975 334.39 127.401 329.027 116.039H329.024Z" fill="#D8AE45"/>
<path d="M309.327 105.581C304.655 105.581 300.534 107.174 297.345 109.771C295.523 111.256 292.773 110.277 292.278 107.978L286.742 82.2527C285.934 78.5011 282.239 76.114 278.488 76.9214L188.893 96.2042C185.228 96.9927 182.897 100.604 183.686 104.27L202.947 193.768C203.765 197.573 207.514 199.992 211.319 199.174L236.265 193.805C239.491 193.111 240.802 189.206 238.633 186.719C236.539 184.316 235.032 181.337 234.389 177.965C232.58 168.459 238.455 159.045 247.794 156.513C258.182 153.697 268.673 160.183 270.909 170.569C271.751 174.477 271.299 178.36 269.843 181.778C268.896 183.998 270.842 186.364 273.199 185.855L300.656 179.945C304.407 179.138 306.794 175.44 305.987 171.689L300.483 146.122C299.975 143.756 302.133 141.681 304.477 142.284C307.187 142.981 310.096 143.075 313.019 142.445C324.508 139.972 331.223 127.399 325.859 116.036C323.157 110.314 315.651 105.581 309.324 105.581H309.327Z" fill="#F5CF68"/>
<path d="M276.545 71.5577C276.545 71.5577 282.132 72.4728 283.599 76.1086C285.065 79.7445 283.017 82.2043 282.232 82.1963C281.446 82.1882 279.936 81.6069 279.231 79.7203C278.526 77.8364 276.548 71.5577 276.548 71.5577H276.545Z" fill="#FFC48E"/>
<path d="M199.609 87.7753C199.609 87.7753 205.883 87.7672 208.141 91.4757C210.396 95.1843 208.606 98.2416 207.745 98.3761C206.884 98.508 205.132 98.1447 204.018 96.2124C202.906 94.28 199.609 87.7753 199.609 87.7753Z" fill="#FFC48E"/>
<path d="M276.701 75.7749C276.144 75.6565 273.713 75.3713 270.618 74.8841C264.924 73.9906 256.982 72.4163 254.317 69.9591C253.596 69.2917 251.914 65.6208 250.168 61.4117C248.399 70.7288 248.303 77.8768 248.771 83.3158L210.275 91.6022C213.577 84.9279 218.685 76.655 217.727 69.9591C217.372 67.4778 216.013 64.0707 215.504 60.2437C215.461 59.9154 215.426 59.5844 215.397 59.2506C209.998 63.6939 203.76 68.5974 203.612 69.5797C203.364 71.224 207.568 89.4223 207.568 89.4223C206.523 91.8256 201.991 91.3196 201.991 91.3196C197.742 88.2866 191.496 71.0948 191.996 67.2867C192.497 63.4786 207.985 41.7736 211.736 36.5876C215.44 31.4607 228.96 31.5899 229.286 31.5926H229.294C240.046 38.0489 241.015 32.6826 241.015 32.6826C241.015 32.6826 250.717 34.5288 252.382 37.3923C254.051 40.2585 261.36 61.9903 261.877 62.7573C262.959 64.3586 280.633 70.7611 280.95 72.6154C281.27 74.4697 278.286 76.114 276.701 75.7776V75.7749Z" fill="#D3E9EF"/>
<path d="M223.699 88.7279L210.275 91.6049C213.618 84.9494 218.01 76.663 217.049 70.0076C216.689 67.5235 215.884 64.582 215.496 60.7389C215.459 60.3675 215.394 59.2533 215.394 59.2533C215.394 59.2533 224.9 66.735 225.067 74.8303C225.153 79.0313 224.421 84.5242 223.697 88.7279H223.699Z" fill="#5F9AA8"/>
<path d="M270.977 74.9352C265.212 74.039 257.173 72.4673 254.477 70.0075C253.745 69.3401 252.044 65.6638 250.276 61.4493C250.276 61.4493 249.657 54.6754 251.428 54.9284C253.198 55.1814 255.804 67.1952 257.663 67.9541C259.326 68.635 268.528 72.1659 270.98 74.9325L270.977 74.9352Z" fill="#5F9AA8"/>
<path d="M554.973 333.005C554.161 335.742 550.409 337.57 549.903 340.915C549.655 342.548 549.047 343.819 548.275 344.691H536.595C536.71 344.047 537.224 343.356 538.742 343.022C541.985 342.312 543.21 338.38 543.008 334.73C542.925 333.199 542.962 331.455 543.038 329.945C543.14 327.854 543.312 326.212 543.312 326.212L550.207 324.59L550.931 325.521L551.625 326.414C551.625 326.414 555.783 330.265 554.973 333.005Z" fill="#222222"/>
<path d="M500.58 344.69H476.948C477.484 344.063 478.391 343.458 479.927 343.208C483.563 342.618 489.864 340.506 491.266 335.858C491.311 335.71 491.352 335.556 491.387 335.4C492.501 330.432 500.615 336.921 500.615 336.921C500.615 336.921 500.639 337.12 500.677 337.459C500.82 338.856 501.135 342.651 500.577 344.69H500.58Z" fill="#222222"/>
<path d="M480.894 213.04C480.894 213.04 482.126 228.412 483.574 246.89C485.541 271.992 487.91 302.825 488.144 308.665C488.547 318.809 490.173 335.032 490.173 335.032C490.173 335.032 494.024 338.886 501.735 337.263C501.735 337.263 508.603 314.102 510.567 289.598C510.597 289.197 510.629 288.791 510.659 288.387C512.483 263.442 515.323 210.911 515.323 210.911L480.896 213.04H480.894Z" fill="#12326E"/>
<path d="M480.894 213.04C480.894 213.04 482.126 228.412 483.574 246.89L510.565 289.598C510.594 289.197 510.627 288.791 510.656 288.387C512.481 263.442 515.32 210.911 515.32 210.911L480.894 213.04Z" fill="#09234C"/>
<path d="M486.521 214.864C486.521 214.864 508.73 270.538 523.332 296.7C537.935 322.862 542.5 330.166 542.5 330.166C542.5 330.166 550.867 326.821 551.626 324.538C551.626 324.538 546.041 274.029 536.261 261.716C530.736 254.76 524.245 233.881 523.941 226.579C523.637 219.278 521.963 204.829 521.963 204.829L486.521 214.867V214.864Z" fill="#12326E"/>
<path d="M497.913 128.93C496.926 123.101 496.896 119.645 496.896 119.645L508.164 110.565C507.744 123.052 515.746 129.056 515.746 129.056C515.746 129.056 500.731 136.447 492.052 133.71C492.052 133.71 494.189 130.978 497.913 128.933V128.93Z" fill="#EA8E50"/>
<path d="M494.24 119.438C494.24 119.438 508.573 121.82 509.919 112.869C511.264 103.917 514.02 98.1985 504.926 96.2985C495.83 94.3984 493.534 97.5472 492.358 100.424C491.182 103.301 490.544 118.585 494.24 119.435V119.438Z" fill="#FFC48E"/>
<path d="M443.894 137.886L440.842 135.997C440.842 135.997 437.036 130.381 430.537 133.871C430.537 133.871 427.961 135.513 429.689 136.888C431.417 138.263 430.951 137.485 433.347 139.477C435.739 141.468 438.837 142.179 440.834 141.081L443.396 140.839L443.891 137.889L443.894 137.886Z" fill="#A16D3C"/>
<path d="M440.271 138.476C441.057 136.016 441.431 135.801 441.431 135.801C441.431 135.801 466.113 138.718 468.438 138.89C470.766 139.062 503.077 132.404 503.077 132.404L518.334 150.931C518.334 150.931 473.35 152.626 467.464 152.075C457.735 151.162 440.094 142.106 440.094 142.106C440.094 142.106 439.655 140.408 440.271 138.476Z" fill="#D8AE45"/>
<path d="M523.657 207.671C523.7 208.626 521.73 209.676 520.874 210.061C514.432 212.948 508.433 214.956 501.654 215.607C493.612 216.431 484.109 214.622 480.85 214.665C480.5 214.665 480.199 214.536 479.938 214.318C479.72 214.143 479.545 204.323 479.72 191.938C479.72 191.459 479.72 190.936 479.763 190.457V190.285C479.776 188.996 479.795 187.685 479.825 186.361C479.906 182.742 480.043 179.025 480.199 175.333C480.436 169.888 480.759 164.538 481.205 159.799C481.674 154.849 482.268 150.56 483.025 147.521C484.763 140.524 488.762 135.916 492.412 132.525L495.41 129.877C498.408 130.486 501.581 130.311 504.754 128.747C508.185 127.051 511.926 125.227 512.532 125.66C517.166 129.124 520.285 136.985 521.884 146.978C522.745 152.355 523.165 158.348 523.141 164.605C523.13 167.006 523.057 169.441 522.917 171.901C522.142 185.096 522.939 196.54 523.394 203.187C523.525 205.101 523.63 206.618 523.66 207.668L523.657 207.671Z" fill="#F5CF68"/>
<path d="M447.452 85.6788L356.798 71.2806C352.944 70.667 349.321 73.2964 348.71 77.1503L344.698 102.418C344.512 103.589 344.808 106.878 344.808 106.878L348.075 107.365C348.261 107.405 348.449 107.435 348.64 107.448C349.232 107.497 349.849 107.421 350.465 107.201C353.471 106.114 356.8 105.783 360.189 106.404C369.732 108.154 376.406 117.059 375.391 126.707C374.261 137.44 364.398 144.9 353.878 143.229C349.919 142.599 346.45 140.772 343.783 138.172C343.266 137.668 342.642 137.402 342.014 137.337L338.597 136.823L334.339 167.646C333.736 171.446 336.328 175.018 340.128 175.623L366.026 179.735C368.421 180.115 369.581 182.884 368.168 184.857C366.535 187.139 365.393 189.825 364.925 192.785C363.076 204.422 372.401 215.255 384.967 214.353C391.294 213.898 398.437 208.594 400.73 202.678C402.422 198.311 402.425 193.881 401.149 189.96C400.42 187.718 402.334 185.5 404.662 185.872L430.721 190.011C434.521 190.614 438.09 188.025 438.692 184.225L453.104 93.47C453.693 89.7588 451.161 86.2709 447.45 85.6815L447.452 85.6788Z" fill="#0E839E"/>
<path d="M512.86 146.714C512.86 146.714 505.911 179.141 479.822 186.367C479.903 182.747 480.04 179.03 480.196 175.338C480.433 169.894 480.756 164.543 481.203 159.804C481.668 159.564 482.107 159.376 482.505 159.244C491.36 156.324 512.86 146.714 512.86 146.714Z" fill="#B29242"/>
<path d="M397.379 202.172C399.071 197.805 399.074 193.375 397.798 189.454C397.069 187.212 398.983 184.994 401.31 185.366L427.367 189.505C431.167 190.108 434.736 187.516 435.339 183.718L449.75 92.964C450.34 89.2528 447.807 85.7649 444.096 85.1755L353.441 70.7773C349.587 70.1664 345.965 72.7931 345.354 76.6469L341.341 101.915C340.822 105.185 343.997 107.822 347.111 106.697C350.117 105.61 353.446 105.279 356.832 105.901C366.375 107.65 373.05 116.556 372.035 126.204C370.905 136.936 361.044 144.397 350.521 142.725C346.562 142.096 343.096 140.268 340.426 137.668C338.693 135.978 335.778 136.942 335.399 139.332L330.983 167.143C330.38 170.943 332.971 174.514 336.771 175.12L362.669 179.232C365.067 179.612 366.225 182.381 364.812 184.354C363.178 186.636 362.037 189.322 361.569 192.282C359.72 203.919 369.045 214.751 381.61 213.85C387.938 213.395 395.083 208.09 397.373 202.175L397.379 202.172Z" fill="#21A7CC"/>
<path d="M443.999 158.795L440.272 158.179C440.272 158.179 436.022 152.029 428.616 155.479C428.616 155.479 425.68 157.121 427.62 158.66C429.563 160.197 429.046 159.349 431.735 161.575C434.426 163.798 437.928 164.686 440.204 163.599L443.111 163.448L443.999 158.798V158.795Z" fill="#FFC48E"/>
<path d="M441.149 160.689C441.27 157.947 442.731 157.654 442.731 157.654C442.731 157.654 470.965 155.786 473.401 155.315C475.836 154.841 498.325 136.21 498.325 136.21C498.325 136.21 507.02 128.394 513.113 131.032C518.407 133.325 520.065 137.846 520.331 142.004C520.649 146.959 517.855 151.593 513.355 153.692C503.255 158.41 483.057 167.668 478.458 168.467C468.22 170.246 441.908 164.546 441.908 164.546C441.908 164.546 441.055 162.842 441.149 160.689Z" fill="#D8AE45"/>
<path d="M492.361 100.427C492.361 100.427 486.542 96.1128 490.337 89.4089C490.337 89.4089 494.915 90.9267 501.414 89.4089C507.916 87.891 513.734 90.0413 514.493 92.3181C514.493 92.3181 517.023 93.33 517.276 97.1247C517.529 100.919 509.921 112.871 509.921 112.871C509.921 112.871 508.295 110.847 508.74 109.456C509.181 108.065 510.572 104.967 508.866 104.967C507.16 104.967 506.589 107.497 505.895 106.485C505.201 105.473 506.465 101.237 504.442 100.54C502.418 99.8456 494.64 101.708 492.363 100.427H492.361Z" fill="#222222"/>
<path d="M294.613 341.458L268.987 225.107H276.041C277.712 225.107 279.079 223.74 279.079 222.069V218.14C279.079 216.468 277.712 215.101 276.041 215.101H186.559C184.888 215.101 183.518 216.468 183.518 218.14V222.069C183.518 223.74 184.885 225.107 186.559 225.107H195.64L170.014 341.458C169.669 343.022 170.662 344.586 172.223 344.93C173.781 345.277 175.34 344.279 175.684 342.715L201.587 225.107H263.037L288.94 342.715C289.285 344.279 290.843 345.277 292.401 344.93C293.962 344.586 294.955 343.022 294.611 341.458H294.613Z" fill="#CCCCCC"/>
<path d="M429.975 239.102H404.392C401.082 239.102 398.974 242.652 400.576 245.55C402.12 248.349 396.681 272.592 385.222 273.224C374.446 273.819 365.53 265.22 365.53 254.568C365.53 250.561 366.792 246.847 368.94 243.806C370.337 241.828 368.929 239.102 366.51 239.102H338.351C334.503 239.102 331.381 242.221 331.381 246.072C331.381 246.072 328.829 276.298 326.658 275.213C324.421 274.096 321.929 273.415 319.294 273.278H319.27C318.955 273.262 318.64 273.254 318.32 273.254C318 273.254 313.365 273.176 313.365 273.176L312.663 310.528L316.689 310.571C320.516 310.458 323.84 310.097 326.795 308.593C328.894 307.522 331.383 309.061 331.383 311.419V337.804C331.383 341.649 334.503 344.769 338.348 344.769H430.239C433.998 344.769 437.045 341.722 437.045 337.962V246.172C437.045 242.269 433.88 239.105 429.978 239.105L429.975 239.102Z" fill="#D8AE45"/>
<path d="M309.208 310.089C313.788 311.077 318.161 310.382 321.835 308.509C323.934 307.438 326.424 308.978 326.424 311.335V337.72C326.424 341.566 329.543 344.685 333.389 344.685H425.279C429.038 344.685 432.085 341.639 432.085 337.879V246.088C432.085 242.186 428.92 239.021 425.018 239.021H399.435C396.124 239.021 394.017 242.571 395.618 245.469C397.163 248.268 398.014 251.506 397.93 254.945C397.699 264.645 389.953 272.635 380.265 273.144C369.489 273.711 360.573 265.14 360.573 254.488C360.573 250.48 361.835 246.767 363.983 243.725C365.38 241.747 363.972 239.021 361.553 239.021H333.394C329.545 239.021 326.424 242.14 326.424 245.991V272.212C326.424 274.64 323.872 276.217 321.7 275.132C319.19 273.878 316.358 273.173 313.363 273.173C301.581 273.173 292.344 284.081 295.205 296.35C296.645 302.527 303.007 308.752 309.208 310.089Z" fill="#F5CF68"/>
<path d="M102.157 211.745L104.601 213.729C104.601 213.729 111.286 211.331 112.793 219.276C112.793 219.276 113.194 222.661 111.049 222.666C108.904 222.672 109.79 222.295 106.754 222.387C103.718 222.475 101.202 220.874 100.755 218.412L99.3018 216.323L102.154 211.745H102.157Z" fill="#EA8E50"/>
<path d="M101.88 216.003C103.828 213.968 103.672 212.464 103.672 212.464C103.672 212.464 81.0978 193.98 78.8075 192.476C77.2466 191.451 60.6227 176.711 52.8504 167.724C48.9965 163.268 44.2195 164.998 38.7563 166.565L34.2565 167.856C28.8228 169.415 27.4099 177.012 31.8693 180.704C44.424 191.103 65.3055 202.797 69.2132 205.257C78.9125 211.358 97.8993 218.611 97.8993 218.611C97.8993 218.611 100.203 217.755 101.877 216.006L101.88 216.003Z" fill="#1E3D70"/>
<path d="M128.3 329.369C128.3 329.369 133.779 333.473 142.173 331.304C142.173 331.304 148.942 329.762 150.427 333.137C150.427 333.137 140.047 338.409 137.42 339.852C135.44 340.939 133.375 342.653 131.914 343.98C130.76 345.03 128.956 344.887 127.971 343.676C127.514 343.114 126.992 342.446 126.419 341.671C124.817 339.502 121.09 332.496 121.09 332.496L128.3 329.369Z" fill="#222222"/>
<path d="M130.856 327.472C130.856 327.472 127.519 335.163 119.82 333.751C119.82 333.751 104.105 320.773 93.3268 307.293C89.8255 302.914 86.8463 298.484 85.0943 294.429C77.9463 277.88 58.6554 253.199 46.3887 240.69L77.077 229.588C77.077 229.588 86.9055 249.361 99.985 273.649C109.41 291.148 120.519 310.993 130.856 327.475V327.472Z" fill="#21A7CC"/>
<path d="M99.987 273.647L93.3288 307.293C89.8275 302.914 86.8482 298.484 85.0962 294.429C77.9483 277.88 58.6574 253.199 46.3906 240.69L77.079 229.588C77.079 229.588 86.9075 249.361 99.987 273.649V273.647Z" fill="#0D8BA0"/>
<path d="M74.8218 333.732C74.8218 333.732 74.4881 339.87 81.9294 340.689C81.9294 340.689 86.1816 340.71 86.1923 344.618L64.5654 344.685C64.5654 344.685 63.9384 343.108 63.785 339.733C63.6692 337.142 66.2959 330.365 66.2959 330.365L74.8191 333.729L74.8218 333.732Z" fill="#222222"/>
<path d="M67.014 229.586C67.014 229.586 80.6856 244.608 89.3622 271.671C94.0826 286.395 80.7071 323.416 78.0993 336.28C78.0993 336.28 69.1266 337.042 62.9906 334.671C62.9906 334.671 62.525 308.103 66.1124 287.628C68.1201 276.169 48.1133 263.119 39.3694 242.412C33.4218 228.326 40.6585 228.566 49.5504 228.227L67.0113 229.588L67.014 229.586Z" fill="#21A7CC"/>
<path d="M51.2327 162.565C43.6273 166.861 28.0557 162.899 28.0557 162.899C28.0557 162.899 34.3801 155.67 31.5059 144.025L37.4777 147.058L43.8937 150.317C43.8937 150.317 44.3081 152.374 44.5961 156.066C44.6688 157.016 44.7361 158.079 44.7818 159.239C48.6868 160.423 51.2354 162.563 51.2354 162.563L51.2327 162.565Z" fill="#FFC48E"/>
<path d="M79.1225 228.811C79.1225 230.148 77.5831 230.789 77.2547 230.853C74.1867 231.413 65.6204 234.745 57.9046 235.509C51.4079 236.19 45.3741 235.544 38.7483 234.212C37.8709 234.034 35.8094 233.48 35.6641 232.64C35.4811 231.723 10.0999 180.898 29.8321 159.069C30.295 158.558 34.1893 159.478 37.7525 160.326C41.0412 161.107 44.0581 160.671 46.752 159.591L50.0919 161.349C54.1934 163.634 61.9549 171.756 62.8619 178.126C63.3221 181.366 65.1764 183.767 65.7119 186.617C65.9111 187.672 66.1156 188.703 66.3228 189.704C66.7265 191.674 67.1437 193.547 67.5716 195.329C68.7315 200.149 69.956 204.296 71.159 207.881C72.4401 211.686 73.6942 214.851 74.8164 217.499C76.2724 220.933 77.4996 223.498 78.2693 225.465C78.813 226.849 79.1225 227.933 79.1225 228.813V228.811Z" fill="#12326E"/>
<path d="M78.2686 225.463C42.4399 208.583 30.0332 176.17 30.0332 176.17C30.0332 176.17 59.1418 186.908 66.3221 189.704C66.7258 191.674 67.1429 193.547 67.5708 195.329C68.7307 200.149 69.9553 204.296 71.1583 207.881C72.4393 211.686 73.6934 214.851 74.8157 217.499C76.2716 220.933 77.4989 223.498 78.2686 225.465V225.463Z" fill="#09234C"/>
<path d="M179.471 189.564L171.798 165.23C171.052 162.867 168.606 161.747 166.472 162.35H166.466C166.353 162.385 166.24 162.423 166.13 162.463L163.439 163.362C163.439 163.362 159.227 167.7 156.202 168.575C146.906 171.263 138.084 166.309 134.693 157.247C130.92 147.169 135.299 136.099 145.429 132.902C148.895 131.81 155.718 133.847 155.718 133.847L158.457 132.937C159.946 132.485 160.966 130.881 160.435 129.194L151.988 102.41C150.833 98.7502 146.931 96.7184 143.268 97.8729L118.328 105.739C116.019 106.469 113.753 104.512 114.135 102.122C114.576 99.3585 114.396 96.4546 113.497 93.6046C109.964 82.3982 96.8168 76.8838 86.0033 83.2863C80.5589 86.5104 76.5489 94.4254 77.1356 100.726C77.5716 105.376 79.5416 109.33 82.4266 112.263C84.0764 113.94 83.3578 116.768 81.1133 117.476L56.0174 125.391C52.3573 126.546 50.3281 130.448 51.4799 134.105L79.0437 221.509C80.1714 225.083 83.9849 227.069 87.5589 225.942L174.866 198.407C178.577 197.237 180.639 193.278 179.468 189.567L179.471 189.564Z" fill="#0E839E"/>
<path d="M74.4794 101.608C74.9154 106.259 76.8854 110.212 79.7704 113.146C81.4174 114.822 80.7016 117.651 78.4571 118.359L53.3611 126.274C49.701 127.428 47.6718 131.331 48.8237 134.991L76.3875 222.395C77.5151 225.971 81.3286 227.955 84.9026 226.827L172.21 199.293C175.921 198.122 177.982 194.163 176.812 190.452L169.136 166.118C168.143 162.969 164.133 162.03 161.859 164.422C159.66 166.731 156.837 168.51 153.538 169.466C144.242 172.154 134.319 167.183 130.928 158.122C127.155 148.043 132.635 136.99 142.767 133.796C146.578 132.593 150.489 132.682 154.028 133.812C156.326 134.547 158.5 132.391 157.774 130.087L149.326 103.301C148.171 99.641 144.269 97.6091 140.606 98.7637L115.664 106.63C113.355 107.357 111.089 105.403 111.471 103.013C111.912 100.249 111.732 97.3454 110.833 94.4926C107.299 83.2836 94.1525 77.7719 83.3417 84.1744C77.8973 87.3985 73.8873 95.3135 74.474 101.614L74.4794 101.608Z" fill="#21A7CC"/>
<path d="M99.2319 215.68L102.327 216.816C102.327 216.816 108.528 212.432 112.387 219.561C112.387 219.561 113.784 222.674 111.574 223.35C109.365 224.025 110.167 223.39 107.061 224.424C103.955 225.457 100.895 224.714 99.7217 222.494L97.6172 220.949L99.2319 215.677V215.68Z" fill="#FFC48E"/>
<path d="M101.78 220.058C102.924 217.071 103.449 215.72 103.449 215.72C103.449 215.72 80.0536 196.653 77.6719 195.016C76.0464 193.902 59.8773 181.816 51.9919 172.394C48.0815 167.722 41.9159 165.585 35.952 166.836L31.0405 167.867C25.1117 169.11 23.1847 176.616 27.7841 180.559C40.7398 191.666 62.5901 204.546 66.6646 207.227C76.7784 213.877 99.1481 223.199 99.1481 223.199C99.1481 223.199 100.881 222.408 101.78 220.061V220.058Z" fill="#12326E"/>
<path d="M44.5928 156.069C37.1138 156.488 32.248 150.312 32.248 150.312C32.248 150.312 35.631 148.439 37.4745 147.061L43.8904 150.32C43.8904 150.32 44.3049 152.376 44.5928 156.069Z" fill="#EA8E50"/>
<path d="M47.7794 148.388C47.7794 148.388 36.4465 156.521 31.4893 149.386C26.5347 142.252 21.7335 138.495 28.7576 132.999C35.7845 127.504 39.0974 129.239 41.3285 131.22C43.5622 133.201 50.5972 146.089 47.7767 148.388H47.7794Z" fill="#FFC48E"/>
<path d="M42.5318 124.777C42.1254 122.035 41.2104 120.105 41.2104 120.105C41.2104 120.105 40.4999 123.052 35.1147 122.646C29.7295 122.24 21.1982 123.176 18.3535 129.309C18.1732 129.7 18.0118 130.103 17.8691 130.512C17.3551 129.153 17.2313 127.113 17.2313 127.113C16.2086 129.753 17.2313 133.058 17.2313 133.058C17.2151 133.155 17.2044 133.252 17.1882 133.349C16.0014 134.353 15.0029 137.477 15.0029 137.477C15.3609 136.608 16.2355 136.038 17.016 135.688C16.9918 140.462 18.9268 145.129 22.3258 146.517C27.2939 148.549 27.2562 146.999 32.2539 150.315C32.2539 150.315 33.5941 148.651 32.6791 147.535C31.7641 146.418 28.3112 144.792 30.2408 143.167C32.1704 141.541 32.8809 143.369 33.5941 142.252C34.3046 141.135 30.7495 137.884 35.3219 134.837C39.8943 131.791 42.9408 127.522 42.5345 124.78L42.5318 124.777Z" fill="#222222"/>
</g>
<g clip-path="url(#clip2_640_959)">
<path d="M569.189 340.258H0.811007C0.3631 340.258 0 340.981 0 341.873V343.385C0 344.277 0.3631 345 0.811007 345H569.189C569.637 345 570 344.277 570 343.385V341.873C570 340.981 569.637 340.258 569.189 340.258Z" fill="#2E3552"/>
</g>
<defs>
<clipPath id="clip0_640_959">
<rect width="562.875" height="343.814" fill="white" transform="translate(4 1.18555)"/>
</clipPath>
<clipPath id="clip1_640_959">
<rect width="540.078" height="345" fill="white" transform="translate(15)"/>
</clipPath>
<clipPath id="clip2_640_959">
<rect width="570" height="4.74227" fill="white" transform="translate(0 340.258)"/>
</clipPath>
</defs>
</svg>
