<svg width="570" height="345" viewBox="0 0 570 345" fill="none" xmlns="http://www.w3.org/2000/svg">
<g clip-path="url(#clip0_640_1138)">
<path d="M30.5061 345C30.5061 345 -10.7208 294.23 9.65737 196.169C22.4731 134.491 76.3118 103.933 148.484 106.85C173.293 107.853 213.658 77.9679 271.655 41.2563C395.714 -37.2683 575.164 -3.91797 532.215 172.711C511.431 258.188 597.591 259.557 554.769 345H30.5061Z" fill="#EEF8FB"/>
</g>
<g clip-path="url(#clip1_640_1138)">
<path d="M172.92 344.307H173.09C174.475 344.278 175.545 343.144 175.415 341.84L166.174 249.392L158.112 250.112L171.38 343.058C171.484 343.785 172.148 344.322 172.92 344.307Z" fill="#F5CF68"/>
<path d="M83.9537 344.307H83.7839C82.3988 344.278 81.3286 343.144 81.459 341.84L90.6996 249.392L98.7618 250.112L85.4938 343.058C85.3904 343.785 84.7262 344.322 83.9537 344.307Z" fill="#F5CF68"/>
<path d="M238.104 344.307H238.274C239.659 344.278 240.729 343.144 240.599 341.84L231.358 249.392L223.296 250.112L236.564 343.058C236.667 343.785 237.331 344.322 238.104 344.307Z" fill="#F5CF68"/>
<path d="M86.7045 235.947L70.3046 154.803C68.1987 143.817 77.2867 133.77 89.0835 134.041L120.715 134.766C131.626 135.015 141.112 142.333 144.146 152.836L168.14 235.947H86.7045Z" fill="#F5CF68"/>
<path d="M96.6263 235.947L80.2265 154.803C78.1205 143.817 87.2086 133.77 99.0054 134.041L130.636 134.766C141.548 135.015 151.034 142.333 154.068 152.836L178.062 235.947H96.6263Z" fill="#F5CF68"/>
<path d="M216.417 250.746L91.2754 250.746C88.7512 250.746 86.7043 248.692 86.7043 246.166V235.947L216.417 235.947C218.941 235.947 220.988 238 220.988 240.526V246.166C220.988 248.692 218.939 250.746 216.417 250.746Z" fill="#F5CF68"/>
<path d="M150.003 250.746H229.776C231.81 250.746 233.459 249.094 233.459 247.056V239.637C233.459 237.599 231.81 235.947 229.776 235.947H150.003C147.969 235.947 146.32 237.599 146.32 239.637V247.056C146.32 249.094 147.969 250.746 150.003 250.746Z" fill="#F5CF68"/>
<path d="M285.016 0H330.39C332.481 0 334.176 1.70072 334.176 3.79335V47.672C334.176 49.7671 332.478 51.4653 330.39 51.4653H285.016C282.925 51.4653 281.229 49.7646 281.229 47.672V3.79335C281.229 1.69826 282.927 0 285.016 0Z" fill="#89C1CE"/>
<path d="M286.982 2.23071H328.424C330.333 2.23071 331.883 3.78355 331.883 5.69624V45.7692C331.883 47.6819 330.333 49.2347 328.424 49.2347H286.982C285.072 49.2347 283.522 47.6819 283.522 45.7692V5.69624C283.522 3.78355 285.072 2.23071 286.982 2.23071Z" fill="#BDE5F0"/>
<path d="M307.704 8.0254C308.31 8.0254 308.801 7.53322 308.801 6.92609C308.801 6.31896 308.31 5.82678 307.704 5.82678C307.098 5.82678 306.606 6.31896 306.606 6.92609C306.606 7.53322 307.098 8.0254 307.704 8.0254Z" fill="white"/>
<path d="M315.456 8.47894C315.751 7.949 316.418 7.75675 316.947 8.05253C317.476 8.3483 317.668 9.01627 317.373 9.5462C317.077 10.0761 316.411 10.2684 315.882 9.97262C315.353 9.67684 315.161 9.00887 315.456 8.47894Z" fill="white"/>
<path d="M323.038 14.5152C323.548 14.1874 324.227 14.3328 324.554 14.843C324.881 15.3532 324.736 16.0335 324.227 16.3613C323.717 16.6892 323.038 16.5437 322.711 16.0335C322.381 15.5233 322.529 14.843 323.038 14.5152Z" fill="white"/>
<path d="M326.796 23.8569C327.401 23.8569 327.893 24.3499 327.893 24.9562C327.893 25.5626 327.401 26.0555 326.796 26.0555C326.19 26.0555 325.698 25.5626 325.698 24.9562C325.698 24.3499 326.19 23.8569 326.796 23.8569Z" fill="white"/>
<path d="M324.876 34.6971C325.304 35.126 325.304 35.8211 324.876 36.25C324.448 36.6789 323.754 36.6789 323.326 36.25C322.898 35.8211 322.898 35.126 323.326 34.6971C323.754 34.2683 324.448 34.2683 324.876 34.6971Z" fill="white"/>
<path d="M317.99 41.6158C318.418 42.0447 318.418 42.7398 317.99 43.1687C317.562 43.5976 316.868 43.5976 316.44 43.1687C316.012 42.7398 316.012 42.0447 316.44 41.6158C316.868 41.187 317.562 41.187 317.99 41.6158Z" fill="white"/>
<path d="M306.606 45.1824C306.606 44.5761 307.098 44.0831 307.704 44.0831C308.309 44.0831 308.801 44.5761 308.801 45.1824C308.801 45.7888 308.309 46.2817 307.704 46.2817C307.098 46.2817 306.606 45.7888 306.606 45.1824Z" fill="white"/>
<path d="M299.915 8.47894C299.619 7.949 298.953 7.75675 298.424 8.05253C297.895 8.3483 297.703 9.01627 297.998 9.5462C298.293 10.0761 298.96 10.2684 299.489 9.97262C300.018 9.67684 300.21 9.00887 299.915 8.47894Z" fill="white"/>
<path d="M292.333 14.5153C291.824 14.1875 291.145 14.3329 290.817 14.8431C290.488 15.3534 290.635 16.0336 291.145 16.3615C291.654 16.6893 292.333 16.5439 292.66 16.0336C292.987 15.5234 292.842 14.8431 292.333 14.5153Z" fill="white"/>
<path d="M288.576 23.8569C287.971 23.8569 287.479 24.3499 287.479 24.9562C287.479 25.5626 287.971 26.0555 288.576 26.0555C289.181 26.0555 289.673 25.5626 289.673 24.9562C289.673 24.3499 289.181 23.8569 288.576 23.8569Z" fill="white"/>
<path d="M290.495 34.6971C290.067 35.126 290.067 35.8211 290.495 36.25C290.923 36.6789 291.617 36.6789 292.045 36.25C292.473 35.8211 292.473 35.126 292.045 34.6971C291.617 34.2683 290.923 34.2683 290.495 34.6971Z" fill="white"/>
<path d="M297.381 41.6158C296.953 42.0447 296.953 42.7398 297.381 43.1687C297.809 43.5976 298.503 43.5976 298.931 43.1687C299.359 42.7398 299.359 42.0447 298.931 41.6158C298.503 41.187 297.809 41.187 297.381 41.6158Z" fill="white"/>
<path d="M307.406 24.9562C307.406 24.3499 307.898 23.8569 308.504 23.8569C309.109 23.8569 309.601 24.3499 309.601 24.9562C309.601 25.5626 309.109 26.0555 308.504 26.0555C307.898 26.0555 307.406 25.5626 307.406 24.9562Z" fill="white"/>
<path d="M308.654 11.2272H308.354V24.9562H308.654V11.2272Z" fill="white"/>
<path d="M315.358 18.8753L308.093 24.5885L308.647 25.2962L315.912 19.583L315.358 18.8753Z" fill="white"/>
<path d="M195.722 218.964C188.951 230.768 180.436 235.326 180.436 235.326H145.012C145.012 235.326 200.886 209.958 195.722 218.964Z" fill="#233862"/>
<path d="M239.416 336.245C239.033 339.969 244.204 340.931 250.2 341.295C256.195 341.66 254.37 342.87 262.574 344.45C270.779 346.03 274.098 343.812 274.706 342.705C275.247 341.724 271.441 340.139 267.387 338.35C266.875 338.126 266.366 337.896 265.854 337.667C261.29 335.599 258.764 331.451 255.231 327.593C251.885 323.941 248.792 312.324 248.792 312.324L237.647 309.815C237.647 309.815 240.674 320.273 241.714 324.734C242.327 327.359 241.35 330.275 240.487 332.493C240.022 333.701 239.552 334.936 239.419 336.247L239.416 336.245Z" fill="#FFC48E"/>
<path d="M250.196 341.296C256.192 341.66 254.366 342.871 262.571 344.45C270.776 346.03 274.095 343.812 274.703 342.705C275.244 341.724 271.438 340.14 267.383 338.35L267.319 338.419C267.319 338.419 261.518 340.324 254.866 338.434C249.443 336.896 244.22 333.583 240.483 332.491C240.018 333.699 239.548 334.934 239.416 336.245C239.032 339.969 244.203 340.931 250.199 341.296H250.196Z" fill="black"/>
<path d="M222.529 206.872C216.531 202.652 176.857 195.132 156.612 192.956L134.234 173.493C134.234 173.493 115.187 201.757 115.034 223.381C114.963 233.465 119.598 234.466 119.6 234.468C119.6 234.468 191.338 235 194.482 235.326C199.629 235.858 206.419 248.705 208.114 260.405C209.812 272.106 239.726 319.694 239.726 319.694C239.726 319.694 245.965 321.695 248.848 321.528C251.95 321.345 253.387 320.305 253.387 320.305C253.387 320.305 236.052 216.389 222.526 206.874L222.529 206.872Z" fill="#09234C"/>
<path d="M220.861 336.245C220.477 339.969 225.649 340.931 231.644 341.295C237.64 341.66 235.814 342.87 244.019 344.45C252.224 346.03 255.543 343.812 256.151 342.705C256.692 341.724 252.886 340.139 248.831 338.35C248.322 338.126 247.81 337.896 247.299 337.667C242.735 335.599 240.208 331.451 236.676 327.593C233.33 323.941 230.237 312.324 230.237 312.324L219.09 309.815C219.09 309.815 222.116 320.273 223.157 324.734C223.769 327.359 222.792 330.275 221.929 332.493C221.464 333.701 220.994 334.936 220.861 336.247V336.245Z" fill="#FFC48E"/>
<path d="M231.642 341.296C237.637 341.66 235.812 342.871 244.017 344.45C252.221 346.03 255.54 343.812 256.148 342.705C256.689 341.724 252.883 340.14 248.829 338.35L248.765 338.419C248.765 338.419 242.964 340.324 236.311 338.434C230.889 336.896 225.666 333.583 221.929 332.491C221.464 333.699 220.994 334.934 220.861 336.245C220.477 339.969 225.649 340.931 231.644 341.296H231.642Z" fill="#222222"/>
<path d="M203.809 206.872C198.598 203.207 182.926 200.365 165.629 198.255C160.846 197.671 156.919 194.188 155.751 189.505L115.514 173.493C115.514 173.493 96.4668 201.757 96.3143 223.381C96.2429 233.465 100.878 234.466 100.88 234.468C100.88 234.468 172.618 235 175.762 235.326C180.909 235.858 187.699 248.705 189.394 260.405C191.092 272.106 221.006 319.694 221.006 319.694C221.006 319.694 227.245 321.695 230.128 321.528C233.231 321.345 234.667 320.305 234.667 320.305C234.667 320.305 217.333 216.389 203.806 206.874L203.809 206.872Z" fill="#12326E"/>
<path d="M149.967 56.0597C144.439 53.1513 136.025 52.7569 134.657 52.5745C118.302 50.3734 108.458 74.1835 107.878 81.398C106.81 94.6957 99.7883 96.7242 89.9056 105.053C70.0885 121.749 75.8996 141.155 86.7368 148.367C93.2392 152.693 104.699 148.367 104.699 148.367C104.861 148.48 136.042 130.904 151.411 122.425C174.454 119.144 164.057 63.4739 149.967 56.0597Z" fill="#222222"/>
<path d="M146.557 114.232C146.628 114.269 139.289 117.614 133.99 115.859C129.006 114.215 124.616 106.697 124.685 106.685C126.848 106.372 129.047 104.232 129.662 91.563L130.619 91.8045L146.727 95.8838C146.727 95.8838 146.089 100.996 145.826 105.829C145.605 109.886 145.649 113.749 146.554 114.232H146.557Z" fill="#FFC48E"/>
<path d="M146.727 95.8837C146.727 95.8837 146.727 96.9362 146.125 101.691C137.014 99.3887 132.999 96.3619 130.165 92.8988L146.725 95.8837H146.727Z" fill="#ED975D"/>
<path d="M150.164 96.527C150.164 96.527 128.865 100.002 126.91 86.6801C124.954 73.3578 120.889 64.8344 134.403 62.0541C147.92 59.2738 151.315 63.9668 153.047 68.2531C154.779 72.5419 155.655 95.2823 150.164 96.5295V96.527Z" fill="#FFC48E"/>
<path d="M150.183 61.4947C150.183 61.4947 140.51 76.7913 131.877 80.4146C123.241 84.0379 119 82.1991 119 82.1991C119 82.1991 122.929 76.2318 123.952 68.2187C124.255 65.8574 125.79 63.8313 127.997 62.9465C134.194 60.4595 146.178 56.5404 150.186 61.4947H150.183Z" fill="#222222"/>
<path d="M141.688 62.9736C141.688 62.9736 147.357 65.8845 149.692 68.6155C151.945 71.248 154.548 78.3959 154.361 81.6051C154.361 81.6051 157.158 66.2247 151.333 60.9376C145.155 55.3326 141.688 62.9736 141.688 62.9736Z" fill="#222222"/>
<path d="M163.597 146.777C162.95 190.153 163.42 181.087 158.684 185.204C157.542 186.195 154.334 186.786 150.112 187.065C136.837 187.947 113.502 185.756 112.614 183.298C109.551 174.795 111.713 172.152 109.16 159.131C108.894 157.746 108.564 156.247 108.178 154.615C106.047 145.673 103.976 142.629 111.531 128.262C118.385 115.247 126.443 104.676 127.085 105.055C145.165 115.809 145.785 106.795 145.785 106.795C145.785 106.795 163.917 125.619 163.599 146.777H163.597Z" fill="white"/>
<path d="M145.779 106.798C145.779 106.798 164.285 109.941 166.47 117.966C168.654 125.991 181.512 173.17 181.512 173.17C181.512 173.17 172.054 174.874 167.685 170.496C163.316 166.119 152.481 129.883 152.481 129.883L145.782 106.8L145.779 106.798Z" fill="white"/>
<path d="M150.11 187.065C136.835 187.947 113.5 185.756 112.611 183.298C109.548 174.795 111.711 172.153 109.157 159.131L115.561 141.066C115.561 141.066 114.503 161.182 120.423 166.474C126.337 171.763 144.666 176.688 147.544 181.107C148.932 183.229 149.844 185.357 150.113 187.065H150.11Z" fill="#EBF3FF"/>
<path d="M134.9 178.605C134.9 178.605 147.999 175.685 150.109 176.848C152.223 178.011 157.387 182.253 158.034 183.73C158.681 185.206 153.33 182.611 151.588 182.142C150.461 181.839 147.494 182.872 146.026 183.363C139.845 185.428 136.057 184.366 136.057 184.366L134.9 178.608V178.605Z" fill="#FFC48E"/>
<path d="M127.08 105.058C127.08 105.058 108.544 106.142 102.455 114.651C93.8864 126.625 76.8862 177.659 86.6287 184.464C97.6013 192.13 136.564 186.471 136.564 186.471C136.564 186.471 137.86 180.4 136.057 177.462C134.254 174.524 104.935 169.779 103.582 168.423C102.229 167.068 120.496 141.988 120.496 137.921C120.496 133.854 127.08 105.058 127.08 105.058Z" fill="white"/>
<path d="M150.744 180.501C150.744 180.501 153.487 184.048 154.388 184.472C155.288 184.896 155.869 184.79 155.869 184.79L154.019 181.455L150.744 180.501Z" fill="#FFC48E"/>
<path d="M150.109 176.848L158.088 180.73C158.088 180.73 157.748 181.287 156.767 181.243C155.785 181.198 153.305 180.289 153.305 180.289L150.109 176.848Z" fill="#FFC48E"/>
<path d="M179.502 186.049H142.446C142.446 184.415 143.77 183.089 145.401 183.089H179.502V186.049Z" fill="#0E839E"/>
<path d="M179.397 145.619H236.685L222.945 186.049H165.282L179.397 145.619Z" fill="#0E839E"/>
<path d="M237.529 145.616L223.789 186.049H166.126L180.24 145.616H237.529Z" fill="#21A7CC"/>
<path d="M206.64 165.461C206.284 167.006 204.746 168.258 203.204 168.258C201.661 168.258 200.699 167.006 201.056 165.461C201.412 163.915 202.95 162.663 204.493 162.663C206.035 162.663 206.995 163.915 206.64 165.461Z" fill="white"/>
<path d="M129.638 186.049H380.702C381.757 186.049 382.613 186.907 382.613 187.964V193.229C382.613 194.286 381.757 195.144 380.702 195.144H129.638C128.583 195.144 127.727 194.286 127.727 193.229V187.964C127.727 186.907 128.583 186.049 129.638 186.049Z" fill="#182D4F"/>
<path d="M386.847 344.985L386.956 344.973C388.242 344.813 389.152 343.664 388.99 342.405L366.617 190.68L358.427 190.915L384.751 343.459C384.921 344.436 385.846 345.111 386.85 344.985H386.847Z" fill="#182D4F"/>
<path d="M121.232 344.985L121.124 344.973C119.837 344.813 118.927 343.664 119.089 342.405L141.462 190.68L149.652 190.915L123.328 343.459C123.161 344.436 122.233 345.111 121.229 344.985H121.232Z" fill="#182D4F"/>
<path d="M173.025 344.985L172.917 344.973C171.63 344.813 170.72 343.664 170.882 342.405L193.255 190.68L201.445 190.915L175.121 343.459C174.951 344.436 174.026 345.111 173.022 344.985H173.025Z" fill="#182D4F"/>
<path d="M305.015 344.862H349.41C351.545 342.252 350.758 332.619 350.436 329.472C350.369 328.838 350.323 328.469 350.323 328.469C350.323 328.469 335.163 316.319 333.079 325.622C333.015 325.913 332.939 326.198 332.855 326.479C330.232 335.18 318.463 339.134 311.668 340.236C307.249 340.953 305.618 343.255 305.013 344.86L305.015 344.862Z" fill="black"/>
<path d="M426.157 200.335C424.555 200.335 350.109 214.338 337.795 229.61C331.645 237.238 330.729 325.346 330.729 325.346C330.729 325.346 338.339 334.798 354.776 329.309C354.776 329.309 366.826 269.027 365.938 250.746C365.692 245.69 416.803 250.014 426.157 247.588C435.51 245.163 458.368 224.774 453.332 214.843C448.296 204.91 426.157 200.335 426.157 200.335Z" fill="#09234C"/>
<path d="M338.116 178.761C338.116 178.761 323.098 178.963 319.548 180.488C315.998 182.014 308.792 185.514 310.721 186.052C312.65 186.589 321.849 185.83 323.836 186.135C325.824 186.441 328.275 186.052 329.492 186.052C330.71 186.052 336.388 186.052 336.388 186.052L338.116 178.761Z" fill="#FFC48E"/>
<path d="M320.557 142.656C320.557 142.656 315.437 138.991 310.465 138.278C307.628 137.872 304.873 137.366 303.207 136.777C298.619 135.158 289.44 126.889 290.136 125.92C292.363 122.812 303.079 129.39 304.949 128.683C306.819 127.976 301.355 124.084 303.254 122.713C304.248 121.998 306.57 125.582 308.467 125.942C311.036 126.43 313.043 130.063 313.818 130.253C315.324 130.623 321.917 135.535 321.917 135.535L320.559 142.654L320.557 142.656Z" fill="#FFC48E"/>
<path d="M418.741 99.8521C418.741 99.8521 407.311 103.401 396.048 134.473C384.785 165.544 380.509 167.223 376.416 168.44C372.322 169.661 336.388 176.828 336.388 176.828V186.049H391.755C391.755 186.049 412.517 166.262 418.741 152.942C424.966 139.622 418.741 99.8496 418.741 99.8496V99.8521Z" fill="#0E839E"/>
<path d="M285.395 344.862H329.79C331.925 342.252 331.138 332.619 330.816 329.472C330.749 328.838 330.703 328.469 330.703 328.469C330.703 328.469 315.543 316.319 313.459 325.622C313.395 325.913 313.319 326.198 313.235 326.479C310.612 335.18 298.843 339.134 292.047 340.236C287.629 340.953 285.998 343.255 285.393 344.86L285.395 344.862Z" fill="#222222"/>
<path d="M404.219 200.335C402.615 200.335 328.171 214.338 315.858 229.61C309.707 237.238 308.792 325.346 308.792 325.346C308.792 325.346 316.404 334.798 332.838 329.309C332.838 329.309 344.888 269.027 344 250.746C343.754 245.69 394.865 250.014 404.219 247.588C413.573 245.163 436.431 224.774 431.395 214.843C426.359 204.91 404.219 200.335 404.219 200.335Z" fill="#12326E"/>
<path d="M408.879 109.699C414.235 109.255 419.849 107.826 424.703 106.248C430.77 104.276 435.658 101.393 432.509 95.8394C429.606 90.7199 424.905 79.2832 425.222 69.8085L413.935 78.9234L406.266 85.1125C406.266 85.1125 406.298 88.7629 407.137 95.1591C407.289 96.3249 407.469 97.5845 407.681 98.9278C407.85 100.015 407.353 101.099 406.421 101.679C406.362 101.715 406.305 101.75 406.249 101.787C402.438 104.185 404.399 110.071 408.884 109.699H408.879Z" fill="#FFC48E"/>
<path d="M406.263 83.6065C406.263 83.6065 405.872 84.9325 406.546 89.8252C413.383 88.7086 419.772 83.2442 419.772 83.2442C416.291 82.2878 415.027 78.5191 412.434 78.8716L406.263 83.6065Z" fill="#ED975D"/>
<path d="M399.941 84.7206C399.941 84.7206 426.236 89.0981 428.706 72.648C431.173 56.2002 436.232 45.6878 419.546 42.1976C402.861 38.7075 398.649 44.4924 396.494 49.7819C394.337 55.0714 393.165 83.1579 399.943 84.7206H399.941Z" fill="#FFC48E"/>
<path d="M392.624 42.5032C391.494 46.4642 394.516 51.2878 399.589 52.8776C407.119 55.234 405.454 64.4894 408.844 64.3637C412.232 64.238 413.6 59.0446 416.626 63.1929C419.206 66.7324 414.478 70.9275 414.803 72.8698C415.361 76.2022 420.572 83.0199 425.266 82.6772C429.96 82.3346 438.746 59.9812 436.989 53.065C435.232 46.1487 428.203 38.8553 421.551 37.8497C414.899 36.844 405.66 39.7205 403.527 39.7205C401.394 39.7205 393.231 40.3613 392.621 42.5008L392.624 42.5032Z" fill="#222222"/>
<path d="M453.682 122.681C449.88 107.355 439.375 91.2745 432.273 91.2869C420.168 91.3091 402.77 94.5109 395.746 111.873C390.572 124.66 383.671 198.218 391.47 203.448C409.299 215.408 450.628 239.819 457.97 214.924C464.696 192.113 460.277 149.281 453.679 122.681H453.682Z" fill="#21A7CC"/>
<path d="M424.285 107.429C420.833 98.4299 409.695 95.3193 402.101 101.24C397.992 104.442 392.964 109.001 386.887 115.484C364.299 139.582 359.709 139.432 355.467 138.934C351.226 138.436 315.385 130.815 315.385 130.815C315.385 130.815 313.55 132.171 312.47 134.364C311.028 137.293 311.754 139.289 311.754 139.289C310.349 138.38 324.459 148.123 331.48 152.008C340.755 157.137 354.729 161.948 360.294 163.775C361.871 164.292 363.574 164.268 365.136 163.703C373.397 160.721 401.139 149.848 423.724 130.988C429.675 126.019 427.488 115.775 424.287 107.431L424.285 107.429Z" fill="#21A7CC"/>
<path d="M433.493 91.4347L430.752 85.2505C430.752 85.2505 406.224 87.2544 402.101 101.24C402.101 101.24 421.113 91.7329 433.491 91.4347H433.493Z" fill="white"/>
<path d="M493.042 344.307H493.212C494.597 344.278 495.668 343.144 495.537 341.84L486.297 249.392L478.234 250.112L491.502 343.058C491.606 343.785 492.27 344.322 493.042 344.307Z" fill="#F5CF68"/>
<path d="M445.484 344.307H445.654C447.039 344.278 448.109 343.144 447.979 341.84L438.741 249.392L430.679 250.112L443.947 343.058C444.05 343.785 444.714 344.322 445.487 344.307H445.484Z" fill="#F5CF68"/>
<path d="M356.203 344.307H356.033C354.648 344.278 353.578 343.144 353.708 341.84L362.949 249.392L371.011 250.112L357.743 343.058C357.639 343.785 356.975 344.322 356.203 344.307Z" fill="#D8AE45"/>
<path d="M490.432 236.297L499.2 159.084C500.349 147.958 496.634 137.061 480.606 136.218L452.409 134.498C435.697 133.807 428.154 147.741 426.038 158.468L409.299 243.344L490.43 236.294L490.432 236.297Z" fill="#F5CF68"/>
<path d="M360.58 235.947H490.293V246.166C490.293 248.695 488.243 250.746 485.722 250.746H360.58C358.056 250.746 356.009 248.692 356.009 246.166V240.526C356.009 237.998 358.058 235.947 360.58 235.947Z" fill="#D8AE45"/>
<path d="M412.849 235.947H490.289V247.189C490.289 249.151 488.698 250.746 486.739 250.746H412.849C410.891 250.746 409.299 249.151 409.299 247.189V239.504C409.299 237.542 410.891 235.947 412.849 235.947Z" fill="#F5CF68"/>
</g>
<g clip-path="url(#clip2_640_1138)">
<path d="M569.189 340.258H0.811007C0.3631 340.258 0 340.981 0 341.873V343.385C0 344.277 0.3631 345 0.811007 345H569.189C569.637 345 570 344.277 570 343.385V341.873C570 340.981 569.637 340.258 569.189 340.258Z" fill="#2E3552"/>
</g>
<defs>
<clipPath id="clip0_640_1138">
<rect width="562.875" height="343.814" fill="white" transform="translate(4 1.18555)"/>
</clipPath>
<clipPath id="clip1_640_1138">
<rect width="429.395" height="345" fill="white" transform="translate(70)"/>
</clipPath>
<clipPath id="clip2_640_1138">
<rect width="570" height="4.74227" fill="white" transform="translate(0 340.258)"/>
</clipPath>
</defs>
</svg>
